<svg width="1503" height="481" viewBox="0 0 1503 481" fill="none" xmlns="http://www.w3.org/2000/svg">
<rect x="1" y="0.102539" width="1502" height="480" fill="#212121"/>
<path fill-rule="evenodd" clip-rule="evenodd" d="M385.363 480L383 478.047L1043.43 0H1234.5L899.018 478.047L890.534 480H385.363Z" fill="#FF5B23"/>
<path d="M738.365 200.903C770.657 114.249 881.667 56.5661 968.321 88.8575C1017.39 107.142 1052.79 145.994 1068.42 191.989C1077.91 181.8 1091.12 179.047 1104.74 175.545C1115.72 172.722 1144.46 161.426 1126.88 189.74C1102.76 228.6 1082.8 273.138 1068.6 298.31C1057.09 318.712 967.959 440.497 851.382 402.655C763.425 374.102 706.074 287.555 738.365 200.901V200.903Z" fill="#160C00"/>
<path d="M1103.28 195.395C1103.28 195.395 1057.52 217.135 1045.94 211.842C1034.36 206.549 1022 147.783 1023.45 139.515C1024.91 131.247 1084.53 124.06 1084.53 124.06L1103.28 195.395Z" fill="#160C00"/>
<path d="M896.734 48.0488C898.713 49.6357 932.275 96.154 932.275 96.154C932.275 96.154 852.599 140.274 842.537 133.107C832.474 125.939 825.106 94.7428 826.403 92.2152C827.701 89.6893 896.736 48.0488 896.736 48.0488H896.734Z" fill="#160C00"/>
<path d="M800.592 297.825C800.592 297.825 842.781 290.485 839.663 283.236C836.544 275.986 816.163 200.766 812.835 200.015C809.507 199.264 779.828 221.095 776.96 224.869C774.089 228.643 800.591 297.825 800.591 297.825H800.592Z" fill="#160C00"/>
<path d="M993.883 361.313C986.797 357.827 951.744 322.943 953.237 321.686C954.73 320.429 1038.51 288.209 1043.29 291.368C1048.07 294.528 1071 325.275 1065.69 328.836C1060.38 332.396 993.883 361.313 993.883 361.313Z" fill="black"/>
<path d="M898.158 62.0596C898.496 63.3465 909.08 83.0937 907.923 87.0769C906.765 91.06 872.31 109.215 867.188 107.144C862.065 105.072 852.515 89.1146 855.692 85.4048C858.87 81.695 872.994 67.5462 882.721 65.4623C892.448 63.3784 898.158 62.0614 898.158 62.0614V62.0596Z" fill="#160C00"/>
<path d="M1158.34 123.802C1170.32 151.308 1168.98 166.183 1156.54 173.294C1144.1 180.405 1114.31 199.456 1103.28 195.393C1092.25 191.33 1077.52 129.9 1079.15 122.918C1080.77 115.937 1093.15 108.317 1106.31 101.233C1119.48 94.147 1136.99 74.7352 1158.34 123.802Z" fill="#252525"/>
<path d="M1092.38 174.096C1092.38 174.096 1085.51 175.453 1081.26 177.663C1077.01 179.871 1067.62 179.796 1060.94 167.52C1054.26 155.242 1053.45 146.253 1055.08 144.171C1056.71 142.087 1070.5 127.406 1075.95 129.193C1081.41 130.981 1087.98 152.414 1091.04 159.967C1094.1 167.52 1092.38 174.098 1092.38 174.098V174.096Z" fill="#160C00"/>
<path d="M1105.27 190.26C1106.4 190.626 1110.71 191.143 1123.22 185.384C1131.95 181.362 1141.43 175.778 1148.36 171.701C1150.4 170.499 1152.24 169.414 1153.81 168.518C1160.52 164.682 1166.52 156.384 1153.3 126.001C1146.22 109.733 1139.17 100.194 1132.33 97.6482C1126.69 95.5448 1121.46 98.3919 1114.13 102.975C1112.34 104.093 1110.65 105.151 1108.92 106.081C1093.74 114.255 1085.53 120.303 1084.54 124.061C1084.3 126.691 1086.51 140.607 1091.7 158.521C1098.42 181.769 1103.72 189.261 1105.27 190.26H1105.27Z" fill="#FF5B23"/>
<path d="M1114.13 102.971C1114.49 102.744 1114.85 102.524 1115.2 102.308C1120.04 107.253 1125.76 113.593 1130.67 120.251C1138.3 130.595 1143.12 156.514 1143.63 174.473C1137.44 178.08 1130.1 182.216 1123.22 185.383C1110.71 191.141 1106.4 190.623 1105.27 190.259C1103.72 189.259 1098.43 181.767 1091.7 158.519C1086.51 140.606 1084.3 126.689 1084.54 124.059C1085.54 120.301 1093.74 114.254 1108.93 106.08C1110.65 105.149 1112.34 104.093 1114.13 102.973L1114.13 102.971Z" fill="#160C00"/>
<path fill-rule="evenodd" clip-rule="evenodd" d="M893.555 35.9972C898.301 46.9012 897.209 55.9556 894.772 62.4984C892.335 69.0412 851.717 93.1088 835.477 95.5388C820.043 97.85 816.462 88.1217 807.495 63.7616C807.028 62.4906 806.545 61.1798 806.046 59.8288C795.97 32.5838 799.819 24.8819 806.493 16.6032C809.683 12.6446 820.383 5.74325 832.463 0.102539H879.921C884.814 7.16271 887.694 17.108 890.072 25.318C891.297 29.5496 892.389 33.3202 893.555 35.9972Z" fill="url(#paint0_linear_9038_32316)"/>
<path fill-rule="evenodd" clip-rule="evenodd" d="M834.661 90.0961C831.714 90.5363 829.437 90.4369 827.699 89.789C822.182 87.7318 818.597 77.9922 812.656 61.8536L811.205 57.9183C801.471 31.5964 805.783 26.2482 810.776 20.0551C814.53 15.3974 831.877 5.35867 847.209 0H872.704C878.681 5.76999 882.135 17.6981 884.785 26.8483L884.786 26.8499L884.789 26.8589C886.083 31.3318 887.201 35.1928 888.506 38.1924C891.847 45.8676 892.248 53.321 889.699 60.3448C886.069 65.6273 849.583 87.8631 834.661 90.0961Z" fill="#FF5B23"/>
<path d="M853.221 20.2267C862.86 16.2382 872.186 13.5401 879.863 11.7402C881.865 16.6748 883.432 22.0727 884.785 26.7481C886.081 31.223 887.201 35.089 888.505 38.0906C891.846 45.7658 892.247 53.2192 889.698 60.243C886.07 65.5237 849.582 87.7595 834.66 89.9943C831.713 90.4345 829.436 90.3351 827.698 89.6872C822.181 87.6317 818.596 77.8904 812.655 61.7518L812.234 60.6104C823.802 46.4865 837.327 26.8049 853.221 20.2267Z" fill="#160C00"/>
<path d="M800.593 297.823C800.593 297.823 765.796 315.687 757.723 318.307C749.65 320.927 733.396 325.147 720.314 280.142C707.232 235.136 720.209 229.206 736.169 225.122C752.128 221.037 782.289 219.552 784.897 221.747C787.504 223.943 804.628 290.274 800.592 297.823H800.593Z" fill="#252525"/>
<path d="M746.172 313.605C749.701 314.919 752.974 314.063 756.024 313.073C761.846 311.182 784.818 299.692 795.752 294.117C796.164 283.231 785.251 237.133 781.08 226.401C774.528 225.741 751.755 226.811 737.533 230.45C729.931 232.396 725.331 234.293 722.797 238.731C718.932 245.501 719.875 258.915 725.598 278.603C732.961 303.936 740.849 311.619 746.17 313.601L746.172 313.605Z" fill="#FF5B23"/>
<path d="M781.08 226.402C785.251 237.134 796.166 283.23 795.752 294.118C789.745 297.182 780.107 302.028 771.672 306.089C751.87 295.918 732.19 286.725 730.172 273.528C728.954 265.56 732.479 239.317 740.382 229.78C754.621 226.681 774.95 225.785 781.08 226.402Z" fill="#160C00"/>
<path d="M823.952 267.784C823.952 267.784 799.645 285.574 790.725 285.086C781.806 284.598 764.994 262.072 768.048 243.548C771.101 225.022 802.075 222.814 809.598 222.921C817.409 223.031 823.952 267.784 823.952 267.784Z" fill="#160C00"/>
<path d="M1095.62 349.038C1101.48 356.806 1094.38 375.985 1066.97 393.503C1039.57 411.02 1021 416.175 1008.09 398.311C995.167 380.447 985.239 362.436 991.114 353.673C996.99 344.911 1045.57 319.62 1053.47 320.284C1061.38 320.948 1078.14 325.888 1095.61 349.038H1095.62Z" fill="url(#paint1_linear_9038_32316)"/>
<path d="M1045.29 328.238L1031.21 310.649L990.069 330.661C990.069 330.661 1014.6 356.564 1017.82 355.254C1021.03 353.944 1045.29 328.238 1045.29 328.238Z" fill="black"/>
<path d="M1021.96 402.872C1030.76 406.151 1043.73 401.832 1064.01 388.867C1082.49 377.058 1090.49 364.947 1091.82 357.552C1092.23 355.293 1092.01 353.397 1091.22 352.357C1079.53 336.869 1068.53 330.433 1061.36 327.76C1057.73 326.409 1054.89 325.935 1053.11 325.777C1050.65 325.902 1039.59 330.064 1023.35 338.71C1007.62 347.088 997.354 354.254 995.687 356.741C994.459 358.571 992.05 366.745 1012.54 395.089C1015.39 399.029 1018.47 401.575 1021.96 402.872Z" fill="#FF5B23"/>
<path d="M1023.36 338.708C1039.59 330.062 1050.66 325.901 1053.11 325.775C1054.89 325.933 1057.73 326.406 1061.36 327.758C1066.52 329.68 1073.66 333.573 1081.62 341.358C1073.35 352.85 1059.78 369.638 1046.41 377.106C1035.57 383.166 1020.21 386.233 1006.49 386.292C992.59 364.998 994.596 358.363 995.686 356.739C997.353 354.252 1007.62 347.088 1023.36 338.708Z" fill="#160C00"/>
<path d="M1044.57 314.112C1100.65 258.035 1100.65 167.116 1044.57 111.038C988.492 54.9611 897.573 54.9611 841.495 111.038C785.418 167.116 785.418 258.035 841.495 314.112C897.573 370.189 988.492 370.189 1044.57 314.112Z" fill="black"/>
<path d="M1046.87 307.932C1102.95 251.855 1102.95 160.936 1046.87 104.859C990.795 48.7814 899.876 48.7814 843.799 104.859C787.722 160.936 787.722 251.855 843.799 307.932C899.876 364.01 990.795 364.01 1046.87 307.932Z" fill="#D2FF00"/>
<path d="M1077.78 219.122C1084.81 145.976 1031.21 80.9818 958.061 73.9541C884.915 66.9264 819.921 120.526 812.893 193.672C805.866 266.819 859.465 331.812 932.611 338.84C1005.76 345.868 1070.75 292.268 1077.78 219.122Z" fill="#8FAC06"/>
<path d="M865.158 244.728L849.898 246.692C848.423 246.882 847.381 248.232 847.571 249.707L848.622 257.869C848.812 259.343 850.162 260.385 851.637 260.195L866.897 258.231C868.372 258.041 869.413 256.691 869.224 255.216L868.173 247.055C867.983 245.58 866.633 244.538 865.158 244.728Z" fill="#F9F8F4"/>
<path d="M859.307 253.536C859.387 253.54 859.468 253.54 859.55 253.531C860.351 253.439 860.924 252.716 860.833 251.917C860.743 251.119 860.019 250.544 859.22 250.634C859.136 250.643 859.057 250.661 858.98 250.684C858.845 249.933 858.15 249.406 857.381 249.493C856.58 249.585 856.007 250.308 856.098 251.106C856.165 251.699 856.58 252.166 857.115 252.333C856.272 252.297 855.592 251.845 855.521 251.216L855.822 253.845C855.751 253.219 856.311 252.624 857.124 252.397C856.639 252.679 856.343 253.229 856.41 253.822C856.502 254.623 857.225 255.196 858.024 255.105C858.808 255.015 859.374 254.317 859.309 253.536H859.307Z" fill="black"/>
<path d="M858.658 227.134L843.943 231.629C842.521 232.064 841.72 233.569 842.155 234.991L844.559 242.861C844.994 244.283 846.499 245.084 847.921 244.65L862.636 240.154C864.058 239.719 864.859 238.214 864.424 236.792L862.02 228.922C861.585 227.5 860.08 226.699 858.658 227.134Z" fill="#F9F8F4"/>
<path d="M852.454 233.258C852.651 232.926 852.96 232.676 853.327 232.554C854.163 232.277 855.067 232.733 855.343 233.567C855.464 233.935 855.448 234.332 855.299 234.687L855.294 234.701L855.139 235.012L855.446 235.167L855.461 235.175C855.793 235.372 856.043 235.681 856.165 236.049C856.442 236.885 855.988 237.788 855.152 238.065C854.786 238.186 854.387 238.17 854.032 238.021L850.858 236.43L852.455 233.257L852.454 233.258Z" fill="#DCB8FF"/>
<g style="mix-blend-mode:multiply">
<path d="M862.02 228.919C861.587 227.503 860.075 226.699 858.658 227.132L843.943 231.628C842.83 231.969 842.106 232.977 842.051 234.079L844.282 237.605C845.074 238.856 846.746 239.231 847.997 238.439L860.996 230.206C861.479 229.899 861.827 229.463 862.033 228.969L862.018 228.921L862.02 228.919Z" fill="#596C00"/>
</g>
<g style="mix-blend-mode:multiply">
<path d="M864.422 236.792L864.131 235.837L856.402 236.362C854.924 236.463 853.798 237.754 853.899 239.231L854.139 242.749L862.636 240.154C864.053 239.721 864.857 238.208 864.424 236.792H864.422Z" fill="#596C00"/>
</g>
<path d="M874.709 234.037L859.359 235.081C857.875 235.182 856.754 236.466 856.855 237.95L857.414 246.16C857.515 247.644 858.799 248.765 860.283 248.664L875.633 247.62C877.117 247.519 878.238 246.234 878.137 244.75L877.579 236.54C877.478 235.057 876.193 233.936 874.709 234.037Z" fill="#F9F8F4"/>
<path d="M871.477 241.083L868.06 238.605L864.707 241.169L868.124 243.647L871.477 241.083Z" fill="#DCB8FF"/>
<path d="M855.257 216.507L842.258 224.739C841.002 225.535 840.628 227.198 841.424 228.455L845.827 235.407C846.622 236.663 848.286 237.037 849.542 236.241L862.541 228.009C863.797 227.213 864.171 225.55 863.375 224.293L858.972 217.341C858.177 216.085 856.513 215.711 855.257 216.507Z" fill="#F9F8F4"/>
<path d="M851.553 227.196C851.505 227.526 851.58 227.863 851.761 228.143C852.174 228.782 853.032 228.965 853.671 228.552C853.951 228.371 854.155 228.094 854.248 227.771L854.892 224.764L851.889 224.126C851.559 224.079 851.221 224.153 850.941 224.334C850.302 224.748 850.119 225.605 850.533 226.244C850.714 226.525 850.991 226.729 851.312 226.821L851.324 226.825L851.505 226.864C850.81 227.096 850.123 226.968 849.814 226.493L851.241 228.694C850.932 228.218 851.095 227.54 851.591 227L851.553 227.181V227.196Z" fill="black"/>
<path d="M882.575 140.002L874.778 142.633C873.369 143.109 872.613 144.636 873.088 146.045L878.008 160.624C878.483 162.033 880.011 162.79 881.42 162.314L889.217 159.683C890.626 159.207 891.383 157.68 890.907 156.27L885.988 141.692C885.512 140.283 883.984 139.526 882.575 140.002Z" fill="#F9F8F4"/>
<path d="M881.123 152.259C881.134 152.339 881.151 152.417 881.176 152.495C881.423 153.262 882.245 153.683 883.01 153.436C883.775 153.189 884.197 152.368 883.951 151.601C883.926 151.521 883.892 151.446 883.855 151.375C884.565 151.097 884.945 150.31 884.709 149.574C884.462 148.807 883.64 148.386 882.873 148.633C882.305 148.816 881.929 149.315 881.87 149.872C881.741 149.038 882.051 148.283 882.653 148.09L880.134 148.901C880.736 148.708 881.428 149.139 881.81 149.893C881.437 149.474 880.841 149.29 880.273 149.473C879.506 149.719 879.085 150.541 879.332 151.306C879.573 152.059 880.369 152.476 881.123 152.259Z" fill="black"/>
<g style="mix-blend-mode:multiply">
<path d="M884.873 154.853L886.439 160.616L889.217 159.679C890.621 159.205 891.38 157.67 890.907 156.268L889.1 150.914L886.764 151.55C885.335 151.938 884.483 153.426 884.871 154.855L884.873 154.853Z" fill="#596C00"/>
</g>
<path d="M901.952 113.448L896.627 119.722C895.665 120.856 895.804 122.555 896.938 123.518L908.668 133.474C909.802 134.436 911.501 134.297 912.463 133.163L917.788 126.889C918.751 125.755 918.612 124.056 917.478 123.094L905.747 113.138C904.613 112.176 902.914 112.315 901.952 113.448Z" fill="#F9F8F4"/>
<path d="M897.423 120.395L902.748 114.121C903.336 113.428 904.374 113.343 905.067 113.931L916.798 123.887C917.49 124.474 917.575 125.512 916.988 126.204L911.662 132.479C911.075 133.171 910.037 133.256 909.345 132.669L897.614 122.713C896.921 122.125 896.836 121.087 897.424 120.394L897.423 120.395Z" fill="black"/>
<path d="M895.926 146.794L887.985 148.952C886.55 149.342 885.703 150.822 886.093 152.257L890.128 167.104C890.518 168.539 891.998 169.386 893.433 168.996L901.374 166.838C902.809 166.448 903.656 164.968 903.266 163.533L899.231 148.686C898.841 147.251 897.361 146.404 895.926 146.794Z" fill="#F9F8F4"/>
<path d="M895.719 161.749L897.48 157.913L894.308 155.128L892.549 158.964L895.719 161.749Z" fill="#DCB8FF"/>
<g style="mix-blend-mode:multiply">
<path d="M897.8 157.948L902.328 166.358C903.152 165.708 903.556 164.604 903.265 163.534L900.517 153.427L898.893 154.302C897.59 155.005 897.097 156.643 897.8 157.948Z" fill="#596C00"/>
</g>
<path d="M906.661 147.338L899.415 151.239C898.106 151.944 897.616 153.577 898.321 154.886L905.616 168.433C906.321 169.743 907.954 170.233 909.263 169.528L916.509 165.626C917.818 164.921 918.308 163.288 917.603 161.979L910.308 148.432C909.603 147.122 907.97 146.632 906.661 147.338Z" fill="#F9F8F4"/>
<path d="M910.379 157.1C910.743 157.228 911.05 157.482 911.24 157.817C911.675 158.582 911.407 159.559 910.642 159.993C910.307 160.183 909.914 160.247 909.534 160.169L909.518 160.166L909.185 160.075L909.092 160.405L909.087 160.42C908.959 160.785 908.706 161.09 908.37 161.28C907.605 161.715 906.629 161.447 906.194 160.682C906.004 160.347 905.94 159.953 906.018 159.575L906.954 156.152L910.378 157.097L910.379 157.1Z" fill="#DCB8FF"/>
<path d="M1024.08 182.757L1021.11 177.775C1020.81 176.326 1019.37 175.389 1017.92 175.694L1002.99 175.636C1001.54 175.941 1000.48 180.606 1000.79 182.056L1002.48 190.109C1002.79 191.558 1004.23 192.493 1005.67 192.19L1020.73 189.018C1022.18 188.712 1024.38 184.206 1024.08 182.757H1024.08Z" fill="#160C00"/>
<path d="M1019.13 171.75L1004.08 174.922C1002.62 175.229 1001.69 176.657 1002 178.112L1003.69 186.165C1004 187.62 1005.43 188.551 1006.88 188.244L1021.94 185.072C1023.39 184.766 1024.32 183.337 1024.02 181.882L1022.32 173.83C1022.01 172.375 1020.59 171.444 1019.13 171.75Z" fill="#F9F8F4"/>
<path d="M1004.29 175.938L1019.35 172.765C1020.24 172.578 1021.11 173.147 1021.3 174.035L1022.99 182.089C1023.18 182.976 1022.61 183.849 1021.72 184.036L1006.67 187.209C1005.78 187.396 1004.91 186.827 1004.72 185.938L1003.02 177.885C1002.83 176.996 1003.4 176.125 1004.29 175.938Z" fill="black"/>
<path d="M992.611 275.52L989.226 290.53C988.899 291.98 989.81 293.421 991.261 293.749L999.288 295.559C1000.74 295.886 1002.18 294.975 1002.51 293.525L1005.89 278.516C1006.22 277.065 1005.31 275.624 1003.86 275.297L995.83 273.486C994.38 273.159 992.938 274.07 992.611 275.52Z" fill="#F9F8F4"/>
<path d="M990.242 290.757L993.626 275.75C993.826 274.863 994.707 274.307 995.593 274.507L1003.62 276.317C1004.51 276.517 1005.06 277.397 1004.86 278.282L1001.48 293.291C1001.28 294.178 1000.4 294.734 999.513 294.535L991.485 292.724C990.599 292.524 990.042 291.644 990.242 290.757Z" fill="black"/>
<path d="M994.242 274.037L986.332 276.307C984.902 276.717 984.076 278.209 984.486 279.638L988.73 294.427C989.14 295.857 990.632 296.683 992.061 296.273L999.971 294.003C1001.4 293.593 1002.23 292.102 1001.82 290.672L997.573 275.883C997.163 274.453 995.671 273.627 994.242 274.037Z" fill="#F9F8F4"/>
<path d="M994.529 275.048L986.619 277.318C985.746 277.568 985.241 278.48 985.491 279.353L989.735 294.142C989.986 295.016 990.897 295.521 991.771 295.27L999.681 293C1000.55 292.75 1001.06 291.838 1000.81 290.965L996.565 276.176C996.314 275.302 995.403 274.797 994.529 275.048Z" fill="black"/>
<path d="M985.628 276.157L978.418 280.122C977.114 280.839 976.639 282.476 977.356 283.779L984.77 297.261C985.487 298.564 987.124 299.039 988.427 298.323L995.638 294.357C996.941 293.64 997.416 292.003 996.7 290.7L989.285 277.218C988.568 275.915 986.931 275.44 985.628 276.157Z" fill="#F9F8F4"/>
<path d="M978.925 281.04L986.137 277.073C986.932 276.636 987.933 276.927 988.37 277.721L995.785 291.204C996.223 291.999 995.932 293 995.137 293.437L987.925 297.403C987.129 297.841 986.129 297.551 985.691 296.755L978.277 283.275C977.839 282.478 978.129 281.478 978.925 281.04Z" fill="black"/>
<path d="M976.744 281.285L970.163 286.225C968.973 287.117 968.732 288.805 969.625 289.995L978.86 302.301C979.753 303.49 981.441 303.731 982.63 302.838L989.212 297.899C990.401 297.006 990.642 295.318 989.749 294.129L980.514 281.823C979.622 280.633 977.934 280.393 976.744 281.285Z" fill="#F9F8F4"/>
<path d="M970.791 287.056L977.372 282.117C978.099 281.571 979.131 281.718 979.676 282.445L988.911 294.751C989.456 295.477 989.309 296.508 988.583 297.053L982 301.993C981.273 302.539 980.242 302.392 979.696 301.665L970.462 289.36C969.917 288.633 970.064 287.602 970.791 287.056Z" fill="black"/>
<path d="M985.287 341.02C979.978 335.548 971.439 302.404 966.112 302.976C960.785 303.548 959.897 323.641 964.468 339.485C965.471 342.957 966.637 345.813 967.842 348.202C974.27 347.176 980.605 345.731 986.801 343.855C986.505 342.765 986.031 341.789 985.286 341.02H985.287Z" fill="#160C00"/>
<g style="mix-blend-mode:multiply">
<path d="M1088.96 207.384C1088.85 223.728 1085.93 240.332 1079.89 256.536C1064.71 297.277 1032.98 327.003 995.18 341.019L1088.96 207.384Z" fill="#212121"/>
<path d="M805.228 175.033C806.645 168.739 808.462 162.466 810.777 156.251C833.881 94.2532 895.267 57.7123 958.128 63.3711L805.227 175.031L805.228 175.033Z" fill="#212121"/>
</g>
<path d="M844.617 111.622L845.922 102.735C865.717 83.7775 890.562 70.9068 917.276 65.5586C916.758 74.1391 915.041 101.677 914.301 103.065C913.424 104.71 905.87 117.89 905.87 117.89C905.87 117.89 907.622 89.0884 904.915 85.959C902.208 82.8297 889.106 82.7622 876.431 88.153C863.754 93.5438 844.617 111.622 844.617 111.622Z" fill="#160C00"/>
<path d="M835.159 114.259L866.431 175.215C865.12 174.8 858.147 185.415 841.734 164.78C832.209 152.805 826.033 140.327 822.524 131.956C826.317 125.683 830.547 119.776 835.161 114.261L835.159 114.259Z" fill="#160C00"/>
<path d="M851.391 262.815C851.391 262.815 851.398 279.034 845.519 286.933C841.795 291.937 841.699 299.214 839.038 302.977C834.787 298.289 830.868 293.339 827.291 288.166C828.956 283.709 831.086 280.134 831.086 280.134L851.391 262.815Z" fill="#160C00"/>
<path d="M805.881 205.892L847.337 222.808C847.337 222.808 844.836 231.777 826.432 225.603C815.615 221.975 807.612 220.795 802.434 220.743C801.963 216.086 801.718 211.391 801.708 206.673C804.131 206.208 805.881 205.892 805.881 205.892Z" fill="#160C00"/>
<path d="M1088.25 220.606C1085.16 222.414 1081.8 224.211 1079.33 225.098C1073.3 227.257 1039.06 239.458 1029.64 237.813C1020.22 236.169 1014.43 227.188 1017.3 227.106C1020.17 227.024 1073.64 200.956 1077.1 194.733C1080.56 188.51 1069.24 148.419 1057.55 146.954C1045.86 145.49 1035.54 164.412 1030.54 169.984C1025.54 175.555 1016.85 173.789 1015.03 173.658L1021.47 165.844L1031.67 142.188C1031.67 142.188 1048.68 123.465 1060.55 122.574C1061 122.541 1061.46 122.542 1061.93 122.562C1082.02 150.558 1091.78 185.391 1088.25 220.604V220.606Z" fill="#160C00"/>
<path d="M976.066 312.926C976.066 312.926 977.243 310.349 977.836 308.785C978.429 307.223 979.806 302.702 978.329 302.281C976.852 301.861 975.134 307.291 975.134 307.291C975.134 307.291 975.606 298.47 974.19 297.409C972.773 296.347 968.712 296.896 965.478 300.379C962.244 303.861 967.835 316.233 967.835 316.233L976.068 312.926H976.066Z" fill="#D3D3D3"/>
<path d="M1015.01 290.811C1015.01 290.811 1013.05 292.861 1011.82 293.993C1010.59 295.124 1006.91 298.083 1005.97 296.869C1005.03 295.653 1009.43 292.041 1009.43 292.041C1009.43 292.041 1001.42 295.756 999.908 294.837C998.397 293.915 997.396 289.941 999.427 285.644C1001.46 281.346 1015.02 281.941 1015.02 281.941L1015.01 290.813V290.811Z" fill="#D3D3D3"/>
<path d="M858.506 150.626C858.506 150.626 862.986 156.66 865.49 159.132C867.995 161.605 865.941 163.612 865.941 163.612C865.941 163.612 871.834 171.437 866.431 175.214C861.026 178.991 848.897 164.479 848.075 161.543C847.254 158.605 850.236 152.05 853.047 150.896C855.859 149.74 858.506 150.626 858.506 150.626Z" fill="#D3D3D3"/>
<path d="M910.644 92.7656C910.644 92.7656 908.91 99.5675 907.527 103.757C906.144 107.944 904.481 115.727 905.869 117.891C907.257 120.055 911.123 109.691 911.123 109.691C911.123 109.691 915.041 113.198 918.921 112.207C922.801 111.217 925.421 95.9358 925.421 95.9358L918.786 92.2881L910.644 92.7656Z" fill="#D3D3D3"/>
<path d="M857.589 147.287L858.507 150.626C858.507 150.626 854.47 151.936 851.902 155.383C849.333 158.83 848.077 161.544 848.077 161.544L846.44 158.058C846.44 158.058 849.177 151.37 850.957 149.71C852.738 148.049 857.591 147.287 857.591 147.287H857.589Z" fill="white"/>
<path d="M925.838 91.9692L925.421 95.9329C925.421 95.9329 922.318 94.4099 918.358 93.5455C914.398 92.681 910.49 93.0999 910.49 93.0999L911.228 88.6038C911.228 88.6038 917.632 88.3801 919.633 88.7582C921.633 89.1363 925.838 91.9692 925.838 91.9692Z" fill="white"/>
<path d="M1034.1 225.87C1034.1 225.87 1032.23 228.023 1025.98 229.28C1021.65 230.148 1014.47 228.424 1014.44 227.191C1014.41 225.957 1015.18 225.185 1015.18 225.185C1015.18 225.185 1012.85 224.885 1012.24 223.679C1011.63 222.472 1013.17 221.173 1013.17 221.173C1013.17 221.173 1009.83 219.194 1010.76 217.582C1011.68 215.971 1024.11 213.913 1026.98 214.329C1029.84 214.744 1033.15 220.953 1033.65 222.687C1034.14 224.421 1034.09 225.872 1034.09 225.872L1034.1 225.87Z" fill="#D3D3D3"/>
<path d="M835.212 206.621C835.212 206.621 837.452 205.998 842.277 207.973C845.609 209.336 849.718 213.756 849.18 214.61C848.642 215.462 847.765 215.636 847.765 215.636C847.765 215.636 849.219 216.894 849.088 217.991C848.956 219.088 847.32 219.273 847.32 219.273C847.32 219.273 848.697 222.129 847.338 222.807C845.978 223.485 839.804 218.689 834.836 217.688C832.52 217.221 833.629 210.391 834.076 208.987C834.524 207.583 835.212 206.621 835.212 206.621Z" fill="#D3D3D3"/>
<path d="M845.061 276.116C845.061 276.116 847.194 275.193 849.702 270.622C851.435 267.466 851.85 261.445 850.895 261.12C849.94 260.796 849.15 261.213 849.15 261.213C849.15 261.213 849.488 259.32 848.698 258.548C847.908 257.778 846.516 258.664 846.516 258.664C846.516 258.664 845.792 255.577 844.308 255.905C842.826 256.234 841.04 263.845 837.806 267.748C836.299 269.568 841.457 274.181 842.687 274.99C843.918 275.802 845.059 276.116 845.059 276.116H845.061Z" fill="#D3D3D3"/>
<path d="M1037.95 226.246L1033.15 227.964C1033.15 227.964 1032.97 222.104 1031.42 219.486C1029.86 216.868 1026.98 214.324 1026.98 214.324L1032.76 212.75C1032.76 212.75 1037.96 216.378 1038.67 218.845C1039.38 221.313 1037.95 226.246 1037.95 226.246Z" fill="white"/>
<path d="M846.604 275.661C846.604 275.661 843.597 274.541 841.199 272.024C838.801 269.509 837.986 266.861 837.986 266.861C837.986 266.861 823.693 281.222 813.214 282.861C802.732 284.499 790.22 278.448 787.243 273.011C784.266 267.574 774.923 237.862 779.28 230.157C783.64 222.451 793.031 208.013 802.148 209.428C811.266 210.842 836.342 218.294 836.342 218.294C836.342 218.294 837.629 214.717 837.927 211.922C838.226 209.126 837.723 206.843 837.723 206.843C837.723 206.843 803.243 194.872 795.813 194.132C788.383 193.392 767.679 214.476 761.237 225.596C754.794 236.717 749.98 267.778 765.74 281.359C781.503 294.94 800.13 303.37 811.085 301.909C822.041 300.448 832.526 291.931 836.504 288.124C842.809 282.09 846.602 275.661 846.602 275.661H846.604Z" fill="#DCB8FF"/>
<g style="mix-blend-mode:multiply">
<path d="M785.911 212.246C793.091 206.402 795.319 201.148 811.271 205.877C821.005 208.761 831.104 212.136 837.503 214.328C837.018 216.421 836.345 218.293 836.345 218.293C836.345 218.293 811.269 210.842 802.151 209.427C793.033 208.012 783.641 222.45 779.283 230.156C774.924 237.861 784.269 267.573 787.246 273.01C790.223 278.447 802.735 284.498 813.217 282.86C823.696 281.222 837.989 266.86 837.989 266.86C837.989 266.86 838.805 269.508 841.202 272.023C842.26 273.133 843.435 273.971 844.42 274.562C840.621 279.303 828.223 293.439 815.497 293.352C801.611 293.256 788.904 285.682 768.308 283.497C767.447 282.798 766.592 282.088 765.745 281.358C763.849 279.724 762.257 277.833 760.924 275.758C764.311 265.811 775.027 249.157 775.027 249.157L770.907 239.814C770.907 239.814 778.731 218.089 785.911 212.246Z" fill="#160C00"/>
</g>
<path d="M1031.85 154.476C1031.85 154.476 1029.31 160.136 1027.76 163.292C1026.22 166.448 1021.66 170.316 1020 171.655C1018.34 172.993 1016.58 174.599 1015.03 173.657C1013.49 172.714 1018.94 166.793 1019.06 165.799C1019.19 164.805 1013.2 163.308 1013.16 161.276C1013.12 159.244 1017.72 153.981 1019.77 152.239C1021.83 150.498 1024.47 148.668 1024.47 148.668L1031.85 154.476Z" fill="#D3D3D3"/>
<path d="M1034.15 153.704L1031.93 155.729C1031.93 155.729 1025.66 150.395 1024.55 149.74C1023.45 149.085 1022.12 148.222 1022.12 148.222L1024.99 144.58C1024.99 144.58 1030.16 148.159 1031.2 149.465C1032.25 150.771 1034.15 153.704 1034.15 153.704Z" fill="white"/>
<path d="M1052.34 356.399C1052.34 356.399 1066.16 346.379 1065.69 328.832C1065.23 311.286 1055.25 284.892 1051.81 282.304C1048.37 279.716 1014.88 281.592 1014.88 281.592C1014.88 281.592 1014.09 282.847 1013.38 285.603C1012.68 288.36 1013.86 291.929 1013.86 291.929C1013.86 291.929 1039.91 293.115 1042.33 293.852C1044.74 294.589 1048.01 320.286 1047.16 321.271C1046.3 322.256 1029.78 323.033 1022.22 328.863C1014.67 334.692 1012.75 342.461 1012.75 342.461C1012.75 342.461 994.066 340.067 989.695 336.479C985.323 332.892 977.908 312.511 977.908 312.511C977.908 312.511 975.455 311.434 972.495 311.718C969.534 312.002 966.113 314.396 966.113 314.396C966.113 314.396 972.573 340.62 978.68 348.525C984.788 356.429 1019.76 372.889 1033.47 368.943C1047.17 364.997 1052.34 356.399 1052.34 356.399Z" fill="#DCB8FF"/>
<path d="M970.143 312.298C972.093 319.317 976.854 335.635 980.287 340.717C984.701 347.256 1002.16 356.697 1004.37 355.89C1005.8 355.368 1006.74 347.794 1007.71 341.704C1010.65 342.195 1012.75 342.465 1012.75 342.465C1012.75 342.465 1014.67 334.696 1022.22 328.867C1029.78 323.036 1046.3 322.26 1047.16 321.275C1048.01 320.29 1044.74 294.593 1042.33 293.856C1039.91 293.117 1013.86 291.934 1013.86 291.934C1013.86 291.934 1013.44 290.668 1013.25 289.063C1018.38 288.788 1028.7 288.346 1033.51 288.941C1040.06 289.75 1047.34 286.426 1049.15 296.888C1050.96 307.35 1052.61 319.548 1051.3 325.258C1049.99 330.968 1042.39 342.165 1037.87 344.233C1035.43 345.346 1039.31 356.658 1040.16 366.393C1038.2 367.346 1035.98 368.224 1033.47 368.949C1019.76 372.895 984.788 356.436 978.68 348.53C972.573 340.626 966.113 314.402 966.113 314.402C966.113 314.402 967.977 313.099 970.143 312.302V312.298Z" fill="#160C00"/>
<path d="M1119.7 149.697C1122.88 157.189 1122.83 165.706 1110.15 179.579C1097.48 193.453 1091.05 205.901 1080 211.899C1068.96 217.897 1037.95 226.245 1037.95 226.245C1037.95 226.245 1038.88 223.103 1037.36 219.296C1035.84 215.488 1032.76 212.749 1032.76 212.749C1032.76 212.749 1061.45 204.538 1066.81 200.663C1072.17 196.788 1091.15 180.238 1091.93 171.558C1092.72 162.88 1081.44 139.955 1075.99 133.523C1070.55 127.088 1060.81 128.565 1055.2 133.979C1049.6 139.393 1034.15 153.703 1034.15 153.703L1024.99 144.579C1024.99 144.579 1047.33 115.71 1052.1 113.412C1056.87 111.111 1079.74 111.477 1088.15 115.591C1096.57 119.706 1110.18 127.223 1119.7 149.695L1119.7 149.697Z" fill="#DCB8FF"/>
<path d="M1052.59 130.061C1064.49 123.73 1070.76 122.326 1079.63 130.558C1086.29 136.753 1089.97 143.253 1091.61 147.719C1093.66 144.128 1096.66 141.272 1100.27 140C1105 138.331 1110.96 140.081 1116.41 142.792C1117.55 144.925 1118.65 147.213 1119.7 149.697C1122.08 155.311 1122.62 161.509 1117.43 170.093L1117.46 170.076C1116.94 170.928 1116.36 171.806 1115.73 172.706C1115.73 172.712 1115.73 172.715 1115.72 172.72C1114.22 174.856 1112.39 177.131 1110.15 179.577C1097.48 193.451 1091.05 205.899 1080 211.897C1068.96 217.895 1037.95 226.243 1037.95 226.243C1037.95 226.243 1038.49 224.393 1038.06 221.814C1046.29 219.514 1070.93 212.266 1080.72 205.385C1092.54 197.067 1107.95 175.493 1107.95 175.493C1103.96 176.263 1100.03 175.93 1096.69 173.899C1094.71 172.699 1093.15 171.217 1091.93 169.561C1091.9 169.197 1091.86 168.814 1091.8 168.423C1091.79 168.349 1091.78 168.276 1091.77 168.201C1091.66 167.388 1091.49 166.52 1091.27 165.608C1091.25 165.508 1091.22 165.406 1091.2 165.304C1091.12 164.951 1091.02 164.593 1090.93 164.227C1090.89 164.094 1090.85 163.959 1090.82 163.824C1090.71 163.419 1090.59 163.007 1090.46 162.59C1090.44 162.51 1090.41 162.431 1090.39 162.351C1090.25 161.903 1090.11 161.447 1089.95 160.987C1089.89 160.794 1089.82 160.599 1089.76 160.405C1089.65 160.104 1089.55 159.8 1089.44 159.493C1089.37 159.282 1089.29 159.07 1089.21 158.857C1089.08 158.492 1088.94 158.123 1088.8 157.752C1085.22 148.262 1079.44 137.591 1075.99 133.521C1070.55 127.086 1060.81 128.563 1055.21 133.977C1049.6 139.391 1034.15 153.701 1034.15 153.701L1030.69 150.256C1035.84 144.052 1044.74 134.234 1052.59 130.058L1052.59 130.061Z" fill="#160C00"/>
<path d="M1117.85 158.367C1117.85 158.367 1098.56 165.613 1091.9 152.295C1085.24 138.977 1097.47 129.826 1102.03 126.686C1105.73 124.139 1117.85 158.367 1117.85 158.367Z" fill="#D3D3D3"/>
<path d="M862.069 37.2119C862.069 37.2119 884.996 41.3513 893.443 41.8891C901.889 42.4269 921.071 44.3546 925.647 50.4643C930.222 56.574 925.839 91.9716 925.839 91.9716C925.839 91.9716 922.22 89.6446 918.301 89.1635C914.381 88.6825 911.229 88.608 911.229 88.608C911.229 88.608 910.707 63.0866 910.357 62.712C910.008 62.3375 891.719 67.3928 881.094 73.8787C870.469 80.3647 851.662 93.8159 850.445 95.4418C849.227 97.0678 847.548 117.772 849.745 125.442C851.943 133.113 857.591 147.289 857.591 147.289C857.591 147.289 853.372 148.652 851.137 151.368C848.902 154.084 846.44 158.06 846.44 158.06C846.44 158.06 835.052 140.357 832.472 125.939C829.893 111.518 829.393 68.4294 835.733 62.799C842.074 57.1686 862.069 37.2119 862.069 37.2119Z" fill="#DCB8FF"/>
<path d="M830.856 88.1262C830.858 88.0765 830.86 88.0268 830.862 87.9771C831.344 75.9441 832.81 65.3916 835.73 62.7982C836.407 62.1983 837.243 61.4279 838.189 60.5439L865.844 83.9548C858.103 89.3314 851.166 94.4755 850.442 95.4428C850.06 95.9523 849.634 98.3291 849.297 101.59C846.267 101.618 843.146 101.302 840.468 100.321C839.421 99.9372 838.4 99.4083 837.41 98.7906C836.822 102.797 836.13 109.881 836.433 119.984C836.762 130.947 844.994 144.315 850.538 152.12C848.484 154.761 846.441 158.061 846.441 158.061C846.441 158.061 835.052 140.358 832.473 125.94C831.241 119.047 830.487 105.61 830.725 92.8407L830.723 92.8389C830.735 92.1697 830.751 91.5041 830.769 90.8384C830.773 90.7301 830.775 90.6201 830.778 90.5118C830.801 89.7113 830.828 88.9178 830.86 88.1279L830.856 88.1262Z" fill="#160C00"/>
<path d="M874.285 67.0814C881.754 61.0943 911.432 54.4592 915.625 56.9993C918.373 58.6642 918.087 76.6542 917.368 89.0546C913.894 88.6711 911.227 88.6072 911.227 88.6072C911.227 88.6072 910.705 63.0858 910.355 62.7113C910.005 62.3368 891.717 67.3921 881.092 73.878C877.583 76.0205 873.18 78.9227 868.816 81.9065C869.416 75.9797 870.889 69.8026 874.285 67.0814Z" fill="#160C00"/>
<path d="M875.024 51.0771C875.477 55.2556 878.115 78.9611 866.811 84.8933C855.508 90.8255 837.099 75.7341 835.674 67.3134C834.248 58.8926 875.024 51.0771 875.024 51.0771Z" fill="#D3D3D3"/>
<path d="M795.304 250.258C801.747 263.292 789.496 277.12 773.568 279.328C757.641 281.536 748.45 267.078 747.648 262.181C746.845 257.285 750.688 242.682 766.45 240.417C782.213 238.154 792.831 245.258 795.302 250.256L795.304 250.258Z" fill="black"/>
<path d="M1026.88 334.497C1045.42 323.259 1069.59 358.142 1047.41 372.031C1025.23 385.921 1005.01 347.745 1026.88 334.497Z" fill="black"/>
<path d="M843.871 27.8198C860.693 20.8581 877.996 39.558 875.232 61.856C872.468 84.154 858.446 85.4533 843.18 75.1971C827.917 64.941 824.581 35.8039 843.871 27.8198Z" fill="black"/>
<path d="M843.182 75.1966C836.16 70.4786 831.673 61.7632 830.741 52.9501C833.371 57.5031 837.175 60.2331 837.175 60.2331C834.589 55.3535 836.458 46.8369 836.458 46.8369C836.458 46.8369 834.662 56.0334 847.6 66.4031C855.497 72.7311 865.558 72.9317 874.284 67.0794C870.07 84.2777 857.148 84.5812 843.182 75.1966Z" fill="#160C00"/>
<path d="M1129.13 124.416C1135.5 129.631 1138.18 146.387 1123.94 155.393C1109.69 164.4 1097.41 157.621 1094.82 149.804C1092.23 141.987 1095.97 129.311 1105.73 124.139C1115.49 118.966 1121.44 118.125 1129.12 124.414L1129.13 124.416Z" fill="black"/>
<path d="M833.705 212.071C834.248 209.395 834.126 207.064 833.913 205.532C836.27 206.335 837.727 206.84 837.727 206.84C837.727 206.84 838.228 209.123 837.929 211.919C837.631 214.714 836.343 218.291 836.343 218.291C836.343 218.291 834.124 217.633 830.778 216.671C832.132 215.172 833.408 213.534 833.705 212.07V212.071Z" fill="white"/>
<path d="M837.984 266.859C837.984 266.859 838.8 269.508 841.197 272.023C843.595 274.538 846.602 275.66 846.602 275.66C846.602 275.66 845.473 277.566 843.437 280.27C841.307 279.022 838.688 277.323 837.05 275.653C835.664 274.24 834.65 272.305 833.951 270.589C836.416 268.43 837.982 266.859 837.982 266.859H837.984Z" fill="white"/>
<path d="M1023.6 336.949C1022.9 341.699 1022.51 351.526 1028.26 362.142C1033.4 371.653 1043.45 371.472 1050.03 370.11C1049.24 370.785 1048.37 371.429 1047.41 372.031C1026.48 385.141 1007.3 351.865 1023.6 336.949Z" fill="#160C00"/>
<path d="M917.599 241.882L902.339 243.847C900.864 244.036 899.822 245.386 900.012 246.861L901.063 255.023C901.253 256.498 902.602 257.539 904.077 257.35L919.337 255.385C920.812 255.195 921.854 253.845 921.664 252.37L920.613 244.208C920.423 242.734 919.074 241.692 917.599 241.882Z" fill="#F9F8F4"/>
<path d="M911.747 250.691C911.827 250.694 911.907 250.694 911.991 250.685C912.791 250.593 913.364 249.871 913.274 249.072C913.182 248.271 912.459 247.698 911.66 247.788C911.577 247.797 911.497 247.815 911.421 247.838C911.286 247.087 910.59 246.56 909.821 246.647C909.021 246.739 908.448 247.462 908.538 248.261C908.606 248.853 909.021 249.322 909.555 249.487C908.712 249.452 908.032 248.999 907.961 248.371L908.263 250.999C908.192 250.373 908.751 249.778 909.564 249.551C909.079 249.833 908.783 250.384 908.85 250.976C908.943 251.777 909.665 252.35 910.466 252.26C911.25 252.169 911.817 251.472 911.751 250.691H911.747Z" fill="black"/>
<path d="M911.096 224.289L896.381 228.785C894.959 229.219 894.158 230.724 894.593 232.147L896.997 240.016C897.432 241.439 898.937 242.239 900.359 241.805L915.074 237.309C916.496 236.875 917.297 235.37 916.862 233.947L914.458 226.077C914.023 224.655 912.518 223.854 911.096 224.289Z" fill="#F9F8F4"/>
<path d="M904.894 230.413C905.091 230.079 905.4 229.831 905.767 229.708C906.603 229.431 907.507 229.886 907.784 230.722C907.904 231.087 907.888 231.487 907.739 231.842L907.734 231.856L907.579 232.167L907.885 232.321L907.899 232.33C908.231 232.527 908.481 232.836 908.604 233.203C908.881 234.039 908.426 234.944 907.59 235.22C907.223 235.34 906.825 235.324 906.47 235.175L903.298 233.585L904.896 230.411L904.894 230.413Z" fill="#DCB8FF"/>
<path d="M927.148 231.192L911.797 232.236C910.313 232.337 909.192 233.622 909.293 235.105L909.852 243.316C909.953 244.799 911.238 245.92 912.721 245.819L928.072 244.775C929.556 244.674 930.677 243.389 930.576 241.905L930.017 233.695C929.916 232.211 928.631 231.091 927.148 231.192Z" fill="#F9F8F4"/>
<path d="M923.914 238.238L920.499 235.76L917.146 238.323L920.563 240.801L923.914 238.238Z" fill="#DCB8FF"/>
<path d="M907.695 213.659L894.697 221.891C893.44 222.687 893.067 224.351 893.862 225.607L898.265 232.559C899.061 233.815 900.724 234.189 901.981 233.393L914.979 225.161C916.236 224.366 916.609 222.702 915.813 221.446L911.411 214.494C910.615 213.237 908.951 212.864 907.695 213.659Z" fill="#F9F8F4"/>
<path d="M903.992 224.349C903.944 224.679 904.018 225.016 904.199 225.297C904.613 225.936 905.47 226.119 906.109 225.705C906.39 225.524 906.594 225.247 906.686 224.924L907.331 221.919L904.327 221.282C903.997 221.234 903.66 221.308 903.379 221.489C902.74 221.903 902.558 222.76 902.971 223.399C903.152 223.68 903.429 223.884 903.75 223.976L903.763 223.98L903.944 224.019C903.248 224.251 902.561 224.124 902.252 223.648L903.679 225.849C903.37 225.373 903.534 224.693 904.029 224.156L903.992 224.337V224.349Z" fill="black"/>
<path d="M927.778 187.892H919.549C918.062 187.892 916.856 189.097 916.856 190.584V205.97C916.856 207.457 918.062 208.663 919.549 208.663H927.778C929.265 208.663 930.471 207.457 930.471 205.97V190.584C930.471 189.097 929.265 187.892 927.778 187.892Z" fill="#F9F8F4"/>
<path d="M919.549 188.938H927.78C928.687 188.938 929.425 189.675 929.425 190.584V205.972C929.425 206.879 928.689 207.615 927.782 207.615H919.551C918.642 207.615 917.905 206.879 917.905 205.97V190.584C917.905 189.675 918.642 188.938 919.551 188.938H919.549Z" fill="black"/>
<path d="M932.435 184.129L927.71 198.771C927.254 200.187 928.031 201.704 929.446 202.161L937.278 204.688C938.693 205.144 940.211 204.367 940.667 202.952L945.392 188.309C945.848 186.894 945.071 185.376 943.656 184.92L935.824 182.393C934.409 181.936 932.891 182.713 932.435 184.129Z" fill="#F9F8F4"/>
<path d="M928.706 199.093L933.431 184.45C933.709 183.587 934.637 183.112 935.5 183.391L943.333 185.918C944.196 186.197 944.671 187.124 944.393 187.987L939.668 202.63C939.389 203.495 938.462 203.969 937.597 203.69L929.765 201.163C928.9 200.884 928.427 199.958 928.706 199.093Z" fill="black"/>
<path d="M960.548 188.7L955.214 203.131C954.698 204.526 955.411 206.075 956.806 206.591L964.525 209.444C965.92 209.959 967.468 209.246 967.984 207.851L973.318 193.419C973.833 192.025 973.121 190.476 971.726 189.96L964.007 187.107C962.612 186.592 961.063 187.305 960.548 188.7Z" fill="#F9F8F4"/>
<path d="M965.641 197.969C965.682 197.9 965.719 197.829 965.748 197.75C966.037 197 965.663 196.155 964.912 195.865C964.161 195.576 963.316 195.951 963.027 196.701C962.997 196.779 962.975 196.858 962.959 196.937C962.232 196.708 961.442 197.081 961.163 197.802C960.874 198.553 961.248 199.398 961.999 199.687C962.555 199.902 963.162 199.751 963.557 199.353C963.135 200.083 962.418 200.475 961.829 200.248L964.298 201.199C963.708 200.972 963.44 200.202 963.618 199.376C963.644 199.936 963.992 200.456 964.55 200.67C965.301 200.96 966.145 200.585 966.435 199.834C966.719 199.098 966.364 198.272 965.64 197.967L965.641 197.969Z" fill="black"/>
<path d="M968.625 195.818L969.841 202.828L973.317 193.422C973.46 193.033 973.5 192.634 973.462 192.247L970.817 192.707C969.358 192.961 968.371 194.361 968.625 195.82V195.818Z" fill="#596C00"/>
<path d="M980.885 190.109L972.777 191.515C971.312 191.769 970.33 193.163 970.584 194.629L973.215 209.788C973.469 211.253 974.863 212.235 976.328 211.981L984.436 210.574C985.901 210.32 986.883 208.926 986.629 207.461L983.998 192.301C983.744 190.836 982.35 189.854 980.885 190.109Z" fill="#F9F8F4"/>
<path d="M975.893 201.544C975.588 201.308 975.378 200.969 975.304 200.591C975.133 199.728 975.698 198.887 976.56 198.716C976.938 198.642 977.332 198.707 977.666 198.899L977.68 198.906L977.968 199.098L978.16 198.814L978.168 198.801C978.405 198.496 978.744 198.287 979.122 198.212C979.984 198.042 980.826 198.606 980.996 199.469C981.071 199.847 981.005 200.241 980.813 200.575L978.841 203.525L975.893 201.544Z" fill="#DCB8FF"/>
<path d="M941.754 190.296L941.084 205.667C941.019 207.153 942.171 208.41 943.657 208.475L951.878 208.833C953.364 208.898 954.621 207.746 954.686 206.26L955.356 190.889C955.42 189.403 954.269 188.146 952.783 188.081L944.562 187.723C943.076 187.658 941.819 188.81 941.754 190.296Z" fill="#F9F8F4"/>
<path d="M948.407 199.438C948.652 199.666 948.97 199.799 949.303 199.809C950.065 199.834 950.704 199.236 950.729 198.474C950.739 198.141 950.629 197.814 950.418 197.555L948.318 195.31L946.08 197.411C945.851 197.656 945.72 197.974 945.709 198.308C945.684 199.069 946.282 199.708 947.044 199.733C947.378 199.744 947.704 199.634 947.963 199.422L947.974 199.413L948.109 199.287C947.903 199.99 947.404 200.482 946.838 200.464L949.46 200.551C948.893 200.533 948.43 200.01 948.269 199.296L948.395 199.431L948.403 199.44L948.407 199.438Z" fill="black"/>
<path d="M922.971 270.095C920.548 273.303 909.966 287.324 903.842 282.698C897.718 278.072 908.933 264.531 911.355 261.323C913.778 258.116 918.342 257.478 921.549 259.901C924.757 262.324 925.394 266.888 922.971 270.097V270.095Z" fill="#160C00"/>
<path d="M922.97 270.095C920.547 273.303 915.984 273.94 912.776 271.517C909.569 269.094 908.932 264.53 911.355 261.321C913.777 258.114 918.341 257.477 921.548 259.899C924.756 262.322 925.393 266.886 922.97 270.095Z" fill="#DCB8FF"/>
<path d="M921.269 268.811C919.557 271.08 916.33 271.529 914.061 269.816C911.793 268.103 911.342 264.876 913.056 262.607C914.771 260.339 917.996 259.89 920.265 261.603C922.533 263.316 922.982 266.543 921.269 268.811Z" fill="#F9F8F4"/>
<path d="M1017.51 259.287C1015.09 262.494 1004.5 276.515 998.38 271.889C992.256 267.264 1003.47 253.722 1005.89 250.513C1008.32 247.305 1012.88 246.668 1016.09 249.091C1019.3 251.514 1019.93 256.077 1017.51 259.287Z" fill="#160C00"/>
<path d="M1017.51 259.287C1015.09 262.494 1010.52 263.131 1007.31 260.708C1004.11 258.286 1003.47 253.722 1005.89 250.513C1008.32 247.305 1012.88 246.668 1016.09 249.091C1019.29 251.514 1019.93 256.077 1017.51 259.287Z" fill="#DCB8FF"/>
<path d="M1015.81 258.001C1014.09 260.27 1010.87 260.719 1008.6 259.006C1006.33 257.293 1005.88 254.066 1007.59 251.798C1009.31 249.529 1012.53 249.078 1014.8 250.793C1017.07 252.506 1017.52 255.733 1015.81 258.001Z" fill="#F9F8F4"/>
<path d="M892.13 257.328C889.707 260.535 882.947 267.554 878.437 263.043C873.928 258.535 878.089 251.763 880.512 248.554C882.935 245.346 887.499 244.709 890.706 247.132C893.914 249.555 894.551 254.118 892.128 257.328H892.13Z" fill="#160C00"/>
<path d="M892.129 257.328C889.706 260.535 885.143 261.172 881.935 258.749C878.728 256.327 878.091 251.763 880.513 248.554C882.936 245.346 887.5 244.709 890.707 247.132C893.915 249.555 894.552 254.118 892.129 257.328Z" fill="#FF5B23"/>
<path d="M890.428 256.043C888.715 258.311 885.488 258.762 883.219 257.049C880.951 255.336 880.502 252.109 882.215 249.841C883.927 247.572 887.154 247.121 889.423 248.836C891.691 250.549 892.142 253.774 890.428 256.043Z" fill="#F9F8F4"/>
<path d="M1013.67 133.72C1011.25 136.927 1004.49 143.946 999.977 139.435C995.468 134.927 999.629 128.155 1002.05 124.946C1004.47 121.737 1009.04 121.101 1012.25 123.524C1015.45 125.947 1016.09 130.511 1013.67 133.718L1013.67 133.72Z" fill="#160C00"/>
<path d="M1013.67 133.718C1011.25 136.926 1006.68 137.563 1003.48 135.14C1000.27 132.717 999.63 128.154 1002.05 124.946C1004.48 121.739 1009.04 121.102 1012.25 123.524C1015.45 125.947 1016.09 130.511 1013.67 133.718Z" fill="#FF5B23"/>
<path d="M1011.97 132.434C1010.26 134.702 1007.03 135.153 1004.76 133.439C1002.49 131.726 1002.04 128.499 1003.76 126.23C1005.47 123.962 1008.69 123.511 1010.96 125.226C1013.23 126.938 1013.68 130.165 1011.97 132.434Z" fill="#F9F8F4"/>
<path d="M1012.45 149.866C1010.02 153.073 999.44 167.094 993.317 162.469C987.193 157.843 998.407 144.301 1000.83 141.094C1003.25 137.886 1007.82 137.249 1011.02 139.672C1014.23 142.095 1014.87 146.658 1012.45 149.866Z" fill="#160C00"/>
<path d="M1012.45 149.866C1010.02 153.073 1005.46 153.711 1002.25 151.288C999.042 148.865 998.405 144.301 1000.83 141.094C1003.25 137.886 1007.81 137.249 1011.02 139.672C1014.23 142.095 1014.87 146.658 1012.44 149.866H1012.45Z" fill="#DCB8FF"/>
<path d="M1010.75 148.581C1009.03 150.85 1005.81 151.301 1003.54 149.586C1001.27 147.873 1000.82 144.646 1002.53 142.378C1004.25 140.109 1007.47 139.658 1009.74 141.373C1012.01 143.086 1012.46 146.313 1010.75 148.581Z" fill="#F9F8F4"/>
<path d="M952.648 257.497C950.225 260.704 933.993 283.984 926.921 276.912C919.849 269.84 938.608 251.932 941.031 248.725C943.453 245.517 948.017 244.88 951.225 247.303C954.432 249.726 955.069 254.289 952.646 257.497H952.648Z" fill="#160C00"/>
<path d="M952.649 257.497C950.226 260.704 945.662 261.341 942.455 258.919C939.247 256.496 938.61 251.932 941.033 248.725C943.456 245.517 948.019 244.88 951.227 247.303C954.434 249.726 955.071 254.289 952.649 257.497Z" fill="#FF5B23"/>
<path d="M950.945 256.213C949.232 258.481 946.005 258.932 943.736 257.217C941.468 255.504 941.019 252.277 942.732 250.009C944.445 247.74 947.672 247.29 949.94 249.002C952.209 250.715 952.659 253.944 950.945 256.213Z" fill="#F9F8F4"/>
<path d="M886.035 183.355C883.612 186.563 867.379 209.842 860.307 202.77C853.236 195.699 871.994 177.79 874.417 174.583C876.84 171.375 881.404 170.738 884.611 173.161C887.819 175.584 888.456 180.148 886.033 183.357L886.035 183.355Z" fill="#160C00"/>
<path d="M886.035 183.355C883.612 186.563 879.048 187.2 875.841 184.777C872.633 182.354 871.996 177.79 874.419 174.583C876.842 171.375 881.405 170.738 884.613 173.161C887.82 175.584 888.458 180.146 886.035 183.355Z" fill="#DCB8FF"/>
<path d="M884.333 182.071C882.62 184.339 879.393 184.79 877.125 183.075C874.856 181.361 874.407 178.135 876.12 175.867C877.833 173.598 881.06 173.148 883.328 174.862C885.597 176.575 886.048 179.802 884.333 182.071Z" fill="#F9F8F4"/>
<path d="M133.587 350.118L123.54 356.978C116.043 350.708 107.312 345.438 98.2855 341.732L99.5671 329.581C111.733 334.575 123.481 341.667 133.587 350.118Z" fill="#252525"/>
<path d="M157.155 377.788C162.689 387.821 164.808 397.161 163.952 405.172L146.081 397.847C146.718 391.901 145.129 384.962 141.024 377.519L157.155 377.788Z" fill="#252525"/>
<path d="M72.0521 335.88C63.594 335.739 56.7589 337.6 51.8453 340.964L37.0017 328.54C43.6207 324.008 52.8127 321.484 64.2136 321.675L72.0521 335.88Z" fill="#252525"/>
<path d="M160.18 416.591L154.271 426.315C152.3 429.56 149.613 432.373 146.26 434.667L152.169 424.944C155.519 422.648 158.209 419.837 160.18 416.591Z" fill="#97B700"/>
<path d="M163.988 405.156L146.062 397.878C146.742 391.912 145.081 384.976 141.02 377.474L157.118 377.805C151.593 367.739 143.363 358.339 133.602 350.147L123.531 357C116.071 350.726 107.306 345.434 98.2793 341.755L99.59 329.614C87.7955 324.797 75.6457 321.89 64.2625 321.663L72.0794 335.86C63.5492 335.76 56.7696 337.6 51.8068 340.981L37.0165 328.508C33.4901 330.927 30.768 333.98 28.78 337.421C28.8787 337.251 28.9318 337.054 29.0333 336.885L28.2897 338.117C27.5065 339.415 26.9579 340.768 26.4968 342.26C25.8684 344.184 25.4311 346.223 25.2329 348.317L43.12 355.661C42.4796 361.561 44.035 368.523 48.139 375.961L31.9984 375.694C37.5611 385.698 45.7564 395.162 55.5784 403.395L65.6486 396.542C73.1467 402.753 81.8463 408.005 90.8978 411.785L89.5899 423.927C101.384 428.744 113.574 431.586 124.951 431.809L117.137 417.615C125.562 417.74 132.447 415.874 137.305 412.519L152.135 424.927C155.55 422.647 158.185 419.899 160.183 416.589C162.221 413.213 163.484 409.369 163.988 405.156ZM114.161 412.278C91.8725 411.929 65.0404 395.642 54.1822 376.069C43.4262 356.468 52.7007 340.809 74.9518 341.22C97.3064 341.608 124.115 357.792 134.934 377.431C145.79 397.006 136.449 412.621 114.161 412.278Z" fill="#D2FF00"/>
<path d="M23.0803 346.622L28.989 336.899C26.9441 340.267 25.6627 344.104 25.2155 348.312L19.3068 358.035C19.7586 353.826 21.0336 349.993 23.0803 346.622Z" fill="#97B700"/>
<path d="M152.17 424.944L146.262 434.667C139.643 439.199 130.461 441.725 119.06 441.534L124.969 431.811C136.37 432.002 145.551 429.476 152.17 424.944Z" fill="#020202"/>
<path d="M152.167 424.944C145.548 429.477 136.367 432.003 124.966 431.812L117.129 417.604C125.587 417.745 132.421 415.887 137.33 412.524L152.167 424.944Z" fill="#252525"/>
<path d="M114.164 412.274C91.875 411.926 65.043 395.638 54.1847 376.065C43.4287 356.465 52.7032 340.805 74.9543 341.216C97.3089 341.604 124.118 357.789 134.936 377.427C145.793 397.003 136.452 412.618 114.164 412.274Z" fill="#252525"/>
<path d="M32.014 375.695L26.1036 385.421C20.57 375.389 18.451 366.049 19.3073 358.037L25.216 348.314C24.3597 356.325 26.4805 365.663 32.014 375.695Z" fill="#020202"/>
<path d="M43.1003 355.642C42.4655 361.585 44.0541 368.524 48.1592 375.966L32.0157 375.698C26.4822 365.666 24.3632 356.325 25.2194 348.314L43.1031 355.644L43.1003 355.642Z" fill="#252525"/>
<path d="M124.968 431.811L119.059 441.534C107.658 441.343 95.4838 438.464 83.6956 433.623L89.6044 423.9C101.393 428.741 113.567 431.62 124.968 431.811Z" fill="#97B700"/>
<path d="M55.5791 403.358L49.6686 413.084C39.8745 404.895 31.6358 395.451 26.1022 385.419L32.0126 375.693C37.5462 385.725 45.7895 395.168 55.5791 403.358Z" fill="#97B700"/>
<path d="M89.604 423.899L83.6953 433.622C71.5414 428.627 59.7816 421.535 49.6752 413.084L55.5856 403.358C65.6921 411.809 77.4484 418.906 89.604 423.899Z" fill="#020202"/>
<path d="M90.8877 411.745L89.5998 423.9C77.4413 418.906 65.6861 411.813 55.5797 403.362L65.6356 396.5C73.1335 402.77 81.8617 408.039 90.8877 411.745Z" fill="#252525"/>
<path d="M540.681 316.118L550.728 322.978C558.226 316.708 566.957 311.438 575.983 307.732L574.701 295.581C562.535 300.575 550.787 307.667 540.681 316.118Z" fill="#252525"/>
<path d="M517.113 343.788C511.579 353.821 509.46 363.161 510.316 371.172L528.187 363.847C527.551 357.901 529.139 350.962 533.244 343.519L517.113 343.788Z" fill="#252525"/>
<path d="M602.216 301.88C610.674 301.739 617.509 303.6 622.423 306.964L637.266 294.54C630.647 290.008 621.455 287.484 610.054 287.675L602.216 301.88Z" fill="#252525"/>
<path d="M514.088 382.591L519.997 392.315C521.968 395.56 524.655 398.373 528.008 400.667L522.099 390.944C518.749 388.648 516.059 385.837 514.088 382.591Z" fill="#97B700"/>
<path d="M510.28 371.156L528.206 363.878C527.526 357.912 529.187 350.976 533.249 343.474L517.15 343.805C522.675 333.739 530.906 324.339 540.666 316.147L550.737 323C558.197 316.726 566.962 311.434 575.989 307.755L574.678 295.614C586.473 290.797 598.622 287.89 610.006 287.663L602.189 301.86C610.719 301.76 617.499 303.6 622.461 306.981L637.252 294.508C640.778 296.927 643.5 299.98 645.488 303.421C645.389 303.251 645.336 303.054 645.235 302.885L645.978 304.117C646.762 305.415 647.31 306.768 647.771 308.26C648.4 310.184 648.837 312.223 649.035 314.317L631.148 321.661C631.788 327.561 630.233 334.523 626.129 341.961L642.27 341.694C636.707 351.698 628.512 361.162 618.69 369.395L608.619 362.542C601.121 368.753 592.422 374.005 583.37 377.785L584.678 389.927C572.884 394.744 560.694 397.586 549.317 397.809L557.131 383.615C548.706 383.74 541.821 381.874 536.963 378.519L522.133 390.927C518.718 388.647 516.083 385.899 514.085 382.589C512.047 379.213 510.784 375.369 510.28 371.156ZM560.107 378.278C582.396 377.929 609.228 361.642 620.086 342.069C630.842 322.468 621.567 306.809 599.316 307.22C576.962 307.608 550.153 323.792 539.334 343.431C528.478 363.006 537.819 378.621 560.107 378.278Z" fill="#D2FF00"/>
<path d="M651.188 312.622L645.279 302.899C647.324 306.267 648.605 310.104 649.053 314.312L654.961 324.035C654.509 319.826 653.234 315.993 651.188 312.622Z" fill="#97B700"/>
<path d="M522.098 390.944L528.006 400.667C534.625 405.199 543.807 407.725 555.208 407.534L549.299 397.811C537.898 398.002 528.717 395.476 522.098 390.944Z" fill="#020202"/>
<path d="M522.101 390.944C528.72 395.477 537.901 398.003 549.302 397.812L557.139 383.604C548.681 383.745 541.848 381.887 536.939 378.524L522.101 390.944Z" fill="#252525"/>
<path d="M560.104 378.274C582.393 377.926 609.225 361.638 620.083 342.065C630.839 322.465 621.565 306.805 599.314 307.216C576.959 307.604 550.15 323.789 539.332 343.427C528.475 363.003 537.816 378.618 560.104 378.274Z" fill="#252525"/>
<path d="M642.254 341.695L648.164 351.421C653.698 341.389 655.817 332.049 654.961 324.037L649.052 314.314C649.908 322.325 647.788 331.663 642.254 341.695Z" fill="#020202"/>
<path d="M631.168 321.642C631.803 327.585 630.214 334.524 626.109 341.966L642.252 341.698C647.786 331.666 649.905 322.325 649.049 314.314L631.165 321.644L631.168 321.642Z" fill="#252525"/>
<path d="M549.3 397.811L555.209 407.534C566.61 407.343 578.784 404.464 590.572 399.623L584.664 389.9C572.876 394.741 560.701 397.62 549.3 397.811Z" fill="#97B700"/>
<path d="M618.689 369.358L624.599 379.084C634.394 370.895 642.632 361.451 648.166 351.419L642.255 341.693C636.722 351.725 628.479 361.168 618.689 369.358Z" fill="#97B700"/>
<path d="M584.664 389.899L590.573 399.622C602.727 394.627 614.486 387.535 624.593 379.084L618.682 369.358C608.576 377.809 596.82 384.906 584.664 389.899Z" fill="#020202"/>
<path d="M583.38 377.745L584.668 389.9C596.827 384.906 608.582 377.813 618.688 369.362L608.632 362.5C601.135 368.77 592.406 374.039 583.38 377.745Z" fill="#252525"/>
<path d="M1346.68 105.118L1356.73 111.978C1364.23 105.708 1372.96 100.438 1381.98 96.7316L1380.7 84.5807C1368.54 89.5753 1356.79 96.6674 1346.68 105.118Z" fill="#252525"/>
<path d="M1323.11 132.788C1317.58 142.821 1315.46 152.161 1316.32 160.172L1334.19 152.847C1333.55 146.901 1335.14 139.962 1339.24 132.519L1323.11 132.788Z" fill="#252525"/>
<path d="M1408.22 90.8804C1416.67 90.7387 1423.51 92.6 1428.42 95.9637L1443.27 83.5401C1436.65 79.0078 1427.46 76.4839 1416.05 76.6748L1408.22 90.8804Z" fill="#252525"/>
<path d="M1320.09 171.591L1326 181.315C1327.97 184.56 1330.66 187.373 1334.01 189.667L1328.1 179.944C1324.75 177.648 1322.06 174.837 1320.09 171.591Z" fill="#97B700"/>
<path d="M1316.28 160.156L1334.21 152.878C1333.53 146.912 1335.19 139.976 1339.25 132.474L1323.15 132.805C1328.68 122.739 1336.91 113.339 1346.67 105.147L1356.74 112C1364.2 105.726 1372.96 100.434 1381.99 96.7553L1380.68 84.6143C1392.47 79.7973 1404.62 76.89 1416.01 76.6632L1408.19 90.8596C1416.72 90.7599 1423.5 92.6003 1428.46 95.981L1443.25 83.5078C1446.78 85.9271 1449.5 88.9797 1451.49 92.421C1451.39 92.2511 1451.34 92.0536 1451.24 91.8853L1451.98 93.1171C1452.76 94.4145 1453.31 95.768 1453.77 97.2599C1454.4 99.1837 1454.84 101.223 1455.04 103.317L1437.15 110.661C1437.79 116.561 1436.23 123.523 1432.13 130.961L1448.27 130.694C1442.71 140.698 1434.51 150.162 1424.69 158.395L1414.62 151.542C1407.12 157.753 1398.42 163.005 1389.37 166.785L1390.68 178.927C1378.88 183.744 1366.69 186.586 1355.32 186.809L1363.13 172.615C1354.71 172.74 1347.82 170.874 1342.96 167.519L1328.13 179.927C1324.72 177.647 1322.08 174.899 1320.09 171.589C1318.05 168.213 1316.78 164.369 1316.28 160.156ZM1366.11 167.278C1388.4 166.929 1415.23 150.642 1426.09 131.069C1436.84 111.468 1427.57 95.8086 1405.32 96.2197C1382.96 96.6076 1356.15 112.792 1345.33 132.431C1334.48 152.006 1343.82 167.621 1366.11 167.278Z" fill="#D2FF00"/>
<path d="M1457.19 101.622L1451.28 91.8991C1453.32 95.2671 1454.61 99.1039 1455.05 103.312L1460.96 113.035C1460.51 108.826 1459.23 104.993 1457.19 101.622Z" fill="#97B700"/>
<path d="M1328.1 179.944L1334.01 189.667C1340.63 194.199 1349.81 196.725 1361.21 196.534L1355.3 186.811C1343.9 187.002 1334.72 184.476 1328.1 179.944Z" fill="#020202"/>
<path d="M1328.1 179.944C1334.72 184.477 1343.9 187.003 1355.3 186.812L1363.14 172.604C1354.68 172.745 1347.85 170.887 1342.94 167.524L1328.1 179.944Z" fill="#252525"/>
<path d="M1366.1 167.274C1388.39 166.926 1415.23 150.638 1426.08 131.065C1436.84 111.465 1427.57 95.8052 1405.31 96.2163C1382.96 96.6042 1356.15 112.789 1345.33 132.427C1334.48 152.003 1343.82 167.618 1366.1 167.274Z" fill="#252525"/>
<path d="M1448.25 130.695L1454.16 140.421C1459.7 130.389 1461.82 121.049 1460.96 113.037L1455.05 103.314C1455.91 111.325 1453.79 120.663 1448.25 130.695Z" fill="#020202"/>
<path d="M1437.17 110.642C1437.8 116.585 1436.21 123.524 1432.11 130.966L1448.25 130.698C1453.79 120.666 1455.91 111.325 1455.05 103.314L1437.17 110.644L1437.17 110.642Z" fill="#252525"/>
<path d="M1355.3 186.811L1361.21 196.534C1372.61 196.343 1384.78 193.464 1396.57 188.623L1390.66 178.9C1378.88 183.741 1366.7 186.62 1355.3 186.811Z" fill="#97B700"/>
<path d="M1424.69 158.358L1430.6 168.084C1440.39 159.895 1448.63 150.451 1454.17 140.419L1448.26 130.693C1442.72 140.725 1434.48 150.168 1424.69 158.358Z" fill="#97B700"/>
<path d="M1390.66 178.899L1396.57 188.622C1408.73 183.627 1420.49 176.535 1430.59 168.084L1424.68 158.358C1414.58 166.809 1402.82 173.906 1390.66 178.899Z" fill="#020202"/>
<path d="M1389.38 166.745L1390.67 178.9C1402.83 173.906 1414.58 166.813 1424.69 158.362L1414.63 151.5C1407.13 157.77 1398.41 163.039 1389.38 166.745Z" fill="#252525"/>
<path d="M330.138 285.918L332.009 294.361C338.944 294.759 346.034 296.274 352.514 298.744L357.761 291.823C349.026 288.494 339.487 286.454 330.138 285.918Z" fill="#252525"/>
<path d="M304.463 288.793C296.715 291.301 291.073 295.111 287.62 299.68L300.445 304.576C303.008 301.185 307.207 298.362 312.955 296.501L304.463 288.793Z" fill="#252525"/>
<path d="M368.957 308.472C373.409 312.513 376.046 316.803 376.956 320.937L390.693 321.718C389.467 316.15 385.931 310.37 379.929 304.923L368.957 308.472Z" fill="#252525"/>
<path d="M284.02 307.433L282.353 315.346C281.795 317.987 281.819 320.752 282.441 323.573L284.109 315.659C283.489 312.839 283.463 310.074 284.02 307.433Z" fill="#97B700"/>
<path d="M287.609 299.653L300.44 304.602C302.99 301.179 307.224 298.392 312.979 296.48L304.475 288.82C312.235 286.291 321.073 285.423 330.117 285.925L332.002 294.376C338.921 294.753 346.038 296.275 352.506 298.759L357.733 291.829C366.189 295.07 373.9 299.473 379.91 304.893L368.953 308.448C373.422 312.546 376.041 316.798 376.968 320.964L390.701 321.695C391.352 324.664 391.278 327.57 390.634 330.321C390.666 330.185 390.734 330.056 390.763 329.92L390.55 330.92C390.324 331.973 389.95 332.942 389.464 333.939C388.853 335.242 388.088 336.512 387.172 337.693L374.329 332.798C371.791 336.168 367.598 339.019 361.853 340.878L370.348 348.591C362.599 351.07 353.747 351.988 344.652 351.477L342.766 343.027C335.859 342.598 328.795 341.088 322.265 338.644L317.036 345.574C308.58 342.333 300.88 337.876 294.875 332.457L305.83 328.901C301.402 324.868 298.742 320.552 297.856 316.45L284.135 315.667C283.474 312.823 283.445 310.118 284.019 307.43C284.605 304.689 285.821 302.082 287.609 299.653ZM309.968 327.583C321.69 338.245 343.52 342.856 358.668 337.994C373.778 333.068 376.589 320.44 364.856 309.829C353.082 299.156 331.315 294.502 316.154 299.418C301.005 304.282 298.25 316.919 309.968 327.583Z" fill="#D2FF00"/>
<path d="M389.112 337.862L390.78 329.948C390.201 332.689 388.999 335.3 387.183 337.699L385.516 345.612C387.329 343.211 388.533 340.604 389.112 337.862Z" fill="#97B700"/>
<path d="M284.108 315.658L282.44 323.571C283.666 329.14 287.196 334.916 293.197 340.363L294.865 332.449C288.863 327.002 285.334 321.227 284.108 315.658Z" fill="#020202"/>
<path d="M284.109 315.66C285.335 321.228 288.865 327.004 294.866 332.451L305.84 328.9C301.387 324.859 298.75 320.571 297.841 316.44L284.109 315.66Z" fill="#252525"/>
<path d="M309.969 327.58C321.69 338.242 343.52 342.853 358.669 337.991C373.778 333.065 376.589 320.437 364.857 309.826C353.082 299.153 331.315 294.5 316.154 299.415C301.005 304.279 298.25 316.916 309.969 327.58Z" fill="#252525"/>
<path d="M370.34 348.584L368.672 356.5C376.42 353.993 382.062 350.182 385.515 345.614L387.183 337.7C383.729 342.269 378.088 346.077 370.34 348.584Z" fill="#020202"/>
<path d="M374.349 332.798C371.787 336.187 367.588 339.011 361.84 340.871L370.337 348.585C378.085 346.077 383.727 342.267 387.181 337.699L374.346 332.798L374.349 332.798Z" fill="#252525"/>
<path d="M294.866 332.449L293.198 340.363C299.2 345.81 306.911 350.24 315.375 353.466L317.042 345.552C308.578 342.327 300.868 337.897 294.866 332.449Z" fill="#97B700"/>
<path d="M344.67 351.457L343.002 359.373C352.061 359.893 360.925 359.007 368.673 356.499L370.341 348.583C362.593 351.091 353.727 351.975 344.67 351.457Z" fill="#97B700"/>
<path d="M317.043 345.551L315.376 353.465C324.105 356.788 333.649 358.834 342.998 359.37L344.666 351.454C335.317 350.918 325.772 348.877 317.043 345.551Z" fill="#020202"/>
<path d="M322.29 338.628L317.045 345.554C325.776 348.881 335.318 350.923 344.667 351.459L342.793 343.011C335.858 342.613 328.771 341.098 322.29 338.628Z" fill="#252525"/>
<path d="M1194.23 257.022L1197.47 266.542C1205.53 266.124 1213.92 266.978 1221.72 269.012L1226.91 260.348C1216.39 257.606 1205.11 256.457 1194.23 257.022Z" fill="#252525"/>
<path d="M1164.92 263.598C1156.29 267.478 1150.25 272.596 1146.83 278.314L1162.28 282.349C1164.81 278.105 1169.31 274.31 1175.71 271.431L1164.92 263.598Z" fill="#252525"/>
<path d="M1241.96 278.174C1247.62 282.281 1251.21 286.905 1252.78 291.567L1268.76 290.731C1266.64 284.45 1261.82 278.218 1254.19 272.682L1241.96 278.174Z" fill="#252525"/>
<path d="M1143.66 287.731L1142.73 297.089C1142.42 300.211 1142.8 303.404 1143.88 306.585L1144.8 297.227C1143.73 294.047 1143.35 290.854 1143.66 287.731Z" fill="#97B700"/>
<path d="M1146.82 278.285L1162.28 282.379C1164.79 278.1 1169.33 274.343 1175.74 271.403L1164.94 263.627C1173.59 259.721 1183.69 257.598 1194.21 257.034L1197.46 266.562C1205.51 266.122 1213.92 266.979 1221.71 269.031L1226.88 260.359C1237.06 263.034 1246.53 267.147 1254.16 272.65L1241.95 278.147C1247.64 282.317 1251.2 286.9 1252.8 291.597L1268.77 290.702C1269.89 294.052 1270.18 297.42 1269.78 300.681C1269.8 300.519 1269.86 300.363 1269.88 300.201L1269.76 301.384C1269.63 302.63 1269.32 303.797 1268.89 305.011C1268.35 306.594 1267.62 308.159 1266.71 309.641L1251.25 305.609C1248.74 309.825 1244.26 313.652 1237.85 316.528L1248.65 324.367C1240.01 328.213 1229.89 330.396 1219.31 330.957L1216.06 321.429C1208.03 321.809 1199.67 320.958 1191.81 318.96L1186.65 327.632C1176.46 324.957 1167 320.781 1159.37 315.279L1171.58 309.782C1165.96 305.681 1162.33 301.029 1160.79 296.4L1144.83 297.233C1143.71 294.03 1143.33 290.907 1143.66 287.727C1143.99 284.485 1145.06 281.318 1146.82 278.285ZM1176.2 307.734C1191.1 318.572 1216.91 321.137 1233.81 313.598C1250.65 305.991 1252.3 291.04 1237.39 280.261C1222.43 269.416 1196.68 266.795 1179.78 274.397C1162.89 281.938 1161.31 296.893 1176.2 307.734Z" fill="#D2FF00"/>
<path d="M1268.98 309.59L1269.9 300.233C1269.58 303.473 1268.52 306.644 1266.73 309.646L1265.8 319.004C1267.59 315.999 1268.65 312.834 1268.98 309.59Z" fill="#97B700"/>
<path d="M1144.8 297.226L1143.87 306.584C1146 312.865 1150.81 319.093 1158.43 324.629L1159.36 315.271C1151.73 309.736 1146.92 303.507 1144.8 297.226Z" fill="#020202"/>
<path d="M1144.8 297.228C1146.92 303.509 1151.73 309.738 1159.36 315.273L1171.59 309.778C1165.94 305.672 1162.35 301.051 1160.77 296.391L1144.8 297.228Z" fill="#252525"/>
<path d="M1176.2 307.731C1191.1 318.57 1216.91 321.134 1233.81 313.595C1250.65 305.988 1252.29 291.037 1237.39 280.259C1222.43 269.414 1196.68 266.792 1179.78 274.394C1162.89 281.935 1161.3 296.89 1176.2 307.731Z" fill="#252525"/>
<path d="M1248.64 324.36L1247.71 333.72C1256.35 329.841 1262.39 324.722 1265.8 319.004L1266.73 309.647C1263.31 315.364 1257.27 320.48 1248.64 324.36Z" fill="#020202"/>
<path d="M1251.27 305.607C1248.74 309.848 1244.24 313.643 1237.84 316.522L1248.63 324.361C1257.27 320.481 1263.31 315.363 1266.72 309.645L1251.27 305.606L1251.27 305.607Z" fill="#252525"/>
<path d="M1159.36 315.271L1158.44 324.629C1166.06 330.165 1175.54 334.308 1185.73 336.964L1186.65 327.607C1176.46 324.95 1166.99 320.807 1159.36 315.271Z" fill="#97B700"/>
<path d="M1219.33 330.933L1218.41 340.294C1228.94 339.748 1239.08 337.6 1247.71 333.72L1248.64 324.36C1240 328.239 1229.87 330.384 1219.33 330.933Z" fill="#97B700"/>
<path d="M1186.65 327.606L1185.73 336.964C1196.24 339.7 1207.53 340.855 1218.4 340.29L1219.33 330.93C1208.45 331.494 1197.16 330.345 1186.65 327.606Z" fill="#020202"/>
<path d="M1191.84 318.939L1186.65 327.609C1197.17 330.347 1208.46 331.499 1219.33 330.935L1216.09 321.408C1208.03 321.827 1199.64 320.973 1191.84 318.939Z" fill="#252525"/>
<path d="M79 179.586V74.5859H176.5V109.086C176.5 126.336 163 140.136 140.5 142.086L98.5 145.836V179.586H79ZM98.5 127.836L139.75 124.086C148 123.336 157 119.586 157 108.336V92.5859H98.5V127.836ZM244.75 182.586C207.25 182.586 187 155.586 187 127.086C187 98.5859 207.25 71.5859 244.75 71.5859C282.25 71.5859 302.5 98.5859 302.5 127.086C302.5 155.586 282.25 182.586 244.75 182.586ZM244.75 164.586C267.25 164.586 283 148.086 283 127.086C283 106.086 267.25 89.5859 244.75 89.5859C222.25 89.5859 206.5 106.086 206.5 127.086C206.5 148.086 222.25 164.586 244.75 164.586ZM316.012 179.736V74.7359H335.512V123.336L387.262 74.5859H413.512L367.762 118.086L412.012 179.586H389.512L354.262 130.836L335.512 148.836V179.736H316.012ZM423.971 179.586V74.5859H513.971V92.5859H443.471V109.836H496.721V127.836H443.471V161.586H513.971V179.586H423.971ZM529 179.586V74.5859H626.5V109.086C626.5 123.036 617.65 134.736 602.35 139.686L626.5 179.586H604L581.65 142.836L548.5 145.836V179.586H529ZM548.5 127.836L589.75 124.086C598 123.336 607 119.586 607 108.336V92.5859H548.5V127.836Z" fill="url(#paint2_linear_9038_32316)"/>
<path d="M69 179.586V74.5859H166.5V109.086C166.5 126.336 153 140.136 130.5 142.086L88.5 145.836V179.586H69ZM88.5 127.836L129.75 124.086C138 123.336 147 119.586 147 108.336V92.5859H88.5V127.836ZM234.75 182.586C197.25 182.586 177 155.586 177 127.086C177 98.5859 197.25 71.5859 234.75 71.5859C272.25 71.5859 292.5 98.5859 292.5 127.086C292.5 155.586 272.25 182.586 234.75 182.586ZM234.75 164.586C257.25 164.586 273 148.086 273 127.086C273 106.086 257.25 89.5859 234.75 89.5859C212.25 89.5859 196.5 106.086 196.5 127.086C196.5 148.086 212.25 164.586 234.75 164.586ZM306.012 179.736V74.7359H325.512V123.336L377.262 74.5859H403.512L357.762 118.086L402.012 179.586H379.512L344.262 130.836L325.512 148.836V179.736H306.012ZM413.971 179.586V74.5859H503.971V92.5859H433.471V109.836H486.721V127.836H433.471V161.586H503.971V179.586H413.971ZM519 179.586V74.5859H616.5V109.086C616.5 123.036 607.65 134.736 592.35 139.686L616.5 179.586H594L571.65 142.836L538.5 145.836V179.586H519ZM538.5 127.836L579.75 124.086C588 123.336 597 119.586 597 108.336V92.5859H538.5V127.836Z" fill="#D2FF00"/>
<path d="M67.1858 210.425V228.473C67.1858 231.258 67.701 233.375 68.7316 234.823C69.7621 236.244 71.5724 236.954 74.1627 236.954C76.7529 236.954 78.5633 236.244 79.5938 234.823C80.6243 233.375 81.1396 231.258 81.1396 228.473V210.425H84.6489V227.637C84.6489 229.754 84.4539 231.592 84.064 233.152C83.7019 234.712 83.1031 236.007 82.2676 237.037C81.432 238.068 80.3319 238.834 78.9671 239.335C77.6302 239.837 75.987 240.087 74.0373 240.087C72.0877 240.087 70.4444 239.837 69.1076 239.335C67.7985 238.834 66.7401 238.068 65.9324 237.037C65.1247 236.007 64.5399 234.712 64.1778 233.152C63.8436 231.592 63.6764 229.754 63.6764 227.637V210.425H67.1858ZM99.26 221.789L95.7507 215.313H95.6253V239.586H92.1996V210.425H96.252L106.905 228.222L110.415 234.698H110.54V210.425H113.966V239.586H109.913L99.26 221.789ZM121.738 210.425H131.514C133.324 210.425 134.967 210.731 136.444 211.344C137.92 211.957 139.173 212.876 140.204 214.101C141.262 215.299 142.07 216.817 142.627 218.655C143.184 220.466 143.462 222.582 143.462 225.005C143.462 227.429 143.184 229.559 142.627 231.397C142.07 233.208 141.262 234.726 140.204 235.951C139.173 237.149 137.92 238.054 136.444 238.667C134.967 239.28 133.324 239.586 131.514 239.586H121.738V210.425ZM131.514 236.494C132.711 236.494 133.812 236.299 134.814 235.909C135.817 235.492 136.68 234.893 137.404 234.113C138.129 233.333 138.686 232.386 139.076 231.272C139.493 230.13 139.702 228.835 139.702 227.387V222.624C139.702 221.176 139.493 219.895 139.076 218.781C138.686 217.639 138.129 216.678 137.404 215.898C136.68 215.118 135.817 214.533 134.814 214.143C133.812 213.725 132.711 213.517 131.514 213.517H125.247V236.494H131.514ZM149.766 239.586V210.425H167.564V213.517H153.276V223.293H166.728V226.384H153.276V236.494H167.564V239.586H149.766ZM177.633 239.586H174.123V210.425H185.737C188.3 210.425 190.291 211.135 191.712 212.556C193.16 213.976 193.884 216.023 193.884 218.697C193.884 220.842 193.383 222.61 192.38 224.003C191.405 225.368 189.957 226.273 188.035 226.718L194.72 239.586H190.751L184.442 227.053H177.633V239.586ZM185.737 224.045C187.13 224.045 188.202 223.683 188.954 222.958C189.734 222.234 190.124 221.204 190.124 219.867V217.694C190.124 216.357 189.734 215.327 188.954 214.603C188.202 213.879 187.13 213.517 185.737 213.517H177.633V224.045H185.737ZM210.72 210.425H220.496C222.306 210.425 223.949 210.731 225.425 211.344C226.901 211.957 228.155 212.876 229.185 214.101C230.244 215.299 231.051 216.817 231.608 218.655C232.165 220.466 232.444 222.582 232.444 225.005C232.444 227.429 232.165 229.559 231.608 231.397C231.051 233.208 230.244 234.726 229.185 235.951C228.155 237.149 226.901 238.054 225.425 238.667C223.949 239.28 222.306 239.586 220.496 239.586H210.72V210.425ZM220.496 236.494C221.693 236.494 222.793 236.299 223.796 235.909C224.799 235.492 225.662 234.893 226.386 234.113C227.11 233.333 227.667 232.386 228.057 231.272C228.475 230.13 228.684 228.835 228.684 227.387V222.624C228.684 221.176 228.475 219.895 228.057 218.781C227.667 217.639 227.11 216.678 226.386 215.898C225.662 215.118 224.799 214.533 223.796 214.143C222.793 213.725 221.693 213.517 220.496 213.517H214.229V236.494H220.496ZM238.748 239.586V210.425H256.546V213.517H242.258V223.293H255.71V226.384H242.258V236.494H256.546V239.586H238.748ZM269.34 239.586L259.647 210.425H263.407L268.212 225.131L271.429 236.077H271.637L274.938 225.131L279.784 210.425H283.419L273.601 239.586H269.34ZM288.155 239.586V210.425H305.953V213.517H291.665V223.293H305.117V226.384H291.665V236.494H305.953V239.586H288.155ZM312.512 239.586V210.425H316.021V236.494H328.429V239.586H312.512ZM343.081 240.087C341.187 240.087 339.474 239.767 337.942 239.126C336.438 238.458 335.143 237.497 334.057 236.244C332.999 234.963 332.177 233.389 331.592 231.523C331.007 229.629 330.715 227.456 330.715 225.005C330.715 222.555 331.007 220.396 331.592 218.53C332.177 216.664 332.999 215.09 334.057 213.809C335.143 212.528 336.438 211.567 337.942 210.926C339.474 210.258 341.187 209.924 343.081 209.924C344.947 209.924 346.646 210.258 348.178 210.926C349.71 211.567 351.005 212.528 352.063 213.809C353.149 215.09 353.985 216.664 354.57 218.53C355.155 220.396 355.447 222.555 355.447 225.005C355.447 227.456 355.155 229.629 354.57 231.523C353.985 233.389 353.149 234.963 352.063 236.244C351.005 237.497 349.71 238.458 348.178 239.126C346.646 239.767 344.947 240.087 343.081 240.087ZM343.081 236.954C344.334 236.954 345.49 236.731 346.549 236.285C347.607 235.84 348.512 235.199 349.264 234.364C350.044 233.528 350.643 232.525 351.061 231.356C351.478 230.186 351.687 228.877 351.687 227.429V222.582C351.687 221.134 351.478 219.825 351.061 218.655C350.643 217.485 350.044 216.483 349.264 215.647C348.512 214.812 347.607 214.171 346.549 213.725C345.49 213.28 344.334 213.057 343.081 213.057C341.828 213.057 340.672 213.28 339.613 213.725C338.555 214.171 337.636 214.812 336.856 215.647C336.104 216.483 335.519 217.485 335.101 218.655C334.684 219.825 334.475 221.134 334.475 222.582V227.429C334.475 228.877 334.684 230.186 335.101 231.356C335.519 232.525 336.104 233.528 336.856 234.364C337.636 235.199 338.555 235.84 339.613 236.285C340.672 236.731 341.828 236.954 343.081 236.954ZM361.756 239.586V210.425H373.37C375.988 210.425 377.994 211.177 379.386 212.681C380.807 214.157 381.517 216.19 381.517 218.781C381.517 221.371 380.807 223.418 379.386 224.922C377.994 226.398 375.988 227.136 373.37 227.136H365.265V239.586H361.756ZM365.265 224.045H373.37C374.763 224.045 375.835 223.683 376.587 222.958C377.367 222.234 377.757 221.204 377.757 219.867V217.694C377.757 216.357 377.367 215.327 376.587 214.603C375.835 213.879 374.763 213.517 373.37 213.517H365.265V224.045ZM409.819 215.021H409.61L407.145 219.909L400.168 232.609L393.191 219.909L390.727 215.021H390.518V239.586H387.092V210.425H391.771L400.127 226.133H400.335L408.733 210.425H413.245V239.586H409.819V215.021ZM420.996 239.586V210.425H438.793V213.517H424.505V223.293H437.957V226.384H424.505V236.494H438.793V239.586H420.996ZM452.413 221.789L448.903 215.313H448.778V239.586H445.352V210.425H449.405L460.058 228.222L463.567 234.698H463.693V210.425H467.119V239.586H463.066L452.413 221.789ZM484.708 213.517V239.586H481.199V213.517H471.924V210.425H493.983V213.517H484.708Z" fill="#D2FF00"/>
<defs>
<linearGradient id="paint0_linear_9038_32316" x1="883.723" y1="19.9385" x2="807.787" y2="66.6129" gradientUnits="userSpaceOnUse">
<stop stop-color="#DCB8FF"/>
<stop offset="1" stop-color="#160C00"/>
</linearGradient>
<linearGradient id="paint1_linear_9038_32316" x1="1079.55" y1="334.177" x2="1007.48" y2="390.284" gradientUnits="userSpaceOnUse">
<stop stop-color="#DCB8FF"/>
<stop offset="1" stop-color="#160C00"/>
</linearGradient>
<linearGradient id="paint2_linear_9038_32316" x1="335.5" y1="78.0859" x2="330.5" y2="179.586" gradientUnits="userSpaceOnUse">
<stop stop-color="#D2FF00"/>
<stop offset="1" stop-color="#252525"/>
</linearGradient>
</defs>
</svg>
