<svg width="1502" height="482" viewBox="0 0 1502 482" fill="none" xmlns="http://www.w3.org/2000/svg">
<rect x="1" y="1.58594" width="1502" height="480" fill="#212121"/>
<path d="M1270.81 -50.1612L899.018 479.633L495.41 572.557L383 479.633L1210.6 -119.414L1270.81 -50.1612Z" fill="#FF5B23"/>
<path d="M738.366 202.489C770.657 115.835 881.668 58.1521 968.321 90.4435C1017.39 108.728 1052.79 147.58 1068.42 193.575C1077.91 183.386 1091.12 180.633 1104.74 177.131C1115.72 174.308 1144.46 163.012 1126.88 191.326C1102.76 230.186 1082.8 274.724 1068.6 299.895C1057.09 320.298 967.959 442.083 851.382 404.241C763.426 375.688 706.074 289.141 738.366 202.487V202.489Z" fill="#160C00"/>
<path d="M1103.28 196.98C1103.28 196.98 1057.52 218.721 1045.94 213.428C1034.36 208.135 1022 149.369 1023.45 141.101C1024.91 132.833 1084.53 125.646 1084.53 125.646L1103.28 196.98Z" fill="#160C00"/>
<path d="M896.734 49.6348C898.713 51.2216 932.275 97.7399 932.275 97.7399C932.275 97.7399 852.599 141.86 842.536 134.693C832.474 127.525 825.106 96.3288 826.403 93.8011C827.701 91.2753 896.735 49.6348 896.735 49.6348H896.734Z" fill="#160C00"/>
<path d="M800.592 299.411C800.592 299.411 842.781 292.071 839.663 284.822C836.544 277.572 816.163 202.352 812.835 201.601C809.507 200.85 779.828 222.681 776.96 226.455C774.089 230.229 800.591 299.411 800.591 299.411H800.592Z" fill="#160C00"/>
<path d="M993.883 362.899C986.797 359.413 951.744 324.529 953.237 323.272C954.73 322.015 1038.51 289.795 1043.29 292.954C1048.07 296.114 1071 326.861 1065.69 330.422C1060.38 333.982 993.883 362.899 993.883 362.899Z" fill="black"/>
<path d="M898.158 63.6455C898.496 64.9324 909.08 84.6796 907.923 88.6628C906.765 92.646 872.31 110.801 867.188 108.73C862.065 106.658 852.515 90.7005 855.692 86.9907C858.87 83.2809 872.994 69.1321 882.721 67.0482C892.448 64.9644 898.158 63.6473 898.158 63.6473V63.6455Z" fill="#160C00"/>
<path d="M1158.34 125.388C1170.32 152.894 1168.98 167.769 1156.54 174.88C1144.1 181.991 1114.31 201.042 1103.28 196.979C1092.25 192.916 1077.52 131.486 1079.15 124.504C1080.77 117.523 1093.15 109.903 1106.31 102.819C1119.48 95.7329 1136.99 76.3212 1158.34 125.388Z" fill="#252525"/>
<path d="M1092.38 175.682C1092.38 175.682 1085.51 177.039 1081.26 179.248C1077.01 181.457 1067.62 181.382 1060.94 169.106C1054.26 156.828 1053.45 147.839 1055.08 145.757C1056.71 143.673 1070.5 128.992 1075.95 130.779C1081.41 132.567 1087.98 154 1091.04 161.553C1094.1 169.106 1092.38 175.684 1092.38 175.684V175.682Z" fill="#160C00"/>
<path d="M1105.27 191.846C1106.4 192.212 1110.71 192.729 1123.21 186.97C1131.95 182.948 1141.43 177.364 1148.36 173.287C1150.4 172.085 1152.24 171 1153.81 170.104C1160.52 166.268 1166.52 157.97 1153.3 127.587C1146.22 111.319 1139.17 101.78 1132.33 99.2341C1126.69 97.1307 1121.46 99.9778 1114.13 104.561C1112.34 105.679 1110.65 106.737 1108.92 107.667C1093.74 115.841 1085.53 121.889 1084.54 125.647C1084.3 128.277 1086.51 142.193 1091.7 160.107C1098.42 183.355 1103.72 190.847 1105.27 191.846H1105.27Z" fill="#FF5B23"/>
<path d="M1114.13 104.557C1114.49 104.33 1114.85 104.11 1115.2 103.894C1120.04 108.839 1125.76 115.179 1130.67 121.837C1138.3 132.18 1143.12 158.099 1143.63 176.059C1137.44 179.666 1130.1 183.802 1123.22 186.969C1110.71 192.727 1106.4 192.208 1105.27 191.845C1103.72 190.845 1098.43 183.353 1091.7 160.105C1086.51 142.192 1084.3 128.275 1084.54 125.645C1085.54 121.887 1093.74 115.84 1108.93 107.665C1110.65 106.735 1112.34 105.679 1114.13 104.559L1114.13 104.557Z" fill="#160C00"/>
<path d="M894.772 63.9818C897.209 57.439 898.301 48.3846 893.555 37.4806C888.808 26.5765 885.278 -2.47186 868.988 -6.91121C852.699 -11.3506 813.167 9.80604 806.493 18.0866C799.819 26.3653 795.97 34.0672 806.046 61.3121C816.121 88.5571 819.238 99.454 835.477 97.0222C851.717 94.5922 892.335 70.5246 894.772 63.9818Z" fill="url(#paint0_linear_2444_1777)"/>
<path d="M827.699 91.2724C829.437 91.9203 831.714 92.0197 834.661 91.5795C849.583 89.3465 886.069 67.1107 889.699 61.8282C892.248 54.8044 891.847 47.351 888.506 39.6758C887.2 36.6742 886.082 32.81 884.786 28.3333C881.559 17.1915 877.139 1.92974 868.425 -1.3168C868.131 -1.42685 867.843 -1.51914 867.54 -1.60257C854.032 -5.28398 816.516 14.4171 810.776 21.5385C805.783 27.7316 801.471 33.0798 811.205 59.4017L812.656 63.337C818.597 79.4756 822.182 89.2152 827.699 91.2724Z" fill="#FF5B23"/>
<path d="M853.221 21.8126C862.86 17.8241 872.186 15.1261 879.863 13.3262C881.865 18.2608 883.432 23.6586 884.785 28.3341C886.081 32.8089 887.201 36.6749 888.505 39.6765C891.846 47.3518 892.247 54.8051 889.698 61.8289C886.07 67.1096 849.582 89.3455 834.66 91.5802C831.713 92.0204 829.436 91.921 827.698 91.2732C822.181 89.2177 818.596 79.4763 812.655 63.3377L812.234 62.1964C823.802 48.0724 837.327 28.3909 853.221 21.8126Z" fill="#160C00"/>
<path d="M800.593 299.409C800.593 299.409 765.796 317.273 757.723 319.893C749.65 322.513 733.396 326.732 720.314 281.728C707.232 236.722 720.209 230.792 736.169 226.708C752.128 222.623 782.289 221.138 784.897 223.333C787.504 225.529 804.628 291.86 800.592 299.409H800.593Z" fill="#252525"/>
<path d="M746.172 315.191C749.701 316.505 752.974 315.649 756.024 314.658C761.846 312.768 784.818 301.278 795.753 295.703C796.164 284.817 785.251 238.719 781.08 227.987C774.528 227.327 751.755 228.397 737.533 232.036C729.931 233.981 725.332 235.879 722.797 240.317C718.933 247.087 719.875 260.5 725.598 280.189C732.961 305.522 740.849 313.205 746.171 315.187L746.172 315.191Z" fill="#FF5B23"/>
<path d="M781.08 227.988C785.251 238.72 796.166 284.816 795.752 295.704C789.745 298.768 780.107 303.613 771.672 307.675C751.87 297.504 732.19 288.311 730.172 275.114C728.954 267.145 732.479 240.903 740.382 231.366C754.621 228.267 774.95 227.371 781.08 227.988Z" fill="#160C00"/>
<path d="M823.952 269.37C823.952 269.37 799.645 287.16 790.726 286.672C781.806 286.183 764.995 263.658 768.048 245.134C771.101 226.608 802.075 224.4 809.598 224.506C817.41 224.617 823.952 269.37 823.952 269.37Z" fill="#160C00"/>
<path d="M1095.62 350.624C1101.48 358.392 1094.38 377.571 1066.97 395.089C1039.57 412.606 1021 417.761 1008.09 399.897C995.167 382.033 985.239 364.022 991.114 355.259C996.99 346.497 1045.57 321.206 1053.47 321.87C1061.38 322.534 1078.14 327.474 1095.61 350.624H1095.62Z" fill="url(#paint1_linear_2444_1777)"/>
<path d="M1045.29 329.824L1031.21 312.235L990.069 332.247C990.069 332.247 1014.6 358.15 1017.82 356.84C1021.03 355.53 1045.29 329.824 1045.29 329.824Z" fill="black"/>
<path d="M1021.96 404.458C1030.76 407.737 1043.73 403.418 1064.01 390.453C1082.49 378.644 1090.49 366.533 1091.82 359.138C1092.23 356.878 1092.01 354.983 1091.22 353.943C1079.53 338.455 1068.53 332.019 1061.36 329.346C1057.73 327.995 1054.89 327.521 1053.11 327.363C1050.65 327.488 1039.59 331.65 1023.35 340.296C1007.62 348.674 997.354 355.84 995.687 358.327C994.459 360.157 992.05 368.331 1012.54 396.675C1015.39 400.615 1018.47 403.161 1021.96 404.458Z" fill="#FF5B23"/>
<path d="M1023.36 340.294C1039.59 331.648 1050.66 327.487 1053.11 327.361C1054.89 327.519 1057.73 327.991 1061.36 329.344C1066.52 331.266 1073.67 335.159 1081.62 342.944C1073.35 354.436 1059.78 371.224 1046.41 378.692C1035.57 384.752 1020.21 387.819 1006.49 387.878C992.59 366.584 994.596 359.949 995.686 358.325C997.353 355.838 1007.62 348.674 1023.36 340.294Z" fill="#160C00"/>
<path d="M1044.57 315.698C1100.65 259.621 1100.65 168.702 1044.57 112.624C988.492 56.5471 897.573 56.547 841.495 112.624C785.418 168.702 785.418 259.621 841.495 315.698C897.573 371.775 988.492 371.775 1044.57 315.698Z" fill="black"/>
<path d="M1046.87 309.518C1102.95 253.441 1102.95 162.522 1046.87 106.445C990.795 50.3674 899.876 50.3674 843.799 106.445C787.721 162.522 787.721 253.441 843.799 309.518C899.876 365.596 990.795 365.596 1046.87 309.518Z" fill="#D2FF00"/>
<path d="M1077.78 220.708C1084.81 147.562 1031.21 82.5678 958.061 75.54C884.915 68.5123 819.921 122.112 812.893 195.258C805.866 268.404 859.465 333.398 932.611 340.426C1005.76 347.454 1070.75 293.854 1077.78 220.708Z" fill="#8FAC06"/>
<path d="M865.158 246.314L849.898 248.278C848.423 248.468 847.381 249.818 847.571 251.293L848.622 259.454C848.812 260.929 850.162 261.971 851.637 261.781L866.897 259.817C868.372 259.627 869.413 258.277 869.224 256.802L868.173 248.64C867.983 247.166 866.633 246.124 865.158 246.314Z" fill="#F9F8F4"/>
<path d="M859.307 255.122C859.387 255.126 859.469 255.126 859.55 255.117C860.351 255.025 860.924 254.302 860.834 253.503C860.743 252.705 860.019 252.13 859.22 252.22C859.137 252.229 859.057 252.247 858.981 252.27C858.846 251.519 858.15 250.992 857.381 251.079C856.581 251.171 856.007 251.893 856.098 252.692C856.165 253.285 856.581 253.752 857.115 253.919C856.272 253.883 855.592 253.431 855.521 252.802L855.823 255.431C855.752 254.805 856.311 254.21 857.124 253.983C856.639 254.265 856.343 254.815 856.41 255.408C856.503 256.209 857.225 256.782 858.024 256.691C858.808 256.601 859.375 255.903 859.309 255.122H859.307Z" fill="black"/>
<path d="M858.658 228.72L843.943 233.215C842.521 233.65 841.72 235.155 842.155 236.577L844.559 244.447C844.994 245.869 846.499 246.67 847.921 246.236L862.636 241.74C864.058 241.305 864.859 239.8 864.424 238.378L862.02 230.508C861.585 229.086 860.08 228.285 858.658 228.72Z" fill="#F9F8F4"/>
<path d="M852.454 234.844C852.651 234.512 852.96 234.262 853.327 234.14C854.163 233.863 855.067 234.319 855.343 235.153C855.464 235.521 855.448 235.918 855.299 236.273L855.294 236.287L855.139 236.598L855.446 236.752L855.461 236.761C855.793 236.958 856.043 237.267 856.165 237.635C856.442 238.471 855.988 239.374 855.152 239.651C854.786 239.772 854.387 239.756 854.032 239.607L850.858 238.016L852.455 234.843L852.454 234.844Z" fill="#DCB8FF"/>
<g style="mix-blend-mode:multiply">
<path d="M862.02 230.505C861.587 229.089 860.075 228.285 858.659 228.718L843.943 233.214C842.831 233.555 842.106 234.563 842.051 235.665L844.283 239.191C845.074 240.442 846.746 240.817 847.998 240.025L860.996 231.792C861.479 231.485 861.827 231.049 862.033 230.555L862.019 230.507L862.02 230.505Z" fill="#596C00"/>
</g>
<g style="mix-blend-mode:multiply">
<path d="M864.422 238.378L864.131 237.423L856.402 237.948C854.924 238.049 853.798 239.34 853.899 240.817L854.139 244.335L862.636 241.74C864.053 241.307 864.857 239.794 864.424 238.378H864.422Z" fill="#596C00"/>
</g>
<path d="M874.709 235.622L859.359 236.667C857.875 236.768 856.754 238.052 856.855 239.536L857.414 247.746C857.515 249.23 858.799 250.351 860.283 250.25L875.633 249.206C877.117 249.105 878.238 247.82 878.137 246.336L877.579 238.126C877.478 236.643 876.193 235.522 874.709 235.622Z" fill="#F9F8F4"/>
<path d="M871.477 242.669L868.06 240.191L864.707 242.755L868.124 245.232L871.477 242.669Z" fill="#DCB8FF"/>
<path d="M855.257 218.093L842.258 226.325C841.002 227.121 840.628 228.784 841.424 230.041L845.827 236.993C846.623 238.249 848.286 238.623 849.542 237.827L862.541 229.595C863.797 228.799 864.171 227.136 863.375 225.879L858.972 218.927C858.177 217.671 856.513 217.297 855.257 218.093Z" fill="#F9F8F4"/>
<path d="M851.554 228.781C851.506 229.112 851.58 229.449 851.761 229.729C852.175 230.368 853.032 230.551 853.671 230.138C853.952 229.957 854.156 229.68 854.248 229.357L854.892 226.35L851.889 225.712C851.559 225.665 851.222 225.739 850.941 225.92C850.302 226.334 850.119 227.191 850.533 227.83C850.714 228.11 850.991 228.315 851.312 228.407L851.324 228.41L851.506 228.45C850.81 228.682 850.123 228.554 849.814 228.079L851.241 230.28C850.932 229.804 851.096 229.126 851.591 228.586L851.554 228.767V228.781Z" fill="black"/>
<path d="M882.575 141.588L874.778 144.219C873.369 144.695 872.613 146.222 873.088 147.631L878.008 162.21C878.483 163.619 880.011 164.376 881.42 163.9L889.217 161.269C890.626 160.793 891.383 159.265 890.907 157.856L885.988 143.278C885.512 141.869 883.984 141.112 882.575 141.588Z" fill="#F9F8F4"/>
<path d="M881.123 153.845C881.133 153.925 881.151 154.003 881.176 154.081C881.423 154.848 882.245 155.269 883.01 155.022C883.775 154.775 884.197 153.954 883.95 153.187C883.926 153.107 883.892 153.032 883.855 152.961C884.565 152.683 884.945 151.896 884.708 151.16C884.462 150.393 883.64 149.972 882.873 150.219C882.305 150.402 881.929 150.901 881.87 151.458C881.741 150.624 882.051 149.869 882.653 149.676L880.134 150.487C880.736 150.293 881.428 150.725 881.81 151.479C881.437 151.06 880.841 150.876 880.273 151.059C879.506 151.305 879.085 152.127 879.332 152.892C879.573 153.645 880.368 154.062 881.123 153.845Z" fill="black"/>
<g style="mix-blend-mode:multiply">
<path d="M884.873 156.439L886.439 162.202L889.217 161.265C890.621 160.791 891.38 159.256 890.907 157.854L889.1 152.5L886.764 153.135C885.335 153.524 884.483 155.012 884.871 156.441L884.873 156.439Z" fill="#596C00"/>
</g>
<path d="M901.952 115.034L896.627 121.308C895.664 122.442 895.803 124.141 896.937 125.104L908.668 135.06C909.802 136.022 911.501 135.883 912.463 134.749L917.788 128.475C918.75 127.341 918.611 125.642 917.478 124.68L905.747 114.724C904.613 113.761 902.914 113.901 901.952 115.034Z" fill="#F9F8F4"/>
<path d="M897.423 121.981L902.748 115.707C903.336 115.014 904.374 114.929 905.067 115.517L916.798 125.473C917.489 126.06 917.574 127.098 916.987 127.789L911.662 134.065C911.075 134.757 910.036 134.842 909.345 134.255L897.614 124.299C896.921 123.711 896.836 122.673 897.424 121.98L897.423 121.981Z" fill="black"/>
<path d="M895.926 148.38L887.985 150.538C886.55 150.928 885.703 152.408 886.093 153.843L890.128 168.69C890.518 170.125 891.998 170.972 893.433 170.582L901.374 168.424C902.809 168.034 903.656 166.554 903.266 165.119L899.231 150.272C898.841 148.837 897.361 147.99 895.926 148.38Z" fill="#F9F8F4"/>
<path d="M895.719 163.335L897.48 159.499L894.308 156.714L892.549 160.55L895.719 163.335Z" fill="#DCB8FF"/>
<g style="mix-blend-mode:multiply">
<path d="M897.8 159.534L902.328 167.944C903.152 167.294 903.556 166.19 903.265 165.12L900.517 155.013L898.893 155.888C897.59 156.591 897.097 158.229 897.8 159.534Z" fill="#596C00"/>
</g>
<path d="M906.661 148.923L899.415 152.825C898.106 153.53 897.616 155.163 898.321 156.472L905.616 170.019C906.321 171.329 907.954 171.819 909.263 171.114L916.509 167.212C917.818 166.507 918.308 164.874 917.603 163.565L910.308 150.018C909.603 148.708 907.97 148.218 906.661 148.923Z" fill="#F9F8F4"/>
<path d="M910.38 158.686C910.744 158.814 911.051 159.068 911.241 159.403C911.675 160.168 911.407 161.145 910.642 161.579C910.307 161.769 909.915 161.833 909.535 161.755L909.519 161.752L909.185 161.661L909.093 161.991L909.087 162.005C908.96 162.371 908.706 162.676 908.37 162.866C907.605 163.301 906.629 163.033 906.194 162.268C906.004 161.933 905.94 161.539 906.018 161.161L906.954 157.738L910.378 158.683L910.38 158.686Z" fill="#DCB8FF"/>
<path d="M1024.08 184.343L1021.11 179.361C1020.81 177.912 1019.37 176.975 1017.92 177.28L1002.99 177.222C1001.54 177.527 1000.48 182.192 1000.79 183.642L1002.48 191.695C1002.79 193.144 1004.23 194.079 1005.67 193.776L1020.73 190.604C1022.18 190.298 1024.38 185.792 1024.08 184.343H1024.08Z" fill="#160C00"/>
<path d="M1019.13 173.336L1004.08 176.508C1002.62 176.815 1001.69 178.243 1002 179.698L1003.69 187.751C1004 189.206 1005.43 190.137 1006.88 189.83L1021.94 186.658C1023.39 186.352 1024.32 184.923 1024.02 183.468L1022.32 175.416C1022.01 173.961 1020.59 173.03 1019.13 173.336Z" fill="#F9F8F4"/>
<path d="M1004.29 177.524L1019.35 174.351C1020.24 174.164 1021.11 174.733 1021.3 175.621L1022.99 183.675C1023.18 184.562 1022.61 185.435 1021.72 185.622L1006.67 188.794C1005.78 188.982 1004.91 188.413 1004.72 187.524L1003.02 179.471C1002.83 178.582 1003.4 177.711 1004.29 177.524Z" fill="black"/>
<path d="M992.611 277.106L989.226 292.115C988.899 293.566 989.81 295.007 991.261 295.335L999.288 297.145C1000.74 297.472 1002.18 296.561 1002.51 295.111L1005.89 280.102C1006.22 278.651 1005.31 277.21 1003.86 276.882L995.83 275.072C994.38 274.745 992.938 275.656 992.611 277.106Z" fill="#F9F8F4"/>
<path d="M990.242 292.343L993.627 277.336C993.827 276.449 994.707 275.893 995.594 276.093L1003.62 277.903C1004.51 278.103 1005.06 278.983 1004.86 279.868L1001.48 294.877C1001.28 295.764 1000.4 296.32 999.513 296.12L991.486 294.31C990.599 294.11 990.042 293.23 990.242 292.343Z" fill="black"/>
<path d="M994.242 275.623L986.332 277.893C984.902 278.303 984.076 279.795 984.486 281.224L988.73 296.013C989.14 297.443 990.632 298.269 992.061 297.859L999.971 295.589C1001.4 295.179 1002.23 293.687 1001.82 292.258L997.573 277.469C997.163 276.039 995.671 275.213 994.242 275.623Z" fill="#F9F8F4"/>
<path d="M994.529 276.634L986.619 278.904C985.746 279.154 985.241 280.066 985.491 280.939L989.735 295.728C989.986 296.602 990.897 297.107 991.771 296.856L999.681 294.586C1000.55 294.336 1001.06 293.424 1000.81 292.551L996.565 277.762C996.314 276.888 995.403 276.383 994.529 276.634Z" fill="black"/>
<path d="M985.628 277.743L978.418 281.708C977.114 282.425 976.639 284.062 977.356 285.365L984.77 298.847C985.487 300.15 987.124 300.625 988.427 299.909L995.638 295.943C996.941 295.226 997.416 293.589 996.7 292.286L989.285 278.804C988.568 277.501 986.931 277.026 985.628 277.743Z" fill="#F9F8F4"/>
<path d="M978.926 282.626L986.138 278.659C986.932 278.222 987.933 278.513 988.37 279.307L995.786 292.79C996.223 293.585 995.932 294.586 995.138 295.023L987.926 298.989C987.129 299.427 986.129 299.137 985.691 298.341L978.277 284.861C977.839 284.064 978.129 283.064 978.926 282.626Z" fill="black"/>
<path d="M976.744 282.871L970.163 287.811C968.973 288.703 968.732 290.391 969.625 291.58L978.86 303.887C979.753 305.076 981.441 305.317 982.63 304.424L989.212 299.485C990.401 298.592 990.642 296.904 989.749 295.715L980.514 283.409C979.622 282.219 977.934 281.979 976.744 282.871Z" fill="#F9F8F4"/>
<path d="M970.791 288.642L977.372 283.703C978.099 283.157 979.131 283.304 979.676 284.031L988.911 296.337C989.456 297.063 989.309 298.094 988.583 298.639L982 303.579C981.273 304.124 980.242 303.977 979.696 303.251L970.462 290.946C969.917 290.219 970.064 289.188 970.791 288.642Z" fill="black"/>
<path d="M985.287 342.606C979.978 337.134 971.438 303.99 966.111 304.562C960.785 305.134 959.897 325.227 964.468 341.071C965.471 344.543 966.637 347.399 967.842 349.788C974.269 348.762 980.605 347.317 986.801 345.441C986.505 344.351 986.031 343.375 985.285 342.606H985.287Z" fill="#160C00"/>
<g style="mix-blend-mode:multiply">
<path d="M1088.96 208.97C1088.85 225.314 1085.93 241.918 1079.89 258.122C1064.71 298.863 1032.98 328.589 995.18 342.605L1088.96 208.97Z" fill="#212121"/>
<path d="M805.228 176.619C806.645 170.325 808.462 164.052 810.777 157.837C833.881 95.8391 895.267 59.2983 958.128 64.9571L805.227 176.617L805.228 176.619Z" fill="#212121"/>
</g>
<path d="M844.617 113.208L845.921 104.321C865.716 85.3635 890.562 72.4927 917.276 67.1445C916.758 75.725 915.041 103.263 914.301 104.651C913.424 106.296 905.87 119.476 905.87 119.476C905.87 119.476 907.621 90.6744 904.915 87.545C902.208 84.4156 889.106 84.3482 876.431 89.7389C863.753 95.1297 844.617 113.208 844.617 113.208Z" fill="#160C00"/>
<path d="M835.159 115.845L866.431 176.801C865.119 176.386 858.147 187 841.733 166.366C832.209 154.391 826.033 141.913 822.524 133.542C826.317 127.269 830.547 121.362 835.16 115.847L835.159 115.845Z" fill="#160C00"/>
<path d="M851.391 264.401C851.391 264.401 851.398 280.62 845.519 288.519C841.795 293.523 841.699 300.8 839.038 304.563C834.787 299.875 830.868 294.925 827.291 289.752C828.956 285.295 831.086 281.72 831.086 281.72L851.391 264.401Z" fill="#160C00"/>
<path d="M805.881 207.478L847.336 224.394C847.336 224.394 844.835 233.363 826.432 227.189C815.615 223.561 807.611 222.381 802.434 222.329C801.963 217.672 801.718 212.977 801.708 208.259C804.13 207.793 805.881 207.478 805.881 207.478Z" fill="#160C00"/>
<path d="M1088.25 222.192C1085.16 224 1081.8 225.797 1079.33 226.684C1073.3 228.843 1039.06 241.044 1029.64 239.399C1020.22 237.755 1014.43 228.773 1017.3 228.692C1020.17 228.61 1073.64 202.542 1077.1 196.319C1080.56 190.096 1069.24 150.005 1057.55 148.54C1045.86 147.076 1035.54 165.998 1030.54 171.57C1025.54 177.141 1016.85 175.375 1015.03 175.244L1021.47 167.43L1031.67 143.774C1031.67 143.774 1048.68 125.051 1060.55 124.16C1061 124.126 1061.46 124.128 1061.93 124.148C1082.02 152.144 1091.78 186.977 1088.25 222.19V222.192Z" fill="#160C00"/>
<path d="M976.066 314.512C976.066 314.512 977.243 311.935 977.836 310.371C978.429 308.809 979.806 304.288 978.329 303.867C976.852 303.447 975.134 308.876 975.134 308.876C975.134 308.876 975.606 300.056 974.19 298.995C972.773 297.933 968.712 298.482 965.478 301.964C962.244 305.447 967.835 317.819 967.835 317.819L976.068 314.512H976.066Z" fill="#D3D3D3"/>
<path d="M1015.01 292.397C1015.01 292.397 1013.05 294.447 1011.82 295.579C1010.59 296.71 1006.91 299.669 1005.97 298.455C1005.03 297.239 1009.43 293.627 1009.43 293.627C1009.43 293.627 1001.42 297.342 999.908 296.423C998.397 295.501 997.396 291.527 999.427 287.23C1001.46 282.932 1015.02 283.527 1015.02 283.527L1015.01 292.399V292.397Z" fill="#D3D3D3"/>
<path d="M858.506 152.212C858.506 152.212 862.986 158.245 865.491 160.718C867.995 163.191 865.941 165.198 865.941 165.198C865.941 165.198 871.834 173.023 866.431 176.8C861.026 180.577 848.898 166.064 848.076 163.129C847.254 160.191 850.236 153.636 853.048 152.482C855.859 151.326 858.506 152.212 858.506 152.212Z" fill="#D3D3D3"/>
<path d="M910.644 94.3515C910.644 94.3515 908.91 101.153 907.527 105.343C906.144 109.53 904.481 117.313 905.869 119.477C907.257 121.641 911.123 111.276 911.123 111.276C911.123 111.276 915.04 114.784 918.921 113.793C922.801 112.803 925.421 97.5217 925.421 97.5217L918.786 93.874L910.644 94.3515Z" fill="#D3D3D3"/>
<path d="M857.589 148.873L858.507 152.212C858.507 152.212 854.47 153.522 851.902 156.969C849.333 160.416 848.077 163.13 848.077 163.13L846.44 159.644C846.44 159.644 849.177 152.956 850.957 151.296C852.738 149.635 857.591 148.873 857.591 148.873H857.589Z" fill="white"/>
<path d="M925.838 93.5552L925.421 97.5188C925.421 97.5188 922.318 95.9958 918.358 95.1314C914.398 94.267 910.489 94.6859 910.489 94.6859L911.228 90.1897C911.228 90.1897 917.632 89.9661 919.632 90.3441C921.633 90.7222 925.838 93.5552 925.838 93.5552Z" fill="white"/>
<path d="M1034.1 227.456C1034.1 227.456 1032.23 229.609 1025.98 230.866C1021.65 231.734 1014.47 230.01 1014.44 228.776C1014.41 227.543 1015.18 226.771 1015.18 226.771C1015.18 226.771 1012.85 226.471 1012.24 225.265C1011.63 224.058 1013.17 222.759 1013.17 222.759C1013.17 222.759 1009.83 220.78 1010.76 219.168C1011.68 217.556 1024.11 215.499 1026.98 215.915C1029.84 216.33 1033.15 222.539 1033.65 224.273C1034.14 226.007 1034.09 227.458 1034.09 227.458L1034.1 227.456Z" fill="#D3D3D3"/>
<path d="M835.212 208.206C835.212 208.206 837.452 207.583 842.277 209.559C845.608 210.922 849.718 215.342 849.18 216.196C848.642 217.048 847.765 217.222 847.765 217.222C847.765 217.222 849.219 218.48 849.088 219.577C848.956 220.674 847.32 220.859 847.32 220.859C847.32 220.859 848.697 223.715 847.337 224.393C845.978 225.071 839.804 220.275 834.836 219.274C832.519 218.807 833.629 211.977 834.076 210.573C834.523 209.169 835.212 208.206 835.212 208.206Z" fill="#D3D3D3"/>
<path d="M845.061 277.702C845.061 277.702 847.194 276.779 849.702 272.208C851.435 269.052 851.85 263.031 850.895 262.706C849.94 262.381 849.15 262.799 849.15 262.799C849.15 262.799 849.488 260.906 848.698 260.134C847.908 259.364 846.516 260.25 846.516 260.25C846.516 260.25 845.792 257.163 844.308 257.491C842.826 257.82 841.04 265.431 837.806 269.334C836.299 271.154 841.457 275.767 842.687 276.576C843.918 277.388 845.059 277.702 845.059 277.702H845.061Z" fill="#D3D3D3"/>
<path d="M1037.95 227.832L1033.15 229.55C1033.15 229.55 1032.97 223.69 1031.42 221.072C1029.86 218.454 1026.98 215.91 1026.98 215.91L1032.76 214.336C1032.76 214.336 1037.96 217.964 1038.67 220.431C1039.38 222.899 1037.95 227.832 1037.95 227.832Z" fill="white"/>
<path d="M846.604 277.247C846.604 277.247 843.597 276.127 841.199 273.61C838.801 271.095 837.986 268.447 837.986 268.447C837.986 268.447 823.694 282.808 813.214 284.447C802.732 286.085 790.22 280.034 787.243 274.597C784.267 269.16 774.923 239.448 779.281 231.742C783.64 224.037 793.032 209.599 802.148 211.014C811.267 212.428 836.342 219.88 836.342 219.88C836.342 219.88 837.629 216.303 837.928 213.508C838.226 210.712 837.723 208.429 837.723 208.429C837.723 208.429 803.243 196.458 795.813 195.718C788.383 194.978 767.679 216.062 761.237 227.182C754.794 238.303 749.98 269.364 765.741 282.945C781.503 296.526 800.13 304.955 811.086 303.495C822.041 302.034 832.526 293.517 836.504 289.71C842.809 283.676 846.602 277.247 846.602 277.247H846.604Z" fill="#DCB8FF"/>
<g style="mix-blend-mode:multiply">
<path d="M785.911 213.832C793.091 207.988 795.319 202.734 811.271 207.463C821.005 210.347 831.103 213.722 837.502 215.914C837.018 218.006 836.345 219.879 836.345 219.879C836.345 219.879 811.269 212.428 802.151 211.013C793.032 209.598 783.641 224.036 779.283 231.742C774.924 239.447 784.269 269.159 787.246 274.596C790.223 280.033 802.735 286.084 813.216 284.446C823.696 282.808 837.989 268.446 837.989 268.446C837.989 268.446 838.805 271.094 841.201 273.609C842.259 274.719 843.434 275.557 844.42 276.148C840.621 280.889 828.222 295.025 815.497 294.938C801.611 294.842 788.904 287.268 768.308 285.083C767.447 284.384 766.592 283.674 765.745 282.944C763.849 281.309 762.257 279.419 760.924 277.344C764.311 267.397 775.026 250.743 775.026 250.743L770.907 241.4C770.907 241.4 778.731 219.675 785.911 213.832Z" fill="#160C00"/>
</g>
<path d="M1031.85 156.062C1031.85 156.062 1029.31 161.722 1027.76 164.878C1026.22 168.034 1021.66 171.902 1020 173.241C1018.34 174.579 1016.58 176.185 1015.03 175.243C1013.49 174.3 1018.94 168.379 1019.06 167.385C1019.19 166.391 1013.2 164.894 1013.16 162.862C1013.12 160.83 1017.72 155.567 1019.77 153.825C1021.83 152.084 1024.47 150.254 1024.47 150.254L1031.85 156.062Z" fill="#D3D3D3"/>
<path d="M1034.15 155.29L1031.93 157.315C1031.93 157.315 1025.66 151.981 1024.55 151.326C1023.45 150.671 1022.12 149.808 1022.12 149.808L1024.99 146.166C1024.99 146.166 1030.16 149.744 1031.2 151.051C1032.25 152.357 1034.15 155.29 1034.15 155.29Z" fill="white"/>
<path d="M1052.34 357.985C1052.34 357.985 1066.16 347.965 1065.69 330.418C1065.23 312.872 1055.25 286.477 1051.81 283.889C1048.37 281.301 1014.88 283.178 1014.88 283.178C1014.88 283.178 1014.09 284.433 1013.38 287.189C1012.68 289.946 1013.86 293.515 1013.86 293.515C1013.86 293.515 1039.91 294.701 1042.33 295.438C1044.74 296.174 1048.01 321.872 1047.16 322.857C1046.3 323.842 1029.78 324.619 1022.22 330.449C1014.67 336.278 1012.75 344.047 1012.75 344.047C1012.75 344.047 994.066 341.653 989.695 338.065C985.323 334.478 977.908 314.097 977.908 314.097C977.908 314.097 975.455 313.02 972.495 313.304C969.534 313.588 966.113 315.982 966.113 315.982C966.113 315.982 972.573 342.206 978.68 350.111C984.788 358.015 1019.76 374.475 1033.47 370.529C1047.17 366.583 1052.34 357.985 1052.34 357.985Z" fill="#DCB8FF"/>
<path d="M970.143 313.884C972.093 320.903 976.854 337.221 980.287 342.303C984.701 348.842 1002.16 358.283 1004.37 357.476C1005.8 356.954 1006.74 349.38 1007.71 343.29C1010.65 343.781 1012.75 344.051 1012.75 344.051C1012.75 344.051 1014.67 336.282 1022.22 330.453C1029.78 324.622 1046.3 323.846 1047.16 322.861C1048.01 321.876 1044.74 296.178 1042.33 295.442C1039.91 294.703 1013.86 293.519 1013.86 293.519C1013.86 293.519 1013.44 292.254 1013.25 290.649C1018.38 290.374 1028.7 289.932 1033.51 290.527C1040.06 291.336 1047.34 288.012 1049.15 298.474C1050.96 308.936 1052.61 321.134 1051.3 326.844C1049.99 332.554 1042.39 343.751 1037.87 345.819C1035.43 346.932 1039.31 358.244 1040.16 367.979C1038.2 368.932 1035.98 369.81 1033.47 370.535C1019.76 374.48 984.788 358.022 978.68 350.116C972.573 342.212 966.113 315.988 966.113 315.988C966.113 315.988 967.977 314.685 970.143 313.888V313.884Z" fill="#160C00"/>
<path d="M1119.7 151.283C1122.88 158.775 1122.83 167.292 1110.15 181.165C1097.48 195.039 1091.05 207.487 1080 213.485C1068.96 219.483 1037.95 227.831 1037.95 227.831C1037.95 227.831 1038.88 224.689 1037.36 220.882C1035.84 217.074 1032.76 214.335 1032.76 214.335C1032.76 214.335 1061.45 206.124 1066.81 202.249C1072.17 198.374 1091.15 181.824 1091.93 173.144C1092.72 164.466 1081.44 141.541 1075.99 135.109C1070.55 128.674 1060.81 130.151 1055.2 135.565C1049.6 140.979 1034.15 155.289 1034.15 155.289L1024.99 146.165C1024.99 146.165 1047.33 117.296 1052.1 114.997C1056.87 112.697 1079.74 113.063 1088.15 117.177C1096.57 121.292 1110.18 128.809 1119.7 151.281L1119.7 151.283Z" fill="#DCB8FF"/>
<path d="M1052.59 131.647C1064.49 125.315 1070.77 123.911 1079.63 132.144C1086.29 138.339 1089.97 144.839 1091.61 149.305C1093.66 145.714 1096.66 142.858 1100.27 141.585C1105 139.917 1110.96 141.667 1116.41 144.378C1117.55 146.511 1118.65 148.799 1119.7 151.282C1122.08 156.897 1122.62 163.095 1117.43 171.679L1117.46 171.662C1116.94 172.514 1116.36 173.392 1115.73 174.292C1115.73 174.298 1115.73 174.301 1115.72 174.306C1114.22 176.442 1112.39 178.717 1110.15 181.163C1097.48 195.037 1091.05 207.485 1080 213.483C1068.96 219.481 1037.95 227.829 1037.95 227.829C1037.95 227.829 1038.49 225.979 1038.06 223.4C1046.29 221.1 1070.93 213.852 1080.72 206.971C1092.54 198.653 1107.95 177.079 1107.95 177.079C1103.96 177.849 1100.03 177.516 1096.69 175.485C1094.71 174.285 1093.15 172.803 1091.93 171.147C1091.9 170.783 1091.86 170.4 1091.8 170.009C1091.79 169.934 1091.78 169.862 1091.77 169.787C1091.66 168.974 1091.49 168.106 1091.27 167.194C1091.25 167.094 1091.22 166.991 1091.2 166.89C1091.12 166.537 1091.02 166.179 1090.93 165.813C1090.89 165.68 1090.86 165.545 1090.82 165.41C1090.71 165.005 1090.59 164.593 1090.46 164.176C1090.44 164.096 1090.41 164.017 1090.39 163.937C1090.25 163.489 1090.11 163.033 1089.95 162.573C1089.89 162.38 1089.82 162.185 1089.76 161.991C1089.65 161.689 1089.55 161.386 1089.44 161.079C1089.37 160.868 1089.29 160.656 1089.21 160.443C1089.08 160.078 1088.94 159.709 1088.8 159.338C1085.22 149.848 1079.44 139.177 1075.99 135.107C1070.55 128.672 1060.81 130.149 1055.21 135.563C1049.6 140.977 1034.15 155.287 1034.15 155.287L1030.69 151.842C1035.84 145.638 1044.74 135.82 1052.59 131.643L1052.59 131.647Z" fill="#160C00"/>
<path d="M1117.85 159.953C1117.85 159.953 1098.56 167.199 1091.9 153.881C1085.24 140.562 1097.47 131.412 1102.03 128.272C1105.73 125.725 1117.85 159.953 1117.85 159.953Z" fill="#D3D3D3"/>
<path d="M862.069 38.7979C862.069 38.7979 884.995 42.9372 893.443 43.4751C901.888 44.0129 921.071 45.9406 925.647 52.0502C930.221 58.1599 925.839 93.5576 925.839 93.5576C925.839 93.5576 922.22 91.2305 918.3 90.7495C914.381 90.2685 911.229 90.1939 911.229 90.1939C911.229 90.1939 910.707 64.6725 910.357 64.298C910.007 63.9234 891.719 68.9787 881.094 75.4647C870.469 81.9507 851.662 95.4018 850.444 97.0278C849.227 98.6537 847.548 119.358 849.745 127.028C851.943 134.699 857.591 148.875 857.591 148.875C857.591 148.875 853.371 150.238 851.137 152.954C848.902 155.67 846.44 159.646 846.44 159.646C846.44 159.646 835.051 141.943 832.472 127.525C829.893 113.104 829.393 70.0153 835.733 64.3849C842.073 58.7545 862.069 38.7979 862.069 38.7979Z" fill="#DCB8FF"/>
<path d="M830.856 89.7121C830.858 89.6624 830.86 89.6127 830.862 89.563C831.344 77.5301 832.81 66.9775 835.73 64.3842C836.407 63.7842 837.243 63.0138 838.189 62.1299L865.844 85.5408C858.103 90.9173 851.166 96.0614 850.442 97.0288C850.06 97.5382 849.634 99.915 849.297 103.176C846.267 103.204 843.146 102.888 840.468 101.907C839.421 101.523 838.4 100.994 837.41 100.376C836.822 104.383 836.13 111.467 836.433 121.57C836.762 132.533 844.994 145.901 850.538 153.706C848.484 156.347 846.441 159.647 846.441 159.647C846.441 159.647 835.052 141.944 832.473 127.526C831.241 120.633 830.487 107.196 830.725 94.4266L830.723 94.4248C830.735 93.7556 830.751 93.09 830.769 92.4244C830.773 92.3161 830.775 92.206 830.778 92.0977C830.801 91.2972 830.828 90.5038 830.86 89.7139L830.856 89.7121Z" fill="#160C00"/>
<path d="M874.285 68.6674C881.754 62.6802 911.433 56.0451 915.625 58.5852C918.373 60.2502 918.087 78.2401 917.368 90.6405C913.895 90.2571 911.227 90.1932 911.227 90.1932C911.227 90.1932 910.705 64.6718 910.355 64.2972C910.006 63.9227 891.717 68.978 881.092 75.464C877.583 77.6064 873.181 80.5086 868.816 83.4924C869.416 77.5656 870.889 71.3885 874.285 68.6674Z" fill="#160C00"/>
<path d="M875.024 52.6631C875.477 56.8415 878.115 80.5471 866.811 86.4792C855.508 92.4114 837.099 77.3201 835.674 68.8993C834.248 60.4785 875.024 52.6631 875.024 52.6631Z" fill="#D3D3D3"/>
<path d="M795.304 251.844C801.747 264.878 789.496 278.706 773.568 280.914C757.641 283.122 748.45 268.664 747.648 263.767C746.845 258.871 750.688 244.268 766.45 242.003C782.213 239.74 792.831 246.844 795.302 251.842L795.304 251.844Z" fill="black"/>
<path d="M1026.88 336.082C1045.42 324.845 1069.59 359.728 1047.41 373.617C1025.23 387.507 1005.01 349.331 1026.88 336.082Z" fill="black"/>
<path d="M843.871 29.4057C860.693 22.444 877.996 41.144 875.232 63.4419C872.468 85.7399 858.446 87.0392 843.18 76.7831C827.917 66.5269 824.581 37.3898 843.871 29.4057Z" fill="black"/>
<path d="M843.182 76.7825C836.16 72.0645 831.673 63.3491 830.741 54.5361C833.371 59.089 837.175 61.819 837.175 61.819C834.589 56.9395 836.458 48.4229 836.458 48.4229C836.458 48.4229 834.662 57.6193 847.6 67.989C855.497 74.317 865.558 74.5176 874.284 68.6653C870.07 85.8636 857.148 86.1671 843.182 76.7825Z" fill="#160C00"/>
<path d="M1129.13 126.001C1135.5 131.217 1138.18 147.973 1123.94 156.979C1109.69 165.986 1097.41 159.207 1094.82 151.39C1092.23 143.573 1095.97 130.897 1105.73 125.725C1115.49 120.552 1121.44 119.711 1129.12 126L1129.13 126.001Z" fill="black"/>
<path d="M833.705 213.657C834.248 210.981 834.126 208.65 833.913 207.118C836.27 207.92 837.727 208.426 837.727 208.426C837.727 208.426 838.228 210.709 837.929 213.505C837.631 216.3 836.343 219.877 836.343 219.877C836.343 219.877 834.124 219.219 830.778 218.256C832.132 216.758 833.408 215.12 833.705 213.656V213.657Z" fill="white"/>
<path d="M837.984 268.445C837.984 268.445 838.801 271.094 841.197 273.609C843.595 276.124 846.602 277.246 846.602 277.246C846.602 277.246 845.473 279.152 843.437 281.856C841.307 280.608 838.689 278.909 837.05 277.239C835.664 275.826 834.651 273.891 833.951 272.175C836.417 270.016 837.982 268.445 837.982 268.445H837.984Z" fill="white"/>
<path d="M1023.6 338.535C1022.9 343.285 1022.51 353.112 1028.26 363.728C1033.4 373.239 1043.45 373.058 1050.03 371.696C1049.24 372.371 1048.37 373.015 1047.41 373.617C1026.48 386.727 1007.3 353.451 1023.6 338.535Z" fill="#160C00"/>
<path d="M917.599 243.468L902.339 245.432C900.864 245.622 899.822 246.972 900.012 248.447L901.063 256.609C901.253 258.084 902.602 259.125 904.077 258.936L919.337 256.971C920.812 256.781 921.854 255.431 921.664 253.956L920.613 245.794C920.423 244.319 919.074 243.278 917.599 243.468Z" fill="#F9F8F4"/>
<path d="M911.748 252.277C911.827 252.28 911.907 252.28 911.991 252.271C912.791 252.179 913.365 251.456 913.274 250.658C913.182 249.857 912.459 249.284 911.661 249.374C911.577 249.383 911.497 249.401 911.421 249.424C911.286 248.673 910.59 248.146 909.822 248.233C909.021 248.325 908.448 249.048 908.538 249.847C908.606 250.439 909.021 250.908 909.555 251.073C908.712 251.038 908.032 250.585 907.961 249.957L908.263 252.585C908.192 251.959 908.751 251.364 909.564 251.137C909.08 251.419 908.783 251.969 908.851 252.562C908.943 253.363 909.665 253.936 910.466 253.846C911.251 253.755 911.817 253.058 911.751 252.277H911.748Z" fill="black"/>
<path d="M911.096 225.875L896.381 230.37C894.959 230.805 894.158 232.31 894.593 233.732L896.997 241.602C897.432 243.025 898.937 243.825 900.359 243.391L915.074 238.895C916.496 238.461 917.297 236.955 916.862 235.533L914.458 227.663C914.023 226.241 912.518 225.44 911.096 225.875Z" fill="#F9F8F4"/>
<path d="M904.894 231.999C905.091 231.665 905.4 231.417 905.767 231.294C906.603 231.017 907.507 231.472 907.784 232.308C907.905 232.673 907.889 233.073 907.739 233.428L907.734 233.442L907.58 233.752L907.885 233.907L907.899 233.916C908.231 234.113 908.481 234.422 908.604 234.789C908.881 235.625 908.426 236.53 907.59 236.806C907.223 236.926 906.825 236.91 906.47 236.761L903.298 235.171L904.896 231.997L904.894 231.999Z" fill="#DCB8FF"/>
<path d="M927.148 232.777L911.797 233.822C910.314 233.923 909.193 235.208 909.294 236.691L909.852 244.901C909.953 246.385 911.238 247.506 912.722 247.405L928.072 246.361C929.556 246.26 930.677 244.975 930.576 243.491L930.017 235.281C929.916 233.797 928.632 232.676 927.148 232.777Z" fill="#F9F8F4"/>
<path d="M923.915 239.824L920.499 237.346L917.146 239.909L920.563 242.387L923.915 239.824Z" fill="#DCB8FF"/>
<path d="M907.695 215.245L894.697 223.477C893.44 224.273 893.067 225.936 893.863 227.193L898.265 234.145C899.061 235.401 900.725 235.775 901.981 234.979L914.98 226.747C916.236 225.952 916.609 224.288 915.814 223.032L911.411 216.08C910.615 214.823 908.952 214.45 907.695 215.245Z" fill="#F9F8F4"/>
<path d="M903.992 225.935C903.944 226.265 904.019 226.602 904.2 226.883C904.613 227.522 905.471 227.705 906.11 227.291C906.39 227.11 906.594 226.833 906.687 226.51L907.331 223.505L904.327 222.868C903.997 222.82 903.66 222.894 903.38 223.075C902.741 223.489 902.558 224.346 902.971 224.985C903.152 225.266 903.429 225.47 903.751 225.562L903.763 225.566L903.944 225.605C903.248 225.837 902.561 225.71 902.252 225.234L903.68 227.435C903.371 226.959 903.534 226.279 904.029 225.741L903.992 225.923V225.935Z" fill="black"/>
<path d="M927.779 189.478H919.55C918.063 189.478 916.857 190.683 916.857 192.17V207.556C916.857 209.043 918.063 210.249 919.55 210.249H927.779C929.266 210.249 930.471 209.043 930.471 207.556V192.17C930.471 190.683 929.266 189.478 927.779 189.478Z" fill="#F9F8F4"/>
<path d="M919.549 190.524H927.78C928.687 190.524 929.426 191.261 929.426 192.17V207.558C929.426 208.465 928.689 209.201 927.782 209.201H919.551C918.642 209.201 917.906 208.465 917.906 207.556V192.17C917.906 191.261 918.642 190.524 919.551 190.524H919.549Z" fill="black"/>
<path d="M932.435 185.715L927.711 200.357C927.254 201.773 928.031 203.29 929.446 203.747L937.278 206.274C938.693 206.73 940.211 205.953 940.667 204.538L945.392 189.895C945.848 188.48 945.071 186.962 943.656 186.506L935.824 183.979C934.409 183.522 932.892 184.299 932.435 185.715Z" fill="#F9F8F4"/>
<path d="M928.707 200.679L933.431 186.036C933.71 185.173 934.637 184.698 935.5 184.977L943.333 187.504C944.197 187.783 944.672 188.71 944.393 189.573L939.668 204.216C939.389 205.081 938.462 205.555 937.597 205.276L929.766 202.749C928.901 202.47 928.428 201.544 928.707 200.679Z" fill="black"/>
<path d="M960.548 190.286L955.214 204.717C954.699 206.112 955.412 207.661 956.806 208.177L964.525 211.029C965.92 211.545 967.469 210.832 967.984 209.437L973.318 195.005C973.834 193.61 973.121 192.062 971.726 191.546L964.007 188.693C962.612 188.178 961.064 188.891 960.548 190.286Z" fill="#F9F8F4"/>
<path d="M965.642 199.555C965.682 199.485 965.72 199.414 965.748 199.336C966.037 198.586 965.663 197.741 964.912 197.451C964.161 197.162 963.316 197.536 963.027 198.287C962.997 198.365 962.976 198.444 962.96 198.523C962.232 198.294 961.442 198.667 961.163 199.388C960.874 200.139 961.248 200.984 961.999 201.273C962.555 201.488 963.162 201.337 963.558 200.939C963.135 201.669 962.418 202.061 961.829 201.834L964.298 202.785C963.709 202.558 963.441 201.788 963.618 200.962C963.645 201.521 963.993 202.042 964.55 202.256C965.301 202.546 966.146 202.171 966.435 201.42C966.719 200.684 966.364 199.858 965.64 199.553L965.642 199.555Z" fill="black"/>
<path d="M968.626 197.404L969.842 204.414L973.317 195.008C973.461 194.619 973.5 194.22 973.463 193.833L970.818 194.293C969.359 194.547 968.372 195.947 968.626 197.406V197.404Z" fill="#596C00"/>
<path d="M980.886 191.694L972.778 193.101C971.312 193.355 970.331 194.749 970.585 196.215L973.215 211.374C973.469 212.839 974.863 213.821 976.328 213.567L984.436 212.16C985.902 211.906 986.883 210.512 986.629 209.047L983.999 193.887C983.745 192.422 982.351 191.44 980.886 191.694Z" fill="#F9F8F4"/>
<path d="M975.894 203.13C975.588 202.894 975.379 202.555 975.304 202.176C975.134 201.314 975.698 200.472 976.561 200.302C976.939 200.227 977.333 200.293 977.667 200.485L977.681 200.492L977.969 200.684L978.16 200.4L978.169 200.387C978.405 200.082 978.744 199.872 979.122 199.798C979.985 199.628 980.826 200.192 980.997 201.055C981.071 201.433 981.006 201.827 980.814 202.16L978.842 205.111L975.894 203.13Z" fill="#DCB8FF"/>
<path d="M941.755 191.882L941.085 207.253C941.02 208.739 942.172 209.996 943.657 210.061L951.879 210.419C953.364 210.484 954.621 209.332 954.686 207.846L955.356 192.475C955.421 190.989 954.269 189.732 952.783 189.667L944.562 189.309C943.076 189.244 941.819 190.396 941.755 191.882Z" fill="#F9F8F4"/>
<path d="M948.407 201.024C948.652 201.251 948.97 201.385 949.304 201.395C950.065 201.42 950.704 200.822 950.729 200.06C950.74 199.727 950.63 199.4 950.418 199.141L948.319 196.896L946.08 198.997C945.851 199.242 945.72 199.56 945.709 199.894C945.684 200.655 946.283 201.294 947.044 201.319C947.378 201.33 947.704 201.219 947.964 201.008L947.974 200.999L948.109 200.873C947.903 201.576 947.404 202.068 946.838 202.05L949.46 202.137C948.894 202.119 948.43 201.596 948.269 200.882L948.395 201.017L948.404 201.026L948.407 201.024Z" fill="black"/>
<path d="M922.972 271.681C920.549 274.889 909.966 288.91 903.842 284.284C897.718 279.658 908.933 266.117 911.356 262.909C913.779 259.702 918.342 259.064 921.55 261.487C924.757 263.91 925.395 268.474 922.972 271.683V271.681Z" fill="#160C00"/>
<path d="M922.971 271.681C920.548 274.889 915.984 275.526 912.777 273.103C909.569 270.68 908.932 266.116 911.355 262.907C913.778 259.7 918.341 259.062 921.549 261.485C924.756 263.908 925.394 268.472 922.971 271.681Z" fill="#DCB8FF"/>
<path d="M921.27 270.397C919.557 272.666 916.33 273.115 914.061 271.402C911.793 269.689 911.342 266.462 913.057 264.193C914.771 261.925 917.996 261.476 920.265 263.189C922.533 264.902 922.983 268.129 921.27 270.397Z" fill="#F9F8F4"/>
<path d="M1017.51 260.873C1015.09 264.08 1004.5 278.101 998.38 273.475C992.256 268.85 1003.47 255.308 1005.89 252.099C1008.32 248.891 1012.88 248.254 1016.09 250.677C1019.3 253.1 1019.93 257.663 1017.51 260.873Z" fill="#160C00"/>
<path d="M1017.51 260.873C1015.09 264.08 1010.52 264.717 1007.31 262.294C1004.11 259.871 1003.47 255.308 1005.89 252.099C1008.32 248.891 1012.88 248.254 1016.09 250.677C1019.29 253.1 1019.93 257.663 1017.51 260.873Z" fill="#DCB8FF"/>
<path d="M1015.81 259.587C1014.09 261.856 1010.87 262.305 1008.6 260.592C1006.33 258.879 1005.88 255.652 1007.59 253.384C1009.31 251.115 1012.53 250.664 1014.8 252.379C1017.07 254.092 1017.52 257.319 1015.81 259.587Z" fill="#F9F8F4"/>
<path d="M892.13 258.914C889.707 262.121 882.948 269.14 878.437 264.629C873.929 260.121 878.089 253.349 880.512 250.14C882.935 246.932 887.499 246.295 890.706 248.718C893.914 251.141 894.551 255.704 892.128 258.914H892.13Z" fill="#160C00"/>
<path d="M892.13 258.914C889.707 262.121 885.143 262.758 881.935 260.335C878.728 257.912 878.091 253.349 880.514 250.14C882.937 246.932 887.5 246.295 890.708 248.718C893.915 251.141 894.552 255.704 892.13 258.914Z" fill="#FF5B23"/>
<path d="M890.428 257.628C888.715 259.897 885.488 260.348 883.22 258.635C880.951 256.922 880.502 253.695 882.215 251.426C883.928 249.158 887.155 248.707 889.423 250.422C891.692 252.135 892.143 255.36 890.428 257.628Z" fill="#F9F8F4"/>
<path d="M1013.67 135.306C1011.25 138.513 1004.49 145.532 999.977 141.021C995.468 136.513 999.629 129.741 1002.05 126.532C1004.47 123.322 1009.04 122.687 1012.25 125.11C1015.45 127.533 1016.09 132.096 1013.67 135.304L1013.67 135.306Z" fill="#160C00"/>
<path d="M1013.67 135.304C1011.25 138.512 1006.68 139.149 1003.48 136.726C1000.27 134.303 999.63 129.74 1002.05 126.532C1004.48 123.325 1009.04 122.687 1012.25 125.11C1015.45 127.533 1016.09 132.097 1013.67 135.304Z" fill="#FF5B23"/>
<path d="M1011.97 134.02C1010.26 136.288 1007.03 136.739 1004.76 135.025C1002.49 133.312 1002.04 130.085 1003.76 127.816C1005.47 125.548 1008.7 125.097 1010.96 126.811C1013.23 128.524 1013.68 131.751 1011.97 134.02Z" fill="#F9F8F4"/>
<path d="M1012.45 151.452C1010.02 154.659 999.441 168.68 993.317 164.055C987.193 159.429 998.408 145.887 1000.83 142.68C1003.25 139.472 1007.82 138.835 1011.02 141.258C1014.23 143.681 1014.87 148.244 1012.45 151.452Z" fill="#160C00"/>
<path d="M1012.45 151.452C1010.02 154.659 1005.46 155.297 1002.25 152.874C999.042 150.451 998.405 145.887 1000.83 142.68C1003.25 139.472 1007.81 138.835 1011.02 141.258C1014.23 143.681 1014.87 148.244 1012.44 151.452H1012.45Z" fill="#DCB8FF"/>
<path d="M1010.75 150.167C1009.03 152.436 1005.81 152.887 1003.54 151.172C1001.27 149.459 1000.82 146.232 1002.53 143.964C1004.25 141.695 1007.47 141.244 1009.74 142.959C1012.01 144.672 1012.46 147.899 1010.75 150.167Z" fill="#F9F8F4"/>
<path d="M952.649 259.083C950.226 262.29 933.993 285.57 926.921 278.498C919.85 271.426 938.608 253.518 941.031 250.311C943.454 247.103 948.018 246.466 951.225 248.889C954.433 251.312 955.07 255.875 952.647 259.083H952.649Z" fill="#160C00"/>
<path d="M952.649 259.083C950.226 262.29 945.663 262.927 942.455 260.505C939.248 258.082 938.61 253.518 941.033 250.311C943.456 247.103 948.02 246.466 951.227 248.889C954.435 251.312 955.072 255.875 952.649 259.083Z" fill="#FF5B23"/>
<path d="M950.945 257.799C949.232 260.067 946.005 260.518 943.737 258.803C941.468 257.09 941.019 253.863 942.732 251.595C944.445 249.326 947.672 248.875 949.941 250.588C952.209 252.301 952.66 255.53 950.945 257.799Z" fill="#F9F8F4"/>
<path d="M886.035 184.941C883.612 188.149 867.379 211.428 860.308 204.356C853.236 197.285 871.994 179.376 874.417 176.169C876.84 172.961 881.404 172.324 884.611 174.747C887.819 177.17 888.456 181.734 886.033 184.943L886.035 184.941Z" fill="#160C00"/>
<path d="M886.035 184.941C883.612 188.149 879.049 188.786 875.841 186.363C872.634 183.94 871.997 179.376 874.419 176.169C876.842 172.961 881.406 172.324 884.613 174.747C887.821 177.17 888.458 181.732 886.035 184.941Z" fill="#DCB8FF"/>
<path d="M884.333 183.657C882.62 185.925 879.393 186.376 877.125 184.661C874.856 182.947 874.407 179.721 876.12 177.453C877.833 175.184 881.06 174.734 883.329 176.448C885.597 178.161 886.048 181.388 884.333 183.657Z" fill="#F9F8F4"/>
<path d="M133.587 351.704L123.541 358.564C116.043 352.294 107.312 347.023 98.2858 343.318L99.5674 331.167C111.733 336.161 123.481 343.253 133.587 351.704Z" fill="#252525"/>
<path d="M157.156 379.374C162.689 389.407 164.808 398.747 163.952 406.758L146.081 399.433C146.718 393.487 145.129 386.548 141.024 379.105L157.156 379.374Z" fill="#252525"/>
<path d="M72.0526 337.466C63.5944 337.325 56.7594 339.186 51.8458 342.55L37.0022 330.126C43.6212 325.594 52.8132 323.07 64.2141 323.261L72.0526 337.466Z" fill="#252525"/>
<path d="M160.18 418.177L154.271 427.9C152.3 431.146 149.613 433.959 146.26 436.253L152.169 426.53C155.519 424.234 158.209 421.423 160.18 418.177Z" fill="#97B700"/>
<path d="M163.988 406.742L146.062 399.464C146.742 393.498 145.081 386.562 141.02 379.06L157.118 379.391C151.593 369.325 143.363 359.925 133.602 351.733L123.531 358.586C116.071 352.312 107.306 347.02 98.2793 343.341L99.59 331.2C87.7955 326.383 75.6457 323.476 64.2625 323.249L72.0794 337.446C63.5492 337.346 56.7696 339.186 51.8068 342.567L37.0165 330.094C33.4901 332.513 30.768 335.566 28.78 339.007C28.8787 338.837 28.9318 338.639 29.0333 338.471L28.2897 339.703C27.5065 341 26.9579 342.354 26.4968 343.846C25.8684 345.77 25.4311 347.809 25.2329 349.903L43.12 357.246C42.4796 363.147 44.035 370.109 48.139 377.547L31.9984 377.28C37.5611 387.284 45.7564 396.748 55.5784 404.981L65.6486 398.128C73.1467 404.339 81.8463 409.591 90.8978 413.37L89.5899 425.513C101.384 430.33 113.574 433.172 124.951 433.395L117.137 419.201C125.562 419.326 132.447 417.46 137.305 414.105L152.135 426.513C155.55 424.233 158.185 421.485 160.183 418.175C162.221 414.799 163.484 410.955 163.988 406.742ZM114.161 413.864C91.8725 413.515 65.0404 397.227 54.1822 377.655C43.4262 358.054 52.7007 342.395 74.9518 342.806C97.3064 343.194 124.115 359.378 134.934 379.016C145.79 398.592 136.449 414.207 114.161 413.864Z" fill="#D2FF00"/>
<path d="M23.0808 348.208L28.9895 338.485C26.9446 341.853 25.6632 345.69 25.216 349.898L19.3072 359.621C19.7591 355.412 21.0341 351.579 23.0808 348.208Z" fill="#97B700"/>
<path d="M152.171 426.53L146.262 436.253C139.643 440.785 130.461 443.311 119.06 443.12L124.969 433.397C136.37 433.588 145.552 431.062 152.171 426.53Z" fill="#020202"/>
<path d="M152.168 426.53C145.549 431.063 136.367 433.589 124.966 433.398L117.13 419.19C125.588 419.331 132.421 417.473 137.33 414.11L152.168 426.53Z" fill="#252525"/>
<path d="M114.164 413.86C91.8752 413.512 65.0432 397.224 54.1849 377.651C43.429 358.05 52.7034 342.391 74.9545 342.802C97.3091 343.19 124.118 359.375 134.937 379.013C145.793 398.589 136.452 414.204 114.164 413.86Z" fill="#252525"/>
<path d="M32.014 377.281L26.1036 387.007C20.57 376.975 18.451 367.634 19.3073 359.623L25.216 349.9C24.3597 357.911 26.4805 367.249 32.014 377.281Z" fill="#020202"/>
<path d="M43.1005 357.228C42.4658 363.171 44.0544 370.11 48.1595 377.552L32.016 377.284C26.4824 367.252 24.3634 357.911 25.2197 349.9L43.1034 357.23L43.1005 357.228Z" fill="#252525"/>
<path d="M124.968 433.397L119.059 443.12C107.658 442.929 95.4838 440.05 83.6956 435.209L89.6044 425.486C101.393 430.327 113.567 433.206 124.968 433.397Z" fill="#97B700"/>
<path d="M55.5793 404.944L49.6688 414.67C39.8747 406.481 31.636 397.037 26.1024 387.005L32.0129 377.279C37.5465 387.311 45.7898 396.754 55.5793 404.944Z" fill="#97B700"/>
<path d="M89.6045 425.485L83.6958 435.208C71.5419 430.213 59.7821 423.121 49.6757 414.67L55.5861 404.944C65.6926 413.395 77.4489 420.492 89.6045 425.485Z" fill="#020202"/>
<path d="M90.8879 413.331L89.6 425.486C77.4415 420.492 65.6863 413.399 55.5799 404.948L65.6359 398.086C73.1338 404.356 81.8619 409.625 90.8879 413.331Z" fill="#252525"/>
<path d="M540.681 317.704L550.728 324.564C558.226 318.294 566.957 313.023 575.983 309.318L574.701 297.167C562.535 302.161 550.787 309.253 540.681 317.704Z" fill="#252525"/>
<path d="M517.113 345.374C511.579 355.407 509.46 364.747 510.317 372.758L528.187 365.433C527.551 359.487 529.139 352.548 533.245 345.105L517.113 345.374Z" fill="#252525"/>
<path d="M602.216 303.466C610.674 303.325 617.509 305.186 622.423 308.55L637.266 296.126C630.647 291.594 621.455 289.07 610.054 289.261L602.216 303.466Z" fill="#252525"/>
<path d="M514.089 384.177L519.998 393.9C521.968 397.146 524.655 399.959 528.009 402.253L522.1 392.53C518.749 390.234 516.06 387.423 514.089 384.177Z" fill="#97B700"/>
<path d="M510.28 372.742L528.207 365.464C527.527 359.498 529.187 352.562 533.249 345.06L517.151 345.391C522.676 335.325 530.906 325.925 540.667 317.733L550.737 324.586C558.197 318.312 566.963 313.02 575.989 309.341L574.679 297.2C586.473 292.383 598.623 289.476 610.006 289.249L602.189 303.446C610.719 303.346 617.499 305.186 622.462 308.567L637.252 296.094C640.778 298.513 643.501 301.566 645.489 305.007C645.39 304.837 645.337 304.639 645.235 304.471L645.979 305.703C646.762 307 647.311 308.354 647.772 309.846C648.4 311.77 648.837 313.809 649.036 315.903L631.149 323.246C631.789 329.147 630.234 336.109 626.13 343.547L642.27 343.28C636.707 353.284 628.512 362.748 618.69 370.981L608.62 364.128C601.122 370.339 592.422 375.591 583.371 379.37L584.679 391.513C572.884 396.33 560.695 399.172 549.317 399.395L557.131 385.201C548.706 385.326 541.821 383.46 536.964 380.105L522.134 392.513C518.719 390.233 516.084 387.485 514.085 384.175C512.047 380.799 510.785 376.955 510.28 372.742ZM560.107 379.864C582.396 379.515 609.228 363.227 620.086 343.655C630.842 324.054 621.568 308.395 599.317 308.806C576.962 309.194 550.153 325.378 539.335 345.016C528.478 364.592 537.819 380.207 560.107 379.864Z" fill="#D2FF00"/>
<path d="M651.188 314.208L645.279 304.485C647.324 307.853 648.605 311.69 649.053 315.898L654.961 325.621C654.509 321.412 653.234 317.579 651.188 314.208Z" fill="#97B700"/>
<path d="M522.098 392.53L528.007 402.253C534.626 406.785 543.807 409.311 555.208 409.12L549.3 399.397C537.899 399.588 528.717 397.062 522.098 392.53Z" fill="#020202"/>
<path d="M522.101 392.53C528.72 397.063 537.901 399.589 549.302 399.398L557.139 385.19C548.681 385.331 541.848 383.473 536.939 380.11L522.101 392.53Z" fill="#252525"/>
<path d="M560.104 379.86C582.393 379.512 609.225 363.224 620.084 343.651C630.84 324.05 621.565 308.391 599.314 308.802C576.959 309.19 550.151 325.375 539.332 345.013C528.475 364.589 537.816 380.204 560.104 379.86Z" fill="#252525"/>
<path d="M642.255 343.281L648.165 353.007C653.699 342.975 655.818 333.634 654.961 325.623L649.053 315.9C649.909 323.911 647.788 333.249 642.255 343.281Z" fill="#020202"/>
<path d="M631.168 323.228C631.803 329.171 630.214 336.11 626.109 343.552L642.253 343.284C647.786 333.252 649.905 323.911 649.049 315.9L631.165 323.23L631.168 323.228Z" fill="#252525"/>
<path d="M549.301 399.397L555.209 409.12C566.61 408.929 578.785 406.05 590.573 401.209L584.664 391.486C572.876 396.327 560.702 399.206 549.301 399.397Z" fill="#97B700"/>
<path d="M618.689 370.944L624.6 380.67C634.394 372.481 642.633 363.037 648.166 353.005L642.256 343.279C636.722 353.311 628.479 362.754 618.689 370.944Z" fill="#97B700"/>
<path d="M584.664 391.485L590.573 401.208C602.727 396.213 614.486 389.121 624.593 380.67L618.682 370.944C608.576 379.395 596.82 386.492 584.664 391.485Z" fill="#020202"/>
<path d="M583.381 379.331L584.669 391.486C596.827 386.492 608.582 379.399 618.689 370.948L608.633 364.086C601.135 370.356 592.407 375.625 583.381 379.331Z" fill="#252525"/>
<path d="M1346.68 106.704L1356.73 113.564C1364.23 107.294 1372.96 102.023 1381.98 98.3175L1380.7 86.1667C1368.54 91.1612 1356.79 98.2533 1346.68 106.704Z" fill="#252525"/>
<path d="M1323.11 134.374C1317.58 144.407 1315.46 153.747 1316.32 161.758L1334.19 154.433C1333.55 148.487 1335.14 141.548 1339.24 134.105L1323.11 134.374Z" fill="#252525"/>
<path d="M1408.22 92.4664C1416.67 92.3246 1423.51 94.186 1428.42 97.5497L1443.27 85.126C1436.65 80.5937 1427.46 78.0699 1416.05 78.2607L1408.22 92.4664Z" fill="#252525"/>
<path d="M1320.09 173.177L1326 182.9C1327.97 186.146 1330.66 188.959 1334.01 191.253L1328.1 181.53C1324.75 179.234 1322.06 176.423 1320.09 173.177Z" fill="#97B700"/>
<path d="M1316.28 161.742L1334.21 154.464C1333.53 148.498 1335.19 141.562 1339.25 134.06L1323.15 134.391C1328.68 124.325 1336.91 114.925 1346.67 106.733L1356.74 113.586C1364.2 107.312 1372.96 102.02 1381.99 98.3413L1380.68 86.2002C1392.47 81.3832 1404.62 78.4759 1416.01 78.2491L1408.19 92.4456C1416.72 92.3459 1423.5 94.1862 1428.46 97.5669L1443.25 85.0938C1446.78 87.513 1449.5 90.5656 1451.49 94.0069C1451.39 93.837 1451.34 93.6395 1451.24 93.4713L1451.98 94.7031C1452.76 96.0005 1453.31 97.3539 1453.77 98.8458C1454.4 100.77 1454.84 102.809 1455.04 104.903L1437.15 112.246C1437.79 118.147 1436.23 125.109 1432.13 132.547L1448.27 132.28C1442.71 142.284 1434.51 151.748 1424.69 159.981L1414.62 153.128C1407.12 159.339 1398.42 164.591 1389.37 168.37L1390.68 180.513C1378.88 185.33 1366.69 188.172 1355.32 188.395L1363.13 174.201C1354.71 174.326 1347.82 172.46 1342.96 169.105L1328.13 181.513C1324.72 179.233 1322.08 176.485 1320.09 173.175C1318.05 169.799 1316.78 165.955 1316.28 161.742ZM1366.11 168.864C1388.4 168.515 1415.23 152.227 1426.09 132.655C1436.84 113.054 1427.57 97.3946 1405.32 97.8056C1382.96 98.1936 1356.15 114.378 1345.33 134.016C1334.48 153.592 1343.82 169.207 1366.11 168.864Z" fill="#D2FF00"/>
<path d="M1457.19 103.208L1451.28 93.485C1453.32 96.8531 1454.61 100.69 1455.05 104.898L1460.96 114.621C1460.51 110.412 1459.23 106.579 1457.19 103.208Z" fill="#97B700"/>
<path d="M1328.1 181.53L1334.01 191.253C1340.63 195.785 1349.81 198.311 1361.21 198.12L1355.3 188.397C1343.9 188.588 1334.72 186.062 1328.1 181.53Z" fill="#020202"/>
<path d="M1328.1 181.53C1334.72 186.063 1343.9 188.589 1355.3 188.398L1363.14 174.19C1354.68 174.331 1347.85 172.473 1342.94 169.11L1328.1 181.53Z" fill="#252525"/>
<path d="M1366.1 168.86C1388.39 168.512 1415.23 152.224 1426.08 132.651C1436.84 113.05 1427.57 97.3912 1405.31 97.8022C1382.96 98.1902 1356.15 114.375 1345.33 134.013C1334.48 153.589 1343.82 169.204 1366.1 168.86Z" fill="#252525"/>
<path d="M1448.25 132.281L1454.16 142.007C1459.7 131.975 1461.82 122.634 1460.96 114.623L1455.05 104.9C1455.91 112.911 1453.79 122.249 1448.25 132.281Z" fill="#020202"/>
<path d="M1437.17 112.228C1437.8 118.171 1436.21 125.11 1432.11 132.552L1448.25 132.284C1453.79 122.252 1455.91 112.911 1455.05 104.9L1437.17 112.23L1437.17 112.228Z" fill="#252525"/>
<path d="M1355.3 188.397L1361.21 198.12C1372.61 197.929 1384.78 195.05 1396.57 190.209L1390.66 180.486C1378.88 185.327 1366.7 188.206 1355.3 188.397Z" fill="#97B700"/>
<path d="M1424.69 159.944L1430.6 169.67C1440.39 161.481 1448.63 152.037 1454.17 142.005L1448.26 132.279C1442.72 142.311 1434.48 151.754 1424.69 159.944Z" fill="#97B700"/>
<path d="M1390.66 180.485L1396.57 190.208C1408.73 185.213 1420.49 178.121 1430.59 169.67L1424.68 159.944C1414.58 168.395 1402.82 175.492 1390.66 180.485Z" fill="#020202"/>
<path d="M1389.38 168.331L1390.67 180.486C1402.83 175.492 1414.58 168.399 1424.69 159.948L1414.63 153.086C1407.13 159.356 1398.41 164.625 1389.38 168.331Z" fill="#252525"/>
<path d="M330.139 287.504L332.009 295.946C338.945 296.345 346.034 297.86 352.515 300.33L357.761 293.409C349.026 290.08 339.488 288.04 330.139 287.504Z" fill="#252525"/>
<path d="M304.464 290.379C296.715 292.887 291.073 296.697 287.62 301.266L300.446 306.162C303.008 302.771 307.207 299.948 312.955 298.087L304.464 290.379Z" fill="#252525"/>
<path d="M368.957 310.058C373.41 314.099 376.047 318.389 376.957 322.523L390.694 323.304C389.468 317.736 385.932 311.956 379.93 306.509L368.957 310.058Z" fill="#252525"/>
<path d="M284.02 309.019L282.353 316.932C281.796 319.573 281.819 322.338 282.442 325.159L284.109 317.245C283.489 314.425 283.463 311.66 284.02 309.019Z" fill="#97B700"/>
<path d="M287.609 301.239L300.441 306.188C302.99 302.765 307.225 299.978 312.979 298.066L304.475 290.406C312.235 287.877 321.074 287.009 330.117 287.511L332.003 295.962C338.921 296.339 346.038 297.861 352.506 300.345L357.733 293.415C366.189 296.656 373.9 301.059 379.91 306.479L368.953 310.034C373.423 314.132 376.041 318.384 376.969 322.55L390.702 323.28C391.352 326.25 391.278 329.156 390.635 331.907C390.666 331.771 390.735 331.642 390.764 331.506L390.55 332.506C390.325 333.559 389.951 334.528 389.464 335.525C388.854 336.828 388.089 338.098 387.173 339.279L374.33 334.384C371.791 337.754 367.599 340.605 361.853 342.464L370.348 350.177C362.599 352.656 353.748 353.574 344.652 353.063L342.767 344.613C335.859 344.184 328.796 342.674 322.266 340.23L317.037 347.16C308.581 343.919 300.881 339.462 294.876 334.043L305.831 330.487C301.403 326.454 298.743 322.138 297.857 318.036L284.135 317.252C283.474 314.409 283.445 311.704 284.02 309.016C284.606 306.275 285.821 303.668 287.609 301.239ZM309.969 329.169C321.69 339.831 343.52 344.442 358.669 339.58C373.778 334.653 376.589 322.026 364.857 311.415C353.082 300.742 331.315 296.088 316.155 301.004C301.005 305.868 298.25 318.505 309.969 329.169Z" fill="#D2FF00"/>
<path d="M389.112 339.448L390.78 331.534C390.201 334.274 388.999 336.886 387.184 339.285L385.516 347.198C387.33 344.797 388.533 342.19 389.112 339.448Z" fill="#97B700"/>
<path d="M284.108 317.244L282.441 325.157C283.666 330.726 287.196 336.502 293.198 341.949L294.865 334.035C288.864 328.588 285.334 322.813 284.108 317.244Z" fill="#020202"/>
<path d="M284.11 317.246C285.335 322.814 288.865 328.59 294.867 334.037L305.84 330.485C301.387 326.444 298.75 322.157 297.842 318.026L284.11 317.246Z" fill="#252525"/>
<path d="M309.969 329.166C321.69 339.828 343.52 344.439 358.669 339.577C373.778 334.651 376.589 322.023 364.857 311.412C353.082 300.739 331.315 296.086 316.155 301.001C301.005 305.865 298.25 318.502 309.969 329.166Z" fill="#252525"/>
<path d="M370.34 350.17L368.672 358.086C376.42 355.578 382.062 351.768 385.515 347.2L387.183 339.286C383.73 343.855 378.088 347.663 370.34 350.17Z" fill="#020202"/>
<path d="M374.349 334.384C371.787 337.773 367.588 340.597 361.84 342.457L370.337 350.171C378.085 347.663 383.727 343.853 387.181 339.285L374.346 334.384L374.349 334.384Z" fill="#252525"/>
<path d="M294.866 334.035L293.199 341.949C299.201 347.396 306.911 351.826 315.375 355.052L317.043 347.138C308.579 343.912 300.868 339.482 294.866 334.035Z" fill="#97B700"/>
<path d="M344.67 353.043L343.002 360.959C352.061 361.479 360.925 360.593 368.674 358.085L370.342 350.169C362.593 352.677 353.728 353.561 344.67 353.043Z" fill="#97B700"/>
<path d="M317.043 347.137L315.376 355.051C324.105 358.374 333.649 360.42 342.998 360.956L344.666 353.04C335.317 352.504 325.772 350.463 317.043 347.137Z" fill="#020202"/>
<path d="M322.29 340.214L317.045 347.14C325.776 350.467 335.318 352.509 344.667 353.045L342.793 344.597C335.858 344.199 328.771 342.684 322.29 340.214Z" fill="#252525"/>
<path d="M1194.23 258.608L1197.47 268.128C1205.53 267.71 1213.92 268.564 1221.72 270.598L1226.91 261.934C1216.39 259.192 1205.11 258.043 1194.23 258.608Z" fill="#252525"/>
<path d="M1164.92 265.184C1156.29 269.064 1150.25 274.182 1146.83 279.9L1162.28 283.935C1164.81 279.691 1169.31 275.896 1175.71 273.017L1164.92 265.184Z" fill="#252525"/>
<path d="M1241.96 279.76C1247.62 283.867 1251.21 288.491 1252.78 293.153L1268.76 292.317C1266.64 286.036 1261.82 279.804 1254.19 274.268L1241.96 279.76Z" fill="#252525"/>
<path d="M1143.66 289.317L1142.73 298.675C1142.42 301.797 1142.8 304.99 1143.88 308.171L1144.8 298.813C1143.73 295.633 1143.35 292.44 1143.66 289.317Z" fill="#97B700"/>
<path d="M1146.82 279.871L1162.28 283.965C1164.79 279.686 1169.33 275.928 1175.74 272.989L1164.94 265.213C1173.59 261.307 1183.69 259.184 1194.21 258.619L1197.46 268.148C1205.51 267.708 1213.92 268.565 1221.71 270.617L1226.88 261.945C1237.06 264.62 1246.53 268.733 1254.16 274.236L1241.95 279.733C1247.64 283.903 1251.2 288.486 1252.8 293.183L1268.77 292.288C1269.89 295.638 1270.18 299.006 1269.78 302.267C1269.8 302.105 1269.86 301.949 1269.88 301.787L1269.76 302.97C1269.63 304.216 1269.32 305.383 1268.89 306.597C1268.35 308.18 1267.62 309.745 1266.71 311.227L1251.25 307.195C1248.74 311.411 1244.26 315.238 1237.85 318.114L1248.65 325.953C1240.01 329.799 1229.89 331.982 1219.31 332.543L1216.06 323.015C1208.03 323.395 1199.67 322.544 1191.81 320.546L1186.65 329.218C1176.46 326.543 1167 322.367 1159.37 316.865L1171.58 311.368C1165.96 307.267 1162.33 302.615 1160.79 297.986L1144.83 298.819C1143.71 295.616 1143.33 292.493 1143.66 289.313C1143.99 286.071 1145.06 282.904 1146.82 279.871ZM1176.2 309.32C1191.1 320.158 1216.91 322.723 1233.81 315.184C1250.65 307.576 1252.3 292.626 1237.39 281.847C1222.43 271.002 1196.68 268.381 1179.78 275.982C1162.89 283.524 1161.31 298.478 1176.2 309.32Z" fill="#D2FF00"/>
<path d="M1268.98 311.176L1269.9 301.818C1269.58 305.059 1268.52 308.23 1266.73 311.232L1265.8 320.59C1267.59 317.585 1268.65 314.42 1268.98 311.176Z" fill="#97B700"/>
<path d="M1144.8 298.812L1143.87 308.17C1146 314.451 1150.81 320.679 1158.43 326.215L1159.36 316.857C1151.73 311.322 1146.92 305.093 1144.8 298.812Z" fill="#020202"/>
<path d="M1144.8 298.814C1146.92 305.095 1151.73 311.324 1159.36 316.859L1171.59 311.364C1165.94 307.258 1162.35 302.636 1160.77 297.977L1144.8 298.814Z" fill="#252525"/>
<path d="M1176.2 309.317C1191.1 320.155 1216.91 322.72 1233.81 315.181C1250.65 307.574 1252.29 292.623 1237.39 281.845C1222.43 271 1196.68 268.378 1179.78 275.98C1162.89 283.521 1161.3 298.476 1176.2 309.317Z" fill="#252525"/>
<path d="M1248.64 325.946L1247.71 335.306C1256.35 331.427 1262.39 326.308 1265.8 320.59L1266.73 311.233C1263.31 316.95 1257.27 322.066 1248.64 325.946Z" fill="#020202"/>
<path d="M1251.27 307.193C1248.74 311.434 1244.24 315.229 1237.84 318.107L1248.63 325.947C1257.27 322.067 1263.31 316.949 1266.72 311.231L1251.27 307.192L1251.27 307.193Z" fill="#252525"/>
<path d="M1159.36 316.857L1158.44 326.215C1166.06 331.751 1175.54 335.894 1185.73 338.55L1186.65 329.193C1176.46 326.536 1166.99 322.393 1159.36 316.857Z" fill="#97B700"/>
<path d="M1219.33 332.519L1218.41 341.879C1228.94 341.334 1239.08 339.186 1247.71 335.306L1248.64 325.945C1240 329.825 1229.87 331.97 1219.33 332.519Z" fill="#97B700"/>
<path d="M1186.65 329.192L1185.73 338.55C1196.24 341.286 1207.53 342.441 1218.4 341.876L1219.33 332.516C1208.45 333.08 1197.16 331.931 1186.65 329.192Z" fill="#020202"/>
<path d="M1191.84 320.525L1186.65 329.195C1197.17 331.933 1208.46 333.085 1219.33 332.521L1216.09 322.994C1208.03 323.413 1199.64 322.559 1191.84 320.525Z" fill="#252525"/>
<path d="M80 181.586V76.5859H177.5V111.086C177.5 128.336 164 142.136 141.5 144.086L99.5 147.836V181.586H80ZM99.5 129.836L140.75 126.086C149 125.336 158 121.586 158 110.336V94.5859H99.5V129.836ZM245.75 184.586C208.25 184.586 188 157.586 188 129.086C188 100.586 208.25 73.5859 245.75 73.5859C283.25 73.5859 303.5 100.586 303.5 129.086C303.5 157.586 283.25 184.586 245.75 184.586ZM245.75 166.586C268.25 166.586 284 150.086 284 129.086C284 108.086 268.25 91.5859 245.75 91.5859C223.25 91.5859 207.5 108.086 207.5 129.086C207.5 150.086 223.25 166.586 245.75 166.586ZM317.012 181.736V76.7359H336.512V125.336L388.262 76.5859H414.512L368.762 120.086L413.012 181.586H390.512L355.262 132.836L336.512 150.836V181.736H317.012ZM424.971 181.586V76.5859H514.971V94.5859H444.471V111.836H497.721V129.836H444.471V163.586H514.971V181.586H424.971ZM530 181.586V76.5859H627.5V111.086C627.5 125.036 618.65 136.736 603.35 141.686L627.5 181.586H605L582.65 144.836L549.5 147.836V181.586H530ZM549.5 129.836L590.75 126.086C599 125.336 608 121.586 608 110.336V94.5859H549.5V129.836Z" fill="url(#paint2_linear_2444_1777)"/>
<path d="M70 181.586V76.5859H167.5V111.086C167.5 128.336 154 142.136 131.5 144.086L89.5 147.836V181.586H70ZM89.5 129.836L130.75 126.086C139 125.336 148 121.586 148 110.336V94.5859H89.5V129.836ZM235.75 184.586C198.25 184.586 178 157.586 178 129.086C178 100.586 198.25 73.5859 235.75 73.5859C273.25 73.5859 293.5 100.586 293.5 129.086C293.5 157.586 273.25 184.586 235.75 184.586ZM235.75 166.586C258.25 166.586 274 150.086 274 129.086C274 108.086 258.25 91.5859 235.75 91.5859C213.25 91.5859 197.5 108.086 197.5 129.086C197.5 150.086 213.25 166.586 235.75 166.586ZM307.012 181.736V76.7359H326.512V125.336L378.262 76.5859H404.512L358.762 120.086L403.012 181.586H380.512L345.262 132.836L326.512 150.836V181.736H307.012ZM414.971 181.586V76.5859H504.971V94.5859H434.471V111.836H487.721V129.836H434.471V163.586H504.971V181.586H414.971ZM520 181.586V76.5859H617.5V111.086C617.5 125.036 608.65 136.736 593.35 141.686L617.5 181.586H595L572.65 144.836L539.5 147.836V181.586H520ZM539.5 129.836L580.75 126.086C589 125.336 598 121.586 598 110.336V94.5859H539.5V129.836Z" fill="#D2FF00"/>
<path d="M93.7689 230.325H93.6436C93.2815 231.689 92.3902 232.831 90.9698 233.75C89.5772 234.642 87.7668 235.087 85.5387 235.087C83.7561 235.087 82.1129 234.767 80.6089 234.126C79.1327 233.458 77.8655 232.497 76.8071 231.244C75.7487 229.963 74.9132 228.389 74.3004 226.523C73.7156 224.629 73.4231 222.456 73.4231 220.005C73.4231 217.582 73.7156 215.438 74.3004 213.572C74.8853 211.678 75.7209 210.104 76.8071 208.851C77.8933 207.57 79.2024 206.595 80.7342 205.926C82.2661 205.258 83.965 204.924 85.8311 204.924C88.4492 204.924 90.6356 205.509 92.3902 206.678C94.1449 207.848 95.4957 209.394 96.4427 211.316L93.56 213.07C92.8916 211.511 91.8889 210.285 90.552 209.394C89.243 208.503 87.6693 208.057 85.8311 208.057C84.5499 208.057 83.3801 208.294 82.3218 208.767C81.2634 209.213 80.3443 209.853 79.5644 210.689C78.8124 211.525 78.2276 212.527 77.8098 213.697C77.392 214.867 77.1831 216.176 77.1831 217.624V222.345C77.1831 223.793 77.392 225.116 77.8098 226.314C78.2276 227.484 78.8124 228.486 79.5644 229.322C80.3443 230.157 81.2913 230.812 82.4053 231.285C83.5194 231.731 84.7727 231.954 86.1653 231.954C87.168 231.954 88.115 231.829 89.0062 231.578C89.9253 231.299 90.7191 230.896 91.3876 230.366C92.0839 229.837 92.627 229.183 93.0169 228.403C93.4068 227.595 93.6018 226.648 93.6018 225.562V222.679H87.168V219.588H97.0276V234.586H93.7689V230.325ZM119.266 234.586C118.013 234.586 117.108 234.252 116.551 233.583C116.022 232.915 115.687 232.079 115.548 231.077H115.339C114.866 232.413 114.086 233.416 113 234.085C111.914 234.753 110.618 235.087 109.114 235.087C106.831 235.087 105.048 234.502 103.767 233.333C102.514 232.163 101.887 230.575 101.887 228.57C101.887 226.537 102.625 224.977 104.101 223.891C105.605 222.805 107.931 222.261 111.078 222.261H115.339V220.131C115.339 218.599 114.922 217.429 114.086 216.621C113.25 215.814 111.969 215.41 110.242 215.41C108.933 215.41 107.833 215.702 106.942 216.287C106.079 216.872 105.354 217.652 104.77 218.627L102.764 216.747C103.349 215.577 104.282 214.588 105.563 213.781C106.844 212.945 108.46 212.527 110.41 212.527C113.028 212.527 115.061 213.168 116.509 214.449C117.957 215.73 118.682 217.513 118.682 219.797V231.661H121.146V234.586H119.266ZM109.658 232.246C110.493 232.246 111.259 232.149 111.955 231.954C112.652 231.759 113.25 231.48 113.752 231.118C114.253 230.756 114.643 230.339 114.922 229.865C115.2 229.392 115.339 228.876 115.339 228.319V224.768H110.911C108.989 224.768 107.583 225.047 106.691 225.604C105.828 226.161 105.396 226.968 105.396 228.027V228.904C105.396 229.963 105.772 230.784 106.524 231.369C107.304 231.954 108.348 232.246 109.658 232.246ZM125.917 234.586V213.029H129.259V216.538H129.426C129.677 215.981 129.955 215.466 130.261 214.992C130.596 214.491 130.986 214.059 131.431 213.697C131.905 213.335 132.448 213.056 133.061 212.861C133.673 212.639 134.397 212.527 135.233 212.527C136.653 212.527 137.962 212.875 139.16 213.572C140.358 214.24 141.249 215.354 141.834 216.914H141.917C142.307 215.744 143.032 214.728 144.09 213.864C145.176 212.973 146.638 212.527 148.477 212.527C150.677 212.527 152.39 213.251 153.615 214.7C154.869 216.12 155.495 218.139 155.495 220.757V234.586H152.153V221.342C152.153 219.421 151.777 217.972 151.025 216.997C150.273 216.023 149.075 215.535 147.432 215.535C146.764 215.535 146.123 215.619 145.51 215.786C144.925 215.953 144.396 216.204 143.923 216.538C143.449 216.872 143.073 217.304 142.795 217.833C142.516 218.334 142.377 218.933 142.377 219.629V234.586H139.035V221.342C139.035 219.421 138.659 217.972 137.907 216.997C137.155 216.023 135.985 215.535 134.397 215.535C133.729 215.535 133.088 215.619 132.476 215.786C131.863 215.953 131.32 216.204 130.846 216.538C130.373 216.872 129.983 217.304 129.677 217.833C129.398 218.334 129.259 218.933 129.259 219.629V234.586H125.917ZM170.495 235.087C169.019 235.087 167.682 234.823 166.485 234.293C165.315 233.764 164.298 233.012 163.435 232.037C162.599 231.035 161.945 229.851 161.471 228.486C161.026 227.094 160.803 225.534 160.803 223.807C160.803 222.108 161.026 220.563 161.471 219.17C161.945 217.777 162.599 216.594 163.435 215.619C164.298 214.616 165.315 213.85 166.485 213.321C167.682 212.792 169.019 212.527 170.495 212.527C171.944 212.527 173.239 212.792 174.381 213.321C175.523 213.85 176.497 214.588 177.305 215.535C178.113 216.454 178.726 217.555 179.143 218.836C179.589 220.117 179.812 221.523 179.812 223.055V224.643H164.312V225.645C164.312 226.565 164.452 227.428 164.73 228.236C165.036 229.016 165.454 229.698 165.983 230.283C166.54 230.868 167.209 231.327 167.989 231.661C168.796 231.996 169.702 232.163 170.704 232.163C172.069 232.163 173.253 231.843 174.255 231.202C175.286 230.561 176.08 229.642 176.637 228.445L179.018 230.157C178.322 231.634 177.236 232.831 175.759 233.75C174.283 234.642 172.529 235.087 170.495 235.087ZM170.495 215.326C169.576 215.326 168.741 215.493 167.989 215.828C167.237 216.134 166.582 216.58 166.025 217.165C165.496 217.749 165.078 218.446 164.772 219.253C164.465 220.033 164.312 220.897 164.312 221.844V222.136H176.219V221.677C176.219 219.755 175.69 218.223 174.631 217.081C173.601 215.911 172.222 215.326 170.495 215.326ZM192.937 213.029H196.195L198.493 222.345L200.791 231.787H200.874L203.506 222.345L206.222 213.029H209.188L211.987 222.345L214.661 231.787H214.745L216.959 222.345L219.298 213.029H222.432L216.708 234.586H212.572L209.564 224.225L207.684 217.666H207.601L205.762 224.225L202.754 234.586H198.702L192.937 213.029ZM228.931 207.973C228.207 207.973 227.678 207.806 227.344 207.472C227.038 207.11 226.884 206.651 226.884 206.093V205.55C226.884 204.993 227.038 204.548 227.344 204.213C227.678 203.851 228.207 203.67 228.931 203.67C229.656 203.67 230.171 203.851 230.477 204.213C230.811 204.548 230.979 204.993 230.979 205.55V206.093C230.979 206.651 230.811 207.11 230.477 207.472C230.171 207.806 229.656 207.973 228.931 207.973ZM227.26 213.029H230.603V234.586H227.26V213.029ZM241.256 234.586C240.086 234.586 239.195 234.266 238.582 233.625C237.997 232.957 237.705 232.121 237.705 231.118V203.67H241.047V231.661H244.222V234.586H241.256ZM252.435 234.586C251.265 234.586 250.374 234.266 249.761 233.625C249.176 232.957 248.884 232.121 248.884 231.118V203.67H252.226V231.661H255.401V234.586H252.435ZM270.14 203.67H273.482V216.538H273.649C274.206 215.173 275.014 214.171 276.072 213.53C277.158 212.861 278.453 212.527 279.957 212.527C281.294 212.527 282.506 212.792 283.592 213.321C284.678 213.85 285.597 214.602 286.349 215.577C287.129 216.552 287.714 217.736 288.104 219.128C288.522 220.521 288.731 222.08 288.731 223.807C288.731 225.534 288.522 227.094 288.104 228.486C287.714 229.879 287.129 231.063 286.349 232.037C285.597 233.012 284.678 233.764 283.592 234.293C282.506 234.823 281.294 235.087 279.957 235.087C277.033 235.087 274.93 233.75 273.649 231.077H273.482V234.586H270.14V203.67ZM279.038 232.079C280.932 232.079 282.422 231.494 283.509 230.325C284.595 229.127 285.138 227.567 285.138 225.645V221.969C285.138 220.047 284.595 218.501 283.509 217.332C282.422 216.134 280.932 215.535 279.038 215.535C278.286 215.535 277.562 215.647 276.866 215.869C276.197 216.064 275.613 216.343 275.111 216.705C274.61 217.067 274.206 217.513 273.9 218.042C273.621 218.543 273.482 219.086 273.482 219.671V227.693C273.482 228.389 273.621 229.016 273.9 229.573C274.206 230.102 274.61 230.561 275.111 230.951C275.613 231.313 276.197 231.592 276.866 231.787C277.562 231.982 278.286 232.079 279.038 232.079ZM302.479 235.087C301.003 235.087 299.666 234.823 298.468 234.293C297.298 233.764 296.282 233.012 295.418 232.037C294.583 231.035 293.928 229.851 293.455 228.486C293.009 227.094 292.786 225.534 292.786 223.807C292.786 222.108 293.009 220.563 293.455 219.17C293.928 217.777 294.583 216.594 295.418 215.619C296.282 214.616 297.298 213.85 298.468 213.321C299.666 212.792 301.003 212.527 302.479 212.527C303.927 212.527 305.222 212.792 306.364 213.321C307.506 213.85 308.481 214.588 309.289 215.535C310.096 216.454 310.709 217.555 311.127 218.836C311.573 220.117 311.795 221.523 311.795 223.055V224.643H296.296V225.645C296.296 226.565 296.435 227.428 296.714 228.236C297.02 229.016 297.438 229.698 297.967 230.283C298.524 230.868 299.192 231.327 299.972 231.661C300.78 231.996 301.685 232.163 302.688 232.163C304.053 232.163 305.236 231.843 306.239 231.202C307.269 230.561 308.063 229.642 308.62 228.445L311.002 230.157C310.305 231.634 309.219 232.831 307.743 233.75C306.267 234.642 304.512 235.087 302.479 235.087ZM302.479 215.326C301.56 215.326 300.724 215.493 299.972 215.828C299.22 216.134 298.566 216.58 298.009 217.165C297.48 217.749 297.062 218.446 296.755 219.253C296.449 220.033 296.296 220.897 296.296 221.844V222.136H308.202V221.677C308.202 219.755 307.673 218.223 306.615 217.081C305.584 215.911 304.206 215.326 302.479 215.326ZM342.843 234.586C341.589 234.586 340.684 234.252 340.127 233.583C339.598 232.915 339.264 232.079 339.125 231.077H338.916C338.442 232.413 337.662 233.416 336.576 234.085C335.49 234.753 334.195 235.087 332.691 235.087C330.407 235.087 328.624 234.502 327.343 233.333C326.09 232.163 325.463 230.575 325.463 228.57C325.463 226.537 326.201 224.977 327.677 223.891C329.181 222.805 331.507 222.261 334.654 222.261H338.916V220.131C338.916 218.599 338.498 217.429 337.662 216.621C336.827 215.814 335.546 215.41 333.819 215.41C332.51 215.41 331.41 215.702 330.518 216.287C329.655 216.872 328.931 217.652 328.346 218.627L326.341 216.747C326.925 215.577 327.858 214.588 329.14 213.781C330.421 212.945 332.036 212.527 333.986 212.527C336.604 212.527 338.637 213.168 340.085 214.449C341.534 215.73 342.258 217.513 342.258 219.797V231.661H344.723V234.586H342.843ZM333.234 232.246C334.069 232.246 334.835 232.149 335.532 231.954C336.228 231.759 336.827 231.48 337.328 231.118C337.829 230.756 338.219 230.339 338.498 229.865C338.776 229.392 338.916 228.876 338.916 228.319V224.768H334.487C332.565 224.768 331.159 225.047 330.268 225.604C329.404 226.161 328.973 226.968 328.973 228.027V228.904C328.973 229.963 329.349 230.784 330.101 231.369C330.88 231.954 331.925 232.246 333.234 232.246ZM353.929 234.586L346.367 213.029H349.71L353.47 223.724L355.809 231.077H356.018L358.358 223.724L362.201 213.029H365.418L357.815 234.586H353.929ZM385.029 234.586C383.775 234.586 382.87 234.252 382.313 233.583C381.784 232.915 381.45 232.079 381.31 231.077H381.101C380.628 232.413 379.848 233.416 378.762 234.085C377.676 234.753 376.381 235.087 374.877 235.087C372.593 235.087 370.81 234.502 369.529 233.333C368.276 232.163 367.649 230.575 367.649 228.57C367.649 226.537 368.387 224.977 369.863 223.891C371.367 222.805 373.693 222.261 376.84 222.261H381.101V220.131C381.101 218.599 380.684 217.429 379.848 216.621C379.013 215.814 377.731 215.41 376.005 215.41C374.696 215.41 373.595 215.702 372.704 216.287C371.841 216.872 371.117 217.652 370.532 218.627L368.526 216.747C369.111 215.577 370.044 214.588 371.325 213.781C372.607 212.945 374.222 212.527 376.172 212.527C378.79 212.527 380.823 213.168 382.271 214.449C383.72 215.73 384.444 217.513 384.444 219.797V231.661H386.909V234.586H385.029ZM375.42 232.246C376.255 232.246 377.021 232.149 377.717 231.954C378.414 231.759 379.013 231.48 379.514 231.118C380.015 230.756 380.405 230.339 380.684 229.865C380.962 229.392 381.101 228.876 381.101 228.319V224.768H376.673C374.751 224.768 373.345 225.047 372.453 225.604C371.59 226.161 371.158 226.968 371.158 228.027V228.904C371.158 229.963 371.534 230.784 372.286 231.369C373.066 231.954 374.111 232.246 375.42 232.246ZM393.35 207.973C392.626 207.973 392.097 207.806 391.762 207.472C391.456 207.11 391.303 206.651 391.303 206.093V205.55C391.303 204.993 391.456 204.548 391.762 204.213C392.097 203.851 392.626 203.67 393.35 203.67C394.074 203.67 394.589 203.851 394.896 204.213C395.23 204.548 395.397 204.993 395.397 205.55V206.093C395.397 206.651 395.23 207.11 394.896 207.472C394.589 207.806 394.074 207.973 393.35 207.973ZM391.679 213.029H395.021V234.586H391.679V213.029ZM405.674 234.586C404.504 234.586 403.613 234.266 403 233.625C402.416 232.957 402.123 232.121 402.123 231.118V203.67H405.465V231.661H408.64V234.586H405.674ZM429.173 234.586C427.919 234.586 427.014 234.252 426.457 233.583C425.928 232.915 425.594 232.079 425.454 231.077H425.246C424.772 232.413 423.992 233.416 422.906 234.085C421.82 234.753 420.525 235.087 419.021 235.087C416.737 235.087 414.954 234.502 413.673 233.333C412.42 232.163 411.793 230.575 411.793 228.57C411.793 226.537 412.531 224.977 414.007 223.891C415.511 222.805 417.837 222.261 420.984 222.261H425.246V220.131C425.246 218.599 424.828 217.429 423.992 216.621C423.157 215.814 421.875 215.41 420.149 215.41C418.84 215.41 417.739 215.702 416.848 216.287C415.985 216.872 415.261 217.652 414.676 218.627L412.67 216.747C413.255 215.577 414.188 214.588 415.47 213.781C416.751 212.945 418.366 212.527 420.316 212.527C422.934 212.527 424.967 213.168 426.415 214.449C427.864 215.73 428.588 217.513 428.588 219.797V231.661H431.053V234.586H429.173ZM419.564 232.246C420.399 232.246 421.165 232.149 421.862 231.954C422.558 231.759 423.157 231.48 423.658 231.118C424.159 230.756 424.549 230.339 424.828 229.865C425.106 229.392 425.246 228.876 425.246 228.319V224.768H420.817C418.895 224.768 417.489 225.047 416.598 225.604C415.734 226.161 415.302 226.968 415.302 228.027V228.904C415.302 229.963 415.678 230.784 416.43 231.369C417.21 231.954 418.255 232.246 419.564 232.246ZM435.823 203.67H439.165V216.538H439.332C439.889 215.173 440.697 214.171 441.755 213.53C442.842 212.861 444.137 212.527 445.641 212.527C446.978 212.527 448.189 212.792 449.275 213.321C450.362 213.85 451.281 214.602 452.033 215.577C452.812 216.552 453.397 217.736 453.787 219.128C454.205 220.521 454.414 222.08 454.414 223.807C454.414 225.534 454.205 227.094 453.787 228.486C453.397 229.879 452.812 231.063 452.033 232.037C451.281 233.012 450.362 233.764 449.275 234.293C448.189 234.823 446.978 235.087 445.641 235.087C442.716 235.087 440.613 233.75 439.332 231.077H439.165V234.586H435.823V203.67ZM444.722 232.079C446.615 232.079 448.106 231.494 449.192 230.325C450.278 229.127 450.821 227.567 450.821 225.645V221.969C450.821 220.047 450.278 218.501 449.192 217.332C448.106 216.134 446.615 215.535 444.722 215.535C443.97 215.535 443.245 215.647 442.549 215.869C441.881 216.064 441.296 216.343 440.794 216.705C440.293 217.067 439.889 217.513 439.583 218.042C439.304 218.543 439.165 219.086 439.165 219.671V227.693C439.165 228.389 439.304 229.016 439.583 229.573C439.889 230.102 440.293 230.561 440.794 230.951C441.296 231.313 441.881 231.592 442.549 231.787C443.245 231.982 443.97 232.079 444.722 232.079ZM463.608 234.586C462.439 234.586 461.547 234.266 460.935 233.625C460.35 232.957 460.057 232.121 460.057 231.118V203.67H463.399V231.661H466.575V234.586H463.608ZM479.545 235.087C478.069 235.087 476.732 234.823 475.534 234.293C474.364 233.764 473.348 233.012 472.484 232.037C471.649 231.035 470.994 229.851 470.521 228.486C470.075 227.094 469.852 225.534 469.852 223.807C469.852 222.108 470.075 220.563 470.521 219.17C470.994 217.777 471.649 216.594 472.484 215.619C473.348 214.616 474.364 213.85 475.534 213.321C476.732 212.792 478.069 212.527 479.545 212.527C480.993 212.527 482.288 212.792 483.43 213.321C484.572 213.85 485.547 214.588 486.355 215.535C487.162 216.454 487.775 217.555 488.193 218.836C488.639 220.117 488.861 221.523 488.861 223.055V224.643H473.362V225.645C473.362 226.565 473.501 227.428 473.78 228.236C474.086 229.016 474.504 229.698 475.033 230.283C475.59 230.868 476.258 231.327 477.038 231.661C477.846 231.996 478.751 232.163 479.754 232.163C481.119 232.163 482.302 231.843 483.305 231.202C484.335 230.561 485.129 229.642 485.686 228.445L488.068 230.157C487.371 231.634 486.285 232.831 484.809 233.75C483.333 234.642 481.578 235.087 479.545 235.087ZM479.545 215.326C478.626 215.326 477.79 215.493 477.038 215.828C476.286 216.134 475.632 216.58 475.075 217.165C474.546 217.749 474.128 218.446 473.821 219.253C473.515 220.033 473.362 220.897 473.362 221.844V222.136H485.268V221.677C485.268 219.755 484.739 218.223 483.681 217.081C482.65 215.911 481.272 215.326 479.545 215.326ZM505.913 207.973C505.189 207.973 504.66 207.806 504.326 207.472C504.019 207.11 503.866 206.651 503.866 206.093V205.55C503.866 204.993 504.019 204.548 504.326 204.213C504.66 203.851 505.189 203.67 505.913 203.67C506.637 203.67 507.153 203.851 507.459 204.213C507.793 204.548 507.96 204.993 507.96 205.55V206.093C507.96 206.651 507.793 207.11 507.459 207.472C507.153 207.806 506.637 207.973 505.913 207.973ZM504.242 213.029H507.584V234.586H504.242V213.029ZM514.687 234.586V213.029H518.029V216.538H518.196C518.725 215.312 519.463 214.338 520.41 213.613C521.385 212.889 522.68 212.527 524.295 212.527C526.524 212.527 528.278 213.251 529.559 214.7C530.868 216.12 531.523 218.139 531.523 220.757V234.586H528.181V221.342C528.181 217.471 526.551 215.535 523.293 215.535C522.624 215.535 521.97 215.619 521.329 215.786C520.716 215.953 520.159 216.204 519.658 216.538C519.157 216.872 518.753 217.304 518.447 217.833C518.168 218.334 518.029 218.933 518.029 219.629V234.586H514.687ZM567.021 234.586H547.887V230.993L557.412 222.22C558.777 220.966 559.919 219.643 560.838 218.251C561.757 216.83 562.217 215.41 562.217 213.989V213.488C562.217 211.873 561.771 210.564 560.88 209.561C559.988 208.558 558.638 208.057 556.827 208.057C555.936 208.057 555.156 208.182 554.488 208.433C553.819 208.684 553.234 209.032 552.733 209.477C552.26 209.923 551.856 210.452 551.521 211.065C551.215 211.65 550.964 212.291 550.769 212.987L547.636 211.775C547.915 210.912 548.291 210.076 548.764 209.269C549.265 208.433 549.878 207.695 550.602 207.054C551.354 206.414 552.246 205.899 553.276 205.509C554.335 205.119 555.574 204.924 556.994 204.924C558.415 204.924 559.682 205.133 560.796 205.55C561.91 205.968 562.843 206.553 563.595 207.305C564.347 208.057 564.918 208.948 565.308 209.979C565.726 211.009 565.935 212.151 565.935 213.405C565.935 214.547 565.768 215.605 565.433 216.58C565.127 217.555 564.695 218.488 564.138 219.379C563.581 220.242 562.899 221.092 562.091 221.927C561.311 222.763 560.462 223.598 559.543 224.434L551.689 231.494H567.021V234.586ZM582.337 235.087C578.856 235.087 576.307 233.764 574.692 231.118C573.104 228.472 572.31 224.768 572.31 220.005C572.31 215.243 573.104 211.539 574.692 208.893C576.307 206.247 578.856 204.924 582.337 204.924C585.819 204.924 588.353 206.247 589.941 208.893C591.556 211.539 592.364 215.243 592.364 220.005C592.364 224.768 591.556 228.472 589.941 231.118C588.353 233.764 585.819 235.087 582.337 235.087ZM582.337 232.037C583.479 232.037 584.454 231.801 585.262 231.327C586.069 230.854 586.724 230.185 587.225 229.322C587.727 228.459 588.089 227.442 588.311 226.272C588.562 225.102 588.687 223.807 588.687 222.387V217.624C588.687 216.204 588.562 214.909 588.311 213.739C588.089 212.569 587.727 211.552 587.225 210.689C586.724 209.826 586.069 209.157 585.262 208.684C584.454 208.21 583.479 207.973 582.337 207.973C581.195 207.973 580.22 208.21 579.413 208.684C578.605 209.157 577.951 209.826 577.449 210.689C576.948 211.552 576.572 212.569 576.321 213.739C576.098 214.909 575.987 216.204 575.987 217.624V222.387C575.987 223.807 576.098 225.102 576.321 226.272C576.572 227.442 576.948 228.459 577.449 229.322C577.951 230.185 578.605 230.854 579.413 231.327C580.22 231.801 581.195 232.037 582.337 232.037ZM617.122 234.586H597.988V230.993L607.513 222.22C608.878 220.966 610.02 219.643 610.939 218.251C611.858 216.83 612.317 215.41 612.317 213.989V213.488C612.317 211.873 611.872 210.564 610.98 209.561C610.089 208.558 608.738 208.057 606.928 208.057C606.037 208.057 605.257 208.182 604.588 208.433C603.92 208.684 603.335 209.032 602.834 209.477C602.36 209.923 601.956 210.452 601.622 211.065C601.316 211.65 601.065 212.291 600.87 212.987L597.737 211.775C598.015 210.912 598.391 210.076 598.865 209.269C599.366 208.433 599.979 207.695 600.703 207.054C601.455 206.414 602.346 205.899 603.377 205.509C604.435 205.119 605.675 204.924 607.095 204.924C608.516 204.924 609.783 205.133 610.897 205.55C612.011 205.968 612.944 206.553 613.696 207.305C614.448 208.057 615.019 208.948 615.409 209.979C615.827 211.009 616.036 212.151 616.036 213.405C616.036 214.547 615.868 215.605 615.534 216.58C615.228 217.555 614.796 218.488 614.239 219.379C613.682 220.242 613 221.092 612.192 221.927C611.412 222.763 610.563 223.598 609.644 224.434L601.789 231.494H617.122V234.586ZM635.571 234.586V228.862H621.492V225.771L633.691 205.425H638.913V225.938H643.133V228.862H638.913V234.586H635.571ZM624.793 225.938H635.571V208.141H635.362L624.793 225.938Z" fill="#D2FF00"/>
<defs>
<linearGradient id="paint0_linear_2444_1777" x1="883.723" y1="21.4219" x2="807.787" y2="68.0963" gradientUnits="userSpaceOnUse">
<stop stop-color="#DCB8FF"/>
<stop offset="1" stop-color="#160C00"/>
</linearGradient>
<linearGradient id="paint1_linear_2444_1777" x1="1079.55" y1="335.763" x2="1007.48" y2="391.87" gradientUnits="userSpaceOnUse">
<stop stop-color="#DCB8FF"/>
<stop offset="1" stop-color="#160C00"/>
</linearGradient>
<linearGradient id="paint2_linear_2444_1777" x1="336.5" y1="80.0859" x2="331.5" y2="181.586" gradientUnits="userSpaceOnUse">
<stop stop-color="#D2FF00"/>
<stop offset="1" stop-color="#252525"/>
</linearGradient>
</defs>
</svg>
