<svg width="88" height="88" viewBox="0 0 88 88" fill="none" xmlns="http://www.w3.org/2000/svg">
<mask id="mask0_5693_22470" style="mask-type:alpha" maskUnits="userSpaceOnUse" x="0" y="0" width="88" height="88">
<rect width="88" height="88" rx="5" fill="#D9D9D9"/>
</mask>
<g mask="url(#mask0_5693_22470)">
<path d="M46.2303 105.524C31.8564 105.524 18.748 100.11 8.83315 91.2078C6.96975 89.5348 6.83823 86.6715 8.64554 84.9381C14.5015 79.3214 22.4105 75.8248 31.1773 75.7444C31.3517 75.7433 31.5272 75.7422 31.7027 75.7422H47.412C52.2923 75.7422 56.5436 76.3483 60.2957 77.4493C67.851 79.6679 73.867 84.9067 77.3235 91.5943C78.3507 93.5816 77.5929 95.9779 75.6915 97.1565C67.1335 102.461 57.0396 105.524 46.2303 105.524Z" fill="#252525" stroke="#F9F8F4" stroke-linecap="round" stroke-linejoin="round"/>
<path d="M35.2266 57.4159C35.2266 60.1773 32.9273 62.5123 30.3085 61.6362C25.3433 59.9752 21.8305 55.772 21.8305 50.1099V45.0222C21.8305 42.2608 24.069 40.0222 26.8305 40.0222H30.2266C32.988 40.0222 35.2266 42.2608 35.2266 45.0222V57.4159Z" fill="#F9F8F4" stroke="#F9F8F4" stroke-linecap="round" stroke-linejoin="round"/>
<path d="M62.772 44.2431C62.772 44.2425 62.7725 44.242 62.7731 44.242H64.5663C66.7367 44.242 68.4961 42.4826 68.4961 40.3123V37.1963C68.4961 35.6156 67.2147 34.3342 65.6341 34.3342V34.3342C64.0534 34.3342 62.772 35.6156 62.772 37.1963V44.2431V44.2431Z" fill="#F9F8F4" stroke="#F9F8F4" stroke-linecap="round" stroke-linejoin="round"/>
<path d="M52.6016 79.587V72.2908C52.6016 69.5293 50.363 67.2908 47.6016 67.2908H42.2313C39.4699 67.2908 37.2313 69.5293 37.2313 72.2908V79.587" fill="#252525"/>
<path d="M52.6016 79.587V72.2908C52.6016 69.5293 50.363 67.2908 47.6016 67.2908H42.2313C39.4699 67.2908 37.2313 69.5293 37.2313 72.2908V79.587" stroke="#F9F8F4" stroke-linecap="round" stroke-linejoin="round"/>
<path d="M39.9095 69.853C39.9094 69.8529 39.9095 69.8526 39.9098 69.8526C44.9207 70.8205 50.1321 70.8041 54.926 69.919C60.8278 68.83 65.1009 63.6641 65.0977 57.662L65.0878 40.2991C65.0835 33.4174 59.5011 27.8416 52.6194 27.8459L42.3214 27.8525C35.4396 27.8569 29.8638 33.4392 29.8682 40.3209L29.878 57.6381C29.8813 63.581 34.0745 68.726 39.9093 69.8534C39.9096 69.8535 39.9097 69.8532 39.9095 69.853V69.853Z" fill="#252525" stroke="#F9F8F4" stroke-linecap="round" stroke-linejoin="round"/>
<path d="M30.5039 54.9784L26.4063 54.9805C23.0586 54.9827 20.3432 52.2695 20.341 48.9229C20.3388 45.5753 23.0521 42.862 26.3986 42.8598L30.4963 42.8577" fill="#252525"/>
<path d="M30.5039 54.9784L26.4063 54.9805C23.0586 54.9827 20.3432 52.2695 20.341 48.9229C20.3388 45.5753 23.0521 42.862 26.3986 42.8598L30.4963 42.8577" stroke="#F9F8F4" stroke-linecap="round" stroke-linejoin="round"/>
<path d="M26.942 45.7867H26.4003C24.6725 45.7878 23.2674 47.194 23.2684 48.9207C23.2684 50.6485 24.6757 52.0537 26.4035 52.0526H26.9453" stroke="#F9F8F4" stroke-linecap="round" stroke-linejoin="round"/>
<path d="M56.0362 46.8342C56.0602 48.1118 57.1154 49.1289 58.393 49.1049C59.6706 49.0809 60.6876 48.0257 60.6636 46.7481C60.6397 45.4705 59.5845 44.4535 58.3069 44.4775C57.0293 44.5014 56.0122 45.5567 56.0362 46.8342Z" fill="#F9F8F4"/>
<path d="M41.8214 46.8342C41.8454 48.1118 42.9006 49.1289 44.1781 49.1049C45.4557 49.0809 46.4728 48.0257 46.4488 46.7481C46.4248 45.4705 45.3696 44.4535 44.092 44.4775C42.8145 44.5014 41.7974 45.5567 41.8214 46.8342Z" fill="#F9F8F4"/>
<path d="M51.8959 47.3944C51.8959 47.3944 52.716 49.4499 53.1581 52.1965C53.416 53.7992 52.1138 55.1454 50.4908 55.1755V55.1755" stroke="#F9F8F4" stroke-linecap="round" stroke-linejoin="round"/>
<path d="M54.1562 59.8149C54.1562 59.8149 52.3772 60.2706 50.1829 60.0515C47.9885 59.8324 46.2095 58.6322 46.2095 58.6322" stroke="#F9F8F4" stroke-linecap="round" stroke-linejoin="round"/>
<path d="M41.4489 51.0049L42.6523 53.3322" stroke="#F9F8F4" stroke-linecap="round" stroke-linejoin="round"/>
<path d="M39.9986 51.0311L41.2031 53.3596" stroke="#F9F8F4" stroke-linecap="round" stroke-linejoin="round"/>
<path d="M38.5465 51.0583L39.75 53.3857" stroke="#F9F8F4" stroke-linecap="round" stroke-linejoin="round"/>
<path d="M59.8672 51.0146L58.7509 53.3856" stroke="#F9F8F4" stroke-linecap="round" stroke-linejoin="round"/>
<path d="M61.3164 50.9885L60.2002 53.3595" stroke="#F9F8F4" stroke-linecap="round" stroke-linejoin="round"/>
<path d="M62.7695 50.9612L61.6522 53.3321" stroke="#F9F8F4" stroke-linecap="round" stroke-linejoin="round"/>
<path d="M54.8452 43.0919H61.848C62.6961 43.0919 63.3828 42.4051 63.3828 41.5571C63.3828 40.709 62.6961 40.0222 61.848 40.0222H54.8452C53.9972 40.0222 53.3104 40.709 53.3104 41.5571C53.3104 42.4051 53.9972 43.0919 54.8452 43.0919Z" fill="#F9F8F4"/>
<path d="M40.6343 43.0919H47.637C48.4851 43.0919 49.1719 42.4051 49.1719 41.5571C49.1719 40.709 48.4851 40.0222 47.637 40.0222H40.6343C39.7862 40.0222 39.0995 40.709 39.0995 41.5571C39.0995 42.4051 39.7862 43.0919 40.6343 43.0919Z" fill="#F9F8F4"/>
<path d="M37.7182 18.0041C37.7182 18.0038 37.7184 18.0036 37.7187 18.0036C47.2426 18.0036 54.7629 18.0036 58.7525 18.0036C67.3195 17.8292 71.6875 24.0372 71.6875 27.8449V31.2144C71.6875 32.9367 70.2911 34.3331 68.5688 34.3331H66.1278C64.5183 34.3331 62.9865 33.5039 61.5201 32.8403C56.5722 30.6013 45.2322 30.5929 37.4065 33.1721C35.5893 33.7711 34.5068 35.5474 34.5068 37.4608V47.0741C34.5068 47.9559 33.7917 48.6699 32.9109 48.6699H31.472C30.5901 48.6699 29.8761 47.9549 29.8761 47.0741V47.0741C29.8761 45.1126 28.286 43.5226 26.3246 43.5226H25.8537C23.6321 43.5226 21.8312 41.7217 21.8312 39.5001V27.846C21.8312 22.4109 28.9721 18.0049 37.7176 18.0047C37.7179 18.0047 37.7182 18.0044 37.7182 18.0041V18.0041Z" fill="#F9F8F4" stroke="#F9F8F4" stroke-linecap="round" stroke-linejoin="round"/>
<path d="M13.9428 78.3956C13.9426 78.3956 13.9426 78.3954 13.9427 78.3954C14.491 78.1319 15.2832 78.2789 15.8826 78.0533C16.589 77.7873 17.2397 77.118 18.0104 76.9011C20.8867 76.0908 24.2357 75.8396 27.7779 75.6883C29.875 75.5987 31.5352 73.8865 31.5352 71.7875V71.7875C31.5352 70.7399 32.5261 69.9758 33.5398 70.2428L41.8594 72.4361C42.5603 72.6214 43.0498 73.2547 43.0498 73.9807V84.3492C43.0498 84.6841 42.9606 84.5607 43.0579 84.8812V84.8812C44.1288 88.4058 49.9441 88.5028 50.4887 84.8595V84.8595C50.5135 84.6933 50.4896 84.7689 50.4896 84.6008V73.379C50.4896 72.9942 50.7098 72.6421 51.0564 72.4742L55.3056 70.414C55.9728 70.0902 56.7489 70.5764 56.7489 71.3188V72.0008C56.7489 74.4405 58.5109 76.5139 60.9174 76.9151C64.9267 77.5836 69.3113 78.383 72.1202 79.4203C73.025 79.7549 73.4512 80.6325 74.0093 80.9442C75.106 81.5569 75.7742 81.2723 77.2131 82.2436C78.1725 82.8912 80.1814 85.2454 81.8726 87.5855C83.2197 89.4494 82.8216 91.9788 81.0204 93.4087C71.4659 100.994 59.3769 105.525 46.2295 105.525C30.1374 105.525 15.6301 98.7363 5.41568 87.8677C4.57096 86.9689 4.58964 85.5689 5.4619 84.6968C7.96953 82.1895 10.8034 79.9059 13.9428 78.3958C13.9429 78.3958 13.9429 78.3956 13.9428 78.3956V78.3956Z" fill="#F9F8F4"/>
<path d="M13.9428 78.3956C13.9426 78.3956 13.9426 78.3954 13.9427 78.3954C14.491 78.1319 15.2832 78.2789 15.8826 78.0533C16.589 77.7873 17.2397 77.118 18.0104 76.9011C20.8867 76.0908 24.2357 75.8396 27.7779 75.6883C29.875 75.5987 31.5352 73.8865 31.5352 71.7875V71.7875C31.5352 70.7399 32.5261 69.9758 33.5398 70.2428L41.8594 72.4361C42.5603 72.6214 43.0498 73.2547 43.0498 73.9807V84.3492C43.0498 84.6841 42.9606 84.5607 43.0579 84.8812V84.8812C44.1288 88.4058 49.9441 88.5028 50.4887 84.8595V84.8595C50.5135 84.6933 50.4896 84.7689 50.4896 84.6008V73.379C50.4896 72.9942 50.7098 72.6421 51.0564 72.4742L55.3056 70.414C55.9728 70.0902 56.7489 70.5764 56.7489 71.3188V72.0008C56.7489 74.4405 58.5109 76.5139 60.9174 76.9151C64.9267 77.5836 69.3113 78.383 72.1202 79.4203C73.025 79.7549 73.4512 80.6325 74.0093 80.9442C75.106 81.5569 75.7742 81.2723 77.2131 82.2436C78.1725 82.8912 80.1814 85.2454 81.8726 87.5855C83.2197 89.4494 82.8216 91.9788 81.0204 93.4087C71.4659 100.994 59.3769 105.525 46.2295 105.525C30.1374 105.525 15.6301 98.7363 5.41568 87.8677C4.57096 86.9689 4.58964 85.5689 5.4619 84.6968C7.96953 82.1895 10.8034 79.9059 13.9428 78.3958C13.9429 78.3958 13.9429 78.3956 13.9428 78.3956V78.3956Z" stroke="#F9F8F4" stroke-linecap="round" stroke-linejoin="round"/>
<path d="M18.6969 85.0745C18.9564 86.1635 19.1864 87.3462 19.3608 88.6172C19.7205 91.2335 19.7619 93.6022 19.6562 95.6287" stroke="#252525" stroke-linecap="round" stroke-linejoin="round"/>
<path d="M72.0977 85.2903C71.9156 86.146 71.7521 87.054 71.618 88.0101C71.2692 90.4944 71.1972 92.7356 71.2528 94.6443" stroke="#252525" stroke-linecap="round" stroke-linejoin="round"/>
<path d="M41.5391 74.576C41.1837 74.3209 40.8697 74.2293 40.5983 74.2991C40.566 74.3075 40.5342 74.3181 40.503 74.3311C37.3552 75.6404 34.9864 79.3067 32.5164 76.9567V76.9567" stroke="#252525" stroke-linecap="round" stroke-linejoin="round"/>
<path d="M51.4281 74.276C51.8619 73.6623 52.335 73.5838 52.601 73.9054C53.0258 74.4183 53.2999 75.449 53.4729 76.6562C53.5931 77.4945 55.8993 77.9112 56.207 77.1222V77.1222" stroke="#252525" stroke-linecap="round" stroke-linejoin="round"/>
</g>
</svg>
