<svg width="653" height="254" viewBox="0 0 653 254" fill="none" xmlns="http://www.w3.org/2000/svg">
<path d="M374.419 219.231L344.542 234.443L314.799 244.542L309.322 242.836L303.996 242.311L298.813 241.241L293.755 237.66L288.814 229.344L283.958 215.223L279.169 198.724L274.455 181.631L269.816 165.216L265.27 150.403L260.816 137.771L256.463 127.539L252.227 119.608L248.092 113.53L244.058 108.564L218.408 107.173L214.676 100.92L210.935 91.1003L207.186 78.7279L203.453 64.8657" stroke="#D2FF00" stroke-width="0.5" stroke-linecap="round" stroke-linejoin="round"/>
<path d="M8.0957 43.1772L9.16095 43.6599L9.91586 44.0026L36.9996 56.347L38.761 57.7878L48.13 62.5577L48.5913 62.6137L53.3388 65.3483L61.7515 69.8454L65.7357 71.8807L67.8159 73.1746L68.9062 73.8181L77.6881 78.9797L83.6098 82.2948L94.1614 88.1838L95.0758 88.9042L96.5939 90.1072L99.0179 91.513L110.92 98.43L115.265 100.955L124.969 106.592L126.068 107.138L136.402 112.208L152.867 120.3L153.563 120.51L180.252 128.511L207.269 131.421L234.135 135.044L260.816 137.771L287.329 138.086L313.742 135.1L340.121 128.469L366.534 118.44L393.047 105.837L419.67 92.0655L446.334 79.1895L472.906 69.6427L499.302 63.9285L525.472 61.2289L551.431 60.6833" stroke="#D2FF00" stroke-width="0.5" stroke-linecap="round" stroke-linejoin="round"/>
<path d="M72.0188 206.803L40.5566 211.824" stroke="#D2FF00" stroke-width="0.5" stroke-linecap="round" stroke-linejoin="round"/>
<path d="M14.1514 69.0134L43.525 76.6928L72.9321 89.0862L102.205 104.879L102.717 105.179L131.176 122.084L131.696 122.378L159.702 138.086L187.717 149.696L215.313 156.033L242.681 161.74L269.816 165.216L296.773 165.111L323.639 160.761L350.513 152.144L377.463 139.884L404.546 125.28L431.739 110.334L458.924 97.7728L485.915 90.3242L512.638 87.2538L539.101 87.1979L565.313 88.9254" stroke="#D2FF00" stroke-width="0.5" stroke-linecap="round" stroke-linejoin="round"/>
<path d="M98.0197 199.396L67.2538 200.298L36.7646 206.935" stroke="#D2FF00" stroke-width="0.5" stroke-linecap="round" stroke-linejoin="round"/>
<path d="M79.299 122.573L49.7913 115.614L20.4932 114.558" stroke="#D2FF00" stroke-width="0.5" stroke-linecap="round" stroke-linejoin="round"/>
<path d="M555.953 126.035L526.235 128.714L495.956 139.709L465.4 157.606L434.86 178.742L404.514 200.074L374.419 219.231L368.128 217.685L361.963 218.93L355.949 220.881L350.128 220.951L344.534 216.118L339.132 204.711L333.873 190.632L328.715 175.588L323.64 160.761L318.649 147.059L313.743 135.1L308.911 125.21L304.172 117.468L299.525 111.656L294.971 107.319L290.517 102.445L286.13 93.5551L281.811 81.4904L277.55 67.2716" stroke="#D2FF00" stroke-width="0.5" stroke-linecap="round" stroke-linejoin="round"/>
<path d="M17.1543 89.7996L46.5111 94.2268L75.9937 104.039L105.409 118.174L105.644 118.307L134.59 134.736L163.368 151.081L191.66 163.873L219.515 171.679L247.11 178.127L274.454 181.631L301.622 180.96L328.714 175.588L355.831 165.65L383.066 151.983L410.443 136.135L437.929 120.391L465.391 107.844L492.592 101.319L519.491 99.4023L546.097 100.486L572.442 103.172" stroke="#D2FF00" stroke-width="0.5" stroke-linecap="round" stroke-linejoin="round"/>
<path d="M390.926 70.2443L416.19 57.4033L441.503 45.2826L447.626 47.3948L453.875 49.8987L460.166 54.5218L466.515 61.1731L472.907 69.6428L479.365 79.5324L485.916 90.3241L492.593 101.319L499.437 111.656L506.533 120.314L518.074 120.196" stroke="#D2FF00" stroke-width="0.5" stroke-linecap="round" stroke-linejoin="round"/>
<path d="M623.029 142.611L593.638 141.08L563.929 141.576L533.977 143.667L503.488 153.025L472.697 168.909L441.889 187.974L411.232 207.446L380.793 225.113L350.539 239.311L320.402 248.871L290.265 253.082L259.977 251.676L235.301 246.137L229.388 244.808L198.412 233.939L167.059 222.315L135.429 212.733L103.69 207.18L72.0185 206.802L69.6112 203.669L67.2542 200.298L64.847 195.332L62.3055 187.583L59.5543 176.022L56.5348 159.74L53.2049 138.541L49.7912 115.614L46.5116 94.2267L43.5255 76.6926L40.9254 64.4042L38.6691 57.4871L37 56.347" stroke="#D2FF00" stroke-width="0.5" stroke-linecap="round" stroke-linejoin="round"/>
<path d="M371.013 85.1483L396.478 72.8388L422.035 59.6411L428.007 61.8862L434.046 65.9077L440.152 71.7198L446.334 79.1895L452.583 88.0229L458.924 97.7725L465.391 107.844L472.009 117.454L478.844 125.665L485.974 131.106L489.614 130.421" stroke="#D2FF00" stroke-width="0.5" stroke-linecap="round" stroke-linejoin="round"/>
<path d="M652 146.654L623.029 142.611L614.314 129.434L585.335 126.371L555.953 126.035L547.616 118.328L539.044 117.307L532.417 118.216L518.074 120.195L509.947 121.314L508.655 121.895L503.597 124.161L489.615 130.42L489.154 130.63L486.755 131.7L485.706 132.176L480.322 134.582L472.479 138.988L465.224 143.73L457.969 148.913L454.714 151.472L450.478 154.648L450.092 154.941L439.071 163.383L424.67 174.413L420.727 177.434L418.177 179.351L410.201 185.365L394.709 197.038L391.211 199.675L384.744 202.843L378.487 204.627L372.507 201.585L366.795 191.73L361.25 179.218L355.832 165.649L350.514 152.144L345.272 139.548L340.122 128.469L335.039 119.258L330.04 112.04L325.125 106.683L320.31 102.864L294.971 107.319L269.573 108.998L244.058 108.564L240.091 102.668L214.676 100.92L189.161 99.9754L163.62 101.549L137.854 100.073L111.743 94.3173L108.983 86.4909L82.8892 80.2313L80.4399 72.9994L77.9404 64.229" stroke="#D2FF00" stroke-width="0.5" stroke-linecap="round" stroke-linejoin="round"/>
<path d="M605.23 123.21L611.119 124.588L633.388 129.805L642.866 135.1" stroke="#D2FF00" stroke-width="0.5" stroke-linecap="round" stroke-linejoin="round"/>
<path d="M539.043 117.307L557.16 117.915L567.687 118.272L576.637 119.153L585.334 126.371L593.638 141.08" stroke="#D2FF00" stroke-width="0.5" stroke-linecap="round" stroke-linejoin="round"/>
<path d="M441.503 45.2824L466.783 35.253L491.972 27.4058L498.623 30.0634L523.928 24.776" stroke="#D2FF00" stroke-width="0.5" stroke-linecap="round" stroke-linejoin="round"/>
<path d="M340.649 91.7231L365.745 82.0574L390.925 70.2445L396.478 72.8393L402.156 75.2032L407.918 79.1689L413.756 84.813L419.67 92.0658L425.658 100.703L431.739 110.334L437.929 120.392L444.271 130.141L450.796 138.667L457.582 144.598L465.223 143.731L472.478 138.989" stroke="#D2FF00" stroke-width="0.5" stroke-linecap="round" stroke-linejoin="round"/>
<path d="M115.013 99.4857L119.894 100.745L140.822 106.144L166.857 108.116L192.649 106.473L218.407 107.172L222.182 112.173L248.091 113.53L273.867 113.733L299.524 111.655L325.124 106.683L350.731 98.6604L376.397 87.8966L402.156 75.2025L428.007 61.8858L453.874 49.8982L479.666 40.687L505.332 34.1266L530.839 29.8743" stroke="#D2FF00" stroke-width="0.5" stroke-linecap="round" stroke-linejoin="round"/>
<path d="M320.31 102.864L345.632 95.3947L371.013 85.1484L376.398 87.8971L381.867 92.1845L387.419 98.1644L393.047 105.837L398.759 114.999L404.547 125.28L410.443 136.135L416.466 146.794L422.656 156.32L429.072 163.279L435.9 163.349L443.08 159.096L450.478 154.648L457.96 153.34L474.676 142.646L488.197 134.002" stroke="#D2FF00" stroke-width="0.5" stroke-linecap="round" stroke-linejoin="round"/>
<path d="M108.983 86.4919L134.784 90.5485L160.291 91.2898L185.63 89.919L210.935 91.101L236.132 93.1153L261.194 94.3252L286.131 93.5559L310.983 90.1149L335.811 83.7293L360.672 74.5881L385.6 63.3067L410.604 50.9903L435.649 39.3173L460.67 29.6655L485.598 22.2449L510.408 16.9854L517.06 21.6154" stroke="#D2FF00" stroke-width="0.5" stroke-linecap="round" stroke-linejoin="round"/>
<path d="M170.078 112.446L196.155 111.264" stroke="#D2FF00" stroke-width="0.5" stroke-linecap="round" stroke-linejoin="round"/>
<path d="M537.718 37.8267L512.044 40.89L486.184 46.2824L460.166 54.5214L434.047 65.9076L407.919 79.1683L381.867 92.1842L355.916 103.459L330.04 112.04L304.172 117.468L278.254 119.811L252.228 119.608L226.05 117.929L199.746 116.362L173.358 116.53L153.404 113.201L147.768 112.257L146.669 112.075L143.733 109.508L140.823 106.144L137.853 100.073L134.784 90.5476L131.647 78.5598L128.484 65.0753" stroke="#D2FF00" stroke-width="0.5" stroke-linecap="round" stroke-linejoin="round"/>
<path d="M544.57 48.2549L518.745 50.0594L492.726 54.1369L466.515 61.1729L440.152 71.7199L413.757 84.8127L387.419 98.1643L361.191 110.04L335.038 119.258L308.911 125.21L282.741 127.819L256.463 127.539L230.033 125.364L203.444 122.839L176.738 121.594L173.358 116.531L170.078 112.446L144.32 109.572L143.733 109.509L142.24 109.054L130.069 105.333L121.69 102.822L120.306 102.361L120.247 102.326L115.013 99.4861L114.267 99.0875L113.218 98.514L101.19 91.9955L96.1829 89.2749L96.1242 89.2469L94.0357 88.3587L83.6098 82.2948L83.5092 82.0781L78.4346 79.1615L77.7888 78.7908L68.8727 73.6782L67.7823 73.1047L61.7515 69.8455L53.3388 65.3483L48.13 62.5577L42.829 59.4944L38.6688 57.4871L10.2178 45.7791L9.59713 45.5203L8.0957 43.1772" stroke="#D2FF00" stroke-width="0.5" stroke-linecap="round" stroke-linejoin="round"/>
<path d="M240.09 102.668L265.362 103.571L290.516 102.445L315.587 98.5768L340.649 91.7227L345.632 95.3945L350.731 98.6608L355.915 103.459L361.191 110.04L366.534 118.44L371.961 128.511L377.463 139.883L383.066 151.983L388.778 164.013L394.632 174.945L400.68 183.26L407.08 184.673L413.79 181.456L418.294 178.015L423.603 173.965L437.485 163.369L443.08 159.096L449.278 154.858L454.713 151.473L460.987 147.584L467.026 143.52L480.321 134.582L488.197 134.002L500.585 128.91L503.026 127.91L511.85 124.28L518.183 121.671L547.615 118.328L576.636 119.153L582.457 119.979L605.23 123.21L614.314 129.434L642.865 135.1L651.999 146.654" stroke="#D2FF00" stroke-width="0.5" stroke-linecap="round" stroke-linejoin="round"/>
<path d="M121.631 102.745L120.247 102.326" stroke="#D2FF00" stroke-width="0.5" stroke-linecap="round" stroke-linejoin="round"/>
<path d="M555.952 126.035L563.929 141.576" stroke="#D2FF00" stroke-width="0.5" stroke-linecap="round" stroke-linejoin="round"/>
<path d="M62.0703 69.9017L62.364 69.9506L62.733 70.0136L80.4393 73L106.156 76.518L131.646 78.5603L156.926 78.4554L182.064 77.3574L207.185 78.7282L232.197 80.8474L257.067 82.1412L281.81 81.4908L306.47 78.2316L331.096 72.1328L355.739 63.3832L380.449 52.6125L405.226 40.9114L430.037 29.8889L454.806 20.9366L479.482 14.3762L504.016 10.2427" stroke="#D2FF00" stroke-width="0.5" stroke-linecap="round" stroke-linejoin="round"/>
<path d="M326.475 57.9138L331.096 72.1326L335.81 83.7288L340.65 91.7229" stroke="#D2FF00" stroke-width="0.5" stroke-linecap="round" stroke-linejoin="round"/>
<path d="M350.934 49.4019L355.74 63.3829L360.672 74.5873L365.746 82.057L371.014 85.1483" stroke="#D2FF00" stroke-width="0.5" stroke-linecap="round" stroke-linejoin="round"/>
<path d="M375.45 39.0647L380.449 52.6121L385.599 63.3059L390.925 70.244" stroke="#D2FF00" stroke-width="0.5" stroke-linecap="round" stroke-linejoin="round"/>
<path d="M400.026 28.0072L405.227 40.9111L410.603 50.9895L416.189 57.4031L422.036 59.6411L447.626 47.3946L473.175 37.5331L479.667 40.6874L486.184 46.2826L492.727 54.1369L499.303 63.9285L505.929 75.1748L512.639 87.2535L519.492 99.4021L526.529 110.697L553.302 112.733L557.161 117.915" stroke="#D2FF00" stroke-width="0.5" stroke-linecap="round" stroke-linejoin="round"/>
<path d="M424.61 17.7683L430.037 29.8889L435.648 39.3169L441.503 45.2828" stroke="#D2FF00" stroke-width="0.5" stroke-linecap="round" stroke-linejoin="round"/>
<path d="M449.161 9.60571L454.806 20.9361L460.669 29.6646L466.784 35.2528L473.175 37.5329L498.623 30.0632L505.333 34.1268L512.043 40.89L518.745 50.0592L525.472 61.2286L532.241 73.8389L539.102 87.1974L546.097 100.486L553.302 112.733L579.807 116.251" stroke="#D2FF00" stroke-width="0.5" stroke-linecap="round" stroke-linejoin="round"/>
<path d="M473.594 4.03162L479.482 14.3758L485.597 22.2441L491.971 27.4057L517.059 21.6146L523.928 24.7759L530.84 29.8746L537.717 37.8268L544.57 48.2548L551.431 60.6832L558.326 74.4824L565.313 88.925L572.442 103.172L579.807 116.251L582.457 119.978" stroke="#D2FF00" stroke-width="0.5" stroke-linecap="round" stroke-linejoin="round"/>
<path d="M497.859 1.19189L504.016 10.2421L510.407 16.9844" stroke="#D2FF00" stroke-width="0.5" stroke-linecap="round" stroke-linejoin="round"/>
<path d="M108.983 86.4912L106.157 76.5177L103.288 65.0475" stroke="#D2FF00" stroke-width="0.5" stroke-linecap="round" stroke-linejoin="round"/>
<path d="M240.091 102.668L236.132 93.1144L232.198 80.8469L228.289 66.9148" stroke="#D2FF00" stroke-width="0.5" stroke-linecap="round" stroke-linejoin="round"/>
<path d="M411.232 207.446L404.513 200.074L397.82 198.004L391.21 199.675L387.671 202.012L381.422 206.117L376.867 209.117L370.753 213.146L365.015 216.923L361.962 218.93L358.129 220.853L352.996 223.427L347.443 226.204L335.449 232.219L332.924 233.485L327.347 233.967L321.928 232.198L316.677 225.567L311.561 212.691L306.545 197.242L301.621 180.959L296.773 165.111L292.009 150.612L287.329 138.086L282.741 127.819L278.254 119.811L273.867 113.733L269.572 108.998L265.362 103.571L261.193 94.3245L257.066 82.141L252.981 68.062" stroke="#D2FF00" stroke-width="0.5" stroke-linecap="round" stroke-linejoin="round"/>
<path d="M532.416 118.216L526.528 110.698L499.436 111.656L472.008 117.454L444.27 130.141L416.465 146.794L388.778 164.013L361.249 179.218L333.872 190.633L306.545 197.242L279.168 198.725L251.614 195.486L223.818 188.639L195.719 179.729L167.176 166.216L138.18 150.053L108.823 134.638L79.2982 122.574L75.9935 104.04L72.932 89.0864L70.206 78.7283L67.782 73.1051L65.7354 71.8811" stroke="#D2FF00" stroke-width="0.5" stroke-linecap="round" stroke-linejoin="round"/>
<path d="M488.197 134.002L495.956 139.709L503.488 153.026" stroke="#D2FF00" stroke-width="0.5" stroke-linecap="round" stroke-linejoin="round"/>
<path d="M380.794 225.113L374.419 219.231" stroke="#D2FF00" stroke-width="0.5" stroke-linecap="round" stroke-linejoin="round"/>
<path d="M457.959 153.34L465.399 157.607L472.696 168.909" stroke="#D2FF00" stroke-width="0.5" stroke-linecap="round" stroke-linejoin="round"/>
<path d="M12.4151 58.781L4.15332 55.9344" stroke="#D2FF00" stroke-width="0.5" stroke-linecap="round" stroke-linejoin="round"/>
<path d="M350.539 239.311L344.542 234.443L338.671 233.009L332.925 233.485L329.276 234.597L319.362 237.618L303.996 242.311L275.017 245.025L270.202 242.493L265.48 237.324L260.825 227.624L256.195 212.579L251.615 195.486L247.111 178.127L242.682 161.74L238.354 147.213L234.135 135.044L230.034 125.364L226.05 117.929L222.183 112.173L196.156 111.264L192.65 106.473L189.161 99.9757L185.629 89.9183L182.065 77.3571L178.517 63.3829" stroke="#D2FF00" stroke-width="0.5" stroke-linecap="round" stroke-linejoin="round"/>
<path d="M509.946 121.314L518.183 121.671L526.235 128.714L533.977 143.667" stroke="#D2FF00" stroke-width="0.5" stroke-linecap="round" stroke-linejoin="round"/>
<path d="M427.781 175.735L434.86 178.742L441.889 187.975" stroke="#D2FF00" stroke-width="0.5" stroke-linecap="round" stroke-linejoin="round"/>
<path d="M12.1302 57.1162L5.21875 54.3536" stroke="#D2FF00" stroke-width="0.5" stroke-linecap="round" stroke-linejoin="round"/>
<path d="M320.402 248.871L314.799 244.542L285.039 248.857L255.129 247.221L250.432 244.381L245.852 241.849L241.382 238.199L236.978 231.897L232.583 221.266L228.179 205.739L223.818 188.639L219.515 171.678L215.313 156.033L211.228 142.485L207.269 131.421L203.444 122.839L199.745 116.363L196.155 111.264" stroke="#D2FF00" stroke-width="0.5" stroke-linecap="round" stroke-linejoin="round"/>
<path d="M198.412 233.939L194.31 228.868L190.351 225.196L186.493 221.679L184.228 220.762L182.383 220.007L157.983 210.089L156.239 209.376L152.766 203.956L149.252 195.78L145.628 183.47L141.887 166.901L138.18 150.053L134.59 134.736L131.176 122.084L127.964 112.684L124.97 106.592L122.168 103.368" stroke="#D2FF00" stroke-width="0.5" stroke-linecap="round" stroke-linejoin="round"/>
<path d="M229.387 244.808L224.917 239.968L220.589 236.653L216.378 233.596L214.256 232.75L189.437 222.854L186.493 221.679L182.693 216.986L178.894 209.684L175.027 198.263L171.085 182.484L167.176 166.216L163.368 151.081L159.703 138.086L156.197 127.791L152.867 120.3L149.696 115.306L139.489 110.872L123.711 104.032L122.168 103.368" stroke="#D2FF00" stroke-width="0.5" stroke-linecap="round" stroke-linejoin="round"/>
<path d="M290.266 253.082L285.04 248.857L279.957 246.626L275.017 245.024L257.076 243.066L246.331 241.898L245.853 241.849L243.471 241.178L223.106 235.477L216.731 233.694L216.379 233.596L212.244 229.435L208.142 222.678L204.024 211.733L199.847 196.213L195.72 179.728L191.661 163.873L187.718 149.696L183.919 137.827L180.253 128.511L176.739 121.594L155.468 116.642L149.697 115.306L146.669 112.075L145.612 111.683L137.963 108.865L123.452 103.514L121.959 103.13L120.307 102.36" stroke="#D2FF00" stroke-width="0.5" stroke-linecap="round" stroke-linejoin="round"/>
<path d="M259.977 251.676L255.129 247.221L251.33 246.312L239.973 243.584L224.917 239.968L221.453 238.709L203.73 232.289L194.31 228.869L191.442 227.799L163.335 217.301L163.083 217.224L160.844 216.559L132.116 208.068L128.912 204.124L125.767 199.655L122.596 193.416L92.3836 187.555L62.3055 187.583L32.5293 193.682" stroke="#D2FF00" stroke-width="0.5" stroke-linecap="round" stroke-linejoin="round"/>
<path d="M167.059 222.315L163.335 217.301L159.745 213.398L156.239 209.376L149.805 207.327L125.766 199.655L95.2353 194.598L64.8469 195.332L34.752 201.977" stroke="#D2FF00" stroke-width="0.5" stroke-linecap="round" stroke-linejoin="round"/>
<path d="M320.31 102.864L315.587 98.5767L310.983 90.114L306.47 78.2312L302.024 63.9493" stroke="#D2FF00" stroke-width="0.5" stroke-linecap="round" stroke-linejoin="round"/>
<path d="M135.429 212.733L132.116 208.068L128.341 207.474L100.813 203.158L69.611 203.669L38.6689 209.747" stroke="#D2FF00" stroke-width="0.5" stroke-linecap="round" stroke-linejoin="round"/>
<path d="M114.268 99.0875L111.743 94.3176L96.1753 89.2609L96.125 89.2469" stroke="#D2FF00" stroke-width="0.5" stroke-linecap="round" stroke-linejoin="round"/>
<path d="M170.079 112.446L166.858 108.117L163.62 101.549L160.29 91.2891L156.927 78.4551L153.538 64.1593" stroke="#D2FF00" stroke-width="0.5" stroke-linecap="round" stroke-linejoin="round"/>
<path d="M11.2834 52.6265L6.125 50.3674" stroke="#D2FF00" stroke-width="0.5" stroke-linecap="round" stroke-linejoin="round"/>
<path d="M103.689 207.18L100.813 203.159L98.0195 199.396" stroke="#D2FF00" stroke-width="0.5" stroke-linecap="round" stroke-linejoin="round"/>
<path d="M48.4736 62.5504L52.441 62.8232L77.9395 64.229L103.287 65.0472L128.484 65.0753L153.537 64.159L178.516 63.3827L203.452 64.8654L228.288 66.9147L252.981 68.0617L277.549 67.2714L302.024 63.9492L326.474 57.9134L350.933 49.4016L375.45 39.0645L400.026 28.0069L424.61 17.7677L449.161 9.60564L473.594 4.03142L497.859 1.19189" stroke="#D2FF00" stroke-width="0.5" stroke-linecap="round" stroke-linejoin="round"/>
<path d="M6.99707 45.5762L9.93275 46.9261L11.2832 52.6261L11.6103 54.011L40.9251 64.4041L55.5699 71.566L70.2064 78.7278L85.3294 87.4494L99.2613 95.4925L100.679 96.3387L118.477 106.998L127.964 112.684L128.752 113.103L156.197 127.791L183.918 137.827L211.228 142.485L238.354 147.213L265.27 150.403L292.01 150.612L318.649 147.059L345.271 139.548L371.961 128.511L398.759 114.999L425.659 100.703L452.583 88.0229L479.365 79.5322L505.928 75.1748L532.241 73.839L558.326 74.4824" stroke="#D2FF00" stroke-width="0.5" stroke-linecap="round" stroke-linejoin="round"/>
<path d="M489.153 130.631L485.974 131.106L484.339 131.883L478.35 134.729L477.847 134.974L457.582 144.598L429.073 163.279L417.548 171.392L400.68 183.261L384.392 193.857L372.506 201.585L344.533 216.119L316.678 225.568L288.814 229.345L260.825 227.624L232.583 221.266L204.023 211.733L175.027 198.263L145.628 183.471L115.953 170.665L112.38 152.858L108.823 134.638L105.41 118.175L102.206 104.879L99.2615 95.4929L96.5942 90.1075L93.9102 88.5269" stroke="#D2FF00" stroke-width="0.5" stroke-linecap="round" stroke-linejoin="round"/>
<path d="M40.5562 211.824L38.6689 209.747L36.7649 206.935L34.7519 201.977L32.5291 193.682L30.0296 181.099L27.1694 163.461L23.9234 140.401L20.4929 114.558L17.1546 89.7995L14.1517 69.0132L12.8685 61.4667L12.7427 60.7113L12.4155 58.781L12.1304 57.1164L11.6104 54.0111" stroke="#D2FF00" stroke-width="0.5" stroke-linecap="round" stroke-linejoin="round"/>
<path d="M53.2718 65.1387L52.4414 62.8237" stroke="#D2FF00" stroke-width="0.5" stroke-linecap="round" stroke-linejoin="round"/>
<path d="M508.655 121.895L506.533 120.314L478.845 125.665L450.797 138.666L422.656 156.319L394.633 174.944L366.795 191.73L339.132 204.711L311.562 212.691L283.958 215.223L256.195 212.579L228.18 205.739L199.847 196.213L171.085 182.484L141.888 166.901L112.38 152.857L82.7549 142.877L53.2052 138.541L23.9238 140.401" stroke="#D2FF00" stroke-width="0.5" stroke-linecap="round" stroke-linejoin="round"/>
<path d="M83.7443 82.211L82.8887 80.2317L77.7891 78.7909" stroke="#D2FF00" stroke-width="0.5" stroke-linecap="round" stroke-linejoin="round"/>
<path d="M1 59.1305L2.48463 59.2424" stroke="#D2FF00" stroke-width="0.5" stroke-linecap="round" stroke-linejoin="round"/>
<path d="M1 59.1305L2.1575 59.718L12.8686 61.4665" stroke="#D2FF00" stroke-width="0.5" stroke-linecap="round" stroke-linejoin="round"/>
<path d="M12.7422 60.7111L8.90071 59.718L3.17188 58.2352" stroke="#D2FF00" stroke-width="0.5" stroke-linecap="round" stroke-linejoin="round"/>
<path d="M2.15723 59.7181L2.48436 59.2426L3.1721 58.2354L4.15349 55.9344L5.21874 54.3538L6.12457 50.3671L6.99692 45.5762L8.09565 43.1772" stroke="#D2FF00" stroke-width="0.5" stroke-linecap="round" stroke-linejoin="round"/>
<path d="M457.96 153.34L444.347 163.44L427.781 175.735L420.727 177.435L413.791 181.456L408.884 185.072L393.241 196.585L387.907 200.515L384.744 202.844L380.366 205.586L357.677 219.798L355.949 220.882L352.091 222.644L332.657 231.541L328.228 233.562L327.348 233.968L298.813 241.241L270.202 242.493L241.383 238.199L239.319 237.583L212.244 229.435L210.39 228.652L185.714 218.259L182.694 216.986L181.126 216.308L152.767 203.956L122.596 193.416L119.35 184.17L89.3897 177.141L59.5548 176.022L30.0303 181.1" stroke="#D2FF00" stroke-width="0.5" stroke-linecap="round" stroke-linejoin="round"/>
<path d="M464.838 143.772L463.529 144.66L454.035 151.081L450.059 153.767L435.901 163.348L422.304 173.406L415.007 178.805L407.08 184.673L391.001 195.899L378.487 204.627L350.128 220.951L321.929 232.197L293.755 237.66L265.48 237.324L236.979 231.897L208.142 222.679L206.8 222.084L178.894 209.684L149.252 195.78L119.35 184.17L115.953 170.664L86.1855 162.278L56.5351 159.739L27.1699 163.46" stroke="#D2FF00" stroke-width="0.5" stroke-linecap="round" stroke-linejoin="round"/>
<path d="M427.781 175.735L413.765 186.149L397.82 198.004L394.893 199.948L383.771 207.313L368.128 217.685L362.139 220.797L354.54 224.756L347.771 228.274L338.67 233.009L331.625 235.366L324.219 237.849L309.322 242.835L279.957 246.626L267.778 245.703L250.432 244.381L244.662 242.884L222.25 237.079L220.589 236.653L218.693 235.932L201.624 229.47L191.769 225.735L190.351 225.196L186.116 223.567L160.718 213.775L159.745 213.398L152.791 211.306L129.423 204.277L128.912 204.124L120.482 202.837L98.0201 199.396L95.2354 194.598L92.3836 187.555L89.3892 177.141L86.1851 162.278L82.7545 142.877L79.2988 122.573" stroke="#D2FF00" stroke-width="0.5" stroke-linecap="round" stroke-linejoin="round"/>
<path d="M9.93318 46.9262L9.59766 45.5204" stroke="#D2FF00" stroke-width="0.5" stroke-linecap="round" stroke-linejoin="round"/>
<path d="M374.419 219.231L344.542 234.443L314.799 244.542L309.322 242.836L303.996 242.311L298.813 241.241L293.755 237.66L288.814 229.344L283.958 215.223L279.169 198.724L274.455 181.631L269.816 165.216L265.27 150.403L260.816 137.771L256.463 127.539L252.227 119.608L248.092 113.53L244.058 108.564L218.408 107.173L214.676 100.92L210.935 91.1003L207.186 78.7279L203.453 64.8657" stroke="#D2FF00" stroke-width="0.5" stroke-linecap="round" stroke-linejoin="round"/>
<path d="M8.0957 43.1772L9.16095 43.6599L9.91586 44.0026L36.9996 56.347L38.761 57.7878L48.13 62.5577L48.5913 62.6137L53.3388 65.3483L61.7515 69.8454L65.7357 71.8807L67.8159 73.1746L68.9062 73.8181L77.6881 78.9797L83.6098 82.2948L94.1614 88.1838L95.0758 88.9042L96.5939 90.1072L99.0179 91.513L110.92 98.43L115.265 100.955L124.969 106.592L126.068 107.138L136.402 112.208L152.867 120.3L153.563 120.51L180.252 128.511L207.269 131.421L234.135 135.044L260.816 137.771L287.329 138.086L313.742 135.1L340.121 128.469L366.534 118.44L393.047 105.837L419.67 92.0655L446.334 79.1895L472.906 69.6427L499.302 63.9285L525.472 61.2289L551.431 60.6833" stroke="#D2FF00" stroke-width="0.5" stroke-linecap="round" stroke-linejoin="round"/>
<path d="M72.0188 206.802L40.5566 211.824" stroke="#D2FF00" stroke-width="0.5" stroke-linecap="round" stroke-linejoin="round"/>
<path d="M14.1514 69.0134L43.525 76.6928L72.9321 89.0862L102.205 104.879L102.717 105.179L131.176 122.084L131.696 122.378L159.702 138.086L187.717 149.696L215.313 156.033L242.681 161.74L269.816 165.216L296.773 165.111L323.639 160.761L350.513 152.144L377.463 139.884L404.546 125.28L431.739 110.334L458.924 97.7728L485.915 90.3242L512.638 87.2538L539.101 87.1979L565.313 88.9254" stroke="#D2FF00" stroke-width="0.5" stroke-linecap="round" stroke-linejoin="round"/>
<path d="M98.0197 199.396L67.2538 200.298L36.7646 206.935" stroke="#D2FF00" stroke-width="0.5" stroke-linecap="round" stroke-linejoin="round"/>
<path d="M79.299 122.573L49.7913 115.614L20.4932 114.558" stroke="#D2FF00" stroke-width="0.5" stroke-linecap="round" stroke-linejoin="round"/>
<path d="M555.953 126.035L526.235 128.714L495.956 139.709L465.4 157.606L434.86 178.742L404.514 200.074L374.419 219.231L368.128 217.685L361.963 218.93L355.949 220.881L350.128 220.951L344.534 216.118L339.132 204.711L333.873 190.632L328.715 175.588L323.64 160.761L318.649 147.059L313.743 135.1L308.911 125.21L304.172 117.468L299.525 111.656L294.971 107.319L290.517 102.445L286.13 93.5551L281.811 81.4904L277.55 67.2716" stroke="#D2FF00" stroke-width="0.5" stroke-linecap="round" stroke-linejoin="round"/>
<path d="M17.1543 89.7996L46.5111 94.2268L75.9937 104.039L105.409 118.174L105.644 118.307L134.59 134.736L163.368 151.081L191.66 163.873L219.515 171.679L247.11 178.127L274.454 181.631L301.622 180.96L328.714 175.588L355.831 165.65L383.066 151.983L410.443 136.135L437.929 120.391L465.391 107.844L492.592 101.319L519.491 99.4023L546.097 100.486L572.442 103.172" stroke="#D2FF00" stroke-width="0.5" stroke-linecap="round" stroke-linejoin="round"/>
<path d="M390.926 70.2444L416.19 57.4034L441.503 45.2827L447.626 47.3949L453.875 49.8988L460.166 54.5219L466.515 61.1732L472.907 69.6429L479.365 79.5325L485.916 90.3242L492.593 101.319L499.437 111.656L506.533 120.315L518.074 120.196" stroke="#D2FF00" stroke-width="0.5" stroke-linecap="round" stroke-linejoin="round"/>
<path d="M623.029 142.611L593.638 141.08L563.929 141.576L533.977 143.667L503.488 153.025L472.697 168.909L441.889 187.974L411.232 207.446L380.793 225.113L350.539 239.311L320.402 248.871L290.265 253.082L259.977 251.676L235.301 246.137L229.388 244.808L198.412 233.939L167.059 222.315L135.429 212.733L103.69 207.18L72.0185 206.802L69.6112 203.669L67.2542 200.298L64.847 195.332L62.3055 187.583L59.5543 176.022L56.5348 159.74L53.2049 138.541L49.7912 115.614L46.5116 94.2267L43.5255 76.6926L40.9254 64.4042L38.6691 57.4871L37 56.347" stroke="#D2FF00" stroke-width="0.5" stroke-linecap="round" stroke-linejoin="round"/>
<path d="M371.013 85.1482L396.478 72.8387L422.035 59.641L428.007 61.886L434.046 65.9076L440.152 71.7197L446.334 79.1893L452.583 88.0228L458.924 97.7724L465.391 107.844L472.009 117.454L478.844 125.665L485.974 131.106L489.614 130.421" stroke="#D2FF00" stroke-width="0.5" stroke-linecap="round" stroke-linejoin="round"/>
<path d="M652 146.654L623.029 142.611L614.314 129.434L585.335 126.371L555.953 126.035L547.616 118.328L539.044 117.307L532.417 118.216L518.074 120.195L509.947 121.314L508.655 121.895L503.597 124.161L489.615 130.42L489.154 130.63L486.755 131.7L485.706 132.176L480.322 134.582L472.479 138.988L465.224 143.73L457.969 148.913L454.714 151.472L450.478 154.648L450.092 154.941L439.071 163.383L424.67 174.413L420.727 177.434L418.177 179.351L410.201 185.365L394.709 197.038L391.211 199.675L384.744 202.843L378.487 204.627L372.507 201.585L366.795 191.73L361.25 179.218L355.832 165.649L350.514 152.144L345.272 139.548L340.122 128.469L335.039 119.258L330.04 112.04L325.125 106.683L320.31 102.864L294.971 107.319L269.573 108.998L244.058 108.564L240.091 102.668L214.676 100.92L189.161 99.9754L163.62 101.549L137.854 100.073L111.743 94.3173L108.983 86.4909L82.8892 80.2313L80.4399 72.9994L77.9404 64.229" stroke="#D2FF00" stroke-width="0.5" stroke-linecap="round" stroke-linejoin="round"/>
<path d="M605.23 123.21L611.119 124.588L633.388 129.806L642.866 135.1" stroke="#D2FF00" stroke-width="0.5" stroke-linecap="round" stroke-linejoin="round"/>
<path d="M539.043 117.307L557.16 117.915L567.687 118.272L576.637 119.153L585.334 126.371L593.638 141.08" stroke="#D2FF00" stroke-width="0.5" stroke-linecap="round" stroke-linejoin="round"/>
<path d="M441.503 45.2824L466.783 35.253L491.972 27.4058L498.623 30.0634L523.928 24.776" stroke="#D2FF00" stroke-width="0.5" stroke-linecap="round" stroke-linejoin="round"/>
<path d="M340.649 91.7229L365.745 82.0572L390.925 70.2443L396.478 72.839L402.156 75.203L407.918 79.1686L413.756 84.8128L419.67 92.0656L425.658 100.703L431.739 110.334L437.929 120.391L444.271 130.141L450.796 138.667L457.582 144.598L465.223 143.73L472.478 138.989" stroke="#D2FF00" stroke-width="0.5" stroke-linecap="round" stroke-linejoin="round"/>
<path d="M115.013 99.4857L119.894 100.745L140.822 106.144L166.857 108.116L192.649 106.473L218.407 107.172L222.182 112.173L248.091 113.53L273.867 113.733L299.524 111.655L325.124 106.683L350.731 98.6604L376.397 87.8966L402.156 75.2025L428.007 61.8858L453.874 49.8982L479.666 40.687L505.332 34.1266L530.839 29.8743" stroke="#D2FF00" stroke-width="0.5" stroke-linecap="round" stroke-linejoin="round"/>
<path d="M320.31 102.864L345.632 95.3947L371.013 85.1484L376.398 87.8971L381.867 92.1845L387.419 98.1644L393.047 105.837L398.759 114.999L404.547 125.28L410.443 136.135L416.466 146.794L422.656 156.32L429.072 163.279L435.9 163.349L443.08 159.096L450.478 154.648L457.96 153.34L474.676 142.646L488.197 134.002" stroke="#D2FF00" stroke-width="0.5" stroke-linecap="round" stroke-linejoin="round"/>
<path d="M108.983 86.4917L134.784 90.5483L160.291 91.2896L185.63 89.9188L210.935 91.1007L236.132 93.115L261.194 94.325L286.131 93.5556L310.983 90.1146L335.811 83.7291L360.672 74.5879L385.6 63.3065L410.604 50.99L435.649 39.3171L460.67 29.6653L485.598 22.2446L510.408 16.9851L517.06 21.6151" stroke="#D2FF00" stroke-width="0.5" stroke-linecap="round" stroke-linejoin="round"/>
<path d="M170.078 112.446L196.155 111.264" stroke="#D2FF00" stroke-width="0.5" stroke-linecap="round" stroke-linejoin="round"/>
<path d="M537.718 37.8267L512.044 40.89L486.184 46.2824L460.166 54.5214L434.047 65.9076L407.919 79.1683L381.867 92.1842L355.916 103.459L330.04 112.04L304.172 117.468L278.254 119.811L252.228 119.608L226.05 117.929L199.746 116.362L173.358 116.53L153.404 113.201L147.768 112.257L146.669 112.075L143.733 109.508L140.823 106.144L137.853 100.073L134.784 90.5476L131.647 78.5598L128.484 65.0753" stroke="#D2FF00" stroke-width="0.5" stroke-linecap="round" stroke-linejoin="round"/>
<path d="M544.57 48.2549L518.745 50.0594L492.726 54.1369L466.515 61.1729L440.152 71.7199L413.757 84.8127L387.419 98.1643L361.191 110.04L335.038 119.258L308.911 125.21L282.741 127.819L256.463 127.539L230.033 125.364L203.444 122.839L176.738 121.594L173.358 116.531L170.078 112.446L144.32 109.572L143.733 109.509L142.24 109.054L130.069 105.333L121.69 102.822L120.306 102.361L120.247 102.326L115.013 99.4861L114.267 99.0875L113.218 98.514L101.19 91.9955L96.1829 89.2749L96.1242 89.2469L94.0357 88.3587L83.6098 82.2948L83.5092 82.0781L78.4346 79.1615L77.7888 78.7908L68.8727 73.6782L67.7823 73.1047L61.7515 69.8455L53.3388 65.3483L48.13 62.5577L42.829 59.4944L38.6688 57.4871L10.2178 45.7791L9.59713 45.5203L8.0957 43.1772" stroke="#D2FF00" stroke-width="0.5" stroke-linecap="round" stroke-linejoin="round"/>
<path d="M240.09 102.668L265.362 103.571L290.516 102.445L315.587 98.5768L340.649 91.7227L345.632 95.3945L350.731 98.6608L355.915 103.459L361.191 110.04L366.534 118.44L371.961 128.511L377.463 139.883L383.066 151.983L388.778 164.013L394.632 174.945L400.68 183.26L407.08 184.673L413.79 181.456L418.294 178.015L423.603 173.965L437.485 163.369L443.08 159.096L449.278 154.858L454.713 151.473L460.987 147.584L467.026 143.52L480.321 134.582L488.197 134.002L500.585 128.91L503.026 127.91L511.85 124.28L518.183 121.671L547.615 118.328L576.636 119.153L582.457 119.979L605.23 123.21L614.314 129.434L642.865 135.1L651.999 146.654" stroke="#D2FF00" stroke-width="0.5" stroke-linecap="round" stroke-linejoin="round"/>
<path d="M121.631 102.745L120.247 102.326" stroke="#D2FF00" stroke-width="0.5" stroke-linecap="round" stroke-linejoin="round"/>
<path d="M555.952 126.035L563.929 141.576" stroke="#D2FF00" stroke-width="0.5" stroke-linecap="round" stroke-linejoin="round"/>
<path d="M62.0703 69.9013L62.364 69.9503L62.733 70.0133L80.4393 72.9996L106.156 76.5177L131.646 78.5599L156.926 78.455L182.064 77.357L207.185 78.7278L232.197 80.847L257.067 82.1409L281.81 81.4904L306.47 78.2312L331.096 72.1324L355.739 63.3829L380.449 52.6121L405.226 40.9111L430.037 29.8885L454.806 20.9362L479.482 14.3758L504.016 10.2423" stroke="#D2FF00" stroke-width="0.5" stroke-linecap="round" stroke-linejoin="round"/>
<path d="M326.475 57.9136L331.096 72.1324L335.81 83.7285L340.65 91.7226" stroke="#D2FF00" stroke-width="0.5" stroke-linecap="round" stroke-linejoin="round"/>
<path d="M350.934 49.4019L355.74 63.3829L360.672 74.5873L365.746 82.057L371.014 85.1483" stroke="#D2FF00" stroke-width="0.5" stroke-linecap="round" stroke-linejoin="round"/>
<path d="M375.45 39.0646L380.449 52.612L385.599 63.3058L390.925 70.2439" stroke="#D2FF00" stroke-width="0.5" stroke-linecap="round" stroke-linejoin="round"/>
<path d="M400.026 28.0072L405.227 40.9111L410.603 50.9895L416.189 57.4031L422.036 59.6411L447.626 47.3946L473.175 37.5331L479.667 40.6874L486.184 46.2826L492.727 54.1369L499.303 63.9285L505.929 75.1748L512.639 87.2535L519.492 99.4021L526.529 110.697L553.302 112.733L557.161 117.915" stroke="#D2FF00" stroke-width="0.5" stroke-linecap="round" stroke-linejoin="round"/>
<path d="M424.61 17.7683L430.037 29.8889L435.648 39.3169L441.503 45.2828" stroke="#D2FF00" stroke-width="0.5" stroke-linecap="round" stroke-linejoin="round"/>
<path d="M449.161 9.60571L454.806 20.9361L460.669 29.6646L466.784 35.2528L473.175 37.5329L498.623 30.0632L505.333 34.1268L512.043 40.89L518.745 50.0592L525.472 61.2286L532.241 73.8389L539.102 87.1974L546.097 100.486L553.302 112.733L579.807 116.251" stroke="#D2FF00" stroke-width="0.5" stroke-linecap="round" stroke-linejoin="round"/>
<path d="M473.594 4.03162L479.482 14.3758L485.597 22.2441L491.971 27.4057L517.059 21.6146L523.928 24.7759L530.84 29.8746L537.717 37.8268L544.57 48.2548L551.431 60.6832L558.326 74.4824L565.313 88.925L572.442 103.172L579.807 116.251L582.457 119.978" stroke="#D2FF00" stroke-width="0.5" stroke-linecap="round" stroke-linejoin="round"/>
<path d="M497.859 1.19189L504.016 10.2421L510.407 16.9844" stroke="#D2FF00" stroke-width="0.5" stroke-linecap="round" stroke-linejoin="round"/>
<path d="M108.983 86.4912L106.157 76.5177L103.288 65.0475" stroke="#D2FF00" stroke-width="0.5" stroke-linecap="round" stroke-linejoin="round"/>
<path d="M240.091 102.668L236.132 93.1142L232.198 80.8468L228.289 66.9147" stroke="#D2FF00" stroke-width="0.5" stroke-linecap="round" stroke-linejoin="round"/>
<path d="M411.232 207.446L404.513 200.074L397.82 198.004L391.21 199.675L387.671 202.011L381.422 206.117L376.867 209.117L370.753 213.146L365.015 216.922L361.962 218.93L358.129 220.853L352.996 223.427L347.443 226.203L335.449 232.218L332.924 233.484L327.347 233.967L321.928 232.197L316.677 225.567L311.561 212.691L306.545 197.241L301.621 180.959L296.773 165.111L292.009 150.612L287.329 138.086L282.741 127.819L278.254 119.811L273.867 113.733L269.572 108.998L265.362 103.57L261.193 94.3243L257.066 82.1407L252.981 68.0618" stroke="#D2FF00" stroke-width="0.5" stroke-linecap="round" stroke-linejoin="round"/>
<path d="M532.416 118.216L526.528 110.698L499.436 111.656L472.008 117.454L444.27 130.141L416.465 146.794L388.778 164.013L361.249 179.218L333.872 190.633L306.545 197.242L279.168 198.725L251.614 195.486L223.818 188.639L195.719 179.729L167.176 166.216L138.18 150.053L108.823 134.638L79.2982 122.574L75.9935 104.039L72.932 89.0863L70.206 78.7282L67.782 73.1049L65.7354 71.881" stroke="#D2FF00" stroke-width="0.5" stroke-linecap="round" stroke-linejoin="round"/>
<path d="M488.197 134.002L495.956 139.709L503.488 153.026" stroke="#D2FF00" stroke-width="0.5" stroke-linecap="round" stroke-linejoin="round"/>
<path d="M380.794 225.113L374.419 219.231" stroke="#D2FF00" stroke-width="0.5" stroke-linecap="round" stroke-linejoin="round"/>
<path d="M457.959 153.34L465.399 157.607L472.696 168.909" stroke="#D2FF00" stroke-width="0.5" stroke-linecap="round" stroke-linejoin="round"/>
<path d="M12.4151 58.7807L4.15332 55.9342" stroke="#D2FF00" stroke-width="0.5" stroke-linecap="round" stroke-linejoin="round"/>
<path d="M350.539 239.311L344.542 234.443L338.671 233.009L332.925 233.485L329.276 234.597L319.362 237.618L303.996 242.311L275.017 245.025L270.202 242.493L265.48 237.324L260.825 227.624L256.195 212.579L251.615 195.486L247.111 178.127L242.682 161.74L238.354 147.213L234.135 135.044L230.034 125.364L226.05 117.929L222.183 112.173L196.156 111.264L192.65 106.473L189.161 99.9757L185.629 89.9183L182.065 77.3571L178.517 63.3829" stroke="#D2FF00" stroke-width="0.5" stroke-linecap="round" stroke-linejoin="round"/>
<path d="M509.946 121.315L518.183 121.671L526.235 128.714L533.977 143.667" stroke="#D2FF00" stroke-width="0.5" stroke-linecap="round" stroke-linejoin="round"/>
<path d="M427.781 175.735L434.86 178.742L441.889 187.975" stroke="#D2FF00" stroke-width="0.5" stroke-linecap="round" stroke-linejoin="round"/>
<path d="M12.1302 57.116L5.21875 54.3534" stroke="#D2FF00" stroke-width="0.5" stroke-linecap="round" stroke-linejoin="round"/>
<path d="M320.402 248.872L314.799 244.542L285.039 248.858L255.129 247.221L250.432 244.381L245.852 241.849L241.382 238.199L236.978 231.897L232.583 221.266L228.179 205.739L223.818 188.639L219.515 171.679L215.313 156.033L211.228 142.485L207.269 131.421L203.444 122.839L199.745 116.363L196.155 111.264" stroke="#D2FF00" stroke-width="0.5" stroke-linecap="round" stroke-linejoin="round"/>
<path d="M198.412 233.939L194.31 228.868L190.351 225.196L186.493 221.679L184.228 220.762L182.383 220.007L157.983 210.089L156.239 209.376L152.766 203.956L149.252 195.78L145.628 183.47L141.887 166.901L138.18 150.053L134.59 134.736L131.176 122.084L127.964 112.684L124.97 106.592L122.168 103.368" stroke="#D2FF00" stroke-width="0.5" stroke-linecap="round" stroke-linejoin="round"/>
<path d="M229.387 244.808L224.917 239.968L220.589 236.653L216.378 233.596L214.256 232.75L189.437 222.854L186.493 221.679L182.693 216.986L178.894 209.684L175.027 198.263L171.085 182.484L167.176 166.216L163.368 151.081L159.703 138.086L156.197 127.791L152.867 120.3L149.696 115.306L139.489 110.872L123.711 104.032L122.168 103.368" stroke="#D2FF00" stroke-width="0.5" stroke-linecap="round" stroke-linejoin="round"/>
<path d="M290.266 253.082L285.04 248.857L279.957 246.626L275.017 245.024L257.076 243.066L246.331 241.898L245.853 241.849L243.471 241.178L223.106 235.477L216.731 233.694L216.379 233.596L212.244 229.435L208.142 222.678L204.024 211.733L199.847 196.213L195.72 179.728L191.661 163.873L187.718 149.696L183.919 137.827L180.253 128.511L176.739 121.594L155.468 116.642L149.697 115.306L146.669 112.075L145.612 111.683L137.963 108.865L123.452 103.514L121.959 103.13L120.307 102.36" stroke="#D2FF00" stroke-width="0.5" stroke-linecap="round" stroke-linejoin="round"/>
<path d="M259.977 251.676L255.129 247.221L251.33 246.311L239.973 243.584L224.917 239.968L221.453 238.709L203.73 232.289L194.31 228.868L191.442 227.798L163.335 217.3L163.083 217.223L160.844 216.559L132.116 208.068L128.912 204.124L125.767 199.654L122.596 193.416L92.3836 187.555L62.3055 187.583L32.5293 193.682" stroke="#D2FF00" stroke-width="0.5" stroke-linecap="round" stroke-linejoin="round"/>
<path d="M167.059 222.315L163.335 217.301L159.745 213.398L156.239 209.376L149.805 207.327L125.766 199.655L95.2353 194.598L64.8469 195.332L34.752 201.977" stroke="#D2FF00" stroke-width="0.5" stroke-linecap="round" stroke-linejoin="round"/>
<path d="M320.31 102.864L315.587 98.5767L310.983 90.114L306.47 78.2312L302.024 63.9493" stroke="#D2FF00" stroke-width="0.5" stroke-linecap="round" stroke-linejoin="round"/>
<path d="M135.429 212.733L132.116 208.068L128.341 207.474L100.813 203.158L69.611 203.669L38.6689 209.747" stroke="#D2FF00" stroke-width="0.5" stroke-linecap="round" stroke-linejoin="round"/>
<path d="M114.268 99.0875L111.743 94.3176L96.1753 89.2609L96.125 89.2469" stroke="#D2FF00" stroke-width="0.5" stroke-linecap="round" stroke-linejoin="round"/>
<path d="M170.079 112.446L166.858 108.117L163.62 101.549L160.29 91.2891L156.927 78.4551L153.538 64.1593" stroke="#D2FF00" stroke-width="0.5" stroke-linecap="round" stroke-linejoin="round"/>
<path d="M11.2834 52.6262L6.125 50.3672" stroke="#D2FF00" stroke-width="0.5" stroke-linecap="round" stroke-linejoin="round"/>
<path d="M103.689 207.18L100.813 203.159L98.0195 199.396" stroke="#D2FF00" stroke-width="0.5" stroke-linecap="round" stroke-linejoin="round"/>
<path d="M48.4736 62.5504L52.441 62.8232L77.9395 64.229L103.287 65.0472L128.484 65.0753L153.537 64.159L178.516 63.3827L203.452 64.8654L228.288 66.9147L252.981 68.0617L277.549 67.2714L302.024 63.9492L326.474 57.9134L350.933 49.4016L375.45 39.0645L400.026 28.0069L424.61 17.7677L449.161 9.60564L473.594 4.03142L497.859 1.19189" stroke="#D2FF00" stroke-width="0.5" stroke-linecap="round" stroke-linejoin="round"/>
<path d="M6.99707 45.5762L9.93275 46.9261L11.2832 52.6261L11.6103 54.011L40.9251 64.4041L55.5699 71.566L70.2064 78.7278L85.3294 87.4494L99.2613 95.4925L100.679 96.3387L118.477 106.998L127.964 112.684L128.752 113.103L156.197 127.791L183.918 137.827L211.228 142.485L238.354 147.213L265.27 150.403L292.01 150.612L318.649 147.059L345.271 139.548L371.961 128.511L398.759 114.999L425.659 100.703L452.583 88.0229L479.365 79.5322L505.928 75.1748L532.241 73.839L558.326 74.4824" stroke="#D2FF00" stroke-width="0.5" stroke-linecap="round" stroke-linejoin="round"/>
<path d="M489.153 130.631L485.974 131.106L484.339 131.883L478.35 134.729L477.847 134.974L457.582 144.598L429.073 163.279L417.548 171.392L400.68 183.261L384.392 193.857L372.506 201.585L344.533 216.119L316.678 225.568L288.814 229.345L260.825 227.624L232.583 221.266L204.023 211.733L175.027 198.263L145.628 183.471L115.953 170.665L112.38 152.858L108.823 134.638L105.41 118.175L102.206 104.879L99.2615 95.4929L96.5942 90.1075L93.9102 88.5269" stroke="#D2FF00" stroke-width="0.5" stroke-linecap="round" stroke-linejoin="round"/>
<path d="M40.5562 211.824L38.6689 209.747L36.7649 206.935L34.7519 201.977L32.5291 193.682L30.0296 181.1L27.1694 163.461L23.9234 140.401L20.4929 114.558L17.1546 89.7996L14.1517 69.0134L12.8685 61.4668L12.7427 60.7115L12.4155 58.7811L12.1304 57.1165L11.6104 54.0112" stroke="#D2FF00" stroke-width="0.5" stroke-linecap="round" stroke-linejoin="round"/>
<path d="M53.2718 65.1385L52.4414 62.8235" stroke="#D2FF00" stroke-width="0.5" stroke-linecap="round" stroke-linejoin="round"/>
<path d="M508.655 121.895L506.533 120.314L478.845 125.665L450.797 138.666L422.656 156.319L394.633 174.944L366.795 191.73L339.132 204.711L311.562 212.691L283.958 215.223L256.195 212.579L228.18 205.739L199.847 196.213L171.085 182.484L141.888 166.901L112.38 152.857L82.7549 142.877L53.2052 138.541L23.9238 140.401" stroke="#D2FF00" stroke-width="0.5" stroke-linecap="round" stroke-linejoin="round"/>
<path d="M83.7443 82.211L82.8887 80.2317L77.7891 78.7909" stroke="#D2FF00" stroke-width="0.5" stroke-linecap="round" stroke-linejoin="round"/>
<path d="M1 59.1305L2.48463 59.2424" stroke="#D2FF00" stroke-width="0.5" stroke-linecap="round" stroke-linejoin="round"/>
<path d="M1 59.1305L2.1575 59.718L12.8686 61.4665" stroke="#D2FF00" stroke-width="0.5" stroke-linecap="round" stroke-linejoin="round"/>
<path d="M12.7422 60.7113L8.90071 59.7181L3.17188 58.2354" stroke="#D2FF00" stroke-width="0.5" stroke-linecap="round" stroke-linejoin="round"/>
<path d="M2.15723 59.7181L2.48436 59.2426L3.1721 58.2354L4.15349 55.9344L5.21874 54.3538L6.12457 50.3671L6.99692 45.5762L8.09565 43.1772" stroke="#D2FF00" stroke-width="0.5" stroke-linecap="round" stroke-linejoin="round"/>
<path d="M457.96 153.34L444.347 163.44L427.781 175.735L420.727 177.435L413.791 181.456L408.884 185.072L393.241 196.584L387.907 200.515L384.744 202.844L380.366 205.586L357.677 219.797L355.949 220.882L352.091 222.644L332.657 231.54L328.228 233.562L327.348 233.967L298.813 241.241L270.202 242.493L241.383 238.199L239.319 237.583L212.244 229.435L210.39 228.652L185.714 218.259L182.694 216.986L181.126 216.307L152.767 203.956L122.596 193.416L119.35 184.17L89.3897 177.141L59.5548 176.022L30.0303 181.1" stroke="#D2FF00" stroke-width="0.5" stroke-linecap="round" stroke-linejoin="round"/>
<path d="M464.838 143.772L463.529 144.66L454.035 151.081L450.059 153.767L435.901 163.348L422.304 173.406L415.007 178.805L407.08 184.673L391.001 195.899L378.487 204.627L350.128 220.951L321.929 232.197L293.755 237.66L265.48 237.324L236.979 231.897L208.142 222.679L206.8 222.084L178.894 209.684L149.252 195.78L119.35 184.17L115.953 170.664L86.1855 162.278L56.5351 159.739L27.1699 163.46" stroke="#D2FF00" stroke-width="0.5" stroke-linecap="round" stroke-linejoin="round"/>
<path d="M427.781 175.735L413.765 186.149L397.82 198.004L394.893 199.948L383.771 207.313L368.128 217.685L362.139 220.797L354.54 224.756L347.771 228.274L338.67 233.009L331.625 235.366L324.219 237.849L309.322 242.835L279.957 246.626L267.778 245.703L250.432 244.381L244.662 242.884L222.25 237.079L220.589 236.653L218.693 235.932L201.624 229.47L191.769 225.735L190.351 225.196L186.116 223.567L160.718 213.775L159.745 213.398L152.791 211.306L129.423 204.277L128.912 204.124L120.482 202.837L98.0201 199.396L95.2354 194.598L92.3836 187.555L89.3892 177.141L86.1851 162.278L82.7545 142.877L79.2988 122.573" stroke="#D2FF00" stroke-width="0.5" stroke-linecap="round" stroke-linejoin="round"/>
<path d="M9.93318 46.9262L9.59766 45.5204" stroke="#D2FF00" stroke-width="0.5" stroke-linecap="round" stroke-linejoin="round"/>
</svg>
