<svg width="24" height="24" viewBox="0 0 24 24" fill="none" xmlns="http://www.w3.org/2000/svg">
<path d="M12.0004 0C5.44306 0 0.130859 5.33339 0.130859 11.9152C0.130859 18.497 5.44383 23.8304 12.0004 23.8304C18.5578 23.8304 23.87 18.497 23.87 11.9152C23.87 5.33339 18.557 0 12.0004 0ZM17.8303 8.16305L15.8822 17.3785C15.7382 18.0319 15.3507 18.1903 14.8101 17.8828L11.8427 15.6873L10.4114 17.071C10.2537 17.2293 10.1197 17.3639 9.81336 17.3639L10.0239 14.332L15.523 9.34457C15.7627 9.13318 15.4702 9.01326 15.1539 9.22466L8.35762 13.5195L5.42851 12.6016C4.79215 12.4002 4.7776 11.9628 5.56253 11.6554L17.0063 7.22521C17.5378 7.03303 18.0018 7.35512 17.8295 8.16228L17.8303 8.16305Z" fill="#fff"/>
</svg>
