<svg width="280" height="200" viewBox="0 0 280 200" fill="none" xmlns="http://www.w3.org/2000/svg">
<mask id="mask0_5394_21983" style="mask-type:alpha" maskUnits="userSpaceOnUse" x="0" y="0" width="280" height="200">
<rect x="0.5" y="0.5" width="279" height="199" rx="9.5" fill="#212121" stroke="#D2FF00"/>
</mask>
<g mask="url(#mask0_5394_21983)">
<g opacity="0.3">
<line x1="28.4297" y1="-6" x2="28.4297" y2="433.144" stroke="#D2FF00"/>
<line x1="102.359" y1="-6" x2="102.359" y2="433.144" stroke="#D2FF00"/>
<line x1="176.289" y1="-6" x2="176.289" y2="433.144" stroke="#D2FF00"/>
<line x1="250.219" y1="-6" x2="250.219" y2="433.144" stroke="#D2FF00"/>
<line y1="66.5" x2="280" y2="66.5" stroke="#D2FF00"/>
<line y1="139.5" x2="280" y2="139.5" stroke="#D2FF00"/>
</g>
<path d="M-154 153.243C-145.628 130.814 -116.526 80.347 -67.0974 57.9064C-5.31228 29.8555 54.2728 87.4239 99.1908 118.408C157.309 146.671 201.824 114.477 242.745 63.4352C256.679 36.4844 252.499 42.6813 269.513 0" stroke="#D2FF00" stroke-width="0.366677" stroke-dasharray="0.73 0.73"/>
<path d="M237.875 58.9957C235.563 61.4438 235.662 65.2902 238.096 67.587C240.53 69.8838 244.377 69.7612 246.688 67.3131C249 64.865 248.901 61.0186 246.467 58.7218C244.033 56.425 240.186 56.5476 237.875 58.9957Z" fill="#D2FF00"/>
<path d="M237.817 58.9416C240.155 56.4657 244.06 56.3412 246.521 58.6643C248.983 60.9874 249.083 64.8912 246.745 67.3671C244.407 69.843 240.503 69.9674 238.041 67.6445C235.58 65.3216 235.479 61.4175 237.817 58.9416ZM246.631 67.2592C248.909 64.8468 248.811 61.0426 246.413 58.7793C244.014 56.516 240.21 56.6373 237.932 59.0497C235.654 61.4621 235.752 65.2662 238.15 67.5295C240.548 69.7929 244.353 69.6717 246.631 67.2592Z" fill="#212121"/>
<path d="M236.594 60.7758C236.614 60.7541 236.647 60.7449 236.677 60.7556C236.718 60.7698 236.74 60.8152 236.726 60.856C236.388 61.8421 236.87 63.046 238.05 64.1589C240.156 66.1458 243.815 67.1844 246.206 66.4739C247.253 66.1634 247.931 65.5426 248.068 64.7709C248.076 64.7282 248.116 64.6995 248.16 64.7075C248.202 64.7156 248.231 64.7566 248.224 64.7996C248.076 65.6318 247.357 66.2973 246.252 66.6255C243.813 67.3501 240.085 66.2951 237.942 64.2736C236.715 63.116 236.218 61.8516 236.576 60.8042C236.58 60.7934 236.586 60.7836 236.593 60.7758L236.594 60.7758Z" fill="#212121"/>
<path d="M238.365 58.4329C238.424 58.3707 238.487 58.3109 238.556 58.254C238.589 58.2263 238.639 58.231 238.667 58.2645C238.695 58.2979 238.692 58.3464 238.657 58.3755C238.248 58.7171 238.022 59.1661 238.008 59.6729C237.987 60.4362 238.434 61.2894 239.268 62.0759C241.128 63.8312 244.36 64.7486 246.472 64.1213C247.694 63.7587 248.304 62.9598 248.145 61.9313C248.138 61.888 248.168 61.8479 248.21 61.8415C248.253 61.8348 248.294 61.8647 248.3 61.9078C248.47 63.0066 247.804 63.8905 246.518 64.2727C244.357 64.9145 241.056 63.9803 239.159 62.1903C238.292 61.3722 237.828 60.4764 237.85 59.6678C237.863 59.1991 238.04 58.7771 238.365 58.433L238.365 58.4329Z" fill="#212121"/>
<path d="M236.514 65.1624C236.52 65.1559 236.528 65.1502 236.536 65.146C236.575 65.1266 236.623 65.1427 236.642 65.1818C236.857 65.6119 237.186 66.0383 237.621 66.4487C239.482 68.204 242.714 69.1214 244.826 68.4941C245.147 68.3988 245.429 68.2716 245.666 68.1153C245.702 68.0914 245.751 68.1016 245.775 68.1379C245.799 68.1744 245.79 68.2227 245.753 68.2472C245.504 68.4116 245.208 68.5455 244.872 68.6455C242.712 69.2871 239.411 68.353 237.514 66.5632C237.065 66.1399 236.724 65.6988 236.501 65.2516C236.486 65.2212 236.492 65.1856 236.514 65.1624Z" fill="#212121"/>
<path d="M240.471 57.6434C240.676 57.4254 240.969 57.256 241.333 57.1476C242.762 56.7235 244.942 57.3402 246.195 58.5224C246.867 59.1556 247.171 59.8608 247.031 60.4568C246.915 60.9546 246.498 61.3339 245.857 61.5241C244.429 61.9479 242.248 61.3313 240.995 60.1493C240.324 59.5159 240.019 58.8107 240.159 58.2147C240.21 58.0005 240.315 57.8081 240.471 57.6434ZM246.604 60.9192C246.741 60.7743 246.834 60.6063 246.878 60.4199C247.004 59.8802 246.716 59.2301 246.088 58.6368C244.871 57.4892 242.759 56.8891 241.379 57.299C240.795 57.4722 240.417 57.8112 240.313 58.2514C240.186 58.7911 240.474 59.4413 241.103 60.0347C242.319 61.1821 244.432 61.7824 245.811 61.3726C246.148 61.2724 246.417 61.1173 246.604 60.9192Z" fill="#212121"/>
<path d="M235.197 136.68C235.197 130.833 230.434 126.092 224.557 126.092C218.681 126.092 213.917 130.833 213.917 136.68C213.917 142.528 218.681 147.268 224.557 147.268C230.434 147.268 235.197 142.528 235.197 136.68Z" fill="#D2FF00"/>
<path d="M235.335 136.68C235.335 142.594 230.5 147.405 224.557 147.405C218.613 147.405 213.778 142.594 213.778 136.68C213.778 130.766 218.613 125.954 224.557 125.954C230.5 125.954 235.335 130.766 235.335 136.68ZM214.054 136.68C214.054 142.442 218.766 147.13 224.557 147.13C230.347 147.13 235.059 142.442 235.059 136.68C235.059 130.917 230.347 126.229 224.557 126.229C218.766 126.229 214.054 130.917 214.054 136.68Z" fill="#212121"/>
<path d="M234.632 132.884C234.632 132.936 234.602 132.987 234.55 133.009C234.481 133.04 234.399 133.009 234.368 132.94C233.615 131.283 231.56 130.332 228.728 130.332C223.671 130.332 217.779 133.398 215.593 137.167C214.636 138.815 214.518 140.416 215.269 141.561C215.31 141.624 215.293 141.709 215.229 141.751C215.165 141.792 215.079 141.774 215.037 141.711C214.228 140.477 214.342 138.77 215.353 137.029C217.583 133.185 223.583 130.057 228.727 130.057C231.673 130.057 233.82 131.067 234.62 132.827C234.628 132.845 234.632 132.865 234.632 132.884L234.632 132.884Z" fill="#212121"/>
<path d="M235.19 137.983C235.19 138.132 235.181 138.284 235.162 138.438C235.153 138.513 235.084 138.567 235.009 138.558C234.933 138.549 234.878 138.484 234.888 138.405C234.998 137.481 234.747 136.64 234.157 135.98C233.27 134.985 231.679 134.437 229.678 134.437C225.211 134.437 220.006 137.145 218.075 140.473C216.957 142.398 217.141 144.144 218.575 145.259C218.636 145.306 218.646 145.393 218.6 145.452C218.553 145.512 218.466 145.522 218.406 145.476C216.873 144.284 216.661 142.362 217.836 140.335C219.811 136.931 225.123 134.162 229.678 134.162C231.76 134.162 233.424 134.743 234.364 135.797C234.909 136.408 235.19 137.156 235.19 137.982L235.19 137.983Z" fill="#212121"/>
<path d="M229.476 127.217C229.476 127.232 229.473 127.249 229.467 127.264C229.441 127.336 229.361 127.372 229.29 127.346C228.501 127.057 227.572 126.91 226.527 126.91C222.061 126.91 216.856 129.618 214.924 132.947C214.632 133.452 214.425 133.952 214.312 134.434C214.295 134.508 214.22 134.554 214.146 134.537C214.072 134.519 214.025 134.447 214.043 134.371C214.163 133.864 214.379 133.338 214.685 132.809C216.66 129.405 221.973 126.635 226.527 126.635C227.604 126.635 228.566 126.788 229.385 127.088C229.441 127.109 229.476 127.161 229.476 127.217Z" fill="#212121"/>
<path d="M233.462 141.508C233.462 142.031 233.294 142.597 232.96 143.171C231.654 145.422 228.145 147.252 225.137 147.252C223.526 147.252 222.293 146.722 221.757 145.797C221.308 145.025 221.384 144.043 221.969 143.034C223.275 140.784 226.784 138.954 229.792 138.954C231.404 138.954 232.636 139.484 233.173 140.409C233.365 140.742 233.462 141.113 233.462 141.508ZM221.745 144.698C221.745 145.046 221.828 145.37 221.996 145.659C222.482 146.497 223.627 146.978 225.137 146.978C228.057 146.978 231.459 145.209 232.721 143.034C233.255 142.114 233.329 141.23 232.934 140.546C232.448 139.709 231.303 139.228 229.793 139.228C226.873 139.228 223.47 140.997 222.209 143.171C221.901 143.703 221.745 144.222 221.745 144.698Z" fill="#212121"/>
<path d="M15.2002 72.8817C19.4601 74.2398 24.2994 71.5905 26.0092 66.9644C27.719 62.3384 25.6518 57.4873 21.3919 56.1293C17.132 54.7713 12.2927 57.4206 10.5829 62.0466C8.87307 66.6727 10.9403 71.5237 15.2002 72.8817Z" fill="#D2FF00"/>
<path d="M15.1602 72.9906C10.8519 71.6172 8.75379 66.6936 10.4831 62.0146C12.2125 57.3357 17.1241 54.6471 21.4324 56.0206C25.7407 57.394 27.8388 62.3176 26.1096 66.9962C24.3804 71.6749 19.4685 74.3641 15.1602 72.9906ZM21.3521 56.2379C17.1543 54.8996 12.3681 57.5198 10.6832 62.0784C8.99835 66.6371 11.0429 71.4348 15.2407 72.773C19.4385 74.1112 24.2246 71.4911 25.9095 66.9324C27.5944 62.3738 25.5501 57.5762 21.3521 56.2379Z" fill="#212121"/>
<path d="M18.5632 73.1465C18.5236 73.133 18.4931 73.097 18.4893 73.0523C18.4836 72.9917 18.5286 72.9371 18.589 72.9315C20.0439 72.7901 21.3003 71.4748 22.0358 69.3229C23.3489 65.4807 22.5496 60.2072 20.2536 57.5671C19.2497 56.4121 18.0632 55.9066 16.9985 56.1797C16.9395 56.1945 16.8794 56.1597 16.8644 56.0996C16.8499 56.0405 16.8855 55.9799 16.9447 55.9645C18.093 55.6699 19.3597 56.2004 20.4205 57.4206C22.7624 60.1139 23.5808 65.4852 22.2449 69.394C21.4799 71.6323 20.1549 73.0018 18.6096 73.1522C18.5937 73.1538 18.5777 73.1518 18.5634 73.1469L18.5632 73.1465Z" fill="#212121"/>
<path d="M14.5439 72.2473C14.4305 72.2086 14.3173 72.1622 14.205 72.1081C14.1503 72.0817 14.1274 72.0155 14.1539 71.9602C14.1804 71.9053 14.2436 71.88 14.3014 71.9085C14.975 72.2321 15.679 72.2591 16.3341 71.983C17.3208 71.5668 18.1501 70.5003 18.6699 68.9795C19.8299 65.5854 19.1238 60.9269 17.0963 58.5953C15.9237 57.2459 14.5499 56.932 13.3296 57.7327C13.2784 57.7666 13.2098 57.7515 13.1769 57.7011C13.1433 57.6498 13.1581 57.581 13.2092 57.5475C14.513 56.6921 16.0285 57.03 17.2632 58.4491C19.3371 60.8341 20.0617 65.5901 18.8788 69.0513C18.3381 70.6331 17.4646 71.7467 16.4194 72.1877C15.8137 72.4432 15.1722 72.4624 14.5444 72.2479L14.5439 72.2473Z" fill="#212121"/>
<path d="M24.2093 70.701C24.1974 70.6969 24.1857 70.6905 24.1754 70.6821C24.128 70.6435 24.1209 70.5736 24.1597 70.5264C24.5838 70.0021 24.9367 69.334 25.2079 68.5404C26.368 65.1463 25.6619 60.4878 23.6342 58.1557C23.3265 57.802 23 57.5152 22.6631 57.3039C22.6115 57.2716 22.596 57.203 22.6283 57.1512C22.661 57.0994 22.7279 57.0827 22.7806 57.1158C23.1355 57.3388 23.4785 57.6392 23.8008 58.0092C25.8747 60.3944 26.5996 65.1506 25.4168 68.6114C25.137 69.4301 24.7718 70.1209 24.3306 70.6656C24.3006 70.7025 24.2516 70.7155 24.2093 70.701Z" fill="#212121"/>
<path d="M12.3145 70.0182C11.9167 69.8822 11.5308 69.6077 11.1806 69.2051C9.80984 67.6283 9.33028 64.4863 10.1116 62.2004C10.53 60.976 11.2532 60.1775 12.0953 60.0101C12.7984 59.8696 13.5249 60.1819 14.1395 60.8888C15.5099 62.4655 15.9895 65.6075 15.2083 67.8931C14.7898 69.1178 14.0666 69.9164 13.2245 70.0838C12.9218 70.1439 12.6149 70.1208 12.3145 70.0182ZM12.9335 60.2864C12.6691 60.196 12.4007 60.175 12.1374 60.2276C11.3749 60.3792 10.7124 61.1244 10.3203 62.2717C9.5619 64.4907 10.0225 67.5353 11.3472 69.0586C11.9075 69.7036 12.5601 69.9899 13.1822 69.8665C13.9448 69.715 14.6074 68.9694 14.9995 67.8221C15.7578 65.6035 15.2972 62.5585 13.9729 61.0353C13.6492 60.6632 13.2949 60.4099 12.9335 60.2864Z" fill="#212121"/>
<path d="M-98.4482 182.972C-87.1424 168.977 -56.427 139.924 -24.0127 135.671C16.5052 130.354 62.7065 149.238 107.625 169.772C152.543 190.306 223.128 148.871 239.262 121.554C255.396 94.2361 297.38 46.5681 410.5 41.6179" stroke="#D2FF00" stroke-width="0.366677" stroke-dasharray="0.73 0.73"/>
</g>
</svg>
