<svg width="72" height="85" viewBox="0 0 72 85" fill="none" xmlns="http://www.w3.org/2000/svg">
<g clip-path="url(#clip0_3882_10918)">
<path d="M34.4523 55.8136C29.612 52.5928 28.2335 49.8157 29.4743 46.4318C30.5438 43.5151 33.9624 41.3687 36.9321 41.7497C40.1693 42.1652 41.5964 44.542 41.9788 50.6136C50.4928 42.9624 55.4169 33.4268 60.186 22.962C56.9322 23.7734 55.2142 26.4728 51.7121 26.7467C52.4277 25.6256 52.7004 24.937 53.1892 24.4758C55.8783 21.9369 58.598 19.4298 61.3507 16.9587C63.5507 14.9835 65.0982 15.2339 66.2891 18.0488C67.2261 20.2645 67.6798 22.6819 68.4018 25.1951C65.3754 25.6739 64.96 23.2644 63.8784 21.8332C58.1168 34.1456 52.5554 46.3246 40.9118 54.4137C29.2338 62.5266 16.2669 65.936 2.2027 65.9067C1.47638 65.9051 0.749004 65.4308 0.0722501 64.7649C6.05635 64.3267 11.9148 63.7717 17.6135 62.1916C23.3071 60.6131 29.2435 59.6393 34.4521 55.8126L34.4523 55.8136ZM38.1372 51.6729C39.6764 49.3074 39.5123 46.1814 37.7841 44.9348C36.3431 43.8955 33.7547 44.6381 32.5283 46.4418C31.1833 48.4194 31.7473 50.9528 33.8249 52.2675C35.6666 53.4331 37.1228 53.232 38.1382 51.6727L38.1372 51.6729Z" fill="#D2FF00"/>
</g>
<defs>
<clipPath id="clip0_3882_10918">
<rect width="36.3049" height="76.1007" fill="white" transform="translate(40.9473 0.731445) rotate(32.5514)"/>
</clipPath>
</defs>
</svg>
