<svg width="486" height="301" viewBox="0 0 486 301" fill="none" xmlns="http://www.w3.org/2000/svg">
<path d="M596.831 149.339L596.77 170.694L318.836 332.35L318.897 310.996L596.831 149.339Z" fill="#7D2000"/>
<path d="M318.895 310.996L318.834 332.35L38.855 170.703L38.9147 149.35L318.895 310.996Z" fill="#B72F00"/>
<path d="M596.827 149.339L318.893 310.996L38.9126 149.35L316.846 -12.3076L596.827 149.339Z" fill="#FF5B23"/>
<path d="M316.915 0.201172L62.0381 148.458L318.769 296.681L573.646 148.423L316.915 0.201172Z" fill="#F9F8F4"/>
<mask id="mask0_2444_1777" style="mask-type:luminance" maskUnits="userSpaceOnUse" x="62" y="0" width="512" height="297">
<path d="M316.917 0.200195L62.0396 148.457L318.77 296.68L573.647 148.422L316.917 0.200195Z" fill="white"/>
</mask>
<g mask="url(#mask0_2444_1777)">
<path d="M537.517 127.259L501.063 148.443L537.776 169.639L574.231 148.454L537.517 127.259ZM428.135 190.825L465.092 212.163L501.547 190.979L464.588 169.641L428.133 190.825H428.135ZM355.205 233.207L392.53 254.757L428.985 233.572L391.66 212.021L355.205 233.207ZM318.514 212.023L282.039 233.22L318.73 254.404L355.205 233.207L318.514 212.023ZM245.108 169.643L208.633 190.839L245.325 212.023L281.8 190.826L245.108 169.643ZM171.702 127.262L135.227 148.459L171.919 169.643L208.394 148.446L171.702 127.262ZM281.324 106.064L244.632 84.8799L208.157 106.076L244.849 127.26L281.324 106.064ZM354.252 63.6833L317.56 42.4994L281.085 63.6959L317.777 84.8799L354.252 63.6833ZM390.965 84.8799L427.42 63.6944L390.706 42.4978L354.252 63.6833L390.965 84.8799ZM464.371 127.26L500.824 106.075L464.11 84.8783L427.656 106.064L464.369 127.26H464.371ZM427.896 148.457L464.588 169.641L501.063 148.443L464.371 127.26L427.896 148.457ZM354.968 190.839L391.66 212.023L428.135 190.825L391.443 169.643L354.968 190.839ZM318.254 169.643L281.8 190.826L318.514 212.023L354.968 190.837L318.254 169.643ZM244.849 127.26L208.394 148.446L245.108 169.643L281.563 148.459L244.849 127.26ZM354.49 106.076L317.777 84.8799L281.322 106.064L318.036 127.26L354.49 106.076ZM391.182 127.26L427.657 106.064L390.965 84.8799L354.49 106.076L391.182 127.26ZM354.729 148.446L391.443 169.643L427.896 148.457L391.182 127.26L354.729 148.446ZM318.037 127.262L281.563 148.459L318.254 169.643L354.729 148.446L318.037 127.262ZM314.531 -1.48047L278.078 19.7035L317.561 42.4994L354.014 21.3154L314.531 -1.48047ZM241.603 40.9001L205.15 62.084L244.634 84.8799L281.087 63.6944L241.603 40.9001ZM168.675 83.2822L132.221 104.466L171.702 127.262L208.157 106.076L168.675 83.2822ZM55.7734 148.875L95.257 171.671L135.226 148.457L95.7424 125.661L55.7734 148.875ZM131.95 192.855L168.664 214.051L208.633 190.837L171.919 169.643L131.95 192.855ZM205.356 235.235L242.07 256.432L282.039 233.218L245.325 212.021L205.356 235.235ZM278.761 277.616L315.475 298.812L355.444 275.599L318.73 254.404L278.761 277.616Z" fill="#FF5B23"/>
</g>
<path fill-rule="evenodd" clip-rule="evenodd" d="M293.204 18.6857C293.204 22.4217 295.58 26.1578 300.33 29.0083C309.832 34.7093 325.237 34.7093 334.739 29.0083C339.49 26.1578 341.865 22.4217 341.865 18.6857V11.3865C341.865 7.65042 339.49 3.91437 334.739 1.06386C325.237 -4.63717 309.832 -4.63717 300.33 1.06386C295.58 3.91437 293.204 7.65042 293.204 11.3865V18.6857Z" fill="#C6C6C6"/>
<circle cx="12.9427" cy="12.9427" r="12.9427" transform="matrix(0.866041 -0.499972 0.866041 0.499972 295.116 11.1875)" fill="white"/>
<circle cx="18.4895" cy="18.4895" r="17.4895" transform="matrix(0.866041 -0.499972 0.866041 0.499972 285.509 10.8936)" stroke="white" stroke-width="2"/>
<path fill-rule="evenodd" clip-rule="evenodd" d="M217.794 62.674C217.794 66.41 220.17 70.1461 224.921 72.9966C234.422 78.6976 249.828 78.6976 259.329 72.9966C264.08 70.1461 266.456 66.41 266.456 62.674V55.3748C266.456 51.6387 264.08 47.9027 259.329 45.0521C249.828 39.3511 234.422 39.3511 224.921 45.0521C220.17 47.9027 217.794 51.6387 217.794 55.3748V62.674Z" fill="#C6C6C6"/>
<circle cx="12.9427" cy="12.9427" r="12.9427" transform="matrix(0.866041 -0.499972 0.866041 0.499972 219.707 55.1758)" fill="white"/>
<circle cx="18.4895" cy="18.4895" r="17.4895" transform="matrix(0.866041 -0.499972 0.866041 0.499972 210.1 54.8818)" stroke="white" stroke-width="2"/>
<path fill-rule="evenodd" clip-rule="evenodd" d="M145.526 105.093C145.526 108.829 147.902 112.565 152.653 115.416C162.154 121.117 177.56 121.117 187.061 115.416C191.812 112.565 194.188 108.829 194.188 105.093V97.7937C194.188 94.0576 191.812 90.3216 187.061 87.4711C177.56 81.7701 162.154 81.7701 152.653 87.4711C147.902 90.3216 145.526 94.0576 145.526 97.7937V105.093Z" fill="#C6C6C6"/>
<circle cx="12.9427" cy="12.9427" r="12.9427" transform="matrix(0.866041 -0.499972 0.866041 0.499972 147.438 97.5947)" fill="white"/>
<circle cx="18.4895" cy="18.4895" r="17.4895" transform="matrix(0.866041 -0.499972 0.866041 0.499972 137.832 97.3008)" stroke="white" stroke-width="2"/>
<path fill-rule="evenodd" clip-rule="evenodd" d="M66.9736 145.941C66.9736 149.677 69.3491 153.413 74.0999 156.263C83.6016 161.964 99.007 161.964 108.509 156.263C113.26 153.413 115.635 149.677 115.635 145.941V138.641C115.635 134.905 113.26 131.169 108.509 128.319C99.007 122.618 83.6016 122.618 74.0999 128.319C69.3491 131.169 66.9736 134.905 66.9736 138.641V145.941Z" fill="#C6C6C6"/>
<circle cx="12.9427" cy="12.9427" r="12.9427" transform="matrix(0.866041 -0.499972 0.866041 0.499972 68.8857 138.442)" fill="white"/>
<circle cx="18.4895" cy="18.4895" r="17.4895" transform="matrix(0.866041 -0.499972 0.866041 0.499972 59.2788 138.148)" stroke="white" stroke-width="2"/>
<path fill-rule="evenodd" clip-rule="evenodd" d="M219.364 105.093C219.364 108.829 221.74 112.565 226.491 115.416C235.992 121.117 251.398 121.117 260.899 115.416C265.65 112.565 268.026 108.829 268.026 105.093V97.7937C268.026 94.0576 265.65 90.3216 260.899 87.4711C251.398 81.7701 235.992 81.7701 226.491 87.4711C221.74 90.3216 219.364 94.0576 219.364 97.7937V105.093Z" fill="#C6C6C6"/>
<circle cx="12.9427" cy="12.9427" r="12.9427" transform="matrix(0.866041 -0.499972 0.866041 0.499972 221.276 97.5947)" fill="white"/>
<circle cx="18.4895" cy="18.4895" r="17.4895" transform="matrix(0.866041 -0.499972 0.866041 0.499972 211.669 97.3008)" stroke="white" stroke-width="2"/>
<path fill-rule="evenodd" clip-rule="evenodd" d="M293.204 105.093C293.204 108.829 295.58 112.565 300.33 115.416C309.832 121.117 325.237 121.117 334.739 115.416C339.49 112.565 341.865 108.829 341.865 105.093V97.7937C341.865 94.0576 339.49 90.3216 334.739 87.4711C325.237 81.7701 309.832 81.7701 300.33 87.4711C295.58 90.3216 293.204 94.0576 293.204 97.7937V105.093Z" fill="#C6C6C6"/>
<circle cx="12.9427" cy="12.9427" r="12.9427" transform="matrix(0.866041 -0.499972 0.866041 0.499972 295.116 97.5947)" fill="white"/>
<circle cx="18.4895" cy="18.4895" r="17.4895" transform="matrix(0.866041 -0.499972 0.866041 0.499972 285.509 97.3008)" stroke="white" stroke-width="2"/>
<path fill-rule="evenodd" clip-rule="evenodd" d="M440.883 101.95C440.883 105.686 443.259 109.422 448.01 112.273C457.511 117.974 472.917 117.974 482.418 112.273C487.169 109.422 489.545 105.686 489.545 101.95V94.6511C489.545 90.9151 487.169 87.179 482.418 84.3285C472.917 78.6275 457.511 78.6275 448.01 84.3285C443.259 87.179 440.883 90.9151 440.883 94.6511V101.95Z" fill="#C6C6C6"/>
<circle cx="12.9427" cy="12.9427" r="12.9427" transform="matrix(0.866041 -0.499972 0.866041 0.499972 442.795 94.4531)" fill="white"/>
<circle cx="18.4895" cy="18.4895" r="17.4895" transform="matrix(0.866041 -0.499972 0.866041 0.499972 433.188 94.1592)" stroke="white" stroke-width="2"/>
<path fill-rule="evenodd" clip-rule="evenodd" d="M330.91 252.77C330.91 256.506 333.286 260.242 338.036 263.092C347.538 268.793 362.943 268.793 372.445 263.092C377.196 260.242 379.571 256.506 379.571 252.77V245.47C379.571 241.734 377.196 237.998 372.445 235.148C362.943 229.447 347.538 229.447 338.036 235.148C333.286 237.998 330.91 241.734 330.91 245.47V252.77Z" fill="#494949"/>
<circle cx="12.9427" cy="12.9427" r="12.9427" transform="matrix(0.866041 -0.499972 0.866041 0.499972 332.822 245.272)" fill="#212121"/>
<circle cx="18.4895" cy="18.4895" r="17.4895" transform="matrix(0.866041 -0.499972 0.866041 0.499972 323.215 244.979)" stroke="#212121" stroke-width="2"/>
<path fill-rule="evenodd" clip-rule="evenodd" d="M57.3706 254.971C57.3706 258.707 59.746 262.443 64.4969 265.293C73.9986 270.994 89.4039 270.994 98.9056 265.293C103.657 262.443 106.032 258.707 106.032 254.971V247.672C106.032 243.936 103.657 240.2 98.9056 237.349C89.4039 231.648 73.9986 231.648 64.4969 237.349C59.746 240.2 57.3706 243.936 57.3706 247.672V254.971Z" fill="#494949"/>
<circle cx="12.9427" cy="12.9427" r="12.9427" transform="matrix(0.866041 -0.499972 0.866041 0.499972 59.2827 247.474)" fill="#212121"/>
<circle cx="18.4895" cy="18.4895" r="17.4895" transform="matrix(0.866041 -0.499972 0.866041 0.499972 49.6758 247.18)" stroke="#212121" stroke-width="2"/>
<path fill-rule="evenodd" clip-rule="evenodd" d="M12.6133 230.379C12.6133 234.115 14.9887 237.851 19.7396 240.702C29.2413 246.403 44.6466 246.403 54.1483 240.702C58.8992 237.851 61.2746 234.115 61.2746 230.379V223.08C61.2746 219.344 58.8992 215.608 54.1483 212.757C44.6466 207.056 29.2413 207.056 19.7396 212.757C14.9887 215.608 12.6133 219.344 12.6133 223.08V230.379Z" fill="#494949"/>
<circle cx="12.9427" cy="12.9427" r="12.9427" transform="matrix(0.866041 -0.499972 0.866041 0.499972 14.5254 222.882)" fill="#212121"/>
<circle cx="18.4895" cy="18.4895" r="17.4895" transform="matrix(0.866041 -0.499972 0.866041 0.499972 4.91846 222.588)" stroke="#212121" stroke-width="2"/>
<path fill-rule="evenodd" clip-rule="evenodd" d="M403.177 210.352C403.177 214.088 405.553 217.824 410.304 220.674C419.805 226.375 435.211 226.375 444.712 220.674C449.463 217.824 451.839 214.088 451.839 210.352V203.052C451.839 199.316 449.463 195.58 444.712 192.73C435.211 187.029 419.805 187.029 410.304 192.73C405.553 195.58 403.177 199.316 403.177 203.052V210.352Z" fill="#494949"/>
<circle cx="12.9427" cy="12.9427" r="12.9427" transform="matrix(0.866041 -0.499972 0.866041 0.499972 405.089 202.854)" fill="#212121"/>
<circle cx="18.4895" cy="18.4895" r="17.4895" transform="matrix(0.866041 -0.499972 0.866041 0.499972 395.482 202.561)" stroke="#212121" stroke-width="2"/>
<path fill-rule="evenodd" clip-rule="evenodd" d="M330.91 167.935C330.91 171.671 333.286 175.407 338.036 178.257C347.538 183.958 362.943 183.958 372.445 178.257C377.196 175.407 379.571 171.671 379.571 167.935V160.636C379.571 156.899 377.196 153.163 372.445 150.313C362.943 144.612 347.538 144.612 338.036 150.313C333.286 153.163 330.91 156.899 330.91 160.636V167.935Z" fill="#494949"/>
<circle cx="12.9427" cy="12.9427" r="12.9427" transform="matrix(0.866041 -0.499972 0.866041 0.499972 332.822 160.438)" fill="#212121"/>
<circle cx="18.4895" cy="18.4895" r="17.4895" transform="matrix(0.866041 -0.499972 0.866041 0.499972 323.215 160.144)" stroke="#212121" stroke-width="2"/>
<path fill-rule="evenodd" clip-rule="evenodd" d="M10.646 212.182C10.646 215.918 13.0214 219.654 17.7723 222.504C27.274 228.205 42.6793 228.205 52.181 222.504C56.9319 219.654 59.3073 215.918 59.3073 212.182V204.883C59.3073 201.147 56.9319 197.41 52.181 194.56C42.6793 188.859 27.274 188.859 17.7723 194.56C13.0214 197.41 10.646 201.147 10.646 204.883V212.182Z" fill="#494949"/>
<circle cx="12.9427" cy="12.9427" r="12.9427" transform="matrix(0.866041 -0.499972 0.866041 0.499972 12.5581 204.685)" fill="#212121"/>
<circle cx="18.4895" cy="18.4895" r="17.4895" transform="matrix(0.866041 -0.499972 0.866041 0.499972 2.95117 204.391)" stroke="#212121" stroke-width="2"/>
<path fill-rule="evenodd" clip-rule="evenodd" d="M10.646 193.984C10.646 197.72 13.0214 201.456 17.7723 204.306C27.274 210.007 42.6793 210.007 52.181 204.306C56.9319 201.456 59.3073 197.72 59.3073 193.984V186.684C59.3073 182.948 56.9319 179.212 52.181 176.362C42.6793 170.661 27.274 170.661 17.7723 176.362C13.0214 179.212 10.646 182.948 10.646 186.684V193.984Z" fill="#494949"/>
<circle cx="12.9427" cy="12.9427" r="12.9427" transform="matrix(0.866041 -0.499972 0.866041 0.499972 12.5581 186.485)" fill="#212121"/>
<circle cx="18.4895" cy="18.4895" r="17.4895" transform="matrix(0.866041 -0.499972 0.866041 0.499972 2.95117 186.191)" stroke="#212121" stroke-width="2"/>
<path fill-rule="evenodd" clip-rule="evenodd" d="M57.3706 237.265C57.3706 241.001 59.746 244.737 64.4969 247.587C73.9986 253.288 89.4039 253.288 98.9056 247.587C103.657 244.737 106.032 241.001 106.032 237.265V229.966C106.032 226.23 103.657 222.493 98.9056 219.643C89.4039 213.942 73.9986 213.942 64.4969 219.643C59.746 222.493 57.3706 226.23 57.3706 229.966V237.265Z" fill="#494949"/>
<circle cx="12.9427" cy="12.9427" r="12.9427" transform="matrix(0.866041 -0.499972 0.866041 0.499972 59.2827 229.768)" fill="#212121"/>
<circle cx="18.4895" cy="18.4895" r="17.4895" transform="matrix(0.866041 -0.499972 0.866041 0.499972 49.6758 229.474)" stroke="#212121" stroke-width="2"/>
<path fill-rule="evenodd" clip-rule="evenodd" d="M7.69482 273.661C7.69482 277.397 10.0702 281.133 14.8211 283.984C24.3228 289.685 39.7281 289.685 49.2299 283.984C53.9807 281.133 56.3561 277.397 56.3561 273.661V266.362C56.3561 262.626 53.9807 258.89 49.2299 256.039C39.7281 250.338 24.3228 250.338 14.8211 256.039C10.0702 258.89 7.69482 262.626 7.69482 266.362V273.661Z" fill="#494949"/>
<circle cx="12.9427" cy="12.9427" r="12.9427" transform="matrix(0.866041 -0.499972 0.866041 0.499972 9.60693 266.164)" fill="#212121"/>
<circle cx="18.4895" cy="18.4895" r="17.4895" transform="matrix(0.866041 -0.499972 0.866041 0.499972 0 265.87)" stroke="#212121" stroke-width="2"/>
<path fill-rule="evenodd" clip-rule="evenodd" d="M184.801 167.935C184.801 171.671 187.177 175.407 191.928 178.257C201.429 183.958 216.835 183.958 226.336 178.257C231.087 175.407 233.463 171.671 233.463 167.935V160.636C233.463 156.899 231.087 153.163 226.336 150.313C216.835 144.612 201.429 144.612 191.928 150.313C187.177 153.163 184.801 156.899 184.801 160.636V167.935Z" fill="#494949"/>
<circle cx="12.9427" cy="12.9427" r="12.9427" transform="matrix(0.866041 -0.499972 0.866041 0.499972 186.713 160.438)" fill="#212121"/>
<circle cx="18.4895" cy="18.4895" r="17.4895" transform="matrix(0.866041 -0.499972 0.866041 0.499972 177.106 160.144)" stroke="#212121" stroke-width="2"/>
<path fill-rule="evenodd" clip-rule="evenodd" d="M401.606 125.517C401.606 129.253 403.981 132.989 408.732 135.839C418.234 141.54 433.639 141.54 443.141 135.839C447.892 132.989 450.267 129.253 450.267 125.517V118.218C450.267 114.481 447.892 110.745 443.141 107.895C433.639 102.194 418.234 102.194 408.732 107.895C403.981 110.745 401.606 114.481 401.606 118.218V125.517Z" fill="#494949"/>
<circle cx="12.9427" cy="12.9427" r="12.9427" transform="matrix(0.866041 -0.499972 0.866041 0.499972 403.518 118.019)" fill="#212121"/>
<circle cx="18.4895" cy="18.4895" r="17.4895" transform="matrix(0.866041 -0.499972 0.866041 0.499972 393.911 117.725)" stroke="#212121" stroke-width="2"/>
<path fill-rule="evenodd" clip-rule="evenodd" d="M477.017 167.935C477.017 171.671 479.393 175.407 484.143 178.257C493.645 183.958 509.05 183.958 518.552 178.257C523.303 175.407 525.678 171.671 525.678 167.935V160.636C525.678 156.899 523.303 153.163 518.552 150.313C509.05 144.612 493.645 144.612 484.143 150.313C479.393 153.163 477.017 156.899 477.017 160.636V167.935Z" fill="#494949"/>
<circle cx="12.9427" cy="12.9427" r="12.9427" transform="matrix(0.866041 -0.499972 0.866041 0.499972 478.929 160.437)" fill="#212121"/>
<circle cx="18.4895" cy="18.4895" r="17.4895" transform="matrix(0.866041 -0.499972 0.866041 0.499972 469.322 160.143)" stroke="#212121" stroke-width="2"/>
<path fill-rule="evenodd" clip-rule="evenodd" d="M421.735 26.2354C425.762 29.3967 431.643 30.155 438.424 27.7611C451.987 22.9733 464.013 7.38965 465.286 -7.04589C465.923 -14.2637 463.751 -19.8278 459.724 -22.989L451.856 -29.1651C447.83 -32.3264 441.948 -33.0847 435.167 -30.6908C421.605 -25.903 409.578 -10.3194 408.305 4.11618C407.669 11.334 409.841 16.8981 413.868 20.0593L421.735 26.2354Z" fill="#494949"/>
<ellipse cx="20.9254" cy="16.4126" rx="20.9254" ry="16.4126" transform="matrix(0.0880743 -0.825005 0.994183 -0.366788 414.641 18.7012)" fill="#212121"/>
<path d="M435.04 -28.658C447.154 -33.127 456.238 -26.4167 454.811 -13.0539C453.385 0.308945 442.064 14.5474 429.951 19.0165C417.837 23.4855 408.753 16.7752 410.179 3.4124C411.606 -9.95043 422.927 -24.1889 435.04 -28.658Z" stroke="#212121" stroke-width="2"/>
<path d="M443.924 -5.36651L440.102 -1.96794L434.366 5.09614L436.354 2.1837C437.552 0.431815 438.75 -1.31975 439.948 -3.07163L439.447 -6.48995L438.597 -6.6585L436.806 -2.77853L435.656 -1.00678L434.259 0.636033L435.42 -1.8784L436.199 -3.94686L436.776 -6.21767L436.197 -6.67691L435.1 -6.79699L432.296 -6.53538L431.026 -6.19459L430.046 -5.58997L428.894 -3.26552L428.116 -1.19706L427.4 1.27589L427.182 -0.216394L427.331 -1.89474L428.437 -5.71083L427.393 -5.36558L424.189 -1.60169C424.108 0.0460846 424.026 1.69348 423.944 3.34125C423.898 4.25459 423.851 5.16788 423.805 6.08118L423.163 -0.387881L421.715 -3.29495L423.104 -6.79353L424.784 -8.08814L426.71 -10.1607L427.223 -11.2463L427.743 -10.6852L427.574 -9.52392C428.021 -9.50359 428.467 -9.48363 428.913 -9.4633C429.267 -8.9968 429.621 -8.5304 429.974 -8.06347C429.973 -8.63652 429.971 -9.21 429.97 -9.78305L429.431 -10.6682L427.438 -11.7031L428.992 -12.9762L429.977 -13.444L430.905 -13.5306L431.775 -12.9539C432.227 -13.09 432.679 -13.2261 433.13 -13.3623C434.184 -13.463 435.238 -13.5633 436.292 -13.664L436.376 -13.6719C437.428 -13.7676 438.48 -13.8637 439.532 -13.9594C439.91 -13.9007 440.289 -13.842 440.667 -13.7834L442.05 -14.5702L442.979 -14.6568L443.671 -14.3455L444.344 -13.2801L441.399 -11.7844L440.13 -10.7307C439.681 -10.1157 439.233 -9.50029 438.784 -8.88525C439.527 -9.45448 440.271 -10.0232 441.014 -10.592C441.509 -10.7001 442.003 -10.8079 442.498 -10.916L443.223 -12.1291L444.219 -12.8317L443.922 -11.7661L444.371 -9.91513L445.164 -8.85123L443.924 -5.36651Z" fill="#F9F8F4"/>
<path d="M432.955 5.01518L432.539 6.14527L430.608 7.12595L427.9 7.85607L427.855 7.86818L427.816 7.86408L425.468 7.61595L424.145 6.94551L424.561 5.81541L425.238 5.46373L426.096 3.13152L425.927 4.7681L426.507 5.55008L426.402 6.36856L428.483 6.05173L428.526 6.04513L428.567 6.04373L430.557 5.97245L431.07 5.11503L432.289 4.1615L433.357 2.43933L432.498 4.77155L432.955 5.01518Z" fill="#F9F8F4"/>
<path d="M432.575 -1.70402L430.359 1.69364L430.358 1.69472L430.358 1.69368L430.754 -1.54167L432.149 -2.85169L432.575 -1.70402Z" fill="#F9F8F4"/>
<path fill-rule="evenodd" clip-rule="evenodd" d="M188.892 253.011C184.657 257.542 177.923 259.767 169.694 258.612C153.235 256.301 137.026 241.344 133.492 225.205C131.725 217.135 133.461 210.298 137.696 205.767L145.97 196.914C150.205 192.383 156.939 190.158 165.168 191.314C181.627 193.625 197.836 208.582 201.37 224.721C203.137 232.791 201.401 239.628 197.166 244.159L188.892 253.011Z" fill="#C6C6C6"/>
<ellipse cx="24.8693" cy="18.9201" rx="24.8693" ry="18.9201" transform="matrix(-0.191557 -0.80461 -1.08042 -0.171348 196.63 243.89)" fill="white"/>
<path d="M165.118 192.525C157.464 191.311 151.18 193.235 147.246 197.442C143.313 201.649 141.769 208.112 143.61 215.846C145.451 223.58 150.315 231.06 156.639 236.894C162.962 242.727 170.692 246.874 178.346 248.088C186 249.301 192.284 247.378 196.217 243.171C200.151 238.963 201.695 232.5 199.854 224.766C198.013 217.032 193.149 209.553 186.825 203.719C180.501 197.885 172.772 193.739 165.118 192.525Z" stroke="white" stroke-width="2"/>
<path d="M158.948 222.011L164.004 224.796L172.079 231.012L169.165 228.376C167.41 226.791 165.655 225.207 163.9 223.622L163.605 219.981L164.501 219.642L167.437 223.319L169.144 224.934L171.092 226.367L169.188 223.984L167.817 221.99L166.619 219.747L167.143 219.159L168.322 218.823L171.48 218.552L172.964 218.66L174.194 219.098L176.041 221.285L177.412 223.28L178.814 225.705L178.684 224.116L178.104 222.405L175.939 218.662L177.175 218.818L181.641 222.101C182.139 223.794 182.637 225.486 183.136 227.179C183.413 228.117 183.691 229.055 183.968 229.993L183.074 223.162L183.95 219.868L181.552 216.509L179.378 215.491L176.741 213.714L175.906 212.688L175.472 213.37L175.946 214.541C175.459 214.649 174.971 214.756 174.484 214.863C174.21 215.415 173.935 215.967 173.661 216.519C173.521 215.925 173.38 215.33 173.24 214.736L173.615 213.714L175.556 212.256L173.527 211.236L172.325 210.941L171.28 211.031L170.464 211.797C169.932 211.743 169.4 211.689 168.868 211.635C167.681 211.734 166.495 211.834 165.308 211.933L165.213 211.941C164.029 212.045 162.845 212.149 161.662 212.253C161.259 212.387 160.856 212.521 160.453 212.655L158.733 212.106L157.688 212.196L157.002 212.652L156.524 213.887L160.142 214.869L161.802 215.716C162.449 216.267 163.096 216.818 163.743 217.369C162.783 216.923 161.822 216.477 160.861 216.031C160.289 216.014 159.717 215.998 159.145 215.981L158.045 214.864L156.773 214.328L157.365 215.375L157.328 217.381L156.717 218.637L158.948 222.011Z" fill="#252525"/>
<path d="M173.179 231.712L173.919 232.755L176.31 233.363L179.505 233.576L179.558 233.58L179.6 233.568L182.154 232.878L183.464 231.963L182.723 230.92L181.884 230.699L180.356 228.547L180.946 230.139L180.491 231.024L180.808 231.817L178.413 231.896L178.364 231.897L178.318 231.904L176.083 232.209L175.302 231.455L173.711 230.739L172.1 229.232L173.628 231.384L173.179 231.712Z" fill="#252525"/>
<path d="M172.246 223.956L175.444 227.266L175.445 227.267L175.444 227.266L174.295 223.767L172.466 222.599L172.246 223.956Z" fill="#252525"/>
</svg>
