<svg width="194" height="194" viewBox="0 0 194 194" fill="none" xmlns="http://www.w3.org/2000/svg">
<path d="M96.9033 191.071C148.91 191.071 191.07 148.911 191.07 96.9038C191.07 44.8968 148.91 2.73682 96.9033 2.73682C44.8963 2.73682 2.73633 44.8968 2.73633 96.9038C2.73633 148.911 44.8963 191.071 96.9033 191.071Z" fill="#B3D707"/>
<path d="M125.286 165.425C163.13 149.75 181.1 106.365 165.425 68.5215C149.75 30.6782 106.365 12.7074 68.5214 28.3827C30.6781 44.0579 12.7073 87.4432 28.3825 125.287C44.0577 163.13 87.443 181.101 125.286 165.425Z" fill="#D2FF00"/>
<path d="M96.9002 32.7412C61.5202 32.7412 32.7402 61.5212 32.7402 96.9012C32.7402 132.281 61.5202 161.071 96.9002 161.071C132.28 161.071 161.07 132.281 161.07 96.9012C161.07 61.5212 132.29 32.7412 96.9002 32.7412ZM96.9002 151.071C67.0402 151.071 42.7402 126.771 42.7402 96.9012C42.7402 67.0312 67.0402 42.7412 96.9002 42.7412C126.76 42.7412 151.07 67.0312 151.07 96.9012C151.07 126.771 126.77 151.071 96.9002 151.071Z" fill="url(#paint0_radial_5241_40303)"/>
<path d="M117.632 146.948C145.271 135.499 158.395 103.813 146.947 76.175C135.499 48.5366 103.813 35.4118 76.1746 46.8601C48.5362 58.3083 35.4115 89.9942 46.8597 117.633C58.3079 145.271 89.9938 158.396 117.632 146.948Z" fill="#D2FF00"/>
<path d="M137 95.0101L127.535 107.007L116.078 132.755L119.4 122.001C121.404 115.533 123.411 109.066 125.416 102.598L118.761 88.9331L115.358 87.9555L114.128 102.598L112.329 109.162L109.431 115.127L110.23 105.638V97.7671L109.197 89.0242L106.398 87.0002L102.147 86.1233H92.072L87.8229 87.0002L85.0226 89.0242L83.9905 97.7671V105.638L84.7894 115.127L81.8901 109.162L80.0914 102.598L78.8614 87.9555L75.4589 88.9331L68.8054 102.598C70.8101 109.066 72.8151 115.533 74.8198 122.001C75.9269 125.585 77.0338 129.17 78.1426 132.755L66.684 107.007L57.2207 95.0101L57.4875 81.7239L61.93 77.2367L66.1951 69.7719L66.5834 65.6792L69.3054 68.0833L70.3054 72.6009C71.9956 72.8452 73.6857 73.0882 75.3757 73.3325C77.3454 75.3022 79.3165 77.2717 81.2862 79.2431C80.4779 76.9826 79.6695 74.7206 78.8612 72.4602L75.6151 68.7716L66.7443 63.9568L70.7443 59.5078L73.7571 58.0254H77.0927L81.139 60.6196C82.6294 60.2489 84.1215 59.8785 85.6118 59.5078C89.3946 59.4983 93.1759 59.4902 96.9587 59.4807H97.2621C101.045 59.4902 104.826 59.4983 108.607 59.5078C110.099 59.8785 111.59 60.2489 113.082 60.6196L117.128 58.0254H120.464L123.477 59.5078L127.475 63.9568L118.606 68.7716L115.358 72.4602C114.551 74.7206 113.743 76.9826 112.935 79.2431C114.905 77.2717 116.874 75.3022 118.845 73.3325C120.536 73.0882 122.226 72.8452 123.916 72.6009L124.914 68.0833L127.638 65.6792L128.024 69.7719L132.291 77.2367L136.733 81.7239L137 95.0101Z" fill="#252525"/>
<path d="M112.277 133.475V137.708L106.397 140.801L97.261 142.633L97.1092 142.664L96.9574 142.633L87.8216 140.801L81.9414 137.708V133.475L83.9892 132.36V123.624L85.6108 129.914L88.8631 133.165L89.6012 136.304L96.9574 135.844L97.1092 135.835L97.261 135.844L104.617 136.304L105.355 133.165L108.606 129.914L110.229 123.624V132.36L112.277 133.475Z" fill="#252525"/>
<defs>
<radialGradient id="paint0_radial_5241_40303" cx="0" cy="0" r="1" gradientUnits="userSpaceOnUse" gradientTransform="translate(96.9052 96.9062) scale(64.165 64.165)">
<stop stop-color="#748814"/>
<stop offset="0.451" stop-color="#758913"/>
<stop offset="0.613" stop-color="#7A9012"/>
<stop offset="0.729" stop-color="#849C10"/>
<stop offset="0.822" stop-color="#91AD0D"/>
<stop offset="0.902" stop-color="#A2C309"/>
<stop offset="0.972" stop-color="#B7DD05"/>
<stop offset="1" stop-color="#C2EB03"/>
</radialGradient>
</defs>
</svg>
