<svg width="194" height="194" viewBox="0 0 194 194" fill="none" xmlns="http://www.w3.org/2000/svg">
<path d="M96.9033 191.07C148.91 191.07 191.07 148.91 191.07 96.9033C191.07 44.8963 148.91 2.73633 96.9033 2.73633C44.8963 2.73633 2.73633 44.8963 2.73633 96.9033C2.73633 148.91 44.8963 191.07 96.9033 191.07Z" fill="#49B5C4"/>
<path d="M125.286 165.425C163.13 149.75 181.1 106.365 165.425 68.5215C149.75 30.6782 106.365 12.7074 68.5214 28.3827C30.6781 44.0579 12.7073 87.4432 28.3825 125.287C44.0577 163.13 87.443 181.101 125.286 165.425Z" fill="#56EBFF"/>
<path d="M96.9002 32.7397C61.5202 32.7397 32.7402 61.5197 32.7402 96.8997C32.7402 132.28 61.5202 161.07 96.9002 161.07C132.28 161.07 161.07 132.28 161.07 96.8997C161.07 61.5197 132.29 32.7397 96.9002 32.7397ZM96.9002 151.07C67.0402 151.07 42.7402 126.77 42.7402 96.8997C42.7402 67.0297 67.0402 42.7397 96.9002 42.7397C126.76 42.7397 151.07 67.0297 151.07 96.8997C151.07 126.77 126.77 151.07 96.9002 151.07Z" fill="url(#paint0_radial_3744_16496)"/>
<path d="M117.632 146.947C145.271 135.498 158.395 103.812 146.947 76.174C135.499 48.5356 103.813 35.4109 76.1746 46.8591C48.5362 58.3073 35.4115 89.9932 46.8597 117.632C58.3079 145.27 89.9938 158.395 117.632 146.947Z" fill="#56EBFF"/>
<defs>
<radialGradient id="paint0_radial_3744_16496" cx="0" cy="0" r="1" gradientUnits="userSpaceOnUse" gradientTransform="translate(96.9052 96.9057) scale(64.165 64.165)">
<stop stop-color="#40919C"/>
<stop offset="0.472" stop-color="#40929D"/>
<stop offset="0.641" stop-color="#4198A4"/>
<stop offset="0.762" stop-color="#44A3B0"/>
<stop offset="0.86" stop-color="#48B3C1"/>
<stop offset="0.943" stop-color="#4DC6D7"/>
<stop offset="1" stop-color="#52D9EB"/>
</radialGradient>
</defs>
</svg>
