<svg width="194" height="194" viewBox="0 0 194 194" fill="none" xmlns="http://www.w3.org/2000/svg">
<path d="M96.9033 191.071C148.91 191.071 191.07 148.911 191.07 96.9038C191.07 44.8968 148.91 2.73682 96.9033 2.73682C44.8963 2.73682 2.73633 44.8968 2.73633 96.9038C2.73633 148.911 44.8963 191.071 96.9033 191.071Z" fill="#B3D707"/>
<path d="M125.286 165.425C163.13 149.75 181.1 106.365 165.425 68.5215C149.75 30.6782 106.365 12.7074 68.5214 28.3827C30.6781 44.0579 12.7073 87.4432 28.3825 125.287C44.0577 163.13 87.443 181.101 125.286 165.425Z" fill="#D2FF00"/>
<path d="M96.9002 32.7412C61.5202 32.7412 32.7402 61.5212 32.7402 96.9012C32.7402 132.281 61.5202 161.071 96.9002 161.071C132.28 161.071 161.07 132.281 161.07 96.9012C161.07 61.5212 132.29 32.7412 96.9002 32.7412ZM96.9002 151.071C67.0402 151.071 42.7402 126.771 42.7402 96.9012C42.7402 67.0312 67.0402 42.7412 96.9002 42.7412C126.76 42.7412 151.07 67.0312 151.07 96.9012C151.07 126.771 126.77 151.071 96.9002 151.071Z" fill="url(#paint0_radial_3744_16491)"/>
<path d="M117.632 146.948C145.271 135.499 158.395 103.813 146.947 76.175C135.499 48.5366 103.813 35.4118 76.1746 46.8601C48.5362 58.3083 35.4115 89.9942 46.8597 117.633C58.3079 145.271 89.9938 158.396 117.632 146.948Z" fill="#D2FF00"/>
<defs>
<radialGradient id="paint0_radial_3744_16491" cx="0" cy="0" r="1" gradientUnits="userSpaceOnUse" gradientTransform="translate(96.9052 96.9062) scale(64.165 64.165)">
<stop stop-color="#748814"/>
<stop offset="0.451" stop-color="#758913"/>
<stop offset="0.613" stop-color="#7A9012"/>
<stop offset="0.729" stop-color="#849C10"/>
<stop offset="0.822" stop-color="#91AD0D"/>
<stop offset="0.902" stop-color="#A2C309"/>
<stop offset="0.972" stop-color="#B7DD05"/>
<stop offset="1" stop-color="#C2EB03"/>
</radialGradient>
</defs>
</svg>
