<svg width="194" height="194" viewBox="0 0 194 194" fill="none" xmlns="http://www.w3.org/2000/svg">
<path d="M96.9033 191.07C148.91 191.07 191.07 148.91 191.07 96.9033C191.07 44.8963 148.91 2.73633 96.9033 2.73633C44.8963 2.73633 2.73633 44.8963 2.73633 96.9033C2.73633 148.91 44.8963 191.07 96.9033 191.07Z" fill="#49B5C4"/>
<path d="M125.286 165.425C163.13 149.75 181.1 106.365 165.425 68.5215C149.75 30.6782 106.365 12.7074 68.5214 28.3827C30.6781 44.0579 12.7073 87.4432 28.3825 125.287C44.0577 163.13 87.443 181.101 125.286 165.425Z" fill="#56EBFF"/>
<path d="M96.9002 32.7397C61.5202 32.7397 32.7402 61.5197 32.7402 96.8997C32.7402 132.28 61.5202 161.07 96.9002 161.07C132.28 161.07 161.07 132.28 161.07 96.8997C161.07 61.5197 132.29 32.7397 96.9002 32.7397ZM96.9002 151.07C67.0402 151.07 42.7402 126.77 42.7402 96.8997C42.7402 67.0297 67.0402 42.7397 96.9002 42.7397C126.76 42.7397 151.07 67.0297 151.07 96.8997C151.07 126.77 126.77 151.07 96.9002 151.07Z" fill="url(#paint0_radial_5241_40302)"/>
<path d="M117.632 146.947C145.271 135.498 158.395 103.812 146.947 76.174C135.499 48.5356 103.813 35.4109 76.1746 46.8591C48.5362 58.3073 35.4115 89.9932 46.8597 117.632C58.3079 145.27 89.9938 158.395 117.632 146.947Z" fill="#56EBFF"/>
<path d="M136.78 95.0101L127.315 107.007L115.858 132.755L119.179 122.001C121.184 115.533 123.19 109.066 125.195 102.598L118.54 88.9331L115.137 87.9555L113.907 102.598L112.109 109.162L109.211 115.127L110.01 105.638V97.7671L108.976 89.0242L106.177 87.0002L101.926 86.1233H91.8513L87.6022 87.0002L84.8019 89.0242L83.7698 97.7671V105.638L84.5687 115.127L81.6694 109.162L79.8707 102.598L78.6407 87.9555L75.2382 88.9331L68.5847 102.598C70.5894 109.066 72.5944 115.533 74.5991 122.001C75.7062 125.585 76.8131 129.17 77.9219 132.755L66.4633 107.007L57 95.0101L57.2668 81.7239L61.7093 77.2367L65.9744 69.7719L66.3627 65.6792L69.0847 68.0833L70.0847 72.6009C71.7749 72.8452 73.465 73.0882 75.155 73.3325C77.1247 75.3022 79.0958 77.2717 81.0655 79.2431C80.2572 76.9826 79.4488 74.7206 78.6405 72.4602L75.3944 68.7716L66.5236 63.9568L70.5235 59.5078L73.5364 58.0254H76.872L80.9183 60.6196C82.4086 60.2489 83.9008 59.8785 85.3911 59.5078C89.1739 59.4983 92.9552 59.4902 96.738 59.4807H97.0414C100.824 59.4902 104.605 59.4983 108.387 59.5078C109.879 59.8785 111.369 60.2489 112.861 60.6196L116.907 58.0254H120.243L123.256 59.5078L127.254 63.9568L118.385 68.7716L115.137 72.4602C114.331 74.7206 113.522 76.9826 112.714 79.2431C114.684 77.2717 116.654 75.3022 118.625 73.3325C120.315 73.0882 122.005 72.8452 123.695 72.6009L124.693 68.0833L127.417 65.6792L127.804 69.7719L132.07 77.2367L136.513 81.7239L136.78 95.0101Z" fill="#252525"/>
<path d="M112.057 133.475V137.708L106.176 140.801L97.0403 142.633L96.8885 142.664L96.7367 142.633L87.6009 140.801L81.7207 137.708V133.475L83.7685 132.36V123.624L85.3901 129.914L88.6424 133.165L89.3805 136.304L96.7367 135.844L96.8885 135.835L97.0403 135.844L104.397 136.304L105.135 133.165L108.386 129.914L110.008 123.624V132.36L112.057 133.475Z" fill="#252525"/>
<defs>
<radialGradient id="paint0_radial_5241_40302" cx="0" cy="0" r="1" gradientUnits="userSpaceOnUse" gradientTransform="translate(96.9052 96.9057) scale(64.165 64.165)">
<stop stop-color="#40919C"/>
<stop offset="0.472" stop-color="#40929D"/>
<stop offset="0.641" stop-color="#4198A4"/>
<stop offset="0.762" stop-color="#44A3B0"/>
<stop offset="0.86" stop-color="#48B3C1"/>
<stop offset="0.943" stop-color="#4DC6D7"/>
<stop offset="1" stop-color="#52D9EB"/>
</radialGradient>
</defs>
</svg>
