<svg width="319" height="193" viewBox="0 0 319 193" fill="none" xmlns="http://www.w3.org/2000/svg">
<mask id="mask0_6533_73467" style="mask-type:alpha" maskUnits="userSpaceOnUse" x="0" y="0" width="319" height="193">
<rect x="0.5" y="0.5" width="318" height="192" rx="14.5" fill="#D9D9D9" stroke="#F9F8F4"/>
</mask>
<g mask="url(#mask0_6533_73467)">
<g filter="url(#filter0_i_6533_73467)">
<path d="M35 108.833C1 112.833 -29.8333 160.833 -41 184.333V205.833H356C360.5 128.5 359.9 -24.0669 321.5 -15.6669C273.5 -5.16691 285.5 23.8331 213 77.3331C140.5 130.833 77.5 103.833 35 108.833Z" fill="#DCB8FF"/>
</g>
<g filter="url(#filter1_i_6533_73467)">
<path d="M41 135C11 135 -22.8333 170 -36 187.5V213L384 215C389.333 157.833 392.8 43.4002 364 43.0002C328 42.5002 297.5 128 231 148C164.5 168 78.5 135 41 135Z" fill="#FF5B23"/>
</g>
<path d="M260.362 98.1263L234.24 95.0493C233.963 95.0165 233.681 95 233.402 95C230.559 95 227.991 96.6851 226.859 99.2937L208.592 141.384C207.633 143.596 207.849 146.12 209.171 148.135C210.495 150.153 212.724 151.358 215.133 151.358C215.856 151.358 216.575 151.248 217.268 151.031L221.489 149.709L210.617 180.206C209.839 182.39 210.168 184.82 211.497 186.705C212.836 188.605 215.023 189.739 217.347 189.739H217.347C219.616 189.739 221.77 188.637 223.11 186.791L260.866 134.755C262.446 132.578 262.672 129.737 261.455 127.338C260.239 124.939 257.812 123.442 255.125 123.432L254.4 123.429L265.159 109.588C266.736 107.56 267.099 104.826 266.107 102.456C265.115 100.085 262.913 98.4266 260.362 98.1263Z" fill="white"/>
<path d="M232.899 101.915L214.633 144.006C214.445 144.438 214.853 144.891 215.303 144.75L231.071 139.813C231.505 139.677 231.907 140.095 231.754 140.523L216.819 182.418C216.605 183.017 217.41 183.441 217.784 182.926L255.541 130.89C255.804 130.527 255.546 130.017 255.097 130.016L242.112 129.959C241.655 129.957 241.399 129.431 241.679 129.07L259.964 105.55C260.227 105.212 260.019 104.715 259.593 104.665L233.468 101.588C233.227 101.559 232.995 101.692 232.899 101.915L232.899 101.915Z" fill="#FF5B23" stroke="#252525" stroke-width="2.12101" stroke-linecap="round" stroke-linejoin="round"/>
<path d="M311.228 71.1033L293.654 69.0332C293.467 69.0111 293.278 69 293.09 69C291.178 69 289.45 70.1337 288.688 71.8887L276.399 100.207C275.753 101.695 275.898 103.393 276.788 104.748C277.679 106.106 279.178 106.917 280.799 106.917C281.286 106.917 281.769 106.843 282.235 106.697L285.075 105.807L277.761 126.325C277.237 127.795 277.458 129.429 278.353 130.698C279.254 131.976 280.725 132.739 282.288 132.739H282.288C283.815 132.739 285.264 131.998 286.166 130.756L311.568 95.7466C312.631 94.2822 312.782 92.3703 311.964 90.7566C311.145 89.1427 309.513 88.1357 307.705 88.1285L307.217 88.1264L314.456 78.8147C315.517 77.4499 315.761 75.611 315.094 74.0163C314.426 72.4214 312.945 71.3054 311.228 71.1033Z" fill="white"/>
<path d="M292.75 73.6524L280.461 101.97C280.335 102.261 280.609 102.566 280.912 102.471L291.521 99.1495C291.813 99.058 292.083 99.3396 291.98 99.6276L281.932 127.814C281.788 128.217 282.33 128.502 282.581 128.156L307.983 93.1461C308.161 92.9018 307.987 92.5593 307.685 92.558L298.949 92.5201C298.641 92.5187 298.469 92.165 298.658 91.9222L310.959 76.0981C311.136 75.8703 310.996 75.5364 310.71 75.5026L293.134 73.4323C292.971 73.4131 292.815 73.5027 292.75 73.6526L292.75 73.6524Z" fill="#D2FF00" stroke="#252525" stroke-width="2.12101" stroke-linecap="round" stroke-linejoin="round"/>
<path d="M304.672 139.652L290.867 138.026C290.721 138.009 290.572 138 290.424 138C288.922 138 287.565 138.891 286.966 140.269L277.313 162.513C276.806 163.682 276.92 165.016 277.619 166.081C278.319 167.147 279.496 167.784 280.769 167.784C281.152 167.784 281.532 167.726 281.898 167.611L284.129 166.912L278.383 183.03C277.972 184.184 278.146 185.468 278.848 186.464C279.556 187.468 280.712 188.067 281.939 188.067H281.94C283.139 188.067 284.277 187.485 284.985 186.509L304.939 159.01C305.774 157.859 305.893 156.358 305.25 155.09C304.607 153.822 303.324 153.031 301.904 153.026L301.521 153.024L307.207 145.71C308.041 144.637 308.233 143.193 307.708 141.94C307.184 140.688 306.021 139.811 304.672 139.652Z" fill="white"/>
<path d="M290.158 141.655L280.505 163.899C280.406 164.128 280.621 164.367 280.859 164.293L289.193 161.684C289.422 161.612 289.634 161.833 289.554 162.059L281.661 184.199C281.548 184.516 281.973 184.74 282.17 184.468L302.124 156.968C302.263 156.776 302.127 156.507 301.89 156.506L295.027 156.476C294.786 156.475 294.651 156.197 294.799 156.006L304.462 143.577C304.601 143.398 304.491 143.135 304.266 143.109L290.459 141.482C290.332 141.467 290.209 141.538 290.158 141.656L290.158 141.655Z" fill="#FF5B23" stroke="#252525" stroke-width="2.12101" stroke-linecap="round" stroke-linejoin="round"/>
</g>
<defs>
<filter id="filter0_i_6533_73467" x="-41" y="-16" width="398.91" height="225.834" filterUnits="userSpaceOnUse" color-interpolation-filters="sRGB">
<feFlood flood-opacity="0" result="BackgroundImageFix"/>
<feBlend mode="normal" in="SourceGraphic" in2="BackgroundImageFix" result="shape"/>
<feColorMatrix in="SourceAlpha" type="matrix" values="0 0 0 0 0 0 0 0 0 0 0 0 0 0 0 0 0 0 127 0" result="hardAlpha"/>
<feOffset dy="4"/>
<feGaussianBlur stdDeviation="2"/>
<feComposite in2="hardAlpha" operator="arithmetic" k2="-1" k3="1"/>
<feColorMatrix type="matrix" values="0 0 0 0 0 0 0 0 0 0 0 0 0 0 0 0 0 0 0.25 0"/>
<feBlend mode="normal" in2="shape" result="effect1_innerShadow_6533_73467"/>
</filter>
<filter id="filter1_i_6533_73467" x="-36" y="42.998" width="423.617" height="176.002" filterUnits="userSpaceOnUse" color-interpolation-filters="sRGB">
<feFlood flood-opacity="0" result="BackgroundImageFix"/>
<feBlend mode="normal" in="SourceGraphic" in2="BackgroundImageFix" result="shape"/>
<feColorMatrix in="SourceAlpha" type="matrix" values="0 0 0 0 0 0 0 0 0 0 0 0 0 0 0 0 0 0 127 0" result="hardAlpha"/>
<feOffset dy="4"/>
<feGaussianBlur stdDeviation="2"/>
<feComposite in2="hardAlpha" operator="arithmetic" k2="-1" k3="1"/>
<feColorMatrix type="matrix" values="0 0 0 0 0 0 0 0 0 0 0 0 0 0 0 0 0 0 0.25 0"/>
<feBlend mode="normal" in2="shape" result="effect1_innerShadow_6533_73467"/>
</filter>
</defs>
</svg>
