<svg width="319" height="193" viewBox="0 0 319 193" fill="none" xmlns="http://www.w3.org/2000/svg">
<mask id="mask0_6533_73444" style="mask-type:alpha" maskUnits="userSpaceOnUse" x="0" y="0" width="319" height="193">
<rect x="0.5" y="0.5" width="318" height="192" rx="14.5" fill="#D9D9D9" stroke="#F9F8F4"/>
</mask>
<g mask="url(#mask0_6533_73444)">
<g filter="url(#filter0_i_6533_73444)">
<path d="M35 108.833C1 112.833 -29.8333 160.833 -41 184.333V205.833H356C360.5 128.5 359.9 -24.0669 321.5 -15.6669C273.5 -5.16691 285.5 23.8331 213 77.3331C140.5 130.833 77.5 103.833 35 108.833Z" fill="#DCB8FF"/>
</g>
<g filter="url(#filter1_i_6533_73444)">
<path d="M41 135C11 135 -22.8333 170 -36 187.5V213L384 215C389.333 157.833 392.8 43.4002 364 43.0002C328 42.5002 297.5 128 231 148C164.5 168 78.5 135 41 135Z" fill="#FF5B23"/>
</g>
<path d="M216.198 192.04C219.783 192.024 223.086 190.377 225.259 187.52L225.636 187.026L226.02 187.518C228.22 190.333 231.527 191.937 235.092 191.921C240.168 191.899 244.681 188.477 246.07 183.599L246.168 183.259L246.845 183.669C248.655 184.768 250.727 185.343 252.835 185.335C256.047 185.321 259.129 183.944 261.289 181.559C263.44 179.184 264.499 175.987 264.194 172.789L264.183 172.661L264.956 172.818C265.726 172.975 266.512 173.05 267.293 173.047C271.253 173.029 274.869 171.004 276.965 167.631C279.057 164.263 279.268 160.125 277.526 156.559L277.502 156.51L278.122 156.428C282.503 155.85 286.094 152.885 287.492 148.691C288.89 144.497 287.794 139.969 284.634 136.878L284.515 136.762L284.859 136.593C288.839 134.635 291.291 130.668 291.263 126.237C291.234 121.807 288.732 117.872 284.733 115.966L284.384 115.8L284.498 115.686C287.622 112.557 288.662 108.017 287.213 103.838C285.764 99.6594 282.137 96.7394 277.747 96.2155L277.125 96.1416L277.149 96.0911C278.841 92.511 278.583 88.3822 276.458 85.0442C274.33 81.7012 270.701 79.716 266.749 79.7335C265.954 79.7371 265.156 79.8249 264.377 79.9919L263.604 80.1576L263.615 80.0305C263.876 76.8341 262.783 73.6576 260.611 71.3123C258.43 68.9571 255.344 67.6134 252.141 67.6277C250.019 67.6371 247.941 68.2376 246.132 69.3665L245.457 69.7871L245.356 69.4454C243.89 64.5308 239.455 61.2408 234.319 61.2636C230.734 61.2796 227.431 62.9271 225.258 65.7835L224.881 66.2783L224.497 65.7857C222.296 62.9701 218.99 61.3658 215.423 61.3816C210.348 61.4042 205.833 64.8283 204.446 69.7078L204.349 70.0467L203.672 69.6358C201.86 68.5368 199.789 67.9611 197.68 67.9705C194.469 67.9848 191.388 69.3621 189.227 71.7467C187.077 74.1225 186.018 77.3187 186.321 80.5163L186.333 80.6446L185.56 80.487C184.789 80.3307 184.004 80.2549 183.223 80.2584C179.263 80.276 175.648 82.301 173.551 85.6742C171.459 89.0422 171.248 93.1806 172.99 96.7467L173.014 96.7957L172.393 96.8777C168.013 97.457 164.422 100.422 163.024 104.614C161.627 108.81 162.722 113.336 165.882 116.428L166.001 116.543L165.658 116.712C161.679 118.669 159.226 122.636 159.254 127.067C159.283 131.497 161.784 135.434 165.784 137.339L166.133 137.505L166.02 137.62C162.898 140.747 161.858 145.286 163.304 149.463C164.75 153.64 168.375 156.562 172.764 157.09L173.393 157.165L173.369 157.215C171.677 160.796 171.936 164.924 174.06 168.262C176.188 171.605 179.818 173.591 183.769 173.573C184.564 173.569 185.362 173.482 186.141 173.315L186.914 173.149L186.904 173.277C186.641 176.469 187.734 179.645 189.905 181.993C192.085 184.349 195.173 185.693 198.377 185.679C200.499 185.669 202.577 185.069 204.386 183.94L205.061 183.519L205.162 183.861C206.631 188.778 211.066 192.066 216.199 192.043L216.198 192.04Z" fill="#DCB8FF" stroke="white" stroke-width="7" stroke-miterlimit="10"/>
<path d="M261.7 106.216C260.669 106.092 260.062 104.994 260.505 104.054M261.7 106.216L272.678 107.529M261.7 106.216L261.641 106.712L261.641 106.712M261.7 106.216L261.641 106.712M260.505 104.054L197.857 158.611C198.855 158.396 199.777 159.205 199.693 160.223L198.85 170.479C198.747 171.726 200.11 172.557 201.172 171.895L210.186 166.268C211.038 165.737 212.163 166.162 212.45 167.124L215.374 176.922M260.505 104.054L265.004 94.5366M260.505 104.054L263.308 92.3995C264.541 92.1336 265.543 93.3962 265.004 94.5366M272.678 107.529C273.937 107.681 274.471 109.217 273.574 110.115L265.934 117.772C265.192 118.516 265.408 119.769 266.356 120.22M272.678 107.529L272.618 108.026C273.465 108.128 273.822 109.16 273.22 109.762L273.22 109.762L265.58 117.419L265.58 117.419C264.595 118.407 264.881 120.072 266.141 120.672M272.678 107.529L272.618 108.026L261.641 106.712M266.356 120.22L276.31 124.962M266.356 120.22L266.141 120.672L266.141 120.672M266.356 120.22L266.141 120.672M276.31 124.962C277.458 125.509 277.468 127.141 276.327 127.701L266.433 132.565C265.491 133.028 265.29 134.284 266.041 135.018M276.31 124.962L276.095 125.413C276.866 125.78 276.872 126.876 276.106 127.253L276.106 127.253L266.213 132.116L266.212 132.116C264.961 132.731 264.694 134.4 265.691 135.375M276.31 124.962L276.095 125.413L266.141 120.672M266.041 135.018L273.777 142.582C274.686 143.468 274.172 145.012 272.914 145.178L261.952 146.627C260.922 146.764 260.328 147.87 260.784 148.804M266.041 135.018L265.691 135.375L265.691 135.375M266.041 135.018L265.691 135.375M260.784 148.804L265.405 158.266C265.959 159.399 264.972 160.675 263.736 160.425L253.05 158.261C252.049 158.058 251.137 158.879 251.233 159.896L252.209 170.143M260.784 148.804L260.335 149.023L264.956 158.485L264.956 158.486C265.327 159.246 264.665 160.103 263.835 159.935L253.149 157.77L253.149 157.77C251.819 157.501 250.608 158.593 250.736 159.943L250.736 159.943L251.711 170.19L252.209 170.143M260.784 148.804L260.335 149.023C259.728 147.782 260.518 146.314 261.886 146.132L261.886 146.132L272.848 144.682L272.848 144.682C273.693 144.571 274.038 143.534 273.428 142.94L273.428 142.939L265.691 135.375M252.209 170.143C252.327 171.388 250.974 172.237 249.904 171.587L240.817 166.074M252.209 170.143L251.711 170.19M240.817 166.074C239.959 165.552 238.839 165.992 238.564 166.958L235.767 176.793M240.817 166.074L241.077 165.647M240.817 166.074L241.076 165.646L241.077 165.647M235.767 176.793C235.426 177.99 233.871 178.295 233.104 177.314M235.767 176.793L235.286 176.656L235.286 176.656M235.767 176.793L235.286 176.656M233.104 177.314L226.725 169.149M233.104 177.314L233.498 177.006M233.104 177.314L233.498 177.006M226.725 169.149C226.111 168.363 224.92 168.37 224.315 169.165L218.043 177.408C217.289 178.399 215.73 178.114 215.374 176.922M226.725 169.149L227.119 168.842M226.725 169.149L227.119 168.842C226.303 167.796 224.72 167.807 223.917 168.862L217.645 177.106C217.139 177.77 216.093 177.58 215.853 176.779M215.374 176.922L215.853 176.779M215.374 176.922L215.853 176.779M200.192 160.264C200.192 160.264 200.192 160.264 200.192 160.264C200.303 158.912 199.078 157.836 197.752 158.122L197.751 158.122L187.698 160.288L187.698 160.286L187.095 160.416C186.268 160.594 185.595 159.746 185.957 158.98C185.957 158.98 185.957 158.98 185.957 158.98L190.456 149.464C191.046 148.215 190.24 146.756 188.869 146.592L177.892 145.279C177.892 145.279 177.892 145.279 177.892 145.279C177.046 145.177 176.688 144.146 177.29 143.542L184.93 135.885L184.93 135.885C185.915 134.898 185.629 133.232 184.369 132.632L174.415 127.891L174.2 128.343L174.415 127.891C173.644 127.524 173.638 126.428 174.404 126.052L174.404 126.052L184.297 121.188C185.55 120.573 185.816 118.904 184.819 117.929L177.082 110.365L177.082 110.365C176.472 109.77 176.817 108.734 177.662 108.622L177.662 108.622L188.623 107.173C188.623 107.173 188.623 107.173 188.624 107.173C189.992 106.992 190.781 105.523 190.175 104.282L185.554 94.82L185.554 94.8199C185.183 94.0593 185.845 93.2025 186.675 93.3705L197.361 95.535L197.361 95.535C198.69 95.804 199.902 94.7129 199.774 93.3624L199.774 93.3622L198.799 83.1155C198.72 82.28 199.627 81.7102 200.346 82.1456L200.192 160.264ZM200.192 160.264L199.348 170.52C199.279 171.358 200.194 171.915 200.907 171.47L209.922 165.844L209.922 165.844C211.054 165.138 212.548 165.702 212.929 166.981C212.929 166.981 212.929 166.981 212.929 166.981L215.853 176.778L200.192 160.264ZM215.853 176.779L227.119 168.842M227.119 168.842L233.498 177.006L227.119 168.842ZM233.498 177.006C234.013 177.664 235.057 177.46 235.286 176.656M233.498 177.006L251.711 170.19M235.286 176.656L238.084 166.821C238.448 165.538 239.936 164.953 241.077 165.647M241.077 165.647L250.164 171.16L250.164 171.16C250.882 171.596 251.79 171.026 251.711 170.19M251.711 170.19L234.657 76.5282L237.581 86.3254C237.581 86.3254 237.581 86.3255 237.581 86.3256C237.962 87.6044 239.456 88.1687 240.588 87.4627L240.588 87.4626L249.603 81.8362C249.603 81.8362 249.603 81.8361 249.603 81.8361C250.316 81.3914 251.231 81.9488 251.162 82.7869L250.317 93.0428C250.206 94.3948 251.431 95.4703 252.757 95.1849L252.757 95.1849L263.413 92.8883L263.413 92.8883C264.241 92.7097 264.914 93.5572 264.552 94.3229L265.004 94.5366M261.641 106.712C260.27 106.548 259.464 105.089 260.053 103.841L260.053 103.841L264.552 94.3229L265.004 94.5366M226.195 84.1419L226.593 84.4447L232.865 76.201L232.469 75.8992L232.865 76.201C233.371 75.5369 234.417 75.727 234.657 76.528L226.195 84.1419ZM226.195 84.1419L226.593 84.4447C225.789 85.5001 224.206 85.5084 223.391 84.4651L223.785 84.1572L223.391 84.4651L217.012 76.301L217.011 76.3007C216.498 75.6425 215.453 75.8465 215.225 76.6506L215.225 76.6509L212.426 86.4854M226.195 84.1419L212.426 86.4854M212.426 86.4854C212.426 86.4855 212.426 86.4855 212.426 86.4855M212.426 86.4854L212.426 86.4855M212.426 86.4855C212.061 87.7686 210.574 88.3533 209.434 87.6603L212.426 86.4855ZM209.433 87.66L200.346 82.1458L209.433 87.66Z" fill="#FF5F33" stroke="#252525"/>
<path d="M225.256 126.776C224.889 135.988 230.896 143.709 238.673 144.018C246.451 144.328 253.054 137.111 253.421 127.898C253.788 118.685 247.78 110.965 240.003 110.655C232.225 110.346 225.623 117.562 225.256 126.776Z" fill="#FCF9F7" stroke="#252525" stroke-miterlimit="10"/>
<path d="M225.361 125.499C224.781 132.746 227.497 138.874 231.429 139.189C235.36 139.504 239.016 133.884 239.595 126.638C240.175 119.391 237.459 113.262 233.527 112.947C229.596 112.634 225.94 118.252 225.361 125.499Z" fill="#252525"/>
<path d="M210.51 142.897C202.733 142.587 196.725 134.867 197.092 125.654C197.459 116.441 204.062 109.223 211.839 109.533C219.617 109.843 225.624 117.563 225.257 126.776C224.89 135.989 218.288 143.206 210.51 142.897Z" fill="#FCF9F7" stroke="#252525" stroke-miterlimit="10"/>
<path d="M203.264 138.065C199.333 137.75 196.616 131.621 197.196 124.375C197.775 117.128 201.432 111.509 205.363 111.823C209.294 112.138 212.011 118.267 211.431 125.513C210.851 132.76 207.195 138.379 203.264 138.065Z" fill="#252525"/>
<path d="M232.57 147.077L216.143 145.387C216.143 145.387 216.691 153.837 223.625 154.55C230.56 155.263 232.57 147.077 232.57 147.077Z" fill="#FCF9F7" stroke="#252525" stroke-miterlimit="10"/>
<path d="M222.762 151.647C225.576 149.358 228.641 149.778 230.941 150.702C229.601 152.787 227.314 154.928 223.624 154.548C222.603 154.443 221.735 154.157 220.972 153.767C221.391 153.021 221.957 152.302 222.762 151.647Z" fill="#DCB8FF" stroke="#252525" stroke-miterlimit="10"/>
<path d="M203.399 102.332C203.955 104.793 208.266 105.914 213.027 104.837C217.788 103.761 221.196 100.893 220.64 98.4337C220.083 95.9743 215.773 94.852 211.012 95.9286C206.251 97.0052 202.843 99.8729 203.399 102.332Z" fill="#D2FF00" stroke="#252525" stroke-miterlimit="10"/>
<path d="M249.41 103.492C248.876 105.956 244.576 107.117 239.806 106.083C235.035 105.048 231.602 102.211 232.136 99.7468C232.67 97.2825 236.97 96.1219 241.741 97.1561C246.511 98.1904 249.945 101.028 249.41 103.492Z" fill="#D2FF00" stroke="#252525" stroke-miterlimit="10"/>
<path d="M322.485 70.5865C320.873 67.0812 318.175 64.7866 315.793 62.7622C315.471 62.488 315.15 62.2148 314.834 61.9398C314.219 61.4054 313.511 60.759 312.915 60.0627C312.907 58.0466 312.024 56.0495 310.345 54.714C309.377 53.9442 308.219 53.4505 306.996 53.2859C304.619 52.9661 302.215 53.9333 300.722 55.8098C294.622 63.4797 292.05 74.1167 290.491 82.5269C290.255 83.7965 290.049 85.0068 289.849 86.1771C289.716 86.9531 289.585 87.7197 289.45 88.4804C287.258 87.1645 285.028 86.3482 282.797 86.048C282.515 86.0101 282.229 85.98 281.948 85.9589C277.661 85.6347 273.487 87.3814 271.054 90.5181C267.612 94.9553 268.003 101.705 271.963 106.219C274.493 109.102 278.382 111.025 282.915 111.635C286.933 112.176 290.852 111.588 293.948 109.981C296.287 108.767 297.588 107.2 298.31 105.778C298.763 105.232 299.13 104.615 299.399 103.941C301.689 98.1963 302.533 93.2579 303.351 88.4656C303.543 87.3444 303.74 86.1855 303.956 85.0236C304.165 83.8925 304.401 82.6777 304.672 81.4142C307.092 83.5123 309.86 85.1557 312.173 86.5294C313.036 87.0417 313.851 87.5259 314.498 87.9464C315.16 88.3776 315.888 88.639 316.628 88.7383C318.349 88.9699 320.135 88.3259 321.308 86.9093C324.973 82.484 324.674 75.3479 322.485 70.5865Z" fill="white"/>
<path d="M317.782 72.7492C316.465 69.8856 313.816 67.9145 311.437 65.8464C309.965 64.5664 308.534 63.1474 307.565 61.4367C307.52 61.3564 307.467 61.232 307.409 61.0838C307.959 60.3629 307.835 59.3317 307.122 58.7648C306.4 58.1905 305.349 58.3101 304.775 59.0322C299.386 65.8068 297.032 75.6512 295.582 83.4705C295.354 84.6978 295.15 85.8928 294.953 87.0483C294.324 90.73 293.724 94.2464 292.475 98.0623C291.22 96.3404 289.457 94.7787 288.133 93.8142C286.194 92.4015 283.951 91.3018 281.558 91.1209C279.166 90.94 276.616 91.7949 275.145 93.6908C273.121 96.3008 273.677 100.32 275.856 102.803C279.294 106.723 286.98 107.765 291.564 105.385C292.947 104.668 293.673 103.782 293.933 102.815C294.22 102.634 294.455 102.363 294.591 102.023C296.679 96.7863 297.44 92.3292 298.246 87.6102C298.441 86.466 298.643 85.2828 298.866 84.0789C299.807 79.0041 301.138 73.0482 303.453 67.8074C303.51 69.5092 303.836 71.2003 304.453 72.7913C306.407 77.8261 313.488 81.1111 317.322 83.606C319.527 80.9434 319.227 75.8895 317.782 72.7486L317.782 72.7492Z" fill="#D2FF00" stroke="#252525" stroke-linecap="round" stroke-linejoin="round"/>
<path d="M174.155 132.233C173.018 129.76 171.113 128.14 169.433 126.712C169.206 126.518 168.979 126.325 168.756 126.131C168.322 125.754 167.822 125.298 167.402 124.807C167.396 123.384 166.773 121.975 165.588 121.032C164.905 120.489 164.088 120.141 163.225 120.025C161.547 119.799 159.851 120.481 158.798 121.806C154.493 127.218 152.678 134.724 151.577 140.659C151.411 141.555 151.265 142.41 151.124 143.235C151.031 143.783 150.938 144.324 150.843 144.861C149.296 143.932 147.722 143.356 146.148 143.144C145.949 143.118 145.747 143.096 145.549 143.081C142.524 142.853 139.578 144.085 137.861 146.299C135.432 149.43 135.708 154.193 138.503 157.379C140.288 159.413 143.033 160.77 146.231 161.201C149.067 161.582 151.832 161.168 154.017 160.034C155.668 159.177 156.586 158.071 157.095 157.068C157.415 156.682 157.674 156.247 157.864 155.771C159.48 151.717 160.075 148.232 160.653 144.85C160.788 144.059 160.927 143.241 161.079 142.421C161.227 141.623 161.394 140.766 161.585 139.874C163.293 141.355 165.246 142.515 166.878 143.484C167.487 143.846 168.063 144.187 168.519 144.484C168.986 144.788 169.5 144.973 170.022 145.043C171.237 145.206 172.497 144.752 173.325 143.752C175.911 140.629 175.7 135.593 174.155 132.233Z" fill="white"/>
<path d="M170.838 133.76C169.908 131.739 168.039 130.348 166.36 128.888C165.322 127.985 164.311 126.984 163.628 125.777C163.596 125.72 163.559 125.632 163.518 125.527C163.906 125.019 163.818 124.291 163.315 123.891C162.806 123.486 162.064 123.57 161.659 124.08C157.856 128.86 156.194 135.807 155.171 141.325C155.011 142.192 154.867 143.035 154.728 143.85C154.284 146.448 153.86 148.93 152.979 151.623C152.093 150.408 150.849 149.305 149.915 148.625C148.547 147.628 146.963 146.852 145.275 146.724C143.587 146.597 141.787 147.2 140.75 148.538C139.321 150.38 139.713 153.216 141.251 154.968C143.677 157.734 149.101 158.47 152.336 156.791C153.312 156.284 153.825 155.659 154.008 154.977C154.21 154.849 154.376 154.658 154.472 154.418C155.945 150.722 156.482 147.577 157.051 144.247C157.189 143.439 157.332 142.604 157.489 141.755C158.153 138.174 159.092 133.971 160.726 130.272C160.766 131.473 160.996 132.667 161.432 133.789C162.811 137.342 167.807 139.66 170.513 141.421C172.069 139.542 171.857 135.976 170.838 133.759L170.838 133.76Z" fill="#D2FF00" stroke="#252525" stroke-linecap="round" stroke-linejoin="round"/>
</g>
<defs>
<filter id="filter0_i_6533_73444" x="-41" y="-16" width="398.91" height="225.834" filterUnits="userSpaceOnUse" color-interpolation-filters="sRGB">
<feFlood flood-opacity="0" result="BackgroundImageFix"/>
<feBlend mode="normal" in="SourceGraphic" in2="BackgroundImageFix" result="shape"/>
<feColorMatrix in="SourceAlpha" type="matrix" values="0 0 0 0 0 0 0 0 0 0 0 0 0 0 0 0 0 0 127 0" result="hardAlpha"/>
<feOffset dy="4"/>
<feGaussianBlur stdDeviation="2"/>
<feComposite in2="hardAlpha" operator="arithmetic" k2="-1" k3="1"/>
<feColorMatrix type="matrix" values="0 0 0 0 0 0 0 0 0 0 0 0 0 0 0 0 0 0 0.25 0"/>
<feBlend mode="normal" in2="shape" result="effect1_innerShadow_6533_73444"/>
</filter>
<filter id="filter1_i_6533_73444" x="-36" y="42.998" width="423.617" height="176.002" filterUnits="userSpaceOnUse" color-interpolation-filters="sRGB">
<feFlood flood-opacity="0" result="BackgroundImageFix"/>
<feBlend mode="normal" in="SourceGraphic" in2="BackgroundImageFix" result="shape"/>
<feColorMatrix in="SourceAlpha" type="matrix" values="0 0 0 0 0 0 0 0 0 0 0 0 0 0 0 0 0 0 127 0" result="hardAlpha"/>
<feOffset dy="4"/>
<feGaussianBlur stdDeviation="2"/>
<feComposite in2="hardAlpha" operator="arithmetic" k2="-1" k3="1"/>
<feColorMatrix type="matrix" values="0 0 0 0 0 0 0 0 0 0 0 0 0 0 0 0 0 0 0.25 0"/>
<feBlend mode="normal" in2="shape" result="effect1_innerShadow_6533_73444"/>
</filter>
</defs>
</svg>
