<svg width="319" height="193" viewBox="0 0 319 193" fill="none" xmlns="http://www.w3.org/2000/svg">
<mask id="mask0_6533_73341" style="mask-type:alpha" maskUnits="userSpaceOnUse" x="0" y="0" width="319" height="193">
<rect x="0.5" y="0.5" width="318" height="192" rx="14.5" fill="#D9D9D9" stroke="#F9F8F4"/>
</mask>
<g mask="url(#mask0_6533_73341)">
<g filter="url(#filter0_i_6533_73341)">
<path d="M35 108.833C1 112.833 -29.8333 160.833 -41 184.333V205.833H356C360.5 128.5 359.9 -24.0669 321.5 -15.6669C273.5 -5.16691 285.5 23.8331 213 77.3331C140.5 130.833 77.5 103.833 35 108.833Z" fill="#DCB8FF"/>
</g>
<g filter="url(#filter1_i_6533_73341)">
<path d="M41 135C11 135 -22.8333 170 -36 187.5V213L384 215C389.333 157.833 392.8 43.4002 364 43.0002C328 42.5002 297.5 128 231 148C164.5 168 78.5 135 41 135Z" fill="#FF5B23"/>
</g>
<path d="M217.699 119.368C216.899 118.002 218.011 116.31 219.583 116.506M217.699 119.368L224.387 130.775C225.047 131.899 224.41 133.342 223.133 133.611L209.545 136.476M217.699 119.368L218.131 119.116M217.699 119.368L323.869 191.127L317.181 179.721C317.181 179.721 317.181 179.721 317.181 179.721C316.348 178.302 317.152 176.482 318.763 176.143C318.763 176.143 318.764 176.143 318.764 176.143L332.352 173.277C333.503 173.035 333.869 171.571 332.967 170.815L322.556 162.086L322.556 162.086C321.282 161.017 321.447 159.008 322.88 158.162C322.88 158.162 322.88 158.162 322.88 158.162L334.805 151.123C335.822 150.522 335.697 149.015 334.596 148.591L334.596 148.591L321.678 143.608C320.125 143.01 319.631 141.056 320.714 139.791L329.551 129.468L329.551 129.468C330.316 128.575 329.715 127.192 328.539 127.141C328.539 127.141 328.539 127.141 328.539 127.141L314.663 126.548L314.663 126.548C313.018 126.477 311.926 124.815 312.515 123.277L317.242 110.925C317.66 109.833 316.644 108.736 315.523 109.069L315.523 109.069L302.395 112.967C302.395 112.967 302.395 112.967 302.395 112.967C300.843 113.428 299.289 112.259 299.298 110.641V110.641L299.378 97.7142C299.385 96.5533 298.066 95.8812 297.131 96.5688L297.131 96.5689L286.376 104.478C285.094 105.422 283.265 104.885 282.696 103.398C282.696 103.398 282.696 103.398 282.696 103.398L278.102 91.4064L278.102 91.4063C277.69 90.3289 276.228 90.1753 275.6 91.1447L268.532 102.067C267.673 103.395 265.79 103.549 264.726 102.381C264.726 102.381 264.726 102.381 264.726 102.381L255.961 92.7673L255.961 92.7671C255.185 91.9148 253.768 92.3047 253.536 93.4361C253.536 93.4362 253.536 93.4362 253.536 93.4363L250.969 106.02L250.969 106.02C250.65 107.578 248.936 108.409 247.516 107.688C247.516 107.688 247.516 107.688 247.516 107.688L235.611 101.652L235.611 101.652C234.577 101.127 233.386 102.006 233.583 103.15L233.583 103.15L235.781 115.887C236.057 117.483 234.714 118.889 233.109 118.69L233.108 118.69L219.522 117.002L219.521 117.002C218.361 116.857 217.539 118.106 218.131 119.116C218.131 119.116 218.131 119.116 218.131 119.116M219.583 116.506L229.016 186.788C229.483 185.569 228.618 184.251 227.314 184.195L213.439 183.602C211.847 183.534 211.032 181.661 212.069 180.449L220.906 170.126C221.764 169.124 221.373 167.575 220.142 167.101L207.223 162.118C205.733 161.544 205.563 159.502 206.94 158.689L218.866 151.65C220.001 150.98 220.132 149.387 219.122 148.54L208.711 139.811C207.49 138.786 207.985 136.806 209.545 136.476M219.583 116.506L233.17 118.194L219.583 116.506ZM209.545 136.476L209.648 136.965M209.545 136.476L209.648 136.965M229.483 186.966L224.756 199.319C224.339 200.411 225.355 201.508 226.476 201.175L226.476 201.175L239.603 197.278C241.155 196.817 242.709 197.986 242.7 199.604V199.604L242.621 212.531L242.121 212.528L242.621 212.531C242.613 213.692 243.932 214.364 244.867 213.676L244.867 213.676L255.623 205.767C255.623 205.767 255.623 205.767 255.623 205.767C256.906 204.823 258.734 205.36 259.303 206.847L263.896 218.839L263.896 218.839C264.309 219.916 265.771 220.07 266.398 219.1L266.818 219.372L266.398 219.1L273.47 208.177C273.47 208.177 273.47 208.177 273.47 208.177C274.329 206.849 276.212 206.695 277.276 207.862L286.041 217.476L286.041 217.477C286.817 218.329 288.235 217.939 288.466 216.807L291.033 204.224L291.033 204.224C291.352 202.666 293.066 201.835 294.486 202.556C294.486 202.556 294.486 202.556 294.486 202.556L306.391 208.592L306.391 208.592C307.425 209.117 308.616 208.237 308.419 207.094L308.419 207.094L306.221 194.356C305.945 192.761 307.288 191.355 308.893 191.554L308.894 191.554L322.478 193.242L322.478 193.241C323.638 193.385 324.46 192.137 323.869 191.127L229.483 186.966ZM229.483 186.966C230.073 185.429 228.98 183.766 227.335 183.695L227.335 183.695L213.461 183.102C212.285 183.052 211.684 181.669 212.449 180.775C212.449 180.775 212.449 180.774 212.449 180.774L221.286 170.451C222.368 169.187 221.875 167.233 220.322 166.634C220.322 166.634 220.322 166.634 220.322 166.634L207.403 161.652L207.403 161.652C206.303 161.228 206.178 159.72 207.194 159.12C207.194 159.12 207.194 159.12 207.194 159.12L219.12 152.08C220.553 151.235 220.717 149.225 219.444 148.157L219.444 148.157L209.032 139.428C209.032 139.428 209.032 139.428 209.032 139.428C208.131 138.671 208.496 137.209 209.648 136.965L229.483 186.966ZM218.131 119.116L224.818 130.522C225.651 131.941 224.848 133.761 223.236 134.1L209.648 136.965M218.131 119.116L209.648 136.965M233.091 103.235C232.823 101.686 234.437 100.495 235.837 101.206L247.742 107.242L233.091 103.235Z" fill="#FF5B23" stroke="#252525"/>
<path d="M288.271 114.426C310.748 123.965 321.236 149.92 311.696 172.397C302.156 194.874 276.201 205.361 253.724 195.821C231.248 186.281 220.76 160.327 230.3 137.85C239.84 115.373 265.795 104.886 288.271 114.426Z" fill="#FCF9F7" stroke="#252525"/>
<path d="M250.975 162.099C259.904 160.945 266.215 152.846 265.073 144.009C263.93 135.173 255.766 128.945 246.838 130.099C237.91 131.254 231.598 139.353 232.741 148.19C233.883 157.026 242.047 163.254 250.975 162.099Z" fill="#252525"/>
<path d="M259.593 112.278C260.207 115.19 256.136 118.513 250.501 119.7C244.865 120.888 239.8 119.49 239.186 116.578C238.573 113.666 242.643 110.343 248.278 109.156C253.914 107.968 258.979 109.366 259.593 112.278Z" fill="#FF5B23" stroke="#252525" stroke-miterlimit="10"/>
<path d="M293.035 120.537C292.637 123.486 287.689 125.254 281.982 124.486C276.274 123.719 271.969 120.706 272.365 117.756C272.761 114.806 277.711 113.039 283.418 113.806C289.125 114.574 293.431 117.587 293.035 120.537Z" fill="#FF5B23" stroke="#252525" stroke-miterlimit="10"/>
<path d="M247.124 132.3C246.309 132.405 245.525 132.591 244.766 132.824L237.426 154.144C240.33 158.206 245.349 160.584 250.691 159.893C250.763 159.883 250.833 159.865 250.905 159.855L258.984 136.392C256.007 133.368 251.686 131.71 247.124 132.3Z" fill="#FCF9F7"/>
<path d="M297.099 141.302C298.24 150.139 291.929 158.238 283.001 159.393C274.072 160.548 265.908 154.319 264.766 145.482C263.625 136.645 269.936 128.547 278.864 127.392C287.793 126.238 295.957 132.466 297.099 141.302Z" fill="#252525"/>
<path d="M279.148 129.596C278.332 129.701 277.549 129.887 276.79 130.12L269.449 151.44C272.354 155.503 277.373 157.88 282.715 157.189C282.787 157.179 282.855 157.161 282.927 157.15L291.006 133.687C288.03 130.663 283.71 129.007 279.148 129.596Z" fill="#FCF9F7"/>
<path d="M271.273 173.016C271.273 173.016 280.448 172.48 286.699 166.457" stroke="#252525" stroke-miterlimit="10" stroke-linecap="round"/>
<path d="M309.743 155.635C309.918 157.71 307.511 159.609 304.367 159.874C301.223 160.139 298.531 158.672 298.357 156.597C298.182 154.521 300.587 152.624 303.733 152.357C306.878 152.091 309.568 153.559 309.743 155.635Z" fill="#DCB8FF" stroke="#252525" stroke-miterlimit="10"/>
<path d="M240.107 164.22C240.281 166.296 237.876 168.193 234.73 168.46C231.585 168.726 228.895 167.258 228.72 165.182C228.545 163.107 230.951 161.208 234.096 160.943C237.24 160.678 239.932 162.145 240.107 164.22Z" fill="#DCB8FF" stroke="#252525" stroke-miterlimit="10"/>
<path d="M149.688 105.112C149.112 103.846 147.856 103.069 146.517 103.069C146.232 103.069 145.943 103.104 145.656 103.178L136.036 105.629L136.726 95.726C136.843 94.0428 135.737 92.5175 134.1 92.1057C133.817 92.0343 133.531 92 133.249 92C131.906 92 130.648 92.7807 130.074 94.0518L125.993 103.101L118.68 96.3879C118.017 95.7788 117.172 95.4703 116.323 95.4703C115.582 95.4703 114.839 95.7059 114.213 96.1829C112.87 97.2054 112.454 99.0428 113.224 100.544L117.754 109.377L107.946 110.909C106.279 111.169 105.038 112.586 105.001 114.273C104.963 115.96 106.14 117.432 107.794 117.766L117.525 119.731L112.607 128.354C111.771 129.82 112.106 131.674 113.401 132.755C114.048 133.294 114.841 133.564 115.633 133.564C116.426 133.564 117.226 133.292 117.873 132.748L125.476 126.366L129.152 135.587C129.688 136.932 130.985 137.782 132.387 137.782C132.619 137.782 132.853 137.758 133.088 137.71C134.741 137.371 135.913 135.897 135.871 134.21L135.622 124.286L145.123 127.162C145.458 127.263 145.797 127.312 146.133 127.311C147.415 127.311 148.63 126.6 149.237 125.408C150.003 123.904 149.581 122.068 148.235 121.05L140.321 115.057L148.494 109.422C149.883 108.464 150.386 106.648 149.687 105.112L149.688 105.112Z" fill="white" stroke="#252525" stroke-linecap="round" stroke-linejoin="round"/>
<path d="M132.389 134.298L126.929 120.599L115.634 130.08L122.939 117.27L108.484 114.351L123.054 112.076L116.324 98.9543L127.187 108.927L133.25 95.4844L132.226 110.195L146.516 106.554L134.376 114.926L146.133 123.827L132.019 119.556L132.389 134.298Z" fill="#D2FF00" stroke="#252525" stroke-linecap="round" stroke-linejoin="round"/>
<path d="M221.688 21.1121C221.112 19.8456 219.856 19.0694 218.517 19.0694C218.232 19.0694 217.943 19.1045 217.656 19.1777L208.036 21.6289L208.726 11.726C208.843 10.0428 207.737 8.51749 206.1 8.10566C205.817 8.03432 205.531 8 205.249 8C203.906 8 202.648 8.78067 202.074 10.0518L197.993 19.101L190.68 12.3879C190.017 11.7788 189.172 11.4703 188.323 11.4703C187.582 11.4703 186.839 11.7059 186.213 12.1829C184.87 13.2054 184.454 15.0428 185.224 16.5442L189.754 25.377L179.946 26.9086C178.279 27.1689 177.038 28.5864 177.001 30.2735C176.963 31.9604 178.14 33.4317 179.794 33.7656L189.525 35.7309L184.607 44.3541C183.771 45.8198 184.106 47.6738 185.401 48.7549C186.048 49.2942 186.841 49.5637 187.633 49.5637C188.426 49.5637 189.226 49.2918 189.873 48.7483L197.476 42.3661L201.152 51.5872C201.688 52.9322 202.985 53.7815 204.387 53.7815C204.619 53.7815 204.853 53.7582 205.088 53.7102C206.741 53.3712 207.913 51.8966 207.871 50.2098L207.622 40.2861L217.123 43.1616C217.458 43.263 217.797 43.3116 218.133 43.3114C219.415 43.3114 220.63 42.6001 221.237 41.408C222.003 39.9043 221.581 38.0682 220.235 37.0497L212.321 31.0571L220.494 25.4215C221.883 24.4637 222.386 22.6478 221.687 21.1119L221.688 21.1121Z" fill="white" stroke="#252525" stroke-linecap="round" stroke-linejoin="round"/>
<path d="M204.389 50.2975L198.929 36.5992L187.634 46.0801L194.939 33.2703L180.484 30.3508L195.054 28.0757L188.324 14.9543L199.187 24.927L205.25 11.4844L204.226 26.1953L218.516 22.5539L206.376 30.9256L218.133 39.8274L204.019 35.5556L204.389 50.2975Z" fill="#D2FF00" stroke="#252525" stroke-linecap="round" stroke-linejoin="round"/>
<path d="M318.778 63.3242C318.368 62.4235 317.476 61.8715 316.523 61.8715C316.32 61.8715 316.115 61.8965 315.911 61.9486L309.07 63.6916L309.56 56.6496C309.644 55.4526 308.857 54.368 307.694 54.0751C307.492 54.0244 307.289 54 307.088 54C306.133 54 305.238 54.5551 304.83 55.4591L301.928 61.894L296.728 57.1203C296.256 56.6871 295.655 56.4678 295.052 56.4678C294.525 56.4678 293.996 56.6353 293.551 56.9745C292.597 57.7016 292.301 59.0082 292.848 60.0759L296.07 66.357L289.095 67.4461C287.91 67.6312 287.027 68.6392 287.001 69.8389C286.974 71.0385 287.811 72.0847 288.987 72.3222L295.906 73.7197L292.409 79.8518C291.815 80.8941 292.053 82.2125 292.974 82.9813C293.434 83.3647 293.998 83.5564 294.561 83.5564C295.125 83.5564 295.694 83.3631 296.154 82.9766L301.561 78.4381L304.175 84.9953C304.556 85.9518 305.478 86.5558 306.475 86.5558C306.64 86.5558 306.807 86.5392 306.974 86.505C308.149 86.264 308.983 85.2154 308.953 84.0159L308.776 76.959L315.532 79.0038C315.77 79.0759 316.011 79.1105 316.25 79.1103C317.162 79.1103 318.026 78.6045 318.457 77.7568C319.002 76.6875 318.702 75.3819 317.745 74.6575L312.117 70.3961L317.929 66.3886C318.916 65.7075 319.274 64.4162 318.778 63.324L318.778 63.3242Z" fill="white" stroke="#252525" stroke-linecap="round" stroke-linejoin="round"/>
<path d="M306.475 84.079L302.592 74.338L294.561 81.0799L299.755 71.9707L289.477 69.8946L299.837 68.2768L295.052 58.946L302.777 66.0377L307.088 56.4785L306.36 66.9396L316.521 64.3502L307.889 70.3034L316.249 76.6335L306.212 73.5958L306.475 84.079Z" fill="#D2FF00" stroke="#252525" stroke-linecap="round" stroke-linejoin="round"/>
</g>
<defs>
<filter id="filter0_i_6533_73341" x="-41" y="-16" width="398.91" height="225.834" filterUnits="userSpaceOnUse" color-interpolation-filters="sRGB">
<feFlood flood-opacity="0" result="BackgroundImageFix"/>
<feBlend mode="normal" in="SourceGraphic" in2="BackgroundImageFix" result="shape"/>
<feColorMatrix in="SourceAlpha" type="matrix" values="0 0 0 0 0 0 0 0 0 0 0 0 0 0 0 0 0 0 127 0" result="hardAlpha"/>
<feOffset dy="4"/>
<feGaussianBlur stdDeviation="2"/>
<feComposite in2="hardAlpha" operator="arithmetic" k2="-1" k3="1"/>
<feColorMatrix type="matrix" values="0 0 0 0 0 0 0 0 0 0 0 0 0 0 0 0 0 0 0.25 0"/>
<feBlend mode="normal" in2="shape" result="effect1_innerShadow_6533_73341"/>
</filter>
<filter id="filter1_i_6533_73341" x="-36" y="42.998" width="423.617" height="176.002" filterUnits="userSpaceOnUse" color-interpolation-filters="sRGB">
<feFlood flood-opacity="0" result="BackgroundImageFix"/>
<feBlend mode="normal" in="SourceGraphic" in2="BackgroundImageFix" result="shape"/>
<feColorMatrix in="SourceAlpha" type="matrix" values="0 0 0 0 0 0 0 0 0 0 0 0 0 0 0 0 0 0 127 0" result="hardAlpha"/>
<feOffset dy="4"/>
<feGaussianBlur stdDeviation="2"/>
<feComposite in2="hardAlpha" operator="arithmetic" k2="-1" k3="1"/>
<feColorMatrix type="matrix" values="0 0 0 0 0 0 0 0 0 0 0 0 0 0 0 0 0 0 0.25 0"/>
<feBlend mode="normal" in2="shape" result="effect1_innerShadow_6533_73341"/>
</filter>
</defs>
</svg>
