<svg width="319" height="193" viewBox="0 0 319 193" fill="none" xmlns="http://www.w3.org/2000/svg">
<mask id="mask0_6533_73367" style="mask-type:alpha" maskUnits="userSpaceOnUse" x="0" y="0" width="319" height="193">
<rect x="0.5" y="0.5" width="318" height="192" rx="14.5" fill="#D9D9D9" stroke="#F9F8F4"/>
</mask>
<g mask="url(#mask0_6533_73367)">
<g filter="url(#filter0_i_6533_73367)">
<path d="M35 108.833C1 112.833 -29.8333 160.833 -41 184.333V205.833H356C360.5 128.5 359.9 -24.0669 321.5 -15.6669C273.5 -5.16691 285.5 23.8331 213 77.3331C140.5 130.833 77.5 103.833 35 108.833Z" fill="#DCB8FF"/>
</g>
<g filter="url(#filter1_i_6533_73367)">
<path d="M41 135C11 135 -22.8333 170 -36 187.5V213L384 215C389.333 157.833 392.8 43.4002 364 43.0002C328 42.5002 297.5 128 231 148C164.5 168 78.5 135 41 135Z" fill="#FF5B23"/>
</g>
<path d="M175.882 192.429C176.524 192.517 177.179 192.564 177.845 192.566L213.753 192.682C217.673 192.694 221.365 191.18 224.146 188.416C226.927 185.652 228.467 181.971 228.479 178.051C228.495 173.107 226.037 168.592 222.093 165.894L222.16 145.059C222.172 141.192 223.705 137.546 226.475 134.793C229.245 132.041 232.901 130.531 236.769 130.545C240.64 130.557 244.284 132.09 247.036 134.86C249.789 137.63 251.297 141.285 251.285 145.154L251.218 165.989C247.257 168.661 244.769 173.158 244.752 178.101C244.74 182.022 246.254 185.714 249.018 188.495C251.781 191.276 255.462 192.815 259.384 192.828L295.291 192.944C299.212 192.956 302.904 191.442 305.685 188.678C308.466 185.914 310.005 182.233 310.018 178.313C310.037 172.388 306.597 167.261 301.502 164.928L301.583 139.643C301.7 103.889 272.705 74.7088 236.951 74.5915C219.696 74.5358 203.409 81.2465 191.089 93.4868C178.769 105.728 171.953 121.971 171.897 139.226L171.816 164.51C166.707 166.811 163.233 171.915 163.212 177.84C163.189 185.268 168.716 191.443 175.882 192.429Z" fill="#FDFFF9"/>
<path d="M237.022 79.828C204.233 79.7219 177.318 106.463 177.212 139.253L177.072 182.737L190.181 182.78L190.303 144.967C190.386 119.387 211.382 98.526 236.963 98.6084C262.543 98.6909 283.404 119.688 283.322 145.268L283.199 183.081L296.308 183.123L296.448 139.639C296.553 106.848 269.812 79.934 237.022 79.828Z" fill="#DCB8FF" stroke="#1D1F4C" stroke-width="1.5" stroke-linecap="round" stroke-linejoin="round"/>
<path d="M236.964 98.6093C211.383 98.5269 190.387 119.388 190.304 144.968L190.182 182.781L203.605 182.824L203.727 145.011C203.785 126.814 218.722 111.974 236.92 112.033C255.116 112.091 269.957 127.028 269.898 145.226L269.776 183.038L283.199 183.081L283.322 145.269C283.404 119.688 262.544 98.6918 236.964 98.6093Z" fill="#FF5B23" stroke="#1D1F4C" stroke-width="1.5" stroke-linecap="round" stroke-linejoin="round"/>
<path d="M236.92 112.032C218.723 111.973 203.786 126.814 203.727 145.011L203.605 182.824L216.903 182.867L217.025 145.055C217.06 134.171 225.994 125.295 236.877 125.331C247.761 125.365 256.637 134.299 256.602 145.183L256.479 182.995L269.777 183.038L269.899 145.225C269.958 127.028 255.117 112.092 236.92 112.032Z" fill="#D2FF00" stroke="#1D1F4C" stroke-width="1.5" stroke-linecap="round" stroke-linejoin="round"/>
<path d="M213.919 168.56C212.004 168.553 210.224 169.121 208.732 170.095C206.013 165.819 201.243 162.973 195.8 162.956C190.425 162.938 185.688 165.683 182.926 169.853C181.494 168.971 179.815 168.451 178.011 168.444C172.79 168.427 168.543 172.646 168.527 177.867C168.51 183.088 172.728 187.334 177.949 187.35L213.858 187.466C219.079 187.483 223.325 183.265 223.341 178.044C223.358 172.823 219.14 168.577 213.919 168.56Z" fill="#DCB8FF" stroke="#1D1F4C" stroke-width="1.5" stroke-linecap="round" stroke-linejoin="round"/>
<path d="M295.457 168.824C293.543 168.817 291.762 169.384 290.271 170.358C287.552 166.083 282.782 163.237 277.339 163.219C271.964 163.202 267.227 165.947 264.465 170.116C263.034 169.234 261.355 168.714 259.55 168.707C254.329 168.691 250.083 172.909 250.066 178.13C250.05 183.35 254.268 187.597 259.489 187.613L295.397 187.729C300.618 187.745 304.864 183.527 304.881 178.306C304.897 173.086 300.679 168.84 295.458 168.823L295.457 168.824Z" fill="#DCB8FF" stroke="#1D1F4C" stroke-width="1.5" stroke-linecap="round" stroke-linejoin="round"/>
<path d="M180.985 176.903C180.985 176.903 183.415 169.494 193.394 171.673L180.985 176.903Z" fill="#DCB8FF"/>
<path d="M180.985 176.903C180.985 176.903 183.415 169.494 193.394 171.673" stroke="#1D1F4C" stroke-width="1.5" stroke-linecap="round" stroke-linejoin="round"/>
<path d="M279.88 178.815C279.88 178.815 282.31 171.406 292.289 173.585L279.88 178.815Z" fill="#DCB8FF"/>
<path d="M279.88 178.815C279.88 178.815 282.31 171.406 292.289 173.585" stroke="#1D1F4C" stroke-width="1.5" stroke-linecap="round" stroke-linejoin="round"/>
<path d="M199.083 113.161C198.018 115.363 198.941 118.011 201.143 119.075C203.345 120.14 205.993 119.217 207.058 117.015C208.122 114.813 207.199 112.165 204.997 111.1C202.795 110.036 200.147 110.959 199.083 113.161Z" fill="#DCB8FF" stroke="#1D1F4C" stroke-width="1.5" stroke-linecap="round" stroke-linejoin="round"/>
<path d="M218.768 115.151C218.082 116.569 218.677 118.275 220.096 118.96C221.514 119.645 223.22 119.051 223.905 117.632C224.59 116.213 223.996 114.508 222.577 113.823C221.158 113.137 219.453 113.732 218.768 115.151Z" fill="#DCB8FF" stroke="#1D1F4C" stroke-width="1.5" stroke-linecap="round" stroke-linejoin="round"/>
<path d="M265.957 113.71C268.158 114.774 270.807 113.852 271.871 111.65C272.935 109.448 272.012 106.799 269.81 105.735C267.608 104.671 264.959 105.594 263.895 107.796C262.831 109.998 263.754 112.646 265.957 113.71Z" fill="#FF5B23" stroke="#1D1F4C" stroke-width="1.5" stroke-linecap="round" stroke-linejoin="round"/>
<path d="M257.314 96.1472C258.733 96.8329 260.439 96.2384 261.124 94.8197C261.81 93.4009 261.216 91.6954 259.797 91.0105C258.378 90.3248 256.672 90.9193 255.987 92.338C255.301 93.7568 255.896 95.4623 257.314 96.1472Z" fill="#FF5B23" stroke="#1D1F4C" stroke-width="1.5" stroke-linecap="round" stroke-linejoin="round"/>
<path d="M190.264 151.876C192.467 152.94 195.115 152.017 196.179 149.816C197.243 147.614 196.32 144.965 194.118 143.901C191.916 142.837 189.268 143.76 188.204 145.962C187.14 148.164 188.062 150.812 190.264 151.876Z" fill="#D2FF00" stroke="#1D1F4C" stroke-width="1.5" stroke-linecap="round" stroke-linejoin="round"/>
<path d="M242.041 108.061C243.46 108.747 245.165 108.152 245.85 106.733C246.536 105.315 245.941 103.609 244.523 102.924C243.104 102.239 241.398 102.833 240.713 104.252C240.028 105.67 240.622 107.376 242.041 108.061Z" fill="#D2FF00" stroke="#1D1F4C" stroke-width="1.5" stroke-linecap="round" stroke-linejoin="round"/>
<path d="M213.533 98.4773C214.952 99.163 216.657 98.5685 217.342 97.1496C218.028 95.7309 217.434 94.0253 216.015 93.3405C214.596 92.6548 212.89 93.2493 212.205 94.6681C211.52 96.0868 212.114 97.7924 213.533 98.4773Z" fill="#D2FF00" stroke="#1D1F4C" stroke-width="1.5" stroke-linecap="round" stroke-linejoin="round"/>
<path d="M283.041 149.374C284.46 150.059 286.165 149.465 286.85 148.046C287.536 146.627 286.941 144.922 285.522 144.237C284.104 143.551 282.398 144.146 281.713 145.565C281.028 146.983 281.622 148.689 283.041 149.374Z" fill="#D2FF00" stroke="#1D1F4C" stroke-width="1.5" stroke-linecap="round" stroke-linejoin="round"/>
<path d="M70.2093 191.92C70.6495 191.98 71.099 192.012 71.5551 192.014L96.1769 192.093C98.8649 192.102 101.396 191.063 103.303 189.168C105.21 187.273 106.266 184.749 106.274 182.061C106.285 178.671 104.6 175.575 101.895 173.725L101.941 159.439C101.95 156.787 103.001 154.287 104.9 152.4C106.8 150.513 109.306 149.478 111.959 149.487C114.612 149.496 117.111 150.546 118.998 152.446C120.886 154.345 121.92 156.852 121.912 159.504L121.866 173.79C119.15 175.622 117.444 178.706 117.433 182.096C117.424 184.784 118.462 187.315 120.357 189.222C122.252 191.129 124.776 192.185 127.465 192.193L152.086 192.273C154.775 192.281 157.306 191.243 159.213 189.348C161.12 187.452 162.175 184.929 162.184 182.24C162.197 178.178 159.838 174.663 156.344 173.063L156.4 155.725C156.48 131.21 136.599 111.201 112.083 111.121C100.252 111.083 89.084 115.684 80.6367 124.077C72.1887 132.471 67.5155 143.608 67.4774 155.439L67.4216 172.776C63.9181 174.354 61.536 177.853 61.5222 181.916C61.5058 187.01 65.2958 191.244 70.2093 191.92Z" fill="#FDFFF9"/>
<path d="M112.13 114.713C89.6471 114.64 71.1925 132.976 71.1198 155.459L71.0235 185.276L80.0118 185.305L80.0959 159.378C80.1524 141.838 94.5494 127.534 112.089 127.59C129.629 127.647 143.933 142.044 143.877 159.584L143.793 185.511L152.781 185.54L152.877 155.724C152.949 133.24 134.614 114.786 112.13 114.713Z" fill="#DCB8FF" stroke="#1D1F4C" stroke-width="1.5" stroke-linecap="round" stroke-linejoin="round"/>
<path d="M112.09 127.591C94.5497 127.535 80.1527 141.839 80.0962 159.379L80.0121 185.306L89.2162 185.336L89.2997 159.408C89.3399 146.931 99.5817 136.755 112.059 136.795C124.537 136.836 134.713 147.077 134.672 159.555L134.588 185.483L143.792 185.512L143.876 159.585C143.933 142.045 129.629 127.648 112.09 127.591Z" fill="#FF5B23" stroke="#1D1F4C" stroke-width="1.5" stroke-linecap="round" stroke-linejoin="round"/>
<path d="M112.059 136.794C99.5819 136.754 89.3395 146.93 89.2993 159.407L89.2158 185.334L98.3337 185.364L98.4176 159.437C98.4415 151.974 104.567 145.888 112.03 145.912C119.493 145.936 125.579 152.062 125.554 159.525L125.47 185.452L134.588 185.481L134.672 159.554C134.713 147.077 124.536 136.835 112.059 136.794Z" fill="#D2FF00" stroke="#1D1F4C" stroke-width="1.5" stroke-linecap="round" stroke-linejoin="round"/>
<path d="M96.2898 175.553C94.9769 175.548 93.7563 175.937 92.7331 176.605C90.8685 173.673 87.5983 171.722 83.866 171.71C80.1802 171.698 76.9325 173.58 75.0382 176.439C74.0568 175.834 72.9056 175.478 71.668 175.473C68.0883 175.462 65.1766 178.354 65.1653 181.934C65.154 185.514 68.0462 188.426 71.6261 188.437L96.2478 188.516C99.8277 188.527 102.739 185.635 102.751 182.055C102.762 178.476 99.8696 175.565 96.2898 175.553Z" fill="#DCB8FF" stroke="#1D1F4C" stroke-width="1.5" stroke-linecap="round" stroke-linejoin="round"/>
<path d="M152.199 175.734C150.887 175.73 149.666 176.119 148.643 176.787C146.779 173.855 143.508 171.903 139.776 171.892C136.09 171.88 132.843 173.762 130.948 176.62C129.967 176.016 128.816 175.659 127.578 175.654C123.998 175.643 121.087 178.535 121.076 182.115C121.064 185.695 123.956 188.607 127.536 188.618L152.158 188.697C155.738 188.708 158.649 185.816 158.661 182.236C158.672 178.657 155.78 175.746 152.2 175.734L152.199 175.734Z" fill="#DCB8FF" stroke="#1D1F4C" stroke-width="1.5" stroke-linecap="round" stroke-linejoin="round"/>
<path d="M73.7041 181.274C73.7041 181.274 75.3703 176.194 82.2125 177.688L73.7041 181.274Z" fill="#DCB8FF"/>
<path d="M73.7041 181.274C73.7041 181.274 75.3703 176.194 82.2125 177.688" stroke="#1D1F4C" stroke-width="1.5" stroke-linecap="round" stroke-linejoin="round"/>
<path d="M141.513 182.585C141.513 182.585 143.179 177.505 150.021 178.998L141.513 182.585Z" fill="#DCB8FF"/>
<path d="M141.513 182.585C141.513 182.585 143.179 177.505 150.021 178.998" stroke="#1D1F4C" stroke-width="1.5" stroke-linecap="round" stroke-linejoin="round"/>
<path d="M86.115 137.569C85.3853 139.078 86.0181 140.894 87.5279 141.624C89.0377 142.354 90.8536 141.721 91.5833 140.211C92.313 138.701 91.6802 136.885 90.1705 136.156C88.6607 135.426 86.8447 136.059 86.115 137.569Z" fill="#DCB8FF" stroke="#1D1F4C" stroke-width="1.5" stroke-linecap="round" stroke-linejoin="round"/>
<path d="M99.6137 138.932C99.1436 139.905 99.5512 141.074 100.524 141.543C101.496 142.013 102.666 141.606 103.135 140.633C103.605 139.661 103.198 138.491 102.225 138.022C101.252 137.552 100.083 137.959 99.6137 138.932Z" fill="#DCB8FF" stroke="#1D1F4C" stroke-width="1.5" stroke-linecap="round" stroke-linejoin="round"/>
<path d="M131.97 137.944C133.48 138.674 135.296 138.041 136.025 136.531C136.755 135.022 136.122 133.206 134.612 132.476C133.102 131.746 131.286 132.379 130.556 133.889C129.827 135.399 130.46 137.215 131.97 137.944Z" fill="#FF5B23" stroke="#1D1F4C" stroke-width="1.5" stroke-linecap="round" stroke-linejoin="round"/>
<path d="M126.043 125.901C127.016 126.371 128.185 125.963 128.655 124.991C129.125 124.018 128.718 122.849 127.745 122.379C126.773 121.909 125.603 122.317 125.133 123.289C124.663 124.262 125.071 125.431 126.043 125.901Z" fill="#FF5B23" stroke="#1D1F4C" stroke-width="1.5" stroke-linecap="round" stroke-linejoin="round"/>
<path d="M80.0709 164.114C81.5812 164.844 83.3966 164.211 84.1263 162.701C84.856 161.192 84.2232 159.376 82.7134 158.646C81.2036 157.916 79.3877 158.549 78.658 160.059C77.9283 161.569 78.5611 163.384 80.0709 164.114Z" fill="#D2FF00" stroke="#1D1F4C" stroke-width="1.5" stroke-linecap="round" stroke-linejoin="round"/>
<path d="M115.571 134.07C116.543 134.54 117.713 134.133 118.182 133.16C118.652 132.188 118.245 131.018 117.272 130.549C116.299 130.079 115.13 130.486 114.661 131.459C114.191 132.432 114.598 133.601 115.571 134.07Z" fill="#D2FF00" stroke="#1D1F4C" stroke-width="1.5" stroke-linecap="round" stroke-linejoin="round"/>
<path d="M96.02 127.498C96.9926 127.968 98.1618 127.561 98.6313 126.588C99.1014 125.616 98.6939 124.446 97.7212 123.977C96.7486 123.507 95.5793 123.914 95.1098 124.887C94.6397 125.86 95.0473 127.029 96.02 127.498Z" fill="#D2FF00" stroke="#1D1F4C" stroke-width="1.5" stroke-linecap="round" stroke-linejoin="round"/>
<path d="M143.684 162.397C144.657 162.867 145.826 162.459 146.295 161.487C146.765 160.514 146.358 159.345 145.385 158.875C144.413 158.405 143.243 158.813 142.774 159.785C142.304 160.758 142.711 161.927 143.684 162.397Z" fill="#D2FF00" stroke="#1D1F4C" stroke-width="1.5" stroke-linecap="round" stroke-linejoin="round"/>
</g>
<defs>
<filter id="filter0_i_6533_73367" x="-41" y="-16" width="398.91" height="225.834" filterUnits="userSpaceOnUse" color-interpolation-filters="sRGB">
<feFlood flood-opacity="0" result="BackgroundImageFix"/>
<feBlend mode="normal" in="SourceGraphic" in2="BackgroundImageFix" result="shape"/>
<feColorMatrix in="SourceAlpha" type="matrix" values="0 0 0 0 0 0 0 0 0 0 0 0 0 0 0 0 0 0 127 0" result="hardAlpha"/>
<feOffset dy="4"/>
<feGaussianBlur stdDeviation="2"/>
<feComposite in2="hardAlpha" operator="arithmetic" k2="-1" k3="1"/>
<feColorMatrix type="matrix" values="0 0 0 0 0 0 0 0 0 0 0 0 0 0 0 0 0 0 0.25 0"/>
<feBlend mode="normal" in2="shape" result="effect1_innerShadow_6533_73367"/>
</filter>
<filter id="filter1_i_6533_73367" x="-36" y="42.998" width="423.617" height="176.002" filterUnits="userSpaceOnUse" color-interpolation-filters="sRGB">
<feFlood flood-opacity="0" result="BackgroundImageFix"/>
<feBlend mode="normal" in="SourceGraphic" in2="BackgroundImageFix" result="shape"/>
<feColorMatrix in="SourceAlpha" type="matrix" values="0 0 0 0 0 0 0 0 0 0 0 0 0 0 0 0 0 0 127 0" result="hardAlpha"/>
<feOffset dy="4"/>
<feGaussianBlur stdDeviation="2"/>
<feComposite in2="hardAlpha" operator="arithmetic" k2="-1" k3="1"/>
<feColorMatrix type="matrix" values="0 0 0 0 0 0 0 0 0 0 0 0 0 0 0 0 0 0 0.25 0"/>
<feBlend mode="normal" in2="shape" result="effect1_innerShadow_6533_73367"/>
</filter>
</defs>
</svg>
