<svg width="523" height="196" viewBox="0 0 523 196" fill="none" xmlns="http://www.w3.org/2000/svg">
<path d="M450.283 26.9873H72.9095C33.7473 26.9873 2 58.7238 2 97.8728C2 137.022 33.7473 168.758 72.9095 168.758H450.283C489.445 168.758 521.193 137.022 521.193 97.8728C521.193 58.7238 489.445 26.9873 450.283 26.9873Z" fill="#252525" stroke="#D2FF00" stroke-width="3.3" stroke-miterlimit="10"/>
<mask id="mask0_3394_8887" style="mask-type:luminance" maskUnits="userSpaceOnUse" x="2" y="26" width="520" height="143">
<path d="M450.283 26.9873H72.9095C33.7473 26.9873 2 58.7238 2 97.8728C2 137.022 33.7473 168.758 72.9095 168.758H450.283C489.445 168.758 521.193 137.022 521.193 97.8728C521.193 58.7238 489.445 26.9873 450.283 26.9873Z" fill="white"/>
</mask>
<g mask="url(#mask0_3394_8887)">
<path opacity="0.1" d="M10.5457 122.045C10.5457 122.045 19.7022 109.487 37.7142 93.2557C60.1624 73.0276 117.764 70.505 119.218 70.4427C143.694 69.3684 159.601 67.6177 172.284 65.5498C193.234 62.1326 195.005 60.6129 217.153 56.6604C232.587 53.9068 273.514 47.3951 323.01 49.243C337.793 49.7948 336.843 50.2824 354.906 51.1166C368.277 51.7344 386.978 51.9947 420.241 50.8856C435.794 50.3668 462.26 49.1972 488.704 64.4645C502.729 72.562 512.21 82.6632 518.046 89.9944C523.118 65.9989 525.41 33.8107 508.808 6.88751C480.866 -38.4287 420.314 -34.9143 268.099 -47.9744C77.2521 -64.3508 43.3277 -80.9527 13.8045 -49.6041C-37.3196 4.68399 -7.56721 130.913 2.93708 131.82C4.39316 131.947 5.01852 129.622 10.5439 122.043L10.5457 122.045Z" fill="white"/>
<path opacity="0.1" d="M2 97.8717C9.87455 90.7294 21.7047 81.983 37.7143 76.9599C54.8644 71.5774 69.1923 72.8552 73.577 73.1577C118.967 76.2797 194.285 50.0623 259.135 39.2077C297.736 32.7473 353.404 28.254 424.497 38.8007C514.272 24.758 538.522 9.76933 539.239 -2.88928C541.941 -50.5428 217.521 -176.933 70.8611 -40.9128C26.5773 0.157585 9.21255 55.2651 2.00185 97.8717H2Z" fill="white"/>
</g>
<path d="M98.6951 17.1097C98.6951 8.76484 91.9285 2 83.5814 2C75.2344 2 68.4678 8.76484 68.4678 17.1097V178.636C68.4678 186.981 75.2344 193.745 83.5814 193.745C91.9285 193.745 98.6951 186.981 98.6951 178.636V17.1097Z" fill="#252525" stroke="#D2FF00" stroke-width="3.3" stroke-miterlimit="10"/>
<path d="M454.722 17.1097C454.722 8.76484 447.956 2 439.609 2C431.262 2 424.495 8.76484 424.495 17.1097V178.636C424.495 186.981 431.262 193.745 439.609 193.745C447.956 193.745 454.722 186.981 454.722 178.636V17.1097Z" fill="#252525" stroke="#D2FF00" stroke-width="3.3" stroke-miterlimit="10"/>
<path d="M409.088 127.737V68.0082C409.088 55.4778 398.927 45.3198 386.392 45.3198L136.798 45.3198C124.263 45.3198 114.102 55.4778 114.102 68.0082V127.737C114.102 140.268 124.263 150.426 136.798 150.426H386.392C398.927 150.426 409.088 140.268 409.088 127.737Z" fill="#212121" stroke="#D2FF00" stroke-width="3" stroke-miterlimit="10"/>
<path d="M399.918 68.0065V127.738C399.918 135.201 393.857 141.258 386.393 141.258H136.799C129.333 141.258 123.273 135.199 123.273 127.736V68.0065C123.273 60.5433 129.333 54.4844 136.799 54.4844L386.393 54.4844C393.859 54.4844 399.918 60.5433 399.918 68.0065Z" fill="#2D2D2D"/>
<path d="M359.207 97.8716L329.233 67.9053L326.234 70.9008L351.094 95.7542H271.565V99.9908H351.094L326.234 124.842L329.233 127.84L359.207 97.8734V97.8716Z" fill="#D2FF00"/>
<path d="M163.984 97.8716L193.961 67.9053L196.957 70.9008L172.097 95.7542H251.628V99.9908H172.097L196.957 124.842L193.961 127.84L163.984 97.8734L163.986 97.8716H163.984Z" fill="#D2FF00"/>
<path opacity="0.5" d="M18.8986 72.7161C19.8082 64.0448 24.369 57.8465 25.2144 56.7264C36.0158 42.416 57.8313 38.6267 58.2237 39.6167C58.4511 40.1923 51.609 41.5434 42.7387 48.5794C38.5538 51.8994 28.4419 59.9181 23.177 73.0222C21.8529 76.3184 20.6444 80.4102 19.7128 80.2525C18.7776 80.0949 18.5795 75.7501 18.8986 72.7161Z" fill="white"/>
<path opacity="0.5" d="M107.129 35.1583C107.145 35.9191 134.695 36.3755 252.478 35.1344C258.504 35.0153 265.786 34.8081 265.79 34.4561C265.799 33.6917 231.699 32.4322 203.168 32.1719C153.496 31.7191 107.109 34.172 107.129 35.1601V35.1583Z" fill="white"/>
<mask id="mask1_3394_8887" style="mask-type:luminance" maskUnits="userSpaceOnUse" x="424" y="2" width="31" height="192">
<path d="M454.722 17.1097C454.722 8.76484 447.956 2 439.609 2C431.262 2 424.495 8.76484 424.495 17.1097V178.636C424.495 186.981 431.262 193.745 439.609 193.745C447.956 193.745 454.722 186.981 454.722 178.636V17.1097Z" fill="white"/>
</mask>
<g mask="url(#mask1_3394_8887)">
<path opacity="0.1" d="M424.495 50.7497C428.581 50.9752 431.088 48.6672 438.647 48.9861C445.737 49.285 449.854 51.5802 452.911 52.4492C465.882 56.1377 488.794 42.4139 493.048 24.8275C498.517 2.22719 472.731 -24.7564 445.779 -24.344C423.799 -24.0066 402.376 -4.58702 401.767 16.3946C401.299 32.5107 413.733 50.1576 424.495 50.7497Z" fill="white"/>
</g>
<mask id="mask2_3394_8887" style="mask-type:luminance" maskUnits="userSpaceOnUse" x="68" y="2" width="31" height="192">
<path d="M98.6951 17.1097C98.6951 8.76484 91.9285 2 83.5814 2C75.2344 2 68.4678 8.76484 68.4678 17.1097V178.636C68.4678 186.981 75.2344 193.745 83.5814 193.745C91.9285 193.745 98.6951 186.981 98.6951 178.636V17.1097Z" fill="white"/>
</mask>
<g mask="url(#mask2_3394_8887)">
<path opacity="0.1" d="M66.8975 78.83C70.6441 77.0774 76.4739 74.7455 83.8992 73.4292C90.6697 72.2284 95.4946 72.4539 97.3467 72.4099C111.249 72.0854 136.833 52.4971 137.02 24.826C137.196 -1.31987 114.636 -24.9908 89.7509 -24.3455C65.9182 -23.7277 50.4534 -1.07967 45.7386 16.3931C39.8115 38.3573 48.0235 62.6882 66.8975 78.8281V78.83Z" fill="white"/>
</g>
</svg>
