<svg width="329" height="207" viewBox="0 0 329 207" fill="none" xmlns="http://www.w3.org/2000/svg">
<rect x="0.5" y="1.02344" width="328" height="205" rx="4.5" stroke="#F9F8F4"/>
<rect x="99.1641" y="159.398" width="128.625" height="33.996" rx="16.998" stroke="#F9F8F4"/>
<rect x="117.543" y="155.51" width="5.28776" height="42.2589" rx="2.64388" fill="#212121" stroke="#F9F8F4"/>
<rect x="204.604" y="155.51" width="5.28776" height="42.2589" rx="2.64388" fill="#212121" stroke="#F9F8F4"/>
<path d="M177.019 158.661C187.04 158.661 195.163 150.497 195.163 140.427C195.163 130.358 187.04 122.194 177.019 122.194C166.998 122.194 158.875 130.358 158.875 140.427C158.875 150.497 166.998 158.661 177.019 158.661Z" fill="#212121"/>
<path d="M177.02 158.898C166.885 158.898 158.641 150.613 158.641 140.428C158.641 130.242 166.885 121.958 177.02 121.958C187.154 121.958 195.399 130.243 195.399 140.428C195.399 150.612 187.154 158.898 177.02 158.898ZM177.02 122.431C167.145 122.431 159.111 130.504 159.111 140.428C159.111 150.351 167.145 158.424 177.02 158.424C186.894 158.424 194.928 150.351 194.928 140.428C194.928 130.504 186.895 122.431 177.02 122.431Z" fill="#D2FF00"/>
<path d="M183.524 157.692C183.434 157.692 183.348 157.641 183.309 157.553C183.256 157.435 183.309 157.294 183.427 157.241C186.268 155.951 187.897 152.428 187.897 147.575C187.897 138.911 182.643 128.814 176.185 125.067C173.361 123.428 170.616 123.226 168.655 124.512C168.546 124.583 168.401 124.554 168.329 124.443C168.259 124.334 168.289 124.187 168.398 124.115C170.513 122.727 173.437 122.924 176.421 124.656C183.009 128.478 188.368 138.76 188.368 147.574C188.368 152.622 186.638 156.302 183.621 157.672C183.59 157.686 183.557 157.693 183.524 157.693L183.524 157.692Z" fill="#D2FF00"/>
<path d="M174.787 158.65C174.531 158.65 174.27 158.634 174.006 158.602C173.877 158.587 173.785 158.469 173.801 158.339C173.816 158.21 173.927 158.115 174.063 158.133C175.646 158.321 177.087 157.89 178.219 156.881C179.924 155.359 180.863 152.633 180.863 149.204C180.863 141.55 176.222 132.63 170.519 129.321C167.22 127.406 164.229 127.72 162.318 130.179C162.237 130.283 162.089 130.3 161.987 130.221C161.884 130.14 161.867 129.991 161.947 129.888C163.989 127.261 167.282 126.898 170.755 128.911C176.588 132.296 181.334 141.399 181.334 149.204C181.334 152.772 180.338 155.623 178.532 157.235C177.486 158.169 176.203 158.65 174.788 158.65L174.787 158.65Z" fill="#D2FF00"/>
<path d="M193.235 148.858C193.208 148.858 193.18 148.853 193.154 148.843C193.031 148.798 192.969 148.661 193.015 148.539C193.509 147.188 193.761 145.595 193.761 143.806C193.761 136.152 189.12 127.232 183.416 123.923C182.551 123.421 181.694 123.067 180.867 122.873C180.741 122.843 180.662 122.715 180.692 122.588C180.722 122.461 180.846 122.381 180.975 122.412C181.845 122.617 182.745 122.987 183.651 123.512C189.485 126.897 194.231 136 194.231 143.805C194.231 145.651 193.971 147.298 193.456 148.702C193.421 148.798 193.331 148.858 193.235 148.858Z" fill="#D2FF00"/>
<path d="M168.746 155.688C167.849 155.688 166.88 155.4 165.895 154.829C162.039 152.591 158.902 146.578 158.902 141.423C158.902 138.661 159.811 136.55 161.396 135.631C162.719 134.862 164.402 134.991 166.131 135.994C169.986 138.232 173.123 144.246 173.123 149.4C173.123 152.162 172.214 154.273 170.629 155.193C170.059 155.523 169.423 155.688 168.746 155.688ZM163.28 135.61C162.683 135.61 162.127 135.753 161.632 136.041C160.196 136.873 159.373 138.835 159.373 141.423C159.373 146.427 162.404 152.256 166.131 154.418C167.707 155.334 169.222 155.462 170.393 154.783C171.829 153.951 172.652 151.988 172.652 149.401C172.652 144.398 169.621 138.567 165.895 136.405C164.985 135.877 164.095 135.61 163.28 135.61Z" fill="#D2FF00"/>
<rect x="0.480469" y="41.5235" width="34.8543" height="14.8316" fill="#D2FF00"/>
<rect x="0.480469" y="83.7934" width="34.8543" height="14.8316" fill="#D2FF00"/>
<rect x="34.5938" y="55.6133" width="37.8207" height="14.8316" fill="#D2FF00"/>
<rect x="182.911" y="55.6133" width="37.8207" height="14.8316" fill="#D2FF00"/>
<rect x="108.752" y="41.5235" width="37.8207" height="14.8316" fill="#D2FF00"/>
<rect x="108.752" y="69.7034" width="37.8207" height="14.8316" fill="#D2FF00"/>
<rect x="145.831" y="83.7933" width="37.8207" height="14.8316" fill="#D2FF00"/>
<rect x="257.069" y="41.5235" width="37.8207" height="14.8316" fill="#D2FF00"/>
<rect x="257.069" y="83.7933" width="37.8207" height="14.8316" fill="#D2FF00"/>
<line x1="0.480469" y1="41.7649" x2="329.001" y2="41.7649" stroke="#F9F8F4"/>
<line x1="0.480469" y1="55.855" x2="329.001" y2="55.855" stroke="#F9F8F4"/>
<line x1="0.480469" y1="69.9449" x2="329.001" y2="69.9449" stroke="#F9F8F4"/>
<line x1="0.480469" y1="84.035" x2="329.001" y2="84.035" stroke="#F9F8F4"/>
<line x1="0.480469" y1="98.1252" x2="329.001" y2="98.1252" stroke="#F9F8F4"/>
<line x1="34.8359" y1="98.6252" x2="34.8359" y2="41.5234" stroke="#F9F8F4"/>
<line x1="71.9141" y1="98.6252" x2="71.9141" y2="41.5234" stroke="#F9F8F4"/>
<line x1="108.992" y1="98.6252" x2="108.992" y2="41.5234" stroke="#F9F8F4"/>
<line x1="146.072" y1="98.6252" x2="146.072" y2="41.5234" stroke="#F9F8F4"/>
<line x1="183.152" y1="98.6252" x2="183.152" y2="41.5234" stroke="#F9F8F4"/>
<line x1="220.23" y1="98.6252" x2="220.23" y2="41.5234" stroke="#F9F8F4"/>
<line x1="257.312" y1="98.6252" x2="257.312" y2="41.5234" stroke="#F9F8F4"/>
<line x1="294.391" y1="98.6252" x2="294.391" y2="41.5234" stroke="#F9F8F4"/>
</svg>
