<svg width="329" height="158" viewBox="0 0 329 158" fill="none" xmlns="http://www.w3.org/2000/svg">
<rect x="99.1641" y="118.875" width="128.625" height="33.996" rx="16.998" stroke="#F9F8F4"/>
<rect x="117.543" y="114.986" width="5.28776" height="42.2589" rx="2.64388" fill="#212121" stroke="#F9F8F4"/>
<rect x="204.604" y="114.986" width="5.28776" height="42.2589" rx="2.64388" fill="#212121" stroke="#F9F8F4"/>
<path d="M177.019 118.137C187.04 118.137 195.163 109.974 195.163 99.904C195.163 89.8341 187.04 81.6708 177.019 81.6708C166.998 81.6708 158.875 89.8341 158.875 99.904C158.875 109.974 166.998 118.137 177.019 118.137Z" fill="#212121"/>
<path d="M177.02 118.375C166.885 118.375 158.641 110.089 158.641 99.9041C158.641 89.719 166.885 81.4343 177.02 81.4343C187.154 81.4343 195.399 89.7197 195.399 99.9041C195.399 110.088 187.154 118.375 177.02 118.375ZM177.02 81.9073C167.145 81.9073 159.111 89.9809 159.111 99.9041C159.111 109.827 167.145 117.901 177.02 117.901C186.894 117.901 194.928 109.827 194.928 99.9041C194.928 89.9809 186.895 81.9073 177.02 81.9073Z" fill="#D2FF00"/>
<path d="M183.524 117.169C183.434 117.169 183.348 117.117 183.309 117.03C183.256 116.911 183.309 116.77 183.427 116.717C186.268 115.427 187.897 111.904 187.897 107.052C187.897 98.3871 182.643 88.2903 176.185 84.5437C173.361 82.9044 170.616 82.7025 168.655 83.9888C168.546 84.0594 168.401 84.0304 168.329 83.9196C168.259 83.8101 168.289 83.6633 168.398 83.5913C170.513 82.204 173.437 82.401 176.421 84.1328C183.009 87.9549 188.368 98.2361 188.368 107.051C188.368 112.099 186.638 115.778 183.621 117.148C183.59 117.163 183.557 117.17 183.524 117.17L183.524 117.169Z" fill="#D2FF00"/>
<path d="M174.787 118.126C174.531 118.126 174.27 118.111 174.006 118.079C173.877 118.063 173.785 117.946 173.801 117.816C173.816 117.686 173.927 117.592 174.063 117.61C175.646 117.798 177.087 117.367 178.219 116.357C179.924 114.836 180.863 112.11 180.863 108.68C180.863 101.026 176.222 92.1068 170.519 88.7979C167.22 86.8826 164.229 87.1967 162.318 89.6557C162.237 89.7594 162.089 89.7764 161.987 89.6973C161.884 89.6168 161.867 89.4679 161.947 89.3648C163.989 86.7379 167.282 86.3743 170.755 88.3877C176.588 91.7722 181.334 100.876 181.334 108.681C181.334 112.248 180.338 115.1 178.532 116.712C177.486 117.646 176.203 118.127 174.788 118.127L174.787 118.126Z" fill="#D2FF00"/>
<path d="M193.235 108.334C193.208 108.334 193.18 108.329 193.154 108.319C193.031 108.274 192.969 108.138 193.015 108.016C193.509 106.665 193.761 105.072 193.761 103.282C193.761 95.6281 189.12 86.7088 183.416 83.3992C182.551 82.8972 181.694 82.5436 180.867 82.3494C180.741 82.3198 180.662 82.192 180.692 82.0649C180.722 81.9378 180.846 81.8581 180.975 81.8884C181.845 82.0938 182.745 82.4638 183.651 82.9883C189.485 86.3735 194.231 95.477 194.231 103.282C194.231 105.128 193.971 106.775 193.456 108.179C193.421 108.274 193.331 108.334 193.235 108.334Z" fill="#D2FF00"/>
<path d="M168.746 115.165C167.849 115.165 166.88 114.877 165.895 114.306C162.039 112.068 158.902 106.054 158.902 100.899C158.902 98.1381 159.811 96.0265 161.396 95.1073C162.719 94.3385 164.402 94.4677 166.131 95.4709C169.986 97.7088 173.123 103.722 173.123 108.877C173.123 111.638 172.214 113.75 170.629 114.669C170.059 115 169.423 115.165 168.746 115.165ZM163.28 95.0868C162.683 95.0868 162.127 95.2294 161.632 95.5175C160.196 96.3498 159.373 98.3117 159.373 100.899C159.373 105.903 162.404 111.733 166.131 113.895C167.707 114.81 169.222 114.938 170.393 114.26C171.829 113.427 172.652 111.465 172.652 108.877C172.652 103.874 169.621 98.0435 165.895 95.8818C164.985 95.3537 164.095 95.0868 163.28 95.0868Z" fill="#D2FF00"/>
<rect x="0.480469" y="1.00006" width="34.8543" height="14.8316" fill="#D2FF00"/>
<rect x="0.480469" y="43.27" width="34.8543" height="14.8316" fill="#D2FF00"/>
<rect x="34.5938" y="15.0899" width="37.8207" height="14.8316" fill="#D2FF00"/>
<rect x="182.913" y="15.0899" width="37.8207" height="14.8316" fill="#D2FF00"/>
<rect x="108.755" y="1.00006" width="37.8207" height="14.8316" fill="#D2FF00"/>
<rect x="108.755" y="29.18" width="37.8207" height="14.8316" fill="#D2FF00"/>
<rect x="145.833" y="43.2698" width="37.8207" height="14.8316" fill="#D2FF00"/>
<rect x="257.071" y="1.00006" width="37.8207" height="14.8316" fill="#D2FF00"/>
<rect x="257.071" y="43.2698" width="37.8207" height="14.8316" fill="#D2FF00"/>
<line x1="0.480469" y1="1.24146" x2="329.001" y2="1.24146" stroke="#F9F8F4"/>
<line x1="0.480469" y1="15.3316" x2="329.001" y2="15.3316" stroke="#F9F8F4"/>
<line x1="0.480469" y1="29.4215" x2="329.001" y2="29.4215" stroke="#F9F8F4"/>
<line x1="0.480469" y1="43.5116" x2="329.001" y2="43.5116" stroke="#F9F8F4"/>
<line x1="0.480469" y1="57.6017" x2="329.001" y2="57.6017" stroke="#F9F8F4"/>
<line x1="34.8359" y1="58.1017" x2="34.8359" y2="0.999943" stroke="#F9F8F4"/>
<line x1="71.9141" y1="58.1018" x2="71.9141" y2="1" stroke="#F9F8F4"/>
<line x1="108.992" y1="58.1018" x2="108.992" y2="1" stroke="#F9F8F4"/>
<line x1="146.072" y1="58.1018" x2="146.072" y2="1" stroke="#F9F8F4"/>
<line x1="183.152" y1="58.1017" x2="183.152" y2="0.999943" stroke="#F9F8F4"/>
<line x1="220.23" y1="58.1018" x2="220.23" y2="1" stroke="#F9F8F4"/>
<line x1="257.312" y1="58.1018" x2="257.312" y2="1" stroke="#F9F8F4"/>
<line x1="294.391" y1="58.1018" x2="294.391" y2="1" stroke="#F9F8F4"/>
</svg>
