<svg width="400" height="300" viewBox="0 0 400 300" fill="none" xmlns="http://www.w3.org/2000/svg">
<rect x="118.625" y="198.454" width="159.083" height="42.219" rx="21.1095" stroke="#F9F8F4"/>
<rect x="141.322" y="193.652" width="6.7652" height="52.4235" rx="3.3826" fill="#212121" stroke="#F9F8F4"/>
<rect x="248.837" y="193.652" width="6.7652" height="52.4235" rx="3.3826" fill="#212121" stroke="#F9F8F4"/>
<path d="M214.889 197.662C227.264 197.662 237.296 187.581 237.296 175.145C237.296 162.708 227.264 152.627 214.889 152.627C202.513 152.627 192.481 162.708 192.481 175.145C192.481 187.581 202.513 197.662 214.889 197.662Z" fill="#212121"/>
<path d="M214.89 197.955C202.374 197.955 192.192 187.723 192.192 175.145C192.192 162.566 202.374 152.335 214.89 152.335C227.406 152.335 237.588 162.567 237.588 175.145C237.588 187.722 227.406 197.955 214.89 197.955ZM214.89 152.919C202.695 152.919 192.773 162.89 192.773 175.145C192.773 187.399 202.695 197.37 214.89 197.37C227.085 197.37 237.006 187.399 237.006 175.145C237.006 162.89 227.085 152.919 214.89 152.919Z" fill="#D2FF00"/>
<path d="M222.92 196.466C222.81 196.466 222.704 196.402 222.656 196.294C222.59 196.148 222.656 195.973 222.802 195.908C226.309 194.315 228.321 189.964 228.321 183.971C228.321 173.271 221.833 160.802 213.858 156.175C210.37 154.15 206.98 153.901 204.558 155.489C204.423 155.577 204.244 155.541 204.155 155.404C204.069 155.269 204.106 155.087 204.24 154.998C206.853 153.285 210.464 153.529 214.149 155.667C222.284 160.387 228.903 173.084 228.903 183.97C228.903 190.204 226.766 194.748 223.041 196.441C223.003 196.458 222.961 196.467 222.921 196.467L222.92 196.466Z" fill="#D2FF00"/>
<path d="M212.135 197.649C211.819 197.649 211.498 197.63 211.171 197.59C211.013 197.571 210.899 197.426 210.918 197.265C210.937 197.106 211.073 196.989 211.242 197.011C213.197 197.243 214.976 196.711 216.374 195.464C218.48 193.585 219.639 190.219 219.639 185.983C219.639 176.531 213.908 165.515 206.865 161.429C202.79 159.064 199.097 159.452 196.736 162.488C196.638 162.617 196.454 162.637 196.329 162.54C196.201 162.44 196.179 162.256 196.278 162.129C198.8 158.885 202.868 158.436 207.156 160.923C214.361 165.102 220.221 176.345 220.221 185.984C220.221 190.39 218.992 193.911 216.761 195.902C215.469 197.055 213.885 197.65 212.137 197.65L212.135 197.649Z" fill="#D2FF00"/>
<path d="M234.919 185.556C234.886 185.556 234.851 185.549 234.818 185.537C234.667 185.481 234.59 185.313 234.646 185.162C235.257 183.494 235.568 181.527 235.568 179.317C235.568 169.864 229.837 158.849 222.793 154.761C221.724 154.142 220.665 153.705 219.645 153.465C219.489 153.428 219.392 153.271 219.428 153.114C219.465 152.957 219.618 152.858 219.778 152.896C220.853 153.149 221.964 153.606 223.083 154.254C230.288 158.435 236.149 169.677 236.149 179.316C236.149 181.596 235.827 183.63 235.191 185.364C235.148 185.481 235.037 185.556 234.919 185.556Z" fill="#D2FF00"/>
<path d="M204.673 193.991C203.565 193.991 202.369 193.635 201.152 192.93C196.39 190.166 192.516 182.739 192.516 176.373C192.516 172.963 193.639 170.356 195.596 169.22C197.23 168.271 199.308 168.43 201.443 169.669C206.204 172.433 210.078 179.86 210.078 186.225C210.078 189.636 208.955 192.244 206.998 193.379C206.295 193.787 205.509 193.991 204.673 193.991ZM197.922 169.195C197.186 169.195 196.499 169.371 195.887 169.727C194.114 170.755 193.098 173.178 193.098 176.373C193.098 182.553 196.841 189.753 201.443 192.422C203.39 193.553 205.261 193.711 206.708 192.873C208.48 191.845 209.497 189.421 209.497 186.226C209.497 180.047 205.753 172.846 201.152 170.177C200.028 169.525 198.929 169.195 197.922 169.195Z" fill="#D2FF00"/>
<rect x="38.9998" y="70.4004" width="46.7074" height="18.3166" fill="#D2FF00"/>
<rect x="222.171" y="70.4004" width="46.7074" height="18.3166" fill="#D2FF00"/>
<rect x="130.585" y="53" width="46.7074" height="18.3166" fill="#D2FF00"/>
<rect x="130.585" y="87.8008" width="46.7074" height="18.3166" fill="#D2FF00"/>
<rect x="176.376" y="105.201" width="46.7074" height="18.3166" fill="#D2FF00"/>
<rect x="313.752" y="53" width="46.7074" height="18.3166" fill="#D2FF00"/>
<rect x="313.752" y="105.201" width="46.7074" height="18.3166" fill="#D2FF00"/>
<line x1="39.5029" y1="53.416" x2="360.595" y2="53.416" stroke="#F9F8F4"/>
<line x1="39.5029" y1="70.8164" x2="360.595" y2="70.8164" stroke="#F9F8F4"/>
<line x1="39.5029" y1="88.2168" x2="360.595" y2="88.2168" stroke="#F9F8F4"/>
<line x1="39.5029" y1="105.619" x2="360.595" y2="105.619" stroke="#F9F8F4"/>
<line x1="39.5029" y1="123.02" x2="360.595" y2="123.02" stroke="#F9F8F4"/>
<line x1="39.4148" y1="123.52" x2="39.4148" y2="53.0005" stroke="#F9F8F4"/>
<line x1="85.2052" y1="123.52" x2="85.2052" y2="53.0005" stroke="#F9F8F4"/>
<line x1="130.996" y1="123.52" x2="130.996" y2="53.0005" stroke="#F9F8F4"/>
<line x1="176.786" y1="123.52" x2="176.786" y2="53.0005" stroke="#F9F8F4"/>
<line x1="222.581" y1="123.52" x2="222.581" y2="53.0005" stroke="#F9F8F4"/>
<line x1="268.372" y1="123.52" x2="268.372" y2="53.0005" stroke="#F9F8F4"/>
<line x1="314.167" y1="123.52" x2="314.167" y2="53.0005" stroke="#F9F8F4"/>
<line x1="359.957" y1="123.52" x2="359.957" y2="53.0005" stroke="#F9F8F4"/>
</svg>
