<svg width="400" height="300" viewBox="0 0 400 300" fill="none" xmlns="http://www.w3.org/2000/svg">
<g clip-path="url(#clip0_8939_52996)">
<mask id="mask0_8939_52996" style="mask-type:alpha" maskUnits="userSpaceOnUse" x="0" y="0" width="400" height="300">
<rect x="0.5" y="0.5" width="399" height="299" rx="4.5" fill="#D9D9D9" stroke="#F9F8F4"/>
</mask>
<g mask="url(#mask0_8939_52996)">
<rect width="274.49" height="291.575" transform="matrix(0.866041 0.499972 -0.866041 0.499972 253.478 29.3242)" fill="#181818"/>
<path d="M460.809 148.32L460.76 165.335L239.319 294.133L239.368 277.119L460.809 148.32Z" fill="#7D2000"/>
<path d="M239.366 277.118L239.317 294.132L16.2457 165.341L16.2933 148.328L239.366 277.118Z" fill="#B72F00"/>
<path d="M460.803 148.321L239.361 277.12L16.2892 148.329L237.73 19.5303L460.803 148.321Z" fill="#FF5B23"/>
<path d="M237.784 29.4951L34.713 147.617L239.261 265.713L442.332 147.59L237.784 29.4951Z" fill="#F9F8F4"/>
<mask id="mask1_8939_52996" style="mask-type:luminance" maskUnits="userSpaceOnUse" x="34" y="29" width="409" height="237">
<path d="M237.783 29.4922L34.7115 147.614L239.26 265.71L442.331 147.587L237.783 29.4922Z" fill="white"/>
</mask>
<g mask="url(#mask1_8939_52996)">
<path d="M413.549 130.725L384.504 147.603L413.755 164.492L442.8 147.612L413.549 130.725ZM326.399 181.371L355.845 198.372L384.89 181.494L355.443 164.493L326.398 181.371H326.399ZM268.293 215.139L298.032 232.308L327.077 215.429L297.338 198.259L268.293 215.139ZM239.06 198.26L209.998 215.149L239.232 232.027L268.293 215.139L239.06 198.26ZM180.574 164.494L151.513 181.382L180.747 198.26L209.808 181.372L180.574 164.494ZM122.089 130.728L93.0281 147.616L122.262 164.494L151.323 147.606L122.089 130.728ZM209.429 113.838L180.195 96.9602L151.134 113.848L180.368 130.727L209.429 113.838ZM267.534 80.072L238.3 63.1939L209.239 80.082L238.473 96.9602L267.534 80.072ZM296.785 96.9602L325.83 80.0808L296.578 63.1926L267.534 80.072L296.785 96.9602ZM355.27 130.727L384.314 113.847L355.062 96.9589L326.018 113.838L355.269 130.727H355.27ZM326.209 147.615L355.443 164.493L384.504 147.603L355.27 130.727L326.209 147.615ZM268.104 181.382L297.338 198.26L326.399 181.371L297.165 164.494L268.104 181.382ZM238.853 164.494L209.808 181.372L239.06 198.26L268.104 181.381L238.853 164.494ZM180.368 130.727L151.323 147.606L180.574 164.494L209.619 147.616L180.368 130.727ZM267.724 113.848L238.473 96.9602L209.428 113.838L238.679 130.727L267.724 113.848ZM296.958 130.727L326.019 113.838L296.785 96.9602L267.724 113.848L296.958 130.727ZM267.914 147.606L297.165 164.494L326.209 147.615L296.958 130.727L267.914 147.606ZM238.68 130.728L209.619 147.616L238.853 164.494L267.914 147.606L238.68 130.728ZM235.886 28.1533L206.843 45.0315L238.301 63.1939L267.345 46.3157L235.886 28.1533ZM177.782 61.9196L148.738 78.7978L180.196 96.9602L209.24 80.0808L177.782 61.9196ZM119.677 95.6872L90.6323 112.565L122.089 130.728L151.134 113.848L119.677 95.6872ZM29.7238 147.948L61.1819 166.11L93.0268 147.615L61.5687 129.452L29.7238 147.948ZM90.417 182.988L119.668 199.876L151.513 181.381L122.262 164.494L90.417 182.988ZM148.902 216.754L178.154 233.643L209.998 215.147L180.747 198.259L148.902 216.754ZM207.387 250.521L236.639 267.409L268.484 248.914L239.232 232.027L207.387 250.521Z" fill="#FF5B23"/>
</g>
<path fill-rule="evenodd" clip-rule="evenodd" d="M280.219 314.38C280.219 317.357 282.111 320.334 285.897 322.605C293.467 327.147 305.741 327.147 313.312 322.605C317.097 320.334 318.989 317.357 318.989 314.38V308.565C318.989 305.588 317.097 302.611 313.312 300.34C305.741 295.798 293.467 295.798 285.897 300.34C282.111 302.611 280.219 305.588 280.219 308.565V314.38Z" fill="#181818"/>
<circle cx="10.312" cy="10.312" r="10.312" transform="matrix(0.866041 -0.499972 0.866041 0.499972 281.748 308.406)" fill="#181818"/>
<circle cx="14.7314" cy="14.7314" r="13.7314" transform="matrix(0.866041 -0.499972 0.866041 0.499972 274.091 308.173)" stroke="#181818" stroke-width="2"/>
<path fill-rule="evenodd" clip-rule="evenodd" d="M322.544 301.449C322.544 304.425 324.437 307.402 328.222 309.673C335.793 314.215 348.067 314.215 355.637 309.673C359.422 307.402 361.315 304.425 361.315 301.449V295.633C361.315 292.656 359.422 289.68 355.637 287.409C348.067 282.866 335.793 282.866 328.222 287.409C324.437 289.68 322.544 292.656 322.544 295.633V301.449Z" fill="#181818"/>
<circle cx="10.312" cy="10.312" r="10.312" transform="matrix(0.866041 -0.499972 0.866041 0.499972 324.066 295.475)" fill="#181818"/>
<circle cx="14.7314" cy="14.7314" r="13.7314" transform="matrix(0.866041 -0.499972 0.866041 0.499972 316.416 295.24)" stroke="#181818" stroke-width="2"/>
<path fill-rule="evenodd" clip-rule="evenodd" d="M218.893 44.2201C218.893 47.1968 220.786 50.1735 224.571 52.4446C232.142 56.9869 244.416 56.9869 251.986 52.4446C255.771 50.1735 257.664 47.1968 257.664 44.2201V38.4046C257.664 35.4279 255.771 32.4512 251.986 30.1801C244.416 25.6379 232.142 25.6379 224.571 30.1801C220.786 32.4512 218.893 35.4279 218.893 38.4046V44.2201Z" fill="#C6C6C6"/>
<circle cx="10.312" cy="10.312" r="10.312" transform="matrix(0.866041 -0.499972 0.866041 0.499972 220.415 38.2451)" fill="white"/>
<circle cx="14.7314" cy="14.7314" r="13.7314" transform="matrix(0.866041 -0.499972 0.866041 0.499972 212.765 38.0117)" stroke="white" stroke-width="2"/>
<path fill-rule="evenodd" clip-rule="evenodd" d="M322.544 297.921C322.544 300.898 324.437 303.875 328.222 306.146C335.793 310.688 348.067 310.688 355.637 306.146C359.422 303.875 361.315 300.898 361.315 297.921V292.106C361.315 289.129 359.422 286.152 355.637 283.881C348.067 279.339 335.793 279.339 328.222 283.881C324.437 286.152 322.544 289.129 322.544 292.106V297.921Z" fill="#C6C6C6"/>
<circle cx="10.312" cy="10.312" r="10.312" transform="matrix(0.866041 -0.499972 0.866041 0.499972 324.073 291.947)" fill="white"/>
<circle cx="14.7314" cy="14.7314" r="13.7314" transform="matrix(0.866041 -0.499972 0.866041 0.499972 316.416 291.714)" stroke="white" stroke-width="2"/>
<path fill-rule="evenodd" clip-rule="evenodd" d="M322.544 283.422C322.544 286.399 324.437 289.376 328.222 291.647C335.793 296.189 348.067 296.189 355.637 291.647C359.422 289.376 361.315 286.399 361.315 283.422V277.607C361.315 274.63 359.422 271.653 355.637 269.382C348.067 264.84 335.793 264.84 328.222 269.382C324.437 271.653 322.544 274.63 322.544 277.607V283.422Z" fill="#C6C6C6"/>
<circle cx="10.312" cy="10.312" r="10.312" transform="matrix(0.866041 -0.499972 0.866041 0.499972 324.066 277.448)" fill="white"/>
<circle cx="14.7314" cy="14.7314" r="13.7314" transform="matrix(0.866041 -0.499972 0.866041 0.499972 316.416 277.215)" stroke="white" stroke-width="2"/>
<path fill-rule="evenodd" clip-rule="evenodd" d="M280.219 310.853C280.219 313.83 282.111 316.806 285.897 319.077C293.467 323.62 305.741 323.62 313.312 319.077C317.097 316.806 318.989 313.83 318.989 310.853V305.037C318.989 302.061 317.097 299.084 313.312 296.813C305.741 292.271 293.467 292.271 285.897 296.813C282.111 299.084 280.219 302.061 280.219 305.037V310.853Z" fill="#C6C6C6"/>
<circle cx="10.312" cy="10.312" r="10.312" transform="matrix(0.866041 -0.499972 0.866041 0.499972 281.741 304.879)" fill="white"/>
<circle cx="14.7314" cy="14.7314" r="13.7314" transform="matrix(0.866041 -0.499972 0.866041 0.499972 274.091 304.646)" stroke="white" stroke-width="2"/>
<path fill-rule="evenodd" clip-rule="evenodd" d="M30.9957 234.831C30.9957 237.807 32.8883 240.784 36.6735 243.055C44.2439 247.597 56.518 247.597 64.0884 243.055C67.8736 240.784 69.7662 237.807 69.7662 234.831V229.015C69.7662 226.038 67.8736 223.062 64.0884 220.79C56.518 216.248 44.2439 216.248 36.6735 220.79C32.8883 223.062 30.9957 226.038 30.9957 229.015V234.831Z" fill="#181818"/>
<circle cx="10.312" cy="10.312" r="10.312" transform="matrix(0.866041 -0.499972 0.866041 0.499972 32.5244 228.856)" fill="#181818"/>
<circle cx="14.7314" cy="14.7314" r="13.7314" transform="matrix(0.866041 -0.499972 0.866041 0.499972 24.8676 228.623)" stroke="#181818" stroke-width="2"/>
<path fill-rule="evenodd" clip-rule="evenodd" d="M-4.66565 214.847C-4.66565 217.824 -2.77306 220.8 1.01215 223.072C8.58256 227.614 20.8566 227.614 28.427 223.072C32.2122 220.8 34.1048 217.824 34.1048 214.847V209.032C34.1048 206.055 32.2122 203.078 28.427 200.807C20.8566 196.265 8.58256 196.265 1.01215 200.807C-2.77306 203.078 -4.66565 206.055 -4.66565 209.032V214.847Z" fill="#181818"/>
<circle cx="10.312" cy="10.312" r="10.312" transform="matrix(0.866041 -0.499972 0.866041 0.499972 -3.13696 208.874)" fill="#181818"/>
<circle cx="14.7314" cy="14.7314" r="13.7314" transform="matrix(0.866041 -0.499972 0.866041 0.499972 -10.7938 208.64)" stroke="#181818" stroke-width="2"/>
<path fill-rule="evenodd" clip-rule="evenodd" d="M158.807 79.269C158.807 82.2456 160.7 85.2223 164.485 87.4934C172.055 92.0357 184.329 92.0357 191.9 87.4934C195.685 85.2223 197.578 82.2456 197.578 79.269V73.4534C197.578 70.4767 195.685 67.5001 191.9 65.2289C184.329 60.6867 172.055 60.6867 164.485 65.2289C160.7 67.5001 158.807 70.4767 158.807 73.4534V79.269Z" fill="#C6C6C6"/>
<circle cx="10.312" cy="10.312" r="10.312" transform="matrix(0.866041 -0.499972 0.866041 0.499972 160.329 73.2939)" fill="white"/>
<circle cx="14.7314" cy="14.7314" r="13.7314" transform="matrix(0.866041 -0.499972 0.866041 0.499972 152.679 73.0605)" stroke="white" stroke-width="2"/>
<path fill-rule="evenodd" clip-rule="evenodd" d="M101.231 113.067C101.231 116.044 103.124 119.02 106.909 121.291C114.479 125.834 126.753 125.834 134.324 121.291C138.109 119.02 140.001 116.044 140.001 113.067V107.251C140.001 104.275 138.109 101.298 134.324 99.0268C126.753 94.4846 114.479 94.4846 106.909 99.0268C103.124 101.298 101.231 104.275 101.231 107.251V113.067Z" fill="#C6C6C6"/>
<circle cx="10.312" cy="10.312" r="10.312" transform="matrix(0.866041 -0.499972 0.866041 0.499972 102.76 107.092)" fill="white"/>
<circle cx="14.7314" cy="14.7314" r="13.7314" transform="matrix(0.866041 -0.499972 0.866041 0.499972 95.1028 106.858)" stroke="white" stroke-width="2"/>
<path fill-rule="evenodd" clip-rule="evenodd" d="M38.6505 145.611C38.6505 148.587 40.5431 151.564 44.3283 153.835C51.8987 158.377 64.1728 158.377 71.7432 153.835C75.5284 151.564 77.421 148.587 77.421 145.611V139.795C77.421 136.819 75.5284 133.842 71.7432 131.571C64.1728 127.029 51.8987 127.029 44.3283 131.571C40.5431 133.842 38.6505 136.819 38.6505 139.795V145.611Z" fill="#C6C6C6"/>
<circle cx="10.312" cy="10.312" r="10.312" transform="matrix(0.866041 -0.499972 0.866041 0.499972 40.1725 139.636)" fill="white"/>
<circle cx="14.7314" cy="14.7314" r="13.7314" transform="matrix(0.866041 -0.499972 0.866041 0.499972 32.5223 139.402)" stroke="white" stroke-width="2"/>
<path fill-rule="evenodd" clip-rule="evenodd" d="M160.062 113.067C160.062 116.044 161.955 119.02 165.74 121.291C173.31 125.834 185.584 125.834 193.155 121.291C196.94 119.02 198.833 116.044 198.833 113.067V107.251C198.833 104.275 196.94 101.298 193.155 99.0268C185.584 94.4846 173.31 94.4846 165.74 99.0268C161.955 101.298 160.062 104.275 160.062 107.251V113.067Z" fill="#C6C6C6"/>
<circle cx="10.312" cy="10.312" r="10.312" transform="matrix(0.866041 -0.499972 0.866041 0.499972 161.591 107.092)" fill="white"/>
<circle cx="14.7314" cy="14.7314" r="13.7314" transform="matrix(0.866041 -0.499972 0.866041 0.499972 153.934 106.858)" stroke="white" stroke-width="2"/>
<path fill-rule="evenodd" clip-rule="evenodd" d="M218.893 113.067C218.893 116.044 220.786 119.02 224.571 121.291C232.142 125.834 244.416 125.834 251.986 121.291C255.771 119.02 257.664 116.044 257.664 113.067V107.251C257.664 104.275 255.771 101.298 251.986 99.0268C244.416 94.4846 232.142 94.4846 224.571 99.0268C220.786 101.298 218.893 104.275 218.893 107.251V113.067Z" fill="#C6C6C6"/>
<circle cx="10.312" cy="10.312" r="10.312" transform="matrix(0.866041 -0.499972 0.866041 0.499972 220.422 107.092)" fill="white"/>
<circle cx="14.7314" cy="14.7314" r="13.7314" transform="matrix(0.866041 -0.499972 0.866041 0.499972 212.765 106.858)" stroke="white" stroke-width="2"/>
<path fill-rule="evenodd" clip-rule="evenodd" d="M336.55 110.562C336.55 113.539 338.443 116.515 342.228 118.786C349.798 123.329 362.072 123.329 369.643 118.786C373.428 116.515 375.321 113.539 375.321 110.562V104.746C375.321 101.77 373.428 98.793 369.643 96.5219C362.072 91.9797 349.798 91.9797 342.228 96.5219C338.443 98.793 336.55 101.77 336.55 104.746V110.562Z" fill="#C6C6C6"/>
<circle cx="10.312" cy="10.312" r="10.312" transform="matrix(0.866041 -0.499972 0.866041 0.499972 338.079 104.588)" fill="white"/>
<circle cx="14.7314" cy="14.7314" r="13.7314" transform="matrix(0.866041 -0.499972 0.866041 0.499972 330.422 104.354)" stroke="white" stroke-width="2"/>
<path fill-rule="evenodd" clip-rule="evenodd" d="M248.934 230.726C248.934 233.703 250.827 236.679 254.612 238.95C262.182 243.493 274.456 243.493 282.027 238.95C285.812 236.679 287.705 233.703 287.705 230.726V224.91C287.705 221.934 285.812 218.957 282.027 216.686C274.456 212.144 262.182 212.144 254.612 216.686C250.827 218.957 248.934 221.934 248.934 224.91V230.726Z" fill="#494949"/>
<circle cx="10.312" cy="10.312" r="10.312" transform="matrix(0.866041 -0.499972 0.866041 0.499972 250.463 224.752)" fill="#212121"/>
<circle cx="14.7314" cy="14.7314" r="13.7314" transform="matrix(0.866041 -0.499972 0.866041 0.499972 242.806 224.519)" stroke="#212121" stroke-width="2"/>
<path fill-rule="evenodd" clip-rule="evenodd" d="M30.9957 232.481C30.9957 235.458 32.8883 238.434 36.6735 240.705C44.2439 245.248 56.518 245.248 64.0884 240.705C67.8736 238.434 69.7662 235.458 69.7662 232.481V226.665C69.7662 223.689 67.8736 220.712 64.0884 218.441C56.518 213.899 44.2439 213.899 36.6735 218.441C32.8883 220.712 30.9957 223.689 30.9957 226.665V232.481Z" fill="#494949"/>
<circle cx="10.312" cy="10.312" r="10.312" transform="matrix(0.866041 -0.499972 0.866041 0.499972 32.5244 226.507)" fill="#212121"/>
<circle cx="14.7314" cy="14.7314" r="13.7314" transform="matrix(0.866041 -0.499972 0.866041 0.499972 24.8676 226.273)" stroke="#212121" stroke-width="2"/>
<path fill-rule="evenodd" clip-rule="evenodd" d="M-4.66565 212.885C-4.66565 215.862 -2.77306 218.839 1.01215 221.11C8.58256 225.652 20.8566 225.652 28.427 221.11C32.2122 218.839 34.1048 215.862 34.1048 212.885V207.07C34.1048 204.093 32.2122 201.116 28.427 198.845C20.8566 194.303 8.58256 194.303 1.01215 198.845C-2.77306 201.116 -4.66565 204.093 -4.66565 207.07V212.885Z" fill="#494949"/>
<circle cx="10.312" cy="10.312" r="10.312" transform="matrix(0.866041 -0.499972 0.866041 0.499972 -3.13696 206.912)" fill="#212121"/>
<circle cx="14.7314" cy="14.7314" r="13.7314" transform="matrix(0.866041 -0.499972 0.866041 0.499972 -10.7938 206.679)" stroke="#212121" stroke-width="2"/>
<path fill-rule="evenodd" clip-rule="evenodd" d="M-8.58472 249.33C-8.58472 252.306 -6.69212 255.283 -2.90692 257.554C4.66349 262.096 16.9376 262.096 24.508 257.554C28.2932 255.283 30.1858 252.306 30.1858 249.33V243.514C30.1858 240.537 28.2932 237.561 24.508 235.289C16.9376 230.747 4.66349 230.747 -2.90692 235.289C-6.69212 237.561 -8.58472 240.537 -8.58472 243.514V249.33Z" fill="#181818"/>
<circle cx="10.312" cy="10.312" r="10.312" transform="matrix(0.866041 -0.499972 0.866041 0.499972 -7.05603 243.355)" fill="#181818"/>
<circle cx="14.7314" cy="14.7314" r="13.7314" transform="matrix(0.866041 -0.499972 0.866041 0.499972 -14.7129 243.122)" stroke="#181818" stroke-width="2"/>
<path fill-rule="evenodd" clip-rule="evenodd" d="M306.51 196.93C306.51 199.907 308.403 202.883 312.188 205.155C319.758 209.697 332.033 209.697 339.603 205.155C343.388 202.883 345.281 199.907 345.281 196.93V191.115C345.281 188.138 343.388 185.161 339.603 182.89C332.033 178.348 319.758 178.348 312.188 182.89C308.403 185.161 306.51 188.138 306.51 191.115V196.93Z" fill="#494949"/>
<circle cx="10.312" cy="10.312" r="10.312" transform="matrix(0.866041 -0.499972 0.866041 0.499972 308.039 190.958)" fill="#212121"/>
<circle cx="14.7314" cy="14.7314" r="13.7314" transform="matrix(0.866041 -0.499972 0.866041 0.499972 300.382 190.723)" stroke="#212121" stroke-width="2"/>
<path fill-rule="evenodd" clip-rule="evenodd" d="M248.934 163.135C248.934 166.112 250.827 169.089 254.612 171.36C262.182 175.902 274.456 175.902 282.027 171.36C285.812 169.089 287.705 166.112 287.705 163.135V157.32C287.705 154.343 285.812 151.366 282.027 149.095C274.456 144.553 262.182 144.553 254.612 149.095C250.827 151.366 248.934 154.343 248.934 157.32V163.135Z" fill="#494949"/>
<circle cx="10.312" cy="10.312" r="10.312" transform="matrix(0.866041 -0.499972 0.866041 0.499972 250.463 157.161)" fill="#212121"/>
<circle cx="14.7314" cy="14.7314" r="13.7314" transform="matrix(0.866041 -0.499972 0.866041 0.499972 242.806 156.928)" stroke="#212121" stroke-width="2"/>
<path fill-rule="evenodd" clip-rule="evenodd" d="M-6.23279 198.388C-6.23279 201.365 -4.3402 204.341 -0.554986 206.613C7.01542 211.155 19.2895 211.155 26.8599 206.613C30.6451 204.341 32.5377 201.365 32.5377 198.388V192.573C32.5377 189.596 30.6451 186.619 26.8599 184.348C19.2895 179.806 7.01542 179.806 -0.554986 184.348C-4.3402 186.619 -6.23279 189.596 -6.23279 192.573V198.388Z" fill="#494949"/>
<circle cx="10.312" cy="10.312" r="10.312" transform="matrix(0.866041 -0.499972 0.866041 0.499972 -4.7041 192.416)" fill="#212121"/>
<circle cx="14.7314" cy="14.7314" r="13.7314" transform="matrix(0.866041 -0.499972 0.866041 0.499972 -12.361 192.181)" stroke="#212121" stroke-width="2"/>
<path fill-rule="evenodd" clip-rule="evenodd" d="M-6.23279 183.889C-6.23279 186.866 -4.3402 189.842 -0.554986 192.114C7.01542 196.656 19.2895 196.656 26.8599 192.114C30.6451 189.842 32.5377 186.866 32.5377 183.889V178.074C32.5377 175.097 30.6451 172.12 26.8599 169.849C19.2895 165.307 7.01542 165.307 -0.554986 169.849C-4.3402 172.12 -6.23279 175.097 -6.23279 178.074V183.889Z" fill="#494949"/>
<circle cx="10.312" cy="10.312" r="10.312" transform="matrix(0.866041 -0.499972 0.866041 0.499972 -4.7041 177.914)" fill="#212121"/>
<circle cx="14.7314" cy="14.7314" r="13.7314" transform="matrix(0.866041 -0.499972 0.866041 0.499972 -12.361 177.681)" stroke="#212121" stroke-width="2"/>
<path fill-rule="evenodd" clip-rule="evenodd" d="M30.9957 218.372C30.9957 221.348 32.8883 224.325 36.6735 226.596C44.2439 231.138 56.518 231.138 64.0884 226.596C67.8736 224.325 69.7662 221.348 69.7662 218.372V212.556C69.7662 209.579 67.8736 206.603 64.0884 204.331C56.518 199.789 44.2439 199.789 36.6735 204.331C32.8883 206.603 30.9957 209.579 30.9957 212.556V218.372Z" fill="#494949"/>
<circle cx="10.312" cy="10.312" r="10.312" transform="matrix(0.866041 -0.499972 0.866041 0.499972 32.5244 212.397)" fill="#212121"/>
<circle cx="14.7314" cy="14.7314" r="13.7314" transform="matrix(0.866041 -0.499972 0.866041 0.499972 24.8676 212.164)" stroke="#212121" stroke-width="2"/>
<path fill-rule="evenodd" clip-rule="evenodd" d="M-8.58472 247.372C-8.58472 250.348 -6.69212 253.325 -2.90692 255.596C4.66349 260.138 16.9376 260.138 24.508 255.596C28.2932 253.325 30.1858 250.348 30.1858 247.372V241.556C30.1858 238.579 28.2932 235.603 24.508 233.331C16.9376 228.789 4.66349 228.789 -2.90692 233.331C-6.69212 235.603 -8.58472 238.579 -8.58472 241.556V247.372Z" fill="#494949"/>
<circle cx="10.312" cy="10.312" r="10.312" transform="matrix(0.866041 -0.499972 0.866041 0.499972 -7.05603 241.397)" fill="#212121"/>
<circle cx="14.7314" cy="14.7314" r="13.7314" transform="matrix(0.866041 -0.499972 0.866041 0.499972 -14.7129 241.164)" stroke="#212121" stroke-width="2"/>
<path fill-rule="evenodd" clip-rule="evenodd" d="M132.528 163.135C132.528 166.112 134.421 169.089 138.206 171.36C145.776 175.902 158.05 175.902 165.621 171.36C169.406 169.089 171.298 166.112 171.298 163.135V157.32C171.298 154.343 169.406 151.366 165.621 149.095C158.05 144.553 145.776 144.553 138.206 149.095C134.421 151.366 132.528 154.343 132.528 157.32V163.135Z" fill="#494949"/>
<circle cx="10.312" cy="10.312" r="10.312" transform="matrix(0.866041 -0.499972 0.866041 0.499972 134.057 157.161)" fill="#212121"/>
<circle cx="14.7314" cy="14.7314" r="13.7314" transform="matrix(0.866041 -0.499972 0.866041 0.499972 126.4 156.928)" stroke="#212121" stroke-width="2"/>
<path fill-rule="evenodd" clip-rule="evenodd" d="M305.262 129.338C305.262 132.315 307.155 135.292 310.94 137.563C318.511 142.105 330.785 142.105 338.355 137.563C342.14 135.292 344.033 132.315 344.033 129.338V123.523C344.033 120.546 342.14 117.569 338.355 115.298C330.785 110.756 318.511 110.756 310.94 115.298C307.155 117.569 305.262 120.546 305.262 123.523V129.338Z" fill="#494949"/>
<circle cx="10.312" cy="10.312" r="10.312" transform="matrix(0.866041 -0.499972 0.866041 0.499972 306.791 123.364)" fill="#212121"/>
<circle cx="14.7314" cy="14.7314" r="13.7314" transform="matrix(0.866041 -0.499972 0.866041 0.499972 299.134 123.13)" stroke="#212121" stroke-width="2"/>
<path fill-rule="evenodd" clip-rule="evenodd" d="M365.341 163.135C365.341 166.112 367.234 169.089 371.019 171.36C378.59 175.902 390.864 175.902 398.434 171.36C402.219 169.089 404.112 166.112 404.112 163.135V157.32C404.112 154.343 402.219 151.366 398.434 149.095C390.864 144.553 378.59 144.553 371.019 149.095C367.234 151.366 365.341 154.343 365.341 157.32V163.135Z" fill="#494949"/>
<circle cx="10.312" cy="10.312" r="10.312" transform="matrix(0.866041 -0.499972 0.866041 0.499972 366.87 157.162)" fill="#212121"/>
<circle cx="14.7314" cy="14.7314" r="13.7314" transform="matrix(0.866041 -0.499972 0.866041 0.499972 359.213 156.927)" stroke="#212121" stroke-width="2"/>
<path fill-rule="evenodd" clip-rule="evenodd" d="M321.293 50.236C324.502 52.7547 329.187 53.3588 334.59 51.4515C345.396 47.6369 354.978 35.2208 355.992 23.7194C356.5 17.9687 354.769 13.5355 351.56 11.0168L345.292 6.09605C342.084 3.57737 337.398 2.97319 331.995 4.88052C321.189 8.69517 311.607 21.1113 310.593 32.6127C310.086 38.3633 311.817 42.7965 315.025 45.3152L321.293 50.236Z" fill="#494949"/>
<ellipse cx="16.6721" cy="13.0766" rx="16.6721" ry="13.0766" transform="matrix(0.0880743 -0.825005 0.994183 -0.366788 315.64 44.2324)" fill="#212121"/>
<path d="M331.877 6.66743C341.374 3.16379 348.577 8.41238 347.446 19.0067C346.315 29.601 337.355 40.8126 327.858 44.3162C318.361 47.8199 311.158 42.5713 312.29 31.977C313.421 21.3826 322.38 10.1711 331.877 6.66743Z" stroke="#212121" stroke-width="2"/>
<path d="M338.978 25.0575L335.933 27.7652L331.363 33.3935L332.947 31.073C333.901 29.6772 334.856 28.2817 335.811 26.8859L335.412 24.1624L334.734 24.0281L333.307 27.1194L332.391 28.531L331.278 29.8399L332.203 27.8366L332.823 26.1885L333.283 24.3793L332.822 24.0134L331.948 23.9177L329.714 24.1262L328.702 24.3977L327.922 24.8794L327.004 26.7314L326.383 28.3794L325.813 30.3497L325.64 29.1608L325.758 27.8236L326.639 24.7831L325.808 25.0582L323.255 28.057C323.19 29.3699 323.125 30.6824 323.06 31.9953C323.023 32.723 322.986 33.4506 322.949 34.1783L322.437 29.0241L321.283 26.7079L322.39 23.9205L323.729 22.889L325.263 21.2377L325.672 20.3728L326.086 20.8198L325.952 21.7451C326.307 21.7613 326.663 21.7772 327.019 21.7934C327.3 22.1651 327.582 22.5367 327.864 22.9087C327.863 22.4521 327.862 21.9952 327.86 21.5386L327.431 20.8334L325.843 20.0088L327.081 18.9945L327.866 18.6218L328.606 18.5528L329.299 19.0122C329.659 18.9038 330.019 18.7954 330.378 18.6869C331.218 18.6067 332.058 18.5267 332.897 18.4465L332.965 18.4402C333.803 18.3639 334.641 18.2874 335.479 18.2112C335.78 18.2579 336.082 18.3047 336.383 18.3514L337.485 17.7245L338.225 17.6555L338.777 17.9036L339.313 18.7524L336.966 19.944L335.955 20.7836C335.598 21.2735 335.241 21.7639 334.883 22.2539C335.475 21.8004 336.067 21.3473 336.66 20.8941C337.054 20.8079 337.448 20.7221 337.842 20.636L338.42 19.6694L339.213 19.1097L338.976 19.9586L339.334 21.4334L339.966 22.281L338.978 25.0575Z" fill="#F9F8F4"/>
<path d="M330.241 33.3288L329.91 34.2292L328.371 35.0106L326.213 35.5923L326.178 35.6019L326.146 35.5987L324.276 35.401L323.222 34.8668L323.553 33.9664L324.092 33.6862L324.777 31.828L324.641 33.132L325.104 33.755L325.021 34.4071L326.678 34.1547L326.713 34.1494L326.745 34.1483L328.331 34.0915L328.74 33.4084L329.711 32.6487L330.561 31.2766L329.877 33.1347L330.241 33.3288Z" fill="#F9F8F4"/>
<path d="M329.939 27.9757L328.173 30.6827L328.172 30.6836L328.172 30.6828L328.487 28.105L329.599 27.0613L329.939 27.9757Z" fill="#F9F8F4"/>
<path fill-rule="evenodd" clip-rule="evenodd" d="M135.782 230.921C132.408 234.531 127.042 236.304 120.486 235.383C107.372 233.542 94.4582 221.625 91.6422 208.766C90.2341 202.337 91.6171 196.889 94.9913 193.279L101.584 186.226C104.958 182.616 110.323 180.844 116.88 181.764C129.994 183.605 142.907 195.522 145.723 208.381C147.131 214.81 145.748 220.258 142.374 223.868L135.782 230.921Z" fill="#C6C6C6"/>
<ellipse cx="19.8144" cy="15.0744" rx="19.8144" ry="15.0744" transform="matrix(-0.191557 -0.80461 -1.08042 -0.171348 141.95 223.653)" fill="white"/>
<path d="M116.883 182.892C110.867 181.938 105.912 183.447 102.803 186.772C99.6931 190.098 98.4678 195.215 99.927 201.344C101.386 207.473 105.239 213.395 110.239 218.007C115.238 222.619 121.329 225.88 127.344 226.834C133.359 227.788 138.314 226.279 141.424 222.953C144.533 219.627 145.759 214.511 144.3 208.381C142.84 202.252 138.987 196.33 133.987 191.718C128.988 187.106 122.898 183.846 116.883 182.892Z" stroke="white" stroke-width="2"/>
<path d="M111.919 206.218L115.947 208.437L122.381 213.39L120.059 211.29C118.661 210.027 117.263 208.765 115.865 207.502L115.63 204.601L116.344 204.331L118.683 207.26L120.043 208.547L121.594 209.689L120.078 207.791L118.986 206.202L118.03 204.415L118.448 203.946L119.388 203.678L121.904 203.463L123.086 203.549L124.066 203.898L125.537 205.64L126.63 207.229L127.747 209.162L127.643 207.896L127.181 206.532L125.456 203.55L126.442 203.674L129.999 206.291C130.396 207.639 130.793 208.987 131.19 210.336C131.411 211.083 131.633 211.831 131.853 212.578L131.141 207.135L131.839 204.511L129.928 201.835L128.196 201.024L126.095 199.608L125.431 198.79L125.085 199.334L125.462 200.267C125.074 200.353 124.685 200.438 124.297 200.523C124.079 200.963 123.86 201.403 123.642 201.843C123.53 201.369 123.418 200.896 123.306 200.422L123.605 199.608L125.151 198.446L123.535 197.634L122.577 197.399L121.744 197.47L121.094 198.08C120.67 198.038 120.246 197.995 119.823 197.952C118.877 198.031 117.932 198.11 116.986 198.189L116.91 198.196C115.967 198.278 115.024 198.361 114.081 198.444C113.76 198.551 113.439 198.657 113.118 198.764L111.748 198.327L110.915 198.398L110.369 198.762L109.988 199.746L112.87 200.528L114.193 201.203C114.708 201.642 115.224 202.081 115.74 202.52C114.974 202.165 114.209 201.809 113.444 201.454C112.988 201.441 112.532 201.428 112.076 201.414L111.2 200.524L110.186 200.097L110.658 200.931L110.628 202.53L110.142 203.53L111.919 206.218Z" fill="#252525"/>
<path d="M123.255 213.949L123.844 214.78L125.749 215.264L128.295 215.434L128.337 215.436L128.371 215.427L130.406 214.878L131.449 214.148L130.859 213.317L130.19 213.141L128.973 211.426L129.443 212.695L129.081 213.401L129.333 214.032L127.425 214.095L127.385 214.096L127.349 214.101L125.569 214.345L124.946 213.744L123.679 213.173L122.395 211.973L123.613 213.687L123.255 213.949Z" fill="#252525"/>
<path d="M122.518 207.769L125.066 210.407L125.066 210.408L125.066 210.407L124.151 207.619L122.693 206.689L122.518 207.769Z" fill="#252525"/>
</g>
</g>
<defs>
<clipPath id="clip0_8939_52996">
<rect width="400" height="300" fill="white"/>
</clipPath>
</defs>
</svg>
