<svg width="169" height="169" viewBox="0 0 169 169" fill="none" xmlns="http://www.w3.org/2000/svg">
<line x1="0.5" y1="2.18555e-08" x2="0.499993" y2="168" stroke="#F9F8F4"/>
<line x1="168.001" y1="0.5" x2="0.000976509" y2="0.499988" stroke="#F9F8F4"/>
<line x1="21.5" y1="2.18555e-08" x2="21.5" y2="168" stroke="#F9F8F4"/>
<line x1="168.001" y1="21.5" x2="0.000976509" y2="21.5" stroke="#F9F8F4"/>
<line x1="42.5" y1="2.18555e-08" x2="42.5" y2="168" stroke="#F9F8F4"/>
<line x1="168.001" y1="42.5" x2="0.000976509" y2="42.5" stroke="#F9F8F4"/>
<line x1="63.5" y1="2.18555e-08" x2="63.5" y2="168" stroke="#F9F8F4"/>
<line x1="168.001" y1="63.5" x2="0.000976509" y2="63.5" stroke="#F9F8F4"/>
<line x1="84.5" y1="2.18555e-08" x2="84.5" y2="168" stroke="#F9F8F4"/>
<line x1="168.001" y1="84.5" x2="0.000976509" y2="84.5" stroke="#F9F8F4"/>
<line x1="105.5" y1="2.18555e-08" x2="105.5" y2="168" stroke="#F9F8F4"/>
<line x1="168.001" y1="105.5" x2="0.000976509" y2="105.5" stroke="#F9F8F4"/>
<line x1="126.5" y1="2.18555e-08" x2="126.5" y2="168" stroke="#F9F8F4"/>
<line x1="168.001" y1="126.5" x2="0.000976509" y2="126.5" stroke="#F9F8F4"/>
<line x1="147.5" y1="2.18555e-08" x2="147.5" y2="168" stroke="#F9F8F4"/>
<line x1="168.001" y1="147.5" x2="0.000976509" y2="147.5" stroke="#F9F8F4"/>
<line x1="168.5" y1="2.18557e-08" x2="168.5" y2="169" stroke="#F9F8F4"/>
<line x1="168.001" y1="168.5" x2="0.000976509" y2="168.5" stroke="#F9F8F4"/>
<rect x="22.5" y="1.5" width="19" height="19" fill="#F9F8F4" stroke="#F9F8F4"/>
<rect x="1.5" y="22.5" width="19" height="19" fill="#F9F8F4" stroke="#F9F8F4"/>
<rect x="22.5" y="43.5" width="19" height="19" fill="#F9F8F4" stroke="#F9F8F4"/>
<rect x="1.5" y="64.5" width="19" height="19" fill="#F9F8F4" stroke="#F9F8F4"/>
<rect x="22.5" y="85.5" width="19" height="19" fill="#F9F8F4" stroke="#F9F8F4"/>
<rect x="1.5" y="106.5" width="19" height="19" fill="#F9F8F4" stroke="#F9F8F4"/>
<rect x="22.5" y="127.5" width="19" height="19" fill="#F9F8F4" stroke="#F9F8F4"/>
<rect x="1.5" y="148.5" width="19" height="19" fill="#F9F8F4" stroke="#F9F8F4"/>
<rect x="64.5" y="1.5" width="19" height="19" fill="#F9F8F4" stroke="#F9F8F4"/>
<rect x="43.5" y="22.5" width="19" height="19" fill="#F9F8F4" stroke="#F9F8F4"/>
<rect x="64.5" y="43.5" width="19" height="19" fill="#F9F8F4" stroke="#F9F8F4"/>
<rect x="43.5" y="64.5" width="19" height="19" fill="#F9F8F4" stroke="#F9F8F4"/>
<rect x="63.5" y="84.5" width="21" height="21" fill="#F9F8F4" stroke="#F9F8F4"/>
<rect x="43.5" y="106.5" width="19" height="19" fill="#F9F8F4" stroke="#F9F8F4"/>
<rect x="64.5" y="127.5" width="19" height="19" fill="#F9F8F4" stroke="#F9F8F4"/>
<rect x="43.5" y="148.5" width="19" height="19" fill="#F9F8F4" stroke="#F9F8F4"/>
<rect x="106.5" y="1.5" width="19" height="19" fill="#F9F8F4" stroke="#F9F8F4"/>
<rect x="85.5" y="22.5" width="19" height="19" fill="#F9F8F4" stroke="#F9F8F4"/>
<rect x="106.5" y="43.5" width="19" height="19" fill="#F9F8F4" stroke="#F9F8F4"/>
<rect x="85.5" y="64.5" width="19" height="19" fill="#F9F8F4" stroke="#F9F8F4"/>
<rect x="106.5" y="85.5" width="19" height="19" fill="#F9F8F4" stroke="#F9F8F4"/>
<rect x="85.5" y="106.5" width="19" height="19" fill="#F9F8F4" stroke="#F9F8F4"/>
<rect x="106.5" y="127.5" width="19" height="19" fill="#F9F8F4" stroke="#F9F8F4"/>
<rect x="85.5" y="148.5" width="19" height="19" fill="#F9F8F4" stroke="#F9F8F4"/>
<rect x="148.5" y="1.5" width="19" height="19" fill="#F9F8F4" stroke="#F9F8F4"/>
<rect x="127.5" y="22.5" width="19" height="19" fill="#F9F8F4" stroke="#F9F8F4"/>
<rect x="148.5" y="43.5" width="19" height="19" fill="#F9F8F4" stroke="#F9F8F4"/>
<rect x="127.5" y="64.5" width="19" height="19" fill="#F9F8F4" stroke="#F9F8F4"/>
<rect x="148.5" y="85.5" width="19" height="19" fill="#F9F8F4" stroke="#F9F8F4"/>
<rect x="127.5" y="106.5" width="19" height="19" fill="#F9F8F4" stroke="#F9F8F4"/>
<rect x="148.5" y="127.5" width="19" height="19" fill="#F9F8F4" stroke="#F9F8F4"/>
<rect x="127.5" y="148.5" width="19" height="19" fill="#F9F8F4" stroke="#F9F8F4"/>
<path d="M11.0007 19.7465C15.8309 19.7465 19.7465 15.8309 19.7465 11.0007C19.7465 6.17052 15.8309 2.25488 11.0007 2.25488C6.17052 2.25488 2.25488 6.17052 2.25488 11.0007C2.25488 15.8309 6.17052 19.7465 11.0007 19.7465Z" fill="#49B5C4"/>
<path d="M13.636 17.364C17.1508 15.9081 18.8198 11.8787 17.364 8.36398C15.9081 4.84926 11.8787 3.18021 8.36396 4.63606C4.84924 6.0919 3.18019 10.1213 4.63604 13.6361C6.09188 17.1508 10.1213 18.8198 13.636 17.364Z" fill="#56EBFF"/>
<path d="M10.998 5.04102C7.71202 5.04102 5.03906 7.71397 5.03906 10.9999C5.03906 14.2858 7.71202 16.9597 10.998 16.9597C14.2839 16.9597 16.9578 14.2858 16.9578 10.9999C16.9578 7.71397 14.2848 5.04102 10.998 5.04102ZM10.998 16.031C8.22469 16.031 5.96782 13.7741 5.96782 10.9999C5.96782 8.22572 8.22469 5.96977 10.998 5.96977C13.7712 5.96977 16.029 8.22572 16.029 10.9999C16.029 13.7741 13.7722 16.031 10.998 16.031Z" fill="url(#paint0_radial_5850_31941)"/>
<path d="M12.926 15.6486C15.4929 14.5853 16.7119 11.6425 15.6486 9.07552C14.5854 6.50859 11.6425 5.28962 9.07558 6.35288C6.50865 7.41613 5.28968 10.359 6.35293 12.9259C7.41619 15.4929 10.359 16.7118 12.926 15.6486Z" fill="#56EBFF"/>
<path d="M53.0007 61.7465C57.8309 61.7465 61.7465 57.8309 61.7465 53.0007C61.7465 48.1705 57.8309 44.2549 53.0007 44.2549C48.1705 44.2549 44.2549 48.1705 44.2549 53.0007C44.2549 57.8309 48.1705 61.7465 53.0007 61.7465Z" fill="#49B5C4"/>
<path d="M55.636 59.364C59.1508 57.9081 60.8198 53.8787 59.364 50.364C57.9081 46.8493 53.8787 45.1802 50.364 46.6361C46.8492 48.0919 45.1802 52.1213 46.636 55.6361C48.0919 59.1508 52.1213 60.8198 55.636 59.364Z" fill="#56EBFF"/>
<path d="M52.998 47.041C49.712 47.041 47.0391 49.714 47.0391 52.9999C47.0391 56.2858 49.712 58.9597 52.998 58.9597C56.2839 58.9597 58.9578 56.2858 58.9578 52.9999C58.9578 49.714 56.2848 47.041 52.998 47.041ZM52.998 58.031C50.2247 58.031 47.9678 55.7741 47.9678 52.9999C47.9678 50.2257 50.2247 47.9698 52.998 47.9698C55.7712 47.9698 58.029 50.2257 58.029 52.9999C58.029 55.7741 55.7722 58.031 52.998 58.031Z" fill="url(#paint1_radial_5850_31941)"/>
<path d="M54.926 57.6486C57.4929 56.5853 58.7119 53.6425 57.6486 51.0755C56.5854 48.5086 53.6425 47.2896 51.0756 48.3529C48.5086 49.4161 47.2897 52.359 48.3529 54.9259C49.4162 57.4929 52.359 58.7118 54.926 57.6486Z" fill="#56EBFF"/>
<path d="M32.0007 40.7465C36.8309 40.7465 40.7465 36.8309 40.7465 32.0007C40.7465 27.1705 36.8309 23.2549 32.0007 23.2549C27.1705 23.2549 23.2549 27.1705 23.2549 32.0007C23.2549 36.8309 27.1705 40.7465 32.0007 40.7465Z" fill="#49B5C4"/>
<path d="M34.636 38.364C38.1508 36.9081 39.8198 32.8787 38.364 29.364C36.9081 25.8493 32.8787 24.1802 29.364 25.6361C25.8492 27.0919 24.1802 31.1213 25.636 34.6361C27.0919 38.1508 31.1213 39.8198 34.636 38.364Z" fill="#56EBFF"/>
<path d="M31.998 26.041C28.712 26.041 26.0391 28.714 26.0391 31.9999C26.0391 35.2858 28.712 37.9597 31.998 37.9597C35.2839 37.9597 37.9578 35.2858 37.9578 31.9999C37.9578 28.714 35.2848 26.041 31.998 26.041ZM31.998 37.031C29.2247 37.031 26.9678 34.7741 26.9678 31.9999C26.9678 29.2257 29.2247 26.9698 31.998 26.9698C34.7712 26.9698 37.029 29.2257 37.029 31.9999C37.029 34.7741 34.7722 37.031 31.998 37.031Z" fill="url(#paint2_radial_5850_31941)"/>
<path d="M33.926 36.6486C36.4929 35.5853 37.7119 32.6425 36.6486 30.0755C35.5854 27.5086 32.6425 26.2896 30.0756 27.3529C27.5086 28.4161 26.2897 31.359 27.3529 33.9259C28.4162 36.4929 31.359 37.7118 33.926 36.6486Z" fill="#56EBFF"/>
<path d="M53.0007 19.7465C57.8309 19.7465 61.7465 15.8309 61.7465 11.0007C61.7465 6.17052 57.8309 2.25488 53.0007 2.25488C48.1705 2.25488 44.2549 6.17052 44.2549 11.0007C44.2549 15.8309 48.1705 19.7465 53.0007 19.7465Z" fill="#49B5C4"/>
<path d="M55.636 17.364C59.1508 15.9081 60.8198 11.8787 59.364 8.36398C57.9081 4.84926 53.8787 3.18021 50.364 4.63606C46.8492 6.0919 45.1802 10.1213 46.636 13.6361C48.0919 17.1508 52.1213 18.8198 55.636 17.364Z" fill="#56EBFF"/>
<path d="M52.998 5.04102C49.712 5.04102 47.0391 7.71397 47.0391 10.9999C47.0391 14.2858 49.712 16.9597 52.998 16.9597C56.2839 16.9597 58.9578 14.2858 58.9578 10.9999C58.9578 7.71397 56.2848 5.04102 52.998 5.04102ZM52.998 16.031C50.2247 16.031 47.9678 13.7741 47.9678 10.9999C47.9678 8.22572 50.2247 5.96977 52.998 5.96977C55.7712 5.96977 58.029 8.22572 58.029 10.9999C58.029 13.7741 55.7722 16.031 52.998 16.031Z" fill="url(#paint3_radial_5850_31941)"/>
<path d="M54.926 15.6486C57.4929 14.5853 58.7119 11.6425 57.6486 9.07552C56.5854 6.50859 53.6425 5.28962 51.0756 6.35288C48.5086 7.41613 47.2897 10.359 48.3529 12.9259C49.4162 15.4929 52.359 16.7118 54.926 15.6486Z" fill="#56EBFF"/>
<path d="M137.001 103.747C141.831 103.747 145.747 99.8309 145.747 95.0007C145.747 90.1705 141.831 86.2549 137.001 86.2549C132.171 86.2549 128.255 90.1705 128.255 95.0007C128.255 99.8309 132.171 103.747 137.001 103.747Z" fill="#49B5C4"/>
<path d="M139.636 101.364C143.151 99.9081 144.82 95.8787 143.364 92.364C141.908 88.8493 137.879 87.1802 134.364 88.6361C130.849 90.0919 129.18 94.1213 130.636 97.6361C132.092 101.151 136.121 102.82 139.636 101.364Z" fill="#56EBFF"/>
<path d="M136.998 89.041C133.712 89.041 131.039 91.714 131.039 94.9999C131.039 98.2858 133.712 100.96 136.998 100.96C140.284 100.96 142.958 98.2858 142.958 94.9999C142.958 91.714 140.285 89.041 136.998 89.041ZM136.998 100.031C134.225 100.031 131.968 97.7741 131.968 94.9999C131.968 92.2257 134.225 89.9698 136.998 89.9698C139.771 89.9698 142.029 92.2257 142.029 94.9999C142.029 97.7741 139.772 100.031 136.998 100.031Z" fill="url(#paint4_radial_5850_31941)"/>
<path d="M138.926 99.6486C141.493 98.5853 142.712 95.6425 141.649 93.0755C140.585 90.5086 137.643 89.2896 135.076 90.3529C132.509 91.4161 131.29 94.359 132.353 96.9259C133.416 99.4929 136.359 100.712 138.926 99.6486Z" fill="#56EBFF"/>
<path d="M95.0007 61.7465C99.8309 61.7465 103.747 57.8309 103.747 53.0007C103.747 48.1705 99.8309 44.2549 95.0007 44.2549C90.1705 44.2549 86.2549 48.1705 86.2549 53.0007C86.2549 57.8309 90.1705 61.7465 95.0007 61.7465Z" fill="#49B5C4"/>
<path d="M97.636 59.364C101.151 57.9081 102.82 53.8787 101.364 50.364C99.9081 46.8493 95.8787 45.1802 92.364 46.6361C88.8492 48.0919 87.1802 52.1213 88.636 55.6361C90.0919 59.1508 94.1213 60.8198 97.636 59.364Z" fill="#56EBFF"/>
<path d="M94.998 47.041C91.712 47.041 89.0391 49.714 89.0391 52.9999C89.0391 56.2858 91.712 58.9597 94.998 58.9597C98.2839 58.9597 100.958 56.2858 100.958 52.9999C100.958 49.714 98.2848 47.041 94.998 47.041ZM94.998 58.031C92.2247 58.031 89.9678 55.7741 89.9678 52.9999C89.9678 50.2257 92.2247 47.9698 94.998 47.9698C97.7712 47.9698 100.029 50.2257 100.029 52.9999C100.029 55.7741 97.7722 58.031 94.998 58.031Z" fill="url(#paint5_radial_5850_31941)"/>
<path d="M96.926 57.6486C99.4929 56.5853 100.712 53.6425 99.6486 51.0755C98.5854 48.5086 95.6425 47.2896 93.0756 48.3529C90.5086 49.4161 89.2897 52.359 90.3529 54.9259C91.4162 57.4929 94.359 58.7118 96.926 57.6486Z" fill="#56EBFF"/>
<path d="M137.001 19.7465C141.831 19.7465 145.747 15.8309 145.747 11.0007C145.747 6.17052 141.831 2.25488 137.001 2.25488C132.171 2.25488 128.255 6.17052 128.255 11.0007C128.255 15.8309 132.171 19.7465 137.001 19.7465Z" fill="#49B5C4"/>
<path d="M139.636 17.364C143.151 15.9081 144.82 11.8787 143.364 8.36398C141.908 4.84926 137.879 3.18021 134.364 4.63606C130.849 6.0919 129.18 10.1213 130.636 13.6361C132.092 17.1508 136.121 18.8198 139.636 17.364Z" fill="#56EBFF"/>
<path d="M136.998 5.04102C133.712 5.04102 131.039 7.71397 131.039 10.9999C131.039 14.2858 133.712 16.9597 136.998 16.9597C140.284 16.9597 142.958 14.2858 142.958 10.9999C142.958 7.71397 140.285 5.04102 136.998 5.04102ZM136.998 16.031C134.225 16.031 131.968 13.7741 131.968 10.9999C131.968 8.22572 134.225 5.96977 136.998 5.96977C139.771 5.96977 142.029 8.22572 142.029 10.9999C142.029 13.7741 139.772 16.031 136.998 16.031Z" fill="url(#paint6_radial_5850_31941)"/>
<path d="M138.926 15.6486C141.493 14.5853 142.712 11.6425 141.649 9.07552C140.585 6.50859 137.643 5.28962 135.076 6.35288C132.509 7.41613 131.29 10.359 132.353 12.9259C133.416 15.4929 136.359 16.7118 138.926 15.6486Z" fill="#56EBFF"/>
<path d="M53.0007 103.746C57.8309 103.746 61.7465 99.8304 61.7465 95.0002C61.7465 90.17 57.8309 86.2544 53.0007 86.2544C48.1705 86.2544 44.2549 90.17 44.2549 95.0002C44.2549 99.8304 48.1705 103.746 53.0007 103.746Z" fill="#B3D707"/>
<path d="M55.636 101.364C59.1508 99.9081 60.8198 95.8787 59.364 92.364C57.9081 88.8493 53.8787 87.1802 50.364 88.6361C46.8492 90.0919 45.1802 94.1213 46.636 97.6361C48.0919 101.151 52.1213 102.82 55.636 101.364Z" fill="#D2FF00"/>
<path d="M52.998 89.0405C49.712 89.0405 47.0391 91.7135 47.0391 94.9994C47.0391 98.2854 49.712 100.959 52.998 100.959C56.2839 100.959 58.9578 98.2854 58.9578 94.9994C58.9578 91.7135 56.2848 89.0405 52.998 89.0405ZM52.998 100.03C50.2247 100.03 47.9678 97.7736 47.9678 94.9994C47.9678 92.2252 50.2247 89.9693 52.998 89.9693C55.7712 89.9693 58.029 92.2252 58.029 94.9994C58.029 97.7736 55.7722 100.03 52.998 100.03Z" fill="url(#paint7_radial_5850_31941)"/>
<path d="M54.924 99.6481C57.491 98.5848 58.7099 95.642 57.6467 93.075C56.5834 90.5081 53.6406 89.2891 51.0736 90.3524C48.5067 91.4156 47.2877 94.3585 48.351 96.9254C49.4142 99.4924 52.3571 100.711 54.924 99.6481Z" fill="#D2FF00"/>
<path d="M32.0007 124.746C36.8309 124.746 40.7465 120.83 40.7465 116C40.7465 111.17 36.8309 107.254 32.0007 107.254C27.1705 107.254 23.2549 111.17 23.2549 116C23.2549 120.83 27.1705 124.746 32.0007 124.746Z" fill="#B3D707"/>
<path d="M34.636 122.364C38.1508 120.908 39.8198 116.879 38.364 113.364C36.9081 109.849 32.8787 108.18 29.364 109.636C25.8492 111.092 24.1802 115.121 25.636 118.636C27.0919 122.151 31.1213 123.82 34.636 122.364Z" fill="#D2FF00"/>
<path d="M31.998 110.041C28.712 110.041 26.0391 112.713 26.0391 115.999C26.0391 119.285 28.712 121.959 31.998 121.959C35.2839 121.959 37.9578 119.285 37.9578 115.999C37.9578 112.713 35.2848 110.041 31.998 110.041ZM31.998 121.03C29.2247 121.03 26.9678 118.774 26.9678 115.999C26.9678 113.225 29.2247 110.969 31.998 110.969C34.7712 110.969 37.029 113.225 37.029 115.999C37.029 118.774 34.7722 121.03 31.998 121.03Z" fill="url(#paint8_radial_5850_31941)"/>
<path d="M33.924 120.648C36.491 119.585 37.7099 116.642 36.6467 114.075C35.5834 111.508 32.6406 110.289 30.0736 111.352C27.5067 112.416 26.2877 115.358 27.351 117.925C28.4142 120.492 31.3571 121.711 33.924 120.648Z" fill="#D2FF00"/>
<path d="M74.0007 166.746C78.8309 166.746 82.7465 162.83 82.7465 158C82.7465 153.17 78.8309 149.254 74.0007 149.254C69.1705 149.254 65.2549 153.17 65.2549 158C65.2549 162.83 69.1705 166.746 74.0007 166.746Z" fill="#B3D707"/>
<path d="M76.636 164.364C80.1508 162.908 81.8198 158.879 80.364 155.364C78.9081 151.849 74.8787 150.18 71.364 151.636C67.8492 153.092 66.1802 157.121 67.636 160.636C69.0919 164.151 73.1213 165.82 76.636 164.364Z" fill="#D2FF00"/>
<path d="M73.998 152.041C70.712 152.041 68.0391 154.713 68.0391 157.999C68.0391 161.285 70.712 163.959 73.998 163.959C77.2839 163.959 79.9578 161.285 79.9578 157.999C79.9578 154.713 77.2848 152.041 73.998 152.041ZM73.998 163.03C71.2247 163.03 68.9678 160.774 68.9678 157.999C68.9678 155.225 71.2247 152.969 73.998 152.969C76.7712 152.969 79.029 155.225 79.029 157.999C79.029 160.774 76.7722 163.03 73.998 163.03Z" fill="url(#paint9_radial_5850_31941)"/>
<path d="M75.924 162.648C78.491 161.585 79.7099 158.642 78.6467 156.075C77.5834 153.508 74.6406 152.289 72.0736 153.352C69.5067 154.416 68.2877 157.358 69.351 159.925C70.4142 162.492 73.3571 163.711 75.924 162.648Z" fill="#D2FF00"/>
<path d="M116.001 166.746C120.831 166.746 124.747 162.83 124.747 158C124.747 153.17 120.831 149.254 116.001 149.254C111.171 149.254 107.255 153.17 107.255 158C107.255 162.83 111.171 166.746 116.001 166.746Z" fill="#B3D707"/>
<path d="M118.636 164.364C122.151 162.908 123.82 158.879 122.364 155.364C120.908 151.849 116.879 150.18 113.364 151.636C109.849 153.092 108.18 157.121 109.636 160.636C111.092 164.151 115.121 165.82 118.636 164.364Z" fill="#D2FF00"/>
<path d="M115.998 152.041C112.712 152.041 110.039 154.713 110.039 157.999C110.039 161.285 112.712 163.959 115.998 163.959C119.284 163.959 121.958 161.285 121.958 157.999C121.958 154.713 119.285 152.041 115.998 152.041ZM115.998 163.03C113.225 163.03 110.968 160.774 110.968 157.999C110.968 155.225 113.225 152.969 115.998 152.969C118.771 152.969 121.029 155.225 121.029 157.999C121.029 160.774 118.772 163.03 115.998 163.03Z" fill="url(#paint10_radial_5850_31941)"/>
<path d="M117.924 162.648C120.491 161.585 121.71 158.642 120.647 156.075C119.583 153.508 116.641 152.289 114.074 153.352C111.507 154.416 110.288 157.358 111.351 159.925C112.414 162.492 115.357 163.711 117.924 162.648Z" fill="#D2FF00"/>
<path d="M116.001 124.746C120.831 124.746 124.747 120.83 124.747 116C124.747 111.17 120.831 107.254 116.001 107.254C111.171 107.254 107.255 111.17 107.255 116C107.255 120.83 111.171 124.746 116.001 124.746Z" fill="#B3D707"/>
<path d="M118.636 122.364C122.151 120.908 123.82 116.879 122.364 113.364C120.908 109.849 116.879 108.18 113.364 109.636C109.849 111.092 108.18 115.121 109.636 118.636C111.092 122.151 115.121 123.82 118.636 122.364Z" fill="#D2FF00"/>
<path d="M115.998 110.041C112.712 110.041 110.039 112.713 110.039 115.999C110.039 119.285 112.712 121.959 115.998 121.959C119.284 121.959 121.958 119.285 121.958 115.999C121.958 112.713 119.285 110.041 115.998 110.041ZM115.998 121.03C113.225 121.03 110.968 118.774 110.968 115.999C110.968 113.225 113.225 110.969 115.998 110.969C118.771 110.969 121.029 113.225 121.029 115.999C121.029 118.774 118.772 121.03 115.998 121.03Z" fill="url(#paint11_radial_5850_31941)"/>
<path d="M117.924 120.648C120.491 119.585 121.71 116.642 120.647 114.075C119.583 111.508 116.641 110.289 114.074 111.352C111.507 112.416 110.288 115.358 111.351 117.925C112.414 120.492 115.357 121.711 117.924 120.648Z" fill="#D2FF00"/>
<path d="M158.001 166.746C162.831 166.746 166.747 162.83 166.747 158C166.747 153.17 162.831 149.254 158.001 149.254C153.171 149.254 149.255 153.17 149.255 158C149.255 162.83 153.171 166.746 158.001 166.746Z" fill="#B3D707"/>
<path d="M160.636 164.364C164.151 162.908 165.82 158.879 164.364 155.364C162.908 151.849 158.879 150.18 155.364 151.636C151.849 153.092 150.18 157.121 151.636 160.636C153.092 164.151 157.121 165.82 160.636 164.364Z" fill="#D2FF00"/>
<path d="M157.998 152.041C154.712 152.041 152.039 154.713 152.039 157.999C152.039 161.285 154.712 163.959 157.998 163.959C161.284 163.959 163.958 161.285 163.958 157.999C163.958 154.713 161.285 152.041 157.998 152.041ZM157.998 163.03C155.225 163.03 152.968 160.774 152.968 157.999C152.968 155.225 155.225 152.969 157.998 152.969C160.771 152.969 163.029 155.225 163.029 157.999C163.029 160.774 160.772 163.03 157.998 163.03Z" fill="url(#paint12_radial_5850_31941)"/>
<path d="M159.924 162.648C162.491 161.585 163.71 158.642 162.647 156.075C161.583 153.508 158.641 152.289 156.074 153.352C153.507 154.416 152.288 157.358 153.351 159.925C154.414 162.492 157.357 163.711 159.924 162.648Z" fill="#D2FF00"/>
<path d="M137.001 61.746C141.831 61.746 145.747 57.8304 145.747 53.0002C145.747 48.17 141.831 44.2544 137.001 44.2544C132.171 44.2544 128.255 48.17 128.255 53.0002C128.255 57.8304 132.171 61.746 137.001 61.746Z" fill="#B3D707"/>
<path d="M139.636 59.364C143.151 57.9081 144.82 53.8787 143.364 50.364C141.908 46.8493 137.879 45.1802 134.364 46.6361C130.849 48.0919 129.18 52.1213 130.636 55.6361C132.092 59.1508 136.121 60.8198 139.636 59.364Z" fill="#D2FF00"/>
<path d="M136.998 47.0405C133.712 47.0405 131.039 49.7135 131.039 52.9994C131.039 56.2854 133.712 58.9592 136.998 58.9592C140.284 58.9592 142.958 56.2854 142.958 52.9994C142.958 49.7135 140.285 47.0405 136.998 47.0405ZM136.998 58.0305C134.225 58.0305 131.968 55.7736 131.968 52.9994C131.968 50.2252 134.225 47.9693 136.998 47.9693C139.771 47.9693 142.029 50.2252 142.029 52.9994C142.029 55.7736 139.772 58.0305 136.998 58.0305Z" fill="url(#paint13_radial_5850_31941)"/>
<path d="M138.924 57.6481C141.491 56.5848 142.71 53.642 141.647 51.075C140.583 48.5081 137.641 47.2891 135.074 48.3524C132.507 49.4156 131.288 52.3585 132.351 54.9254C133.414 57.4924 136.357 58.7113 138.924 57.6481Z" fill="#D2FF00"/>
<path d="M116.001 40.746C120.831 40.746 124.747 36.8304 124.747 32.0002C124.747 27.17 120.831 23.2544 116.001 23.2544C111.171 23.2544 107.255 27.17 107.255 32.0002C107.255 36.8304 111.171 40.746 116.001 40.746Z" fill="#B3D707"/>
<path d="M118.636 38.364C122.151 36.9081 123.82 32.8787 122.364 29.364C120.908 25.8493 116.879 24.1802 113.364 25.6361C109.849 27.0919 108.18 31.1213 109.636 34.6361C111.092 38.1508 115.121 39.8198 118.636 38.364Z" fill="#D2FF00"/>
<path d="M115.998 26.0405C112.712 26.0405 110.039 28.7135 110.039 31.9994C110.039 35.2854 112.712 37.9592 115.998 37.9592C119.284 37.9592 121.958 35.2854 121.958 31.9994C121.958 28.7135 119.285 26.0405 115.998 26.0405ZM115.998 37.0305C113.225 37.0305 110.968 34.7736 110.968 31.9994C110.968 29.2252 113.225 26.9693 115.998 26.9693C118.771 26.9693 121.029 29.2252 121.029 31.9994C121.029 34.7736 118.772 37.0305 115.998 37.0305Z" fill="url(#paint14_radial_5850_31941)"/>
<path d="M117.924 36.6481C120.491 35.5848 121.71 32.642 120.647 30.075C119.583 27.5081 116.641 26.2891 114.074 27.3524C111.507 28.4156 110.288 31.3585 111.351 33.9254C112.414 36.4924 115.357 37.7113 117.924 36.6481Z" fill="#D2FF00"/>
<path d="M95.0007 19.7457C99.8309 19.7457 103.747 15.83 103.747 10.9998C103.747 6.16966 99.8309 2.25403 95.0007 2.25403C90.1705 2.25403 86.2549 6.16966 86.2549 10.9998C86.2549 15.83 90.1705 19.7457 95.0007 19.7457Z" fill="#B3D707"/>
<path d="M97.636 17.364C101.151 15.9081 102.82 11.8787 101.364 8.36398C99.9081 4.84926 95.8787 3.18021 92.364 4.63606C88.8492 6.0919 87.1802 10.1213 88.636 13.6361C90.0919 17.1508 94.1213 18.8198 97.636 17.364Z" fill="#D2FF00"/>
<path d="M94.998 5.04053C91.712 5.04053 89.0391 7.71349 89.0391 10.9994C89.0391 14.2854 91.712 16.9592 94.998 16.9592C98.2839 16.9592 100.958 14.2854 100.958 10.9994C100.958 7.71349 98.2848 5.04053 94.998 5.04053ZM94.998 16.0305C92.2247 16.0305 89.9678 13.7736 89.9678 10.9994C89.9678 8.22523 92.2247 5.96928 94.998 5.96928C97.7712 5.96928 100.029 8.22523 100.029 10.9994C100.029 13.7736 97.7722 16.0305 94.998 16.0305Z" fill="url(#paint15_radial_5850_31941)"/>
<path d="M96.924 15.6476C99.491 14.5843 100.71 11.6415 99.6467 9.07454C98.5834 6.50761 95.6406 5.28864 93.0736 6.3519C90.5067 7.41516 89.2877 10.358 90.351 12.9249C91.4142 15.4919 94.3571 16.7108 96.924 15.6476Z" fill="#D2FF00"/>
<path d="M98.7231 10.8234L97.844 11.9376L96.7799 14.329L97.0884 13.3302C97.2746 12.7294 97.4609 12.1288 97.6471 11.5281L97.029 10.259L96.713 10.1682L96.5988 11.5281L96.4317 12.1378L96.1626 12.6917L96.2368 11.8105V11.0795L96.1408 10.2675L95.8808 10.0795L95.486 9.99804H94.5503L94.1557 10.0795L93.8956 10.2675L93.7997 11.0795V11.8105L93.8739 12.6917L93.6047 12.1378L93.4376 11.5281L93.3234 10.1682L93.0074 10.259L92.3894 11.5281C92.5756 12.1288 92.7618 12.7294 92.948 13.3302C93.0508 13.6631 93.1536 13.996 93.2566 14.329L92.1924 11.9376L91.3135 10.8234L91.3383 9.58944L91.7509 9.17269L92.147 8.47939L92.183 8.09928L92.4358 8.32256L92.5287 8.74214C92.6857 8.76483 92.8427 8.78739 92.9996 8.81008C93.1826 8.99302 93.3656 9.17594 93.5486 9.35903C93.4735 9.14909 93.3984 8.93901 93.3234 8.72907L93.0219 8.38649L92.198 7.93931L92.5695 7.52611L92.8493 7.38843H93.1591L93.5349 7.62937C93.6733 7.59494 93.8119 7.56054 93.9503 7.52611C94.3016 7.52523 94.6528 7.52447 95.0042 7.52359H95.0323C95.3837 7.52447 95.7349 7.52523 96.086 7.52611C96.2246 7.56054 96.363 7.59494 96.5016 7.62937L96.8774 7.38843H97.1872L97.467 7.52611L97.8384 7.93931L97.0147 8.38649L96.713 8.72907C96.6381 8.93901 96.563 9.14909 96.488 9.35903C96.6709 9.17594 96.8538 8.99302 97.0369 8.81008C97.1939 8.78739 97.3508 8.76483 97.5078 8.74214L97.6005 8.32256L97.8535 8.09928L97.8894 8.47939L98.2857 9.17269L98.6983 9.58944L98.7231 10.8234Z" fill="#252525"/>
<path d="M96.4283 14.3956V14.7887L95.8821 15.076L95.0337 15.2461L95.0196 15.249L95.0055 15.2461L94.157 15.076L93.6108 14.7887V14.3956L93.801 14.292V13.4806L93.9516 14.0649L94.2537 14.3668L94.3222 14.6583L95.0055 14.6156L95.0196 14.6147L95.0337 14.6156L95.7169 14.6583L95.7854 14.3668L96.0874 14.0649L96.2381 13.4806V14.292L96.4283 14.3956Z" fill="#252525"/>
<path d="M32.0007 166.746C36.8309 166.746 40.7465 162.83 40.7465 158C40.7465 153.17 36.8309 149.254 32.0007 149.254C27.1705 149.254 23.2549 153.17 23.2549 158C23.2549 162.83 27.1705 166.746 32.0007 166.746Z" fill="#49B5C4"/>
<path d="M34.636 164.364C38.1508 162.908 39.8198 158.879 38.364 155.364C36.9081 151.849 32.8787 150.18 29.364 151.636C25.8492 153.092 24.1802 157.121 25.636 160.636C27.0919 164.151 31.1213 165.82 34.636 164.364Z" fill="#56EBFF"/>
<path d="M31.998 152.041C28.712 152.041 26.0391 154.713 26.0391 157.999C26.0391 161.285 28.712 163.959 31.998 163.959C35.2839 163.959 37.9578 161.285 37.9578 157.999C37.9578 154.713 35.2848 152.041 31.998 152.041ZM31.998 163.03C29.2247 163.03 26.9678 160.774 26.9678 157.999C26.9678 155.225 29.2247 152.969 31.998 152.969C34.7712 152.969 37.029 155.225 37.029 157.999C37.029 160.774 34.7722 163.03 31.998 163.03Z" fill="url(#paint16_radial_5850_31941)"/>
<path d="M33.924 162.648C36.491 161.585 37.7099 158.642 36.6467 156.075C35.5834 153.508 32.6406 152.289 30.0736 153.352C27.5067 154.416 26.2877 157.358 27.351 159.925C28.4142 162.492 31.3571 163.711 33.924 162.648Z" fill="#56EBFF"/>
<path d="M35.7035 157.823L34.8245 158.938L33.7604 161.329L34.0688 160.33C34.255 159.729 34.4414 159.129 34.6276 158.528L34.0095 157.259L33.6935 157.168L33.5792 158.528L33.4122 159.138L33.143 159.692L33.2172 158.81V158.079L33.1212 157.267L32.8613 157.079L32.4665 156.998H31.5308L31.1361 157.079L30.8761 157.267L30.7802 158.079V158.81L30.8544 159.692L30.5851 159.138L30.4181 158.528L30.3038 157.168L29.9878 157.259L29.3699 158.528C29.5561 159.129 29.7423 159.729 29.9285 160.33C30.0313 160.663 30.1341 160.996 30.2371 161.329L29.1729 158.938L28.2939 157.823L28.3187 156.589L28.7313 156.173L29.1275 155.479L29.1635 155.099L29.4163 155.323L29.5092 155.742C29.6662 155.765 29.8231 155.787 29.9801 155.81C30.163 155.993 30.3461 156.176 30.529 156.359C30.454 156.149 30.3789 155.939 30.3038 155.729L30.0023 155.386L29.1785 154.939L29.55 154.526L29.8298 154.388H30.1396L30.5154 154.629C30.6538 154.595 30.7924 154.561 30.9308 154.526C31.2821 154.525 31.6333 154.524 31.9846 154.524H32.0128C32.3641 154.524 32.7153 154.525 33.0665 154.526C33.2051 154.561 33.3435 154.595 33.4821 154.629L33.8579 154.388H34.1677L34.4475 154.526L34.8189 154.939L33.9951 155.386L33.6935 155.729C33.6186 155.939 33.5435 156.149 33.4684 156.359C33.6514 156.176 33.8343 155.993 34.0174 155.81C34.1743 155.787 34.3313 155.765 34.4883 155.742L34.581 155.323L34.834 155.099L34.8699 155.479L35.2661 156.173L35.6787 156.589L35.7035 157.823Z" fill="#252525"/>
<path d="M33.4088 161.396V161.789L32.8626 162.076L32.0141 162.246L32 162.249L31.9859 162.246L31.1374 162.076L30.5913 161.789V161.396L30.7815 161.292V160.481L30.9321 161.065L31.2342 161.367L31.3027 161.658L31.9859 161.616L32 161.615L32.0141 161.616L32.6974 161.658L32.7659 161.367L33.0678 161.065L33.2185 160.481V161.292L33.4088 161.396Z" fill="#252525"/>
<defs>
<radialGradient id="paint0_radial_5850_31941" cx="0" cy="0" r="1" gradientUnits="userSpaceOnUse" gradientTransform="translate(10.9984 11.0005) scale(5.95936)">
<stop stop-color="#40919C"/>
<stop offset="0.472" stop-color="#40929D"/>
<stop offset="0.641" stop-color="#4198A4"/>
<stop offset="0.762" stop-color="#44A3B0"/>
<stop offset="0.86" stop-color="#48B3C1"/>
<stop offset="0.943" stop-color="#4DC6D7"/>
<stop offset="1" stop-color="#52D9EB"/>
</radialGradient>
<radialGradient id="paint1_radial_5850_31941" cx="0" cy="0" r="1" gradientUnits="userSpaceOnUse" gradientTransform="translate(52.9984 53.0005) scale(5.95936)">
<stop stop-color="#40919C"/>
<stop offset="0.472" stop-color="#40929D"/>
<stop offset="0.641" stop-color="#4198A4"/>
<stop offset="0.762" stop-color="#44A3B0"/>
<stop offset="0.86" stop-color="#48B3C1"/>
<stop offset="0.943" stop-color="#4DC6D7"/>
<stop offset="1" stop-color="#52D9EB"/>
</radialGradient>
<radialGradient id="paint2_radial_5850_31941" cx="0" cy="0" r="1" gradientUnits="userSpaceOnUse" gradientTransform="translate(31.9984 32.0005) scale(5.95936)">
<stop stop-color="#40919C"/>
<stop offset="0.472" stop-color="#40929D"/>
<stop offset="0.641" stop-color="#4198A4"/>
<stop offset="0.762" stop-color="#44A3B0"/>
<stop offset="0.86" stop-color="#48B3C1"/>
<stop offset="0.943" stop-color="#4DC6D7"/>
<stop offset="1" stop-color="#52D9EB"/>
</radialGradient>
<radialGradient id="paint3_radial_5850_31941" cx="0" cy="0" r="1" gradientUnits="userSpaceOnUse" gradientTransform="translate(52.9984 11.0005) scale(5.95936)">
<stop stop-color="#40919C"/>
<stop offset="0.472" stop-color="#40929D"/>
<stop offset="0.641" stop-color="#4198A4"/>
<stop offset="0.762" stop-color="#44A3B0"/>
<stop offset="0.86" stop-color="#48B3C1"/>
<stop offset="0.943" stop-color="#4DC6D7"/>
<stop offset="1" stop-color="#52D9EB"/>
</radialGradient>
<radialGradient id="paint4_radial_5850_31941" cx="0" cy="0" r="1" gradientUnits="userSpaceOnUse" gradientTransform="translate(136.998 95.0005) scale(5.95936)">
<stop stop-color="#40919C"/>
<stop offset="0.472" stop-color="#40929D"/>
<stop offset="0.641" stop-color="#4198A4"/>
<stop offset="0.762" stop-color="#44A3B0"/>
<stop offset="0.86" stop-color="#48B3C1"/>
<stop offset="0.943" stop-color="#4DC6D7"/>
<stop offset="1" stop-color="#52D9EB"/>
</radialGradient>
<radialGradient id="paint5_radial_5850_31941" cx="0" cy="0" r="1" gradientUnits="userSpaceOnUse" gradientTransform="translate(94.9984 53.0005) scale(5.95936)">
<stop stop-color="#40919C"/>
<stop offset="0.472" stop-color="#40929D"/>
<stop offset="0.641" stop-color="#4198A4"/>
<stop offset="0.762" stop-color="#44A3B0"/>
<stop offset="0.86" stop-color="#48B3C1"/>
<stop offset="0.943" stop-color="#4DC6D7"/>
<stop offset="1" stop-color="#52D9EB"/>
</radialGradient>
<radialGradient id="paint6_radial_5850_31941" cx="0" cy="0" r="1" gradientUnits="userSpaceOnUse" gradientTransform="translate(136.998 11.0005) scale(5.95936)">
<stop stop-color="#40919C"/>
<stop offset="0.472" stop-color="#40929D"/>
<stop offset="0.641" stop-color="#4198A4"/>
<stop offset="0.762" stop-color="#44A3B0"/>
<stop offset="0.86" stop-color="#48B3C1"/>
<stop offset="0.943" stop-color="#4DC6D7"/>
<stop offset="1" stop-color="#52D9EB"/>
</radialGradient>
<radialGradient id="paint7_radial_5850_31941" cx="0" cy="0" r="1" gradientUnits="userSpaceOnUse" gradientTransform="translate(52.9984 94.9999) scale(5.95936)">
<stop stop-color="#748814"/>
<stop offset="0.451" stop-color="#758913"/>
<stop offset="0.613" stop-color="#7A9012"/>
<stop offset="0.729" stop-color="#849C10"/>
<stop offset="0.822" stop-color="#91AD0D"/>
<stop offset="0.902" stop-color="#A2C309"/>
<stop offset="0.972" stop-color="#B7DD05"/>
<stop offset="1" stop-color="#C2EB03"/>
</radialGradient>
<radialGradient id="paint8_radial_5850_31941" cx="0" cy="0" r="1" gradientUnits="userSpaceOnUse" gradientTransform="translate(31.9984 116) scale(5.95936)">
<stop stop-color="#748814"/>
<stop offset="0.451" stop-color="#758913"/>
<stop offset="0.613" stop-color="#7A9012"/>
<stop offset="0.729" stop-color="#849C10"/>
<stop offset="0.822" stop-color="#91AD0D"/>
<stop offset="0.902" stop-color="#A2C309"/>
<stop offset="0.972" stop-color="#B7DD05"/>
<stop offset="1" stop-color="#C2EB03"/>
</radialGradient>
<radialGradient id="paint9_radial_5850_31941" cx="0" cy="0" r="1" gradientUnits="userSpaceOnUse" gradientTransform="translate(73.9984 158) scale(5.95936)">
<stop stop-color="#748814"/>
<stop offset="0.451" stop-color="#758913"/>
<stop offset="0.613" stop-color="#7A9012"/>
<stop offset="0.729" stop-color="#849C10"/>
<stop offset="0.822" stop-color="#91AD0D"/>
<stop offset="0.902" stop-color="#A2C309"/>
<stop offset="0.972" stop-color="#B7DD05"/>
<stop offset="1" stop-color="#C2EB03"/>
</radialGradient>
<radialGradient id="paint10_radial_5850_31941" cx="0" cy="0" r="1" gradientUnits="userSpaceOnUse" gradientTransform="translate(115.998 158) scale(5.95936)">
<stop stop-color="#748814"/>
<stop offset="0.451" stop-color="#758913"/>
<stop offset="0.613" stop-color="#7A9012"/>
<stop offset="0.729" stop-color="#849C10"/>
<stop offset="0.822" stop-color="#91AD0D"/>
<stop offset="0.902" stop-color="#A2C309"/>
<stop offset="0.972" stop-color="#B7DD05"/>
<stop offset="1" stop-color="#C2EB03"/>
</radialGradient>
<radialGradient id="paint11_radial_5850_31941" cx="0" cy="0" r="1" gradientUnits="userSpaceOnUse" gradientTransform="translate(115.998 116) scale(5.95936)">
<stop stop-color="#748814"/>
<stop offset="0.451" stop-color="#758913"/>
<stop offset="0.613" stop-color="#7A9012"/>
<stop offset="0.729" stop-color="#849C10"/>
<stop offset="0.822" stop-color="#91AD0D"/>
<stop offset="0.902" stop-color="#A2C309"/>
<stop offset="0.972" stop-color="#B7DD05"/>
<stop offset="1" stop-color="#C2EB03"/>
</radialGradient>
<radialGradient id="paint12_radial_5850_31941" cx="0" cy="0" r="1" gradientUnits="userSpaceOnUse" gradientTransform="translate(157.998 158) scale(5.95936)">
<stop stop-color="#748814"/>
<stop offset="0.451" stop-color="#758913"/>
<stop offset="0.613" stop-color="#7A9012"/>
<stop offset="0.729" stop-color="#849C10"/>
<stop offset="0.822" stop-color="#91AD0D"/>
<stop offset="0.902" stop-color="#A2C309"/>
<stop offset="0.972" stop-color="#B7DD05"/>
<stop offset="1" stop-color="#C2EB03"/>
</radialGradient>
<radialGradient id="paint13_radial_5850_31941" cx="0" cy="0" r="1" gradientUnits="userSpaceOnUse" gradientTransform="translate(136.998 52.9999) scale(5.95936)">
<stop stop-color="#748814"/>
<stop offset="0.451" stop-color="#758913"/>
<stop offset="0.613" stop-color="#7A9012"/>
<stop offset="0.729" stop-color="#849C10"/>
<stop offset="0.822" stop-color="#91AD0D"/>
<stop offset="0.902" stop-color="#A2C309"/>
<stop offset="0.972" stop-color="#B7DD05"/>
<stop offset="1" stop-color="#C2EB03"/>
</radialGradient>
<radialGradient id="paint14_radial_5850_31941" cx="0" cy="0" r="1" gradientUnits="userSpaceOnUse" gradientTransform="translate(115.998 31.9999) scale(5.95936)">
<stop stop-color="#748814"/>
<stop offset="0.451" stop-color="#758913"/>
<stop offset="0.613" stop-color="#7A9012"/>
<stop offset="0.729" stop-color="#849C10"/>
<stop offset="0.822" stop-color="#91AD0D"/>
<stop offset="0.902" stop-color="#A2C309"/>
<stop offset="0.972" stop-color="#B7DD05"/>
<stop offset="1" stop-color="#C2EB03"/>
</radialGradient>
<radialGradient id="paint15_radial_5850_31941" cx="0" cy="0" r="1" gradientUnits="userSpaceOnUse" gradientTransform="translate(94.9984 10.9999) scale(5.95936)">
<stop stop-color="#748814"/>
<stop offset="0.451" stop-color="#758913"/>
<stop offset="0.613" stop-color="#7A9012"/>
<stop offset="0.729" stop-color="#849C10"/>
<stop offset="0.822" stop-color="#91AD0D"/>
<stop offset="0.902" stop-color="#A2C309"/>
<stop offset="0.972" stop-color="#B7DD05"/>
<stop offset="1" stop-color="#C2EB03"/>
</radialGradient>
<radialGradient id="paint16_radial_5850_31941" cx="0" cy="0" r="1" gradientUnits="userSpaceOnUse" gradientTransform="translate(31.9984 158) scale(5.95936)">
<stop stop-color="#40919C"/>
<stop offset="0.472" stop-color="#40929D"/>
<stop offset="0.641" stop-color="#4198A4"/>
<stop offset="0.762" stop-color="#44A3B0"/>
<stop offset="0.86" stop-color="#48B3C1"/>
<stop offset="0.943" stop-color="#4DC6D7"/>
<stop offset="1" stop-color="#52D9EB"/>
</radialGradient>
</defs>
</svg>
