<svg width="179" height="179" viewBox="0 0 179 179" fill="none" xmlns="http://www.w3.org/2000/svg">
<line x1="0.5" y1="2.18557e-08" x2="0.499992" y2="177.314" stroke="#F9F8F4"/>
<line x1="35.9609" y1="2.18557e-08" x2="35.9609" y2="177.314" stroke="#F9F8F4"/>
<line x1="71.4258" y1="2.18557e-08" x2="71.4258" y2="177.314" stroke="#F9F8F4"/>
<line x1="106.889" y1="2.18557e-08" x2="106.889" y2="177.314" stroke="#F9F8F4"/>
<line x1="142.354" y1="2.18557e-08" x2="142.354" y2="177.314" stroke="#F9F8F4"/>
<line x1="177.816" y1="2.18557e-08" x2="177.816" y2="177.314" stroke="#F9F8F4"/>
<line x1="177.314" y1="0.5" x2="4.57327e-05" y2="0.499985" stroke="#F9F8F4"/>
<line x1="177.314" y1="35.9629" x2="4.57327e-05" y2="35.9629" stroke="#F9F8F4"/>
<line x1="177.314" y1="71.4257" x2="4.57327e-05" y2="71.4257" stroke="#F9F8F4"/>
<line x1="177.314" y1="106.889" x2="4.57327e-05" y2="106.889" stroke="#F9F8F4"/>
<line x1="177.314" y1="142.352" x2="4.57327e-05" y2="142.351" stroke="#F9F8F4"/>
<line x1="177.314" y1="177.815" x2="4.57327e-05" y2="177.814" stroke="#F9F8F4"/>
<circle cx="17.0663" cy="17.5099" r="6.42765" fill="#FF5B23"/>
<circle cx="55.6327" cy="17.5099" r="6.42765" fill="#FF5B23"/>
<circle cx="88.4355" cy="17.5099" r="6.42765" fill="#FF5B23"/>
<circle cx="124.787" cy="123.898" r="6.42765" fill="#FF5B23"/>
<circle cx="159.361" cy="123.898" r="6.42765" fill="#FF5B23"/>
<circle cx="159.361" cy="88.8788" r="6.42765" fill="#FF5B23"/>
<circle cx="124.787" cy="17.5099" r="5.92765" stroke="#F9F8F4"/>
<circle cx="124.787" cy="53.8593" r="5.92765" stroke="#F9F8F4"/>
<circle cx="124.787" cy="88.8788" r="5.92765" stroke="#F9F8F4"/>
<circle cx="88.4355" cy="88.8789" r="5.92765" stroke="#F9F8F4"/>
<circle cx="88.4355" cy="123.898" r="5.92765" stroke="#F9F8F4"/>
<circle cx="88.4355" cy="158.918" r="5.92765" stroke="#F9F8F4"/>
</svg>
