<svg width="329" height="206" viewBox="0 0 329 206" fill="none" xmlns="http://www.w3.org/2000/svg">
<rect x="0.5" y="0.5" width="328" height="205" rx="4.5" stroke="#F9F8F4"/>
<line x1="72.5" y1="15.5234" x2="72.5" y2="192.838" stroke="#F9F8F4"/>
<line x1="107.961" y1="15.5234" x2="107.961" y2="192.838" stroke="#F9F8F4"/>
<line x1="143.426" y1="15.5234" x2="143.426" y2="192.838" stroke="#F9F8F4"/>
<line x1="178.889" y1="15.5234" x2="178.889" y2="192.838" stroke="#F9F8F4"/>
<line x1="214.352" y1="15.5234" x2="214.352" y2="192.838" stroke="#F9F8F4"/>
<line x1="249.815" y1="15.5234" x2="249.815" y2="192.838" stroke="#F9F8F4"/>
<line x1="249.314" y1="16.0234" x2="72" y2="16.0234" stroke="#F9F8F4"/>
<line x1="249.314" y1="51.4863" x2="72" y2="51.4863" stroke="#F9F8F4"/>
<line x1="249.314" y1="86.9492" x2="72" y2="86.9491" stroke="#F9F8F4"/>
<line x1="249.314" y1="122.412" x2="72" y2="122.412" stroke="#F9F8F4"/>
<line x1="249.314" y1="157.875" x2="72" y2="157.875" stroke="#F9F8F4"/>
<line x1="249.314" y1="193.338" x2="72" y2="193.338" stroke="#F9F8F4"/>
<circle cx="89.0663" cy="33.0333" r="6.42765" fill="#97FF00"/>
<circle cx="127.633" cy="33.0333" r="6.42765" fill="#97FF00"/>
<circle cx="160.435" cy="33.0333" r="6.42765" fill="#97FF00"/>
<circle cx="196.787" cy="139.422" r="6.42765" fill="#97FF00"/>
<circle cx="231.361" cy="139.422" r="6.42765" fill="#97FF00"/>
<circle cx="231.361" cy="104.402" r="6.42765" fill="#97FF00"/>
<circle cx="196.787" cy="33.0334" r="5.92765" stroke="#F9F8F4"/>
<circle cx="196.787" cy="69.3827" r="5.92765" stroke="#F9F8F4"/>
<circle cx="196.787" cy="104.402" r="5.92765" stroke="#F9F8F4"/>
<circle cx="160.435" cy="104.402" r="5.92765" stroke="#F9F8F4"/>
<circle cx="160.435" cy="139.422" r="5.92765" stroke="#F9F8F4"/>
<circle cx="160.435" cy="174.441" r="5.92765" stroke="#F9F8F4"/>
</svg>
