<svg width="400" height="300" viewBox="0 0 400 300" fill="none" xmlns="http://www.w3.org/2000/svg">
<line x1="98.4998" y1="48" x2="98.4997" y2="251.314" stroke="#F9F8F4"/>
<line x1="139.16" y1="48" x2="139.16" y2="251.314" stroke="#F9F8F4"/>
<line x1="179.826" y1="48" x2="179.826" y2="251.314" stroke="#F9F8F4"/>
<line x1="220.486" y1="48" x2="220.486" y2="251.314" stroke="#F9F8F4"/>
<line x1="261.156" y1="48" x2="261.156" y2="251.314" stroke="#F9F8F4"/>
<line x1="301.817" y1="48" x2="301.817" y2="251.314" stroke="#F9F8F4"/>
<line x1="301.316" y1="48.5" x2="98.002" y2="48.5" stroke="#F9F8F4"/>
<line x1="301.317" y1="89.1631" x2="98.0021" y2="89.1631" stroke="#F9F8F4"/>
<line x1="301.317" y1="129.826" x2="98.0021" y2="129.826" stroke="#F9F8F4"/>
<line x1="301.317" y1="170.488" x2="98.0021" y2="170.488" stroke="#F9F8F4"/>
<line x1="301.317" y1="211.151" x2="98.0021" y2="211.151" stroke="#F9F8F4"/>
<line x1="301.317" y1="251.814" x2="98.0021" y2="251.814" stroke="#F9F8F4"/>
<circle cx="117.571" cy="68.0772" r="7.37015" fill="#FF5B23"/>
<circle cx="161.792" cy="68.0772" r="7.37015" fill="#FF5B23"/>
<circle cx="199.403" cy="68.0772" r="7.37015" fill="#FF5B23"/>
<circle cx="241.085" cy="190.065" r="7.37015" fill="#FF5B23"/>
<circle cx="280.729" cy="190.065" r="7.37015" fill="#FF5B23"/>
<circle cx="280.729" cy="149.911" r="7.37015" fill="#FF5B23"/>
<circle cx="241.085" cy="68.0772" r="6.87015" stroke="#F9F8F4"/>
<circle cx="241.085" cy="109.757" r="6.87015" stroke="#F9F8F4"/>
<circle cx="241.085" cy="149.911" r="6.87015" stroke="#F9F8F4"/>
<circle cx="199.403" cy="149.911" r="6.87015" stroke="#F9F8F4"/>
<circle cx="199.403" cy="190.065" r="6.87015" stroke="#F9F8F4"/>
<circle cx="199.403" cy="230.221" r="6.87015" stroke="#F9F8F4"/>
</svg>
