<svg width="329" height="207" viewBox="0 0 329 207" fill="none" xmlns="http://www.w3.org/2000/svg">
<rect x="0.5" y="1.02344" width="328" height="205" rx="4.5" stroke="#F9F8F4"/>
<path d="M83.176 101.955C83.176 99.4754 84 97.4114 85.648 95.7634C87.296 94.1154 89.36 93.2914 91.84 93.2914C93.104 93.2914 94.424 93.5234 95.8 93.9874C96.536 94.2274 97.136 94.5874 97.6 95.0674C98.064 95.5314 98.296 96.0594 98.296 96.6514V98.7154H96.064V97.3954C96.064 96.9154 95.816 96.5234 95.32 96.2194C94.472 95.6434 93.344 95.3554 91.936 95.3554C90.096 95.3554 88.592 95.9634 87.424 97.1794C86.24 98.4114 85.648 99.9714 85.648 101.859C85.648 103.875 86.256 105.523 87.472 106.803C88.704 108.083 90.24 108.723 92.08 108.723C92.592 108.723 93.144 108.675 93.736 108.579C94.328 108.467 94.904 108.251 95.464 107.931C96.024 107.611 96.304 107.211 96.304 106.731V105.411H98.536V107.475C98.536 108.051 98.312 108.571 97.864 109.035C97.416 109.499 96.824 109.851 96.088 110.091C94.664 110.571 93.28 110.811 91.936 110.811C89.392 110.811 87.296 109.963 85.648 108.267C84 106.571 83.176 104.467 83.176 101.955ZM107.371 110.811C105.531 110.811 103.979 110.203 102.715 108.987C101.451 107.771 100.819 106.251 100.819 104.427C100.819 102.603 101.451 101.091 102.715 99.8914C103.979 98.6914 105.531 98.0914 107.371 98.0914C109.211 98.0914 110.763 98.6914 112.027 99.8914C113.291 101.091 113.923 102.603 113.923 104.427C113.923 106.235 113.283 107.755 112.003 108.987C110.739 110.203 109.195 110.811 107.371 110.811ZM103.195 104.427C103.195 105.675 103.595 106.723 104.395 107.571C105.211 108.387 106.203 108.795 107.371 108.795C108.523 108.795 109.507 108.379 110.323 107.547C111.139 106.715 111.547 105.675 111.547 104.427C111.547 103.179 111.139 102.147 110.323 101.331C109.507 100.515 108.523 100.107 107.371 100.107C106.203 100.107 105.211 100.515 104.395 101.331C103.595 102.163 103.195 103.195 103.195 104.427ZM122.085 110.523H115.941V108.723H117.837V100.683C117.837 100.347 117.661 100.179 117.309 100.179H115.821V98.3794H118.557C119.581 98.3794 120.093 98.8274 120.093 99.7234V100.347L120.021 101.043H120.069C120.373 100.291 120.941 99.6114 121.773 99.0034C122.605 98.3954 123.477 98.0914 124.389 98.0914C126.341 98.0914 127.525 99.0434 127.941 100.947H127.989C128.341 100.131 128.917 99.4514 129.717 98.9074C130.517 98.3634 131.389 98.0914 132.333 98.0914C134.973 98.0914 136.293 99.6434 136.293 102.747V108.723H138.213V110.523H133.965V103.251C133.965 102.227 133.805 101.467 133.485 100.971C133.181 100.459 132.629 100.203 131.829 100.203C130.741 100.203 129.869 100.675 129.213 101.619C128.573 102.547 128.253 103.651 128.253 104.931V108.723H130.149V110.523H125.925V103.251C125.925 102.211 125.773 101.443 125.469 100.947C125.165 100.451 124.613 100.203 123.813 100.203C122.725 100.203 121.845 100.691 121.173 101.667C120.501 102.643 120.165 103.763 120.165 105.027V108.723H122.085V110.523ZM144.237 95.9554H141.789V93.5794H144.237V95.9554ZM146.085 110.523H139.941V108.723H141.837V100.179H139.821V98.3794H144.165V108.723H146.085V110.523ZM154.148 110.523H148.004V108.723H149.9V100.707C149.9 100.355 149.724 100.179 149.372 100.179H147.884V98.3794H150.62C151.644 98.3794 152.156 98.8274 152.156 99.7234V100.347L152.084 101.043H152.132C152.34 100.547 152.764 99.9794 153.404 99.3394C154.3 98.5074 155.452 98.0914 156.86 98.0914C158.236 98.0914 159.252 98.4754 159.908 99.2434C160.564 99.9954 160.892 101.163 160.892 102.747V108.723H162.812V110.523H158.564V103.275C158.564 102.235 158.396 101.467 158.06 100.971C157.74 100.475 157.148 100.227 156.284 100.227C155.1 100.227 154.124 100.691 153.356 101.619C152.604 102.547 152.228 103.635 152.228 104.883V108.723H154.148V110.523ZM165.534 114.555L166.302 112.779C167.294 113.323 168.406 113.595 169.638 113.595C170.822 113.595 171.758 113.307 172.446 112.731C173.134 112.155 173.478 111.291 173.478 110.139V109.179L173.55 108.411H173.502C172.718 109.723 171.502 110.379 169.854 110.379C168.19 110.379 166.87 109.795 165.894 108.627C164.918 107.459 164.43 105.971 164.43 104.163C164.43 102.387 164.902 100.931 165.846 99.7954C166.806 98.6594 168.11 98.0914 169.758 98.0914C170.638 98.0914 171.43 98.2674 172.134 98.6194C172.854 98.9554 173.374 99.4434 173.694 100.083H173.742C173.71 99.9234 173.694 99.7634 173.694 99.6034C173.694 98.7874 174.158 98.3794 175.086 98.3794H177.678V100.179H176.334C175.982 100.179 175.806 100.339 175.806 100.659V110.019C175.806 110.979 175.63 111.827 175.278 112.563C174.942 113.299 174.478 113.875 173.886 114.291C173.294 114.723 172.646 115.043 171.942 115.251C171.238 115.459 170.486 115.563 169.686 115.563C168.262 115.563 166.878 115.227 165.534 114.555ZM170.31 108.363C171.302 108.363 172.086 108.027 172.662 107.355C173.238 106.667 173.526 105.611 173.526 104.187C173.526 101.467 172.382 100.107 170.094 100.107C169.054 100.107 168.246 100.467 167.67 101.187C167.094 101.891 166.806 102.867 166.806 104.115C166.806 105.395 167.118 106.427 167.742 107.211C168.382 107.979 169.238 108.363 170.31 108.363ZM185.382 107.907V106.611H187.422V107.403C187.422 107.867 187.694 108.235 188.238 108.507C188.782 108.779 189.438 108.915 190.206 108.915C190.926 108.915 191.51 108.779 191.958 108.507C192.422 108.219 192.654 107.835 192.654 107.355C192.654 106.859 192.462 106.483 192.078 106.227C191.71 105.955 191.006 105.635 189.966 105.267L189.63 105.147C188.67 104.811 187.822 104.395 187.086 103.899C186.254 103.323 185.838 102.507 185.838 101.451C185.838 100.347 186.286 99.5154 187.182 98.9554C188.062 98.3794 189.11 98.0914 190.326 98.0914C191.318 98.0914 192.27 98.2994 193.182 98.7154C194.078 99.1314 194.526 99.7394 194.526 100.539V102.003H192.486V101.211C192.486 100.843 192.278 100.547 191.862 100.323C191.446 100.083 190.942 99.9634 190.35 99.9634C189.726 99.9634 189.206 100.099 188.79 100.371C188.39 100.627 188.19 100.979 188.19 101.427C188.19 101.955 188.478 102.395 189.054 102.747C189.55 103.035 190.198 103.307 190.998 103.563C192.086 103.915 192.974 104.315 193.662 104.763C194.558 105.339 195.006 106.163 195.006 107.235C195.006 108.339 194.55 109.219 193.638 109.875C192.726 110.499 191.558 110.811 190.134 110.811C188.934 110.811 187.838 110.555 186.846 110.043C185.87 109.515 185.382 108.803 185.382 107.907ZM203.489 110.811C201.649 110.811 200.097 110.203 198.833 108.987C197.569 107.771 196.937 106.251 196.937 104.427C196.937 102.603 197.569 101.091 198.833 99.8914C200.097 98.6914 201.649 98.0914 203.489 98.0914C205.329 98.0914 206.881 98.6914 208.145 99.8914C209.409 101.091 210.041 102.603 210.041 104.427C210.041 106.235 209.401 107.755 208.121 108.987C206.857 110.203 205.313 110.811 203.489 110.811ZM199.313 104.427C199.313 105.675 199.713 106.723 200.513 107.571C201.329 108.387 202.321 108.795 203.489 108.795C204.641 108.795 205.625 108.379 206.441 107.547C207.257 106.715 207.665 105.675 207.665 104.427C207.665 103.179 207.257 102.147 206.441 101.331C205.625 100.515 204.641 100.107 203.489 100.107C202.321 100.107 201.329 100.515 200.513 101.331C199.713 102.163 199.313 103.195 199.313 104.427ZM218.512 110.811C216.672 110.811 215.12 110.203 213.856 108.987C212.592 107.771 211.96 106.251 211.96 104.427C211.96 102.603 212.592 101.091 213.856 99.8914C215.12 98.6914 216.672 98.0914 218.512 98.0914C220.352 98.0914 221.904 98.6914 223.168 99.8914C224.432 101.091 225.064 102.603 225.064 104.427C225.064 106.235 224.424 107.755 223.144 108.987C221.88 110.203 220.336 110.811 218.512 110.811ZM214.336 104.427C214.336 105.675 214.736 106.723 215.536 107.571C216.352 108.387 217.344 108.795 218.512 108.795C219.664 108.795 220.648 108.379 221.464 107.547C222.28 106.715 222.688 105.675 222.688 104.427C222.688 103.179 222.28 102.147 221.464 101.331C220.648 100.515 219.664 100.107 218.512 100.107C217.344 100.107 216.352 100.515 215.536 101.331C214.736 102.163 214.336 103.195 214.336 104.427ZM233.226 110.523H227.082V108.723H228.978V100.707C228.978 100.355 228.802 100.179 228.45 100.179H226.962V98.3794H229.698C230.722 98.3794 231.234 98.8274 231.234 99.7234V100.347L231.162 101.043H231.21C231.418 100.547 231.842 99.9794 232.482 99.3394C233.378 98.5074 234.53 98.0914 235.938 98.0914C237.314 98.0914 238.33 98.4754 238.986 99.2434C239.642 99.9954 239.97 101.163 239.97 102.747V108.723H241.89V110.523H237.642V103.275C237.642 102.235 237.474 101.467 237.138 100.971C236.818 100.475 236.226 100.227 235.362 100.227C234.178 100.227 233.202 100.691 232.434 101.619C231.682 102.547 231.306 103.635 231.306 104.883V108.723H233.226V110.523Z" fill="url(#paint0_linear_2444_1777)"/>
<defs>
<linearGradient id="paint0_linear_2444_1777" x1="88.1104" y1="103.523" x2="252.069" y2="108.19" gradientUnits="userSpaceOnUse">
<stop stop-color="#D2FF00"/>
<stop offset="1" stop-color="#56EBFF"/>
</linearGradient>
</defs>
</svg>
