<svg width="400" height="300" viewBox="0 0 400 300" fill="none" xmlns="http://www.w3.org/2000/svg">
<path d="M115.469 214.566H48.3953L63.2472 148.461H100.617L115.469 214.566Z" fill="#252525"/>
<path d="M115.469 214.566H48.3953L63.2472 148.461H100.617L115.469 214.566Z" stroke="#DCB8FF" stroke-width="0.388535" stroke-miterlimit="10"/>
<mask id="mask0_8939_53743" style="mask-type:luminance" maskUnits="userSpaceOnUse" x="48" y="148" width="68" height="67">
<path d="M115.466 214.566H48.3931L63.245 148.461H100.615L115.466 214.566Z" fill="white"/>
</mask>
<g mask="url(#mask0_8939_53743)">
<g opacity="0.3">
<path d="M60.8472 146.065C60.9629 156.819 66.932 166.61 76.1782 170.496C87.5883 175.29 102.094 170.262 109.236 158.52C113.118 177.586 116.852 196.936 120.734 216.003C92.3077 216.044 63.8816 215.961 35.4551 216.003C43.8872 192.69 52.4154 169.378 60.8472 146.065Z" fill="#DCB8FF"/>
</g>
<path d="M53.661 152.772C57.5706 153.003 55.9345 169.277 68.9921 182.471C80.9275 194.531 97.9056 196.506 102.05 196.842C110.063 197.492 116.374 196.092 120.734 194.926C121.652 202.252 122.692 209.635 123.609 216.961H36.4136C44.8842 165.639 50.1287 152.563 53.661 152.772Z" fill="#DCB8FF"/>
<g opacity="0.3">
<path d="M69.9496 144.149L55.0977 225.104L66.596 224.625L73.3033 143.191L69.9496 144.149Z" fill="white"/>
</g>
<g opacity="0.5">
<path d="M65.1592 148.939L49.8281 216.961H54.6191L65.6383 149.897L65.1592 148.939Z" fill="white"/>
</g>
</g>
<path d="M82.1725 151.336C92.4918 151.336 100.615 150.049 100.615 148.461C100.615 146.874 92.4918 145.587 82.1725 145.587C71.8532 145.587 63.2451 146.874 63.2451 148.461C63.2451 150.049 71.8532 151.336 82.1725 151.336Z" fill="#DCB8FF" stroke="#DCB8FF" stroke-width="0.388535" stroke-miterlimit="10"/>
<path d="M121.698 214.566C121.698 218.004 118.934 220.793 115.47 220.793C115.233 220.793 114.741 220.819 114.512 220.793H49.3547C49.1252 220.819 48.6334 220.793 48.3965 220.793C44.9363 220.793 42.1682 218.004 42.1682 214.566C42.1682 211.3 44.7017 208.6 47.9174 208.339C48.0904 208.324 48.2197 208.339 48.3965 208.339H115.47C118.934 208.339 121.698 211.124 121.698 214.566Z" fill="#252525"/>
<path d="M121.698 214.566C121.698 218.004 118.934 220.793 115.47 220.793C115.233 220.793 114.741 220.819 114.512 220.793H49.3547C49.1252 220.819 48.6334 220.793 48.3965 220.793C44.9363 220.793 42.1682 218.004 42.1682 214.566C42.1682 211.3 44.7017 208.6 47.9174 208.339C48.0904 208.324 48.2197 208.339 48.3965 208.339H115.47C118.934 208.339 121.698 211.124 121.698 214.566Z" stroke="#DCB8FF" stroke-width="0.388535" stroke-miterlimit="10"/>
<path d="M346.875 183.739H279.802L294.653 117.634H332.023L346.875 183.739Z" fill="#252525"/>
<path d="M346.875 183.739H279.802L294.653 117.634H332.023L346.875 183.739Z" stroke="#DCB8FF" stroke-width="0.388535" stroke-miterlimit="10"/>
<mask id="mask1_8939_53743" style="mask-type:luminance" maskUnits="userSpaceOnUse" x="279" y="117" width="68" height="67">
<path d="M346.879 183.739H279.805L294.657 117.634H332.027L346.879 183.739Z" fill="white"/>
</mask>
<g mask="url(#mask1_8939_53743)">
<g opacity="0.3">
<path d="M292.259 115.238C292.375 125.992 298.344 135.783 307.59 139.668C319 144.463 333.506 139.434 340.648 127.693C344.53 146.759 348.264 166.109 352.146 185.175C323.72 185.217 295.294 185.134 266.867 185.175C275.299 161.863 283.828 138.551 292.259 115.238Z" fill="#DCB8FF"/>
</g>
<path d="M285.073 121.945C288.983 122.176 287.347 138.45 300.404 151.644C312.34 163.704 329.318 165.678 333.462 166.015C341.475 166.665 347.786 165.265 352.147 164.099C353.064 171.425 354.104 178.807 355.021 186.134H267.826C276.296 134.812 281.541 121.736 285.073 121.945Z" fill="#DCB8FF"/>
<g opacity="0.3">
<path d="M301.362 113.322L286.51 194.277L298.008 193.798L304.715 112.364L301.362 113.322Z" fill="white"/>
</g>
<g opacity="0.5">
<path d="M296.571 118.112L281.24 186.133H286.031L297.05 119.07L296.571 118.112Z" fill="white"/>
</g>
</g>
<path d="M313.579 120.509C323.898 120.509 332.021 119.222 332.021 117.634C332.021 116.047 323.898 114.76 313.579 114.76C303.26 114.76 294.652 116.047 294.652 117.634C294.652 119.222 303.26 120.509 313.579 120.509Z" fill="#DCB8FF" stroke="#DCB8FF" stroke-width="0.388535" stroke-miterlimit="10"/>
<path d="M353.101 183.739C353.101 187.177 350.337 189.966 346.873 189.966C346.636 189.966 346.144 189.992 345.915 189.966H280.758C280.529 189.992 280.037 189.966 279.8 189.966C276.34 189.966 273.572 187.177 273.572 183.739C273.572 180.473 276.105 177.773 279.321 177.512C279.494 177.497 279.623 177.512 279.8 177.512H346.873C350.337 177.512 353.101 180.297 353.101 183.739Z" fill="#252525"/>
<path d="M353.101 183.739C353.101 187.177 350.337 189.966 346.873 189.966C346.636 189.966 346.144 189.992 345.915 189.966H280.758C280.529 189.992 280.037 189.966 279.8 189.966C276.34 189.966 273.572 187.177 273.572 183.739C273.572 180.473 276.105 177.773 279.321 177.512C279.494 177.497 279.623 177.512 279.8 177.512H346.873C350.337 177.512 353.101 180.297 353.101 183.739Z" stroke="#DCB8FF" stroke-width="0.388535" stroke-miterlimit="10"/>
<path d="M230.925 147.979H163.852L178.704 81.874H216.073L230.925 147.979Z" fill="#252525"/>
<path d="M230.925 147.979H163.852L178.704 81.874H216.073L230.925 147.979Z" stroke="#DCB8FF" stroke-width="0.388535" stroke-miterlimit="10"/>
<mask id="mask2_8939_53743" style="mask-type:luminance" maskUnits="userSpaceOnUse" x="163" y="81" width="68" height="67">
<path d="M230.925 147.979H163.852L178.704 81.874H216.073L230.925 147.979Z" fill="white"/>
</mask>
<g mask="url(#mask2_8939_53743)">
<g opacity="0.3">
<path d="M176.305 79.4785C176.421 90.2325 182.39 100.023 191.636 103.909C203.046 108.703 217.552 103.675 224.694 91.9331C228.576 110.999 232.31 130.349 236.192 149.416C207.766 149.457 179.34 149.374 150.913 149.416C159.345 126.103 167.873 102.791 176.305 79.4785Z" fill="#DCB8FF"/>
</g>
<path d="M169.119 86.1851C173.029 86.4158 171.393 102.69 184.45 115.884C196.386 127.945 213.364 129.919 217.508 130.255C225.521 130.905 231.832 129.505 236.192 128.339C237.11 135.665 238.15 143.048 239.067 150.374H151.872C160.342 99.0519 165.587 85.9764 169.119 86.1851Z" fill="#DCB8FF"/>
<g opacity="0.3">
<path d="M185.408 77.5625L170.556 158.517L182.054 158.038L188.761 76.6045L185.408 77.5625Z" fill="white"/>
</g>
<g opacity="0.5">
<path d="M180.617 82.3525L165.286 150.374H170.077L181.096 83.3106L180.617 82.3525Z" fill="white"/>
</g>
</g>
<path d="M197.629 84.7491C207.948 84.7491 216.071 83.4622 216.071 81.8746C216.071 80.287 207.948 79 197.629 79C187.31 79 178.702 80.287 178.702 81.8746C178.702 83.4622 187.31 84.7491 197.629 84.7491Z" fill="#DCB8FF" stroke="#DCB8FF" stroke-width="0.388535" stroke-miterlimit="10"/>
<path d="M237.154 147.979C237.154 151.417 234.389 154.206 230.925 154.206C230.689 154.206 230.197 154.232 229.967 154.206H164.81C164.581 154.232 164.089 154.206 163.852 154.206C160.392 154.206 157.624 151.417 157.624 147.979C157.624 144.713 160.157 142.013 163.373 141.752C163.546 141.737 163.675 141.752 163.852 141.752H230.925C234.389 141.752 237.154 144.538 237.154 147.979Z" fill="#252525"/>
<path d="M237.154 147.979C237.154 151.417 234.389 154.206 230.925 154.206C230.689 154.206 230.197 154.232 229.967 154.206H164.81C164.581 154.232 164.089 154.206 163.852 154.206C160.392 154.206 157.624 151.417 157.624 147.979C157.624 144.713 160.157 142.013 163.373 141.752C163.546 141.737 163.675 141.752 163.852 141.752H230.925C234.389 141.752 237.154 144.538 237.154 147.979Z" stroke="#DCB8FF" stroke-width="0.388535" stroke-miterlimit="10"/>
<path d="M198.149 196.142C204.618 196.142 209.863 190.898 209.863 184.428C209.863 177.959 204.618 172.714 198.149 172.714C191.679 172.714 186.435 177.959 186.435 184.428C186.435 190.898 191.679 196.142 198.149 196.142Z" fill="#252525" stroke="#DCB8FF" stroke-width="0.351852" stroke-miterlimit="10"/>
<mask id="mask3_8939_53743" style="mask-type:luminance" maskUnits="userSpaceOnUse" x="186" y="172" width="24" height="25">
<path d="M198.146 196.142C204.615 196.142 209.86 190.898 209.86 184.428C209.86 177.959 204.615 172.714 198.146 172.714C191.676 172.714 186.432 177.959 186.432 184.428C186.432 190.898 191.676 196.142 198.146 196.142Z" fill="white"/>
</mask>
<g mask="url(#mask3_8939_53743)">
<path d="M188.426 172.11C188.348 172.957 187.62 182.6 194.764 188.408C201.281 193.707 211.566 193.552 219.135 187.428C218.633 188.577 214.282 198.105 204.196 200.33C196.168 202.101 184.839 199.174 182.013 190.37C180.059 184.283 182.695 177.02 188.426 172.11H188.426Z" fill="#DCB8FF"/>
<path opacity="0.5" d="M194.918 167.508C194.641 168.304 190.862 179.661 196.728 186.522C202.892 193.731 218.271 194.298 229.663 183.127C220.419 200.29 204.366 209.801 190.164 207.121C181.028 205.398 168.454 197.836 168.66 187.428C168.848 177.963 179.569 167.897 194.918 167.508Z" fill="#DCB8FF"/>
</g>
<line x1="36" y1="220.305" x2="364" y2="220.305" stroke="white"/>
</svg>
