<svg width="311" height="248" viewBox="0 0 311 248" fill="none" xmlns="http://www.w3.org/2000/svg">
<circle cx="212.018" cy="98.5411" r="70" transform="rotate(36.2477 212.018 98.5411)" stroke="#F9F8F4"/>
<circle cx="198.419" cy="117.09" r="47" transform="rotate(36.2477 198.419 117.09)" stroke="#F9F8F4"/>
<circle cx="83.3925" cy="103.916" r="47" transform="rotate(36.2477 83.3925 103.916)" stroke="#F9F8F4"/>
<circle cx="203.739" cy="109.832" r="56" transform="rotate(36.2477 203.739 109.832)" stroke="#F9F8F4"/>
<circle cx="78.9727" cy="99.4961" r="56" transform="rotate(36.2477 78.9727 99.4961)" stroke="#F9F8F4"/>
<path d="M89.1243 78.4494L89.1244 78.4494C89.3173 78.332 89.5346 78.2604 89.7596 78.2402L89.7596 78.2402L96.8087 77.6088C97.4208 77.554 98.0023 77.8845 98.268 78.4377L98.8824 79.7166C99.2277 80.4356 98.9374 81.2992 98.2267 81.6639L98.2267 81.6639L74.8009 93.6873C74.278 93.9557 73.7154 93.8816 73.2924 93.5907C73.1513 93.4936 73.0515 93.3875 73.0168 93.3469L73.0165 93.3466C72.6649 92.9356 72.6546 92.4179 72.665 92.2035L73.025 88.9224C73.025 88.9224 73.025 88.9224 73.025 88.9224C73.0748 88.4682 73.3328 88.0628 73.7234 87.825L89.1243 78.4494Z" fill="#D2FF00" stroke="#252525"/>
<path d="M72.2033 92.0194C74.8852 90.2092 78.0346 88.341 81.661 86.6131C88.3933 83.4055 94.6466 81.6932 99.6645 80.7461C84.2544 91.9101 75.3301 96.3216 72.8909 93.9814C72.4447 93.5533 72.2156 92.8993 72.2033 92.0194Z" fill="#252525"/>
<path d="M221.325 85.5458L221.337 85.5521C221.728 85.7788 221.994 86.1729 222.057 86.6209L222.518 89.9037C222.681 91.0648 221.486 91.9425 220.426 91.4388L220.211 91.8904L220.426 91.4388L196.647 80.1443L196.647 80.1442C195.926 79.8018 195.609 78.9478 195.933 78.2184C195.933 78.2184 195.933 78.2184 195.933 78.2184L196.508 76.9211L196.508 76.9211C196.757 76.3598 197.328 76.0114 197.942 76.0473L197.942 76.0473L205.007 76.4608C205.007 76.4608 205.007 76.4608 205.007 76.4608C205.232 76.474 205.452 76.5388 205.648 76.6502L205.648 76.6502L221.325 85.5458Z" fill="#D2FF00" stroke="#252525"/>
<path d="M222.984 90.9019C223.175 90.4489 223.012 89.9206 222.593 89.6648C219.945 88.0514 216.642 86.4156 213.215 84.9102C206.388 81.9119 200.086 80.3936 195.042 79.6018C210.783 90.2848 219.508 94.4238 221.875 92.0093C222.148 91.7305 222.792 91.357 222.984 90.9019Z" fill="#252525"/>
<path d="M112.108 85.0106L112.108 85.0106L181.396 83.6003C182.199 83.5839 182.795 84.3609 182.563 85.1469L183.043 85.2882L182.563 85.147L171.471 122.82C171.172 123.837 170.249 124.534 169.201 124.542L126.466 124.871L126.47 125.371L126.466 124.871C125.457 124.878 124.55 124.245 124.205 123.285L111.011 86.6257C111.011 86.6257 111.011 86.6257 111.011 86.6257C110.73 85.8457 111.295 85.0271 112.108 85.0106Z" fill="#D2FF00" stroke="#252525"/>
<path d="M114.546 84.9438C135.597 84.5161 156.647 84.0884 177.697 83.6606C178.741 83.6394 179.504 84.6394 179.207 85.6403C175.836 97.0042 172.465 108.368 169.094 119.732C168.765 120.842 167.749 121.606 166.591 121.615C153.608 121.716 140.625 121.816 127.642 121.917C126.527 121.926 125.528 121.231 125.148 120.183C121.141 109.126 117.134 98.0685 113.127 87.011C112.767 86.018 113.49 84.9652 114.546 84.9438Z" fill="#252525"/>
<path d="M114.244 86.1732C114.003 85.5071 114.483 84.8003 115.19 84.7766L115.204 84.7763L178.355 83.4931C179.061 83.4788 179.576 84.1547 179.375 84.8306L179.834 84.9667L179.375 84.8306L169.262 118.922C168.996 119.821 168.173 120.44 167.235 120.448L128.285 120.749C127.382 120.756 126.573 120.194 126.266 119.346L125.796 119.516L126.266 119.346L114.244 86.1732C114.244 86.1732 114.244 86.1732 114.244 86.1732Z" fill="#F9F8F4" stroke="#252525"/>
<path d="M236.058 127.133C232.322 113.954 228.699 103.181 226.05 95.729C225.83 95.1111 225.437 94.5747 224.911 94.1817C223.644 93.2314 222.227 91.9941 221.04 91.2004C212.581 85.6401 205.509 81.7614 195.113 79.3049C194.407 79.1383 193.266 79.1855 192.586 79.4262C190.325 80.2272 187.752 80.8586 185.511 81.6658C184.605 81.9921 183.898 82.7132 183.583 83.6221C179.277 96.0997 175.899 108.768 171.605 121.248C171.047 122.87 169.846 124.21 168.13 124.236L147.531 124.555L127.593 124.862C126.335 124.882 125.2 124.112 124.753 122.936C119.92 110.208 115.087 97.4827 110.258 84.7544C109.915 83.8555 109.187 83.1567 108.272 82.8584C106.007 82.1208 103.417 81.5691 101.132 80.8383C100.445 80.6188 99.3032 80.6068 98.6022 80.7952C88.2855 83.5715 81.3344 87.6668 73.0474 93.4856C71.8856 94.3156 70.5069 95.596 69.2686 96.585C68.7551 96.994 68.3785 97.5423 68.1774 98.1668C65.7552 105.697 62.4593 116.577 59.1243 129.865C52.6808 155.539 51.7747 168.48 51.9032 174.36C52.1714 186.642 53.1057 198.381 63.2238 205.089C68.2978 208.453 77.2571 209.018 82.9711 205.77C85.7564 204.189 89.7872 199.05 92.3143 192.804C98.339 177.917 98.0135 176.186 100.497 168.349C100.811 167.358 101.424 164.39 102.719 163.055C104.05 161.683 106.593 160.121 109.611 161.962C115.886 165.79 125.039 166.32 131.977 159.858C132.61 159.269 133.44 158.951 134.302 158.928C138.649 158.801 143.333 158.847 148.051 158.896C152.766 158.702 157.452 158.84 161.801 158.832C162.662 158.828 163.497 158.792 164.147 159.361C171.278 165.606 180.411 164.794 186.567 160.774C189.528 158.841 192.116 160.323 193.488 161.653C194.824 162.947 195.526 165.896 195.87 166.876C198.589 174.633 198.316 176.373 204.789 191.067C207.504 197.233 211.688 202.244 214.52 203.739C220.33 206.809 229.268 205.967 234.238 202.448C244.148 195.431 244.727 183.668 244.623 171.384C244.573 165.503 243.276 152.596 236.058 127.133Z" fill="#D2FF00" stroke="#252525"/>
<path d="M229.299 204.615C224.533 206.047 218.699 205.885 214.532 203.684L214.532 203.684C213.161 202.96 211.433 201.365 209.702 199.166C207.975 196.972 206.261 194.195 204.912 191.132C200.34 180.751 199.142 176.855 197.868 172.713C197.34 170.997 196.8 169.239 196.001 166.959C195.942 166.791 195.872 166.565 195.789 166.292C195.753 166.176 195.715 166.052 195.674 165.92C195.538 165.484 195.375 164.977 195.18 164.46C194.793 163.434 194.267 162.328 193.557 161.639C192.851 160.955 191.823 160.222 190.578 159.913C189.324 159.601 187.865 159.725 186.325 160.73L186.462 160.939L186.325 160.73C180.244 164.701 171.238 165.496 164.207 159.339L164.207 159.338C163.516 158.734 162.64 158.741 161.847 158.746C161.796 158.747 161.745 158.747 161.695 158.747C160.391 158.75 159.054 158.739 157.694 158.728C154.531 158.702 151.242 158.676 147.942 158.812L147.895 158.811C145.739 158.789 143.588 158.767 141.472 158.764C138.977 158.756 136.534 158.774 134.189 158.843M229.299 204.615L106.256 154.418C104.887 156.733 104.497 159.295 104.526 161.536M229.299 204.615C224.268 201.382 221.976 198.243 220.862 195.253C220.291 193.719 220.034 192.234 219.87 190.815C219.804 190.236 219.753 189.675 219.703 189.127C219.63 188.317 219.56 187.536 219.444 186.765C218.937 183.396 218.928 180.54 218.919 177.885C218.916 177.076 218.914 176.286 218.897 175.506C218.826 172.163 218.5 168.972 216.832 165.17C214.503 159.863 210.192 156.622 206.179 154.655C202.174 152.693 198.485 152.01 197.409 151.811L197.403 151.81L229.299 204.615ZM134.189 158.843C134.189 158.843 134.19 158.843 134.19 158.843L134.196 159.093L134.189 158.843ZM134.189 158.843C133.271 158.868 132.381 159.208 131.701 159.84L131.701 159.84C124.86 166.212 115.834 165.696 109.636 161.914C107.69 160.727 105.918 160.896 104.526 161.536M104.526 161.536C104.527 161.628 104.529 161.719 104.531 161.809L106.041 154.291C104.617 156.698 104.233 159.359 104.278 161.657C104.359 161.615 104.442 161.574 104.526 161.536ZM166.579 155L166.548 155.248C162.51 154.751 160.64 153.872 158.511 152.764C158.376 152.694 158.24 152.623 158.103 152.551C156.091 151.499 153.717 150.258 148.982 148.936C141.836 146.942 132.677 145.705 124.532 146.282C116.367 146.86 109.316 149.252 106.256 154.418L166.579 155ZM166.579 155L166.548 155.248C173.659 156.122 178.305 154.682 182.702 153.319L182.722 153.312C187.113 151.951 191.247 150.675 197.403 151.81L166.579 155ZM131.872 160.023C124.933 166.485 115.781 165.956 109.505 162.128L131.872 160.023Z" fill="#252525" style="mix-blend-mode:screen"/>
<path d="M229.299 204.615C224.533 206.047 218.699 205.885 214.532 203.684L214.532 203.684C213.161 202.96 211.433 201.365 209.702 199.166C207.975 196.972 206.261 194.195 204.912 191.132C200.34 180.751 199.142 176.855 197.868 172.713C197.34 170.997 196.8 169.239 196.001 166.959C195.942 166.791 195.872 166.565 195.789 166.292C195.753 166.176 195.715 166.052 195.674 165.92C195.538 165.484 195.375 164.977 195.18 164.46C194.793 163.434 194.267 162.328 193.557 161.639C192.851 160.955 191.823 160.222 190.578 159.913C189.324 159.601 187.865 159.725 186.325 160.73L186.462 160.939L186.325 160.73C180.244 164.701 171.238 165.496 164.207 159.339L164.207 159.338C163.516 158.734 162.64 158.741 161.847 158.746C161.796 158.747 161.745 158.747 161.695 158.747C160.391 158.75 159.054 158.739 157.694 158.728C154.531 158.702 151.242 158.676 147.942 158.812L147.895 158.811C145.739 158.789 143.588 158.767 141.472 158.764C138.977 158.756 136.534 158.774 134.189 158.843M229.299 204.615L106.256 154.418C104.887 156.733 104.497 159.295 104.526 161.536M229.299 204.615C224.268 201.382 221.976 198.243 220.862 195.253C220.291 193.719 220.034 192.234 219.87 190.815C219.804 190.236 219.753 189.675 219.703 189.127C219.63 188.317 219.56 187.536 219.444 186.765C218.937 183.396 218.928 180.54 218.919 177.885C218.916 177.076 218.914 176.286 218.897 175.506C218.826 172.163 218.5 168.972 216.832 165.17C214.503 159.863 210.192 156.622 206.179 154.655C202.174 152.693 198.485 152.01 197.409 151.811L197.403 151.81L229.299 204.615ZM134.189 158.843C134.189 158.843 134.19 158.843 134.19 158.843L134.196 159.093L134.189 158.843ZM134.189 158.843C133.271 158.868 132.381 159.208 131.701 159.84L131.701 159.84C124.86 166.212 115.834 165.696 109.636 161.914C107.69 160.727 105.918 160.896 104.526 161.536M104.526 161.536C104.527 161.628 104.529 161.719 104.531 161.809L106.041 154.291C104.617 156.698 104.233 159.359 104.278 161.657C104.359 161.615 104.442 161.574 104.526 161.536ZM166.579 155L166.548 155.248C162.51 154.751 160.64 153.872 158.511 152.764C158.376 152.694 158.24 152.623 158.103 152.551C156.091 151.499 153.717 150.258 148.982 148.936C141.836 146.942 132.677 145.705 124.532 146.282C116.367 146.86 109.316 149.252 106.256 154.418L166.579 155ZM166.579 155L166.548 155.248C173.659 156.122 178.305 154.682 182.702 153.319L182.722 153.312C187.113 151.951 191.247 150.675 197.403 151.81L166.579 155ZM131.872 160.023C124.933 166.485 115.781 165.956 109.505 162.128L131.872 160.023Z" stroke="#D2FF00" stroke-width="0.5"/>
<g filter="url(#filter0_d_2473_199)">
<path d="M119.929 126.687C118.305 126.578 116.725 126.685 115.214 126.98C113.645 127.287 112.265 125.928 112.516 124.35C112.816 122.471 112.9 120.522 112.737 118.527C111.744 106.353 101.692 96.7068 89.4796 96.228C75.1296 95.6653 63.4821 107.475 64.1687 121.733C64.7739 134.301 75.0652 144.435 87.6483 144.847C91.2255 144.964 94.6288 144.308 97.7128 143.04C99.0855 142.476 100.574 143.457 100.591 144.94C100.591 144.962 100.592 144.983 100.592 145.005C100.743 154.989 108.964 162.958 118.954 162.804C129.377 162.643 137.608 153.701 136.702 143.135C135.945 134.321 128.761 127.278 119.929 126.687L119.929 126.687Z" fill="#252525"/>
</g>
<path d="M120.544 126.519L120.597 126.522C129.158 127.121 136.118 133.961 136.852 142.511C137.733 152.785 129.73 161.48 119.594 161.636C109.88 161.786 101.887 154.038 101.74 144.33L101.74 144.298L101.739 144.267C101.718 142.428 99.8688 141.212 98.1708 141.91C95.1509 143.152 91.8178 143.795 88.3129 143.68C75.9901 143.277 65.909 133.349 65.3163 121.041C64.6438 107.076 76.0517 95.509 90.1082 96.0602C102.068 96.5292 111.914 105.978 112.887 117.901C113.046 119.855 112.964 121.764 112.671 123.604C112.366 125.518 114.04 127.178 115.958 126.804C117.427 126.517 118.963 126.413 120.544 126.519Z" fill="#D2FF00" stroke="#252525"/>
<g filter="url(#filter1_d_2473_199)">
<path d="M133.483 144.729C133.358 136.467 126.631 129.872 118.458 129.998C110.284 130.124 103.76 136.924 103.885 145.186C104.01 153.447 110.737 160.042 118.911 159.916C127.084 159.79 133.609 152.99 133.483 144.729Z" fill="#252525"/>
</g>
<path d="M119.114 129.83C127.006 129.709 133.511 136.079 133.631 144.07C133.752 152.06 127.442 158.627 119.55 158.749C111.657 158.87 105.153 152.5 105.032 144.509C104.912 136.519 111.222 129.952 119.114 129.83Z" fill="#D2FF00" stroke="#252525"/>
<g filter="url(#filter2_d_2473_199)">
<path d="M130.413 144.251C130.32 138.142 125.346 133.265 119.302 133.358C113.257 133.452 108.433 138.48 108.525 144.589C108.618 150.699 113.593 155.576 119.637 155.482C125.681 155.389 130.505 150.36 130.413 144.251Z" fill="#252525"/>
</g>
<path d="M119.112 129.768C125.495 129.669 130.757 134.821 130.855 141.286C130.953 147.751 125.848 153.063 119.465 153.161C113.082 153.259 107.82 148.108 107.722 141.643C107.624 135.177 112.729 129.866 119.112 129.768Z" fill="#D2FF00" stroke="#252525"/>
<path d="M129.169 138.81C129.084 133.273 124.576 128.854 119.098 128.939C113.621 129.024 109.249 133.581 109.333 139.117C109.417 144.654 113.926 149.073 119.403 148.988C124.881 148.904 129.253 144.346 129.169 138.81Z" fill="#F9F8F4"/>
<path d="M119.106 129.439C124.302 129.358 128.589 133.552 128.669 138.817C128.749 144.083 124.592 148.408 119.396 148.489C114.199 148.569 109.913 144.375 109.833 139.11C109.753 133.844 113.91 129.519 119.106 129.439Z" fill="#F9F8F4" stroke="#252525"/>
<path d="M173.662 125.858C175.282 125.699 176.864 125.757 178.383 126.005C179.961 126.263 181.299 124.863 181 123.293C180.644 121.424 180.501 119.478 180.603 117.48C181.228 105.28 190.983 95.3283 203.175 94.4726C217.501 93.467 229.501 104.912 229.246 119.184C229.022 131.765 219.042 142.212 206.477 143.012C202.905 143.24 199.483 142.69 196.363 141.517C194.973 140.995 193.515 142.022 193.543 143.505M173.662 125.858L173.661 125.858C164.852 126.721 157.884 133.983 157.395 142.816C156.808 153.405 165.306 162.088 175.73 161.927C185.72 161.773 193.696 153.554 193.544 143.57L193.543 143.505M173.662 125.858L173.791 126.341L173.791 126.341L173.751 126.351L173.741 126.352C175.307 126.201 176.835 126.259 178.303 126.499C180.231 126.813 181.854 125.103 181.491 123.199C181.142 121.369 181.003 119.464 181.103 117.505L181.103 117.505C181.714 105.558 191.27 95.8093 203.21 94.9713L203.175 94.4727L203.21 94.9713C217.243 93.9864 228.996 105.196 228.746 119.175C228.526 131.495 218.75 141.73 206.445 142.514C202.945 142.736 199.594 142.197 196.538 141.049C194.82 140.403 193.009 141.676 193.043 143.514M173.662 125.858L173.662 125.859L173.71 126.355L173.71 126.355C165.146 127.195 158.37 134.257 157.894 142.844C157.324 153.141 165.586 161.584 175.722 161.427C185.436 161.277 193.191 153.285 193.044 143.578L193.044 143.577L193.043 143.514M193.543 143.505L193.043 143.513L193.043 143.514M193.543 143.505L193.043 143.514" fill="#252525" stroke="#252525"/>
<path d="M174.412 125.682L174.944 125.63L174.815 125.147C176.259 125.045 177.67 125.115 179.031 125.337C180.609 125.595 181.947 124.195 181.647 122.625C181.291 120.756 181.149 118.811 181.251 116.812C181.875 104.613 191.63 94.6606 203.822 93.8049C218.149 92.7994 230.148 104.244 229.893 118.516C229.669 131.097 219.689 141.545 207.124 142.345C203.553 142.572 200.131 142.022 197.01 140.849C195.621 140.328 194.163 141.354 194.191 142.837M174.412 125.682C174.394 125.684 174.376 125.686 174.358 125.688L174.309 125.19L173.826 125.319L173.826 125.319L173.806 125.247C165.236 126.331 158.522 133.484 158.042 142.149C157.456 152.737 165.954 161.421 176.377 161.26C186.367 161.105 194.343 152.886 194.192 142.902L194.191 142.837M174.412 125.682L174.358 125.688C165.793 126.527 159.017 133.59 158.541 142.176C157.971 152.473 166.234 160.916 176.37 160.76C186.084 160.61 193.839 152.618 193.692 142.91L193.692 142.909L193.691 142.846M174.412 125.682C175.97 125.534 177.49 125.592 178.95 125.831C180.878 126.146 182.501 124.435 182.139 122.532C181.79 120.702 181.65 118.796 181.75 116.837L181.75 116.837C182.361 104.89 191.918 95.1416 203.857 94.3036C217.89 93.3187 229.643 104.528 229.394 118.507C229.174 130.828 219.398 141.062 207.093 141.846C203.593 142.069 200.242 141.529 197.186 140.381C195.467 139.736 193.656 141.009 193.691 142.846M194.191 142.837L193.691 142.845L193.691 142.846M194.191 142.837L193.691 142.846" fill="#D2FF00" stroke="#252525"/>
<path d="M184.697 138.002C184.643 134.435 181.654 131.589 178.022 131.645C174.389 131.701 171.488 134.639 171.542 138.206C171.597 141.773 174.585 144.619 178.218 144.562C181.851 144.506 184.752 141.569 184.697 138.002Z" stroke="#252525" stroke-miterlimit="10"/>
<path d="M176.343 129.276C184.235 129.154 190.74 135.524 190.861 143.514C190.981 151.505 184.672 158.072 176.78 158.194C168.888 158.316 162.383 151.946 162.262 143.956C162.141 135.965 168.45 129.398 176.343 129.276Z" fill="#D2FF00" stroke="#252525"/>
<path d="M176.856 132.64C182.619 132.551 187.372 137.202 187.46 143.04C187.549 148.879 182.94 153.675 177.177 153.764C171.414 153.854 166.662 149.203 166.573 143.364C166.484 137.526 171.093 132.73 176.856 132.64Z" fill="#252525" stroke="#252525"/>
<path d="M176.989 128.546C183.372 128.447 188.634 133.599 188.732 140.064C188.83 146.529 183.726 151.84 177.343 151.939C170.96 152.038 165.697 146.886 165.599 140.421C165.501 133.956 170.606 128.644 176.989 128.546Z" fill="#D2FF00" stroke="#252525"/>
<path d="M176.982 128.216C182.178 128.135 186.465 132.329 186.545 137.595C186.625 142.861 182.468 147.186 177.272 147.266C172.075 147.347 167.789 143.153 167.709 137.887C167.629 132.622 171.786 128.297 176.982 128.216Z" fill="#F9F8F4" stroke="#252525"/>
<path d="M211.683 103.955C212.481 106.932 210.713 109.993 207.733 110.792C204.753 111.59 201.691 109.823 200.894 106.846C200.096 103.869 201.864 100.808 204.844 100.01C207.824 99.2112 210.885 100.978 211.683 103.955Z" fill="#252525" stroke="#252525"/>
<path d="M196.779 113.578C199.45 115.119 200.365 118.532 198.822 121.202C197.28 123.872 193.864 124.787 191.193 123.246C188.522 121.705 187.608 118.292 189.15 115.622C190.693 112.952 194.108 112.037 196.779 113.578Z" fill="#252525" stroke="#252525"/>
<path d="M217.737 112.526C220.78 112.021 223.656 114.077 224.16 117.117C224.664 120.158 222.607 123.033 219.563 123.538C216.52 124.043 213.645 121.987 213.141 118.946C212.636 115.906 214.694 113.031 217.737 112.526Z" fill="#252525" stroke="#252525"/>
<path d="M210.138 126.943C212.403 129.035 212.541 132.566 210.447 134.83C208.353 137.095 204.819 137.234 202.555 135.141C200.291 133.049 200.152 129.518 202.247 127.254C204.341 124.99 207.874 124.851 210.138 126.943Z" fill="#252525" stroke="#252525"/>
<path d="M98.0196 103.089C106.747 108.124 109.735 119.277 104.695 128.001C99.6544 136.725 88.4937 139.715 79.7668 134.68C71.0398 129.645 68.0512 118.492 73.0916 109.768C78.132 101.044 89.2926 98.054 98.0196 103.089Z" fill="#D2FF00" stroke="#252525"/>
<path d="M101.376 127.519C105.51 120.364 103.059 111.217 95.9014 107.088C88.7443 102.959 79.5912 105.412 75.4574 112.566C71.3237 119.721 73.7747 128.868 80.9319 132.997C88.0891 137.126 97.2422 134.674 101.376 127.519Z" fill="#252525"/>
<path d="M96.2949 106.525C103.213 110.516 105.582 119.358 101.586 126.273C97.5908 133.189 88.7436 135.559 81.8256 131.568C74.9076 127.577 72.5385 118.735 76.5341 111.82C80.5297 104.904 89.3769 102.534 96.2949 106.525Z" fill="#D2FF00" stroke="#252525"/>
<path d="M92.5393 115.288L90.1335 117.458C89.3465 118.167 88.1073 118.186 87.2992 117.501L84.8288 115.407C84.1796 114.857 83.7857 113.959 83.7711 112.995L83.6967 108.083C83.6694 106.275 84.9634 104.817 86.4998 105.096C87.7824 105.329 89.1132 105.375 90.3519 104.982C91.9518 104.474 93.4189 105.929 93.4476 107.826L93.5236 112.844C93.5382 113.808 93.1716 114.718 92.5393 115.288L92.5393 115.288Z" fill="#252525"/>
<path d="M92.6649 123.681L90.1946 121.588C89.3864 120.903 88.1473 120.922 87.3603 121.631L84.9545 123.801C84.3222 124.371 83.9556 125.281 83.9702 126.245L84.0446 131.156C84.072 132.965 85.4095 134.382 86.9367 134.056C88.2117 133.783 89.5405 133.696 90.7906 134.051C92.405 134.509 93.8275 133.009 93.7987 131.112L93.7227 126.094C93.7081 125.13 93.3142 124.232 92.6649 123.681Z" fill="#252525"/>
<path d="M94.7731 115.653L92.7033 118.152C92.0263 118.969 92.0452 120.223 92.7467 121.019L94.8911 123.452C95.4546 124.092 96.3545 124.463 97.3072 124.448L102.162 124.373C103.95 124.346 105.352 122.993 105.029 121.448C104.759 120.158 104.673 118.814 105.024 117.549C105.477 115.916 103.994 114.477 102.118 114.506L97.1578 114.583C96.2051 114.597 95.3169 114.996 94.773 115.653L94.7731 115.653Z" fill="#252525"/>
<path d="M83.8639 115.821L86.0083 118.255C86.7098 119.051 86.7288 120.305 86.0517 121.122L83.982 123.621C83.4381 124.278 82.5498 124.676 81.5972 124.691L76.7419 124.766C74.954 124.794 73.5124 123.485 73.7884 121.93C74.0188 120.633 74.064 119.287 73.6752 118.034C73.1732 116.415 74.612 114.931 76.4871 114.902L81.4479 114.826C82.4005 114.811 83.3004 115.182 83.8639 115.821Z" fill="#252525"/>
<path d="M85.4702 114.364L85.4702 114.364C84.9464 113.92 84.6019 113.166 84.5891 112.325L84.5148 107.414C84.5148 107.414 84.5148 107.414 84.5148 107.414C84.5029 106.627 84.7791 105.938 85.1977 105.483C85.6117 105.034 86.1534 104.821 86.7285 104.926C88.0538 105.167 89.4751 105.223 90.8213 104.796L90.67 104.32L90.8213 104.796C91.426 104.604 92.008 104.774 92.4641 105.204C92.9278 105.641 93.2533 106.346 93.2658 107.172L93.2658 107.172L93.3417 112.19L93.3417 112.19C93.3545 113.031 93.0329 113.795 92.5226 114.255L90.1168 116.424C90.1168 116.424 90.1168 116.424 90.1168 116.424C89.5156 116.966 88.5577 116.981 87.9406 116.458L85.4702 114.364Z" fill="#F9F8F4" stroke="#252525"/>
<path d="M92.6613 123.4L92.6612 123.4L90.1909 121.306L90.5141 120.925L90.1909 121.306C89.5738 120.783 88.6158 120.798 88.0147 121.34L88.0147 121.34L85.6089 123.509C85.6089 123.509 85.6089 123.509 85.6089 123.509C85.0986 123.969 84.777 124.734 84.7898 125.574L84.7898 125.574L84.8641 130.486C84.8641 130.486 84.8641 130.486 84.8641 130.486C84.876 131.272 85.1729 131.953 85.605 132.394C86.0323 132.83 86.5801 133.026 87.1518 132.904C88.4691 132.622 89.8881 132.522 91.2467 132.907C91.8568 133.08 92.4334 132.893 92.8765 132.449C93.3268 131.998 93.6308 131.282 93.6184 130.457C93.6183 130.457 93.6184 130.457 93.6184 130.457M92.6613 123.4L94.1183 130.449L93.6184 130.457M92.6613 123.4C93.1851 123.844 93.5296 124.598 93.5424 125.439L92.6613 123.4ZM93.6184 130.457L93.5424 125.439L93.6184 130.457Z" fill="#F9F8F4" stroke="#252525"/>
<path d="M93.4067 117.808L93.4067 117.808L95.4764 115.309C95.4764 115.309 95.4764 115.309 95.4764 115.309C95.9155 114.779 96.6581 114.433 97.4839 114.421L102.445 114.344C103.255 114.331 103.96 114.637 104.405 115.092C104.844 115.541 105.034 116.129 104.86 116.754C104.48 118.124 104.579 119.557 104.858 120.888C104.98 121.474 104.783 122.032 104.352 122.464C103.916 122.901 103.246 123.199 102.473 123.211L97.6178 123.286C96.7921 123.299 96.0394 122.976 95.5846 122.46L95.5846 122.46L93.4402 120.026C93.4402 120.026 93.4402 120.026 93.4402 120.026C92.9014 119.414 92.8865 118.436 93.4067 117.808Z" fill="#F9F8F4" stroke="#252525"/>
<path d="M74.4711 117.223C74.2791 116.604 74.4505 116.01 74.8759 115.548C75.3077 115.079 76.0025 114.752 76.8132 114.74L76.8132 114.74L81.7739 114.663C82.5997 114.65 83.3524 114.973 83.8071 115.49L83.8071 115.49L85.9515 117.923L86.3266 117.593L85.9515 117.923C86.4902 118.535 86.5052 119.513 85.985 120.141L86.3701 120.46L85.985 120.141L83.9153 122.64L83.9152 122.64C83.4763 123.17 82.7335 123.516 81.9078 123.529L81.9078 123.529L77.0525 123.604C76.28 123.616 75.601 123.338 75.1526 122.915C74.7087 122.497 74.4944 121.945 74.599 121.355C74.8369 120.016 74.8926 118.582 74.4711 117.223ZM74.4711 117.223L73.9936 117.371M74.4711 117.223L73.9936 117.371M73.9936 117.371C73.4916 115.753 74.9303 114.269 76.8055 114.24L77.0602 124.104C75.2724 124.131 73.8307 122.822 74.1067 121.268C74.3372 119.971 74.3823 118.624 73.9936 117.371Z" fill="#F9F8F4" stroke="#252525"/>
<path d="M211.306 101.315C213.104 103.819 212.53 107.306 210.024 109.104C207.518 110.902 204.028 110.329 202.231 107.826C200.433 105.322 201.007 101.834 203.513 100.036C206.019 98.2383 209.508 98.8112 211.306 101.315Z" fill="#F9F8F4" stroke="#252525"/>
<path d="M195.01 112.027C198.08 112.327 200.325 115.057 200.024 118.124C199.724 121.192 196.992 123.437 193.922 123.137C190.852 122.838 188.607 120.108 188.908 117.04C189.208 113.972 191.94 111.728 195.01 112.027Z" fill="#F9F8F4" stroke="#252525"/>
<path d="M219.401 111.627C222.483 111.774 224.86 114.39 224.712 117.469C224.564 120.547 221.947 122.925 218.866 122.778C215.784 122.631 213.407 120.015 213.555 116.937C213.703 113.858 216.32 111.481 219.401 111.627Z" fill="#F9F8F4" stroke="#252525"/>
<path d="M209.621 125.38C212.292 126.921 213.207 130.334 211.664 133.004C210.122 135.674 206.706 136.589 204.035 135.048C201.364 133.507 200.45 130.094 201.992 127.424C203.535 124.754 206.951 123.839 209.621 125.38Z" fill="#F9F8F4" stroke="#252525"/>
<circle cx="281" cy="106.523" r="6" fill="#F9F8F4"/>
<circle cx="30" cy="126.523" r="8" fill="#F9F8F4"/>
<circle cx="24.5" cy="113.023" r="4.5" fill="#D2FF00"/>
<circle cx="169.5" cy="42.0234" r="4" stroke="#D2FF00"/>
<circle cx="200.5" cy="54.0234" r="3.5" fill="#F9F8F4"/>
<defs>
<filter id="filter0_d_2473_199" x="60.1399" y="96.2086" width="80.6301" height="74.5972" filterUnits="userSpaceOnUse" color-interpolation-filters="sRGB">
<feFlood flood-opacity="0" result="BackgroundImageFix"/>
<feColorMatrix in="SourceAlpha" type="matrix" values="0 0 0 0 0 0 0 0 0 0 0 0 0 0 0 0 0 0 127 0" result="hardAlpha"/>
<feOffset dy="4"/>
<feGaussianBlur stdDeviation="2"/>
<feComposite in2="hardAlpha" operator="out"/>
<feColorMatrix type="matrix" values="0 0 0 0 0 0 0 0 0 0 0 0 0 0 0 0 0 0 0.25 0"/>
<feBlend mode="normal" in2="BackgroundImageFix" result="effect1_dropShadow_2473_199"/>
<feBlend mode="normal" in="SourceGraphic" in2="effect1_dropShadow_2473_199" result="shape"/>
</filter>
<filter id="filter1_d_2473_199" x="99.8831" y="129.996" width="37.6023" height="37.9217" filterUnits="userSpaceOnUse" color-interpolation-filters="sRGB">
<feFlood flood-opacity="0" result="BackgroundImageFix"/>
<feColorMatrix in="SourceAlpha" type="matrix" values="0 0 0 0 0 0 0 0 0 0 0 0 0 0 0 0 0 0 127 0" result="hardAlpha"/>
<feOffset dy="4"/>
<feGaussianBlur stdDeviation="2"/>
<feComposite in2="hardAlpha" operator="out"/>
<feColorMatrix type="matrix" values="0 0 0 0 0 0 0 0 0 0 0 0 0 0 0 0 0 0 0.25 0"/>
<feBlend mode="normal" in2="BackgroundImageFix" result="effect1_dropShadow_2473_199"/>
<feBlend mode="normal" in="SourceGraphic" in2="effect1_dropShadow_2473_199" result="shape"/>
</filter>
<filter id="filter2_d_2473_199" x="104.524" y="133.357" width="29.8901" height="30.1264" filterUnits="userSpaceOnUse" color-interpolation-filters="sRGB">
<feFlood flood-opacity="0" result="BackgroundImageFix"/>
<feColorMatrix in="SourceAlpha" type="matrix" values="0 0 0 0 0 0 0 0 0 0 0 0 0 0 0 0 0 0 127 0" result="hardAlpha"/>
<feOffset dy="4"/>
<feGaussianBlur stdDeviation="2"/>
<feComposite in2="hardAlpha" operator="out"/>
<feColorMatrix type="matrix" values="0 0 0 0 0 0 0 0 0 0 0 0 0 0 0 0 0 0 0.25 0"/>
<feBlend mode="normal" in2="BackgroundImageFix" result="effect1_dropShadow_2473_199"/>
<feBlend mode="normal" in="SourceGraphic" in2="effect1_dropShadow_2473_199" result="shape"/>
</filter>
</defs>
</svg>
