<svg width="163" height="168" viewBox="0 0 163 168" fill="none" xmlns="http://www.w3.org/2000/svg">
<path d="M162.5 79.1131C162.5 122.239 127.421 157.203 84.1464 157.203C40.8714 157.203 5.79297 122.239 5.79297 79.1131C5.79297 35.987 40.8714 1.02344 84.1464 1.02344C127.421 1.02344 162.5 35.987 162.5 79.1131Z" stroke="#F9F8F4"/>
<path d="M134.98 97.0464C134.98 127.355 110.327 151.928 79.9126 151.928C49.4979 151.928 24.8447 127.355 24.8447 97.0464C24.8447 66.7375 49.4979 42.1644 79.9126 42.1644C110.327 42.1644 134.98 66.7375 134.98 97.0464Z" stroke="#F9F8F4"/>
<path d="M94.9907 163.561C95.0492 163.601 95.1291 163.655 95.2293 163.72C95.4695 163.875 95.8263 164.095 96.2866 164.349C97.2077 164.856 98.5397 165.496 100.177 166.023C103.419 167.066 107.837 167.66 112.638 165.924L142.298 123.038L142.474 121.599L142.476 121.583L94.9907 163.561ZM94.9907 163.561L76.8081 115.358L77.1689 112.418L77.1689 112.418C77.7605 107.596 80.2867 104.986 82.6571 103.565C83.8493 102.851 85.0069 102.436 85.8665 102.2C86.2957 102.082 86.6488 102.009 86.8924 101.966C87.0141 101.945 87.1083 101.931 87.1707 101.922C87.2019 101.918 87.2252 101.915 87.2399 101.913L87.2557 101.912L87.2583 101.911L87.2587 101.911L87.2587 101.911L87.2589 101.911L87.2904 101.908L105.577 100.255L118.985 101.889L135.046 107.418L135.046 107.418L135.056 107.421C139.794 108.947 141.644 112.442 142.32 115.604C142.659 117.191 142.699 118.687 142.653 119.788C142.63 120.338 142.586 120.787 142.547 121.097C142.528 121.252 142.511 121.372 142.498 121.452C142.492 121.492 142.487 121.522 142.483 121.541L142.48 121.563L142.479 121.567L142.479 121.567M94.9907 163.561L142.479 121.567M142.479 121.567L142.479 121.568L142.479 121.567Z" fill="#F9F8F4" stroke="#252525"/>
<path d="M76.9978 113.813L76.9978 113.813C77.3807 110.689 78.4747 108.244 79.8942 106.798C81.2942 105.371 82.9932 104.917 84.7416 105.674L100.365 112.432C102.597 113.398 104.548 115.734 105.83 118.807C107.108 121.868 107.692 125.592 107.246 129.231L103.954 156.065C103.506 159.715 102.15 162.251 100.442 163.493C98.7757 164.704 96.6819 164.753 94.5082 163.239C94.5082 163.239 94.5082 163.239 94.5081 163.239L79.3521 152.674C77.5652 151.428 76.0699 149.061 75.1202 146.167C74.1742 143.285 73.7916 139.945 74.1741 136.827L76.9978 113.813Z" fill="#56EBFF" stroke="#252525"/>
<path d="M119.196 113.23L119.089 113.247C116.654 113.629 113.471 113.592 110.317 113.215C107.116 112.833 103.993 112.107 101.754 111.148C101.754 111.148 101.754 111.148 101.754 111.148L86.7297 104.704C85.7985 104.305 85.2364 103.928 84.9584 103.616C84.823 103.464 84.7782 103.353 84.7665 103.286C84.7568 103.23 84.7636 103.173 84.8106 103.098C84.9272 102.91 85.2687 102.651 85.9851 102.409C86.6765 102.176 87.6302 101.986 88.8388 101.869L105.114 100.294L105.114 100.294C109.213 99.8955 115.481 100.649 119.304 101.995L119.304 101.995L134.479 107.334C134.479 107.334 134.479 107.334 134.479 107.334C135.603 107.73 136.459 108.135 137.049 108.52C137.662 108.92 137.898 109.24 137.949 109.431C137.969 109.505 137.962 109.56 137.932 109.619C137.896 109.689 137.813 109.791 137.632 109.909C137.262 110.15 136.603 110.381 135.589 110.547L135.669 111.04L135.589 110.547L119.196 113.23Z" fill="#F9F8F4" stroke="#252525"/>
<path d="M141.325 114.332C142.342 116.055 142.814 118.647 142.458 121.722L142.443 121.841L139.617 144.871C139.234 147.991 138.054 151.143 136.436 153.716C134.813 156.299 132.786 158.24 130.747 159.021L130.747 159.021L113.455 165.644C113.455 165.644 113.455 165.644 113.455 165.644C110.975 166.594 108.951 166.043 107.624 164.467C106.265 162.85 105.56 160.063 106.009 156.41L105.512 156.349L106.009 156.41L109.304 129.552C109.304 129.552 109.304 129.552 109.304 129.552C109.751 125.911 111.221 122.434 113.204 119.767C115.195 117.09 117.658 115.289 120.063 114.887C120.063 114.887 120.063 114.887 120.063 114.887L136.886 112.076C138.769 111.761 140.31 112.61 141.325 114.332Z" fill="#212121" stroke="#252525"/>
<path d="M127.803 130.729L127.803 130.729C126.631 130.794 125.414 131.56 124.408 132.859C123.409 134.15 122.666 135.913 122.43 137.837C122.193 139.764 122.515 141.443 123.182 142.606C123.844 143.76 124.823 144.381 125.962 144.33L127.803 130.729ZM127.803 130.729C128.949 130.666 129.935 131.28 130.603 132.432C131.277 133.594 131.604 135.279 131.366 137.22C131.128 139.158 130.378 140.928 129.372 142.219M127.803 130.729L129.372 142.219M129.372 142.219C128.36 143.519 127.136 144.277 125.962 144.33L129.372 142.219Z" fill="#F9F8F4" stroke="#252525"/>
<path d="M86.048 118.577L86.048 118.577C85.8832 119.921 85.3872 120.84 84.8045 121.301C84.256 121.734 83.576 121.81 82.8257 121.362C82.0508 120.898 81.3612 119.96 80.9066 118.759C80.4554 117.566 80.2595 116.174 80.4193 114.872L80.4193 114.872C80.58 113.561 81.0613 112.646 81.6338 112.174C82.1744 111.729 82.8395 111.638 83.5745 112.048L83.5746 112.048C84.3588 112.486 85.0675 113.414 85.5382 114.625C86.005 115.826 86.212 117.242 86.048 118.577Z" fill="#F9F8F4" stroke="#252525"/>
<path d="M102.224 127.928L102.233 127.854C102.389 126.463 102.148 124.98 101.626 123.707C101.092 122.405 100.289 121.38 99.3897 120.877L102.224 127.928ZM102.224 127.928C102.05 129.348 101.505 130.309 100.854 130.782C100.234 131.233 99.4427 131.298 98.5688 130.775L98.5686 130.775M102.224 127.928L98.5686 130.775M98.5686 130.775C97.6802 130.244 96.8996 129.21 96.3845 127.918M98.5686 130.775L96.3845 127.918M96.3845 127.918C95.8721 126.633 95.645 125.147 95.814 123.77L96.3845 127.918ZM95.814 123.77C95.9838 122.388 96.5118 121.431 97.1498 120.946C97.7586 120.484 98.5312 120.398 99.3896 120.877L95.814 123.77Z" fill="#F9F8F4" stroke="#252525"/>
<path d="M83.1876 141.874L83.1964 141.802C83.3604 140.467 83.1572 139.017 82.6935 137.761C82.2265 136.495 81.5191 135.489 80.7295 134.978L80.7293 134.978C79.9832 134.494 79.3349 134.551 78.8251 134.939C78.2743 135.357 77.797 136.23 77.6357 137.544L83.1876 141.874ZM83.1876 141.874C83.0139 143.181 82.5293 144.032 81.9792 144.432C81.4619 144.808 80.7974 144.849 80.0358 144.325L83.1876 141.874ZM78.1161 141.519C78.567 142.773 79.2552 143.787 80.0354 144.325L78.1161 141.519ZM78.1161 141.519C77.668 140.272 77.4759 138.847 77.6357 137.544L78.1161 141.519Z" fill="#F9F8F4" stroke="#252525"/>
<path d="M97.8677 155.253C98.4932 154.839 99.034 153.927 99.2088 152.503C99.3821 151.09 99.1458 149.539 98.6184 148.182C98.0884 146.818 97.2874 145.709 96.3839 145.123C95.517 144.561 94.7601 144.604 94.1817 145.006C93.5675 145.433 93.044 146.342 92.874 147.727L97.8677 155.253ZM97.8677 155.253C97.2785 155.643 96.502 155.664 95.6186 155.055M97.8677 155.253L95.6186 155.055M95.6186 155.055C94.7267 154.441 93.9484 153.324 93.4372 151.973C92.9283 150.628 92.7053 149.105 92.874 147.727L95.6186 155.055Z" fill="#F9F8F4" stroke="#252525"/>
<path d="M89.801 128.123C90.643 128.631 91.3961 129.646 91.8953 130.931C92.3912 132.206 92.6124 133.688 92.4441 135.06C92.2745 136.443 91.7568 137.359 91.1532 137.798C90.5859 138.21 89.8604 138.262 89.0457 137.738L89.0457 137.738C88.2142 137.203 87.4819 136.18 87.0001 134.906C86.5212 133.641 86.3122 132.186 86.4761 130.847L89.801 128.123ZM86.4761 130.847C86.6419 129.499 87.1438 128.586 87.7366 128.136C88.2946 127.712 89.0026 127.642 89.8008 128.123L86.4761 130.847Z" fill="#F9F8F4" stroke="#252525"/>
<path d="M91.9562 104.821L91.9563 104.821C92.8889 105.302 94.1876 105.65 95.541 105.809C96.8937 105.967 98.2526 105.931 99.2999 105.68L91.9562 104.821ZM91.9562 104.821C91.489 104.58 91.1873 104.343 91.0159 104.138M91.9562 104.821L91.0159 104.138M100.556 104.446C100.385 104.241 100.083 104.004 99.6163 103.763L100.556 104.446ZM100.556 104.446C100.725 104.648 100.74 104.781 100.729 104.855M100.556 104.446L100.729 104.855M100.729 104.855C100.717 104.932 100.658 105.067 100.425 105.23M100.729 104.855L100.425 105.23M100.425 105.23C100.192 105.393 99.8243 105.554 99.3 105.68L100.425 105.23ZM91.0159 104.138C90.8469 103.937 90.8317 103.803 90.8428 103.73M91.0159 104.138L90.8428 103.73M90.8428 103.73C90.8544 103.652 90.9142 103.517 91.147 103.354M90.8428 103.73L91.147 103.354M91.147 103.354C91.38 103.191 91.7471 103.03 92.2715 102.905L91.147 103.354ZM92.2715 102.905C93.319 102.654 94.6781 102.617 96.031 102.776C97.3845 102.934 98.6834 103.282 99.6161 103.763L92.2715 102.905Z" fill="#56EBFF" stroke="#252525"/>
<path d="M107.337 106.622L107.337 106.622C108.271 107.104 109.57 107.452 110.923 107.61C112.275 107.769 113.634 107.733 114.681 107.482C115.205 107.356 115.573 107.195 115.806 107.032C116.039 106.869 116.099 106.734 116.11 106.656C116.121 106.583 116.106 106.449 115.937 106.248C115.766 106.043 115.465 105.806 114.998 105.565L107.337 106.622ZM107.337 106.622C106.87 106.381 106.568 106.144 106.397 105.94C106.228 105.738 106.213 105.604 106.224 105.531C106.235 105.454 106.295 105.319 106.528 105.156C106.761 104.993 107.128 104.832 107.652 104.707L107.652 104.707M107.337 106.622L107.652 104.707M107.652 104.707C108.7 104.455 110.059 104.419 111.412 104.577M107.652 104.707L111.412 104.577M111.412 104.577C112.766 104.736 114.064 105.084 114.997 105.565L111.412 104.577Z" fill="#56EBFF" stroke="#252525"/>
<path d="M123.034 106.509L123.034 106.509C122.51 106.635 122.142 106.795 121.909 106.958C121.676 107.121 121.616 107.256 121.605 107.334C121.593 107.407 121.608 107.541 121.777 107.742C121.948 107.947 122.25 108.183 122.717 108.425L123.034 106.509ZM123.034 106.509C124.082 106.258 125.44 106.221 126.793 106.38M123.034 106.509L126.793 106.38M131.318 108.049C131.147 107.845 130.845 107.608 130.379 107.367L131.318 108.049ZM131.318 108.049C131.487 108.251 131.502 108.385 131.491 108.458M131.318 108.049L131.491 108.458M131.491 108.458C131.479 108.536 131.42 108.671 131.187 108.834M131.491 108.458L131.187 108.834M131.187 108.834C130.954 108.997 130.587 109.158 130.062 109.284L131.187 108.834ZM126.793 106.38C128.147 106.538 129.445 106.886 130.378 107.367L126.793 106.38ZM130.062 109.284C129.015 109.535 127.656 109.571 126.303 109.412C124.949 109.254 123.65 108.906 122.717 108.425L130.062 109.284Z" fill="#56EBFF" stroke="#252525"/>
<path d="M7.02408 82.5785L7.02414 82.5785C7.0247 82.5785 7.02486 82.5785 7.02461 82.5785L8.2728 82.6131L8.23521 82.5754L59.6573 82.4521C63.2433 83.1234 65.0395 86.4256 65.9299 89.7864C66.3715 91.453 66.5746 93.0819 66.6668 94.2973C66.7128 94.904 66.7311 95.4053 66.7378 95.7538C66.7411 95.9247 66.7416 96.0587 66.7413 96.1502L39.2571 137.796C32.0215 139.97 26.3099 140.011 22.412 139.511C20.4467 139.259 18.9403 138.869 17.9304 138.545C17.4254 138.383 17.0445 138.238 16.7924 138.134C16.7148 138.102 16.6495 138.074 16.5964 138.051L0.520718 96.7226C0.544469 89.389 2.27498 85.8764 3.89486 84.1949C4.70868 83.3501 5.51135 82.9488 6.09743 82.7567C6.39165 82.6602 6.63322 82.6159 6.7963 82.5956C6.8778 82.5854 6.93953 82.5813 6.97818 82.5796C6.99751 82.5788 7.01103 82.5785 7.01835 82.5785L7.02408 82.5785Z" fill="#F9F8F4" stroke="#252525"/>
<path d="M23.7944 105.86V105.86C23.8004 101.162 22.8371 96.6714 21.3162 93.2243C19.7798 89.7421 17.7379 87.4593 15.6739 86.9343L23.7944 105.86ZM23.7944 105.86L23.7701 125.83C23.7642 130.54 22.7863 134.17 21.3104 136.279C20.576 137.328 19.74 137.972 18.8665 138.221C18.0031 138.468 17.035 138.349 15.983 137.744L15.983 137.744L7.13002 132.654C7.13001 132.654 7.12999 132.654 7.12997 132.654C5.34251 131.626 3.67202 129.121 2.44806 125.765C1.23351 122.435 0.495263 118.366 0.500023 114.341C0.500023 114.341 0.500023 114.341 0.500023 114.341L0.521496 97.2238C0.526444 93.1932 1.27579 89.7768 2.46849 87.5114C3.67038 85.2285 5.21127 84.274 6.81729 84.6822C6.8173 84.6822 6.81732 84.6822 6.81733 84.6822L15.6739 86.9343L23.7944 105.86Z" fill="#56EBFF" stroke="#252525"/>
<path d="M66.7639 97.1883V97.1886L66.7432 114.332C66.7381 118.296 65.473 122.315 63.3906 125.612C61.3062 128.913 58.4284 131.451 55.2292 132.513L55.3867 132.988L55.2292 132.513L39.9571 137.583C36.1633 138.842 32.6963 138.151 30.1772 136.048C27.65 133.939 26.0157 130.357 26.0215 125.728L26.0462 105.727C26.0578 96.4303 32.6644 88.0155 40.2501 86.9089C40.2502 86.9089 40.2502 86.9089 40.2502 86.9089L55.5193 84.6831L55.5195 84.6831C58.6781 84.2215 61.4717 85.3677 63.4893 87.6075C65.5144 89.8556 66.7687 93.2229 66.7639 97.1877C66.7639 97.1878 66.7639 97.1879 66.7639 97.188V97.1883Z" fill="#212121" stroke="#252525"/>
<path d="M34.7853 79.2996L34.7852 79.2996L8.70752 82.3372C7.6309 82.4627 6.8034 82.6148 6.25223 82.765L21.5901 86.6361C22.4548 86.8539 23.9214 86.9707 25.6027 86.97C27.2729 86.9694 29.112 86.853 30.7035 86.6226L34.7853 79.2996ZM34.7853 79.2996C37.2399 79.0134 40.4612 79.0173 42.0211 79.2952L42.0213 79.2953L59.0765 82.3253C59.0766 82.3253 59.0766 82.3253 59.0766 82.3253C59.2019 82.3476 59.3134 82.3703 59.4119 82.3928C59.087 82.4827 58.65 82.5713 58.0975 82.6515C58.0975 82.6516 58.0974 82.6516 58.0974 82.6516L30.7036 86.6226L34.7853 79.2996ZM60 82.5947C59.9999 82.5948 59.9987 82.5939 59.9966 82.592C59.999 82.5938 60.0001 82.5947 60 82.5947ZM5.54038 82.5497C5.54067 82.5496 5.54374 82.5515 5.54868 82.5555C5.54256 82.5517 5.54008 82.5497 5.54038 82.5497Z" fill="#F9F8F4" stroke="#252525"/>
<path d="M6.08786 99.091L6.08805 99.0911C6.43571 99.2485 6.73815 99.2696 6.99595 99.2058C7.25629 99.1414 7.51339 98.9796 7.74784 98.7001C8.2254 98.1308 8.57272 97.109 8.57461 95.723L6.08786 99.091ZM6.08786 99.091C5.38844 98.7749 4.69148 97.9826 4.16435 96.8675C3.6438 95.7663 3.32334 94.4199 3.3252 93.0981L3.3252 93.0979M6.08786 99.091L3.3252 93.0979M3.3252 93.0979C3.32657 91.7664 3.65284 90.7563 4.11358 90.1723M3.3252 93.0979L4.11358 90.1723M4.11358 90.1723C4.34042 89.8848 4.59038 89.711 4.84338 89.6327M4.11358 90.1723L4.84338 89.6327M4.84338 89.6327C5.09245 89.5556 5.38144 89.5593 5.71408 89.6881L4.84338 89.6327ZM5.71415 89.6882C6.41855 89.9612 7.13952 90.7302 7.69138 91.8555C8.23553 92.9651 8.5763 94.346 8.57461 95.723L5.71415 89.6882Z" fill="#F9F8F4" stroke="#252525"/>
<path d="M8.55863 108.798V108.798C8.55692 110.187 8.20816 111.169 7.74303 111.686C7.51661 111.938 7.26971 112.074 7.01719 112.116C6.76411 112.158 6.45796 112.115 6.10075 111.924L6.10065 111.924C5.38487 111.543 4.6804 110.68 4.15138 109.518C3.62814 108.369 3.30772 106.993 3.30958 105.671L3.30958 105.671C3.31111 104.337 3.63852 103.363 4.08798 102.829C4.30764 102.568 4.54767 102.421 4.7915 102.365C5.03382 102.309 5.32471 102.334 5.66647 102.494L5.66657 102.494C6.38784 102.831 7.11756 103.673 7.67196 104.848C8.21943 106.008 8.56049 107.421 8.55863 108.798Z" fill="#F9F8F4" stroke="#252525"/>
<path d="M7.74124 124.672C8.19194 124.207 8.54225 123.265 8.54398 121.871L7.74124 124.672ZM7.74124 124.672C7.5244 124.896 7.2884 125.007 7.04191 125.029M7.74124 124.672L7.04191 125.029M7.04191 125.029C6.79098 125.051 6.47945 124.984 6.11278 124.759M7.04191 125.029L6.11278 124.759M6.11278 124.759C5.38158 124.311 4.67055 123.378 4.13983 122.17M6.11278 124.759L4.13983 122.17M4.13983 122.17C3.61403 120.972 3.29342 119.567 3.29493 118.244L4.13983 122.17ZM3.29493 118.244C3.29683 116.907 3.6257 115.971 4.06245 115.487C4.2737 115.253 4.50323 115.13 4.73953 115.095C4.97775 115.059 5.27275 115.105 5.62408 115.298C6.36141 115.702 7.09819 116.617 7.65426 117.841C8.20434 119.051 8.54549 120.494 8.54398 121.871L3.29493 118.244Z" fill="#F9F8F4" stroke="#252525"/>
<path d="M16.7798 103.927L16.7801 103.928C17.1951 104.115 17.5638 104.152 17.8808 104.088C18.1981 104.023 18.5001 103.85 18.7692 103.557C19.3162 102.961 19.7113 101.881 19.7132 100.401C19.715 98.9308 19.3262 97.4435 18.7031 96.2378C18.0735 95.0197 17.242 94.1572 16.4074 93.8335L16.7798 103.927ZM16.7798 103.927C15.9548 103.554 15.1538 102.669 14.5543 101.464C13.9601 100.269 13.5958 98.8219 13.5977 97.4136L13.5977 97.4135M16.7798 103.927L13.5977 97.4135M13.5977 97.4135C13.5994 95.9964 13.9693 94.9286 14.4955 94.316M13.5977 97.4135L14.4955 94.316M14.4955 94.316C14.7548 94.0141 15.0466 93.8274 15.3527 93.746M14.4955 94.316L15.3527 93.746M15.3527 93.746C15.6569 93.6651 16.0091 93.6791 16.4074 93.8335L15.3527 93.746Z" fill="#F9F8F4" stroke="#252525"/>
<path d="M13.583 110.811L13.583 110.812C13.581 112.22 13.9453 113.701 14.5427 114.95C15.1447 116.209 15.9537 117.172 16.7946 117.62L13.583 110.811ZM13.583 110.811C13.5846 109.392 13.9555 108.365 14.4685 107.809M13.583 110.811L14.4685 107.809M18.7667 117.426C19.2991 116.889 19.6956 115.853 19.6974 114.37C19.6993 112.899 19.3103 111.376 18.6838 110.114C18.0516 108.839 17.2116 107.896 16.3612 107.498L18.7667 117.426ZM18.7667 117.426C18.5067 117.688 18.2149 117.834 17.9039 117.872M18.7667 117.426L17.9039 117.872M17.9039 117.872C17.5905 117.911 17.2181 117.846 16.7947 117.62L17.9039 117.872ZM14.4685 107.809C14.7197 107.536 15.0017 107.378 15.3002 107.323M14.4685 107.809L15.3002 107.323M15.3002 107.323C15.5994 107.267 15.9541 107.308 16.3611 107.498L15.3002 107.323Z" fill="#F9F8F4" stroke="#252525"/>
<path d="M16.8023 131.312L16.8023 131.312C17.2345 131.577 17.6124 131.672 17.9251 131.659C18.232 131.645 18.5134 131.526 18.763 131.294C19.2788 130.815 19.677 129.826 19.6789 128.339C19.6807 126.868 19.2914 125.309 18.6616 123.99C18.0269 122.66 17.1793 121.636 16.3137 121.161L16.8023 131.312ZM16.8023 131.312C15.9472 130.788 15.1316 129.747 14.5275 128.435M16.8023 131.312L14.5275 128.435M14.5275 128.435C13.9273 127.132 13.5628 125.618 13.5645 124.209L14.5275 128.435ZM13.5645 124.209C13.5664 122.784 13.9389 121.801 14.437 121.301C14.6789 121.058 14.9502 120.926 15.2427 120.896C15.539 120.864 15.8979 120.932 16.3136 121.161L13.5645 124.209Z" fill="#F9F8F4" stroke="#252525"/>
<path d="M37.7659 106.241L37.7659 106.241C40.144 105.771 42.1283 103.211 42.1313 100.488V100.488C42.1331 99.1442 41.6498 98.0478 40.9028 97.3422C40.16 96.6407 39.1296 96.2981 37.9611 96.499L37.7659 106.241ZM37.7659 106.241C36.5795 106.475 35.5245 106.151 34.7626 105.453C33.9967 104.753 33.4961 103.646 33.4981 102.271L33.4981 102.271M37.7659 106.241L33.4981 102.271M33.4981 102.271C33.501 99.4846 35.556 96.9142 37.9608 96.499L33.4981 102.271Z" fill="#F9F8F4" stroke="#252525"/>
<path d="M56.9435 102.453L56.9434 102.453C55.8845 102.662 54.9409 102.352 54.2541 101.688C53.5615 101.018 53.1042 99.9592 53.1057 98.6448C53.1087 95.9766 54.9838 93.566 57.1373 93.1952L57.1373 93.1952C58.1802 93.0156 59.103 93.3415 59.7736 94.0104C60.45 94.6851 60.892 95.734 60.8908 97.0192C60.8874 99.6287 59.0745 102.033 56.9435 102.453Z" fill="#F9F8F4" stroke="#252525"/>
<path d="M37.711 128.607L37.7111 128.607C40.1077 128.008 42.0988 125.324 42.1022 122.599L37.711 128.607ZM37.711 128.607C36.5192 128.905 35.4719 128.632 34.7213 127.985C33.9661 127.334 33.4656 126.263 33.4668 124.888L37.711 128.607ZM33.4668 124.887C33.4713 122.098 35.5332 119.401 37.9556 118.855L33.4668 124.887C33.4668 124.887 33.4668 124.887 33.4668 124.887Z" fill="#F9F8F4" stroke="#252525"/>
<path d="M60.8632 118.209C60.847 119.475 60.402 120.738 59.6823 121.757C58.949 122.795 57.9555 123.547 56.8908 123.813L56.8907 123.813C55.8268 124.079 54.8914 123.815 54.2161 123.197C53.5335 122.573 53.0762 121.547 53.0779 120.233L53.0779 120.233C53.0794 118.917 53.5426 117.611 54.2929 116.571C55.0448 115.528 56.0592 114.787 57.1345 114.545L57.1349 114.545C58.1826 114.309 59.097 114.589 59.7564 115.212C60.4232 115.842 60.8651 116.859 60.8633 118.145L60.8632 118.209Z" fill="#F9F8F4" stroke="#252525"/>
<path d="M23.7675 83.0003C23.7671 83.5639 21.1427 84.0176 17.9067 84.014L17.9074 83.514C19.5057 83.5158 20.9407 83.4043 21.9652 83.2271C22.3709 83.157 22.6973 83.079 22.9386 82.9996C22.6975 82.9196 22.3712 82.8408 21.9656 82.7697C20.9414 82.5902 19.5066 82.4753 17.9082 82.4734C16.3103 82.4714 14.8756 82.5828 13.8512 82.7599C13.4459 82.8299 13.1197 82.9078 12.8785 82.9871C13.1196 83.067 13.4456 83.1458 13.8508 83.2169C14.8749 83.3966 16.3093 83.5117 17.9073 83.514L23.7675 83.0003ZM23.7675 83.0003C23.7682 82.4374 21.1449 81.9773 17.9089 81.9734M23.7675 83.0003L17.9089 81.9734M17.9089 81.9734C14.6736 81.9695 12.0499 82.4232 12.0488 82.986L17.9089 81.9734ZM12.4872 82.8067C12.4873 82.8067 12.4877 82.8071 12.4885 82.808C12.4876 82.8071 12.4872 82.8067 12.4872 82.8067ZM23.3291 83.1796C23.3291 83.1796 23.3286 83.1792 23.3278 83.1783C23.3287 83.1792 23.3291 83.1796 23.3291 83.1796ZM23.3281 82.8216C23.3289 82.8208 23.3293 82.8204 23.3293 82.8204L23.3281 82.8216ZM12.4881 83.1652C12.4873 83.166 12.4868 83.1665 12.4868 83.1665C12.4868 83.1665 12.4872 83.166 12.4881 83.1652Z" fill="#56EBFF" stroke="#252525"/>
<path d="M47.3074 81.6503L47.3076 81.6503C48.8307 81.6364 50.1984 81.7318 51.1749 81.8928C51.5242 81.9504 51.8113 82.0145 52.0323 82.0805C51.8126 82.1502 51.5267 82.2193 51.1786 82.2831C50.2052 82.4614 48.8394 82.5813 47.316 82.595C45.7928 82.6088 44.4252 82.5134 43.4488 82.3524C43.0993 82.2948 42.812 82.2307 42.591 82.1647C42.8108 82.0949 43.0968 82.0257 43.4452 81.9618C44.4186 81.7835 45.7842 81.6637 47.3074 81.6503ZM52.4664 82.2645C52.4663 82.2645 52.4659 82.2642 52.4652 82.2635L52.4664 82.2645ZM52.4633 81.8888C52.4634 81.8888 52.463 81.8891 52.4622 81.8899C52.4629 81.8892 52.4633 81.8888 52.4633 81.8888ZM42.1614 82.3553C42.1607 82.3561 42.1603 82.3564 42.1603 82.3564C42.1603 82.3564 42.1606 82.3561 42.1614 82.3553ZM42.1571 81.9807C42.1572 81.9807 42.1576 81.9811 42.1583 81.9818L42.1571 81.9807Z" fill="#56EBFF" stroke="#252525"/>
<path d="M61.5062 67.0078C61.48 66.8968 61.4603 66.8067 61.4463 66.7395L81.3208 20.4523L83.5693 18.6208C87.2574 15.6172 90.8105 15.4774 93.4457 16.0722C94.7712 16.3714 95.8692 16.8583 96.6357 17.2708C97.0183 17.4767 97.3167 17.6632 97.5176 17.7968C97.618 17.8636 97.6939 17.9171 97.7436 17.953C97.7685 17.971 97.7868 17.9846 97.7984 17.9933L97.8107 18.0026L97.8129 18.0043L97.8131 18.0044L111.869 29.1839L120.226 39.3748L127.813 54.1046L127.813 54.1047L127.818 54.1135C130.125 58.3794 129.061 62.0889 127.393 64.7757C126.556 66.124 125.569 67.2063 124.79 67.9528C124.4 68.3253 124.065 68.6123 123.828 68.8052C123.709 68.9016 123.616 68.9743 123.552 69.0223C123.521 69.0463 123.497 69.0641 123.481 69.0756L123.464 69.088L123.461 69.0907L123.46 69.0909L123.46 69.0911L123.46 69.0911L123.448 69.1L123.435 69.1099L122.336 70.0059L72.2916 80.2894C67.7282 78.2797 65.0143 74.8856 63.4348 71.9662C62.6369 70.4915 62.1312 69.1424 61.8255 68.1637C61.6728 67.6747 61.5702 67.2791 61.5062 67.0078Z" fill="#F9F8F4" stroke="#252525"/>
<path d="M82.501 19.4903L82.5011 19.4903C84.891 17.5431 87.3209 16.5556 89.3027 16.4912C91.2571 16.4276 92.7586 17.2515 93.477 18.9575C93.477 18.9575 93.4771 18.9575 93.4771 18.9575L99.9211 34.2626C100.84 36.4443 100.633 39.4054 99.4534 42.4385C98.2788 45.4596 96.1645 48.4816 93.3812 50.7485L72.8443 67.4758L73.1601 67.8635L72.8443 67.4758C70.051 69.751 67.3751 70.6254 65.3295 70.3512C63.3357 70.084 61.8284 68.7114 61.3226 66.1826C61.3226 66.1825 61.3226 66.1825 61.3226 66.1825L57.7917 48.5047C57.3763 46.4246 57.9262 43.7478 59.2189 41.0655C60.5065 38.394 62.5022 35.7792 64.8876 33.8364L64.8876 33.8364L82.501 19.4903Z" fill="#F9F8F4" stroke="#252525"/>
<path d="M120.376 39.6621L127.467 53.6626C127.992 54.7 128.321 55.5616 128.476 56.2292C128.637 56.924 128.585 57.3055 128.494 57.4706C128.459 57.5343 128.418 57.5671 128.359 57.5877C128.288 57.6125 128.162 57.6286 127.955 57.5899C127.533 57.5111 126.911 57.2306 126.083 56.6646L114.023 48.4201L112.688 47.5073C110.689 46.1406 108.431 43.9403 106.432 41.5137C104.432 39.0869 102.72 36.4695 101.791 34.2849C101.791 34.2849 101.791 34.2848 101.791 34.2848L95.5563 19.6057L95.5563 19.6057C95.1701 18.6966 95.0296 18.0542 95.0451 17.6492C95.0526 17.4524 95.0957 17.3462 95.1318 17.2928C95.1616 17.2488 95.203 17.2144 95.2858 17.1932C95.4924 17.1403 95.9068 17.1865 96.5761 17.4981C97.2217 17.7986 98.0227 18.3073 98.9553 19.0388C98.9553 19.0389 98.9554 19.0389 98.9554 19.0389L111.515 28.8988L111.515 28.8989C114.679 31.3805 118.591 36.1367 120.376 39.6621L120.376 39.6621Z" fill="#56EBFF" stroke="#252525"/>
<path d="M123.249 69.2618L123.249 69.2621L123.232 69.2757L123.232 69.2761L105.623 83.6181C103.236 85.5621 100.264 86.9914 97.3774 87.7172C94.4789 88.4459 91.7325 88.4496 89.7657 87.6275L89.7656 87.6274L73.0611 80.6471C70.6689 79.6466 69.6184 77.8979 69.7515 75.8979C69.888 73.845 71.2797 71.4041 74.0747 69.1275L94.6302 52.3852C94.6302 52.3852 94.6302 52.3852 94.6303 52.3852C97.4161 50.1165 100.812 48.6523 104.021 48.1069C107.243 47.5594 110.202 47.9482 112.169 49.2831L125.955 58.6397C127.493 59.6833 128.004 61.315 127.553 63.2109C127.096 65.1345 125.641 67.3129 123.249 69.2618Z" fill="#212121" stroke="#252525"/>
<path d="M103.044 64.9029C104.635 64.6635 106.011 64.9437 106.879 65.685C107.726 66.4085 108.005 67.501 107.696 68.7614C107.384 70.0326 106.472 71.4413 104.988 72.6502L104.988 72.6502C103.506 73.8576 101.776 74.6012 100.192 74.8344C98.5958 75.0694 97.2208 74.7799 96.3597 74.0286C95.5263 73.3012 95.2567 72.209 95.5713 70.9512C95.8885 69.6834 96.7997 68.2822 98.2729 67.0822C99.7443 65.8837 101.465 65.1406 103.044 64.9029Z" fill="#F9F8F4" stroke="#252525"/>
<path d="M85.648 28.937L85.6478 28.9371C84.6207 29.774 83.6487 30.0874 82.9277 30.0202C82.2502 29.9571 81.7235 29.5555 81.4992 28.7393C81.268 27.8934 81.4166 26.7694 81.9106 25.6159C82.4007 24.4712 83.2067 23.3571 84.2023 22.5462L84.2023 22.5461C85.204 21.73 86.1631 21.4094 86.8845 21.4623C87.5646 21.5121 88.0914 21.8929 88.3301 22.672L88.3301 22.672C88.5854 23.5054 88.4568 24.6354 87.968 25.8063C87.4833 26.9673 86.6692 28.1056 85.648 28.937Z" fill="#56EBFF" stroke="#252525"/>
<path d="M90.6774 46.4817L90.7224 46.445C91.8025 45.5654 92.6586 44.3362 93.1621 43.0654C93.6688 41.7868 93.7964 40.5251 93.5037 39.5678L90.6774 46.4817ZM90.6774 46.4817C89.6085 47.3379 88.5916 47.6372 87.8252 47.5344C87.0857 47.4351 86.4872 46.9512 86.2262 45.9986L86.2262 45.9985C85.9603 45.0287 86.1097 43.7758 86.6223 42.5175C87.1321 41.2662 87.9797 40.0649 89.0319 39.2077L90.6774 46.4817ZM91.8856 38.116C91.1091 38.0287 90.0893 38.3467 89.032 39.2077L91.8856 38.116ZM91.8856 38.116C92.6254 38.1992 93.2245 38.6562 93.5036 39.5676L91.8856 38.116Z" fill="#56EBFF" stroke="#252525"/>
<path d="M67.8737 43.4141L67.8736 43.4141C66.8435 44.2534 65.9041 44.5383 65.2358 44.4486C64.6202 44.3659 64.1271 43.9516 63.9461 43.0733C63.7612 42.1716 63.9624 40.9946 64.495 39.8058C65.0241 38.6251 65.8553 37.49 66.8514 36.6787C67.8559 35.8608 68.7833 35.5676 69.4531 35.643C70.0713 35.7127 70.5636 36.1051 70.7605 36.9438L70.7605 36.9442C70.9699 37.8337 70.7877 39.0178 70.2592 40.2248C69.7347 41.4228 68.8946 42.5826 67.8737 43.4141Z" fill="#56EBFF" stroke="#252525"/>
<path d="M67.6655 61.1539L67.6656 61.154C67.8751 62.1746 68.4336 62.6788 69.1091 62.7998C69.8283 62.9287 70.8269 62.6508 71.9159 61.7639C72.9964 60.8837 73.8815 59.6305 74.4292 58.3186C74.98 56.9997 75.1666 55.6793 74.9269 54.6605C74.6972 53.6847 74.1382 53.2086 73.4616 53.1032C72.7416 52.991 71.7572 53.2783 70.6983 54.1406L67.6655 61.1539ZM67.6655 61.1539C67.4536 60.1228 67.661 58.8124 68.2166 57.5149M67.6655 61.1539L68.2166 57.5149M68.2166 57.5149C68.7695 56.2236 69.645 54.9989 70.6982 54.1407L68.2166 57.5149Z" fill="#56EBFF" stroke="#252525"/>
<path d="M74.7745 44.4951L74.7745 44.4952C74.9927 45.4087 75.5355 45.8574 76.2113 45.9481C76.932 46.0449 77.9176 45.748 78.9745 44.8871L74.7745 44.4951ZM74.7745 44.4951C74.5511 43.561 74.7278 42.3476 75.2512 41.125M74.7745 44.4951L75.2512 41.125M75.2512 41.125C75.7713 39.91 76.6107 38.7427 77.6336 37.909M75.2512 41.125L77.6336 37.909M77.6336 37.909C78.6642 37.0699 79.6364 36.7647 80.3576 36.8459C81.0352 36.9222 81.5779 37.3466 81.8135 38.2188C82.0623 39.1409 81.9057 40.3628 81.387 41.605C80.8719 42.8387 80.0237 44.0324 78.9746 44.8871L77.6336 37.909Z" fill="#56EBFF" stroke="#252525"/>
<path d="M103.765 28.7627L103.765 28.7626C102.856 28.2348 101.873 27.3457 101.027 26.3227C100.179 25.2993 99.4992 24.1797 99.1682 23.2128L99.1681 23.2128C99.0022 22.7285 98.9504 22.3599 98.9681 22.1023C98.9856 21.8485 99.0645 21.747 99.1195 21.7046C99.1781 21.6595 99.3096 21.6045 99.5829 21.6462C99.8564 21.6879 100.223 21.8214 100.678 22.0857C101.586 22.6137 102.57 23.5031 103.417 24.5261C104.264 25.5497 104.944 26.6694 105.276 27.6362C105.441 28.1204 105.493 28.4889 105.475 28.7466C105.458 29.0002 105.379 29.1017 105.324 29.1441C105.265 29.1892 105.133 29.2442 104.86 29.2025C104.586 29.1606 104.219 29.0271 103.765 28.7627Z" fill="#F9F8F4" stroke="#252525"/>
<path d="M113.056 36.1677C113.903 37.1911 114.583 38.3106 114.914 39.2772L114.914 39.2773C115.08 39.7616 115.132 40.1302 115.114 40.3879C115.097 40.6415 115.017 40.743 114.962 40.7854C114.904 40.8306 114.772 40.8856 114.498 40.8439C114.225 40.8021 113.858 40.6687 113.403 40.4044C112.495 39.8769 111.512 38.9877 110.666 37.9647C109.818 36.9411 109.138 35.8212 108.807 34.8539L108.807 34.8537C108.641 34.3695 108.589 34.001 108.607 33.7434C108.624 33.4898 108.703 33.3884 108.758 33.3461C108.817 33.301 108.948 33.246 109.222 33.2877C109.495 33.3295 109.862 33.4629 110.317 33.7272L110.317 33.7273C111.226 34.2552 112.209 35.1446 113.056 36.1677Z" fill="#F9F8F4" stroke="#252525"/>
<path d="M124.53 50.8548C124.19 49.9029 123.522 48.8097 122.693 47.8086C121.846 46.7856 120.863 45.8962 119.955 45.3685L119.955 45.3685C119.5 45.1041 119.133 44.9706 118.859 44.9287C118.585 44.8869 118.454 44.9419 118.395 44.987C118.34 45.0293 118.261 45.1307 118.244 45.3841C118.226 45.6416 118.277 46.01 118.443 46.4941L124.53 50.8548ZM124.53 50.8548L124.551 50.9186C124.717 51.4025 124.769 51.7709 124.751 52.0285C124.733 52.2821 124.654 52.3838 124.599 52.4262C124.541 52.4714 124.409 52.5265 124.136 52.4848C123.862 52.4431 123.495 52.3097 123.04 52.0454L124.53 50.8548ZM120.302 49.6049C121.149 50.628 122.132 51.5174 123.04 52.0454L120.302 49.6049ZM120.302 49.6049C119.455 48.5813 118.775 47.4614 118.443 46.4942L120.302 49.6049Z" fill="#F9F8F4" stroke="#252525"/>
<ellipse cx="22.7568" cy="30.5879" rx="6.87983" ry="6.85682" fill="#F9F8F4"/>
<ellipse cx="157.708" cy="107.068" rx="5.29218" ry="5.27448" fill="#56EBFF"/>
<ellipse cx="31.7534" cy="20.5664" rx="3.17531" ry="3.16469" fill="#56EBFF"/>
</svg>
