<svg width="156" height="78" viewBox="0 0 156 78" fill="none" xmlns="http://www.w3.org/2000/svg">
<g clip-path="url(#clip0_2626_2339)">
<path d="M26.7516 56.1922C21.5964 47.2632 24.6547 35.8459 33.5831 30.6911C42.5115 25.5363 53.9281 28.596 59.0834 37.5254C64.158 46.3147 61.2734 57.5153 52.6661 62.7799C65.7369 54.936 70.1511 38.0288 62.4989 24.7748C54.7661 11.3811 37.6409 6.79145 24.2487 14.5235C10.8565 22.2555 6.26867 39.3811 14.0015 52.7748C21.6537 66.0288 38.5032 70.6594 51.8313 63.2619C42.9684 68.0837 31.8261 64.9815 26.7516 56.1922Z" fill="#F9F8F4"/>
</g>
<g clip-path="url(#clip1_2626_2339)">
<path d="M106.002 56.192C100.846 47.2631 103.905 35.8458 112.833 30.691C121.761 25.5362 133.178 28.5959 138.333 37.5252C143.408 46.3146 140.523 57.5152 131.916 62.7798C144.987 54.9358 149.401 38.0287 141.749 24.7746C134.016 11.381 116.891 6.79133 103.499 14.5233C90.1065 22.2553 85.5187 39.381 93.2515 52.7746C100.904 66.0287 117.753 70.6592 131.081 63.2618C122.218 68.0836 111.076 64.9814 106.002 56.192Z" fill="#F9F8F4"/>
</g>
<defs>
<clipPath id="clip0_2626_2339">
<rect width="56" height="56" fill="white" transform="translate(28 77.0209) rotate(-120)"/>
</clipPath>
<clipPath id="clip1_2626_2339">
<rect width="56" height="56" fill="white" transform="translate(107.25 77.0208) rotate(-120)"/>
</clipPath>
</defs>
</svg>
