<svg width="24" height="22" viewBox="0 0 24 22" fill="none" xmlns="http://www.w3.org/2000/svg">
<mask id="mask0_4745_13725" style="mask-type:alpha" maskUnits="userSpaceOnUse" x="0" y="0" width="24" height="22">
<path d="M17.8969 17.9818L17.8983 17.9807C20.3814 15.9057 23.372 12.5316 23.4945 8.04436C23.5509 6.53174 23.1695 5.03502 22.3998 3.76615C21.6293 2.49611 20.5065 1.51544 19.1849 0.972028C17.8624 0.428259 16.414 0.352759 15.0484 0.757637C13.8812 1.1037 12.8307 1.78384 12.0011 2.71575C11.1915 1.80599 10.1711 1.13568 9.03618 0.782095C7.7037 0.366948 6.28537 0.411043 4.97763 0.907579C3.67069 1.40381 2.54385 2.32521 1.74575 3.53761C0.9486 4.74855 0.515945 6.19367 0.501889 7.67591L0.500145 7.7482L0.5 7.7482V7.76026C0.5 12.3434 3.51367 15.7952 6.02494 17.9151L6.02656 17.9164C7.49937 19.149 9.08592 20.2124 10.761 21.0893C10.8996 21.1632 11.0396 21.2339 11.181 21.3013L11.2763 21.3792H11.3569C11.5626 21.4591 11.781 21.5004 12.0022 21.5C12.223 21.4996 12.4409 21.4576 12.6461 21.3772H12.6749L12.7805 21.3196L12.7891 21.3156C12.7901 21.3151 12.7914 21.3146 12.7928 21.3139C12.81 21.3063 12.8558 21.286 12.9034 21.2605C14.6724 20.3671 16.3466 19.2677 17.8969 17.9818Z" fill="#212121" stroke="#F9F8F4"/>
</mask>
<g mask="url(#mask0_4745_13725)">
<path d="M29.484 -0.507952C29.484 1.53766 22.4238 1.53766 22.4238 -0.507952C22.4238 -2.55356 24.0173 -4.23682 25.9538 -4.23682C27.8903 -4.23682 29.484 -2.55356 29.484 -0.507952Z" fill="#252525" stroke="#F9F8F4" stroke-width="0.3" stroke-miterlimit="10"/>
<path d="M24.9911 -0.507952C24.9911 1.53766 17.2891 1.53766 17.2891 -0.507952C17.2891 -2.55356 19.0274 -4.23682 21.14 -4.23682C23.2525 -4.23682 24.9909 -2.55356 24.9909 -0.507952H24.9911Z" fill="#252525" stroke="#F9F8F4" stroke-width="0.3" stroke-miterlimit="10"/>
<path d="M26.9169 2.7816C26.9169 4.82721 19.2148 4.82721 19.2148 2.7816C19.2148 0.735986 20.9532 -0.947266 23.0657 -0.947266C25.1783 -0.947266 26.9166 0.735986 26.9166 2.7816H26.9169Z" fill="#D2FF00" stroke="#F9F8F4" stroke-width="0.3" stroke-miterlimit="10"/>
<path d="M21.1396 -0.507879C21.1396 1.53764 13.4375 1.53764 13.4375 -0.507879C13.4375 -2.55339 15.1761 -4.23682 17.2887 -4.23682C19.4012 -4.23682 21.1396 -2.55339 21.1396 -0.507879Z" fill="#252525" stroke="#F9F8F4" stroke-width="0.3" stroke-miterlimit="10"/>
<path d="M23.0653 2.78167C23.0653 4.82719 15.3633 4.82719 15.3633 2.78167C15.3633 0.736156 17.1019 -0.947266 19.2144 -0.947266C21.327 -0.947266 23.0653 0.736156 23.0653 2.78167Z" fill="#252525" stroke="#F9F8F4" stroke-width="0.3" stroke-miterlimit="10"/>
<path d="M17.2887 -0.507952C17.2887 1.53766 10.2285 1.53766 10.2285 -0.507952C10.2285 -2.55357 11.822 -4.23682 13.7585 -4.23682C15.695 -4.23682 17.2887 -2.55357 17.2887 -0.507952Z" fill="#252525" stroke="#F9F8F4" stroke-width="0.3" stroke-miterlimit="10"/>
<path d="M19.2145 2.7816C19.2145 4.82721 12.1543 4.82721 12.1543 2.7816C12.1543 0.735986 13.7478 -0.947266 15.6843 -0.947266C17.6208 -0.947266 19.2145 0.735986 19.2145 2.7816Z" fill="#252525" stroke="#F9F8F4" stroke-width="0.3" stroke-miterlimit="10"/>
<path d="M12.7965 -0.507952C12.7965 1.53766 5.73633 1.53766 5.73633 -0.507952C5.73633 -2.55356 7.32981 -4.23682 9.26632 -4.23682C11.2028 -4.23682 12.7965 -2.55356 12.7965 -0.507952Z" fill="#252525" stroke="#F9F8F4" stroke-width="0.3" stroke-miterlimit="10"/>
<path d="M14.7223 2.7816C14.7223 4.82721 7.66211 4.82721 7.66211 2.7816C7.66211 0.735986 9.25559 -0.947266 11.1921 -0.947266C13.1286 -0.947266 14.7223 0.735986 14.7223 2.7816Z" fill="#252525" stroke="#F9F8F4" stroke-width="0.3" stroke-miterlimit="10"/>
<path d="M8.30362 -0.507952C8.30362 1.53766 0.601562 1.53766 0.601562 -0.507952C0.601562 -2.55356 2.3399 -4.23682 4.45246 -4.23682C6.56502 -4.23682 8.30336 -2.55356 8.30336 -0.507952H8.30362Z" fill="#252525" stroke="#F9F8F4" stroke-width="0.3" stroke-miterlimit="10"/>
<path d="M10.2294 2.7816C10.2294 4.82721 2.52734 4.82721 2.52734 2.7816C2.52734 0.735986 4.26568 -0.947266 6.37824 -0.947266C8.4908 -0.947266 10.2291 0.735986 10.2291 2.7816H10.2294Z" fill="#252525" stroke="#F9F8F4" stroke-width="0.3" stroke-miterlimit="10"/>
<path d="M4.45206 -0.507879C4.45206 1.53764 -3.25 1.53764 -3.25 -0.507879C-3.25 -2.55339 -1.5114 -4.23682 0.601159 -4.23682C2.71372 -4.23682 4.45206 -2.55339 4.45206 -0.507879Z" fill="#252525" stroke="#F9F8F4" stroke-width="0.3" stroke-miterlimit="10"/>
<path d="M6.37784 2.78167C6.37784 4.82719 -1.32422 4.82719 -1.32422 2.78167C-1.32422 0.736156 0.414379 -0.947266 2.52694 -0.947266C4.6395 -0.947266 6.37784 0.736156 6.37784 2.78167Z" fill="#252525" stroke="#F9F8F4" stroke-width="0.3" stroke-miterlimit="10"/>
<path d="M-0.0413408 -0.507879C-0.0413408 1.53764 -7.10156 1.53764 -7.10156 -0.507879C-7.10156 -2.55339 -5.50808 -4.23682 -3.57133 -4.23682C-1.63458 -4.23682 -0.0413408 -2.55339 -0.0413408 -0.507879Z" fill="#D2FF00" stroke="#F9F8F4" stroke-width="0.3" stroke-miterlimit="10"/>
<path d="M1.88444 2.78167C1.88444 4.82719 -5.17578 4.82719 -5.17578 2.78167C-5.17578 0.736156 -3.5823 -0.947266 -1.64555 -0.947266C0.291199 -0.947266 1.88444 0.736156 1.88444 2.78167Z" fill="#252525" stroke="#F9F8F4" stroke-width="0.3" stroke-miterlimit="10"/>
<path d="M28.8415 6.07066C28.8415 8.11627 21.7812 8.11627 21.7812 6.07066C21.7812 4.02505 23.3747 2.3418 25.3112 2.3418C27.2478 2.3418 28.8415 4.02505 28.8415 6.07066Z" fill="#252525" stroke="#F9F8F4" stroke-width="0.3" stroke-miterlimit="10"/>
<path d="M30.7673 9.36021C30.7673 11.4058 23.707 11.4058 23.707 9.36021C23.707 7.3146 25.3005 5.63135 27.237 5.63135C29.1735 5.63135 30.7673 7.3146 30.7673 9.36021Z" fill="#252525" stroke="#F9F8F4" stroke-width="0.3" stroke-miterlimit="10"/>
<path d="M24.3485 6.07066C24.3485 8.11627 16.6465 8.11627 16.6465 6.07066C16.6465 4.02505 18.3848 2.3418 20.4974 2.3418C22.6099 2.3418 24.3483 4.02505 24.3483 6.07066H24.3485Z" fill="#252525" stroke="#F9F8F4" stroke-width="0.3" stroke-miterlimit="10"/>
<path d="M26.2743 9.36021C26.2743 11.4058 18.5723 11.4058 18.5723 9.36021C18.5723 7.3146 20.3106 5.63135 22.4232 5.63135C24.5357 5.63135 26.2741 7.3146 26.2741 9.36021H26.2743Z" fill="#252525" stroke="#F9F8F4" stroke-width="0.3" stroke-miterlimit="10"/>
<path d="M20.4989 6.07073C20.4989 8.11625 12.7969 8.11625 12.7969 6.07073C12.7969 4.02522 14.5355 2.3418 16.648 2.3418C18.7606 2.3418 20.4989 4.02522 20.4989 6.07073Z" fill="#D2FF00" stroke="#F9F8F4" stroke-width="0.3" stroke-miterlimit="10"/>
<path d="M22.4228 9.36029C22.4228 11.4058 14.7207 11.4058 14.7207 9.36029C14.7207 7.31477 16.4593 5.63135 18.5719 5.63135C20.6844 5.63135 22.4228 7.31477 22.4228 9.36029Z" fill="#252525" stroke="#F9F8F4" stroke-width="0.3" stroke-miterlimit="10"/>
<path d="M16.6462 6.07066C16.6462 8.11627 9.58594 8.11627 9.58594 6.07066C9.58594 4.02505 11.1794 2.3418 13.1159 2.3418C15.0524 2.3418 16.6462 4.02505 16.6462 6.07066Z" fill="#252525" stroke="#F9F8F4" stroke-width="0.3" stroke-miterlimit="10"/>
<path d="M18.5719 9.36021C18.5719 11.4058 11.5117 11.4058 11.5117 9.36021C11.5117 7.3146 13.1052 5.63135 15.0417 5.63135C16.9782 5.63135 18.5719 7.3146 18.5719 9.36021Z" fill="#252525" stroke="#F9F8F4" stroke-width="0.3" stroke-miterlimit="10"/>
<path d="M12.154 6.07066C12.154 8.11627 5.09375 8.11627 5.09375 6.07066C5.09375 4.02505 6.68723 2.3418 8.62374 2.3418C10.5603 2.3418 12.154 4.02505 12.154 6.07066Z" fill="#252525" stroke="#F9F8F4" stroke-width="0.3" stroke-miterlimit="10"/>
<path d="M14.0798 9.36021C14.0798 11.4058 7.01953 11.4058 7.01953 9.36021C7.01953 7.3146 8.61301 5.63135 10.5495 5.63135C12.486 5.63135 14.0798 7.3146 14.0798 9.36021Z" fill="#252525" stroke="#F9F8F4" stroke-width="0.3" stroke-miterlimit="10"/>
<path d="M7.66104 6.07066C7.66104 8.11627 -0.0410156 8.11627 -0.0410156 6.07066C-0.0410156 4.02505 1.69732 2.3418 3.80988 2.3418C5.92244 2.3418 7.66078 4.02505 7.66078 6.07066H7.66104Z" fill="#252525" stroke="#F9F8F4" stroke-width="0.3" stroke-miterlimit="10"/>
<path d="M9.58487 9.36021C9.58487 11.4058 1.88281 11.4058 1.88281 9.36021C1.88281 7.3146 3.62115 5.63135 5.73371 5.63135C7.84627 5.63135 9.58461 7.3146 9.58461 9.36021H9.58487Z" fill="#252525" stroke="#F9F8F4" stroke-width="0.3" stroke-miterlimit="10"/>
<path d="M3.80948 6.07073C3.80948 8.11625 -3.89258 8.11625 -3.89258 6.07073C-3.89258 4.02522 -2.15398 2.3418 -0.0414193 2.3418C2.07114 2.3418 3.80948 4.02522 3.80948 6.07073Z" fill="#252525" stroke="#F9F8F4" stroke-width="0.3" stroke-miterlimit="10"/>
<path d="M5.73722 9.36029C5.73722 11.4058 -1.96484 11.4058 -1.96484 9.36029C-1.96484 7.31477 -0.226246 5.63135 1.88632 5.63135C3.99888 5.63135 5.73722 7.31477 5.73722 9.36029Z" fill="#D2FF00" stroke="#F9F8F4" stroke-width="0.3" stroke-miterlimit="10"/>
<path d="M1.24186 9.36029C1.24186 11.4058 -5.81836 11.4058 -5.81836 9.36029C-5.81836 7.31477 -4.22488 5.63135 -2.28813 5.63135C-0.351379 5.63135 1.24186 7.31477 1.24186 9.36029Z" fill="#252525" stroke="#F9F8F4" stroke-width="0.3" stroke-miterlimit="10"/>
<path d="M29.484 11.992C29.484 14.0377 22.4238 14.0377 22.4238 11.992C22.4238 9.94644 24.0173 8.26318 25.9538 8.26318C27.8903 8.26318 29.484 9.94644 29.484 11.992Z" fill="#D2FF00" stroke="#F9F8F4" stroke-width="0.3" stroke-miterlimit="10"/>
<path d="M24.9911 11.992C24.9911 14.0377 17.2891 14.0377 17.2891 11.992C17.2891 9.94644 19.0274 8.26318 21.14 8.26318C23.2525 8.26318 24.9909 9.94644 24.9909 11.992H24.9911Z" fill="#252525" stroke="#F9F8F4" stroke-width="0.3" stroke-miterlimit="10"/>
<path d="M26.9169 15.2811C26.9169 17.3267 19.2148 17.3267 19.2148 15.2811C19.2148 13.2355 20.9532 11.5522 23.0657 11.5522C25.1783 11.5522 26.9166 13.2355 26.9166 15.2811H26.9169Z" fill="#252525" stroke="#F9F8F4" stroke-width="0.3" stroke-miterlimit="10"/>
<path d="M21.1396 11.9921C21.1396 14.0376 13.4375 14.0376 13.4375 11.9921C13.4375 9.94661 15.1761 8.26318 17.2887 8.26318C19.4012 8.26318 21.1396 9.94661 21.1396 11.9921Z" fill="#252525" stroke="#F9F8F4" stroke-width="0.3" stroke-miterlimit="10"/>
<path d="M23.0653 15.2812C23.0653 17.3267 15.3633 17.3267 15.3633 15.2812C15.3633 13.2357 17.1019 11.5522 19.2144 11.5522C21.327 11.5522 23.0653 13.2357 23.0653 15.2812Z" fill="#252525" stroke="#F9F8F4" stroke-width="0.3" stroke-miterlimit="10"/>
<path d="M17.2887 11.992C17.2887 14.0377 10.2285 14.0377 10.2285 11.992C10.2285 9.94643 11.822 8.26318 13.7585 8.26318C15.695 8.26318 17.2887 9.94643 17.2887 11.992Z" fill="#252525" stroke="#F9F8F4" stroke-width="0.3" stroke-miterlimit="10"/>
<path d="M19.2145 15.2811C19.2145 17.3267 12.1543 17.3267 12.1543 15.2811C12.1543 13.2355 13.7478 11.5522 15.6843 11.5522C17.6208 11.5522 19.2145 13.2355 19.2145 15.2811Z" fill="#252525" stroke="#F9F8F4" stroke-width="0.3" stroke-miterlimit="10"/>
<path d="M12.7965 11.992C12.7965 14.0377 5.73633 14.0377 5.73633 11.992C5.73633 9.94644 7.32981 8.26318 9.26632 8.26318C11.2028 8.26318 12.7965 9.94644 12.7965 11.992Z" fill="#252525" stroke="#F9F8F4" stroke-width="0.3" stroke-miterlimit="10"/>
<path d="M14.7223 15.2811C14.7223 17.3267 7.66211 17.3267 7.66211 15.2811C7.66211 13.2355 9.25559 11.5522 11.1921 11.5522C13.1286 11.5522 14.7223 13.2355 14.7223 15.2811Z" fill="#D2FF00" stroke="#F9F8F4" stroke-width="0.3" stroke-miterlimit="10"/>
<path d="M8.30362 11.992C8.30362 14.0377 0.601562 14.0377 0.601562 11.992C0.601562 9.94644 2.3399 8.26318 4.45246 8.26318C6.56502 8.26318 8.30336 9.94644 8.30336 11.992H8.30362Z" fill="#252525" stroke="#F9F8F4" stroke-width="0.3" stroke-miterlimit="10"/>
<path d="M10.2294 15.2816C10.2294 17.3272 2.52734 17.3272 2.52734 15.2816C2.52734 13.236 4.26568 11.5527 6.37824 11.5527C8.4908 11.5527 10.2291 13.236 10.2291 15.2816H10.2294Z" fill="#252525" stroke="#F9F8F4" stroke-width="0.3" stroke-miterlimit="10"/>
<path d="M4.45206 11.9921C4.45206 14.0376 -3.25 14.0376 -3.25 11.9921C-3.25 9.94661 -1.5114 8.26318 0.601159 8.26318C2.71372 8.26318 4.45206 9.94661 4.45206 11.9921Z" fill="#252525" stroke="#F9F8F4" stroke-width="0.3" stroke-miterlimit="10"/>
<path d="M6.37784 15.2817C6.37784 17.3272 -1.32422 17.3272 -1.32422 15.2817C-1.32422 13.2362 0.414379 11.5527 2.52694 11.5527C4.6395 11.5527 6.37784 13.2362 6.37784 15.2817Z" fill="#252525" stroke="#F9F8F4" stroke-width="0.3" stroke-miterlimit="10"/>
<path d="M-0.0413408 11.9921C-0.0413408 14.0376 -7.10156 14.0376 -7.10156 11.9921C-7.10156 9.94661 -5.50808 8.26318 -3.57133 8.26318C-1.63458 8.26318 -0.0413408 9.94661 -0.0413408 11.9921Z" fill="#252525" stroke="#F9F8F4" stroke-width="0.3" stroke-miterlimit="10"/>
<path d="M1.88444 15.2812C1.88444 17.3267 -5.17578 17.3267 -5.17578 15.2812C-5.17578 13.2357 -3.5823 11.5522 -1.64555 11.5522C0.291199 11.5522 1.88444 13.2357 1.88444 15.2812Z" fill="#252525" stroke="#F9F8F4" stroke-width="0.3" stroke-miterlimit="10"/>
<path d="M28.7204 18.7289C28.7204 20.7745 21.6602 20.7745 21.6602 18.7289C21.6602 16.6833 23.2536 15 25.1901 15C27.1267 15 28.7204 16.6833 28.7204 18.7289Z" fill="#D2FF00" stroke="#F9F8F4" stroke-width="0.3" stroke-miterlimit="10"/>
<path d="M30.6442 22.0184C30.6442 24.064 23.584 24.064 23.584 22.0184C23.584 19.9728 25.1775 18.2896 27.114 18.2896C29.0505 18.2896 30.6442 19.9728 30.6442 22.0184Z" fill="#252525" stroke="#F9F8F4" stroke-width="0.3" stroke-miterlimit="10"/>
<path d="M24.2255 18.7289C24.2255 20.7745 16.5234 20.7745 16.5234 18.7289C16.5234 16.6833 18.2618 15 20.3743 15C22.4869 15 24.2252 16.6833 24.2252 18.7289H24.2255Z" fill="#252525" stroke="#F9F8F4" stroke-width="0.3" stroke-miterlimit="10"/>
<path d="M26.1513 22.0179C26.1513 24.0635 18.4492 24.0635 18.4492 22.0179C18.4492 19.9723 20.1876 18.2891 22.3001 18.2891C24.4127 18.2891 26.151 19.9723 26.151 22.0179H26.1513Z" fill="#252525" stroke="#F9F8F4" stroke-width="0.3" stroke-miterlimit="10"/>
<path d="M20.3759 18.7289C20.3759 20.7745 12.6738 20.7745 12.6738 18.7289C12.6738 16.6834 14.4124 15 16.525 15C18.6375 15 20.3759 16.6834 20.3759 18.7289Z" fill="#252525" stroke="#F9F8F4" stroke-width="0.3" stroke-miterlimit="10"/>
<path d="M22.2997 22.018C22.2997 24.0635 14.5977 24.0635 14.5977 22.018C14.5977 19.9725 16.3363 18.2891 18.4488 18.2891C20.5614 18.2891 22.2997 19.9725 22.2997 22.018Z" fill="#252525" stroke="#F9F8F4" stroke-width="0.3" stroke-miterlimit="10"/>
<path d="M16.5251 18.7289C16.5251 20.7745 9.46484 20.7745 9.46484 18.7289C9.46484 16.6833 11.0583 15 12.9948 15C14.9313 15 16.5251 16.6833 16.5251 18.7289Z" fill="#252525" stroke="#F9F8F4" stroke-width="0.3" stroke-miterlimit="10"/>
<path d="M18.4508 22.0179C18.4508 24.0635 11.3906 24.0635 11.3906 22.0179C11.3906 19.9723 12.9841 18.2891 14.9206 18.2891C16.8571 18.2891 18.4508 19.9723 18.4508 22.0179Z" fill="#252525" stroke="#F9F8F4" stroke-width="0.3" stroke-miterlimit="10"/>
<path d="M12.0329 18.7289C12.0329 20.7745 4.97266 20.7745 4.97266 18.7289C4.97266 16.6833 6.56614 15 8.50265 15C10.4392 15 12.0329 16.6833 12.0329 18.7289Z" fill="#252525" stroke="#F9F8F4" stroke-width="0.3" stroke-miterlimit="10"/>
<path d="M13.9587 22.0179C13.9587 24.0635 6.89844 24.0635 6.89844 22.0179C6.89844 19.9723 8.49192 18.2891 10.4284 18.2891C12.3649 18.2891 13.9587 19.9723 13.9587 22.0179Z" fill="#252525" stroke="#F9F8F4" stroke-width="0.3" stroke-miterlimit="10"/>
<path d="M7.538 18.7289C7.538 20.7745 -0.164062 20.7745 -0.164062 18.7289C-0.164062 16.6833 1.57428 15 3.68684 15C5.7994 15 7.53774 16.6833 7.53774 18.7289H7.538Z" fill="#252525" stroke="#F9F8F4" stroke-width="0.3" stroke-miterlimit="10"/>
<path d="M9.46378 22.0184C9.46378 24.064 1.76172 24.064 1.76172 22.0184C1.76172 19.9728 3.50006 18.2896 5.61262 18.2896C7.72518 18.2896 9.46352 19.9728 9.46352 22.0184H9.46378Z" fill="#252525" stroke="#F9F8F4" stroke-width="0.3" stroke-miterlimit="10"/>
<path d="M3.68644 18.7289C3.68644 20.7745 -4.01562 20.7745 -4.01562 18.7289C-4.01562 16.6834 -2.27703 15 -0.164466 15C1.94809 15 3.68644 16.6834 3.68644 18.7289Z" fill="#252525" stroke="#F9F8F4" stroke-width="0.3" stroke-miterlimit="10"/>
<path d="M5.61417 22.0185C5.61417 24.064 -2.08789 24.064 -2.08789 22.0185C-2.08789 19.973 -0.349293 18.2896 1.76327 18.2896C3.87583 18.2896 5.61417 19.973 5.61417 22.0185Z" fill="#252525" stroke="#F9F8F4" stroke-width="0.3" stroke-miterlimit="10"/>
<path d="M1.11882 22.018C1.11882 24.0635 -5.94141 24.0635 -5.94141 22.018C-5.94141 19.9725 -4.34793 18.2891 -2.41118 18.2891C-0.474426 18.2891 1.11882 19.9725 1.11882 22.018Z" fill="#252525" stroke="#F9F8F4" stroke-width="0.3" stroke-miterlimit="10"/>
<path d="M29.361 25.3075C29.361 27.3531 22.3008 27.3531 22.3008 25.3075C22.3008 23.2619 23.8943 21.5786 25.8308 21.5786C27.7673 21.5786 29.361 23.2619 29.361 25.3075Z" fill="#252525" stroke="#F9F8F4" stroke-width="0.3" stroke-miterlimit="10"/>
<path d="M24.87 25.3075C24.87 27.3531 17.168 27.3531 17.168 25.3075C17.168 23.2619 18.9063 21.5786 21.0189 21.5786C23.1314 21.5786 24.8698 23.2619 24.8698 25.3075H24.87Z" fill="#252525" stroke="#F9F8F4" stroke-width="0.3" stroke-miterlimit="10"/>
<path d="M21.0185 25.3076C21.0185 27.3531 13.3164 27.3531 13.3164 25.3076C13.3164 23.262 15.055 21.5786 17.1676 21.5786C19.2801 21.5786 21.0185 23.262 21.0185 25.3076Z" fill="#252525" stroke="#F9F8F4" stroke-width="0.3" stroke-miterlimit="10"/>
<path d="M17.1657 25.3075C17.1657 27.3531 10.1055 27.3531 10.1055 25.3075C10.1055 23.2619 11.6989 21.5786 13.6355 21.5786C15.572 21.5786 17.1657 23.2619 17.1657 25.3075Z" fill="#252525" stroke="#F9F8F4" stroke-width="0.3" stroke-miterlimit="10"/>
<path d="M12.6735 25.3075C12.6735 27.3531 5.61328 27.3531 5.61328 25.3075C5.61328 23.2619 7.20676 21.5786 9.14327 21.5786C11.0798 21.5786 12.6735 23.2619 12.6735 25.3075Z" fill="#252525" stroke="#F9F8F4" stroke-width="0.3" stroke-miterlimit="10"/>
<path d="M8.18253 25.3075C8.18253 27.3531 0.480469 27.3531 0.480469 25.3075C0.480469 23.2619 2.21881 21.5786 4.33137 21.5786C6.44393 21.5786 8.18227 23.2619 8.18227 25.3075H8.18253Z" fill="#D2FF00" stroke="#F9F8F4" stroke-width="0.3" stroke-miterlimit="10"/>
<path d="M4.33097 25.3076C4.33097 27.3531 -3.37109 27.3531 -3.37109 25.3076C-3.37109 23.262 -1.6325 21.5786 0.480065 21.5786C2.59263 21.5786 4.33097 23.262 4.33097 25.3076Z" fill="#252525" stroke="#F9F8F4" stroke-width="0.3" stroke-miterlimit="10"/>
</g>
<path d="M17.8969 17.9818L17.8983 17.9807C20.3814 15.9057 23.372 12.5316 23.4945 8.04436C23.5509 6.53174 23.1695 5.03502 22.3998 3.76615C21.6293 2.49611 20.5065 1.51544 19.1849 0.972028C17.8624 0.428259 16.414 0.352759 15.0484 0.757637C13.8812 1.1037 12.8307 1.78384 12.0011 2.71575C11.1915 1.80599 10.1711 1.13568 9.03618 0.782095C7.7037 0.366948 6.28537 0.411043 4.97763 0.907579C3.67069 1.40381 2.54385 2.32521 1.74575 3.53761C0.9486 4.74855 0.515945 6.19367 0.501889 7.67591L0.500145 7.7482L0.5 7.7482V7.76026C0.5 12.3434 3.51367 15.7952 6.02494 17.9151L6.02656 17.9164C7.49937 19.149 9.08592 20.2124 10.761 21.0893C10.8996 21.1632 11.0396 21.2339 11.181 21.3013L11.2763 21.3792H11.3569C11.5626 21.4591 11.781 21.5004 12.0022 21.5C12.223 21.4996 12.4409 21.4576 12.6461 21.3772H12.6749L12.7805 21.3196L12.7891 21.3156C12.7901 21.3151 12.7914 21.3146 12.7928 21.3139C12.81 21.3063 12.8558 21.286 12.9034 21.2605C14.6724 20.3671 16.3466 19.2677 17.8969 17.9818Z" stroke="#F9F8F4"/>
</svg>
