<svg width="16" height="16" viewBox="0 0 16 16" fill="none" xmlns="http://www.w3.org/2000/svg">
<path d="M3.30481 6.55343C3.36219 7.16034 3.03832 7.6867 2.5859 7.72312C2.13347 7.75898 1.71967 7.29662 1.66284 6.68971C1.60546 6.08225 1.92933 5.55644 2.38175 5.52002C2.83418 5.47975 3.24798 5.94155 3.30481 6.55343ZM5.89688 13.24C6.34931 13.2041 6.67263 12.6783 6.61525 12.0708C6.55842 11.4589 6.14406 10.9971 5.69219 11.038C5.23976 11.0738 4.91589 11.5996 4.97327 12.2071C5.0301 12.814 5.44501 13.2764 5.89688 13.24ZM13.0695 5.52002C13.5219 5.55589 13.8452 6.08169 13.7879 6.68916C13.731 7.30104 13.3167 7.76284 12.8642 7.72257C12.4118 7.68615 12.0885 7.16034 12.1459 6.55288C12.2027 5.94597 12.6171 5.48361 13.0695 5.52002ZM12.1326 9.44785C12.19 8.84094 11.8661 8.31458 11.4143 8.27817C10.9618 8.2423 10.548 8.70466 10.4907 9.31157C10.4333 9.91904 10.7571 10.4448 11.209 10.4813C11.6614 10.5215 12.0753 10.0597 12.1326 9.44785ZM9.75905 11.0374C10.2115 11.0733 10.5348 11.5991 10.4774 12.2065C10.4206 12.8184 10.0062 13.2802 9.55381 13.2394C9.10138 13.2035 8.77806 12.6777 8.83544 12.0703C8.89227 11.4634 9.30663 11.001 9.75905 11.0374Z" fill="#DCB8FF"/>
<path d="M6.55631 0.248963L1.37604 2.48516C1.25521 2.53923 1.14651 2.61206 1.05051 2.70034C0.750503 2.77378 0.483859 2.94588 0.29336 3.189C0.102861 3.43213 -0.000449917 3.7322 1.47291e-06 4.04106V11.8592C3.9823e-05 12.1807 0.0937187 12.4953 0.269594 12.7644C0.44547 13.0336 0.695928 13.2457 0.990373 13.3748L6.34279 15.7214C6.50666 15.7931 6.67383 15.8306 6.83936 15.8372C7.40958 16.0543 8.03966 16.0543 8.60989 15.8372C8.7743 15.8306 8.94203 15.7931 9.1059 15.7214L14.4578 13.3748C14.7524 13.2457 15.003 13.0336 15.179 12.7643C15.355 12.495 15.4487 12.1803 15.4487 11.8587V4.04051C15.4492 3.74362 15.3538 3.45452 15.1766 3.21629C14.9994 2.97806 14.75 2.80347 14.4655 2.71855C14.3687 2.62063 14.2546 2.5415 14.1289 2.48516L8.89293 0.248963C8.5253 0.0848304 8.12722 0 7.72462 0C7.32202 0 6.92394 0.0848304 6.55631 0.248963ZM7.17261 7.0679V14.459C7.17249 14.5047 7.161 14.5497 7.13917 14.5899C7.11734 14.6301 7.08585 14.6643 7.04755 14.6893C7.00924 14.7143 6.96531 14.7294 6.91973 14.7332C6.87414 14.737 6.82832 14.7294 6.78639 14.7111L1.43287 12.3646C1.33474 12.3214 1.25133 12.2505 1.19283 12.1607C1.13434 12.0708 1.10329 11.9659 1.10348 11.8587V4.04051C1.10353 3.99443 1.11513 3.94909 1.13722 3.90864C1.1593 3.86819 1.19117 3.83392 1.2299 3.80895C1.26864 3.78399 1.31302 3.76913 1.35898 3.76572C1.40494 3.76232 1.45101 3.77048 1.49301 3.78947L6.52321 6.06153C6.71685 6.14896 6.88113 6.29043 6.99633 6.46895C7.11152 6.64746 7.17273 6.85544 7.17261 7.0679ZM8.27608 14.459V7.0668C8.27606 6.85443 8.33733 6.64657 8.45251 6.46816C8.5677 6.28975 8.73193 6.14837 8.92548 6.06098L13.9557 3.78892C13.9977 3.76991 14.0438 3.76175 14.0899 3.76518C14.1359 3.76861 14.1803 3.78352 14.219 3.80855C14.2578 3.83358 14.2896 3.86793 14.3117 3.90845C14.3337 3.94898 14.3452 3.99438 14.3452 4.04051V11.8587C14.3451 11.9657 14.3139 12.0705 14.2553 12.1601C14.1967 12.2498 14.1133 12.3204 14.0153 12.3635L8.6623 14.7106C8.62035 14.729 8.57447 14.7367 8.5288 14.7329C8.48314 14.7292 8.43913 14.7141 8.40074 14.6891C8.36236 14.6641 8.33081 14.6299 8.30895 14.5896C8.28709 14.5493 8.27561 14.5043 8.27553 14.4584M7.72434 3.03469C6.81011 3.03469 6.06913 2.78751 6.06913 2.48295C6.06913 2.17839 6.81011 1.93121 7.72434 1.93121C8.63858 1.93121 9.37956 2.17839 9.37956 2.48295C9.37956 2.78751 8.63858 3.03469 7.72434 3.03469Z" fill="#DCB8FF"/>
</svg>
