<svg width="25" height="26" viewBox="0 0 25 26" fill="none" xmlns="http://www.w3.org/2000/svg">
<path d="M10.9822 4.79724H9.69879C9.38351 4.79818 9.07587 4.89429 8.81615 5.07303C8.55643 5.25177 8.35675 5.50476 8.24324 5.79892L7.57024 7.53617L5.25387 8.85088L3.40703 8.56915C3.09953 8.52742 2.78655 8.57803 2.50786 8.71459C2.22918 8.85114 1.99739 9.06747 1.84192 9.33606L1.21589 10.4316C1.05547 10.7045 0.981555 11.0196 1.00391 11.3354C1.02626 11.6511 1.14383 11.9527 1.3411 12.2002L2.51492 13.6558V16.2852L1.3724 17.7407C1.17513 17.9883 1.05756 18.2898 1.03521 18.6056C1.01286 18.9213 1.08677 19.2364 1.24719 19.5093L1.87323 20.6048C2.0287 20.8734 2.26049 21.0897 2.53915 21.2263C2.81784 21.3629 3.13084 21.4135 3.43834 21.3718L5.28518 21.0901L7.57024 22.4047L8.24324 24.142C8.35675 24.4361 8.55643 24.6892 8.81615 24.868C9.07587 25.0466 9.38351 25.1428 9.69879 25.1437H11.0135C11.3288 25.1428 11.6364 25.0466 11.8961 24.868C12.1559 24.6892 12.3555 24.4361 12.469 24.142L13.142 22.4047L15.4271 21.0901L17.2739 21.3718C17.5814 21.4135 17.8944 21.3629 18.1731 21.2263C18.4518 21.0897 18.6837 20.8734 18.8391 20.6048L19.4651 19.5093C19.6256 19.2364 19.6994 18.9213 19.6771 18.6056C19.6547 18.2898 19.5372 17.9883 19.3399 17.7407L18.1661 16.2852V14.5898M7.21026 14.9705C7.21026 15.5896 7.39385 16.1947 7.73781 16.7095C8.08176 17.2243 8.57062 17.6255 9.1426 17.8624C9.71457 18.0993 10.344 18.1613 10.9512 18.0405C11.5584 17.9197 12.1161 17.6216 12.5539 17.1839C12.9917 16.7461 13.2898 16.1883 13.4106 15.5811C13.5313 14.9739 13.4694 14.3445 13.2324 13.7726C12.9955 13.2006 12.5943 12.7117 12.0795 12.3678C11.5648 12.0238 10.9596 11.8402 10.3405 11.8402C9.5103 11.8402 8.71411 12.17 8.12708 12.7571C7.54005 13.3441 7.21026 14.1403 7.21026 14.9705Z" stroke="#212121" stroke-width="1.5" stroke-linecap="round" stroke-linejoin="round"/>
<path d="M13.4302 6.61253C12.8566 6.51275 12.8566 5.68937 13.4302 5.58958C15.5081 5.22808 17.1608 3.64535 17.6118 1.585L17.6463 1.42706C17.7706 0.86019 18.5776 0.856661 18.7067 1.42243L18.7487 1.60648C19.2165 3.65712 20.8695 5.22647 22.9418 5.58698C23.5183 5.68728 23.5183 6.51484 22.9418 6.61514C20.8695 6.97565 19.2165 8.545 18.7487 10.5956L18.7067 10.7797C18.5776 11.3455 17.7706 11.3419 17.6463 10.7751L17.6118 10.6171C17.1608 8.55677 15.5081 6.97404 13.4302 6.61253Z" stroke="#212121" stroke-width="1.5" stroke-linecap="round" stroke-linejoin="round"/>
</svg>
