<svg width="133" height="95" viewBox="0 0 133 95" fill="none" xmlns="http://www.w3.org/2000/svg">
<path d="M76.6523 38.1459V88.3698L85.2998 84.182V33.1211L76.6523 38.1459Z" fill="black"/>
<path d="M72.6981 40.4373L88.9664 30.984L40.4538 2.83749C35.8857 0.187079 30.4461 -0.625831 25.3418 0.730639C25.1906 0.770853 25.0385 0.813057 24.8858 0.857249C24.8858 0.857249 19.2107 2.7343 19.4032 6.85873C19.4731 8.35639 20.35 9.70005 21.6431 10.4593L72.6981 40.4373Z" fill="#DCB8FF"/>
<path d="M72.7046 40.5299C72.6884 40.5299 72.6723 40.5257 72.6577 40.5171L21.6027 10.5393C20.2417 9.7403 19.3874 8.36616 19.3173 6.86341C19.1237 2.71711 24.8056 0.789013 24.8631 0.77001C25.0198 0.724493 25.1723 0.682068 25.3244 0.641633C30.352 -0.694288 35.8858 0.0770812 40.5065 2.75776L89.0191 30.9042C89.0476 30.9208 89.0651 30.9513 89.0651 30.984C89.0651 31.0167 89.0476 31.0472 89.0191 31.0638L72.7508 40.5171C72.7364 40.5255 72.7205 40.5297 72.7043 40.5297L72.7046 40.5299ZM30.2895 0.184468C28.6294 0.184468 26.9749 0.394158 25.3719 0.820168C25.2214 0.860162 25.07 0.902144 24.9179 0.946115C24.8651 0.963792 19.3149 2.84836 19.5019 6.85457C19.5691 8.29457 20.3894 9.61259 21.6962 10.3798L72.7048 40.3306L88.789 30.9842L40.4139 2.91752C37.3087 1.11603 33.7875 0.184468 30.2895 0.184468Z" fill="black"/>
<path d="M85.3068 33.1206L35.5515 4.13862C35.5515 4.13862 31.3541 1.77015 26.7969 4.2533C26.126 4.61898 25.5988 5.22176 25.3972 5.95866C25.1598 6.82615 25.306 7.99304 27.01 9.02293L76.6594 38.1454L85.3068 33.1206Z" fill="black"/>
<path d="M79.9692 86.0924L82.2367 84.9816C82.2367 84.9816 83.1947 84.3324 83.2363 82.1681V39.1734C83.2363 39.1734 83.2352 39.0103 83.2151 38.7255C82.9443 34.8861 80.7666 31.4374 77.4432 29.4936L35.9711 5.23776C35.9711 5.23776 34.2841 4.37514 32.9722 5.10143L31.0703 6.33129L79.9692 86.0924Z" fill="white"/>
<path d="M79.9757 86.1861C79.9445 86.1861 79.9142 86.1702 79.897 86.1421L30.998 6.38105C30.9717 6.33818 30.9846 6.2825 31.0266 6.25532L32.9284 5.02546C34.2735 4.28105 35.949 5.12114 36.0197 5.15716L77.4965 29.4154C80.8671 31.3868 83.042 34.8654 83.3139 38.7205C83.334 39.0051 83.3353 39.1675 83.3353 39.1743V82.1697C83.2931 84.3586 82.3358 85.032 82.2951 85.0597L80.0163 86.1768C80.0033 86.1832 79.9894 86.1861 79.9757 86.1861ZM31.2025 6.36138L80.0104 85.974L82.2025 84.9003C82.2007 84.9003 83.1103 84.249 83.1505 82.1677V39.1748C83.1505 39.1748 83.1492 39.0115 83.1295 38.7333C82.8618 34.9392 80.7213 31.5152 77.4032 29.5747L35.9308 5.31912C35.9189 5.31315 34.2761 4.49008 33.0232 5.18367L31.2025 6.36138Z" fill="black"/>
<path d="M35.8117 7.28031L77.002 31.6312C77.002 31.6312 80.6258 34.2049 81.0007 38.2029V82.8158C81.0007 82.8158 81.3619 85.8003 79.3214 86.4276C78.6833 86.6238 77.9837 86.4994 77.4021 86.1547L33.4375 60.6005C33.4375 60.6005 30.1471 58.5966 30.1471 52.9283V8.84536C30.1471 8.84536 29.737 6.38255 31.9545 6.01134C32.6849 5.88915 33.4377 6.03719 34.111 6.362C34.5463 6.57191 35.1451 6.88059 35.8117 7.28031Z" fill="#FF5B23"/>
<path d="M78.6958 86.6136C78.2448 86.6136 77.7811 86.4848 77.3594 86.2349L33.3954 60.6809C33.3594 60.6591 32.5446 60.1546 31.7201 58.9426C30.9624 57.8283 30.059 55.8806 30.059 52.929V8.84626C30.0561 8.83588 29.6616 6.30324 31.9436 5.92098C32.6569 5.80188 33.4217 5.9254 34.1556 6.2796C34.7327 6.55801 35.307 6.86823 35.8631 7.20166L77.0534 31.5525C77.0965 31.5826 80.7225 34.2011 81.097 38.1952L81.0974 82.8167C81.1005 82.8363 81.4429 85.8743 79.3529 86.5166C79.1416 86.5816 78.9204 86.6134 78.6958 86.6136ZM32.4803 6.06151C32.3092 6.06151 32.1403 6.07521 31.9741 6.10305C29.8746 6.4546 30.2265 8.73424 30.2425 8.83102L30.2436 52.929C30.2436 55.8278 31.1262 57.7378 31.8667 58.8297C32.6689 60.0125 33.4816 60.5174 33.4898 60.5223L77.4526 86.0756C78.0404 86.4238 78.7128 86.5202 79.2983 86.3401C81.2424 85.7426 80.9166 82.8567 80.9131 82.8277L80.9124 38.2038C80.5461 34.3019 76.9884 31.7328 76.9526 31.7072L35.769 7.36053C35.769 7.36053 35.7688 7.36053 35.7685 7.36031C35.225 7.03417 34.6395 6.7182 34.0754 6.44598C33.5479 6.19165 33.0051 6.06151 32.4803 6.06151Z" fill="black"/>
<path d="M76.637 87.776L78.9045 86.6652C78.9045 86.6652 79.8625 86.016 79.9042 83.8517V40.857C79.9042 40.857 79.9031 40.6939 79.883 40.4091C79.6122 36.5699 77.4343 33.121 74.1111 31.1772L32.639 6.92136C32.639 6.92136 30.952 6.05873 29.6401 6.78502L27.7383 8.01488L76.6372 87.776H76.637Z" fill="white"/>
<path d="M76.6436 87.87C76.6125 87.87 76.5822 87.8541 76.5649 87.8258L27.666 8.06474C27.6397 8.0221 27.6525 7.96619 27.6945 7.93902L29.5964 6.70915C30.9412 5.96452 32.6167 6.80483 32.6874 6.84085L74.1642 31.0991C77.5349 33.0705 79.7097 36.5491 79.9816 40.4042C80.0017 40.6888 80.003 40.8512 80.003 40.858V83.8534C79.9608 86.0422 79.0035 86.7157 78.9628 86.7433L76.6841 87.8605C76.6711 87.8667 76.6571 87.8698 76.6434 87.8698L76.6436 87.87ZM27.8705 8.04508L76.6783 87.6577L78.8704 86.584C78.8687 86.584 79.7782 85.9326 79.8183 83.8516V40.8587C79.8183 40.8587 79.8169 40.6954 79.7973 40.4172C79.5296 36.6231 77.389 33.1991 74.0709 31.2586L32.599 7.00281C32.5871 6.99684 30.9443 6.17377 29.6914 6.86736L27.8705 8.04508Z" fill="black"/>
<path d="M32.4758 8.96393L73.6661 33.3148C73.6661 33.3148 77.2899 35.8885 77.6648 39.8866V84.4994C77.6648 84.4994 78.0259 87.4839 75.9855 88.1112C75.3473 88.3074 74.6477 88.183 74.0662 87.8383L30.1016 62.2841C30.1016 62.2841 26.8111 60.2802 26.8111 54.612V10.529C26.8111 10.529 26.4011 8.06617 28.6186 7.69496C29.3489 7.57277 30.1018 7.72059 30.7751 8.04562C31.2103 8.25553 31.8091 8.56421 32.4758 8.96393Z" fill="#FF5B23"/>
<path d="M75.3596 88.2971C74.9087 88.2971 74.4449 88.1683 74.0232 87.9184L30.0595 62.3645C30.0235 62.3426 29.2087 61.8384 28.3842 60.6262C27.6265 59.5119 26.7231 57.5641 26.7231 54.6128V10.5298C26.7202 10.5194 26.3256 7.98677 28.6077 7.60473C29.321 7.48519 30.086 7.60937 30.8197 7.96313C31.2162 8.15448 31.8345 8.46979 32.5277 8.88541L73.7175 33.236C73.7606 33.2661 77.3866 35.8847 77.761 39.8787L77.7615 84.5004C77.7646 84.5201 78.107 87.558 76.017 88.2004C75.8057 88.2653 75.5844 88.2974 75.3596 88.2974V88.2971ZM29.1444 7.74504C28.9733 7.74504 28.8042 7.75896 28.638 7.78658C26.5385 8.13813 26.8904 10.4175 26.9063 10.5145L26.9074 54.6125C26.9074 57.5113 27.79 59.4213 28.5305 60.5133C29.3327 61.6961 30.1457 62.201 30.1536 62.2058L74.1165 87.7591C74.704 88.1073 75.3766 88.2035 75.9622 88.0236C77.9045 87.4268 77.5804 84.5404 77.5769 84.5112L77.5762 39.8871C77.21 35.9852 73.6525 33.4161 73.6165 33.3907L32.4328 9.04406L32.4322 9.04384C31.7447 8.63175 31.132 8.31909 30.739 8.12951C30.2118 7.87519 29.6689 7.74526 29.1441 7.74526L29.1444 7.74504Z" fill="black"/>
<path d="M19.5156 7.51367V57.6626C19.5156 57.6626 19.6275 60.7386 21.9774 62.1928C24.3273 63.6469 69.8701 90.0078 69.8701 90.0078C69.8701 90.0078 72.22 90.9027 72.7795 87.6588C73.339 84.4149 72.7795 41.9093 72.7795 41.9093C72.7795 41.9093 73.0032 38.5536 69.4225 36.5402C65.8416 34.5271 19.5156 7.51367 19.5156 7.51367Z" fill="#DCB8FF"/>
<path d="M70.5811 90.2151C70.1679 90.2151 69.8651 90.1029 69.8437 90.0947C69.3748 89.8247 24.2593 63.7102 21.9352 62.2719C19.5707 60.8087 19.4308 57.6979 19.4297 57.6667V7.51418C19.4297 7.48104 19.4474 7.45055 19.4761 7.43419C19.5048 7.41762 19.54 7.41784 19.5687 7.43441C20.032 7.70465 65.9352 34.4706 69.4743 36.4605C71.3487 37.5145 72.1746 38.9395 72.5373 39.9493C72.931 41.0455 72.8806 41.8811 72.8781 41.916C72.8839 42.3339 73.4316 84.4598 72.877 87.675C72.6807 88.8125 72.2455 89.5805 71.5833 89.9579C71.2349 90.1564 70.8795 90.2149 70.5813 90.2149L70.5811 90.2151ZM69.9228 89.9283C69.9263 89.9283 70.7435 90.2251 71.4935 89.7964C72.1045 89.4473 72.5088 88.723 72.6949 87.6436C73.2466 84.445 72.6991 42.3361 72.6936 41.9112C72.696 41.871 72.8689 38.5811 69.3837 36.6212C65.9403 34.6851 22.4233 9.31257 19.6145 7.67482V57.6632C19.6156 57.6901 19.7531 60.7042 22.0325 62.1148C24.3543 63.5517 69.4674 89.6647 69.9228 89.9286V89.9283Z" fill="black"/>
<path d="M72.7044 40.4372L76.6487 38.1452L28.2564 9.76004C28.2564 9.76004 22.9739 7.31314 26.7864 4.25307L22.6797 1.91797C22.6797 1.91797 18.7376 4.04515 19.521 7.51266C19.521 7.51266 19.8567 9.30244 24.2385 11.9794L72.7044 40.4372Z" fill="#DCB8FF"/>
<path d="M72.7104 40.5299C72.6942 40.5299 72.6781 40.5257 72.6635 40.5171L24.1976 12.0595C19.8295 9.39098 19.45 7.60474 19.4361 7.53028C18.6472 4.03823 22.6016 1.85891 22.6417 1.83725C22.6697 1.82201 22.7035 1.82267 22.7312 1.83814L26.8379 4.17324C26.8645 4.18848 26.8819 4.21566 26.8844 4.24616C26.8868 4.27665 26.874 4.30648 26.8501 4.32548C25.8651 5.11607 25.4162 5.93141 25.5159 6.74896C25.7252 8.46494 28.2754 9.66497 28.301 9.67668L76.7013 38.066C76.7296 38.0826 76.747 38.1131 76.7468 38.1458C76.7468 38.1787 76.7294 38.209 76.7008 38.2253L72.7566 40.5173C72.7422 40.5257 72.7263 40.5299 72.7101 40.5299H72.7104ZM22.6856 2.02463C22.2588 2.27188 18.9027 4.33078 19.6171 7.49271C19.6211 7.51326 20.0146 9.28735 24.2926 11.9011L72.7108 40.3308L76.4716 38.1453L28.2157 9.83997C28.1147 9.79379 25.5543 8.58801 25.3329 6.77106C25.2285 5.91617 25.6649 5.07431 26.6299 4.26693L22.6856 2.02441V2.02463Z" fill="black"/>
<path d="M76.6445 38.1448V88.3686L73.0291 90.1195C73.0291 90.1195 71.5568 90.9821 69.8711 90.0064C69.8711 90.0064 72.3863 90.9704 72.8258 87.2817C72.8258 87.2817 72.9787 83.3515 72.9942 81.7478L72.7822 41.7223C72.7822 41.7223 72.788 41.1306 72.6069 40.382L76.6443 38.1445L76.6445 38.1448Z" fill="#DCB8FF"/>
<path d="M71.5565 90.5605C71.0483 90.5605 70.4521 90.4458 69.8312 90.0863C69.7895 90.0622 69.7735 90.0103 69.7941 89.9668C69.8149 89.9235 69.8653 89.9031 69.9104 89.9201C69.9188 89.9235 70.762 90.235 71.5227 89.775C72.18 89.3772 72.5899 88.5347 72.7404 87.2711C72.7413 87.2392 72.8929 83.3311 72.9082 81.7473L72.6962 41.7231C72.6962 41.7161 72.6995 41.1314 72.5235 40.4042C72.5138 40.3638 72.5322 40.322 72.5686 40.3017L76.606 38.0643C76.6345 38.0486 76.6694 38.0488 76.6977 38.0656C76.726 38.0822 76.7433 38.1124 76.7433 38.1451V88.369C76.7433 88.4044 76.7229 88.4366 76.6911 88.4521L73.0757 90.203C73.0702 90.2063 72.4493 90.5609 71.5565 90.5609V90.5605ZM70.5578 90.2136C71.8978 90.6595 72.9767 90.047 72.9888 90.0399L76.5585 88.3109V38.3018L72.7194 40.4292C72.8847 41.1469 72.8812 41.6995 72.881 41.7233L73.093 81.7475C73.0777 83.3353 72.9261 87.2461 72.9245 87.2854C72.766 88.6171 72.3262 89.5058 71.6164 89.9341C71.2486 90.1559 70.871 90.2153 70.5578 90.2136Z" fill="black"/>
<path d="M23.1406 1.77366C23.1406 1.77366 22.693 2.00434 22.2734 2.298L26.3042 4.52107C26.3042 4.52107 26.7805 4.24288 27.116 4.08401L23.1408 1.77344L23.1406 1.77366Z" fill="#DCB8FF"/>
<path d="M88.9813 30.9824V80.4984C88.9813 81.6608 88.3166 82.721 87.27 83.2279L85.3047 84.1798V33.1189L88.9813 30.9824Z" fill="#DCB8FF"/>
<path d="M85.3111 84.2726C85.2941 84.2726 85.2771 84.268 85.2621 84.2585C85.2351 84.2415 85.2188 84.2121 85.2188 84.1803V33.1194C85.2188 33.0865 85.2362 33.0562 85.2647 33.0396L88.9413 30.9032C88.9699 30.8866 89.0052 30.8864 89.0337 30.9029C89.0625 30.9195 89.0802 30.95 89.0802 30.9829V80.4989C89.0802 81.6887 88.3881 82.7926 87.3169 83.3114L85.3516 84.2631C85.3388 84.2693 85.3251 84.2724 85.3114 84.2724L85.3111 84.2726ZM85.4035 33.1724V84.0329L87.2362 83.1453C88.2442 82.6572 88.8954 81.6185 88.8954 80.4989V31.1433L85.4035 33.1724Z" fill="black"/>
<path d="M63.2773 54.8392V67.0826L68.406 70.4942C68.406 70.4942 71.763 72.6194 76.0711 70.8857C79.4478 69.5268 86.6396 66.4533 89.5916 64.5327C90.9482 63.6502 91.9091 61.9108 91.9225 60.2929C91.9225 60.2713 91.9228 60.2494 91.9228 60.2273V48.5195L72.192 57.3002L63.2773 54.8394V54.8392Z" fill="#DCB8FF"/>
<path d="M72.6479 71.6539C70.1116 71.6539 68.3872 70.5882 68.3629 70.573L63.2325 67.1603C63.2069 67.1433 63.1914 67.1143 63.1914 67.0834V54.84C63.1914 54.8111 63.2049 54.7841 63.2279 54.7664C63.2509 54.749 63.2807 54.7432 63.3083 54.751L72.191 57.2029L91.8914 48.4357C91.9199 48.4229 91.9531 48.4258 91.9792 48.4426C92.0055 48.4596 92.0212 48.4887 92.0212 48.5201V60.2939C92.0075 61.9352 91.0316 63.7102 89.6481 64.6106C86.7413 66.5016 79.7716 69.4989 76.1116 70.9718C74.8614 71.4749 73.6863 71.6537 72.6474 71.6537L72.6479 71.6539ZM63.3762 67.0337L68.4637 70.4181C68.4951 70.4378 71.8315 72.4958 76.0431 70.8006C79.6969 69.3301 86.6531 66.3392 89.5477 64.4559C90.8821 63.5876 91.8233 61.8754 91.8364 60.2926V60.2277L91.8366 48.6622L72.2358 57.385C72.2162 57.3939 72.1943 57.3954 72.1737 57.3897L63.3762 54.9611V67.0337Z" fill="black"/>
<path d="M63.2893 54.8392L66.1987 53.0494L70.3202 55.4543C70.3202 55.4543 71.6631 56.461 73.7891 55.8459C75.7183 55.2877 86.4405 49.0909 88.5123 47.9013C88.692 47.7981 88.795 47.6379 88.8622 47.4689C88.9318 47.2939 88.9614 47.1056 88.9661 46.9174L88.9794 46.38V43.5977C88.9794 43.5977 90.5421 45.1563 91.3635 46.2823C92.2004 47.4295 92.1904 49.1115 91.3571 49.9182C89.1628 52.0427 76.2694 58.3814 76.2694 58.3814C76.2694 58.3814 74.8664 59.1545 72.5848 59.0902C70.9526 59.0441 69.3664 58.5389 67.9719 57.69L63.2891 54.8394L63.2893 54.8392Z" fill="black"/>
<path d="M65.3555 59.9241L66.1121 59.5527C66.9653 59.1337 67.9698 59.145 68.8051 59.5984C69.0133 59.7115 69.2379 59.8481 69.4768 60.0134C70.9209 61.011 72.3435 63.4097 72.1101 65.9145C71.8765 68.4193 69.2007 68.5881 69.2007 68.5881L65.3555 59.9241Z" fill="black"/>
<path d="M67.0438 59.7877C65.9837 59.4434 64.8029 59.9271 64.3988 60.9656C64.1787 61.531 64.088 62.3336 64.2825 63.4717C64.9196 67.1971 68.3385 69.0108 69.7613 68.5025C71.0991 68.0248 71.4815 66.0826 70.6532 63.8856C69.8864 61.8512 68.5622 60.2806 67.0438 59.7877Z" fill="white"/>
<path d="M69.2344 68.6791C68.6708 68.6791 67.9793 68.4672 67.3056 68.0732C65.6889 67.128 64.5271 65.4142 64.1977 63.4887C64.0209 62.4544 64.0616 61.5947 64.3189 60.9336C64.7311 59.8741 65.9431 59.3327 67.0786 59.7015C68.5781 60.1883 69.9491 61.741 70.7457 63.8547C71.2766 65.2633 71.333 66.6071 70.9 67.5416C70.6617 68.056 70.2808 68.419 69.7983 68.5911C69.6325 68.6504 69.4418 68.6793 69.234 68.6793L69.2344 68.6791ZM66.3538 59.7707C65.5392 59.7707 64.7879 60.2387 64.4913 61.0005C64.2464 61.6303 64.2088 62.4569 64.3801 63.4576C64.7002 65.33 65.8288 66.9958 67.3991 67.9137C68.2753 68.4261 69.1712 68.6188 69.7368 68.417C70.1714 68.2617 70.516 67.9322 70.7329 67.4638C71.1451 66.574 71.087 65.2823 70.5733 63.9196C69.7961 61.8578 68.4685 60.3465 67.0218 59.8769C66.7999 59.8047 66.5744 59.7704 66.3538 59.7704V59.7707Z" fill="black"/>
<path d="M3.0122 71.2137C3.0122 71.2137 3.64639 76.1739 18.3607 76.1139C19.2189 76.1104 20.0767 76.0595 20.9289 75.9592C24.079 75.5888 31.4892 74.3728 32.6651 71.0463L32.5989 67.6328C32.5989 67.6328 30.8794 73.2435 17.4202 73.3339C17.4202 73.3339 4.24228 73.4795 2.85156 68.0013L3.01198 71.2139L3.0122 71.2137Z" fill="#FF5B23"/>
<path d="M18.1104 76.2063C13.929 76.2063 8.3745 75.7734 5.11842 73.7644C3.10627 72.5232 2.92583 71.2777 2.91901 71.2253C2.91879 71.2229 2.91857 71.2205 2.91835 71.2183L2.75793 68.0057C2.75551 67.9586 2.7894 67.9173 2.83605 67.9102C2.88248 67.9041 2.92715 67.9327 2.93882 67.9786C4.29587 73.3243 17.287 73.2433 17.4173 73.242C30.6562 73.1531 32.492 67.6614 32.509 67.606C32.5222 67.5629 32.5644 67.5354 32.6096 67.542C32.6542 67.5484 32.6879 67.586 32.6888 67.6313L32.755 71.045C32.755 71.056 32.7535 71.067 32.7497 71.0773C31.5564 74.4531 24.0916 75.6801 20.9376 76.051C20.0924 76.1504 19.225 76.2028 18.3591 76.2063C18.2768 76.2067 18.1936 76.2067 18.1104 76.2067V76.2063ZM3.10187 71.2044C3.1252 71.3443 4.06702 76.0893 18.3584 76.022C19.2173 76.0184 20.0779 75.9665 20.9163 75.868C24.0311 75.5017 31.3942 74.2978 32.5708 71.0313L32.5129 68.0497C32.2383 68.5712 31.5744 69.5428 30.1058 70.5259C26.5951 72.8758 21.2688 73.3999 17.4188 73.4259C17.3865 73.4263 14.076 73.4549 10.6386 72.8124C6.42288 72.0245 3.84961 70.6226 2.9738 68.6414L3.10187 71.2049V71.2044Z" fill="black"/>
<path d="M17.7844 73.3452C25.9925 73.2435 32.6159 70.6864 32.578 67.6337C32.5402 64.5811 25.8555 62.1888 17.6473 62.2905C9.43918 62.3922 2.81584 64.9493 2.85368 68.002C2.89152 71.0546 9.57622 73.4469 17.7844 73.3452Z" fill="#FF5B23"/>
<path d="M17.2734 73.4383C13.4826 73.4383 9.92965 72.9106 7.22038 71.941C4.36149 70.9179 2.77668 69.5187 2.75798 68.0012C2.71947 64.9025 9.39668 62.2985 17.6424 62.1965C21.6236 62.1476 25.3737 62.6777 28.2037 63.6905C31.0626 64.7135 32.6474 66.1128 32.6661 67.6303C32.7047 70.729 26.0274 73.333 17.7817 73.435C17.6118 73.437 17.4424 73.4381 17.2734 73.4381V73.4383ZM18.151 62.377C17.9824 62.377 17.8138 62.3782 17.6446 62.3801C9.50033 62.4811 2.90453 65.0015 2.94172 67.9988C2.95954 69.434 4.501 70.7725 7.28222 71.7679C10.0923 72.7736 13.8204 73.2995 17.7793 73.2514C25.9236 73.1504 32.5194 70.63 32.4822 67.6327C32.4644 66.1974 30.9229 64.8589 28.1417 63.8636C25.4518 62.901 21.9206 62.377 18.151 62.377Z" fill="black"/>
<path d="M17.7702 72.2114C24.2947 72.1306 29.5594 70.0979 29.5293 67.6714C29.4993 65.2448 24.1857 63.3431 17.6613 63.424C11.1368 63.5048 5.87204 65.5375 5.90213 67.964C5.93221 70.3906 11.2457 72.2922 17.7702 72.2114Z" fill="#FF5B23"/>
<path d="M17.3733 72.3063C10.9903 72.3063 5.83887 70.3893 5.80873 67.9659C5.77814 65.4926 11.0939 63.4141 17.6587 63.3328C20.8245 63.2921 23.8086 63.7157 26.0602 64.5215C28.3406 65.3375 29.6048 66.4561 29.6197 67.6707C29.6347 68.8856 28.3987 70.0349 26.1392 70.9073C23.9083 71.7687 20.9359 72.2648 17.7696 72.3039C17.6369 72.3054 17.5044 72.3063 17.3728 72.3063H17.3733ZM18.0636 63.514C17.9298 63.514 17.7955 63.5149 17.6611 63.5164C11.1978 63.5965 5.96342 65.5914 5.99269 67.9635C6.02217 70.3356 11.3034 72.2025 17.7678 72.12C20.9126 72.0811 23.8623 71.5895 26.0734 70.7358C28.2559 69.8931 29.4503 68.8053 29.4362 67.6729C29.4221 66.5405 28.2013 65.4827 25.9986 64.6944C23.8626 63.93 21.058 63.5138 18.0638 63.5138L18.0636 63.514Z" fill="black"/>
<path d="M29.5249 67.67C29.5249 67.67 26.3518 64.0404 16.4324 64.501C16.4324 64.501 7.53505 65.0219 5.96081 68.3979C5.96081 68.3979 5.58826 67.2972 6.79018 66.2548C6.79018 66.2548 12.0245 61.7729 23.7781 63.9803C23.7781 63.9803 29.1284 64.7731 29.5249 67.67Z" fill="black"/>
<path d="M3.0122 66.9519C3.0122 66.9519 3.64639 71.9122 18.3607 71.8522C19.2189 71.8486 20.0767 71.7978 20.9289 71.6975C24.079 71.3271 31.4892 70.1111 32.6651 66.7845L32.5989 63.3711C32.5989 63.3711 30.8794 68.9818 17.4202 69.0722C17.4202 69.0722 4.24228 69.2178 2.85156 63.7395L3.01198 66.9522L3.0122 66.9519Z" fill="#FF5B23"/>
<path d="M18.11 71.9445C13.9286 71.9445 8.37428 71.5113 5.11842 69.5026C3.10627 68.2613 2.92583 67.0159 2.91901 66.9635C2.91879 66.9611 2.91857 66.9587 2.91835 66.9565L2.75793 63.7439C2.75551 63.6968 2.7894 63.6554 2.83605 63.6484C2.88248 63.6416 2.92715 63.6708 2.93882 63.7168C4.29587 69.0625 17.287 68.983 17.4173 68.9802C30.6562 68.8913 32.492 63.3996 32.509 63.3442C32.5222 63.3009 32.5653 63.274 32.6096 63.2802C32.6542 63.2866 32.6879 63.3242 32.6888 63.3695L32.755 66.7832C32.755 66.7942 32.7535 66.8052 32.7497 66.8155C31.5564 70.1913 24.0916 71.4183 20.9376 71.7892C20.0918 71.8886 19.2241 71.9409 18.3591 71.9445C18.2766 71.9449 18.1936 71.9449 18.11 71.9449V71.9445ZM3.10187 66.9426C3.1252 67.0825 4.0701 71.8162 18.3584 71.7601C19.2166 71.7566 20.077 71.7049 20.9163 71.6062C24.0311 71.2399 31.3942 70.036 32.5708 66.7695L32.5129 63.7879C32.2383 64.3094 31.5744 65.281 30.1058 66.264C26.5951 68.6139 21.2688 69.1381 17.4188 69.1641C17.3867 69.165 14.0758 69.1931 10.6386 68.5506C6.42288 67.7624 3.84961 66.3608 2.9738 64.3796L3.10187 66.9431V66.9426Z" fill="black"/>
<path d="M17.7844 69.0835C25.9925 68.9818 32.6159 66.4247 32.578 63.372C32.5402 60.3194 25.8555 57.9271 17.6473 58.0288C9.43918 58.1305 2.81584 60.6876 2.85368 63.7402C2.89152 66.7929 9.57622 69.1852 17.7844 69.0835Z" fill="#FF5B23"/>
<path d="M17.2734 69.1766C13.4826 69.1766 9.92965 68.6489 7.22038 67.6793C4.36149 66.6562 2.77668 65.257 2.75798 63.7395C2.71947 60.6408 9.39668 58.0368 17.6424 57.9347C21.6236 57.8859 25.3737 58.416 28.2037 59.4288C31.0626 60.4518 32.6474 61.851 32.6661 63.3686C32.7047 66.4673 26.0274 69.0712 17.7817 69.1733C17.6118 69.1753 17.4424 69.1766 17.2734 69.1766ZM18.151 58.1153C17.9824 58.1153 17.8138 58.1164 17.6446 58.1184C9.50033 58.2194 2.90453 60.7398 2.94172 63.737C2.95954 65.1723 4.501 66.5108 7.28222 67.5062C10.0923 68.5119 13.8204 69.038 17.7793 68.9896C25.9236 68.8887 32.5194 66.3683 32.4822 63.371C32.4644 61.9357 30.9229 60.5972 28.1417 59.6019C25.4518 58.6393 21.9206 58.1153 18.151 58.1153Z" fill="black"/>
<path d="M17.7702 67.9497C24.2947 67.8689 29.5594 65.8362 29.5293 63.4096C29.4993 60.983 24.1857 59.0814 17.6613 59.1622C11.1368 59.2431 5.87204 61.2757 5.90213 63.7023C5.93221 66.1289 11.2457 68.0305 17.7702 67.9497Z" fill="#FF5B23"/>
<path d="M17.3733 68.0445C10.9903 68.0445 5.83887 66.1274 5.80873 63.7041C5.77814 61.2307 11.0939 59.1523 17.6587 59.0709C20.8245 59.0315 23.8086 59.4536 26.0602 60.2596C28.3406 61.0757 29.6048 62.1942 29.6197 63.4089C29.6347 64.6237 28.3987 65.7731 26.1392 66.6455C23.9083 67.5066 20.9359 68.0027 17.7696 68.0418C17.6369 68.0434 17.5044 68.0442 17.3728 68.0442L17.3733 68.0445ZM18.0636 59.2521C17.9298 59.2521 17.7955 59.253 17.6611 59.2546C11.1978 59.3346 5.96342 61.3295 5.99269 63.7014C6.02217 66.0735 11.3034 67.9373 17.7678 67.8579C20.9126 67.819 23.8623 67.3274 26.0734 66.4737C28.2559 65.631 29.4503 64.5432 29.4362 63.4108C29.4221 62.2784 28.2013 61.2206 25.9986 60.4323C23.8626 59.6679 21.058 59.2517 18.0638 59.2517L18.0636 59.2521Z" fill="black"/>
<path d="M29.5249 63.4083C29.5249 63.4083 26.3518 59.7786 16.4324 60.2392C16.4324 60.2392 7.53505 60.7601 5.96081 64.1362C5.96081 64.1362 5.58826 63.0357 6.79018 61.993C6.79018 61.993 12.0245 57.5112 23.7781 59.7186C23.7781 59.7186 29.1284 60.5113 29.5249 63.4083Z" fill="black"/>
<path d="M83.4263 86.3973C83.4263 86.3973 84.0604 91.3575 98.7748 91.2975C99.633 91.2939 100.491 91.2431 101.343 91.1428C104.493 90.7724 111.903 89.5564 113.079 86.2299L113.013 82.8164C113.013 82.8164 111.293 88.4271 97.8343 88.5175C97.8343 88.5175 84.6563 88.6631 83.2656 83.1849L83.426 86.3975L83.4263 86.3973Z" fill="#FF5B23"/>
<path d="M98.524 91.3898C94.3426 91.3898 88.7883 90.9567 85.5325 88.9479C83.5203 87.7066 83.3399 86.4612 83.3331 86.4088C83.3329 86.4064 83.3326 86.404 83.3324 86.4018L83.172 83.1892C83.1696 83.1421 83.2035 83.1007 83.2501 83.0937C83.2965 83.0869 83.3412 83.1161 83.3529 83.1621C84.7099 88.5078 97.7011 88.4284 97.8313 88.4255C111.07 88.3366 112.906 82.8449 112.923 82.7895C112.936 82.7462 112.979 82.7193 113.024 82.7255C113.068 82.7319 113.102 82.7695 113.103 82.8148L113.169 86.2285C113.169 86.2395 113.168 86.2505 113.164 86.2608C111.97 89.6366 104.506 90.8636 101.352 91.2345C100.506 91.3339 99.6382 91.3863 98.7731 91.3898C98.6906 91.3902 98.6077 91.3902 98.524 91.3902V91.3898ZM83.5159 86.3879C83.5393 86.5278 84.4842 91.2615 98.7725 91.2054C99.6307 91.2019 100.491 91.1502 101.33 91.0515C104.445 90.6852 111.808 89.4813 112.985 86.2148L112.927 83.2332C112.652 83.7547 111.988 84.7263 110.52 85.7093C107.009 88.0593 101.683 88.5834 97.8329 88.6094C97.8007 88.6103 94.4899 88.6384 91.0527 87.9959C86.8369 87.2078 84.2637 85.8061 83.3879 83.8249L83.5159 86.3884V86.3879Z" fill="black"/>
<path d="M98.1984 88.5288C106.407 88.4271 113.03 85.87 112.992 82.8173C112.954 79.7647 106.27 77.3724 98.0614 77.4741C89.8532 77.5758 83.2299 80.1329 83.2677 83.1856C83.3056 86.2382 89.9903 88.6305 98.1984 88.5288Z" fill="#FF5B23"/>
<path d="M97.6875 88.6219C93.8966 88.6219 90.3437 88.0942 87.6344 87.1246C84.7755 86.1015 83.1907 84.7023 83.172 83.1848C83.1335 80.0861 89.8107 77.4821 98.0565 77.38C102.038 77.3312 105.788 77.8613 108.618 78.8741C111.477 79.8971 113.062 81.2963 113.08 82.8139C113.119 85.9126 106.442 88.5166 98.1958 88.6186C98.0259 88.6206 97.8565 88.6219 97.6875 88.6219ZM98.565 77.5606C98.3965 77.5606 98.2279 77.5617 98.0587 77.5637C89.9144 77.6647 83.3186 80.1851 83.3558 83.1823C83.3736 84.6176 84.9151 85.9561 87.6963 86.9515C90.5063 87.9572 94.2344 88.4833 98.1934 88.4349C106.338 88.334 112.933 85.8136 112.896 82.8163C112.878 81.381 111.337 80.0425 108.556 79.0472C105.866 78.0846 102.335 77.5606 98.565 77.5606Z" fill="black"/>
<path d="M98.1843 87.395C104.709 87.3142 109.973 85.2815 109.943 82.8549C109.913 80.4284 104.6 78.5267 98.0753 78.6076C91.5508 78.6884 86.2861 80.721 86.3162 83.1476C86.3463 85.5742 91.6598 87.4758 98.1843 87.395Z" fill="#FF5B23"/>
<path d="M97.7873 87.4898C91.4043 87.4898 86.2529 85.5727 86.2228 83.1494C86.1922 80.6761 91.508 78.5976 98.0727 78.5162C101.239 78.4768 104.223 78.8989 106.474 79.7049C108.755 80.521 110.019 81.6395 110.034 82.8542C110.049 84.0691 108.813 85.2184 106.553 86.0908C104.322 86.9519 101.35 87.448 98.1836 87.4871C98.0509 87.4887 97.9185 87.4895 97.7869 87.4895L97.7873 87.4898ZM98.4776 78.6975C98.3438 78.6975 98.2096 78.6983 98.0751 78.6999C91.6118 78.7799 86.3775 80.7748 86.4067 83.1467C86.4362 85.5189 91.7174 87.3826 98.1819 87.3032C101.327 87.2643 104.276 86.7727 106.487 85.919C108.67 85.0763 109.864 83.9885 109.85 82.8562C109.836 81.7238 108.615 80.6659 106.413 79.8776C104.277 79.1132 101.472 78.697 98.4778 78.697L98.4776 78.6975Z" fill="black"/>
<path d="M109.939 82.8536C109.939 82.8536 106.766 79.224 96.8464 79.6846C96.8464 79.6846 87.9491 80.2054 86.3749 83.5815C86.3749 83.5815 86.0023 82.481 87.2042 81.4384C87.2042 81.4384 92.4386 76.9565 104.192 79.1639C104.192 79.1639 109.542 79.9567 109.939 82.8536Z" fill="black"/>
<path d="M101.063 79.2181C101.063 79.2181 99.9692 84.0976 113.823 89.0558C114.631 89.3449 115.455 89.5895 116.29 89.7856C119.378 90.5109 126.759 91.8931 128.998 89.1665L130.099 85.9348C130.099 85.9348 126.571 90.6236 113.886 86.1217C113.886 86.1217 101.448 81.7676 102.007 76.1433L101.063 79.2182L101.063 79.2181Z" fill="#FF5B23"/>
<path d="M113.554 89.0582C109.623 87.6331 104.549 85.333 102.173 82.3349C100.704 80.4822 100.959 79.2498 100.97 79.1983C100.971 79.1959 100.971 79.1936 100.972 79.1915L101.916 76.1165C101.93 76.0714 101.976 76.0441 102.022 76.0534C102.068 76.0628 102.1 76.1055 102.095 76.1527C101.549 81.6408 113.79 85.9935 113.913 86.0353C126.39 90.4636 129.987 85.9263 130.022 85.8799C130.049 85.8437 130.099 85.8332 130.139 85.854C130.178 85.8753 130.197 85.9221 130.183 85.965L129.082 89.1969C129.078 89.2072 129.073 89.217 129.066 89.2255C126.793 91.9925 119.357 90.6021 116.266 89.8758C115.436 89.681 114.603 89.4345 113.788 89.1431C113.711 89.1153 113.633 89.0871 113.554 89.0586L113.554 89.0582ZM101.149 79.241C101.123 79.3804 100.399 84.1528 113.851 88.9695C114.659 89.2587 115.485 89.5033 116.308 89.6965C119.361 90.4137 126.694 91.7913 128.913 89.1213L129.875 86.2984C129.439 86.6951 128.484 87.3823 126.768 87.806C122.666 88.8188 117.48 87.4964 113.852 86.2087C113.821 86.1985 110.699 85.0967 107.687 83.3212C103.992 81.1435 102.05 78.9488 101.902 76.7877L101.149 79.2414L101.149 79.241Z" fill="black"/>
<path d="M114.217 86.2554C121.968 88.9572 129.067 88.8104 130.071 85.9276C131.076 83.0448 125.607 78.5176 117.856 75.8158C110.104 73.114 103.006 73.2608 102.001 76.1436C100.996 79.0265 106.465 83.5537 114.217 86.2554Z" fill="#FF5B23"/>
<path d="M113.705 86.1711C110.141 84.8791 106.981 83.1722 104.764 81.3373C102.425 79.4012 101.412 77.5456 101.911 76.1125C102.931 73.1862 110.096 73.0137 117.883 75.728C121.643 77.0388 124.988 78.8153 127.303 80.7318C129.642 82.668 130.655 84.5235 130.156 85.9566C129.136 88.8829 121.971 89.0554 114.184 86.3412C114.024 86.2852 113.864 86.2287 113.705 86.1711ZM118.3 76.071C118.141 76.0136 117.982 75.9572 117.823 75.9014C110.131 73.2207 103.072 73.3424 102.085 76.1729C101.613 77.5283 102.606 79.312 104.881 81.1956C107.18 83.0988 110.506 84.864 114.244 86.1677C121.935 88.8484 128.995 88.7267 129.982 85.8962C130.454 84.5408 129.461 82.7571 127.186 80.8735C124.985 79.0518 121.844 77.3558 118.3 76.071Z" fill="black"/>
<path d="M114.6 85.1851C120.761 87.3327 126.404 87.2159 127.202 84.9243C128.001 82.6328 123.654 79.0341 117.492 76.8866C111.331 74.739 105.688 74.8557 104.89 77.1473C104.091 79.4389 108.438 83.0375 114.6 85.1851Z" fill="#FF5B23"/>
<path d="M114.192 85.1378C108.191 82.9625 104.002 79.4046 104.799 77.116C105.613 74.7804 111.319 74.6379 117.519 76.7987C120.508 77.8406 123.17 79.2545 125.012 80.7795C126.878 82.3239 127.685 83.8063 127.285 84.9533C126.885 86.1006 125.332 86.7599 122.91 86.81C120.519 86.8593 117.556 86.3127 114.566 85.2704C114.44 85.2266 114.316 85.1823 114.192 85.1375L114.192 85.1378ZM117.838 77.1071C117.712 77.0615 117.585 77.0166 117.458 76.9722C111.355 74.8448 105.754 74.9364 104.973 77.1763C104.192 79.4164 108.522 82.9685 114.627 85.0969C117.596 86.132 120.537 86.6751 122.907 86.6261C125.246 86.5776 126.739 85.9621 127.112 84.8927C127.485 83.8233 126.698 82.4127 124.895 80.9208C123.148 79.4743 120.653 78.1272 117.838 77.1068L117.838 77.1071Z" fill="black"/>
<path d="M127.2 84.9247C127.2 84.9247 125.454 80.4309 115.971 77.4834C115.971 77.4834 107.429 74.9409 104.798 77.5783C104.798 77.5783 104.823 76.4168 106.309 75.8462C106.309 75.8462 112.757 73.4165 123.055 79.4974C123.055 79.4974 127.814 82.0661 127.2 84.9247Z" fill="black"/>
<path d="M2.4307 66.691C2.4307 66.691 4.30201 71.3286 18.5206 67.5421C19.3499 67.3212 20.1666 67.0546 20.9658 66.7418C23.9191 65.5854 30.7787 62.5316 31.0729 59.0157L30.1434 55.7305C30.1434 55.7305 29.9027 61.5935 16.9061 65.0912C16.9061 65.0912 4.19551 68.5711 1.46094 63.624L2.43092 66.691H2.4307Z" fill="#FF5B23"/>
<path d="M8.98152 69.1176C7.58068 69.1176 6.25905 68.974 5.11523 68.6245C2.85421 67.9335 2.36372 66.7745 2.34391 66.7255C2.34303 66.7233 2.34215 66.7211 2.34149 66.7189L1.37151 63.6519C1.35721 63.6068 1.37943 63.5584 1.423 63.5397C1.46657 63.521 1.51696 63.5384 1.53985 63.5797C4.20796 68.4069 16.7537 65.0372 16.88 65.0027C29.6458 61.5673 30.0472 55.7848 30.0498 55.7267C30.0518 55.6816 30.0861 55.6446 30.131 55.6394C30.1757 55.6339 30.2179 55.662 30.23 55.7056L31.1595 58.9908C31.1626 59.0013 31.1635 59.0126 31.1626 59.0233C30.8642 62.5912 23.9544 65.6694 20.9974 66.8273C20.2043 67.1379 19.3782 67.4083 18.5423 67.6309C15.7228 68.3818 12.1505 69.1174 8.9813 69.1174L8.98152 69.1176ZM2.51533 66.6591C2.57343 66.7884 4.68437 71.131 18.4952 67.4534C19.3246 67.2325 20.1438 66.9642 20.9305 66.6562C23.8508 65.5126 30.6679 62.4825 30.978 59.0244L30.1662 56.1547C30.0329 56.7289 29.637 57.8368 28.4657 59.1599C25.6655 62.3226 20.6462 64.1794 16.9282 65.1798C16.8967 65.1884 13.7018 66.0548 10.2138 66.3042C5.93558 66.6098 3.0912 65.9061 1.74163 64.2115L2.51555 66.6588L2.51533 66.6591Z" fill="black"/>
<path d="M17.2658 65.0081C25.1801 62.83 30.9388 58.6782 30.1281 55.7349C29.3174 52.7915 22.2444 52.1711 14.3301 54.3492C6.41582 56.5273 0.657173 60.6791 1.46784 63.6225C2.2785 66.5658 9.3515 67.1862 17.2658 65.0081Z" fill="#FF5B23"/>
<path d="M8.5005 66.3939C4.64323 66.3939 1.8728 65.4428 1.37856 63.6488C0.555795 60.6612 6.35457 56.4503 14.305 54.2623C18.1431 53.206 21.9058 52.7687 24.9004 53.0316C27.9252 53.2969 29.8131 54.2489 30.2162 55.7123C30.6193 57.1756 29.485 58.9595 27.0222 60.7351C24.5842 62.4928 21.1277 64.0427 17.2898 65.099C14.1138 65.9731 11.0663 66.3942 8.5005 66.3944V66.3939ZM14.3538 54.4396C6.50112 56.6008 0.760002 60.71 1.55592 63.5999C2.35185 66.4896 9.38796 67.0824 17.2409 64.9215C21.0583 63.8709 24.4938 62.3309 26.9145 60.5857C29.3105 58.8583 30.4202 57.1448 30.039 55.7609C29.6579 54.3771 27.8273 53.4728 24.8846 53.2146C21.9113 52.9535 18.1715 53.3888 14.3541 54.4394L14.3538 54.4396Z" fill="black"/>
<path d="M16.9665 63.9162C23.2574 62.1848 27.8348 58.8846 27.1904 56.5449C26.546 54.2052 20.9238 53.712 14.6329 55.4433C8.34198 57.1746 3.76458 60.4748 4.40898 62.8146C5.05339 65.1543 10.6756 65.6475 16.9665 63.9162Z" fill="#FF5B23"/>
<path d="M9.97849 65.0426C9.48602 65.0426 9.01203 65.0231 8.55982 64.9833C6.14697 64.7716 4.64051 64.0101 4.31791 62.8388C3.99532 61.6675 4.89951 60.2425 6.86412 58.8261C8.80386 57.4276 11.5534 56.1947 14.6062 55.3546C17.6591 54.5143 20.6525 54.1666 23.0347 54.3758C25.4476 54.5874 26.9541 55.3489 27.2767 56.5202C27.5993 57.6916 26.6951 59.1165 24.7307 60.5329C22.7909 61.9314 20.0414 63.1643 16.9886 64.0044C14.5153 64.6852 12.0804 65.0426 9.97849 65.0426ZM21.615 54.5003C19.5298 54.5003 17.113 54.8553 14.655 55.5319C11.6227 56.3665 8.89408 57.5893 6.97172 58.9753C5.074 60.3435 4.19468 61.6983 4.49527 62.79C4.79608 63.8819 6.24511 64.5959 8.57589 64.8002C10.9368 65.0074 13.9073 64.6619 16.9396 63.8273C19.9719 62.9928 22.7005 61.77 24.6229 60.384C26.5206 59.0158 27.3999 57.661 27.0991 56.5693C26.7983 55.4774 25.3492 54.7636 23.0185 54.559C22.5713 54.5198 22.102 54.5005 21.6148 54.5005L21.615 54.5003Z" fill="black"/>
<path d="M27.1861 56.5442C27.1861 56.5442 23.1961 53.8371 13.7175 56.7959C13.7175 56.7959 5.24266 59.554 4.57613 63.2189C4.57613 63.2189 3.93666 62.2486 4.83491 60.9357C4.83491 60.9357 8.76171 55.2739 20.6913 54.4312C20.6913 54.4312 26.068 53.8424 27.1861 56.5442Z" fill="black"/>
<path d="M44.9592 86.6286C50.0344 82.8091 50.4646 74.8212 45.92 68.7872C41.3755 62.7532 33.5771 60.958 28.5019 64.7775C23.4268 68.597 22.9966 76.5849 27.5411 82.6189C32.0857 88.6529 39.884 90.4481 44.9592 86.6286Z" fill="#FF5B23"/>
<path d="M38.7893 88.7277C37.8874 88.7277 36.9626 88.6214 36.0274 88.4061C32.7173 87.644 29.6767 85.6079 27.4663 82.6731C22.8995 76.6096 23.3384 68.5501 28.4445 64.7072C30.9205 62.8439 34.11 62.238 37.4261 63.0013C40.7362 63.7634 43.7768 65.7994 45.9872 68.7343C50.5541 74.7978 50.1151 82.8573 45.0088 86.7002C43.2311 88.038 41.0854 88.7277 38.7893 88.7277ZM34.665 62.8578C32.4069 62.8578 30.2981 63.5351 28.5517 64.8493C23.524 68.6331 23.1008 76.5808 27.6084 82.566C29.7937 85.4676 32.7979 87.48 36.0673 88.2327C39.3312 88.9841 42.4685 88.3894 44.9018 86.5581C49.9295 82.7743 50.3527 74.8266 45.8451 68.8414C43.6598 65.9398 40.6557 63.9274 37.3862 63.1747C36.4649 62.9626 35.5534 62.8578 34.665 62.8578Z" fill="black"/>
<path d="M46.3583 85.5257C51.3687 81.7549 51.7934 73.869 47.3069 67.9121C42.8204 61.9552 35.1216 60.1829 30.1112 63.9537C25.1008 67.7244 24.6761 75.6103 29.1626 81.5672C33.6491 87.5242 41.3479 89.2964 46.3583 85.5257Z" fill="#FF5B23"/>
<path d="M40.2722 87.5988C39.3815 87.5988 38.4687 87.4938 37.5452 87.2813C34.2771 86.529 31.2753 84.5187 29.0927 81.6209C26.9102 78.7231 25.8076 75.2837 25.9878 71.9361C26.1685 68.5827 27.6142 65.7226 30.0588 63.8827C32.5034 62.0429 35.6527 61.4448 38.9266 62.1984C42.1947 62.9507 45.1966 64.9609 47.3791 67.8587C49.5616 70.7565 50.6643 74.1959 50.484 77.5436C50.3033 80.897 48.8576 83.7571 46.413 85.5969C44.6579 86.9179 42.5391 87.5986 40.2722 87.5988ZM36.2005 62.0591C33.9713 62.0591 31.8898 62.7277 30.166 64.025C27.7642 65.8327 26.3434 68.6455 26.1657 71.9457C25.9876 75.2515 27.0777 78.6497 29.2351 81.5138C31.3925 84.3782 34.3578 86.3648 37.5853 87.1077C40.8072 87.8493 43.9043 87.2623 46.306 85.4546C48.7078 83.6469 50.1286 80.8341 50.3063 77.534C50.4842 74.2281 49.3944 70.83 47.237 67.9659C45.0798 65.1015 42.1142 63.1149 38.8868 62.372C37.9773 62.1626 37.0771 62.0591 36.2005 62.0591Z" fill="black"/>
<path d="M44.9414 83.6184C49.0654 80.5148 49.4149 74.024 45.7221 69.121C42.0294 64.2179 35.6926 62.7591 31.5687 65.8628C27.4447 68.9664 27.0952 75.4572 30.7879 80.3602C34.4807 85.2633 40.8174 86.722 44.9414 83.6184Z" fill="#FF5B23"/>
<path d="M39.9315 85.3322C36.6256 85.3322 33.1156 83.5914 30.7215 80.4125C27.005 75.478 27.3632 68.9186 31.5197 65.7904C35.6764 62.6623 42.0814 64.1316 45.7979 69.066C49.5143 74.0005 49.1561 80.5601 44.9997 83.6881C43.5209 84.801 41.7571 85.332 39.9315 85.332V85.3322ZM31.6269 65.9327C27.5488 69.0019 27.2064 75.4495 30.8636 80.3055C34.5211 85.1614 40.8142 86.6151 44.8925 83.546C48.9706 80.477 49.313 74.0292 45.6557 69.1732C41.9987 64.3175 35.7051 62.8641 31.6269 65.9327Z" fill="black"/>
<path d="M48.257 76.9227C48.257 76.9227 47.3465 69.1799 39.9375 66.0973C32.5284 63.0146 28.4766 70.7197 28.4766 70.7197C28.4766 70.7197 29.364 64.6983 36.5579 64.2323C36.5579 64.2323 41.6176 64.001 45.4416 68.7744C45.4416 68.7744 48.599 72.685 48.257 76.9229V76.9227Z" fill="black"/>
</svg>
