<svg width="319" height="193" viewBox="0 0 319 193" fill="none" xmlns="http://www.w3.org/2000/svg">
<mask id="mask0_6533_72770" style="mask-type:alpha" maskUnits="userSpaceOnUse" x="0" y="0" width="319" height="193">
<rect x="0.5" y="0.5" width="318" height="192" rx="14.5" fill="#D9D9D9" stroke="#F9F8F4"/>
</mask>
<g mask="url(#mask0_6533_72770)">
<g filter="url(#filter0_i_6533_72770)">
<path d="M35 108.833C1 112.833 -29.8333 160.833 -41 184.333V205.833H356C360.5 128.5 359.9 -24.0669 321.5 -15.6669C273.5 -5.16691 285.5 23.8331 213 77.3331C140.5 130.833 77.5 103.833 35 108.833Z" fill="#FF5B23"/>
</g>
<g filter="url(#filter1_i_6533_72770)">
<path d="M41 135C11 135 -22.8333 170 -36 187.5V213L384 215C389.333 157.833 392.8 43.4002 364 43.0002C328 42.5002 297.5 128 231 148C164.5 168 78.5 135 41 135Z" fill="#FF5B23"/>
</g>
<path d="M285.108 122.446C285.433 119.105 285 115.782 283.762 112.725L283.761 112.722C282.898 110.595 279.443 103.468 271.203 101.067C267.837 100.087 264.302 100.078 260.968 100.959C256.398 97.3337 250.196 96.2478 244.107 98.0732C236.942 100.213 233.335 105.855 231.595 109.231C231.477 109.192 231.36 109.153 231.242 109.116C223.298 106.581 214.659 108.17 208.698 113.265C204.527 116.832 202.021 121.978 201.567 127.262C198.036 129.854 195.406 133.448 194.114 137.629C191.592 145.789 195.185 152.575 196.911 155.191C196.928 155.218 196.945 155.244 196.963 155.271C198.914 158.198 201.537 160.568 204.617 162.278C204.16 163.996 203.898 165.724 203.831 167.46C203.823 167.7 203.819 167.912 203.817 168.057C203.689 177.321 207.884 185.09 215.037 188.839C219.522 191.19 224.692 191.761 229.645 190.618C229.971 190.875 230.308 191.123 230.654 191.362C235.18 194.48 240.783 195.622 246.016 194.494C247.628 194.149 249.17 193.614 250.635 192.902C250.848 194.757 250.969 196.615 250.995 198.464C251.056 202.871 253.925 206.713 258.127 208.023C261.982 209.227 266.097 209.345 270.028 208.361C270.837 208.159 271.641 207.908 272.418 207.616C276.795 205.97 278.852 203.099 279.809 200.975C281.485 197.252 280.737 193.893 280.454 192.619C279.594 188.775 278.531 184.965 277.271 181.208C283.199 179.805 288.296 176.148 291.131 171.05C292.934 167.806 293.693 164.102 293.437 160.49C297.716 157.055 300.64 152.39 301.543 147.23C302.79 140.108 299.849 134.418 298.529 132.305C295.6 127.611 290.862 124.217 285.108 122.446L285.108 122.446Z" fill="#F9F8F4"/>
<path d="M260.524 167.216C260.416 167.015 260.261 166.843 260.074 166.714C258.824 165.852 257.671 164.926 256.644 163.962C256.196 163.542 255.53 163.45 254.984 163.731C254.437 164.013 254.128 164.61 254.211 165.219C254.431 166.82 254.456 168.44 254.282 170.034C254.254 170.299 254.299 170.567 254.412 170.808C258.324 179.13 260.52 188.37 260.761 197.529C260.779 198.189 261.239 198.754 261.882 198.905C263.785 199.35 265.74 199.334 267.608 198.866C268.061 198.753 268.509 198.613 268.95 198.447C269.641 198.187 270.48 197.784 270.853 196.958C271.165 196.265 271.033 195.494 270.869 194.765L270.869 194.764C268.725 185.174 265.245 175.905 260.524 167.216Z" fill="#DCB8FF"/>
<path d="M290.197 137.5C286.878 132.183 279.015 129.765 270.371 131.306C274.813 126.898 276.537 121.045 274.659 116.41C274.216 115.315 272.456 111.651 268.446 110.483C264.816 109.426 260.61 110.853 257.723 114.052C257.565 112.691 257.02 110.6 255.246 108.974C252.18 106.164 248.079 107.113 246.894 107.47C242.62 108.747 240.702 112.811 239.672 114.994C237.826 118.907 237.7 122.76 238.051 125.667C235.31 122.152 231.871 119.616 228.245 118.459C223.575 116.969 218.396 117.857 215.051 120.719C211.465 123.785 210.252 129.096 212.166 133.03C207.936 133.948 204.616 136.788 203.462 140.527C202.156 144.75 204.172 148.445 205.1 149.838C205.106 149.847 205.113 149.856 205.119 149.866C207.966 154.114 213.576 156.241 219.624 155.437C215.783 159.675 213.761 163.836 213.609 167.819C213.602 168.01 213.6 168.166 213.6 168.177C213.564 170.821 214.072 177.282 219.568 180.162C223.59 182.27 228.814 181.59 232.75 178.5C233.206 180.38 234.413 182.065 236.197 183.295C238.473 184.864 241.369 185.47 243.946 184.915C244.058 184.891 244.169 184.865 244.278 184.838C249.727 183.475 252.591 178.076 253.814 174.979C255.693 170.225 255.214 165.732 254.483 162.803C256.617 165.143 259.072 167.113 261.8 168.671C265.093 170.552 268.409 172.221 272.769 171.988C276.908 171.765 280.747 169.529 282.547 166.292C284.45 162.869 283.903 158.434 281.355 155.868C286.945 154.273 291.043 150.273 291.87 145.546C292.532 141.761 290.921 138.659 290.197 137.501L290.197 137.5Z" fill="#DCB8FF"/>
<path d="M275.15 139.694C273.3 136.806 269.251 135.285 264.538 135.537C263.671 135.583 263.115 134.678 263.606 133.978C265.369 131.466 265.917 128.601 264.947 126.243C264.659 125.543 263.511 123.201 260.851 122.475C258.917 121.947 256.726 122.451 254.934 123.745C254.364 124.156 253.578 123.95 253.317 123.322C253.072 122.732 252.687 122.118 252.085 121.586C250.063 119.8 247.331 120.434 246.54 120.67C243.691 121.516 242.391 124.138 241.693 125.546C240.956 127.033 240.616 128.503 240.505 129.842C240.437 130.671 239.388 131.081 238.761 130.525C237.337 129.262 235.737 128.339 234.075 127.84C230.978 126.912 227.53 127.513 225.289 129.371C223.187 131.113 222.281 133.948 222.924 136.314C223.07 136.852 222.784 137.403 222.237 137.593C219.928 138.395 218.152 140.065 217.463 142.162C216.57 144.882 217.888 147.243 218.496 148.132C218.5 148.138 218.505 148.143 218.509 148.149C220.026 150.352 222.764 151.645 225.897 151.755C226.725 151.785 227.142 152.719 226.647 153.37C225.017 155.513 224.144 157.61 224.045 159.628C224.039 159.751 224.037 159.851 224.037 159.858C223.997 161.556 224.296 165.702 227.933 167.519C230.251 168.677 233.188 168.471 235.649 167.072C236.178 166.771 236.843 166.932 237.12 167.45C237.528 168.215 238.157 168.893 238.97 169.43C240.474 170.424 242.396 170.796 244.112 170.424C244.187 170.408 244.261 170.39 244.334 170.372C247.965 169.464 249.902 165.979 250.734 163.983C251.482 162.189 251.692 160.458 251.644 158.954C251.615 158.06 252.666 157.543 253.378 158.103C254.224 158.768 255.127 159.363 256.081 159.884C258.259 161.072 260.454 162.124 263.354 161.947C266.108 161.78 268.673 160.32 269.89 158.23C270.942 156.423 270.908 154.191 269.943 152.545C269.626 152.005 269.885 151.332 270.485 151.087C273.528 149.842 275.706 147.518 276.214 144.851C276.677 142.416 275.625 140.433 275.15 139.694Z" fill="#E5C9FF"/>
<path d="M244.461 185.541C244.341 185.571 244.221 185.599 244.099 185.625C241.332 186.221 238.225 185.573 235.786 183.893C234.176 182.783 232.999 181.325 232.363 179.682C228.319 182.416 223.225 182.898 219.233 180.806C213.379 177.738 212.837 170.959 212.875 168.187C212.875 168.175 212.877 168.004 212.884 167.792C213.026 164.068 214.714 160.217 217.909 156.315C212.281 156.544 207.207 154.308 204.499 150.243L204.497 150.241C203.512 148.762 201.371 144.835 202.769 140.313C203.923 136.576 207.08 133.685 211.166 132.532C209.636 128.419 210.993 123.235 214.58 120.167C218.114 117.147 223.566 116.204 228.467 117.768C231.614 118.771 234.62 120.769 237.175 123.517C237.124 120.891 237.543 117.808 239.016 114.685C240.096 112.398 242.104 108.143 246.688 106.775C247.966 106.391 252.405 105.384 255.739 108.439C257.133 109.717 257.832 111.252 258.179 112.563C261.181 109.835 265.094 108.751 268.65 109.786C272.974 111.045 274.858 114.965 275.333 116.137C277.109 120.522 275.869 125.91 272.269 130.299C280.395 129.405 287.603 131.971 290.814 137.115C291.582 138.344 293.293 141.639 292.587 145.67C291.765 150.368 287.931 154.372 282.62 156.229C284.73 159.073 285.038 163.308 283.183 166.644C281.234 170.148 277.259 172.473 272.81 172.712C268.251 172.957 264.831 171.238 261.441 169.301C259.347 168.105 257.41 166.672 255.652 165.02C256.043 167.865 255.981 171.474 254.491 175.246C253.205 178.501 250.207 184.103 244.461 185.541ZM232.726 176.778C232.935 176.726 233.159 176.736 233.368 176.813C233.739 176.951 234.006 177.279 234.066 177.67C234.33 179.394 235.38 180.967 237.022 182.1C238.975 183.446 241.449 183.968 243.641 183.496C243.737 183.475 243.833 183.452 243.927 183.429C248.736 182.226 251.335 177.308 252.465 174.446C254.565 169.13 253.474 164.147 252.638 161.65C252.471 161.152 252.683 160.605 253.144 160.351C253.606 160.097 254.181 160.208 254.513 160.615C256.774 163.379 259.469 165.666 262.522 167.41C265.737 169.247 268.72 170.75 272.692 170.537C276.344 170.341 279.715 168.398 281.279 165.586C282.945 162.59 282.338 158.526 279.926 156.526C279.61 156.264 279.468 155.846 279.56 155.445C279.652 155.045 279.96 154.731 280.357 154.631C280.375 154.632 280.391 154.623 280.408 154.619C285.747 153.283 289.682 149.628 290.441 145.295C291.017 142.005 289.602 139.285 288.967 138.269C285.811 133.215 277.957 131.087 269.422 132.976C268.936 133.083 268.439 132.848 268.214 132.404C267.99 131.959 268.096 131.42 268.47 131.092C273.141 127.015 275.087 121.333 273.314 116.955C272.932 116.013 271.424 112.863 268.04 111.877C264.719 110.909 260.796 112.425 258.279 115.649C257.995 116.013 257.509 116.159 257.072 116.01C256.634 115.862 256.336 115.453 256.332 114.991C256.322 114.064 256.101 111.726 254.266 110.045C251.778 107.764 248.313 108.559 247.31 108.862C243.659 109.952 241.986 113.496 240.986 115.614C238.972 119.882 239.179 124.093 239.708 126.874C239.804 127.38 239.533 127.883 239.059 128.082C238.587 128.282 238.036 128.121 237.743 127.698C235.058 123.82 231.529 121.031 227.805 119.843C223.606 118.504 218.969 119.279 215.996 121.823C212.783 124.57 211.758 129.373 213.663 132.758C213.836 133.065 213.849 133.437 213.699 133.756C213.548 134.075 213.248 134.301 212.907 134.364C208.97 135.072 205.888 137.596 204.85 140.956C203.728 144.585 205.498 147.814 206.31 149.033L206.312 149.035C208.994 153.061 214.528 154.947 220.409 153.841C220.874 153.754 221.342 153.976 221.568 154.392C221.793 154.809 221.725 155.322 221.397 155.665C217.34 159.906 215.208 164.015 215.061 167.875C215.055 168.034 215.054 168.165 215.054 168.197C215.021 170.587 215.46 176.369 220.244 178.876C223.907 180.796 228.744 180.046 232.28 177.008C232.411 176.896 232.564 176.819 232.725 176.778L232.726 176.778Z" fill="#252525"/>
<path d="M258.647 166.485C258.645 166.669 258.684 166.855 258.779 167.028C263.666 175.824 267.257 185.262 269.452 195.081C269.562 195.572 269.658 196.075 269.529 196.362C269.413 196.618 269.057 196.855 268.439 197.088C266.453 197.837 264.271 197.972 262.212 197.491C261.946 187.402 259.399 177.351 254.829 168.352C254.822 168.71 254.809 169.067 254.791 169.424C254.78 169.636 254.77 169.849 254.757 170.061C254.754 170.126 254.752 170.175 254.751 170.21C254.75 170.327 254.749 170.443 254.752 170.56C254.759 171.18 254.578 171.737 254.234 172.161C257.918 180.37 259.924 189.351 260.051 198.342C260.058 198.813 260.366 199.226 260.816 199.366C263.08 200.074 265.515 200.136 267.807 199.563C268.281 199.444 268.748 199.299 269.206 199.127C269.964 198.842 271.027 198.338 271.515 197.256C271.919 196.359 271.768 195.455 271.579 194.606C269.498 185.302 266.175 176.34 261.722 167.919C260.578 167.722 259.49 167.252 258.647 166.485Z" fill="#252525"/>
<path d="M8.32759 160.141V160.141C9.42172 162.877 11.1781 165.293 13.369 167.229C12.9302 168.009 12.5167 168.804 12.1288 169.613C8.9974 176.136 7.61056 183.399 8.11728 190.612C8.41631 194.894 11.7233 198.395 15.9771 198.936C16.936 199.059 17.9136 199.12 18.8837 199.12C21.7236 199.12 24.5037 198.606 27.1427 197.593C31.5609 195.899 33.9299 191.03 32.5367 186.51C32.485 186.343 32.4398 186.173 32.3994 185.998C33.3776 186.783 34.4662 187.482 35.673 188.072C38.0156 189.217 40.6539 189.822 43.3013 189.822H43.305C45.5889 189.822 47.8006 189.39 49.8793 188.538C50.6342 188.229 51.3645 187.865 52.0652 187.453C54.0589 188.449 56.1698 189.122 58.3203 189.431C65.2233 190.421 72.1603 187.536 75.9854 182.082C78.0032 179.206 79.1495 175.688 79.4045 171.603C82.3597 171.845 85.1957 171.584 87.8814 170.823C93.8874 169.122 98.7316 164.857 100.838 159.415C102.879 154.149 102.197 147.959 99.0597 143.261C99.0333 143.222 99.0074 143.183 98.981 143.144C99.5306 141.824 99.9146 140.434 100.111 139.012C100.991 132.607 98.24 126.03 92.9304 121.846C89.6668 119.275 85.508 117.709 81.1227 117.338C81.3405 110.143 78.4811 103.54 73.4251 99.6084C69.051 96.2079 63.1949 94.9444 57.7557 96.2286C56.115 96.6161 54.5387 97.2252 53.0669 98.0301C50.1577 96.715 46.8778 96.1694 43.6419 96.5685C37.4177 97.3363 31.6893 101.467 28.692 107.349C26.8009 111.063 25.9875 115.396 26.313 119.833C23.3454 120.14 20.5942 120.927 18.0892 122.189C12.7128 124.899 8.84557 129.817 7.74511 135.341C7.08409 138.65 7.47184 142.065 8.73663 145.091C6.61949 149.8 6.38465 155.284 8.32743 160.141L8.32759 160.141Z" fill="#F9F8F4"/>
<path d="M34.9437 160.602C34.5232 160.08 33.7733 159.967 33.2188 160.342C31.6241 161.417 30.0515 162.153 28.5457 162.53C28.3474 162.579 28.1635 162.676 28.0093 162.81C24.6047 165.79 21.8977 169.345 19.9637 173.375C17.6135 178.271 16.4986 183.727 16.7391 189.154C16.7681 189.811 17.2875 190.341 17.9434 190.383C18.2576 190.404 18.5705 190.414 18.8834 190.414C20.3144 190.414 21.7309 190.201 23.1046 189.778C23.7593 189.577 24.1421 188.899 23.9765 188.234C22.815 183.572 23.6775 178.021 26.3437 173.003V173.003C28.2165 169.476 30.9135 166.089 34.8312 162.342C35.3146 161.879 35.3638 161.123 34.9438 160.601L34.9437 160.602Z" fill="#E5C9FF"/>
<path d="M91.8103 148.092C90.5486 146.206 88.5485 144.86 86.3482 144.352C88.9571 143.338 91.073 140.749 91.4759 137.824C91.9311 134.515 90.383 130.926 87.5319 128.679C84.9916 126.678 81.4466 125.705 77.8047 126.005C74.9944 126.239 72.4195 126.561 69.676 128.015C70.9735 124.603 72.2269 121.077 72.4013 117.345C72.6122 112.812 70.993 108.748 68.0705 106.476C65.7897 104.703 62.5991 104.02 59.7428 104.696C57.1106 105.317 54.7429 107.053 53.3013 109.391C51.7193 106.557 48.1371 104.78 44.6942 105.203C41.301 105.621 38.1361 107.956 36.4345 111.296C34.9343 114.242 34.5408 117.909 35.3259 121.622C35.9246 124.453 37.1749 127.332 39.1403 130.401C38.6649 130.262 38.1903 130.117 37.7144 129.973C35.4726 129.291 33.3555 128.648 31.0689 128.462C27.5756 128.179 24.5229 128.683 21.9927 129.958C18.9897 131.472 16.8493 134.12 16.2664 137.043C15.6583 140.09 16.9897 143.413 19.3895 144.99C16.0605 147.811 14.77 152.843 16.3947 156.906C18.0781 161.115 22.7455 163.918 27.2494 163.427C30.5154 163.072 33.3026 161.24 35.4763 159.468C34.3356 163.256 33.4681 166.732 33.6625 170.255C33.9086 174.72 36.1934 178.643 39.4821 180.25C40.6625 180.827 41.977 181.118 43.2921 181.118C44.4113 181.118 45.5308 180.907 46.5657 180.483C48.6401 179.632 50.3537 177.934 51.24 175.876C53.4774 178.584 56.4754 180.373 59.5419 180.813C63.1751 181.333 66.9171 179.833 68.8491 177.081C70.1164 175.273 70.7359 172.916 70.7428 169.875C70.751 166.134 69.8936 162.415 68.2555 159.056C70.5477 160.186 73.0306 161.314 75.9032 162.137C79.4244 163.147 82.6532 163.251 85.4982 162.446C88.8374 161.5 91.601 159.133 92.7109 156.268C93.7433 153.603 93.3983 150.47 91.8101 148.092L91.8103 148.092Z" fill="#DCB8FF"/>
<path d="M79.6913 145.548C79.2026 144.826 78.5471 144.224 77.7957 143.782C77.1859 143.424 77.1345 142.58 77.6621 142.111C78.6092 141.269 79.2913 140.089 79.4694 138.81C79.7715 136.64 78.744 134.285 76.8515 132.811C75.1655 131.498 72.8126 130.859 70.3953 131.056C69.2568 131.15 68.1764 131.265 67.0932 131.557C66.27 131.78 65.5152 131.03 65.7855 130.23C66.3152 128.662 66.7298 127.05 66.809 125.374C66.9489 122.4 65.8742 119.733 63.9347 118.243C62.4208 117.079 60.3032 116.631 58.4074 117.074C57.075 117.385 55.8446 118.122 54.9111 119.134C54.5087 119.571 53.8061 119.599 53.3948 119.171C52.1771 117.903 50.2679 117.183 48.4192 117.407C46.1671 117.682 44.0666 119.214 42.9371 121.405C41.9414 123.338 41.6802 125.744 42.2013 128.18C42.4185 129.196 42.7589 130.184 43.1849 131.132C43.4417 131.704 44.1294 132.512 43.6469 133.124C43.2229 133.663 42.6447 133.318 42.1144 133.175C40.9583 132.863 39.7703 132.659 38.5723 132.624C36.5868 132.567 34.8341 132.912 33.3516 133.65C31.3585 134.643 29.9377 136.381 29.5509 138.298C29.219 139.943 29.7577 141.709 30.8452 142.86C31.2067 143.243 31.238 143.834 30.8933 144.232C29.2378 146.141 28.686 148.983 29.6361 151.331C30.7534 154.093 33.8514 155.932 36.8406 155.61C37.99 155.486 39.05 155.09 40.0073 154.572C40.8178 154.133 41.7617 154.836 41.5552 155.726C41.2119 157.207 41.0164 158.642 41.0973 160.09C41.2607 163.019 42.777 165.593 44.9599 166.648C45.7434 167.026 46.6158 167.217 47.4887 167.217C48.2316 167.217 48.9746 167.079 49.6615 166.8C50.6257 166.41 51.4727 165.746 52.0956 164.919C52.4801 164.409 53.2116 164.309 53.6826 164.743C55.0233 165.977 56.6338 166.785 58.274 167.017C60.6854 167.358 63.169 166.375 64.4514 164.568C65.2925 163.382 65.7037 161.836 65.7083 159.84C65.7119 158.219 65.465 156.605 64.9836 155.06C64.7228 154.223 65.5874 153.472 66.405 153.809C67.259 154.161 68.1626 154.488 69.1333 154.764C71.4703 155.426 73.6134 155.494 75.5017 154.966C77.7179 154.345 79.5524 152.792 80.289 150.912C80.9743 149.164 80.7453 147.108 79.6911 145.548H79.6913Z" fill="#E5C9FF"/>
<path d="M43.2933 181.759C41.8806 181.759 40.468 181.447 39.2001 180.827C34.9582 178.754 33.2262 174.024 33.0198 170.288C32.8542 167.284 33.4604 164.244 34.3167 161.154C32.379 162.516 29.9866 163.776 27.3204 164.066C22.5333 164.586 17.5838 161.609 15.7972 157.143C14.173 153.082 15.2929 148.109 18.3803 145.042C16.1573 143.19 15.0235 139.978 15.6355 136.914C16.2562 133.799 18.525 130.983 21.7044 129.38C24.3441 128.05 27.5113 127.524 31.1223 127.817C33.4101 128.003 35.5978 128.653 37.7143 129.296C36.2085 126.695 35.2156 124.209 34.6962 121.754C33.8803 117.896 34.294 114.078 35.8609 111.002C37.6589 107.473 41.0143 105.006 44.6166 104.561C48.0112 104.143 51.4283 105.636 53.3202 108.22C54.867 106.161 57.1207 104.651 59.5961 104.066C62.6834 103.337 65.9999 104.047 68.4677 105.965C71.5557 108.366 73.2668 112.631 73.0458 117.374C72.8927 120.66 71.9347 123.761 70.8349 126.76C73.1421 125.821 75.3657 125.56 77.753 125.361C81.5505 125.045 85.2635 126.069 87.9322 128.171C90.9597 130.556 92.6016 134.379 92.1161 137.909C91.7529 140.544 90.1746 142.873 88.0468 144.223C89.7768 144.946 91.3004 146.165 92.3473 147.732C94.0501 150.282 94.4204 153.641 93.313 156.499C92.1144 159.595 89.2594 162.05 85.6754 163.064C82.7153 163.903 79.3679 163.8 75.7272 162.755C73.4596 162.105 71.4355 161.27 69.5577 160.395C70.7677 163.398 71.396 166.629 71.3891 169.874C71.3815 173.052 70.7236 175.53 69.3777 177.449C67.3102 180.397 63.3208 182.003 59.4516 181.449C56.5154 181.028 53.6459 179.439 51.3902 177.02C50.366 178.825 48.7328 180.29 46.8115 181.077C45.6998 181.533 44.4967 181.759 43.2936 181.759L43.2933 181.759ZM36.1027 157.553C36.2864 157.553 36.4704 157.605 36.6321 157.71C36.9928 157.946 37.1533 158.392 37.0268 158.804C35.7728 162.88 34.7504 166.55 34.9511 170.182C35.1721 174.188 37.1735 177.684 40.0492 179.09C41.9088 179.998 44.1633 180.072 46.0777 179.287C47.9935 178.502 49.5465 176.868 50.2326 174.915C50.3504 174.581 50.6418 174.337 50.9926 174.281C51.3458 174.228 51.6963 174.366 51.9117 174.647C53.978 177.337 56.826 179.118 59.7256 179.534C62.8923 179.988 66.1344 178.704 67.7945 176.338C68.905 174.754 69.4483 172.638 69.4546 169.869C69.4628 166.014 68.5003 162.181 66.6714 158.787C66.4713 158.415 66.5348 157.958 66.8288 157.655C67.1227 157.353 67.5793 157.275 67.9556 157.464C70.4386 158.708 73.1254 159.997 76.2594 160.896C79.5488 161.839 82.5385 161.942 85.148 161.203C88.1056 160.366 90.5432 158.295 91.5096 155.8C92.3928 153.52 92.0976 150.84 90.739 148.806C89.3798 146.773 87.0172 145.474 84.5726 145.417C84.0626 145.405 83.6497 144.999 83.6289 144.489C83.6087 143.979 83.9878 143.541 84.4951 143.488C87.2827 143.198 89.7884 140.632 90.1994 137.645C90.5935 134.781 89.2337 131.659 86.7351 129.69C84.4467 127.887 81.2334 127.013 77.9126 127.288C74.8951 127.539 72.3638 127.866 69.556 129.562C69.2041 129.776 68.7527 129.741 68.4361 129.477C68.1195 129.212 68.0055 128.775 68.1528 128.389C69.5208 124.813 70.9355 121.114 71.1141 117.283C71.3055 113.168 69.8726 109.507 67.2803 107.492C65.3003 105.952 62.5254 105.361 60.0405 105.948C57.5677 106.532 55.3599 108.243 54.1347 110.525C53.9604 110.85 53.6141 111.04 53.2477 111.034C52.8787 111.021 52.5501 110.799 52.3996 110.462C51.2161 107.807 47.9765 106.097 44.8533 106.48C41.88 106.847 39.0942 108.916 37.5846 111.879C36.2178 114.563 35.864 117.927 36.5886 121.354C37.1993 124.242 38.5408 127.204 40.6888 130.408C40.9136 130.744 40.906 131.184 40.6699 131.512C40.4326 131.84 40.0183 131.986 39.6281 131.878C38.8632 131.667 38.1033 131.436 37.3435 131.205C35.169 130.544 33.1154 129.919 30.9662 129.745C27.7126 129.482 24.8917 129.94 22.5743 131.107C19.9227 132.444 18.0378 134.756 17.5317 137.293C16.9959 139.979 18.2362 142.907 20.4169 144.102C20.7039 144.259 20.8915 144.55 20.9168 144.876C20.9414 145.203 20.7997 145.519 20.5397 145.718C17.3838 148.132 16.1172 152.735 17.5928 156.424C19.0691 160.114 23.163 162.574 27.1115 162.143C30.4601 161.779 33.3384 159.624 35.4719 157.787C35.652 157.632 35.8766 157.553 36.1027 157.553Z" fill="#252525"/>
<path d="M35.5123 159.938C31.8576 163.277 27.895 167.333 25.2048 172.398C22.3686 177.737 21.4842 183.564 22.7257 188.546C21.2091 189.012 19.6125 189.2 18.0274 189.097C17.7958 183.876 18.8615 178.65 21.126 173.932C23.1832 169.647 26.1912 165.874 29.8882 162.905C29.8157 162.912 29.7478 162.927 29.6731 162.93C28.9646 162.954 28.0113 162.901 27.1926 162.657C23.9463 165.587 21.283 169.136 19.3821 173.096C16.8552 178.36 15.7357 184.222 16.1449 190.047C16.177 190.507 16.5296 190.88 16.9873 190.938C17.6131 191.018 18.2433 191.058 18.8728 191.058C20.7048 191.058 22.5336 190.722 24.2466 190.065C24.722 189.883 24.9744 189.363 24.8244 188.877C23.3822 184.194 24.1432 178.518 26.9127 173.305C29.1015 169.183 32.2205 165.73 35.2903 162.793C35.2954 162.686 35.3003 162.638 35.3055 162.778L35.3058 162.778C35.2997 162.572 35.2912 162.366 35.2856 162.16C35.2713 161.637 35.2543 161.101 35.3399 160.583C35.3767 160.361 35.4389 160.147 35.5123 159.938V159.938Z" fill="#252525"/>
<path d="M245.955 17.7293C238.006 22.495 236.413 30.588 236.114 32.9503C235.595 37.043 236.311 41.1786 238.106 44.8322C237.414 47.1433 237.14 49.5375 237.308 51.9257C237.944 60.9735 244.574 68.6238 253.43 70.5313C254.927 70.8541 256.453 71.0002 257.975 70.9759C258.401 72.1207 258.935 73.2306 259.575 74.2993C264.337 82.248 272.433 83.8436 274.798 84.1429C278.891 84.6625 283.027 83.9456 286.68 82.15C288.991 82.8429 291.385 83.116 293.773 82.9488C302.819 82.3131 310.47 75.6833 312.379 66.826C312.702 65.3288 312.847 63.8032 312.823 62.2817C313.968 61.8557 315.079 61.3217 316.148 60.6811C324.095 55.9169 325.69 47.823 325.99 45.4592C326.509 41.3663 325.793 37.2303 323.997 33.5762C324.69 31.2656 324.963 28.8713 324.796 26.4838C324.487 22.084 322.742 17.925 319.83 14.5602C320.652 13.3163 321.158 11.8547 321.259 10.2888C321.569 5.51948 319.836 1.00569 316.507 -2.0943C315.584 -2.95369 314.556 -3.68292 313.455 -4.25931C311.157 -5.46615 308.461 -5.59264 306.06 -4.60725C303.455 -3.53874 300.99 -2.16672 298.711 -0.528005C294.259 -4.51829 289.112 -5.5039 287.305 -5.73327C283.213 -6.25242 279.077 -5.53586 275.424 -3.74088C273.113 -4.43334 270.718 -4.7068 268.33 -4.53896C259.283 -3.90258 251.632 2.72741 249.725 11.5827C249.402 13.0803 249.256 14.6059 249.281 16.128C248.135 16.5536 247.025 17.0874 245.956 17.728L245.954 17.7293L245.955 17.7293Z" fill="#F9F8F4"/>
<path d="M296.514 13.8557C296.384 14.0576 296.314 14.2922 296.314 14.5324C296.311 15.4337 296.215 16.3371 296.03 17.2174C295.925 17.7157 296.133 18.2289 296.556 18.5129C296.979 18.7977 297.532 18.7972 297.955 18.5121C298.688 18.0177 299.512 17.5967 300.403 17.2604C300.555 17.2033 300.694 17.1169 300.813 17.007C304.037 14.0156 307.913 11.6731 312.022 10.2324C312.536 10.0523 312.874 9.56006 312.859 9.01543C312.802 7.05426 312.032 5.27686 310.758 4.09058C310.528 3.87658 310.282 3.68171 310.021 3.50897C309.668 3.27529 309.222 3.23549 308.834 3.40287C303.798 5.57452 299.538 9.18891 296.514 13.8557Z" fill="#DCB8FF"/>
<path d="M257.995 13.3706C257.17 17.2043 258.31 21.1932 260.986 24.1274C258.754 23.3606 254.471 22.4891 250.312 24.9814C245.514 27.8579 244.634 33.0173 244.507 34.0221C244.055 37.5798 245.275 41.3943 247.696 44.0418C246.654 45.6811 245.528 48.2222 245.747 51.342C246.115 56.5781 250.1 61.1797 255.222 62.2819C259.051 63.1071 263.039 61.9673 265.981 59.2867C265.215 61.5181 264.34 65.8056 266.834 69.9662C269.714 74.7691 274.87 75.6442 275.875 75.7711C279.432 76.2222 283.247 75.0022 285.894 72.5809C287.534 73.6233 290.075 74.7494 293.194 74.5305C298.429 74.163 303.031 70.1778 304.135 65.0549C304.96 61.2203 303.82 57.2305 301.145 54.2984C303.377 55.0652 307.659 55.9364 311.818 53.444C316.616 50.5672 317.496 45.4082 317.623 44.4034C318.075 40.8457 316.855 37.031 314.434 34.3837C315.476 32.7434 316.602 30.2023 316.383 27.0835C316.167 24.0082 314.703 21.1519 312.493 19.0944C310.941 17.6495 309.021 16.5981 306.907 16.1426C303.079 15.3183 299.091 16.4582 296.149 19.1376C296.916 16.9065 297.79 12.6201 295.296 8.45947C292.416 3.65802 287.26 2.7819 286.255 2.65443C282.699 2.20264 278.884 3.42239 276.236 5.84402C274.597 4.80153 272.057 3.67557 268.936 3.89475C263.7 4.26315 259.099 8.24814 257.995 13.3704L257.995 13.3706Z" fill="#DCB8FF"/>
<path d="M265.143 21.3756C264.735 23.2686 265.022 25.2163 265.894 26.9133C266.246 27.5974 265.721 28.38 264.956 28.3011C263.461 28.1468 261.634 28.315 259.839 29.3902C256.527 31.3757 255.92 34.9372 255.832 35.6307C255.588 37.5609 256.055 39.6005 257.078 41.2724C257.566 42.0699 257.687 43.0384 257.323 43.8995C256.895 44.9102 256.589 46.1606 256.689 47.5859C256.942 51.2002 259.693 54.3765 263.229 55.1373C265.12 55.545 267.068 55.2579 268.767 54.3833C269.452 54.0312 270.234 54.5566 270.155 55.322C270 56.8174 270.168 58.6467 271.244 60.4416C273.232 63.7569 276.791 64.3611 277.484 64.4486C279.414 64.6934 281.453 64.2259 283.124 63.2035C283.937 62.7067 284.919 62.6104 285.798 62.9765C287.375 63.6335 289.524 63.9903 292.007 62.9831C293.517 62.3701 294.837 61.3194 295.745 59.9653C297.549 57.274 297.574 54.0695 296.216 51.4671C295.871 50.8063 296.437 50.0497 297.178 50.1261C298.673 50.2804 300.5 50.1122 302.294 49.0368C305.607 47.0511 306.214 43.49 306.302 42.7964C306.547 40.8661 306.079 38.8264 305.056 37.1545C304.568 36.3568 304.447 35.3885 304.811 34.5273C305.239 33.5163 305.546 32.266 305.445 30.8411C305.297 28.7182 304.286 26.7467 302.76 25.3264C301.689 24.329 300.364 23.6032 298.904 23.2889C297.013 22.8817 295.066 23.169 293.367 24.0434C292.682 24.3955 291.9 23.8702 291.979 23.1048C292.134 21.6096 291.966 19.7806 290.89 17.9857C288.902 14.6714 285.343 14.0666 284.65 13.9786C282.72 13.7335 280.68 14.2012 279.008 15.2242C278.21 15.7122 277.242 15.8331 276.381 15.4686C275.37 15.0412 274.12 14.7346 272.695 14.8348C269.08 15.0891 265.904 17.8397 265.142 21.3754L265.143 21.3756Z" fill="#E5C9FF"/>
<path d="M312.915 18.6386C315.24 20.8027 316.78 23.8069 317.007 27.0419C317.22 30.082 316.225 32.5957 315.208 34.3179C317.576 37.1022 318.705 40.8483 318.244 44.4843C318.11 45.5396 317.186 50.9578 312.139 53.9831C308.747 56.0166 305.279 55.9223 302.801 55.4018C304.74 58.2738 305.478 61.7907 304.746 65.1891C303.585 70.5778 298.745 74.7703 293.238 75.1572C290.196 75.3706 287.684 74.375 285.961 73.3582C283.178 75.7262 279.432 76.8556 275.795 76.3944C274.74 76.2608 269.321 75.3376 266.297 70.2899C264.264 66.8986 264.359 63.4293 264.88 60.9498C262.007 62.8901 258.49 63.6286 255.09 62.896C249.702 61.7359 245.509 56.895 245.122 51.3881C244.909 48.3456 245.904 45.8331 246.921 44.1118C244.553 41.3275 243.424 37.5818 243.886 33.9457C244.019 32.8906 244.942 27.4735 249.989 24.4468C253.38 22.4144 256.85 22.5097 259.329 23.0299C257.389 20.1573 256.65 16.6401 257.383 13.241C258.544 7.85226 263.384 3.66022 268.892 3.2728C271.933 3.05907 274.446 4.05471 276.168 5.07136C278.952 2.70358 282.698 1.57452 286.334 2.03579C287.389 2.1696 292.808 3.0937 295.832 8.1403C297.867 11.534 297.773 15 297.252 17.4774C300.124 15.5388 303.64 14.8013 307.039 15.533C309.262 16.0122 311.282 17.118 312.915 18.6383L312.915 18.6386ZM299.089 54.059C298.753 53.7455 298.692 53.2299 298.953 52.8456C299.222 52.4488 299.747 52.3188 300.17 52.544C300.403 52.6676 305.908 55.5298 311.174 52.3729C315.476 49.794 316.267 45.1522 316.382 44.2479C316.798 40.9732 315.639 37.4561 313.359 35.0692C313.057 34.7528 313.013 34.2687 313.255 33.9035C314.225 32.4357 315.339 30.0767 315.135 27.1738C314.805 22.4807 311.233 18.3575 306.643 17.3685C302.734 16.5265 298.632 17.9783 295.938 21.1572C295.628 21.5232 295.092 21.5962 294.695 21.3271C294.294 21.0525 294.168 20.5318 294.394 20.1091C294.518 19.8771 297.382 14.3755 294.223 9.10549C291.642 4.80177 287.002 4.01244 286.098 3.89835C282.823 3.48248 279.306 4.64078 276.919 6.92077C276.602 7.22325 276.118 7.26669 275.753 7.02509C274.286 6.05475 271.929 4.94167 269.024 5.14564C264.331 5.47569 260.207 9.04616 259.219 13.6363C258.377 17.546 259.84 21.6637 263.007 24.3415C263.383 24.6636 263.447 25.1879 263.177 25.5844C262.908 25.981 262.384 26.1114 261.96 25.8866C261.728 25.7631 256.217 22.9035 250.955 26.0572C246.652 28.6369 245.863 33.2781 245.748 34.1823C245.333 37.457 246.491 40.9742 248.771 43.361C249.074 43.6779 249.117 44.1618 248.875 44.5272C247.905 45.9936 246.791 48.351 246.996 51.2566C247.325 55.9489 250.896 60.0732 255.486 61.061C259.395 61.9036 263.497 60.4519 266.192 57.2727C266.501 56.9069 267.037 56.8335 267.434 57.1024C267.83 57.3751 267.961 57.8966 267.736 58.32C267.613 58.552 264.753 64.0634 267.907 69.3251C270.487 73.6268 275.128 74.4177 276.032 74.5322C279.307 74.9475 282.824 73.7895 285.211 71.5096C285.528 71.2069 286.011 71.1635 286.377 71.4051C287.844 72.375 290.202 73.4886 293.106 73.2847C297.799 72.9552 301.922 69.384 302.912 64.7941C303.753 60.8845 302.298 56.7741 299.123 54.0889C299.111 54.0789 299.1 54.069 299.089 54.059Z" fill="#252525"/>
<path d="M295.998 13.4843C296.06 13.7358 296.123 13.9871 296.185 14.2392C296.342 14.8816 296.375 15.5773 296.556 16.2143C299.418 11.0038 303.927 6.88356 309.326 4.55594C310.688 5.45848 311.549 7.17262 311.604 9.05545C307.001 10.67 302.746 13.3156 299.267 16.7353C299.098 16.9009 299.009 17.1147 298.992 17.3332C299.2 17.2371 299.408 17.1407 299.62 17.0532C300.167 16.8279 300.908 16.6882 301.344 16.5512C301.693 16.4417 302.052 16.4057 302.391 16.4475C305.459 13.872 309.019 11.8716 312.822 10.6248C313.186 10.5054 313.441 10.1766 313.466 9.79404C313.624 7.36323 312.758 5.10161 311.189 3.64142C310.782 3.26209 310.328 2.93708 309.832 2.67737C309.586 2.54848 309.297 2.53497 309.04 2.64034C303.708 4.82773 299.152 8.63266 295.998 13.4845L295.998 13.4843Z" fill="#252525"/>
</g>
<defs>
<filter id="filter0_i_6533_72770" x="-41" y="-16" width="398.91" height="225.834" filterUnits="userSpaceOnUse" color-interpolation-filters="sRGB">
<feFlood flood-opacity="0" result="BackgroundImageFix"/>
<feBlend mode="normal" in="SourceGraphic" in2="BackgroundImageFix" result="shape"/>
<feColorMatrix in="SourceAlpha" type="matrix" values="0 0 0 0 0 0 0 0 0 0 0 0 0 0 0 0 0 0 127 0" result="hardAlpha"/>
<feOffset dy="4"/>
<feGaussianBlur stdDeviation="2"/>
<feComposite in2="hardAlpha" operator="arithmetic" k2="-1" k3="1"/>
<feColorMatrix type="matrix" values="0 0 0 0 0 0 0 0 0 0 0 0 0 0 0 0 0 0 0.25 0"/>
<feBlend mode="normal" in2="shape" result="effect1_innerShadow_6533_72770"/>
</filter>
<filter id="filter1_i_6533_72770" x="-36" y="42.998" width="423.617" height="176.002" filterUnits="userSpaceOnUse" color-interpolation-filters="sRGB">
<feFlood flood-opacity="0" result="BackgroundImageFix"/>
<feBlend mode="normal" in="SourceGraphic" in2="BackgroundImageFix" result="shape"/>
<feColorMatrix in="SourceAlpha" type="matrix" values="0 0 0 0 0 0 0 0 0 0 0 0 0 0 0 0 0 0 127 0" result="hardAlpha"/>
<feOffset dy="4"/>
<feGaussianBlur stdDeviation="2"/>
<feComposite in2="hardAlpha" operator="arithmetic" k2="-1" k3="1"/>
<feColorMatrix type="matrix" values="0 0 0 0 0 0 0 0 0 0 0 0 0 0 0 0 0 0 0.25 0"/>
<feBlend mode="normal" in2="shape" result="effect1_innerShadow_6533_72770"/>
</filter>
</defs>
</svg>
