<svg width="319" height="193" viewBox="0 0 319 193" fill="none" xmlns="http://www.w3.org/2000/svg">
<mask id="mask0_6533_72805" style="mask-type:alpha" maskUnits="userSpaceOnUse" x="0" y="0" width="319" height="193">
<rect x="0.5" y="0.5" width="318" height="192" rx="14.5" fill="#D9D9D9" stroke="#F9F8F4"/>
</mask>
<g mask="url(#mask0_6533_72805)">
<g filter="url(#filter0_i_6533_72805)">
<path d="M35 108.833C1 112.833 -29.8333 160.833 -41 184.333V205.833H356C360.5 128.5 359.9 -24.0669 321.5 -15.6669C273.5 -5.16691 285.5 23.8331 213 77.3331C140.5 130.833 77.5 103.833 35 108.833Z" fill="#FF5B23"/>
</g>
<g filter="url(#filter1_i_6533_72805)">
<path d="M41 135C11 135 -22.8333 170 -36 187.5V213L384 215C389.333 157.833 392.8 43.4002 364 43.0002C328 42.5002 297.5 128 231 148C164.5 168 78.5 135 41 135Z" fill="#FF5B23"/>
</g>
<path d="M295.711 158.197C289.037 142.945 280.346 137.342 280.346 137.342L261.576 139.344L242.805 137.342C242.805 137.342 234.114 142.945 227.44 158.197C221.148 172.577 221.077 184.033 226.82 190.881C233.452 198.79 253.761 198.821 261.576 198.52C269.39 198.821 289.7 198.79 296.332 190.881C302.074 184.033 302.003 172.578 295.711 158.197Z" fill="white"/>
<path d="M250.215 191.545C249.978 191.465 249.74 191.394 249.499 191.328C249.503 191.322 249.508 191.317 249.512 191.311C251.08 188.414 252.417 185.773 252.89 182.799C253.703 177.682 251.486 172.265 247.371 169.318C243.785 166.751 238.821 166.143 234.724 167.768C234.567 167.83 234.491 168.007 234.553 168.164C234.615 168.321 234.791 168.397 234.947 168.335C238.858 166.783 243.596 167.364 247.018 169.814C250.949 172.629 253.068 177.809 252.29 182.703C251.832 185.58 250.519 188.172 248.979 191.019C248.949 191.074 248.943 191.135 248.949 191.193C245.712 190.469 242.28 191.037 239.733 192.774C239.594 192.869 239.558 193.059 239.653 193.198C239.747 193.337 239.936 193.373 240.075 193.278C242.803 191.418 246.615 190.974 250.022 192.122C253.147 193.174 255.97 195.48 257.972 198.615C258.03 198.705 258.128 198.755 258.228 198.755C258.284 198.755 258.341 198.74 258.392 198.707C258.533 198.617 258.575 198.428 258.484 198.286C256.408 195.035 253.471 192.641 250.215 191.545Z" fill="#412945"/>
<path d="M292.3 167.768C288.204 166.142 283.238 166.751 279.652 169.319C275.538 172.265 273.32 177.683 274.134 182.8C274.607 185.773 275.943 188.413 277.511 191.311C277.515 191.318 277.52 191.323 277.524 191.329C277.284 191.394 277.045 191.465 276.808 191.545C273.553 192.641 270.617 195.036 268.54 198.287C268.45 198.429 268.491 198.617 268.632 198.708C268.683 198.74 268.74 198.756 268.796 198.756C268.896 198.756 268.994 198.706 269.052 198.615C271.054 195.48 273.877 193.174 277.002 192.122C280.409 190.975 284.221 191.418 286.949 193.279C287.088 193.373 287.277 193.337 287.372 193.198C287.466 193.059 287.43 192.87 287.291 192.775C284.745 191.038 281.312 190.47 278.076 191.193C278.081 191.135 278.076 191.075 278.046 191.02C276.505 188.172 275.192 185.581 274.735 182.703C273.956 177.809 276.074 172.629 280.006 169.814C283.429 167.364 288.167 166.783 292.077 168.335C292.233 168.397 292.41 168.32 292.472 168.164C292.533 168.008 292.457 167.831 292.301 167.768H292.3Z" fill="#412945"/>
<path d="M238.402 141.234C238.402 141.234 243.73 162.193 261.656 161.778C279.582 161.363 285.091 141.65 285.091 141.65L261.088 139.367L238.402 141.234Z" fill="#FF5B23"/>
<path d="M238.301 140.764C238.301 140.764 249.716 143.047 261.636 142.943C273.556 142.839 285.274 141.179 285.274 141.179C285.274 141.179 276.182 148.753 263.252 149.272C250.322 149.791 238.301 140.764 238.301 140.764Z" fill="#412945"/>
<path d="M295.261 119.754C294.934 118.442 294.613 117.129 294.183 115.849C294.556 112.355 296.125 95.542 292.095 93.452C288.616 91.6477 280.877 95.6988 277.539 97.6327C273.094 95.7727 267.743 94.6972 261.351 94.6972C255.332 94.6972 250.341 95.8167 246.175 97.7156C242.92 95.8174 235.004 91.6218 231.476 93.452C227.377 95.5783 229.07 112.932 229.405 116.016C228.671 117.667 228.022 119.338 227.441 120.999C220.147 141.854 242.966 144.033 261.351 144.033C279.736 144.033 301.624 145.279 295.261 119.754Z" fill="white"/>
<path d="M232.095 111.195C232.095 111.195 230.543 98.4323 233.647 97.2914C236.751 96.1498 241.924 100.093 241.924 100.093C241.924 100.093 235.303 106.422 232.095 111.195Z" fill="#DCB8FF"/>
<path d="M292.103 110.996C292.103 110.996 293.137 98.1813 289.989 97.1674C286.841 96.1534 281.832 100.304 281.832 100.304C281.832 100.304 288.705 106.358 292.103 110.996Z" fill="#DCB8FF"/>
<path d="M238.63 121.165C238.529 121.025 238.518 120.843 238.61 120.698C238.981 120.115 240.283 118.758 244.302 118.955C248.706 119.171 253.313 123.867 254.485 125.14C254.649 125.318 254.635 125.579 254.455 125.743C254.274 125.909 253.985 125.919 253.79 125.766C252.543 124.786 248.154 121.489 245.213 121.205C242.565 120.95 240.558 121.671 239.762 122.024C239.542 122.121 239.28 122.055 239.143 121.868L238.631 121.164L238.63 121.165Z" fill="#412945"/>
<path d="M286.332 121.165C286.434 121.025 286.445 120.843 286.353 120.698C285.982 120.115 284.679 118.758 280.66 118.955C276.257 119.171 271.65 123.867 270.478 125.14C270.314 125.318 270.328 125.579 270.508 125.743C270.689 125.909 270.978 125.919 271.173 125.766C272.421 124.786 276.809 121.489 279.75 121.205C282.398 120.95 284.405 121.671 285.201 122.024C285.421 122.121 285.684 122.055 285.819 121.868L286.332 121.164L286.332 121.165Z" fill="#412945"/>
<path d="M256.607 132.922C254.502 132.922 253.259 131.46 253.199 131.388C253.092 131.259 253.109 131.067 253.238 130.959C253.367 130.851 253.558 130.868 253.666 130.997C253.725 131.068 255.14 132.717 257.482 132.218C259.953 131.692 262.012 130.33 262.033 130.317C262.172 130.223 262.361 130.262 262.454 130.402C262.547 130.541 262.509 130.731 262.37 130.824C262.282 130.882 260.196 132.264 257.609 132.814C257.256 132.889 256.922 132.922 256.607 132.922Z" fill="#412945"/>
<path d="M267.875 132.922C267.56 132.922 267.226 132.889 266.873 132.814C264.287 132.264 262.129 130.886 262.038 130.827C261.897 130.736 261.856 130.547 261.947 130.406C262.037 130.264 262.225 130.223 262.367 130.314C262.388 130.328 264.525 131.692 266.999 132.218C269.341 132.716 270.756 131.068 270.815 130.997C270.924 130.869 271.115 130.852 271.244 130.959C271.372 131.068 271.389 131.259 271.282 131.388C271.223 131.459 269.98 132.921 267.874 132.921L267.875 132.922Z" fill="#412945"/>
<path d="M252.841 119.075C252.719 119.075 252.603 119 252.557 118.878C251.067 114.942 248.806 113.87 248.783 113.859C248.631 113.789 248.563 113.608 248.633 113.456C248.703 113.303 248.883 113.235 249.036 113.305C249.138 113.351 251.547 114.494 253.125 118.662C253.185 118.819 253.106 118.995 252.949 119.055C252.914 119.069 252.877 119.075 252.841 119.075Z" fill="#412945"/>
<path d="M254.548 117.208C254.39 117.208 254.256 117.086 254.245 116.926C253.997 113.501 252.919 112.018 252.908 112.003C252.808 111.869 252.835 111.678 252.969 111.577C253.102 111.476 253.292 111.502 253.393 111.636C253.441 111.7 254.588 113.255 254.851 116.883C254.863 117.05 254.737 117.197 254.569 117.208C254.562 117.208 254.555 117.209 254.547 117.209L254.548 117.208Z" fill="#412945"/>
<path d="M270.871 119.072C270.835 119.072 270.798 119.065 270.762 119.052C270.606 118.992 270.527 118.816 270.586 118.658C272.164 114.491 274.574 113.348 274.676 113.301C274.828 113.231 275.009 113.298 275.079 113.452C275.148 113.605 275.081 113.786 274.929 113.856C274.897 113.871 272.634 114.969 271.154 118.875C271.108 118.996 270.993 119.072 270.871 119.072Z" fill="#412945"/>
<path d="M269.163 117.205C269.156 117.205 269.149 117.205 269.141 117.205C268.974 117.192 268.848 117.047 268.86 116.879C269.123 113.251 270.269 111.697 270.318 111.632C270.419 111.498 270.61 111.472 270.744 111.574C270.877 111.676 270.904 111.866 270.803 112C270.787 112.021 269.713 113.505 269.466 116.923C269.454 117.084 269.321 117.205 269.163 117.205Z" fill="#412945"/>
<path d="M238.382 133.605C242.882 133.605 246.529 131.585 246.529 129.092C246.529 126.599 242.882 124.578 238.382 124.578C233.882 124.578 230.234 126.599 230.234 129.092C230.234 131.585 233.882 133.605 238.382 133.605Z" fill="#DCB8FF"/>
<path d="M284.476 133.605C288.975 133.605 292.623 131.585 292.623 129.092C292.623 126.599 288.975 124.578 284.476 124.578C279.976 124.578 276.328 126.599 276.328 129.092C276.328 131.585 279.976 133.605 284.476 133.605Z" fill="#DCB8FF"/>
<path d="M243.583 128.408C243.55 128.408 243.517 128.403 243.485 128.392L230.656 124.035C230.497 123.981 230.412 123.808 230.465 123.649C230.519 123.489 230.691 123.404 230.851 123.457L243.68 127.815C243.839 127.869 243.925 128.042 243.871 128.201C243.828 128.328 243.709 128.408 243.583 128.408Z" fill="#412945"/>
<path d="M229.406 130.587C229.242 130.587 229.107 130.456 229.102 130.292C229.097 130.123 229.229 129.983 229.396 129.978L243.261 129.563C243.432 129.556 243.569 129.69 243.574 129.858C243.579 130.027 243.447 130.167 243.279 130.172L229.415 130.587C229.415 130.587 229.408 130.587 229.406 130.587Z" fill="#412945"/>
<path d="M279.792 128.408C279.665 128.408 279.547 128.328 279.504 128.201C279.451 128.042 279.536 127.869 279.695 127.815L292.525 123.457C292.683 123.404 292.856 123.489 292.91 123.649C292.964 123.808 292.879 123.981 292.72 124.035L279.89 128.392C279.858 128.403 279.824 128.408 279.792 128.408Z" fill="#412945"/>
<path d="M293.965 130.587C293.965 130.587 293.959 130.587 293.956 130.587L280.092 130.172C279.924 130.167 279.792 130.026 279.797 129.858C279.802 129.69 279.932 129.556 280.11 129.563L293.974 129.978C294.142 129.983 294.274 130.124 294.269 130.292C294.264 130.457 294.129 130.587 293.965 130.587Z" fill="#412945"/>
<path d="M266.317 146.953C266.317 149.467 264.285 151.505 261.778 151.505C259.271 151.505 257.238 149.467 257.238 146.953C257.238 144.439 259.271 142.4 261.778 142.4C264.285 142.4 266.317 144.439 266.317 146.953Z" fill="#DCB8FF"/>
<path d="M298.674 169.869C298.674 169.869 317.298 141.699 302.244 134.073C289.409 127.571 281.758 139.831 282.844 146.991C283.931 154.15 292.312 155.084 292.312 155.084L298.674 169.869Z" fill="white"/>
<path d="M299.483 153.064C299.4 152.917 299.213 152.867 299.068 152.951C294.104 155.804 289.384 154.758 286.696 152.774C287.942 151.197 289.501 149.833 291.231 148.82C291.376 148.735 291.424 148.549 291.339 148.403C291.255 148.258 291.069 148.209 290.924 148.294C289.128 149.345 287.511 150.76 286.218 152.396C285.846 152.076 285.524 151.739 285.259 151.394C284.516 150.429 283.85 149.386 283.437 148.177C283.444 148.166 283.452 148.157 283.458 148.146C284.438 146.093 285.929 144.306 287.77 142.976C287.906 142.878 287.938 142.687 287.84 142.551C287.742 142.414 287.552 142.383 287.415 142.481C285.662 143.748 284.217 145.415 283.198 147.324C282.725 145.201 283.049 142.573 284.974 139.042C288.489 132.592 295.885 132.508 295.959 132.508C296.127 132.508 296.263 132.371 296.263 132.203C296.263 132.034 296.127 131.898 295.959 131.898C295.882 131.898 288.132 131.977 284.441 138.749C280.905 145.237 282.627 148.97 284.777 151.766C285.084 152.164 285.475 152.565 285.934 152.949C285.951 153.014 285.984 153.076 286.042 153.119C286.096 153.161 286.16 153.181 286.225 153.181C287.792 154.385 290.077 155.352 292.789 155.352C294.793 155.352 297.026 154.825 299.37 153.478C299.516 153.395 299.566 153.208 299.483 153.062V153.064Z" fill="#412945"/>
<path d="M299.659 170.124C299.513 170.124 299.384 170.018 299.36 169.869C298.244 163.054 296 158.8 295.977 158.758C295.898 158.609 295.953 158.425 296.102 158.345C296.25 158.265 296.434 158.321 296.513 158.469C296.537 158.512 298.827 162.848 299.96 169.769C299.987 169.935 299.875 170.092 299.709 170.119C299.692 170.122 299.676 170.123 299.659 170.123V170.124Z" fill="#412945"/>
<path d="M262.825 184.941L256.465 190.313C251.901 194.168 245.086 193.583 241.243 189.007L218.224 161.601C214.381 157.025 214.964 150.191 219.527 146.336L225.888 140.964C230.451 137.109 237.266 137.694 241.109 142.27L264.128 169.676C267.972 174.252 267.388 181.086 262.825 184.941Z" fill="#DCB8FF"/>
<path d="M249.313 189.868C246.567 189.868 243.839 188.7 241.935 186.433L220.977 161.481C217.554 157.405 218.075 151.296 222.139 147.864L226.949 143.801C231.013 140.369 237.104 140.892 240.528 144.967L261.486 169.919C264.909 173.995 264.388 180.104 260.324 183.536L255.514 187.599C253.71 189.123 251.506 189.867 249.314 189.867L249.313 189.868ZM233.15 142.189C231.106 142.189 229.053 142.883 227.371 144.303L222.561 148.366C218.773 151.566 218.287 157.259 221.478 161.058L242.436 186.01C245.627 189.809 251.304 190.297 255.092 187.097L259.902 183.034C263.69 179.834 264.176 174.141 260.985 170.342L240.027 145.39C238.252 143.278 235.709 142.189 233.15 142.189Z" fill="#412945"/>
<path d="M236.34 147.594L236.653 147.25C237.372 146.46 238.618 146.477 239.315 147.286L246.859 156.043C247.512 156.802 247.415 157.95 246.644 158.588C245.919 159.187 244.855 159.118 244.213 158.43L236.356 150.019C235.721 149.338 235.714 148.283 236.34 147.595L236.34 147.594Z" fill="white"/>
<path d="M251.14 161.693C251.433 162.572 250.959 163.521 250.084 163.814C249.208 164.107 248.261 163.632 247.969 162.754C247.677 161.875 248.151 160.926 249.026 160.633C249.902 160.341 250.848 160.815 251.14 161.693Z" fill="white"/>
<path d="M240.414 179.502C240.414 179.502 244.221 184.59 248.476 184.404C252.731 184.218 255.321 182.469 255.321 182.469C255.321 182.469 252.811 187.637 248.503 187.399C244.195 187.162 240.414 179.502 240.414 179.502Z" fill="white"/>
<path d="M224.818 158.483C222.231 159.443 219.815 160.941 217.968 162.996C216.121 165.051 214.867 167.682 214.654 170.44C214.551 171.779 214.704 173.174 215.352 174.348C216.089 175.682 217.418 176.623 218.858 177.11C220.299 177.598 221.851 177.668 223.369 177.568C226.973 177.332 230.571 176.113 233.326 173.77C236.419 171.14 238.452 166.881 237.674 162.779C237.029 159.384 234.785 157.964 231.396 157.574C229.181 157.318 226.898 157.711 224.817 158.483L224.818 158.483Z" fill="white"/>
<path d="M228.421 163.214C228.343 163.214 228.266 163.187 228.203 163.131C228.069 163.01 228.056 162.803 228.177 162.668C229.962 160.661 232.378 159.191 234.977 158.53C235.153 158.485 235.33 158.591 235.375 158.768C235.42 158.943 235.314 159.122 235.139 159.167C232.664 159.796 230.365 161.195 228.665 163.105C228.6 163.178 228.511 163.214 228.421 163.214Z" fill="#412945"/>
<path d="M230.991 167.045C230.912 167.045 230.831 167.016 230.768 166.957C230.636 166.833 230.628 166.626 230.752 166.493C232.549 164.555 234.799 163.021 237.257 162.056C237.427 161.99 237.616 162.073 237.682 162.242C237.748 162.411 237.665 162.601 237.497 162.667C235.129 163.597 232.963 165.074 231.231 166.941C231.166 167.01 231.079 167.046 230.991 167.046V167.045Z" fill="#412945"/>
<path d="M223.151 177.97C222.83 177.97 222.639 177.957 222.604 177.954C222.437 177.941 222.312 177.795 222.325 177.627C222.338 177.459 222.483 177.334 222.652 177.347C222.69 177.35 226.572 177.62 230.548 175.362C230.695 175.279 230.88 175.331 230.963 175.477C231.046 175.624 230.994 175.809 230.848 175.892C227.553 177.763 224.392 177.971 223.151 177.971V177.97Z" fill="#412945"/>
<path d="M307.481 123.287L301.961 117.752L307.481 112.217L313 117.752L307.481 123.287Z" fill="#DCB8FF"/>
<path d="M207.519 167.359L202 161.824L207.519 156.289L213.039 161.824L207.519 167.359Z" fill="#DCB8FF"/>
</g>
<defs>
<filter id="filter0_i_6533_72805" x="-41" y="-16" width="398.91" height="225.834" filterUnits="userSpaceOnUse" color-interpolation-filters="sRGB">
<feFlood flood-opacity="0" result="BackgroundImageFix"/>
<feBlend mode="normal" in="SourceGraphic" in2="BackgroundImageFix" result="shape"/>
<feColorMatrix in="SourceAlpha" type="matrix" values="0 0 0 0 0 0 0 0 0 0 0 0 0 0 0 0 0 0 127 0" result="hardAlpha"/>
<feOffset dy="4"/>
<feGaussianBlur stdDeviation="2"/>
<feComposite in2="hardAlpha" operator="arithmetic" k2="-1" k3="1"/>
<feColorMatrix type="matrix" values="0 0 0 0 0 0 0 0 0 0 0 0 0 0 0 0 0 0 0.25 0"/>
<feBlend mode="normal" in2="shape" result="effect1_innerShadow_6533_72805"/>
</filter>
<filter id="filter1_i_6533_72805" x="-36" y="42.998" width="423.617" height="176.002" filterUnits="userSpaceOnUse" color-interpolation-filters="sRGB">
<feFlood flood-opacity="0" result="BackgroundImageFix"/>
<feBlend mode="normal" in="SourceGraphic" in2="BackgroundImageFix" result="shape"/>
<feColorMatrix in="SourceAlpha" type="matrix" values="0 0 0 0 0 0 0 0 0 0 0 0 0 0 0 0 0 0 127 0" result="hardAlpha"/>
<feOffset dy="4"/>
<feGaussianBlur stdDeviation="2"/>
<feComposite in2="hardAlpha" operator="arithmetic" k2="-1" k3="1"/>
<feColorMatrix type="matrix" values="0 0 0 0 0 0 0 0 0 0 0 0 0 0 0 0 0 0 0.25 0"/>
<feBlend mode="normal" in2="shape" result="effect1_innerShadow_6533_72805"/>
</filter>
</defs>
</svg>
