<svg width="319" height="193" viewBox="0 0 319 193" fill="none" xmlns="http://www.w3.org/2000/svg">
<mask id="mask0_6533_72913" style="mask-type:alpha" maskUnits="userSpaceOnUse" x="0" y="0" width="319" height="193">
<rect x="0.5" y="0.5" width="318" height="192" rx="14.5" fill="#D9D9D9" stroke="#F9F8F4"/>
</mask>
<g mask="url(#mask0_6533_72913)">
<g filter="url(#filter0_i_6533_72913)">
<path d="M35 108.833C1 112.833 -29.8333 160.833 -41 184.333V205.833H356C360.5 128.5 359.9 -24.0669 321.5 -15.6669C273.5 -5.16691 285.5 23.8331 213 77.3331C140.5 130.833 77.5 103.833 35 108.833Z" fill="#FF5B23"/>
</g>
<g filter="url(#filter1_i_6533_72913)">
<path d="M41 135C11 135 -22.8333 170 -36 187.5V213L384 215C389.333 157.833 392.8 43.4002 364 43.0002C328 42.5002 297.5 128 231 148C164.5 168 78.5 135 41 135Z" fill="#FF5B23"/>
</g>
<path d="M298.094 113.494C294.718 99.2569 287.15 87.2726 277.307 78.9131L271.893 70.5207C271.854 70.4602 271.811 70.4045 271.768 70.3496L271.764 70.3441C271.699 70.2609 271.631 70.1816 271.557 70.1094L269.226 67.4687C268.723 66.8785 267.829 66.84 267.278 67.3855L262.268 72.3359L264.23 74.2444L253.656 85.1898C252.535 86.3504 252.861 88.2692 254.302 88.992L263.688 93.6999C271.519 98.9218 277.661 107.497 280.16 118.032C284.981 138.357 274.404 158.294 256.53 162.556C238.657 166.817 220.258 153.794 215.441 133.469C214.068 127.678 213.944 121.924 214.883 116.55L217.115 106.388C217.453 104.846 216.215 103.154 214.643 103.236L210.831 103.479L193.802 105.378C192.345 105.454 191.345 105.997 191.637 107.43L193.653 117.328C193.143 124.028 193.653 131 195.313 138.007C202.967 170.287 232.185 190.966 260.569 184.199C288.949 177.427 305.755 145.773 298.095 113.493L298.094 113.494Z" fill="#412945"/>
<path d="M294.261 113.493C290.885 99.2565 283.317 87.2721 273.474 78.9126L268.06 70.5202C267.227 69.2293 265.413 69.0503 264.346 70.1553L249.822 85.1893C248.701 86.35 249.027 88.2688 250.468 88.9916L259.854 93.6994C267.685 98.9214 273.827 107.497 276.326 118.032C281.147 138.357 270.57 158.294 252.696 162.555C234.823 166.817 216.425 153.794 211.608 133.469C210.234 127.677 210.11 121.924 211.05 116.549L213.281 106.388C213.619 104.846 212.401 103.404 210.829 103.486L190.016 104.564C188.559 104.639 187.511 105.997 187.803 107.431L189.819 117.328C189.309 124.028 189.819 131.001 191.479 138.007C199.133 170.288 228.352 190.967 256.736 184.199C285.115 177.428 301.921 145.773 294.261 113.493Z" fill="#F9F8F4"/>
<path d="M189.817 117.805C189.561 117.805 189.35 117.603 189.34 117.345C189.331 117.081 189.536 116.859 189.799 116.85L211.03 116.07C211.301 116.067 211.514 116.267 211.524 116.531C211.534 116.795 211.328 117.017 211.065 117.026L189.835 117.805C189.828 117.805 189.823 117.805 189.817 117.805Z" fill="#412945"/>
<path d="M259.246 94.3585C259.128 94.3585 259.01 94.3145 258.917 94.2266C258.727 94.0446 258.72 93.7416 258.901 93.5509L273.127 78.5821C273.309 78.3906 273.611 78.3835 273.802 78.5656C273.992 78.7476 273.999 79.0506 273.818 79.2413L259.592 94.2101C259.498 94.309 259.373 94.3585 259.246 94.3585Z" fill="#412945"/>
<path d="M205.023 131.731C205.023 133.798 203.351 135.475 201.289 135.475C199.226 135.475 197.555 133.798 197.555 131.731C197.555 129.663 199.226 127.986 201.289 127.986C203.351 127.986 205.023 129.663 205.023 131.731Z" fill="#412945"/>
<path d="M214.683 152.977C214.683 155.044 213.011 156.721 210.949 156.721C208.886 156.721 207.215 155.044 207.215 152.977C207.215 150.909 208.886 149.232 210.949 149.232C213.011 149.232 214.683 150.909 214.683 152.977Z" fill="#412945"/>
<path d="M231.566 169.908C231.566 171.976 229.894 173.652 227.832 173.652C225.769 173.652 224.098 171.976 224.098 169.908C224.098 167.84 225.769 166.164 227.832 166.164C229.894 166.164 231.566 167.84 231.566 169.908Z" fill="#412945"/>
<path d="M259.003 172.514C259.003 174.582 257.332 176.258 255.269 176.258C253.207 176.258 251.535 174.582 251.535 172.514C251.535 170.446 253.207 168.77 255.269 168.77C257.332 168.77 259.003 170.446 259.003 172.514Z" fill="#412945"/>
<path d="M282.784 156.803C282.784 158.871 281.113 160.547 279.05 160.547C276.988 160.547 275.316 158.871 275.316 156.803C275.316 154.735 276.988 153.059 279.05 153.059C281.113 153.059 282.784 154.735 282.784 156.803Z" fill="#412945"/>
<path d="M286.195 131.893C288.257 131.893 289.929 130.216 289.929 128.148C289.929 126.081 288.257 124.404 286.195 124.404C284.133 124.404 282.461 126.081 282.461 128.148C282.461 130.216 284.133 131.893 286.195 131.893Z" fill="#412945"/>
<path d="M280.511 98.5196C280.511 100.587 278.839 102.264 276.777 102.264C274.715 102.264 273.043 100.587 273.043 98.5196C273.043 96.4517 274.715 94.7754 276.777 94.7754C278.839 94.7754 280.511 96.4517 280.511 98.5196Z" fill="#412945"/>
<path d="M205.51 161.676C205.378 161.676 205.247 161.621 205.153 161.514C192.851 147.554 191.251 127.732 191.236 127.533C191.216 127.27 191.413 127.041 191.676 127.021C191.94 127.001 192.167 127.199 192.187 127.462C192.201 127.657 193.783 147.167 205.868 160.881C206.042 161.079 206.024 161.381 205.826 161.556C205.735 161.636 205.623 161.676 205.511 161.676H205.51Z" fill="#412945"/>
<path d="M283.433 164.119C283.333 164.119 283.232 164.087 283.145 164.021C282.936 163.861 282.895 163.562 283.054 163.351C283.141 163.237 291.75 151.733 292.862 137.88C292.883 137.617 293.113 137.42 293.375 137.441C293.637 137.462 293.833 137.693 293.812 137.956C292.678 152.096 283.902 163.813 283.813 163.93C283.719 164.054 283.577 164.119 283.433 164.119Z" fill="#412945"/>
<path d="M261.598 75.0647L266.605 70.7617L271.521 77.3962C271.521 77.3962 264.906 73.7203 261.598 75.0654L261.598 75.0647Z" fill="#DCB8FF"/>
<path d="M204.336 105.424L210.92 105.777L209.909 113.98C209.909 113.98 207.654 106.741 204.336 105.424Z" fill="#DCB8FF"/>
<path d="M274.554 85.4852C276.041 87.2039 280.908 92.9854 285.28 99.9291C285.908 100.927 287.42 100.114 286.957 99.0297C285.755 96.2147 284.167 93.22 282.134 90.7032C278.948 86.7605 277.272 84.6722 276.411 83.5955C275.996 83.0752 275.193 83.1333 274.852 83.7046L274.457 84.3661C274.244 84.7209 274.283 85.1721 274.554 85.4852Z" fill="#DCB8FF"/>
<path d="M290.007 104.459C290.007 105.403 289.244 106.169 288.302 106.169C287.36 106.169 286.598 105.403 286.598 104.459C286.598 103.515 287.36 102.75 288.302 102.75C289.244 102.75 290.007 103.515 290.007 104.459Z" fill="#DCB8FF"/>
<path d="M234.58 179.658C232.377 178.798 225.093 175.844 217.753 171.589C216.699 170.977 215.626 172.444 216.562 173.214C218.993 175.212 221.875 177.19 224.964 178.518C229.803 180.596 232.356 181.703 233.668 182.276C234.301 182.552 235.041 182.115 235.107 181.429L235.183 180.635C235.224 180.209 234.981 179.815 234.58 179.659V179.658Z" fill="#DCB8FF"/>
<path d="M211.174 169.711C210.743 168.848 211.123 167.783 212.021 167.332C212.92 166.88 213.997 167.216 214.428 168.078C214.859 168.941 214.479 170.006 213.581 170.457C212.682 170.908 211.605 170.574 211.174 169.711Z" fill="#DCB8FF"/>
<path d="M318.918 142.311L313.122 139.173L318.986 134.663C319.226 134.478 319.272 134.132 319.087 133.891C318.902 133.65 318.558 133.604 318.317 133.789L312.603 138.184V128.799C312.603 128.494 312.357 128.248 312.053 128.248C311.75 128.248 311.504 128.494 311.504 128.799V138.297L304.837 134.688C304.57 134.543 304.237 134.643 304.093 134.911C303.95 135.178 304.048 135.512 304.315 135.657L311.107 139.334L305.619 143.555C305.378 143.74 305.333 144.086 305.518 144.327C305.626 144.469 305.789 144.542 305.954 144.542C306.071 144.542 306.188 144.506 306.288 144.429L311.504 140.417V150.543C311.504 150.847 311.75 151.094 312.053 151.094C312.357 151.094 312.603 150.847 312.603 150.543V140.142L318.397 143.279C318.481 143.324 318.569 143.346 318.658 143.346C318.853 143.346 319.042 143.24 319.141 143.056C319.286 142.788 319.186 142.455 318.919 142.311L318.918 142.311Z" fill="#DCB8FF"/>
<path d="M246.345 106.309L240.548 103.171L246.412 98.6609C246.652 98.4757 246.698 98.1304 246.513 97.8887C246.329 97.6477 245.984 97.6022 245.743 97.7866L240.029 102.182V92.797C240.029 92.4925 239.783 92.2461 239.479 92.2461C239.176 92.2461 238.93 92.4925 238.93 92.797V102.295L232.263 98.686C231.996 98.5408 231.663 98.6413 231.519 98.9089C231.375 99.1765 231.475 99.51 231.741 99.6544L238.533 103.331L233.045 107.552C232.804 107.738 232.759 108.083 232.944 108.325C233.052 108.466 233.215 108.54 233.38 108.54C233.497 108.54 233.614 108.503 233.714 108.426L238.929 104.414V114.54C238.929 114.845 239.175 115.091 239.479 115.091C239.782 115.091 240.028 114.845 240.028 114.54V104.14L245.823 107.277C245.906 107.322 245.995 107.344 246.083 107.344C246.279 107.344 246.468 107.239 246.567 107.054C246.711 106.786 246.611 106.453 246.345 106.308V106.309Z" fill="#DCB8FF"/>
<path d="M191.891 153.346L186.095 150.208L191.959 145.698C192.199 145.513 192.244 145.167 192.06 144.926C191.875 144.685 191.531 144.639 191.29 144.824L185.575 149.219V139.834C185.575 139.53 185.33 139.283 185.026 139.283C184.722 139.283 184.477 139.53 184.477 139.834V149.332L177.81 145.723C177.543 145.578 177.209 145.678 177.066 145.946C176.922 146.214 177.021 146.547 177.288 146.692L184.079 150.369L178.591 154.59C178.351 154.776 178.306 155.121 178.49 155.363C178.599 155.504 178.762 155.578 178.927 155.578C179.044 155.578 179.16 155.541 179.26 155.465L184.476 151.453V161.579C184.476 161.883 184.721 162.13 185.025 162.13C185.329 162.13 185.574 161.883 185.574 161.579V151.178L191.369 154.315C191.452 154.36 191.541 154.382 191.63 154.382C191.825 154.382 192.014 154.276 192.113 154.092C192.258 153.824 192.158 153.49 191.891 153.346V153.346Z" fill="#DCB8FF"/>
<path d="M189.041 111.698L182.355 104.993L189.041 98.2891L195.727 104.993L189.041 111.698Z" fill="#DCB8FF"/>
<path d="M268.608 188.18L261.922 181.476L268.608 174.771L275.294 181.476L268.608 188.18Z" fill="#DCB8FF"/>
<path d="M295.197 87.8587L288.512 81.1544L295.197 74.4492L301.883 81.1544L295.197 87.8587Z" fill="#DCB8FF"/>
</g>
<defs>
<filter id="filter0_i_6533_72913" x="-41" y="-16" width="398.91" height="225.834" filterUnits="userSpaceOnUse" color-interpolation-filters="sRGB">
<feFlood flood-opacity="0" result="BackgroundImageFix"/>
<feBlend mode="normal" in="SourceGraphic" in2="BackgroundImageFix" result="shape"/>
<feColorMatrix in="SourceAlpha" type="matrix" values="0 0 0 0 0 0 0 0 0 0 0 0 0 0 0 0 0 0 127 0" result="hardAlpha"/>
<feOffset dy="4"/>
<feGaussianBlur stdDeviation="2"/>
<feComposite in2="hardAlpha" operator="arithmetic" k2="-1" k3="1"/>
<feColorMatrix type="matrix" values="0 0 0 0 0 0 0 0 0 0 0 0 0 0 0 0 0 0 0.25 0"/>
<feBlend mode="normal" in2="shape" result="effect1_innerShadow_6533_72913"/>
</filter>
<filter id="filter1_i_6533_72913" x="-36" y="42.998" width="423.617" height="176.002" filterUnits="userSpaceOnUse" color-interpolation-filters="sRGB">
<feFlood flood-opacity="0" result="BackgroundImageFix"/>
<feBlend mode="normal" in="SourceGraphic" in2="BackgroundImageFix" result="shape"/>
<feColorMatrix in="SourceAlpha" type="matrix" values="0 0 0 0 0 0 0 0 0 0 0 0 0 0 0 0 0 0 127 0" result="hardAlpha"/>
<feOffset dy="4"/>
<feGaussianBlur stdDeviation="2"/>
<feComposite in2="hardAlpha" operator="arithmetic" k2="-1" k3="1"/>
<feColorMatrix type="matrix" values="0 0 0 0 0 0 0 0 0 0 0 0 0 0 0 0 0 0 0.25 0"/>
<feBlend mode="normal" in2="shape" result="effect1_innerShadow_6533_72913"/>
</filter>
</defs>
</svg>
