<svg width="95" height="100" viewBox="0 0 95 100" fill="none" xmlns="http://www.w3.org/2000/svg">
<path d="M81.7111 65.1972C75.0374 49.9452 66.3463 44.3418 66.3463 44.3418L47.5757 46.3443L28.8051 44.3418C28.8051 44.3418 20.114 49.9445 13.4404 65.1972C7.1483 79.5772 7.07704 91.0328 12.8197 97.8807C19.4519 105.79 39.7612 105.821 47.5757 105.52C55.3903 105.821 75.6995 105.79 82.3317 97.8807C88.0738 91.0328 88.0031 79.5779 81.7111 65.1972Z" fill="white"/>
<path d="M36.2153 98.5446C35.9782 98.465 35.7398 98.3937 35.4994 98.3283C35.5033 98.3218 35.5085 98.3172 35.5124 98.3108C37.0802 95.4135 38.4168 92.7728 38.8897 89.7991C39.7034 84.6823 37.4858 79.2648 33.3712 76.3183C29.7853 73.7509 24.8207 73.1425 20.7236 74.768C20.5674 74.8302 20.491 75.0071 20.5525 75.1638C20.6147 75.3206 20.7909 75.3971 20.9471 75.3349C24.8576 73.7826 29.5961 74.3637 33.0181 76.814C36.9493 79.6289 39.0679 84.8086 38.2898 89.7026C37.8317 92.5804 36.5192 95.1719 34.9785 98.0192C34.9487 98.0743 34.9429 98.1346 34.9487 98.1929C31.712 97.4692 28.2803 98.0374 25.7329 99.7743C25.5942 99.8689 25.5579 100.059 25.6525 100.198C25.7471 100.337 25.9356 100.373 26.0749 100.278C28.8031 98.4177 32.6151 97.9739 36.0223 99.1219C39.1469 100.174 41.9703 102.48 43.9722 105.615C44.0299 105.705 44.1283 105.755 44.2281 105.755C44.2845 105.755 44.3408 105.74 44.392 105.707C44.5333 105.617 44.5747 105.428 44.484 105.286C42.4076 102.035 39.4708 99.6408 36.2153 98.5446Z" fill="#412945"/>
<path d="M78.3001 74.7685C74.2036 73.1423 69.2384 73.7507 65.6524 76.3188C61.5379 79.2646 59.3202 84.6827 60.1339 89.7996C60.6069 92.7726 61.9434 95.4133 63.5113 98.3112C63.5151 98.3177 63.5203 98.3229 63.5242 98.3287C63.2839 98.3941 63.0448 98.4654 62.8083 98.5451C59.5528 99.6413 56.6167 102.036 54.5403 105.287C54.4496 105.429 54.491 105.617 54.6323 105.708C54.6828 105.74 54.7398 105.756 54.7962 105.756C54.8959 105.756 54.9944 105.706 55.0521 105.615C57.054 102.48 59.8774 100.174 63.002 99.1223C66.4092 97.975 70.2212 98.4181 72.9493 100.279C73.088 100.373 73.2765 100.337 73.3718 100.198C73.4664 100.059 73.4301 99.87 73.2914 99.7747C70.7447 98.0378 67.3123 97.4696 64.0755 98.1933C64.0814 98.135 64.0755 98.0754 64.0457 98.0197C62.5051 95.1723 61.1919 92.5809 60.7345 89.703C59.9564 84.8091 62.0743 79.6294 66.0062 76.8144C69.4289 74.3635 74.1667 73.783 78.0772 75.3353C78.2333 75.3969 78.4096 75.3204 78.4718 75.1643C78.5333 75.0082 78.4569 74.8306 78.3007 74.7685H78.3001Z" fill="#412945"/>
<path d="M24.4023 48.2343C24.4023 48.2343 29.7304 69.1934 47.6562 68.7781C65.5819 68.3629 71.0907 48.6496 71.0907 48.6496L47.088 46.3672L24.4023 48.2343Z" fill="#FF5B23"/>
<path d="M24.3008 47.7653C24.3008 47.7653 35.7155 50.0477 47.6356 49.9441C59.5557 49.8404 71.2736 48.1799 71.2736 48.1799C71.2736 48.1799 62.1821 55.7541 49.252 56.2731C36.3219 56.792 24.3008 47.7653 24.3008 47.7653Z" fill="#412945"/>
<path d="M81.2613 26.754C80.9341 25.4421 80.6128 24.1289 80.1832 22.8487C80.5558 19.3548 82.1249 2.54204 78.0945 0.452023C74.6161 -1.35228 66.8767 2.69882 63.5389 4.63269C59.0939 2.77267 53.7432 1.69722 47.3507 1.69722C41.3321 1.69722 36.3409 2.81673 32.1745 4.71562C28.9196 2.81738 21.004 -1.3782 17.4757 0.452023C13.3767 2.57832 15.0702 19.932 15.4052 23.0159C14.6711 24.6666 14.022 26.3381 13.4408 27.9992C6.14654 48.854 28.9663 51.0334 47.3514 51.0334C65.7365 51.0334 87.624 52.2786 81.2613 26.754Z" fill="white"/>
<path d="M18.0952 18.1946C18.0952 18.1946 16.5429 5.43227 19.6468 4.29138C22.7507 3.14985 27.9239 7.09275 27.9239 7.09275C27.9239 7.09275 21.3028 13.4217 18.0952 18.1946Z" fill="#DCB8FF"/>
<path d="M78.1026 17.996C78.1026 17.996 79.1366 5.18127 75.9887 4.16736C72.8407 3.15345 67.832 7.30367 67.832 7.30367C67.832 7.30367 74.7046 13.358 78.1026 17.996Z" fill="#DCB8FF"/>
<path d="M24.6304 28.1657C24.5287 28.0258 24.5176 27.8444 24.6096 27.6993C24.9809 27.1162 26.2831 25.7589 30.3024 25.9559C34.706 26.1716 39.3129 30.868 40.4849 32.1411C40.6488 32.3192 40.6346 32.5797 40.4551 32.7442C40.2744 32.9101 39.9848 32.9198 39.7904 32.7669C38.5426 31.7867 34.154 28.4897 31.2133 28.2059C28.5655 27.9507 26.5578 28.6724 25.7622 29.0248C25.5419 29.122 25.2795 29.0559 25.1435 28.8693L24.631 28.1651L24.6304 28.1657Z" fill="#412945"/>
<path d="M72.3322 28.1657C72.4339 28.0258 72.4449 27.8444 72.3529 27.6993C71.9817 27.1162 70.6795 25.7589 66.6601 25.9559C62.2566 26.1716 57.6496 30.868 56.4776 32.1411C56.3137 32.3192 56.3279 32.5797 56.5081 32.7442C56.6888 32.9101 56.9784 32.9198 57.1728 32.7669C58.4206 31.7867 62.8092 28.4897 65.7498 28.2059C68.3977 27.9507 70.4054 28.6724 71.201 29.0248C71.4213 29.122 71.6836 29.0559 71.819 28.8693L72.3315 28.1651L72.3322 28.1657Z" fill="#412945"/>
<path d="M42.6072 39.9227C40.5016 39.9227 39.259 38.4605 39.1994 38.3892C39.0919 38.2596 39.1093 38.0679 39.2383 37.9597C39.3672 37.8521 39.5583 37.869 39.6659 37.9979C39.7248 38.0685 41.1404 39.718 43.4824 39.2185C45.9527 38.6931 48.0123 37.3313 48.033 37.3177C48.1723 37.2244 48.3609 37.2626 48.4542 37.4025C48.5475 37.5425 48.5092 37.7316 48.3699 37.8249C48.2825 37.8832 46.1963 39.2645 43.6088 39.8152C43.2563 39.8903 42.922 39.9227 42.6072 39.9227Z" fill="#412945"/>
<path d="M53.8747 39.9228C53.5598 39.9228 53.2255 39.8897 52.8731 39.8152C50.2875 39.2652 48.1288 37.8865 48.0381 37.8282C47.8968 37.7369 47.856 37.5484 47.9467 37.4071C48.0374 37.2652 48.2253 37.2238 48.3665 37.3151C48.3879 37.3287 50.5252 38.6925 52.9988 39.2186C55.3408 39.7174 56.7564 38.0686 56.8153 37.998C56.9235 37.8697 57.1146 37.8529 57.2436 37.9604C57.3719 38.0686 57.3893 38.2597 57.2818 38.3886C57.2228 38.4599 55.9796 39.9221 53.874 39.9221L53.8747 39.9228Z" fill="#412945"/>
<path d="M38.841 26.0761C38.7186 26.0761 38.6032 26.001 38.5572 25.8792C37.0672 21.9434 34.8061 20.8705 34.7834 20.8602C34.6305 20.7902 34.5632 20.6094 34.6331 20.4565C34.7031 20.3036 34.8832 20.2363 35.0361 20.3056C35.1378 20.3522 37.5472 21.4951 39.1254 25.6628C39.185 25.8202 39.106 25.9964 38.9492 26.056C38.9136 26.0696 38.8773 26.0761 38.841 26.0761Z" fill="#412945"/>
<path d="M40.548 24.2084C40.39 24.2084 40.2565 24.086 40.2448 23.926C39.9973 20.5007 38.9193 19.0177 38.9083 19.0035C38.8079 18.8694 38.8351 18.6783 38.9685 18.5772C39.102 18.4761 39.2918 18.502 39.3929 18.6362C39.4415 18.7003 40.5882 20.2545 40.8506 23.8826C40.8629 24.0504 40.7366 24.1968 40.5694 24.2084C40.5616 24.2084 40.5545 24.2091 40.5474 24.2091L40.548 24.2084Z" fill="#412945"/>
<path d="M56.8707 26.0736C56.8351 26.0736 56.7981 26.0671 56.7625 26.0535C56.6057 25.9939 56.5267 25.8177 56.5863 25.6602C58.1645 21.4925 60.5739 20.3497 60.6756 20.303C60.8279 20.2331 61.0086 20.3004 61.0786 20.454C61.1479 20.6069 61.0812 20.7876 60.9289 20.8576C60.8972 20.8725 58.6335 21.9713 57.1545 25.8766C57.1085 25.9984 56.9931 26.0736 56.8707 26.0736Z" fill="#412945"/>
<path d="M55.1634 24.2063C55.1563 24.2063 55.1485 24.2063 55.1414 24.2057C54.9742 24.1933 54.8479 24.0476 54.8602 23.8798C55.1226 20.2517 56.2693 18.6982 56.3179 18.6334C56.419 18.4993 56.6101 18.4727 56.7436 18.5751C56.877 18.6768 56.9036 18.8672 56.8025 19.0014C56.787 19.0221 55.7134 20.5057 55.466 23.9238C55.4543 24.0845 55.3208 24.2063 55.1634 24.2063Z" fill="#412945"/>
<path d="M24.3819 40.6055C28.8817 40.6055 32.5295 38.5846 32.5295 36.0918C32.5295 33.599 28.8817 31.5781 24.3819 31.5781C19.8822 31.5781 16.2344 33.599 16.2344 36.0918C16.2344 38.5846 19.8822 40.6055 24.3819 40.6055Z" fill="#DCB8FF"/>
<path d="M70.4757 40.6055C74.9754 40.6055 78.6232 38.5846 78.6232 36.0918C78.6232 33.599 74.9754 31.5781 70.4757 31.5781C65.9759 31.5781 62.3281 33.599 62.3281 36.0918C62.3281 38.5846 65.9759 40.6055 70.4757 40.6055Z" fill="#DCB8FF"/>
<path d="M29.5826 35.4094C29.5502 35.4094 29.5172 35.4043 29.4854 35.3932L16.6558 31.0357C16.497 30.9819 16.4115 30.809 16.4653 30.6496C16.5191 30.4902 16.6914 30.4047 16.8508 30.4585L29.6805 34.816C29.8392 34.8698 29.9247 35.0427 29.8709 35.2021C29.8282 35.3291 29.709 35.4094 29.5826 35.4094Z" fill="#412945"/>
<path d="M15.4056 37.588C15.2416 37.588 15.1069 37.4572 15.1017 37.2926C15.0965 37.1242 15.2287 36.9836 15.3965 36.979L29.2608 36.5637C29.4325 36.5566 29.5692 36.6907 29.5737 36.8592C29.5789 37.0276 29.4467 37.1682 29.2789 37.1727L15.4146 37.588C15.4146 37.588 15.4081 37.588 15.4056 37.588Z" fill="#412945"/>
<path d="M65.7921 35.4094C65.6651 35.4094 65.5472 35.3291 65.5044 35.2021C65.4507 35.0427 65.5355 34.8698 65.6949 34.816L78.5246 30.4585C78.6833 30.4047 78.8563 30.4902 78.91 30.6496C78.9638 30.809 78.8789 30.9819 78.7196 31.0357L65.8899 35.3932C65.8575 35.4043 65.8238 35.4094 65.7921 35.4094Z" fill="#412945"/>
<path d="M79.9652 37.588C79.9652 37.588 79.9593 37.588 79.9561 37.588L66.0918 37.1727C65.924 37.1675 65.7918 37.0269 65.797 36.8591C65.8022 36.6907 65.9318 36.5572 66.1099 36.5637L79.9742 36.979C80.142 36.9842 80.2742 37.1248 80.269 37.2926C80.2645 37.4578 80.1291 37.588 79.9652 37.588Z" fill="#412945"/>
<path d="M52.3175 53.9529C52.3175 56.4673 50.2851 58.5055 47.7779 58.5055C45.2706 58.5055 43.2383 56.4673 43.2383 53.9529C43.2383 51.4386 45.2706 49.4004 47.7779 49.4004C50.2851 49.4004 52.3175 51.4386 52.3175 53.9529Z" fill="#DCB8FF"/>
<path d="M84.6743 76.869C84.6743 76.869 103.298 48.6992 88.244 41.0732C75.4092 34.5712 67.7579 46.8314 68.8444 53.991C69.9308 61.1499 78.3116 62.0841 78.3116 62.0841L84.6743 76.869Z" fill="white"/>
<path d="M85.4825 60.0626C85.3996 59.9161 85.213 59.8656 85.0679 59.9498C80.1039 62.803 75.3842 61.7567 72.6956 59.773C73.9421 58.1961 75.5009 56.8323 77.2306 55.819C77.3758 55.7342 77.4244 55.5476 77.3395 55.4025C77.2553 55.2573 77.0693 55.2081 76.9236 55.293C75.1283 56.3438 73.5113 57.7588 72.2181 59.3953C71.8462 59.0752 71.5236 58.7377 71.2586 58.393C70.5162 57.4283 69.8502 56.3853 69.4375 55.1757C69.444 55.1653 69.4524 55.1563 69.4582 55.1446C70.4378 53.0922 71.9292 51.3047 73.7704 49.9753C73.9065 49.8768 73.9376 49.6864 73.8397 49.5497C73.7419 49.413 73.5521 49.3819 73.4154 49.4803C71.6616 50.7469 70.2169 52.4139 69.1984 54.3231C68.7248 52.2001 69.0494 49.5723 70.9742 46.0408C74.4889 39.5913 81.8849 39.5071 81.9594 39.5071C82.1272 39.5071 82.2633 39.3704 82.2633 39.202C82.2633 39.0335 82.1272 38.8975 81.9594 38.8975C81.8817 38.8975 74.1319 38.9759 70.441 45.748C66.905 52.2364 68.627 55.9687 70.7773 58.7649C71.0837 59.1633 71.475 59.5644 71.9344 59.9479C71.9505 60.0133 71.9842 60.0749 72.0419 60.1183C72.0963 60.1597 72.1605 60.1798 72.2246 60.1798C73.7924 61.3842 76.0775 62.3515 78.7894 62.3515C80.7926 62.3515 83.0265 61.8241 85.3698 60.4772C85.5155 60.3936 85.5661 60.207 85.4825 60.0613V60.0626Z" fill="#412945"/>
<path d="M85.6593 77.1218C85.5129 77.1218 85.3839 77.0156 85.36 76.8666C84.2444 70.0523 82.0001 65.7978 81.9775 65.7557C81.8984 65.6073 81.9535 65.4227 82.1019 65.343C82.2496 65.2633 82.4336 65.319 82.5133 65.4674C82.5366 65.5101 84.8268 69.8463 85.9599 76.7674C85.9871 76.9333 85.875 77.0901 85.7092 77.1173C85.6923 77.1199 85.6761 77.1212 85.6593 77.1212V77.1218Z" fill="#412945"/>
<path d="M48.8253 91.9407L42.4645 97.3134C37.901 101.168 31.0861 100.583 27.2429 96.0067L4.22429 68.6014C0.380507 64.0255 0.964232 57.1912 5.52714 53.3364L11.8879 47.9636C16.4508 44.1095 23.2663 44.6945 27.1095 49.2704L50.1281 76.6757C53.9719 81.2516 53.3882 88.0859 48.8253 91.9407Z" fill="#DCB8FF"/>
<path d="M35.3132 96.8687C32.5669 96.8687 29.8388 95.7012 27.9353 93.4343L6.9769 68.4818C3.55358 64.4061 4.07512 58.2974 8.13917 54.865L12.9489 50.8022C17.013 47.3699 23.1042 47.8927 26.5275 51.9678L47.486 76.9203C50.9093 80.996 50.3877 87.1047 46.3237 90.5371L41.5139 94.5999C39.7096 96.1236 37.5056 96.868 35.3139 96.868L35.3132 96.8687ZM19.1496 49.1904C17.1063 49.1904 15.0525 49.8842 13.3707 51.3043L8.56093 55.3671C4.77287 58.5669 4.28697 64.2603 7.4777 68.0588L28.4361 93.0113C31.6269 96.8097 37.3041 97.2976 41.0922 94.0978L45.9019 90.035C49.69 86.8352 50.1759 81.1418 46.9852 77.3433L26.0267 52.3908C24.2522 50.2788 21.7094 49.1904 19.1496 49.1904Z" fill="#412945"/>
<path d="M22.3396 54.5943L22.6532 54.2496C23.3723 53.4598 24.6175 53.4767 25.3153 54.2859L32.859 63.0431C33.5121 63.8017 33.4149 64.9504 32.6439 65.5879C31.919 66.1865 30.8552 66.1178 30.2131 65.4304L22.3558 57.0186C21.7209 56.3383 21.7138 55.2829 22.3403 54.5949L22.3396 54.5943Z" fill="white"/>
<path d="M37.1404 68.6933C37.4326 69.5718 36.959 70.521 36.0838 70.8138C35.2079 71.1066 34.2613 70.6324 33.9691 69.7539C33.677 68.8754 34.1505 67.9263 35.0258 67.6334C35.9017 67.3406 36.8483 67.8148 37.1404 68.6933Z" fill="white"/>
<path d="M26.4141 86.5029C26.4141 86.5029 30.2209 91.5913 34.4761 91.4053C38.7313 91.2194 41.3214 89.4695 41.3214 89.4695C41.3214 89.4695 38.811 94.6382 34.5033 94.4004C30.195 94.1626 26.4141 86.5029 26.4141 86.5029Z" fill="white"/>
<path d="M10.8181 65.4823C8.23057 66.4418 5.81468 67.9403 3.96762 69.9954C2.12056 72.0504 0.866936 74.6814 0.654436 77.4393C0.551426 78.7778 0.703674 80.1727 1.35219 81.3466C2.08881 82.6812 3.41758 83.6219 4.85843 84.1091C6.29928 84.597 7.85092 84.6669 9.36887 84.5672C12.9729 84.3307 16.5712 83.112 19.3259 80.7694C22.4188 78.139 24.4525 73.88 23.6737 69.7783C23.0291 66.3835 20.7849 64.9634 17.3959 64.5727C15.1809 64.3175 12.8978 64.7101 10.8175 65.4817L10.8181 65.4823Z" fill="white"/>
<path d="M14.421 70.2125C14.3432 70.2125 14.2655 70.1853 14.2033 70.1289C14.0686 70.0084 14.0562 69.8011 14.1767 69.6657C15.9623 67.6586 18.3775 66.1893 20.9774 65.5278C21.153 65.4831 21.3305 65.5893 21.3752 65.7656C21.4199 65.9411 21.3136 66.1199 21.1387 66.1646C18.6639 66.7944 16.3646 68.1931 14.6652 70.103C14.6004 70.1756 14.511 70.2125 14.421 70.2125Z" fill="#412945"/>
<path d="M16.9913 74.0441C16.9116 74.0441 16.8313 74.0149 16.7684 73.956C16.6363 73.8322 16.6285 73.6249 16.7516 73.4921C18.5494 71.5543 20.7994 70.0202 23.2574 69.0549C23.4265 68.9888 23.6157 69.0724 23.6818 69.2408C23.7479 69.4099 23.665 69.6004 23.4965 69.6664C21.1292 70.5961 18.9627 72.0733 17.231 73.9398C17.1662 74.0091 17.0788 74.0447 16.9913 74.0447V74.0441Z" fill="#412945"/>
<path d="M9.15117 84.9681C8.83047 84.9681 8.63871 84.9545 8.60437 84.952C8.43722 84.939 8.31218 84.7926 8.32514 84.6248C8.3381 84.457 8.48322 84.332 8.65166 84.3449C8.68989 84.3481 12.5719 84.6177 16.5485 82.3598C16.6949 82.2769 16.8802 82.3288 16.9631 82.4752C17.046 82.6216 16.9942 82.8075 16.8485 82.8904C13.5534 84.7608 10.3925 84.9688 9.15117 84.9688V84.9681Z" fill="#412945"/>
</svg>
