<svg width="713" height="304" viewBox="20 20 713 304" fill="none" xmlns="http://www.w3.org/2000/svg">
<g filter="url(#filter0_dd_2444_1777)">
<mask id="path-1-inside-1_2444_1777" fill="white">
<path fill-rule="evenodd" clip-rule="evenodd" d="M733 25C733 22.2386 730.761 20 728 20H25C22.2386 20 20 22.2386 20 25V315C20 317.761 22.2386 320 25 320H648C650.761 320 653 317.761 653 315V249C653 246.239 655.239 244 658 244H728C730.761 244 733 241.761 733 239V25Z"/>
</mask>
<path fill-rule="evenodd" clip-rule="evenodd" d="M733 25C733 22.2386 730.761 20 728 20H25C22.2386 20 20 22.2386 20 25V315C20 317.761 22.2386 320 25 320H648C650.761 320 653 317.761 653 315V249C653 246.239 655.239 244 658 244H728C730.761 244 733 241.761 733 239V25Z"/>
<path d="M25 21H728V19H25V21ZM21 315V25H19V315H21ZM648 319H25V321H648V319ZM654 315V249H652V315H654ZM658 245H728V243H658V245ZM732 25V239H734V25H732ZM728 245C731.314 245 734 242.314 734 239H732C732 241.209 730.209 243 728 243V245ZM654 249C654 246.791 655.791 245 658 245V243C654.686 243 652 245.686 652 249H654ZM648 321C651.314 321 654 318.314 654 315H652C652 317.209 650.209 319 648 319V321ZM19 315C19 318.314 21.6863 321 25 321V319C22.7908 319 21 317.209 21 315H19ZM728 21C730.209 21 732 22.7909 732 25H734C734 21.6863 731.314 19 728 19V21ZM25 19C21.6863 19 19 21.6863 19 25H21C21 22.7909 22.7909 21 25 21V19Z" fill="#D2FF00" mask="url(#path-1-inside-1_2444_1777)"/>
</g>
<defs>
<clipPath id="clip0_2444_1777">
<rect width="43" height="43" fill="white" transform="translate(672 264)"/>
</clipPath>
</defs>
</svg>
