<svg width="24" height="23" viewBox="0 0 24 23" fill="none" xmlns="http://www.w3.org/2000/svg">
<path d="M12.12 18.66L12 18.78L11.868 18.66C6.168 13.488 2.4 10.068 2.4 6.6C2.4 4.2 4.2 2.4 6.6 2.4C8.448 2.4 10.248 3.6 10.884 5.232H13.116C13.752 3.6 15.552 2.4 17.4 2.4C19.8 2.4 21.6 4.2 21.6 6.6C21.6 10.068 17.832 13.488 12.12 18.66ZM17.4 0C15.312 0 13.308 0.972 12 2.496C10.692 0.972 8.688 0 6.6 0C2.904 0 0 2.892 0 6.6C0 11.124 4.08 14.832 10.26 20.436L12 22.02L13.74 20.436C19.92 14.832 24 11.124 24 6.6C24 2.892 21.096 0 17.4 0Z" fill="#D2FF00"/>
</svg>
