<svg width="33" height="24" viewBox="0 0 33 24" fill="none" xmlns="http://www.w3.org/2000/svg">
<path d="M22.9073 9.81818H19.6346C19.3452 9.81818 19.0677 9.70325 18.8632 9.49866C18.6586 9.29408 18.5436 9.0166 18.5436 8.72727C18.5436 8.43795 18.6586 8.16047 18.8632 7.95588C19.0677 7.7513 19.3452 7.63636 19.6346 7.63636H22.9073C23.1966 7.63636 23.4741 7.7513 23.6787 7.95588C23.8833 8.16047 23.9982 8.43795 23.9982 8.72727C23.9982 9.0166 23.8833 9.29408 23.6787 9.49866C23.4741 9.70325 23.1966 9.81818 22.9073 9.81818ZM13.0891 7.63636H11.9982V6.54545C11.9982 6.25613 11.8833 5.97865 11.6787 5.77407C11.4741 5.56948 11.1966 5.45455 10.9073 5.45455C10.6179 5.45455 10.3405 5.56948 10.1359 5.77407C9.9313 5.97865 9.81637 6.25613 9.81637 6.54545V7.63636H8.72546C8.43613 7.63636 8.15865 7.7513 7.95407 7.95588C7.74948 8.16047 7.63455 8.43795 7.63455 8.72727C7.63455 9.0166 7.74948 9.29408 7.95407 9.49866C8.15865 9.70325 8.43613 9.81818 8.72546 9.81818H9.81637V10.9091C9.81637 11.1984 9.9313 11.4759 10.1359 11.6805C10.3405 11.8851 10.6179 12 10.9073 12C11.1966 12 11.4741 11.8851 11.6787 11.6805C11.8833 11.4759 11.9982 11.1984 11.9982 10.9091V9.81818H13.0891C13.3784 9.81818 13.6559 9.70325 13.8605 9.49866C14.0651 9.29408 14.18 9.0166 14.18 8.72727C14.18 8.43795 14.0651 8.16047 13.8605 7.95588C13.6559 7.7513 13.3784 7.63636 13.0891 7.63636ZM31.8364 21.9068C31.4252 22.4939 30.8905 22.9839 30.2698 23.3423C29.6491 23.7006 28.9574 23.9188 28.2434 23.9813C27.5293 24.0438 26.8103 23.9492 26.1367 23.7041C25.4632 23.4591 24.8515 23.0695 24.3445 22.5627C24.3282 22.5464 24.3118 22.53 24.2968 22.5123L18.8818 16.3636H13.8364L8.42682 22.5123L8.37909 22.5627C7.45755 23.4823 6.20912 23.9991 4.90728 24C4.1906 23.9997 3.48267 23.8426 2.83323 23.5395C2.18378 23.2364 1.60856 22.7949 1.14798 22.2458C0.687406 21.6967 0.352636 21.0534 0.167192 20.3612C-0.018253 19.6689 -0.0498746 18.9444 0.0745483 18.2386C0.0738914 18.2323 0.0738914 18.2259 0.0745483 18.2195L2.30682 6.75273C2.63904 4.86146 3.62717 3.14777 5.09758 1.91279C6.56799 0.67781 8.42659 0.000544698 10.3468 0H22.3618C24.2763 0.00305414 26.1292 0.676446 27.5989 1.90326C29.0685 3.13007 30.0622 4.83284 30.4073 6.71591V6.74045L32.6395 18.2182C32.6402 18.2245 32.6402 18.2309 32.6395 18.2373C32.7551 18.8716 32.7436 19.5226 32.6057 20.1525C32.4678 20.7824 32.2063 21.3787 31.8364 21.9068ZM22.3618 14.1818C23.9531 14.1818 25.4792 13.5497 26.6045 12.4245C27.7297 11.2992 28.3618 9.77312 28.3618 8.18182C28.3618 6.59052 27.7297 5.0644 26.6045 3.93918C25.4792 2.81396 23.9531 2.18182 22.3618 2.18182H10.3468C8.93812 2.18308 7.57499 2.68109 6.49724 3.58824C5.41949 4.49538 4.69618 5.75354 4.45455 7.14136V7.15909L2.22091 18.6259C2.12218 19.1944 2.2063 19.7796 2.46115 20.2972C2.71601 20.8149 3.12849 21.2384 3.63925 21.5068C4.15001 21.7752 4.73275 21.8747 5.30364 21.791C5.87453 21.7073 6.40417 21.4447 6.81637 21.0409L12.5327 14.5514C12.6351 14.4352 12.761 14.3422 12.902 14.2785C13.0431 14.2148 13.1961 14.1818 13.3509 14.1818H22.3618ZM30.5027 18.6259L29.3109 12.4895C28.5779 13.6732 27.555 14.6502 26.339 15.3281C25.1229 16.0061 23.754 16.3625 22.3618 16.3636H21.7891L25.9073 21.0423C26.2178 21.3443 26.5955 21.5684 27.0093 21.6961C27.4232 21.8239 27.8615 21.8517 28.2882 21.7773C28.999 21.6518 29.6311 21.2496 30.046 20.6589C30.4608 20.0682 30.6246 19.3371 30.5014 18.6259H30.5027Z" fill="#D2FF00"/>
</svg>
