<svg width="319" height="193" viewBox="0 0 319 193" fill="none" xmlns="http://www.w3.org/2000/svg">
<g filter="url(#filter0_i_6521_46793)">
<path d="M35 108.833C1 112.833 -29.8333 160.833 -41 184.333V205.833H356C360.5 128.5 359.9 -24.0669 321.5 -15.6669C273.5 -5.16691 285.5 23.8331 213 77.3331C140.5 130.833 77.5 103.833 35 108.833Z" fill="#D2FF00"/>
</g>
<g filter="url(#filter1_i_6521_46793)">
<path d="M41 135C11 135 -22.8333 170 -36 187.5V213L384 215C389.333 157.833 392.8 43.4002 364 43.0002C328 42.5002 297.5 128 231 148C164.5 168 78.5 135 41 135Z" fill="#FF5B23"/>
</g>
<g style="mix-blend-mode:multiply">
<path d="M261.993 167.3C265.492 166.678 317.565 157.819 316.102 161.181C314.64 164.543 253.391 202.749 242.027 204.705C230.664 206.662 167.408 189.464 168.623 188.042C169.838 186.62 257.755 168.053 261.992 167.3H261.993Z" fill="#C7D6BE"/>
</g>
<path d="M237.717 145.036C237.717 145.036 230.85 164.408 234.1 168.174C237.35 171.94 255.25 168.031 255.25 168.031C255.25 168.031 238.551 174.058 239.833 177.118C241.115 180.178 247.963 177.118 247.963 177.118C247.963 177.118 244.691 180.784 247.963 182.599C251.235 184.414 255.471 172.411 261.59 170.528C267.709 168.645 274.709 170.763 273.916 168.41C273.123 166.057 269.592 163.232 261.59 165.586C261.59 165.586 262.407 156.063 261.119 153.942C259.831 151.821 256.647 147.969 256.647 147.969" fill="#212121"/>
<path d="M237.717 145.036C237.717 145.036 230.85 164.408 234.1 168.174C237.35 171.94 255.25 168.031 255.25 168.031C255.25 168.031 238.551 174.058 239.833 177.118C241.115 180.178 247.963 177.118 247.963 177.118C247.963 177.118 244.691 180.784 247.963 182.599C251.235 184.414 255.471 172.411 261.59 170.528C267.709 168.645 274.709 170.763 273.916 168.41C273.123 166.057 269.592 163.232 261.59 165.586C261.59 165.586 262.407 156.063 261.119 153.942C259.831 151.821 256.647 147.969 256.647 147.969" fill="#DCB8FF"/>
<g style="mix-blend-mode:multiply">
<path d="M237.717 145.036C237.717 145.036 230.85 164.408 234.1 168.174C237.35 171.94 255.25 168.031 255.25 168.031C255.25 168.031 238.551 174.058 239.833 177.118C241.115 180.178 247.963 177.118 247.963 177.118C247.963 177.118 244.691 180.784 247.963 182.599C251.235 184.414 255.471 172.411 261.59 170.528C267.709 168.645 274.709 170.763 273.916 168.41C273.123 166.057 269.592 163.232 261.59 165.586C261.59 165.586 262.407 156.063 261.119 153.942C259.831 151.821 256.647 147.969 256.647 147.969" fill="#B2B2B2"/>
</g>
<path d="M204.379 149.078C203.873 149.246 187.161 167.112 182.455 181.775C180.277 182.598 161.737 181.101 163.591 188.18C165.445 195.259 180.347 185.989 181.829 188.18C183.311 190.371 190.586 201.946 195.446 201.176C200.65 200.352 201.177 197.084 199.997 194.486C200.272 195.254 204.379 197.113 206.57 195.596C208.761 194.079 209.816 191.214 207.434 188.686C205.052 186.158 195.446 181.776 195.446 181.776C195.446 181.776 211.606 151.408 217.684 146.703" fill="#DCB8FF"/>
<g style="mix-blend-mode:multiply">
<path d="M217.684 146.702L204.379 149.078C204.156 149.152 200.786 152.664 196.684 157.822C200.36 158.173 203.957 159.342 207.17 161.181C211.168 154.634 215.241 148.594 217.684 146.703V146.702Z" fill="#CCCCCC"/>
</g>
<path d="M200.505 193.851C198.693 190.021 195.879 186.872 192.304 184.605C191.537 184.119 190.831 185.335 191.594 185.819C194.976 187.964 197.579 190.944 199.291 194.561C199.678 195.379 200.891 194.666 200.505 193.851Z" fill="#212121"/>
<path d="M216.127 114.065C216.127 114.065 209.699 94.3392 204.602 93.4522C199.505 92.5652 162.865 119.384 161.237 132.904C159.609 146.424 166.691 153.738 172.791 154.846C172.791 154.846 169.707 158.392 173.634 159.722C177.561 161.052 213.688 149.97 213.688 149.97C213.688 149.97 227.873 157.063 239.62 156.398C251.367 155.733 261.044 146.998 263.557 147.976C267.547 149.527 281.252 158.615 287.365 157.95C293.478 157.285 299.019 153.739 299.019 153.739C299.019 153.739 302.344 160.832 301.679 162.161C301.014 163.49 291.891 165.929 287.365 170.583C282.839 175.237 282.396 178.784 285.499 179.449C288.602 180.114 291.483 176.124 291.483 176.124C291.483 176.124 290.153 181 293.921 182.108C297.689 183.216 299.86 182.551 301.766 179.005C303.672 175.459 306.111 165.928 309.436 164.598C312.761 163.268 319.41 166.593 321.626 163.49C323.842 160.387 323.177 156.619 321.626 155.733C320.075 154.847 312.539 157.949 311.431 157.506C310.323 157.063 300.349 135.342 298.354 134.677C298.354 134.677 313.869 135.564 316.972 129.136C320.075 122.708 321.848 103.604 307.22 93.4302C292.592 83.2562 272.422 92.3433 270.871 103.204C269.32 114.064 275.304 116.946 275.304 116.946C275.304 116.946 259.346 101.134 255.356 98.1802C251.366 95.2262 241.393 91.2363 232.749 96.3343C224.105 101.432 216.126 114.065 216.126 114.065H216.127Z" fill="#DCB8FF"/>
<path d="M216.127 114.065C216.127 114.065 209.699 94.3392 204.602 93.4522C199.505 92.5652 162.865 119.384 161.237 132.904C159.609 146.424 166.691 153.738 172.791 154.846C172.791 154.846 169.707 158.392 173.634 159.722C177.561 161.052 213.688 149.97 213.688 149.97C213.688 149.97 227.873 157.063 239.62 156.398C251.367 155.733 261.044 146.998 263.557 147.976C267.547 149.527 281.252 158.615 287.365 157.95C293.478 157.285 299.019 153.739 299.019 153.739C299.019 153.739 302.344 160.832 301.679 162.161C301.014 163.49 291.891 165.929 287.365 170.583C282.839 175.237 282.396 178.784 285.499 179.449C288.602 180.114 291.483 176.124 291.483 176.124C291.483 176.124 290.153 181 293.921 182.108C297.689 183.216 299.86 182.551 301.766 179.005C303.672 175.459 306.111 165.928 309.436 164.598C312.761 163.268 319.41 166.593 321.626 163.49C323.842 160.387 323.177 156.619 321.626 155.733C320.075 154.847 312.539 157.949 311.431 157.506C310.323 157.063 300.349 135.342 298.354 134.677C298.354 134.677 313.869 135.564 316.972 129.136C320.075 122.708 321.848 103.604 307.22 93.4302C292.592 83.2562 272.422 92.3433 270.871 103.204C269.32 114.064 275.304 116.946 275.304 116.946C275.304 116.946 259.346 101.134 255.356 98.1802C251.366 95.2262 241.393 91.2363 232.749 96.3343C224.105 101.432 216.126 114.065 216.126 114.065H216.127Z" fill="#DCB8FF"/>
<path d="M200.167 106.307C195.273 106.657 190.193 116.059 192.853 125.368C195.513 134.677 204.125 136.148 209.033 134.899C215.127 133.348 216.347 127.142 214.574 119.606C212.104 109.107 206.373 105.864 200.167 106.308V106.307Z" fill="#FF5B23"/>
<path d="M210.615 119.338C211.939 118.656 212.074 116.28 210.916 114.03C209.758 111.78 207.746 110.508 206.422 111.19C205.097 111.871 204.962 114.248 206.12 116.498C207.278 118.748 209.291 120.02 210.615 119.338Z" fill="#212121"/>
<path d="M207.078 123.18C208.503 124.159 210.409 124.161 211.837 123.186C212.58 122.679 211.877 121.46 211.127 121.972C210.079 122.687 208.835 122.685 207.787 121.966C207.039 121.452 206.335 122.671 207.077 123.18H207.078Z" fill="#212121"/>
<path d="M173.633 153.909C173.633 153.909 165.955 147.509 172.28 141.485C178.605 135.461 202.818 138.097 202.818 138.097C202.818 138.097 182.289 144.272 173.632 153.91L173.633 153.909Z" fill="#212121"/>
<path d="M181.336 138.146C179.102 139.346 177.317 141.606 177.457 144.114C177.487 144.654 177.611 145.204 177.924 145.645C178.566 146.551 179.825 146.774 180.932 146.685C181.803 146.615 182.668 146.403 183.536 146.372C192.596 141.174 202.82 138.096 202.82 138.096C202.82 138.096 190.672 136.777 181.337 138.147L181.336 138.146Z" fill="#D2FF00"/>
<g style="mix-blend-mode:multiply">
<path d="M182.453 137.998C183.813 138.493 185.086 139.215 186.162 140.187C187.233 141.154 188.093 142.357 188.682 143.676C196.072 140.127 202.819 138.095 202.819 138.095C202.819 138.095 191.611 136.879 182.453 137.998Z" fill="#C7D6BE"/>
</g>
<path d="M173.765 131.351C174.127 130.633 174.318 129.865 174.304 129.059C174.289 128.155 172.882 128.152 172.898 129.059C172.907 129.614 172.802 130.144 172.551 130.641C172.145 131.447 173.358 132.16 173.765 131.351Z" fill="#212121"/>
<path d="M215.858 114.244C217.493 118.782 218.308 123.434 218.298 128.259C218.296 129.164 219.702 129.165 219.704 128.259C219.714 123.303 218.894 118.534 217.214 113.87C216.91 113.025 215.55 113.389 215.858 114.244Z" fill="#212121"/>
<path d="M244.074 112.6C243.395 111.473 241.984 110.94 240.67 111.014C239.296 110.979 236.503 111.747 235.743 112.892C234.983 114.038 234.989 115.686 235.879 116.733C236.555 117.529 237.613 117.9 238.648 118.042C240.235 118.26 241.962 117.974 243.174 116.927C244.386 115.88 244.902 113.971 244.075 112.599L244.074 112.6Z" fill="#D2FF00"/>
<path d="M273.421 115.688C281.289 121.826 294.283 129.296 303.879 122.33C311.8 116.581 308.819 105.317 301.29 100.781C297.63 98.5758 291.861 96.7978 288.091 99.6858C284.999 102.055 285.495 105.84 287.654 108.695C289.54 111.188 293.687 113.613 296.574 111.072C297.816 109.978 298.139 107.554 296.181 107.033C295.305 106.8 294.932 108.156 295.807 108.389C294.686 110.864 293.078 111.372 290.984 109.912C290.115 109.392 289.408 108.715 288.862 107.881C287.211 105.744 286.692 103.34 288.689 101.229C291.441 98.3198 296.542 99.8478 299.647 101.472C304.896 104.218 308.631 110.099 306.747 116.117C304.664 122.77 296.932 124.516 290.859 123.185C284.842 121.867 279.22 118.439 274.415 114.691C273.71 114.141 272.707 115.129 273.421 115.685V115.688Z" fill="#212121"/>
<mask id="mask0_6521_46793" style="mask-type:luminance" maskUnits="userSpaceOnUse" x="161" y="89" width="163" height="94">
<path d="M216.127 114.065C216.127 114.065 209.699 94.3392 204.602 93.4522C199.505 92.5652 162.865 119.384 161.237 132.904C159.609 146.424 166.691 153.738 172.791 154.846C172.791 154.846 169.707 158.392 173.634 159.722C177.561 161.052 213.688 149.97 213.688 149.97C213.688 149.97 227.873 157.063 239.62 156.398C251.367 155.733 261.044 146.998 263.557 147.976C267.547 149.527 281.252 158.615 287.365 157.95C293.478 157.285 299.019 153.739 299.019 153.739C299.019 153.739 302.344 160.832 301.679 162.161C301.014 163.49 291.891 165.929 287.365 170.583C282.839 175.237 282.396 178.784 285.499 179.449C288.602 180.114 291.483 176.124 291.483 176.124C291.483 176.124 290.153 181 293.921 182.108C297.689 183.216 299.86 182.551 301.766 179.005C303.672 175.459 306.111 165.928 309.436 164.598C312.761 163.268 319.41 166.593 321.626 163.49C323.842 160.387 323.177 156.619 321.626 155.733C320.075 154.847 312.539 157.949 311.431 157.506C310.323 157.063 300.349 135.342 298.354 134.677C298.354 134.677 313.869 135.564 316.972 129.136C320.075 122.708 321.848 103.604 307.22 93.4302C292.592 83.2562 272.422 92.3433 270.871 103.204C269.32 114.064 275.304 116.946 275.304 116.946C275.304 116.946 259.346 101.134 255.356 98.1802C251.366 95.2262 241.393 91.2363 232.749 96.3343C224.105 101.432 216.126 114.065 216.126 114.065H216.127Z" fill="white"/>
</mask>
<g mask="url(#mask0_6521_46793)">
<path d="M235.954 93.7899C232.523 95.4119 229.891 98.6339 228.987 102.319C228.489 104.35 228.802 106.997 230.737 107.789C231.697 108.182 232.807 107.98 233.752 107.554C235.615 106.714 236.994 105.099 238.608 103.844C240.222 102.589 242.418 101.669 244.282 102.508C246.644 103.571 247.121 106.721 248.888 108.614C250.615 110.464 253.565 110.89 255.902 109.918C258.239 108.946 259.945 106.761 260.696 104.345C261.447 101.929 261.321 99.3049 260.732 96.8439C260 93.7849 258.462 90.7859 255.871 89.0039" fill="#212121"/>
<g style="mix-blend-mode:multiply">
<path d="M269.35 153.099C267.976 150.575 268.271 147.135 270.33 145.13C272.389 143.125 276.136 143.048 278.038 145.202C278.746 146.004 279.249 147.087 280.249 147.469C281.896 148.098 283.447 146.444 285.098 145.827C286.675 145.238 288.518 145.653 289.869 146.656C291.22 147.659 292.118 149.182 292.631 150.785C294.381 156.262 291.323 162.829 286.005 165.014" fill="#CCCCCC"/>
</g>
<g style="mix-blend-mode:multiply">
<path d="M275.806 132.912C274.003 131.093 271.407 130.089 268.849 130.222C267.118 130.312 265.16 131.187 264.844 132.891C264.609 134.156 265.446 135.459 266.6 136.027C267.754 136.595 269.139 136.527 270.363 136.13C271.006 135.922 271.685 135.624 272.333 135.821C272.73 135.942 273.051 136.235 273.326 136.547C274.04 137.358 274.533 138.342 275.229 139.169C275.925 139.996 276.927 140.688 278.003 140.586C279.332 140.459 280.304 139.073 280.266 137.739C280.228 136.405 279.379 135.199 278.308 134.402C277.237 133.605 275.957 133.15 274.698 132.707" fill="#CCCCCC"/>
</g>
</g>
<path d="M247.965 132.738C248.948 132.984 261.51 144.154 262.539 147.967C263.568 151.781 252.758 154.73 252.758 154.73C252.758 154.73 263.569 160.382 258.041 166.402C252.512 172.422 246.491 160.259 246.491 160.259C246.491 160.259 253.126 170.088 245.386 172.791C237.646 175.494 241.289 165.542 239.836 162.594C238.383 159.646 236.676 155.211 232.608 155.222C228.541 155.234 218.277 159.031 216.535 155.222C214.793 151.413 221.428 147.85 225.483 147.359C229.537 146.868 230.642 147.728 230.642 147.728C230.642 147.728 226.71 143.919 230.151 141.094C233.591 138.268 238.752 139.128 240.964 141.585C243.176 144.042 245.877 149.325 246.492 149.325C247.107 149.325 250.67 147.274 250.425 146.703C250.18 146.132 241.332 139.128 241.332 139.128" fill="#DCB8FF"/>
<path d="M241.768 138.575C241.464 138.334 241.021 138.386 240.78 138.69C240.539 138.995 240.59 139.437 240.895 139.678C244.501 142.533 248.483 145.775 249.569 146.803C248.956 147.356 247.287 148.344 246.646 148.576C246.295 148.174 245.571 147.027 244.974 146.084C243.939 144.446 242.65 142.408 241.486 141.114C238.986 138.335 233.415 137.502 229.705 140.55C228.649 141.417 228.088 142.459 228.04 143.646C227.995 144.731 228.399 145.749 228.865 146.549C228.026 146.473 226.896 146.479 225.398 146.66C222.975 146.954 219.407 148.348 217.277 150.444C217 150.717 216.996 151.162 217.269 151.438C217.407 151.578 217.588 151.648 217.77 151.648C217.948 151.648 218.126 151.581 218.263 151.446C220.149 149.591 223.433 148.315 225.567 148.056C229.109 147.625 230.207 148.282 230.211 148.282C230.341 148.383 230.496 148.423 230.649 148.421C232.722 149.934 235.03 150.889 237.365 152.124C238.165 152.547 238.876 151.333 238.075 150.91C235.435 149.513 232.808 148.521 230.558 146.553C230.02 145.839 229.402 144.758 229.446 143.704C229.478 142.924 229.855 142.248 230.598 141.637C233.662 139.12 238.405 139.793 240.441 142.056C241.526 143.262 242.779 145.244 243.786 146.838C245.385 149.367 245.83 150.029 246.492 150.029C247.297 150.029 250.32 148.304 250.944 147.357C251.221 146.937 251.142 146.593 251.07 146.426C250.992 146.244 250.754 145.691 241.769 138.577L241.768 138.575Z" fill="#212121"/>
<path d="M263.217 147.785C263.104 147.369 262.889 146.896 262.558 146.342C259.792 141.703 249.346 132.36 248.134 132.057C247.76 131.961 247.347 132.182 247.254 132.559C247.159 132.936 247.36 133.309 247.737 133.403C248.867 133.918 258.794 142.774 261.35 147.062C261.611 147.499 261.782 147.865 261.859 148.152C261.944 148.466 262.228 148.672 262.537 148.672C262.598 148.672 262.66 148.664 262.721 148.648C263.096 148.546 263.318 148.16 263.217 147.785Z" fill="#212121"/>
<path d="M298.155 134.314C294.908 132.225 291.369 130.809 287.576 130.088C286.692 129.92 286.313 131.275 287.202 131.444C290.889 132.145 294.287 133.497 297.445 135.529C298.208 136.02 298.914 134.802 298.155 134.314Z" fill="#212121"/>
<g style="mix-blend-mode:multiply" opacity="0.4">
<path d="M204.224 124.589C201.861 122.948 199.011 121.38 196.244 122.166C194.734 122.595 193.513 123.734 192.793 125.135C192.814 125.213 192.831 125.29 192.854 125.368C195.514 134.677 204.126 136.148 209.034 134.899C212.911 133.912 214.809 131.037 215.225 127.139C214.169 127.571 213.096 127.918 211.989 127.967C209.115 128.094 206.589 126.231 204.225 124.59L204.224 124.589Z" fill="#C7D6BE"/>
</g>
<path d="M292.004 175.851C293.712 172.697 296.044 170.007 298.955 167.907C299.682 167.382 298.981 166.162 298.245 166.693C295.135 168.936 292.616 171.767 290.79 175.141C290.359 175.937 291.573 176.648 292.004 175.851Z" fill="#212121"/>
<path d="M166.622 133.82C166.529 133.595 166.432 133.375 166.302 133.169C166.174 132.966 166.025 132.772 165.864 132.593C165.578 132.275 165.226 132.002 164.849 131.801C164.684 131.713 164.49 131.68 164.307 131.73C164.144 131.775 163.967 131.901 163.887 132.053C163.801 132.216 163.758 132.414 163.816 132.595C163.871 132.766 163.977 132.929 164.139 133.015C164.299 133.1 164.452 133.199 164.596 133.31L164.454 133.2C164.669 133.368 164.861 133.562 165.028 133.777L164.918 133.635C165.084 133.852 165.221 134.087 165.328 134.338L165.257 134.17L165.266 134.193C165.288 134.285 165.33 134.364 165.392 134.432C165.442 134.509 165.507 134.569 165.589 134.613C165.74 134.701 165.962 134.739 166.131 134.684C166.301 134.629 166.465 134.523 166.551 134.361C166.633 134.206 166.692 133.99 166.622 133.819V133.82Z" fill="#212121"/>
<g style="mix-blend-mode:screen">
<path d="M291.723 178.749C291.723 178.749 291.593 178.927 291.367 179.194C291.408 179.408 291.467 179.621 291.539 179.831C291.605 179.19 291.723 178.749 291.723 178.749Z" fill="#212121"/>
<path d="M287.601 173.208C292.127 168.554 301.25 166.116 301.915 164.786C302.121 164.374 301.944 163.411 301.603 162.277C300.504 163.631 291.766 166.061 287.367 170.584C283.869 174.182 282.82 177.111 283.952 178.566C284.406 177.097 285.606 175.261 287.601 173.209V173.208Z" fill="#212121"/>
<path d="M271.106 105.829C272.657 94.9692 292.827 85.8812 307.455 96.0552C314.983 101.29 318.161 108.889 319.056 115.91C318.662 108.221 315.699 99.3272 307.221 93.4312C292.593 83.2572 272.423 92.3442 270.872 103.205C270.508 105.754 270.562 107.859 270.853 109.594C270.834 108.461 270.909 107.21 271.106 105.829Z" fill="#212121"/>
<path d="M173.028 157.471C172.581 157.39 172.128 157.271 171.674 157.123C171.585 157.713 171.684 158.328 172.173 158.854C172.514 158.063 173.029 157.471 173.029 157.471H173.028Z" fill="#212121"/>
<path d="M161.472 135.529C163.1 122.009 199.739 95.1901 204.837 96.0771C209.935 96.9641 216.362 116.69 216.362 116.69C216.362 116.69 224.341 104.056 232.985 98.9592C241.629 93.8612 251.603 97.8511 255.592 100.805C258.551 102.996 269.819 119.422 277.507 118.112C276.995 116.203 274.284 116.874 273.917 115.192C268.909 110.3 258.055 100.178 255.358 98.1801C251.368 95.2261 241.395 91.2362 232.751 96.3342C224.107 101.432 216.128 114.065 216.128 114.065C216.128 114.065 209.7 94.3391 204.603 93.4521C199.505 92.5651 162.866 119.384 161.238 132.904C160.903 135.684 160.942 138.197 161.259 140.452C161.2 138.914 161.262 137.274 161.472 135.529Z" fill="#212121"/>
</g>
<g style="mix-blend-mode:multiply">
<path d="M257.62 166.814C256.772 163.655 253.495 158.454 251.618 157.123C249.25 155.443 247.504 151.449 243.783 146.837C240.062 142.225 236.285 142.225 233.227 143.676C230.169 145.128 238.137 152.047 238.137 152.047C238.137 152.047 227.435 150.95 223.571 151.573C220.587 152.054 218.873 154.246 218.473 156.678C222.118 157.666 229.348 155.231 232.606 155.222C236.673 155.21 238.38 159.645 239.833 162.594C241.162 165.29 238.235 173.835 243.641 173.213C244.669 171.88 245.547 170.248 246.008 169.523C246.881 168.152 246.489 160.259 246.489 160.259L248.061 163.23C247.888 162.823 247.71 162.444 247.538 162.101C249.435 165.141 253.613 170.515 257.62 166.814Z" fill="#CCCCCC"/>
</g>
<defs>
<filter id="filter0_i_6521_46793" x="-41" y="-16" width="398.91" height="225.833" filterUnits="userSpaceOnUse" color-interpolation-filters="sRGB">
<feFlood flood-opacity="0" result="BackgroundImageFix"/>
<feBlend mode="normal" in="SourceGraphic" in2="BackgroundImageFix" result="shape"/>
<feColorMatrix in="SourceAlpha" type="matrix" values="0 0 0 0 0 0 0 0 0 0 0 0 0 0 0 0 0 0 127 0" result="hardAlpha"/>
<feOffset dy="4"/>
<feGaussianBlur stdDeviation="2"/>
<feComposite in2="hardAlpha" operator="arithmetic" k2="-1" k3="1"/>
<feColorMatrix type="matrix" values="0 0 0 0 0 0 0 0 0 0 0 0 0 0 0 0 0 0 0.25 0"/>
<feBlend mode="normal" in2="shape" result="effect1_innerShadow_6521_46793"/>
</filter>
<filter id="filter1_i_6521_46793" x="-36" y="42.998" width="423.617" height="176.002" filterUnits="userSpaceOnUse" color-interpolation-filters="sRGB">
<feFlood flood-opacity="0" result="BackgroundImageFix"/>
<feBlend mode="normal" in="SourceGraphic" in2="BackgroundImageFix" result="shape"/>
<feColorMatrix in="SourceAlpha" type="matrix" values="0 0 0 0 0 0 0 0 0 0 0 0 0 0 0 0 0 0 127 0" result="hardAlpha"/>
<feOffset dy="4"/>
<feGaussianBlur stdDeviation="2"/>
<feComposite in2="hardAlpha" operator="arithmetic" k2="-1" k3="1"/>
<feColorMatrix type="matrix" values="0 0 0 0 0 0 0 0 0 0 0 0 0 0 0 0 0 0 0.25 0"/>
<feBlend mode="normal" in2="shape" result="effect1_innerShadow_6521_46793"/>
</filter>
</defs>
</svg>
