<svg width="1500" height="481" viewBox="0 0 1500 481" fill="none" xmlns="http://www.w3.org/2000/svg">
<g opacity="0.3">
<line x1="0.5" y1="-64.8989" x2="0.499976" y2="491.605" stroke="#D2FF00"/>
<line x1="94.1875" y1="-64.8989" x2="94.1875" y2="491.605" stroke="#D2FF00"/>
<line x1="187.875" y1="-64.8989" x2="187.875" y2="491.605" stroke="#D2FF00"/>
<line x1="281.562" y1="-64.8989" x2="281.562" y2="491.605" stroke="#D2FF00"/>
<line x1="375.25" y1="-64.8989" x2="375.25" y2="491.605" stroke="#D2FF00"/>
<line x1="468.938" y1="-64.8989" x2="468.937" y2="491.605" stroke="#D2FF00"/>
<line x1="562.625" y1="-64.8989" x2="562.625" y2="491.605" stroke="#D2FF00"/>
<line x1="656.312" y1="-64.8989" x2="656.312" y2="491.605" stroke="#D2FF00"/>
<line x1="750" y1="-64.8989" x2="750" y2="491.605" stroke="#D2FF00"/>
<line x1="843.688" y1="-64.8989" x2="843.688" y2="491.605" stroke="#D2FF00"/>
<line x1="937.375" y1="-64.8989" x2="937.375" y2="491.605" stroke="#D2FF00"/>
<line x1="1031.06" y1="-64.8989" x2="1031.06" y2="491.605" stroke="#D2FF00"/>
<line x1="1124.75" y1="-64.8989" x2="1124.75" y2="491.605" stroke="#D2FF00"/>
<line x1="1218.44" y1="-64.8989" x2="1218.44" y2="491.605" stroke="#D2FF00"/>
<line x1="1312.12" y1="-64.8989" x2="1312.12" y2="491.605" stroke="#D2FF00"/>
<line x1="1405.81" y1="-64.8989" x2="1405.81" y2="491.605" stroke="#D2FF00"/>
<line x1="1499.5" y1="-64.8989" x2="1499.5" y2="491.605" stroke="#D2FF00"/>
<line y1="27.3515" x2="1499" y2="27.3515" stroke="#D2FF00"/>
<line y1="120.102" x2="1499" y2="120.102" stroke="#D2FF00"/>
<line y1="212.853" x2="1499" y2="212.853" stroke="#D2FF00"/>
<line y1="305.604" x2="1499" y2="305.604" stroke="#D2FF00"/>
<line y1="398.354" x2="1499" y2="398.354" stroke="#D2FF00"/>
</g>
</svg>
