<svg width="682" height="338" viewBox="0 0 682 338" fill="none" xmlns="http://www.w3.org/2000/svg">
<path d="M308.106 79.1039L291.28 111.131L274.266 136.048L257.046 157.875L239.628 178.753L221.911 194.212L203.91 207.342L185.644 219.617L167.052 230.09L149.746 221.571L130.862 231.367L113.83 223.384L97.0303 215.504" stroke="#D2FF00" stroke-width="0.5" stroke-linecap="round" stroke-linejoin="round"/>
<path d="M409.481 58.9293L427.353 86.2131L445.44 108.049L463.578 134.638L481.904 159.18L500.556 176.677L519.56 189.084L538.864 199.405L554.326 189.534L573.853 199.405L588.998 191.047L608.808 199.302L623.67 191.216" stroke="#D2FF00" stroke-width="0.5" stroke-linecap="round" stroke-linejoin="round"/>
<path d="M443.03 84.2134L425.218 59.6627L422.148 55.1076L407.552 33.4778L391.747 29.8243L375.599 36.4175L359.202 52.0928L342.616 82.7576L360.497 118.212L378.471 147.609L396.652 166.487L415.064 181.383L433.597 201.82L452.541 209.784L468.715 201.228L484.734 189.197L500.556 176.678L516.199 163.397L531.566 152.906L546.643 144.98L561.367 140.847L575.757 139.729L594.641 148.426L613.739 157.847L633.078 167.445L652.751 175.382" stroke="#D2FF00" stroke-width="0.5" stroke-linecap="round" stroke-linejoin="round"/>
<path d="M411.539 306.719L391.258 297.402L373.026 307.217L354.502 317.163L334.478 307.893L314.753 298.839L295.878 308.738" stroke="#D2FF00" stroke-width="0.5" stroke-linecap="round" stroke-linejoin="round"/>
<path d="M514.775 250.508L494.69 242.243L478.122 251.071L461.305 259.684L444.205 268.841L424.318 259.815L406.917 269.01L389.234 278.289L371.276 288.095L351.586 279.266L332.197 271.151L313.09 262.623L294.257 254.18L275.699 245.868L257.407 237.678L239.372 229.601L221.029 238.27L202.394 247.08L183.467 256.03" stroke="#D2FF00" stroke-width="0.5" stroke-linecap="round" stroke-linejoin="round"/>
<path d="M578.416 215.861L558.486 208L542.895 216.434L527.073 224.905L511.01 233.508L494.69 242.243L474.889 234.1L455.371 226.079L436.127 218.162L417.157 210.357L400.468 218.735L383.523 227.244L366.32 235.885L348.851 244.657L331.107 253.57L312.292 245.267L293.751 237.077L275.468 229.01L257.441 221.055L239.578 207.925L221.912 194.212L204.452 180.35L187.266 169.286L170.389 161.726L153.82 156.485L137.492 151.751L119.586 165.407L101.431 178.791L82.9672 190.587L64.1348 200.082" stroke="#D2FF00" stroke-width="0.5" stroke-linecap="round" stroke-linejoin="round"/>
<path d="M638.326 183.242L618.602 175.109L603.912 182.942L588.999 191.047L569.54 180.5L554.327 189.535L535.125 177.297L516.199 163.397L497.581 146.351L479.22 126.055L461.065 104.021L443.03 84.2133L427.353 86.2138L411.343 95.7843L394.963 123.707L378.472 147.609L361.852 165.229L345.035 181.345L328.012 197.18L310.766 209.653L293.254 220.472L275.202 209.211L257.322 193.931L239.63 178.753L222.135 163.285L204.855 148.971L187.969 142.162L171.401 138.631L153.82 156.485L135.923 171.38L117.742 184.877L99.3043 197.819L82.9674 190.587L66.8535 183.374L50.9625 176.264L35.286 169.239L19.8496 162.806L1 170.479" stroke="#D2FF00" stroke-width="0.5" stroke-linecap="round" stroke-linejoin="round"/>
<path d="M374.834 326.705L356.028 336.942L335.669 327.4" stroke="#D2FF00" stroke-width="0.5" stroke-linecap="round" stroke-linejoin="round"/>
<path d="M113.831 223.384L132.689 213.269L151.179 200.402L169.342 185.168L187.265 169.286L204.854 148.971L222.203 125.895L239.303 98.3952L256.223 67.9371L273.015 36.6523L289.755 11.8668" stroke="#D2FF00" stroke-width="0.5" stroke-linecap="round" stroke-linejoin="round"/>
<path d="M80.4717 207.737L99.3043 197.819L115.873 205.314L134.328 192.09L151.179 200.402L168.288 209.69L185.645 219.618L203.226 229.423L221.543 219.28L239.578 207.925L257.322 193.931L274.816 179.307L292.07 162.28L309.102 141.533L325.928 114.991L342.616 82.7576L324.813 44.9267L307.19 27.1758L289.755 11.8668" stroke="#D2FF00" stroke-width="0.5" stroke-linecap="round" stroke-linejoin="round"/>
<path d="M666.978 167.633L647.339 159.903L627.958 152.446L613.74 157.847L599.229 165.003L584.505 172.517L569.54 180.5L550.424 167.295L531.566 152.906L512.991 136.142L494.665 116.841L476.51 97.719L458.501 80.1841L447.155 68.2375L440.68 61.4095L422.989 45.2271L407.552 33.4777L398.41 27.1006L374.072 9.23704L340.301 1.00024L323.835 11.8949L307.19 27.1757L290.441 52.9755L273.641 86.4016L256.653 114.117L239.467 138.161L222.135 163.285L204.452 180.35L186.52 196.109L168.288 209.69L149.747 221.571L132.69 213.269L115.873 205.314L97.0316 215.504L80.4717 207.737L64.135 200.082L48.0297 192.522L32.1387 185.074L16.4622 177.729L1 170.479" stroke="#D2FF00" stroke-width="0.5" stroke-linecap="round" stroke-linejoin="round"/>
<path d="M148.152 239.472L167.053 230.09L184.599 238.693L203.226 229.423L221.029 238.27L239.064 246.479L257.365 254.8L275.94 263.243L294.258 254.18L312.293 245.267L330.053 236.486L347.548 227.836L364.768 219.317L383.523 227.244L402.553 235.293L419.473 226.662L436.127 218.162L452.541 209.784L471.759 217.58L487.89 209.221L507.349 217.007L527.073 224.905L547.08 232.917" stroke="#D2FF00" stroke-width="0.5" stroke-linecap="round" stroke-linejoin="round"/>
<path d="M393.342 316.627L374.836 326.705L354.503 317.163L335.67 327.4L315.62 317.999" stroke="#D2FF00" stroke-width="0.5" stroke-linecap="round" stroke-linejoin="round"/>
<path d="M165.681 247.691L184.599 238.693L202.394 247.08L220.437 255.42L238.746 263.873L257.33 272.448L276.18 281.154L295.321 289.992L314.754 298.839L333.32 289.119L351.586 279.267L369.578 269.292L387.279 260.304L404.696 251.992L421.848 243.455L441.444 251.034L458.295 242.779L474.889 234.1L491.243 225.488L511.01 233.509L531.06 241.642" stroke="#D2FF00" stroke-width="0.5" stroke-linecap="round" stroke-linejoin="round"/>
<path d="M32.1387 185.073L50.9625 176.264L69.4605 166.365L87.7441 157.292L105.745 147.731L121.447 148.332L137.492 151.751L155.115 136.367L171.401 138.63L188.647 115.206L205.249 117.93L222.204 125.895L239.467 138.161L257.047 157.874L274.816 179.307L292.705 196.071L310.766 209.652L329.032 219.899L346.27 209.201L363.284 195.16L380.092 177.926L396.652 166.487L413.058 149.187L429.343 127.839L445.44 108.05L461.065 104.021L476.51 97.7185L491.663 94.1871L502.117 101.372L506.234 104.199L508.12 105.392L510.59 106.951L515.813 110.257L519.269 112.455L520.066 112.962L524.414 115.714L533.316 121.424L542.809 127.51L557.114 130.854L575.757 139.729L589.942 137.954L608.826 145.148L622.916 139.24L642.022 146.068" stroke="#D2FF00" stroke-width="0.5" stroke-linecap="round" stroke-linejoin="round"/>
<path d="M340.301 1L356.414 11.4627L374.072 9.2368L389.912 21.6342L398.41 27.1004L407.552 33.4775" stroke="#D2FF00" stroke-width="0.5" stroke-linecap="round" stroke-linejoin="round"/>
<path d="M661.379 152.991L642.023 146.069L627.959 152.446L608.826 145.148L594.642 148.426L580.192 152.897L565.433 159.509L550.425 167.295L535.126 177.297L519.561 189.084L503.816 200.016L484.735 189.197L466.031 171.962L447.653 147.083L429.344 127.839L411.343 95.784L393.437 63.7855L375.599 36.4172L357.873 12.4864L356.415 11.4627L340.302 1L306.504 9.79089L289.756 11.8665L255.967 33.6748L249.167 45.8468L239.219 63.6634L222.35 93.1542L205.25 117.93L187.97 142.162L170.39 161.725L152.509 177.973L134.328 192.089L117.743 184.876L101.432 178.79L85.3436 172.601L69.4613 166.365L53.862 161.302L35.2867 169.239L16.4629 177.729" stroke="#D2FF00" stroke-width="0.5" stroke-linecap="round" stroke-linejoin="round"/>
<path d="M429.437 296.97L411.539 306.719L393.342 316.628L373.026 307.217L353.027 297.928L334.478 307.893L315.619 317.999L295.878 308.739L276.437 299.628" stroke="#D2FF00" stroke-width="0.5" stroke-linecap="round" stroke-linejoin="round"/>
<path d="M447.053 287.381L429.438 296.97L409.191 287.719L389.235 278.289L369.579 269.292L350.198 261.994L331.108 253.569L313.091 262.623L294.781 271.809L276.181 281.154L257.288 290.64" stroke="#D2FF00" stroke-width="0.5" stroke-linecap="round" stroke-linejoin="round"/>
<path d="M38.415 155.235L56.7242 147.778L72.1692 153.338L90.2041 145.299L105.744 147.731L123.478 137.522L139.12 135.353L155.114 136.367L172.343 116.925L172.412 116.85L188.646 115.207L205.78 94.319L222.348 93.1544L239.303 98.3951L256.651 114.117L274.266 136.048L292.069 162.279L309.967 182.726L328.011 197.18L346.268 209.202L364.766 219.317L381.729 210.93L398.46 200.693L415.063 181.383L431.46 163.51L447.651 147.083L463.577 134.639L479.219 126.055L494.664 116.841L509.774 112.136L524.413 115.714L538.717 121.932L545.664 125.303L557.112 130.854L571.305 130.685L589.941 137.954L604.056 132.497" stroke="#D2FF00" stroke-width="0.5" stroke-linecap="round" stroke-linejoin="round"/>
<path d="M464.393 277.942L447.053 287.381L426.839 278.186L409.19 287.719L391.258 297.402L371.277 288.094L353.028 297.928L333.32 289.118L313.905 280.459L294.781 271.809L275.94 263.243L257.331 272.447L238.421 281.802" stroke="#D2FF00" stroke-width="0.5" stroke-linecap="round" stroke-linejoin="round"/>
<path d="M56.7246 147.778L74.7853 140.424L90.2045 145.299L107.991 137.175L123.479 137.522L134.747 130.6L140.956 126.787L156.547 121.894L166.7 113.103L168.699 111.365L173.724 107.026L189.581 99.5785L198.234 90.149L206.535 81.1045L222.649 68.4816L239.569 54.0367L255.966 33.6749L271.359 36.3704L273.014 36.6521L290.44 52.9754L308.107 79.104" stroke="#D2FF00" stroke-width="0.5" stroke-linecap="round" stroke-linejoin="round"/>
<path d="M481.45 268.653L464.392 277.942L444.205 268.841L426.839 278.186L406.917 269.01L387.279 260.304L367.923 252.959L348.851 244.657L330.053 236.486L311.529 228.418L293.752 237.077L275.699 245.868L257.364 254.8L238.746 263.873L219.828 273.086" stroke="#D2FF00" stroke-width="0.5" stroke-linecap="round" stroke-linejoin="round"/>
<path d="M74.7852 140.424L92.5799 133.174L107.991 137.175L125.519 128.891L140.956 126.787L149.455 120.983L158.167 115.038L162.335 112.887L173.724 107.027L178.767 103.082L184.624 98.508L190.738 93.7369L191.922 92.7226L206.535 81.1047L221.551 68.8011L223.455 67.2421L225.204 65.8145L255.966 33.6751L272.963 34.2292L289.754 11.8668" stroke="#D2FF00" stroke-width="0.5" stroke-linecap="round" stroke-linejoin="round"/>
<path d="M130.862 231.367L148.151 239.473L165.68 247.691L183.466 256.031L201.518 264.493L219.827 273.086L238.42 281.802L257.287 290.64L276.436 299.628L295.32 289.992L313.904 280.459L332.196 271.152L350.196 261.995L367.923 252.959L385.366 244.056L402.552 235.293L421.847 243.455L438.741 234.692L455.37 226.08L471.758 217.58L491.242 225.488L507.348 217.007L523.204 208.648L542.894 216.434L562.867 224.323" stroke="#D2FF00" stroke-width="0.5" stroke-linecap="round" stroke-linejoin="round"/>
<path d="M498.249 259.505L481.449 268.653L461.305 259.684L441.443 251.034L424.317 259.815L404.696 251.992L385.366 244.056L366.319 235.884L347.547 227.836L329.032 219.899L311.529 228.418L293.254 220.472L275.468 229.01L257.407 237.678L239.063 246.479L220.437 255.42L201.519 264.492" stroke="#D2FF00" stroke-width="0.5" stroke-linecap="round" stroke-linejoin="round"/>
<path d="M92.5811 133.174L110.136 126.027L127.45 118.973L144.525 112.023L161.367 105.167L177.987 98.3953L191.743 92.7883" stroke="#D2FF00" stroke-width="0.5" stroke-linecap="round" stroke-linejoin="round"/>
<path d="M306.504 9.79138L323.836 11.8952L341.433 27.5141L359.202 52.093L377.04 89.3228L394.963 123.707L413.058 149.187L431.462 163.51L449.934 185.966L468.715 201.228L487.89 209.221L503.816 200.017L523.205 208.648L538.865 199.406L558.486 208L573.854 199.406L593.724 207.521L608.809 199.303" stroke="#D2FF00" stroke-width="0.5" stroke-linecap="round" stroke-linejoin="round"/>
<path d="M593.722 207.521L578.415 215.861L562.867 224.323L547.079 232.916L531.059 241.642L514.774 250.508L498.248 259.505L478.121 251.071L458.294 242.778L438.741 234.692L419.471 226.661L400.467 218.735L381.729 210.93L363.283 195.161L345.033 181.345L326.999 166.656L309.101 141.532L291.28 111.131L273.64 86.4013L256.223 67.9367L239.217 63.6633L222.648 68.4814L205.78 94.3188L189.58 99.5783L183.208 105.993L172.411 116.85L156.546 121.894L152.181 125.265L139.12 135.352L135.793 137.804L121.445 148.332L103.505 160.354L85.3416 172.601L66.8521 183.374L48.0283 192.522" stroke="#D2FF00" stroke-width="0.5" stroke-linecap="round" stroke-linejoin="round"/>
<path d="M409.482 58.9293L393.436 63.785L377.039 89.3219L360.497 118.212L343.825 144.603L327 166.656L309.968 182.725L292.705 196.071L275.202 209.211L257.442 221.054L239.372 229.601L221.543 219.279L203.912 207.342L186.52 196.109L169.343 185.167L152.508 177.973L135.923 171.38L119.586 165.406L103.506 160.354L87.7442 157.292L72.1705 153.338L53.8613 161.302L38.4163 155.235L19.8496 162.805" stroke="#D2FF00" stroke-width="0.5" stroke-linecap="round" stroke-linejoin="round"/>
<path d="M443.03 84.2133L458.501 80.1841L473.629 80.8228" stroke="#D2FF00" stroke-width="0.5" stroke-linecap="round" stroke-linejoin="round"/>
<path d="M681 159.998L666.979 167.633L652.752 175.382L638.327 183.243L623.671 191.217L603.913 182.942L584.506 172.517L565.433 159.509L546.644 144.98L528.086 129.333L509.776 112.136L499.374 101.824L499.254 101.702L491.664 94.1879L486.776 90.5627L473.63 80.8232L467.412 77.8647L455.706 72.3047L440.681 61.4099L425.219 59.663L409.483 58.9304L391.748 29.8246L377.632 13.3886L374.073 9.23743L357.874 12.487L341.434 27.5142L324.814 44.927L308.108 79.1045L325.929 114.991L343.826 144.604L361.853 165.229L380.093 177.927L398.463 200.693L417.158 210.358L433.598 201.82L449.935 185.966L466.031 171.963L481.905 159.181L497.582 146.351L512.992 136.142L528.086 129.333L542.81 127.511L547.63 130.976L561.368 140.847L580.192 152.897L599.23 165.004L618.603 175.109L633.079 167.445L647.34 159.904L661.379 152.991L681 159.998Z" stroke="#D2FF00" stroke-width="0.5" stroke-linecap="round" stroke-linejoin="round"/>
<path d="M110.135 126.026L125.52 128.891L142.8 120.382L158.168 115.038L161.744 112.859L166.298 110.088L173.647 105.627L175.199 104.688L183.981 98.4983L188.955 94.9857" stroke="#D2FF00" stroke-width="0.5" stroke-linecap="round" stroke-linejoin="round"/>
<path d="M127.45 118.973L142.801 120.382L159.875 112.765L168.949 107.984" stroke="#D2FF00" stroke-width="0.5" stroke-linecap="round" stroke-linejoin="round"/>
<path d="M567.079 119.274L552.912 123.256L538.719 121.932L527.527 116.465L520.538 113.066L517.871 111.403" stroke="#D2FF00" stroke-width="0.5" stroke-linecap="round" stroke-linejoin="round"/>
<path d="M144.525 112.023L158.641 112.708" stroke="#D2FF00" stroke-width="0.5" stroke-linecap="round" stroke-linejoin="round"/>
<path d="M161.368 105.167L172.611 105.59" stroke="#D2FF00" stroke-width="0.5" stroke-linecap="round" stroke-linejoin="round"/>
<path d="M523.78 113.771L534.749 116.184L548.941 112.784" stroke="#D2FF00" stroke-width="0.5" stroke-linecap="round" stroke-linejoin="round"/>
<path d="M502.528 101.326L513.342 100.058" stroke="#D2FF00" stroke-width="0.5" stroke-linecap="round" stroke-linejoin="round"/>
<path d="M487.649 90.8721L495.882 93.8212L513.342 100.057L531.026 106.378L548.94 112.784L567.078 119.273L585.448 125.839L604.057 132.497L622.915 139.241" stroke="#D2FF00" stroke-width="0.5" stroke-linecap="round" stroke-linejoin="round"/>
<path d="M509.646 106.003L516.824 108.924L534.748 116.184L552.911 123.256L571.306 130.685L585.448 125.839" stroke="#D2FF00" stroke-width="0.5" stroke-linecap="round" stroke-linejoin="round"/>
<path d="M177.986 98.396L183.466 98.4899" stroke="#D2FF00" stroke-width="0.5" stroke-linecap="round" stroke-linejoin="round"/>
<path d="M512.246 107.477L516.825 108.924L531.027 106.379" stroke="#D2FF00" stroke-width="0.5" stroke-linecap="round" stroke-linejoin="round"/>
<path d="M492.135 94.0843L495.882 93.8213" stroke="#D2FF00" stroke-width="0.5" stroke-linecap="round" stroke-linejoin="round"/>
<path d="M422.989 45.2269L433.855 54.2151L442.842 61.6535L447.156 65.2225L468.244 77.6481L473.629 80.8226L487.651 90.872" stroke="#D2FF00" stroke-width="0.5" stroke-linecap="round" stroke-linejoin="round"/>
<path d="M192.103 92.6469L206.535 81.1042" stroke="#D2FF00" stroke-width="0.5" stroke-linecap="round" stroke-linejoin="round"/>
</svg>
