<svg width="1702" height="352" viewBox="0 0 1702 352" fill="none" xmlns="http://www.w3.org/2000/svg">
<path d="M1732.36 351.001L1592.28 264.66H1510.2H1428.12H1346.04H1263.97H1181.89H1099.81L1067.56 202.427L1043.19 155.432L1024.13 118.678L1008.84 89.1758L996.283 64.9471L985.786 44.711L976.884 27.5522H938.449H900.015H861.581H823.129H784.695H746.26L736.197 44.711L724.35 64.9471L710.147 89.1758L692.861 118.678L671.349 155.432L643.809 202.427L607.367 264.66H525.285H443.202H361.137H279.055H196.973H114.908L-31 351.001" stroke="#D2FF00" stroke-width="0.5" stroke-linecap="round" stroke-linejoin="round"/>
<path d="M66.9639 350.998L196.972 264.658L290.711 202.426H361.327H431.943H502.576H573.192L609.375 155.431H671.348H733.321H795.294H857.267H919.24H981.213H1043.19H1105.16L1138.17 202.426H1208.79H1279.42H1350.04H1420.65L1510.2 264.658L1634.39 350.998" stroke="#D2FF00" stroke-width="0.5" stroke-linecap="round" stroke-linejoin="round"/>
<path d="M164.93 350.998L279.055 264.658L361.328 202.425L423.456 155.43L472.023 118.675H527.224H582.442L610.588 89.1737H660.367H710.146H759.943H809.722H859.502H909.281H959.06H1008.84H1058.62H1108.4L1134.57 118.675H1189.77H1244.99L1291.08 155.43L1350.04 202.425L1428.12 264.658L1536.42 350.998" stroke="#D2FF00" stroke-width="0.5" stroke-linecap="round" stroke-linejoin="round"/>
<path d="M114.909 264.657L220.08 202.424H290.713L361.485 155.429H423.458H485.431H547.404H609.377L637.661 118.675L660.368 89.1736L679.023 64.9451H724.351H769.661H814.989H860.317H905.645H950.956H996.284H1041.61L1058.62 89.1736L1079.35 118.675L1105.16 155.429H1167.13H1229.11H1291.08H1353.05L1420.65 202.424H1491.29L1592.28 264.657" stroke="#D2FF00" stroke-width="0.5" stroke-linecap="round" stroke-linejoin="round"/>
<path d="M262.895 350.998L361.137 264.657L431.943 202.424L485.429 155.429L527.224 118.675L560.808 89.1729L588.383 64.9441H633.693L653.006 44.708H694.61H736.196H777.801H819.405H860.991H902.595H944.182H985.786H1027.39H1068.98H1110.58H1152.17L1177.58 64.9441H1222.89L1257.74 89.1729H1307.53L1355.41 118.675" stroke="#D2FF00" stroke-width="0.5" stroke-linecap="round" stroke-linejoin="round"/>
<path d="M1732.36 350.999H1634.39H1536.42H1438.46H1340.49H1242.53H1144.58H1046.62L1017.74 264.659L996.924 202.426L981.214 155.431L968.934 118.676L959.061 89.1745L950.955 64.9458L944.182 44.7097L938.449 27.551L933.513 12.8008L929.235 0H895.876H862.499H829.139H795.763L790.618 12.8008L784.695 27.551L777.801 44.7097L769.661 64.9458L759.944 89.1745L748.079 118.676L733.322 155.431L714.443 202.426L689.432 264.659L654.756 350.999H556.791H458.826H360.86H262.895H164.93H66.965H-31" stroke="#D2FF00" stroke-width="0.5" stroke-linecap="round" stroke-linejoin="round"/>
<path d="M1046.62 350.999H948.651H850.686H752.721H654.756" stroke="#D2FF00" stroke-width="0.5" stroke-linecap="round" stroke-linejoin="round"/>
<path d="M360.86 351L443.202 264.66L502.577 202.427L547.403 155.432L582.442 118.678H637.66H692.861H748.079H803.297H858.497H913.715H968.933H1024.13H1079.35H1134.57L1167.13 155.432L1208.79 202.427L1263.97 264.66L1340.49 351" stroke="#D2FF00" stroke-width="0.5" stroke-linecap="round" stroke-linejoin="round"/>
<path d="M220.079 202.426L299.511 155.431H361.484L416.806 118.677H472.024L511.03 89.1754H560.809H610.589L633.694 64.9469H679.022L694.611 44.7109L707.826 27.5523H746.261L754.904 12.8022H790.619H826.351H862.066H897.798H933.513H969.246L976.884 27.5523H1015.32L1027.39 44.7109L1041.61 64.9469H1086.92L1108.4 89.1754H1158.18H1207.96L1244.99 118.677H1300.21L1353.05 155.431H1415.02L1491.29 202.426" stroke="#D2FF00" stroke-width="0.5" stroke-linecap="round" stroke-linejoin="round"/>
<path d="M458.825 350.999L525.284 264.659L573.193 202.427H643.809H714.442H785.058H855.691H926.307H996.923H1067.56H1138.17L1181.89 264.659L1242.53 350.999" stroke="#D2FF00" stroke-width="0.5" stroke-linecap="round" stroke-linejoin="round"/>
<path d="M556.792 350.999L607.368 264.659H689.433H771.515H853.597H935.662H1017.74H1099.81L1144.58 350.999" stroke="#D2FF00" stroke-width="0.5" stroke-linecap="round" stroke-linejoin="round"/>
<path d="M299.512 155.431L361.589 118.677H416.807L461.251 89.1755H511.031L543.056 64.947H588.384L611.403 44.711H653.007L669.393 27.5524H707.827L719.172 12.8024L729.027 0.00170898H762.387H795.763" stroke="#D2FF00" stroke-width="0.5" stroke-linecap="round" stroke-linejoin="round"/>
<path d="M361.589 118.677L411.472 89.1753H461.252L497.729 64.9467H543.057L569.817 44.7108H611.403L630.941 27.5522H669.393L683.457 12.8021H719.172H754.905L762.387 0.00146484" stroke="#D2FF00" stroke-width="0.5" stroke-linecap="round" stroke-linejoin="round"/>
<path d="M752.721 351.001L771.513 264.66L785.058 202.427L795.295 155.432L803.297 118.678L809.723 89.176L814.988 64.9473L819.405 44.7111L823.129 27.5524L826.35 12.8022L829.139 0.00146484" stroke="#D2FF00" stroke-width="0.5" stroke-linecap="round" stroke-linejoin="round"/>
<path d="M411.471 89.1753L452.417 64.9467H497.727L528.211 44.7108H569.815L592.505 27.5522H630.94L647.723 12.8021L662.29 0.00146484H695.649H729.026" stroke="#D2FF00" stroke-width="0.5" stroke-linecap="round" stroke-linejoin="round"/>
<path d="M452.416 64.9468L486.624 44.7108H528.211L554.07 27.5522H592.505L611.99 12.8021H647.723H683.455L695.649 0.00146484" stroke="#D2FF00" stroke-width="0.5" stroke-linecap="round" stroke-linejoin="round"/>
<path d="M1096.08 0.00170898H1129.44H1162.82L1183.59 12.8024L1207.51 27.5524" stroke="#D2FF00" stroke-width="0.5" stroke-linecap="round" stroke-linejoin="round"/>
<path d="M929.234 0.00170898H962.611L969.245 12.8025H1004.96L1015.32 27.5527H1053.75L1068.98 44.7114L1086.92 64.9475H1132.25L1158.18 89.1762L1189.77 118.678L1229.11 155.432L1279.42 202.428L1346.04 264.661L1438.46 351.001" stroke="#D2FF00" stroke-width="0.5" stroke-linecap="round" stroke-linejoin="round"/>
<path d="M1029.35 0.00170898H1062.71H1096.08L1112.14 12.8024L1130.64 27.5525H1169.07L1193.77 44.711H1235.38L1268.22 64.947" stroke="#D2FF00" stroke-width="0.5" stroke-linecap="round" stroke-linejoin="round"/>
<path d="M962.612 0.00170898H995.972H1029.35L1040.69 12.8024L1053.75 27.5524H1092.2L1110.58 44.711L1132.25 64.947H1177.58L1207.96 89.1755H1257.74L1300.21 118.677H1355.41L1415.03 155.431" stroke="#D2FF00" stroke-width="0.5" stroke-linecap="round" stroke-linejoin="round"/>
<path d="M486.624 44.7108L515.636 27.5522H554.07L576.275 12.8021L595.553 0.00146484H628.913H662.289" stroke="#D2FF00" stroke-width="0.5" stroke-linecap="round" stroke-linejoin="round"/>
<path d="M515.637 27.5524L540.544 12.8024H576.276H611.991L628.913 0.00170898" stroke="#D2FF00" stroke-width="0.5" stroke-linecap="round" stroke-linejoin="round"/>
<path d="M540.543 12.8021L562.176 0.00146484H595.553" stroke="#D2FF00" stroke-width="0.5" stroke-linecap="round" stroke-linejoin="round"/>
<path d="M1129.44 0.00170898L1147.85 12.8024H1183.59" stroke="#D2FF00" stroke-width="0.5" stroke-linecap="round" stroke-linejoin="round"/>
<path d="M1062.71 0.00170898L1076.41 12.8024H1112.14H1147.86L1169.07 27.5525H1207.51L1235.38 44.711" stroke="#D2FF00" stroke-width="0.5" stroke-linecap="round" stroke-linejoin="round"/>
<path d="M995.971 0.00170898L1004.96 12.8024H1040.69H1076.41L1092.2 27.5524H1130.64L1152.17 44.711H1193.77L1222.89 64.947H1268.22L1307.53 89.1755" stroke="#D2FF00" stroke-width="0.5" stroke-linecap="round" stroke-linejoin="round"/>
<path d="M895.875 0.00146484L897.798 12.8022L900.014 27.5524L902.595 44.7111L905.644 64.9473L909.281 89.176L913.715 118.678L919.24 155.432L926.307 202.427L935.66 264.66L948.651 351.001" stroke="#D2FF00" stroke-width="0.5" stroke-linecap="round" stroke-linejoin="round"/>
<path d="M862.499 0.00146484L862.066 12.8022L861.581 27.5524L860.992 44.7111L860.317 64.9473L859.503 89.176L858.498 118.678L857.268 155.432L855.692 202.427L853.596 264.66L850.687 351.001" stroke="#D2FF00" stroke-width="0.5" stroke-linecap="round" stroke-linejoin="round"/>
</svg>
