<svg width="50" height="50" viewBox="0 0 50 50" fill="none" xmlns="http://www.w3.org/2000/svg">
<path d="M45.5434 0.678711H4.43513C2.32762 0.678711 0.619141 2.38719 0.619141 4.4947V45.603C0.619141 47.7105 2.32762 49.4189 4.43513 49.4189H45.5434C47.6509 49.4189 49.3594 47.7105 49.3594 45.603V4.4947C49.3594 2.38719 47.6509 0.678711 45.5434 0.678711Z" fill="#252525"/>
<path d="M36.9751 30.6422H36.9718H36.9635C36.9635 30.6422 36.9501 30.6422 36.9484 30.6455C36.9518 30.6455 36.9601 30.6455 36.9668 30.6455C36.9534 30.6488 36.9384 30.6488 36.9301 30.6522C36.895 30.6605 36.8633 30.6722 36.83 30.6822C36.8166 30.6889 36.8066 30.6939 36.7949 30.7006C36.7782 30.7089 36.7632 30.7189 36.7482 30.7289C36.7399 30.7339 36.7349 30.7373 36.7315 30.7389C36.5964 30.834 36.4362 30.8457 36.3044 30.7256C36.1892 30.6188 36.1726 30.3819 36.3044 30.2784C36.4779 30.1433 36.6614 30.0532 36.88 30.0248C37.0686 29.9998 37.2655 30.0114 37.444 30.0799C37.6442 30.1566 37.8144 30.2734 37.9479 30.4403C38.018 30.5254 38.0814 30.6138 38.1465 30.7006C38.1465 30.7006 38.1476 30.7017 38.1498 30.7039C38.1631 30.7206 38.1748 30.7373 38.1882 30.7523C38.2199 30.789 38.2532 30.824 38.2899 30.8574C38.4218 30.9742 38.4017 31.1828 38.2899 31.3029C38.1698 31.4347 37.9679 31.413 37.8445 31.3029C37.7126 31.1861 37.6092 31.0343 37.5057 30.8908L37.5024 30.8874C37.489 30.8707 37.4757 30.8557 37.464 30.8407C37.439 30.8124 37.414 30.7857 37.3873 30.7606C37.3873 30.7606 37.3739 30.7489 37.3639 30.7406C37.3556 30.7356 37.3506 30.7306 37.3456 30.7289C37.3189 30.7106 37.2905 30.6972 37.2621 30.6822C37.2454 30.6772 37.2304 30.6705 37.2154 30.6655C37.1854 30.6572 37.1537 30.6505 37.1236 30.6438L37.0753 30.6405C37.0419 30.6405 37.0102 30.6405 36.9785 30.6438L36.9751 30.6422Z" fill="white"/>
<path d="M31.901 37.119C31.901 37.119 31.9043 37.1156 31.9043 37.1123C31.9043 37.1156 31.901 37.1207 31.896 37.1273C31.896 37.1273 31.8993 37.1207 31.8993 37.119H31.901Z" fill="white"/>
<path d="M27.8365 24.34C27.8598 24.3533 27.8832 24.3683 27.9065 24.38C27.9099 24.3834 27.9099 24.3834 27.9132 24.385C27.9165 24.385 27.9199 24.385 27.9265 24.3884C27.9549 24.395 27.9833 24.4051 28.0116 24.4117C28.0217 24.4117 28.0283 24.4151 28.0333 24.4167C28.0367 24.4167 28.0383 24.4167 28.0434 24.4167C28.07 24.4167 28.0951 24.4201 28.1218 24.4201C28.1318 24.4201 28.1818 24.4134 28.1935 24.4134C28.2386 24.4017 28.2836 24.3884 28.3303 24.3767C28.3303 24.3767 28.3303 24.3767 28.3337 24.3767L28.3637 24.3617C28.3887 24.3483 28.4121 24.3366 28.4355 24.3233C28.4438 24.3183 28.4955 24.2799 28.5005 24.2799C28.5156 24.2666 28.5289 24.2549 28.5439 24.2415C28.5906 24.1982 28.634 24.1514 28.6757 24.103C28.6791 24.098 28.6824 24.0947 28.6841 24.093C28.6857 24.0914 28.6891 24.0864 28.6924 24.0797C28.7091 24.053 28.7258 24.028 28.7425 24.0029C28.4088 23.8311 28.0684 23.6759 27.7213 23.5357C27.7213 23.5357 27.718 23.5357 27.718 23.5391C27.718 23.5424 27.6813 23.5941 27.6746 23.6042C27.6713 23.6075 27.6579 23.6392 27.6512 23.6492C27.6429 23.6726 27.6346 23.6943 27.6296 23.7193C27.6262 23.7276 27.6179 23.7827 27.6162 23.7877C27.6129 23.8127 27.6129 23.8394 27.6129 23.8644C27.6129 23.8745 27.6229 23.9529 27.6212 23.9529C27.6262 23.9796 27.6312 24.0046 27.6396 24.0313C27.6429 24.0396 27.6663 24.1097 27.6663 24.1164C27.6779 24.1414 27.6896 24.1648 27.703 24.1898C27.713 24.2082 27.723 24.2249 27.7347 24.2432C27.743 24.2549 27.748 24.2632 27.7497 24.2666C27.753 24.2699 27.7547 24.2716 27.758 24.2749C27.7714 24.2916 27.7864 24.3049 27.8014 24.32C27.8097 24.3283 27.8331 24.3433 27.8398 24.3467C27.8398 24.3467 27.8365 24.3467 27.8348 24.3467L27.8365 24.34ZM31.8477 24.9073C32.2548 24.9023 32.2548 25.533 31.8477 25.538C31.297 25.5447 30.8298 25.2894 30.386 24.9974C29.8954 25.3111 29.3849 25.6047 28.8276 25.7816C28.3403 25.9351 27.8214 25.9802 27.3209 25.8667C26.857 25.7649 26.4349 25.5247 26.0711 25.2243C25.2969 24.5869 24.8714 23.6409 24.5627 22.7098C24.0839 22.6497 23.5983 22.6197 23.1144 22.618C22.7073 22.6147 22.7073 21.984 23.1144 21.9873C23.8169 21.9907 24.5193 22.0524 25.2135 22.1659C26.4382 22.3694 27.6295 22.7532 28.7475 23.2921C29.2981 23.5574 29.8304 23.8611 30.3359 24.2048C30.7881 24.5135 31.2703 24.914 31.8477 24.9073ZM25.8408 23.3539C25.8408 23.3539 25.8442 23.3472 25.8442 23.3439L25.8325 23.3405C25.8325 23.3405 25.8375 23.3489 25.8408 23.3539Z" fill="white"/>
<path d="M23.1129 22.7248C23.5985 22.7264 24.0823 22.7581 24.5629 22.8182C24.8716 23.7492 25.2987 24.6953 26.0729 25.3327C26.4367 25.633 26.8588 25.8716 27.3227 25.9751C27.8232 26.0869 28.3422 26.0435 28.8294 25.8883C29.3867 25.7115 29.8973 25.4161 30.3878 25.1041C30.8316 25.3961 31.2988 25.6514 31.8495 25.6447C32.2549 25.6397 32.2566 25.009 31.8495 25.014C31.2721 25.0207 30.7916 24.6186 30.3378 24.3116C29.8322 23.9695 29.2999 23.6641 28.7493 23.3988C27.6314 22.8599 26.44 22.4761 25.2153 22.2742C24.5212 22.1591 23.8187 22.0974 23.1162 22.0957C22.7108 22.0957 22.7091 22.7248 23.1162 22.7264L23.1129 22.7248ZM28.7443 24.103C28.7276 24.1297 28.7109 24.1547 28.6942 24.1797C28.6909 24.1864 28.6876 24.1897 28.6859 24.1931C28.6826 24.1964 28.6809 24.1981 28.6759 24.2031C28.6342 24.2515 28.5925 24.2982 28.5441 24.3416C28.529 24.3549 28.514 24.3666 28.499 24.38C28.4957 24.38 28.4423 24.4183 28.4339 24.4233C28.4106 24.4384 28.3872 24.4517 28.3622 24.4634C28.3522 24.4684 28.3422 24.4734 28.3305 24.4784C28.3305 24.4784 28.3305 24.4784 28.3271 24.4784C28.2804 24.4901 28.2354 24.5034 28.1903 24.5151C28.1787 24.5151 28.1303 24.5218 28.1186 24.5218C28.0919 24.5218 28.0669 24.5201 28.0402 24.5201C28.0352 24.5201 28.0335 24.5201 28.0301 24.5201C28.0251 24.5201 28.0185 24.5168 28.0084 24.5151C27.9784 24.5084 27.9517 24.4984 27.9217 24.4918C27.9167 24.4918 27.9133 24.4901 27.91 24.4884C27.9083 24.4884 27.9067 24.4867 27.9033 24.4851C27.8733 24.4684 27.8449 24.45 27.8149 24.4334C27.87 24.4634 27.8149 24.4334 27.7999 24.4183C27.7849 24.405 27.7715 24.39 27.7565 24.3733C27.7348 24.3466 27.7298 24.3416 27.7432 24.3566C27.7565 24.3716 27.7515 24.3649 27.7332 24.3382C27.7215 24.3216 27.7114 24.3032 27.7014 24.2849C27.6881 24.2615 27.6764 24.2365 27.6647 24.2114C27.6647 24.2064 27.6397 24.1364 27.638 24.128C27.6314 24.1013 27.6247 24.0746 27.6197 24.0479C27.623 24.0613 27.613 23.9728 27.6113 23.9612C27.6113 23.9361 27.6113 23.9094 27.6147 23.8844C27.6163 23.8794 27.6247 23.826 27.6264 23.816C27.633 23.7926 27.6414 23.7693 27.6497 23.7459C27.6547 23.7359 27.6697 23.7059 27.6714 23.7009C27.6764 23.6909 27.7181 23.6358 27.7148 23.6375L27.7181 23.6341C28.0652 23.7743 28.4056 23.9295 28.7393 24.1013L28.7443 24.103ZM25.846 23.4489C25.846 23.4489 25.8427 23.4556 25.841 23.4589C25.8393 23.4539 25.836 23.4506 25.8343 23.4456C25.8377 23.4456 25.8427 23.4472 25.846 23.4489Z" fill="white"/>
<mask id="mask0_8375_32609" style="mask-type:luminance" maskUnits="userSpaceOnUse" x="22" y="22" width="11" height="5">
<path d="M23.1127 22.7257C23.5982 22.7274 24.0821 22.7591 24.5626 22.8192C24.8713 23.7502 25.2985 24.6963 26.0727 25.3337C26.4364 25.634 26.8586 25.8726 27.3224 25.9761C27.823 26.0879 28.3419 26.0445 28.8291 25.8893C29.3864 25.7125 29.897 25.4171 30.3876 25.1051C30.8314 25.3971 31.2986 25.6524 31.8492 25.6457C32.2547 25.6407 32.2564 25.01 31.8492 25.015C31.2719 25.0217 30.7914 24.6195 30.3375 24.3125C29.8319 23.9705 29.2997 23.6651 28.7491 23.3998C27.6311 22.8609 26.4398 22.4771 25.215 22.2752C24.5209 22.1601 23.8185 22.0983 23.116 22.0967C22.7105 22.0967 22.7089 22.7257 23.116 22.7274L23.1127 22.7257ZM28.744 24.104C28.7274 24.1307 28.7107 24.1557 28.694 24.1807C28.6906 24.1874 28.6873 24.1907 28.6856 24.1941C28.6823 24.1974 28.6806 24.1991 28.6756 24.2041C28.6339 24.2525 28.5922 24.2992 28.5438 24.3426C28.5288 24.3559 28.5138 24.3676 28.4988 24.3809C28.4954 24.3809 28.442 24.4193 28.4337 24.4243C28.4103 24.4393 28.387 24.4527 28.3619 24.4644C28.3519 24.4694 28.3419 24.4744 28.3302 24.4794C28.3302 24.4794 28.3302 24.4794 28.3269 24.4794C28.2802 24.4911 28.2351 24.5044 28.1901 24.5161C28.1784 24.5161 28.13 24.5228 28.1183 24.5228C28.0916 24.5228 28.0666 24.5211 28.0399 24.5211C28.0349 24.5211 28.0332 24.5211 28.0299 24.5211C28.0249 24.5211 28.0182 24.5178 28.0082 24.5161C27.9782 24.5094 27.9515 24.4994 27.9215 24.4927C27.9164 24.4927 27.9131 24.4911 27.9098 24.4894C27.9081 24.4894 27.9064 24.4877 27.9031 24.4861C27.873 24.4694 27.8447 24.451 27.8147 24.4343C27.8697 24.4644 27.8146 24.4343 27.7996 24.4193C27.7846 24.406 27.7713 24.391 27.7562 24.3743C27.7346 24.3476 27.7296 24.3426 27.7429 24.3576C27.7563 24.3726 27.7513 24.3659 27.7329 24.3392C27.7212 24.3225 27.7112 24.3042 27.7012 24.2858C27.6878 24.2625 27.6762 24.2374 27.6645 24.2124C27.6645 24.2074 27.6395 24.1373 27.6378 24.129C27.6311 24.1023 27.6244 24.0756 27.6194 24.0489C27.6228 24.0622 27.6128 23.9738 27.6111 23.9621C27.6111 23.9371 27.6111 23.9104 27.6144 23.8854C27.6161 23.8804 27.6244 23.827 27.6261 23.817C27.6328 23.7936 27.6411 23.7702 27.6495 23.7469C27.6545 23.7369 27.6695 23.7068 27.6712 23.7018C27.6762 23.6918 27.7179 23.6368 27.7145 23.6384L27.7179 23.6351C28.0649 23.7753 28.4053 23.9304 28.739 24.1023L28.744 24.104ZM25.8458 23.4499C25.8458 23.4499 25.8424 23.4566 25.8407 23.4599C25.8391 23.4549 25.8358 23.4516 25.8341 23.4465C25.8374 23.4465 25.8424 23.4482 25.8458 23.4499Z" fill="white"/>
</mask>
<g mask="url(#mask0_8375_32609)">
<path d="M25.2336 22.9824C25.2336 22.9824 27.0107 23.3328 27.7181 23.6398C28.4256 23.9468 28.7426 24.1037 28.7426 24.1037L29.9507 24.7544C29.9507 24.7544 28.6642 26.1811 27.0123 25.3785C25.3605 24.5759 25.2336 22.9841 25.2336 22.9841V22.9824Z" fill="#252525"/>
</g>
<path d="M27.7231 23.5732L28.7426 24.1022C28.7426 24.1022 28.4573 24.7012 27.905 24.4859C27.3527 24.2707 27.7231 23.5732 27.7231 23.5732Z" fill="#F9F8F4"/>
<path d="M46.1089 0H3.89109C1.74532 0 0 1.74531 0 3.89108V46.1089C0 48.2547 1.74699 50 3.89109 50H46.1089C48.2547 50 50 48.2547 50 46.1089V3.89108C50 1.74531 48.2547 0 46.1089 0ZM23.4616 49.371C23.4616 49.371 23.4649 49.3609 23.4666 49.3559C23.4666 49.3609 23.4633 49.3659 23.4616 49.371ZM31.202 37.2756C31.202 37.2756 31.1987 37.2889 31.1987 37.2973C30.8933 37.2038 30.5763 37.1388 30.2643 37.097C29.7387 37.0253 29.2114 36.9986 28.6842 36.9502C28.1903 36.9035 27.7031 36.8184 27.2175 36.7199C26.213 36.5214 25.2052 36.2778 24.1757 36.2578C23.2096 36.2377 22.2385 36.448 21.4109 36.9619C21.3976 36.9702 21.3859 36.9786 21.3742 36.9869C21.8247 37.4591 22.1735 38.0264 22.4288 38.6254C22.7758 39.438 22.961 40.3007 23.0962 41.17C23.2347 42.0693 23.3681 42.977 23.4199 43.8864C23.4716 44.7941 23.3848 45.6918 23.1863 46.5795C23.1563 46.7163 23.1212 46.8531 23.0878 46.9882C23.0778 47.1201 23.0678 47.2535 23.0578 47.3854C23.0278 47.7458 22.9961 48.1078 22.956 48.4699C22.9477 48.5467 22.9393 48.6234 22.9293 48.7002C22.926 48.7336 22.921 48.7669 22.9176 48.8003C22.9176 48.8087 22.9126 48.8387 22.9093 48.8604C22.8943 48.9688 22.8793 49.0773 22.8592 49.1841C22.8476 49.2491 22.8509 49.3125 22.8709 49.3693H22.2035C22.1368 49.3893 22.065 49.3893 21.9983 49.3693H7.49016C7.46012 49.1941 7.43009 49.0189 7.40339 48.8437C7.39505 48.7953 7.39004 48.7452 7.38337 48.6969C7.38337 48.6885 7.38003 48.6785 7.38003 48.6718C7.37669 48.6468 7.37336 48.6234 7.3717 48.5967C7.35835 48.4833 7.345 48.3681 7.33499 48.253C7.27826 47.634 7.2649 47.0133 7.2599 46.3926C8.89341 46.6078 10.552 46.6212 12.1955 46.6045C14.5682 46.5811 16.9425 46.4727 19.3102 46.2791C20.4081 46.189 21.5244 46.0772 22.6223 46.2074C22.624 46.1957 22.6273 46.1857 22.629 46.174C22.9727 44.4737 22.7258 42.7318 22.4404 41.0382C22.2068 39.6499 21.783 38.21 20.7285 37.2322C20.3781 37.1538 20.0294 37.0603 19.689 36.9419C18.6812 36.5881 17.7301 36.0725 16.764 35.617C14.7851 34.6843 12.7845 33.7966 10.7655 32.954C10.2032 32.7187 9.63925 32.4801 9.07028 32.2582C8.84168 32.1681 8.61309 32.0914 8.37949 32.0346C8.63478 30.5513 8.94849 29.0713 9.40067 27.6346C9.77776 26.4366 10.2533 25.257 10.9558 24.2108C11.2594 23.7603 11.6082 23.3448 12.0236 22.971C12.9013 23.3998 13.7706 23.8821 14.4948 24.5261C14.9469 24.9266 15.3591 25.4138 15.5376 26.0011C15.7045 26.5534 15.6327 27.1458 15.3507 27.6497C15.037 28.2103 14.5048 28.5991 13.8674 28.6975C13.2383 28.7926 12.5642 28.5991 12.0954 28.1686C12.047 28.1252 11.9953 28.1002 11.9435 28.0902C11.7116 27.9483 11.3445 28.222 11.508 28.524C12.4391 30.2409 13.7973 31.7043 15.3991 32.8122C16.9893 33.9134 18.838 34.6659 20.7535 34.9529C21.8097 35.1115 22.8576 35.1165 23.9188 35.023C25.1468 34.9162 26.3599 34.7894 27.5913 34.9429C28.7309 35.0848 29.8488 35.4285 30.8783 35.9341C31.142 36.0642 31.4023 36.201 31.6625 36.3412C31.429 36.6031 31.2621 36.9252 31.202 37.2722V37.2756ZM23.1679 37.5526C23.1479 37.5108 23.1212 37.4808 23.0928 37.4574C23.1212 37.4825 23.1479 37.5125 23.1679 37.5526ZM28.499 34.4607C27.326 34.2221 26.1496 34.1988 24.9616 34.3005C23.8587 34.3956 22.7641 34.5158 21.6579 34.429C19.7924 34.2822 17.9704 33.6615 16.3736 32.6937C14.9086 31.806 13.6238 30.6147 12.6593 29.1981C13.567 29.4951 14.6116 29.3316 15.3474 28.6642C15.8313 28.2253 16.1466 27.6063 16.2351 26.9589C16.3285 26.2764 16.1416 25.5973 15.7695 25.0234C15.037 23.8954 13.7839 23.1646 12.6143 22.5639C11.478 21.9799 10.2883 21.501 9.14871 20.922C8.02911 20.3531 6.93453 19.669 6.12028 18.7029C7.48683 18.6929 8.83167 19.0216 10.1982 19.0633C11.5214 19.105 12.8846 18.8547 13.9074 17.9587C14.3496 17.5699 14.695 17.0827 14.9302 16.5454C15.0771 16.8274 15.2122 17.1177 15.3274 17.4131C15.3908 17.5716 15.5393 17.6817 15.7162 17.6333C15.7495 17.625 15.7829 17.6066 15.8113 17.5849C16.3519 17.6784 16.9175 17.5816 17.4348 17.4131C17.9353 17.2495 18.4159 17.0109 18.8447 16.7039C19.7224 16.0799 20.4065 15.2223 20.8186 14.2278C21.0489 13.6755 21.1773 13.0865 21.2057 12.4892C21.2141 12.3357 21.1256 12.2389 21.0122 12.2022C20.9955 12.1838 20.9754 12.1655 20.9521 12.1488C20.837 12.0703 20.7185 11.9969 20.6017 11.9202C22.7508 12.4458 24.9082 12.948 26.9639 13.7756C27.613 14.0376 28.252 14.3246 28.9061 14.5749C29.5668 14.8285 30.2376 15.0587 30.9167 15.2556C32.2866 15.6511 33.7115 15.9097 35.1415 15.9097C35.5369 15.9097 35.9374 15.898 36.3295 15.8396C36.6615 15.7896 36.9769 15.6761 37.2823 15.5376C37.666 15.3641 38.0281 15.1522 38.3935 14.9453C38.7789 15.264 39.126 15.5893 39.443 15.9814C39.8151 16.4386 40.1088 16.9676 40.3174 17.5199C40.7579 18.6878 40.873 19.9459 40.878 21.1857C40.8813 21.6228 40.868 22.06 40.8496 22.4972C40.7028 22.3036 40.5526 22.1084 40.4058 21.9148C40.3023 21.778 40.1338 21.7079 39.9736 21.8014C39.8402 21.8798 39.7567 22.0967 39.8602 22.2335C40.2807 22.7842 40.7011 23.3331 41.1199 23.8854C41.5171 24.4043 41.8941 24.9483 42.323 25.4405C42.7301 25.9044 43.2257 26.173 43.803 26.3649C44.2768 26.5234 44.7991 26.6452 45.1729 26.9989C45.4865 27.2959 45.6851 27.6997 45.7485 28.1252C45.8186 28.6074 45.6834 29.0279 45.4398 29.4384C45.2797 29.7053 45.1295 29.979 45.0677 30.2877C45.0043 30.5963 45.0043 30.91 45.0427 31.222C45.1178 31.8294 45.308 32.4151 45.3764 33.0241C45.5283 34.3589 45.2947 35.7272 44.6856 36.9268C41.205 36.9235 37.7578 35.9925 34.6843 34.3673C33.9068 33.9552 33.1509 33.4996 32.4251 33.0057C31.7193 32.5252 31.0352 32.0113 30.3227 31.5407C29.6035 31.0635 28.8544 30.6347 28.0435 30.331C27.2592 30.0374 26.4383 29.9139 25.604 29.8739C23.9221 29.7888 22.0149 30.0474 20.565 28.9995C20.4265 28.8994 20.2129 28.9762 20.1328 29.113C20.0394 29.2715 20.1078 29.445 20.2463 29.5451C21.5895 30.5163 23.3198 30.4528 24.8999 30.4829C25.6891 30.4979 26.485 30.5329 27.2526 30.7398C28.0752 30.9618 28.8343 31.3522 29.5552 31.7977C30.281 32.2499 30.9684 32.7571 31.6676 33.2493C32.3984 33.7616 33.1492 34.2438 33.9301 34.6776C35.4919 35.5453 37.1554 36.2427 38.8757 36.7333C39.3246 36.8618 39.7784 36.9736 40.2339 37.072C39.5615 37.339 38.824 37.4041 38.0932 37.3857C37.5776 37.374 37.0653 37.3256 36.5531 37.2689C35.9658 37.2038 35.3784 37.1404 34.8011 37.0103C33.9702 36.8217 33.216 36.458 32.4735 36.0642C32.4151 35.9975 32.3333 35.9524 32.2482 35.9441C32.0697 35.849 31.8928 35.7522 31.716 35.6571C30.6948 35.1165 29.6302 34.6893 28.4956 34.4591L28.499 34.4607ZM14.2979 12.1354C14.4647 12.2238 14.6216 12.1621 14.73 12.022C15.0537 11.5981 15.2723 11.0876 15.3624 10.5603C16.2201 10.7088 17.0643 10.9407 17.8769 11.2511C17.8703 11.2778 17.8669 11.3045 17.8702 11.3328C17.8919 11.5147 17.8953 11.6983 17.8769 11.8801C17.8769 11.8835 17.8736 11.9085 17.8719 11.9202C17.8702 11.9352 17.8636 11.9736 17.8619 11.9769C17.8536 12.0203 17.8452 12.0637 17.8352 12.1071C17.8135 12.1988 17.7885 12.2889 17.7568 12.379C17.7218 12.4775 17.7184 12.4875 17.6734 12.5793C17.6317 12.6644 17.5866 12.7461 17.5365 12.8262C17.4364 12.983 17.353 13.0832 17.2078 13.2233C17.0844 13.3418 17.0894 13.5504 17.2078 13.6688C17.3313 13.7923 17.5315 13.7873 17.6533 13.6688C18.2273 13.1182 18.5544 12.3106 18.516 11.5147C19.2301 11.8317 19.9159 12.2105 20.565 12.646C20.4148 14.423 19.1684 16.0816 17.5032 16.7206C16.9742 16.9242 16.3719 17.0744 15.8096 16.9375C14.8568 14.7417 13.1783 12.9847 11.3429 11.4813C10.9891 11.1927 10.6287 10.9124 10.265 10.6354C11.7316 10.3284 13.2517 10.2767 14.7401 10.4652C14.7 10.6671 14.6416 10.8623 14.5665 11.0559C14.5615 11.0675 14.5565 11.0776 14.5515 11.0892C14.5382 11.1209 14.5231 11.151 14.5081 11.181C14.4781 11.2427 14.4464 11.3028 14.4113 11.3612C14.3429 11.4797 14.2678 11.5915 14.1844 11.6999C14.0843 11.8317 14.1594 12.0587 14.2979 12.1321V12.1354ZM31.5374 5.11913C31.5374 5.11913 31.5407 5.1158 31.5407 5.11413C31.5407 5.1108 31.5441 5.11079 31.5441 5.10912C31.5474 5.10579 31.5491 5.10412 31.5524 5.10078C31.5441 5.10912 31.5775 5.07909 31.5908 5.07242C31.5942 5.06908 31.5941 5.06908 31.5991 5.06741C31.6208 5.05907 31.6442 5.05239 31.6676 5.04739C31.6709 5.04739 31.6843 5.04405 31.6959 5.04072C31.7126 5.04072 31.751 5.03571 31.751 5.03571C31.7927 5.03571 31.8344 5.03571 31.8761 5.03905C31.8811 5.03905 31.8845 5.03905 31.8878 5.03905H31.8911C31.9195 5.04405 31.9512 5.05072 31.9796 5.0574C32.018 5.06741 32.0597 5.07909 32.0964 5.09077C32.1197 5.09911 32.1431 5.10579 32.1665 5.11413C32.1698 5.11413 32.1848 5.12248 32.1965 5.12581C32.2098 5.13416 32.2382 5.14584 32.2382 5.14584C32.2566 5.15418 32.2732 5.16419 32.2899 5.17253C32.3316 5.19589 32.3734 5.21925 32.4117 5.24595C32.4251 5.25429 32.4685 5.28766 32.4751 5.291C32.5035 5.31436 32.5302 5.33605 32.5552 5.36108C32.5853 5.38944 32.6153 5.41781 32.6403 5.44784C32.6537 5.46119 32.6637 5.47621 32.6754 5.48956C32.6787 5.4929 32.6804 5.49456 32.6837 5.4979C32.687 5.50124 32.687 5.50624 32.6921 5.51125C32.7321 5.57299 32.7671 5.63472 32.8005 5.6998C32.8072 5.71982 32.8139 5.73984 32.8205 5.75986C32.8306 5.79157 32.8389 5.82494 32.8439 5.85664C32.8439 5.86165 32.8522 5.90503 32.8522 5.92338C32.8522 5.94006 32.8522 5.95675 32.8522 5.97343C32.8489 5.99012 32.8439 6.00681 32.8389 6.0235C32.8389 6.0285 32.8339 6.03684 32.8305 6.04518C32.8272 6.05186 32.8222 6.05854 32.8189 6.06354C32.8155 6.06688 32.8122 6.07188 32.8055 6.07688C32.8005 6.08189 32.7922 6.08857 32.7855 6.09358C32.7755 6.09858 32.7671 6.10358 32.7571 6.11026C32.7538 6.11026 32.7505 6.11026 32.7471 6.1136C32.7388 6.1136 32.7288 6.11693 32.7188 6.12027C32.7188 6.12027 32.7104 6.12528 32.7004 6.12528C32.697 6.12528 32.6954 6.12528 32.6921 6.12528C32.6687 6.12528 32.642 6.12861 32.6186 6.12861C32.5986 6.12861 32.5803 6.12528 32.5586 6.12528C32.5502 6.12528 32.5352 6.1236 32.5252 6.12027C32.4818 6.11193 32.4368 6.10024 32.3934 6.08689C32.38 6.08356 32.3266 6.06354 32.3183 6.0602C32.2382 6.02516 32.1581 5.98178 32.083 5.93339C32.0663 5.92338 32.0513 5.9117 32.0346 5.90169C32.028 5.89668 31.9929 5.87166 31.9829 5.86331C31.9746 5.85497 31.9646 5.84663 31.9612 5.84496C31.9395 5.82661 31.9178 5.80825 31.8978 5.78823C31.8645 5.75486 31.8311 5.72316 31.7994 5.68645C31.7877 5.6731 31.776 5.65808 31.7643 5.64306C31.7643 5.64306 31.7632 5.64195 31.761 5.63972C31.761 5.63972 31.751 5.62637 31.746 5.6197C31.6943 5.54628 31.6525 5.46953 31.6142 5.38944C31.6142 5.38944 31.6142 5.38833 31.6142 5.38611C31.6075 5.36275 31.5992 5.33938 31.5908 5.31602C31.5925 5.25095 31.5758 5.18421 31.5391 5.12247C31.5391 5.11914 31.5391 5.11747 31.5357 5.1158L31.5374 5.11913ZM33.548 49.371C33.6365 48.9705 33.6899 48.5617 33.7349 48.1529C33.8067 47.5038 33.8484 46.8514 33.8751 46.199C33.9301 44.8074 33.9251 43.4075 33.83 42.0176C33.805 41.6622 33.7733 41.3051 33.7282 40.9497C33.7282 40.9514 33.7282 40.9531 33.7316 40.9564C33.78 41.0682 33.8434 41.2284 33.9001 41.3736C33.9618 41.5371 34.0219 41.7023 34.0769 41.8674C34.1988 42.2245 34.3089 42.5849 34.4107 42.947C34.8195 44.4087 35.1098 45.9054 35.3284 47.4071C35.4151 48.0111 35.4969 48.6668 35.5436 49.3142C35.5436 49.3326 35.5486 49.3526 35.552 49.3693H33.5514L33.548 49.371ZM49.3693 46.1106C49.3693 47.9093 47.9076 49.371 46.1089 49.371H36.1677C36.171 49.3526 36.171 49.3342 36.171 49.3159C36.0759 47.9827 35.8657 46.6495 35.6104 45.3381C35.32 43.833 34.9663 42.3113 34.3806 40.8897C34.1237 40.2656 33.8267 39.6416 33.3728 39.136C33.3361 39.096 33.2961 39.0693 33.2544 39.0543C33.1142 38.7406 32.9357 38.4452 32.7037 38.1916C32.4418 37.9046 32.1231 37.6877 31.7794 37.5225C31.7927 37.4992 31.8044 37.4741 31.8094 37.4441C31.8277 37.3373 31.8561 37.2339 31.8945 37.1337C31.8945 37.1354 31.8911 37.1388 31.8911 37.1421C31.8911 37.1388 31.8945 37.1338 31.8962 37.1304C31.8962 37.1304 31.8995 37.1237 31.8995 37.1221C31.8995 37.1187 31.9028 37.1187 31.9028 37.1154V37.1121C31.9028 37.1121 31.9062 37.1071 31.9062 37.1054V37.102C31.9162 37.082 31.9245 37.0637 31.9345 37.0453C31.9612 36.9969 31.9896 36.9485 32.0196 36.9018C32.033 36.8801 32.048 36.8601 32.063 36.8401C32.0663 36.8351 32.0713 36.8317 32.073 36.8267V36.8234C32.108 36.7834 32.1431 36.7433 32.1815 36.7066C32.1998 36.6882 32.2199 36.6732 32.2365 36.6565C32.7938 36.9502 33.3561 37.2322 33.9535 37.4341C34.5475 37.6327 35.1665 37.7361 35.7855 37.8145C36.3378 37.8863 36.8935 37.9463 37.4491 37.988C38.497 38.0648 39.5899 38.0414 40.5727 37.6226C40.8029 37.5242 41.0198 37.4074 41.2234 37.2656C42.4114 37.4658 43.6128 37.5692 44.8175 37.5626C44.9509 37.5626 45.0394 37.4925 45.0844 37.4007C45.1395 37.3774 45.1895 37.3323 45.2246 37.2622C45.7936 36.1443 46.0856 34.8895 46.0505 33.6331C46.0322 32.984 45.9037 32.3617 45.7685 31.7293C45.6467 31.162 45.5483 30.5563 45.8336 30.0224C45.9771 29.7537 46.149 29.5051 46.2557 29.2181C46.3458 28.9812 46.3876 28.7242 46.3959 28.4706C46.4109 27.9717 46.2691 27.4561 46.0038 27.034C45.7068 26.5601 45.2813 26.2464 44.7707 26.0378C44.2552 25.8276 43.6862 25.7358 43.2173 25.4188C42.952 25.2403 42.7434 24.9816 42.5482 24.7314C42.3146 24.431 42.086 24.1273 41.8558 23.8237C41.7189 23.6435 41.5805 23.4633 41.4436 23.2831C41.5855 20.7752 41.6706 17.917 40.0904 15.8029C39.8919 15.5376 39.68 15.2773 39.4497 15.0387C39.3112 14.8969 39.1594 14.7667 39.0059 14.6399C39.5832 14.3429 40.1572 14.0209 40.6194 13.5604C41.1249 13.0565 41.482 12.3573 41.3519 11.6265C41.2217 10.8957 40.6244 10.3467 40.1271 9.84449C39.5348 9.25048 38.9441 8.65481 38.3518 8.05913C37.1638 6.86444 35.9824 5.66142 34.7878 4.4734C34.2488 3.9378 33.6882 3.42722 33.0608 2.99673C32.5419 2.643 31.9862 2.34265 31.4106 2.09571C28.9178 1.02283 26.0946 0.822602 23.4249 1.17133C22.0984 1.34486 20.7836 1.63685 19.5455 2.15577C18.4025 2.63465 17.2963 3.30708 16.5604 4.32657C16.17 4.86718 15.9364 5.49623 15.8647 6.15865C15.7796 6.93286 15.9314 7.72542 16.175 8.45959C16.3819 9.0853 16.6589 9.76273 17.0677 10.3217C15.4475 9.84282 13.7422 9.64593 12.0587 9.75939C11.2277 9.81612 10.4035 9.9446 9.59588 10.1482C9.46239 10.0998 9.28886 10.1732 9.22045 10.2917C9.15705 10.4001 9.1704 10.5119 9.22713 10.6054C9.26217 10.7005 9.33893 10.7806 9.44238 10.8039C11.2978 12.1838 13.1382 13.7005 14.4097 15.6561C14.4647 15.7378 14.5131 15.8213 14.5648 15.9064C14.5148 15.9464 14.4764 16.0015 14.4547 16.0649C14.0743 17.1544 13.1649 17.947 12.0653 18.2524C10.8023 18.6044 9.46906 18.4042 8.19428 18.2407C7.37836 18.1356 6.56077 18.0421 5.73817 18.0905C5.57298 18.1005 5.47621 18.2123 5.44617 18.3375C5.32771 18.4259 5.26263 18.6211 5.35774 18.7496C6.83942 20.7435 9.19041 21.6412 11.3645 22.659C11.3829 22.6674 11.4029 22.6774 11.4196 22.6857C10.6738 23.4065 10.1065 24.3042 9.66262 25.2369C9.03691 26.5501 8.61476 27.955 8.28105 29.37C8.08249 30.2092 7.91732 31.0569 7.77048 31.9078C7.75046 31.9028 7.73044 31.8995 7.71042 31.8962C6.4857 31.7493 5.25931 32.5719 4.87387 33.7299C4.64361 34.4223 4.70367 35.1649 4.78209 35.8757C4.86385 36.6332 4.92892 37.3907 4.9189 38.1532C4.9189 38.255 4.91391 38.3551 4.91057 38.4569C6.68592 39.5348 8.66482 40.249 10.7255 40.551C10.8957 40.576 10.9858 40.7912 10.9457 40.9397C10.8973 41.1183 10.7255 41.185 10.557 41.16C10.0314 41.0832 9.50911 40.9798 8.99353 40.8496C7.5519 40.4859 6.15866 39.9169 4.8722 39.1694C4.83716 39.6916 4.79043 40.2122 4.7604 40.7328C4.70534 41.7039 4.66196 42.6767 4.6653 43.6495C4.6653 44.095 4.67197 44.5421 4.72036 44.986C4.74205 45.1712 4.75707 45.3714 4.82715 45.5483C4.94561 45.8503 5.19088 46.0739 5.5029 46.0772C5.87666 46.1673 6.25208 46.2424 6.62918 46.3058C6.63752 47.342 6.69926 48.3581 6.85944 49.3776H3.89443C2.09572 49.3776 0.63406 47.916 0.63406 46.1173V3.89942C0.63406 2.10071 2.09572 0.63906 3.89443 0.63906H46.1123C47.911 0.63906 49.3726 2.10071 49.3726 3.89942V46.1173L49.3693 46.1106Z" fill="#F9F8F4"/>
</svg>
