<svg width="200" height="201" viewBox="0 0 200 201" fill="none" xmlns="http://www.w3.org/2000/svg">
<rect x="1" y="1" width="198" height="198" rx="9" fill="#252525" stroke="#F9F8F4" stroke-width="2" stroke-linejoin="round"/>
<path d="M30 199.938C45.6101 186.091 57.9999 171.498 63.3728 155.26C66.466 145.922 65.1863 135.676 59.983 127.345C54.2118 118.091 46.5169 108.388 40.7542 98.4387C30.2712 80.3455 35.6271 57.0913 53.1525 45.8456C80.0761 28.5744 116.618 30.2948 124.457 62.9557C125.339 66.6167 127.669 69.7523 130.847 71.7184C141.72 78.4387 145.483 87.1591 141.991 97.9218C141.567 99.2353 141.008 100.506 140.364 101.727C128.839 123.617 105.585 121.345 81.1609 116.659C104.813 142.769 88.932 171.337 72.6355 199.938" stroke="#F9F8F4" stroke-width="2" stroke-miterlimit="10"/>
<path d="M109.593 119.71C126.22 151.532 122.059 177.956 100.788 199.939" stroke="#F9F8F4" stroke-width="2" stroke-miterlimit="10"/>
<path d="M94.3218 103.311C105.949 108.379 115.593 107.913 123.245 101.879" stroke="#F9F8F4" stroke-width="2" stroke-miterlimit="10"/>
<path d="M77.7625 78.6086C80.1167 78.6086 82.0252 75.7174 82.0252 72.151C82.0252 68.5845 80.1167 65.6934 77.7625 65.6934C75.4082 65.6934 73.4998 68.5845 73.4998 72.151C73.4998 75.7174 75.4082 78.6086 77.7625 78.6086Z" fill="#F9F8F4"/>
<path d="M111.873 78.6086C114.227 78.6086 116.135 75.7174 116.135 72.151C116.135 68.5845 114.227 65.6934 111.873 65.6934C109.518 65.6934 107.61 68.5845 107.61 72.151C107.61 75.7174 109.518 78.6086 111.873 78.6086Z" fill="#F9F8F4"/>
<path d="M90.9487 132.658C101.966 136.946 109.101 134.946 114.144 129.557" stroke="#F9F8F4" stroke-width="2" stroke-miterlimit="10"/>
<path d="M93.1353 147.82C102.271 152.507 110.83 152.287 118.296 142.931" stroke="#F9F8F4" stroke-width="2" stroke-miterlimit="10"/>
<path d="M91.3047 159.829C101.627 165.015 111.296 165.617 119.805 157.871" stroke="#F9F8F4" stroke-width="2" stroke-miterlimit="10"/>
<path d="M84.1948 178.498C94.1778 185.668 104.161 186.591 114.144 181.269" stroke="#F9F8F4" stroke-width="2" stroke-miterlimit="10"/>
<path d="M145.262 199.939C149.822 195.507 152.805 190.456 153.474 183.533C154.762 170.253 148.762 151.846 136.805 144.618C136.551 144.457 136.093 144.168 136.195 143.804C136.296 143.423 137.008 143.262 137.33 143.194C139.212 142.779 141.178 142.897 143.059 143.279C147.915 144.287 152.457 146.575 156.195 149.804C159.542 152.702 162.237 156.279 164.322 160.168C166.474 164.177 167.983 168.507 168.923 172.948C169.847 177.355 170.22 181.88 169.966 186.372C169.932 186.939 169.889 187.507 169.839 188.067C169.466 192.109 168.593 196.117 167.228 199.939" stroke="#F9F8F4" stroke-width="2" stroke-miterlimit="10"/>
</svg>
