<svg width="201" height="200" viewBox="0 0 201 200" fill="none" xmlns="http://www.w3.org/2000/svg">
<rect x="1" y="1" width="198" height="198" rx="9" fill="#252525" stroke="#F9F8F4" stroke-width="2" stroke-linejoin="round"/>
<path d="M57.8356 127.729C57.1161 139.095 69.6706 143.218 90.3414 142.911C117.835 144.188 140.81 139.176 132.378 90.5181C137.439 81.1163 140.988 71.8359 137.762 63.1132C137.108 61.3347 135.475 60.0898 133.591 60.0089C128.927 59.823 120.269 62.5312 106.663 68.8206C71.6189 58.4083 29.6788 88.9336 41.7078 122.159C42.7507 125.045 45.4022 127.042 48.4661 127.22C68.3043 128.392 87.6252 129.095 101.36 124.891C105.758 121.698 107.156 118.723 106.663 115.886" stroke="#F9F8F4" stroke-width="2" stroke-miterlimit="10"/>
<path d="M55.0303 80.3562C38.5065 79.4669 31.0774 90.9624 41.0531 100.736" stroke="#F9F8F4" stroke-width="2" stroke-miterlimit="10"/>
<path d="M82.2735 107.099C91.4038 107.099 98.8053 101.449 98.8053 94.4795C98.8053 87.5101 91.4038 81.8604 82.2735 81.8604C73.1432 81.8604 65.7416 87.5101 65.7416 94.4795C65.7416 101.449 73.1432 107.099 82.2735 107.099Z" stroke="#F9F8F4" stroke-width="2" stroke-miterlimit="10"/>
<path d="M74.0118 96.2507C79.1695 90.8586 84.2542 91.8206 89.2987 96.2507" stroke="#F9F8F4" stroke-width="2" stroke-miterlimit="10"/>
<path d="M133.826 101.537C157.876 95.5954 179.185 112.046 199.314 138.198" stroke="#F9F8F4" stroke-width="2" stroke-miterlimit="10"/>
<path d="M86.6713 142.92C101.214 152.014 108.328 167.77 106.477 182.37" stroke="#F9F8F4" stroke-width="2" stroke-miterlimit="10"/>
<path d="M147.278 100.494C153.179 109.661 154.683 121.594 153.599 135.134C163.074 135.773 170.681 127.446 177.342 114.585" stroke="#F9F8F4" stroke-width="2" stroke-miterlimit="10"/>
<path d="M181.052 117.834C183.082 129.54 183.082 139.814 181.052 148.642C187.956 147.025 193.332 142.757 196.404 134.511" stroke="#F9F8F4" stroke-width="2" stroke-miterlimit="10"/>
<path d="M122.306 164.988C123.527 167.486 124.747 169.984 125.968 172.482C126.275 173.121 126.59 173.865 126.283 174.503C126.024 175.037 125.418 175.287 124.86 175.498C118.531 177.866 112.201 180.227 105.871 182.595C101.659 184.172 97.407 185.764 93.6721 188.27C89.9373 190.776 86.7118 194.301 85.4587 198.618" stroke="#F9F8F4" stroke-width="2" stroke-miterlimit="10"/>
<path d="M134.593 161.957C138.425 167.454 141.813 173.267 144.69 179.322C145.547 181.124 146.267 183.509 144.844 184.9C144.262 185.465 143.454 185.708 142.669 185.886C139.88 186.524 136.994 186.613 134.141 186.824C126.146 187.398 118.215 188.917 110.568 191.326C106.073 192.741 101.182 194.997 99.0723 198.99" stroke="#F9F8F4" stroke-width="2" stroke-miterlimit="10"/>
<path d="M17.5527 198.991C11.1744 186.404 11.0775 169.929 19.9538 158.748C27.4072 149.347 41.1258 144.65 52.6132 148.918C56.0408 150.187 59.0481 152.516 61.3197 155.345C62.6859 157.059 63.8096 158.975 64.61 161.012C64.9576 161.893 65.2486 162.79 65.483 163.712C66.9058 169.314 66.7684 175.183 63.8662 178.619C60.0829 183.081 53.3085 183.93 47.8518 183.477C42.6214 183.041 36.9707 180.923 35.5155 175.337C34.6505 172.047 35.7903 168.296 38.3853 166.089C40.9803 163.89 44.9092 163.381 47.9488 164.908C49.2503 165.563 50.4063 166.582 51.0207 167.908C51.635 169.233 51.6432 170.866 50.8752 172.111C50.2285 173.162 49.0886 173.841 47.9083 174.237C46.9625 174.553 45.9197 174.698 44.99 174.359C44.0522 174.019 43.2843 173.081 43.4056 172.095C43.4621 171.602 43.8016 171.165 44.23 170.923C44.9576 170.503 44.8526 169.403 44.0927 169.039C43.2277 168.627 42.1605 168.579 41.3117 169.023C39.703 169.864 39.0159 171.95 39.4444 173.712C39.8647 175.474 41.1985 176.905 42.7345 177.867C46.3723 180.147 52.7022 180.147 55.7256 176.816C60.762 171.254 55.6609 161.675 49.7272 159.161C44.319 156.873 37.6335 158.304 33.1388 161.901C29.3312 164.933 26.6796 169.306 25.4347 173.995C23.9876 179.444 25.079 184.302 27.0111 189.46C27.0515 189.565 27.092 189.678 27.1324 189.791C28.3288 192.944 29.7354 196.032 31.3926 198.991" stroke="#F9F8F4" stroke-width="2" stroke-miterlimit="10"/>
</svg>
