<svg width="50" height="50" viewBox="0 0 50 50" fill="none" xmlns="http://www.w3.org/2000/svg">
<path d="M45.5399 0.629883H4.42495C2.31982 0.629883 0.613281 2.34247 0.613281 4.45506V45.5436C0.613281 47.6562 2.31982 49.3688 4.42495 49.3688H45.5399C47.6451 49.3688 49.3516 47.6562 49.3516 45.5436V4.45506C49.3516 2.34247 47.6451 0.629883 45.5399 0.629883Z" fill="#252525"/>
<path d="M28.305 21.7773C28.3367 21.7689 28.3684 21.7622 28.4017 21.7555C28.4184 21.7522 28.525 21.7288 28.44 21.7472C28.5017 21.7338 28.5733 21.7355 28.6367 21.7338C28.7033 21.7338 28.7684 21.7388 28.8334 21.7438C28.8384 21.7438 28.84 21.7438 28.8434 21.7438C28.8534 21.7438 28.8617 21.7472 28.8717 21.7488C28.9 21.7539 28.9284 21.7589 28.9567 21.7656C29.0167 21.779 29.0767 21.7957 29.135 21.8141C29.165 21.8241 29.195 21.8358 29.2267 21.8475C29.24 21.8525 29.2533 21.8592 29.265 21.8659C29.325 21.8944 29.3817 21.9261 29.4367 21.9613C29.465 21.978 29.4917 21.9964 29.5184 22.0165C29.525 22.0215 29.5317 22.0265 29.54 22.0315C29.5434 22.0349 29.5467 22.0365 29.5533 22.0415C29.6817 22.1452 29.8767 22.1754 30 22.0415C30.1067 21.9261 30.1367 21.707 30 21.595C29.48 21.1701 28.7967 21.0029 28.1417 21.1685C27.9817 21.2086 27.87 21.3976 27.9217 21.5565C27.975 21.7221 28.1384 21.8208 28.31 21.7773H28.305Z" fill="white"/>
<path d="M37.0782 20.6058C37.1282 20.6643 37.2283 20.6978 37.3016 20.6978C37.3749 20.6978 37.4716 20.6626 37.5249 20.6058C37.5799 20.5456 37.6216 20.4669 37.6166 20.3833C37.6132 20.3064 37.5866 20.2445 37.5416 20.1843C37.4982 20.1274 37.4632 20.0655 37.4316 20.0003C37.4082 19.9384 37.3916 19.8765 37.3799 19.8113C37.3749 19.7477 37.3733 19.6825 37.3799 19.619C37.3849 19.5905 37.3899 19.5621 37.3966 19.5337C37.4383 19.3748 37.3433 19.1841 37.1766 19.1456C37.0116 19.1071 36.8332 19.1958 36.7882 19.3664C36.7299 19.5822 36.7299 19.808 36.7783 20.0254C36.8266 20.2428 36.9349 20.4368 37.0766 20.6058H37.0782Z" fill="white"/>
<path d="M36.1435 13.2837C36.1435 13.2837 36.1401 13.2804 36.1384 13.2787C36.1284 13.272 36.1167 13.2637 36.1167 13.2637C36.1167 13.2687 36.1301 13.2821 36.1435 13.2837Z" fill="white"/>
<path d="M46.1083 0H3.89166C1.745 0 0 1.74617 0 3.89209V46.1079C0 48.2538 1.74666 50 3.89166 50H46.1083C48.255 50 50 48.2538 50 46.1079V3.89209C50 1.74617 48.2533 0 46.1083 0ZM10.6417 35.768C10.9133 36.044 11.1933 36.3133 11.48 36.5726C11.7817 36.8435 12.2283 36.3986 11.9267 36.126C11.5017 35.743 11.09 35.3365 10.6967 34.9117C10.685 34.7829 10.5783 34.6759 10.455 34.6441C9.01 33.0116 7.865 31.0915 7.40166 28.954C7.09 27.5206 7.14666 26.0454 7.53666 24.6337C7.955 23.1217 8.70667 21.7251 9.60834 20.4489C10.65 18.9754 11.8917 17.6607 13.13 16.3528C13.2367 16.5184 13.3483 16.6789 13.4633 16.8362C13.9517 17.4985 14.495 18.1608 15.2367 18.5472C15.9717 18.9285 16.8083 19.0523 17.6267 19.0707C18.4033 19.0874 19.1883 19.0138 19.9433 18.8332C21.4567 18.4703 22.7933 17.6189 23.6633 16.3143C24.4817 15.0866 24.7933 13.573 24.7183 12.1128C24.7133 12.0191 24.7067 11.9238 24.6983 11.8301C27.8067 12.7768 30.8067 14.0613 33.6367 15.657C35.1267 16.4966 36.57 17.4216 37.955 18.4268C38.6167 18.9068 39.28 19.3969 39.8967 19.9338C40.4833 20.4456 41.0367 21.0293 41.3533 21.7519C41.6117 22.3423 41.6633 23.0448 41.455 23.6569C41.3567 23.9446 41.19 24.2022 40.9633 24.4046C40.675 24.6621 40.2983 24.801 39.9383 24.9214C38.2283 25.4934 36.4483 25.8681 34.6617 26.1006C30.955 26.5839 27.2067 26.4869 23.48 26.3481C21.54 26.2762 19.6017 26.1925 17.66 26.1741C16.7 26.1658 15.7417 26.1741 14.7817 26.2059C14.0667 26.231 13.3233 26.2829 12.675 26.614C12.3583 26.7746 12.095 27.0121 11.8967 27.3065C11.6683 27.6443 12.215 27.9605 12.4417 27.6243C12.8033 27.0874 13.515 26.9335 14.1183 26.875C15.02 26.788 15.94 26.803 16.845 26.8014C18.8067 26.798 20.7667 26.875 22.7267 26.9485C26.525 27.0941 30.3433 27.2329 34.13 26.7947C35.9833 26.5806 37.8217 26.2344 39.6067 25.6874C39.775 25.6356 39.9433 25.5837 40.1117 25.5269C40.185 26.88 39.41 28.1645 38.3367 28.954C37.0383 29.909 35.3967 30.2469 33.825 30.4125C32.7817 30.5228 31.7317 30.5663 30.6833 30.5513C30.2767 30.5446 30.2767 31.1751 30.6833 31.1818C31.67 31.1969 32.6583 31.1584 33.6417 31.0614C34.5067 30.9761 35.3733 30.854 36.2133 30.6232C36.6267 30.5095 37.035 30.3656 37.4267 30.19C37.5383 31.692 37.4833 33.209 37.2367 34.6959C37.1117 35.4536 36.9517 36.2213 36.6367 36.9255C36.31 37.6564 35.885 38.3421 35.49 39.0363C35.0333 39.8391 34.5767 40.6419 34.1183 41.4431C33.9167 41.796 34.4617 42.1155 34.6633 41.7609C34.9933 41.1822 35.3233 40.6035 35.6517 40.0248C35.8583 40.3476 36.0667 40.672 36.2733 40.9948C36.46 41.2859 36.66 41.5702 36.8117 41.8813C36.8383 41.9348 36.8633 41.9884 36.8867 42.0419C36.9 42.072 36.9133 42.1021 36.9267 42.1339C36.9333 42.1506 36.935 42.1523 36.935 42.1523C36.935 42.1539 36.9383 42.1606 36.9467 42.1824C37 42.3145 37.0517 42.4483 37.1017 42.5838C37.21 42.8832 37.3067 43.1859 37.3983 43.4903C37.81 44.8652 38.12 46.2718 38.4017 47.6768C38.495 48.1401 38.5817 48.6034 38.6667 49.0684C38.48 49.0717 38.2933 49.0734 38.105 49.0767C37.3517 49.0851 36.6 49.0884 35.8467 49.0918C34.765 49.0968 33.6833 49.1002 32.6017 49.1018C31.295 49.1052 29.9883 49.1085 28.6817 49.1102C27.2517 49.1135 25.82 49.1152 24.39 49.1169C22.9467 49.1185 21.5033 49.1219 20.0617 49.1236C18.7183 49.1252 17.375 49.1286 16.0317 49.1319C14.885 49.1353 13.74 49.1369 12.5933 49.142C11.7583 49.1453 10.925 49.1487 10.09 49.1553C9.775 49.1587 9.45833 49.1553 9.14333 49.1637C9.52 47.4878 9.72667 45.7701 9.92 44.0674C10.155 41.9917 10.3333 39.911 10.4917 37.827C10.5433 37.1396 10.5933 36.4521 10.6417 35.7647V35.768ZM12.8817 13.1899C12.8867 13.1347 12.8917 13.0779 12.8983 13.0227C12.9017 12.9942 12.905 12.9641 12.9083 12.9357C12.9083 12.929 12.9083 12.9257 12.9083 12.9223C12.9083 12.9156 12.91 12.9073 12.9133 12.8939C12.935 12.7584 12.9583 12.6229 12.9883 12.4875C13.055 12.1897 13.1467 11.8987 13.2617 11.6144C13.2617 11.611 13.2633 11.6094 13.265 11.6077C13.265 11.6077 13.265 11.6077 13.265 11.6043C13.2733 11.5859 13.28 11.5692 13.2883 11.5508C13.305 11.5107 13.3233 11.4722 13.3417 11.4337C13.38 11.3551 13.42 11.2765 13.4617 11.1979C13.545 11.044 13.6367 10.8952 13.735 10.7496C13.9283 10.4687 14.175 10.186 14.48 9.91503C14.6583 9.75614 14.75 9.68589 14.94 9.55376C15.1383 9.4166 15.345 9.29451 15.5583 9.18244C16.0283 8.93825 16.51 8.7643 17.0367 8.62715C18.2 8.32274 19.475 8.18057 20.6533 8.44986C21.8017 8.71245 22.8633 9.35137 23.5317 10.3348C23.7067 10.5924 23.86 10.8684 23.98 11.1544C24.09 11.8 24.1283 12.4691 24.075 13.1297C21.12 12.6647 18.0667 12.8989 15.2217 13.8272C14.4733 14.0714 13.7417 14.3658 13.03 14.7019C12.885 14.2119 12.8367 13.7051 12.8783 13.1849L12.8817 13.1899ZM13.2583 15.2957C14.05 14.9194 14.8683 14.5999 15.7067 14.3423C15.925 15.5934 16.8367 16.6789 18.0467 17.0987C19.3567 17.552 20.9133 17.0603 21.7967 16.0082C22.3767 15.3175 22.5767 14.4678 22.7233 13.5997C23.15 13.6365 23.5767 13.69 24 13.7586C23.9183 14.237 23.7833 14.7036 23.5867 15.1469C23.025 16.4197 21.995 17.4299 20.6967 17.9384C20.0367 18.1976 19.3333 18.3498 18.6267 18.41C17.9 18.4719 17.145 18.4703 16.43 18.3097C16.0567 18.2261 15.6983 18.0973 15.37 17.8999C15.0517 17.7059 14.7817 17.45 14.5333 17.1723C14.0317 16.612 13.5817 15.9748 13.2567 15.2957H13.2583ZM17.6333 14.2821C17.61 14.2687 17.5867 14.257 17.5633 14.247L17.6317 14.2286C17.6317 14.247 17.6317 14.2654 17.6317 14.2821H17.6333ZM20.4417 13.5429C20.4567 13.5562 20.4717 13.5696 20.4867 13.583C20.4967 13.593 20.505 13.6031 20.515 13.6131C20.5183 13.6164 20.5267 13.6265 20.5333 13.6348C20.54 13.6432 20.5483 13.6549 20.55 13.6583C20.5583 13.67 20.565 13.6817 20.5733 13.6934C20.595 13.7285 20.6133 13.767 20.6333 13.8038C20.6367 13.8172 20.6433 13.8305 20.6467 13.8439C20.6583 13.879 20.6683 13.9158 20.6767 13.951C20.68 13.9677 20.6833 13.9827 20.6867 13.9995C20.69 14.0379 20.6933 14.0764 20.6917 14.1165C20.6917 14.1483 20.6883 14.1784 20.6867 14.2085C20.6867 14.2085 20.6867 14.2102 20.6867 14.2119C20.6833 14.2253 20.6817 14.2386 20.6783 14.252C20.6567 14.3457 20.6417 14.3775 20.6117 14.436C20.575 14.5063 20.5317 14.5732 20.485 14.6384C20.485 14.6401 20.4833 14.6417 20.4817 14.6434C20.4817 14.6451 20.4783 14.6468 20.475 14.6501C20.465 14.6618 20.455 14.6752 20.4433 14.6869C20.4117 14.7237 20.3767 14.7588 20.3417 14.7939C20.3367 14.799 20.3333 14.8023 20.3317 14.804C20.3317 14.804 20.3317 14.804 20.3283 14.8056C20.315 14.8157 20.3017 14.824 20.2867 14.8324C20.2767 14.8391 20.2717 14.8424 20.2667 14.8441C20.25 14.8508 20.2317 14.8575 20.2133 14.8625C20.1933 14.8692 20.1717 14.8725 20.1517 14.8776C20.1517 14.8776 20.1433 14.8792 20.135 14.8809C20.125 14.8809 20.1067 14.8843 20.1033 14.8843C20.08 14.8859 20.0567 14.8876 20.035 14.8876C20.0033 14.8876 19.97 14.8843 19.9383 14.8843C19.9367 14.8843 19.9367 14.8843 19.935 14.8843C19.9183 14.8809 19.9017 14.8792 19.8867 14.8759C19.855 14.8692 19.8233 14.8608 19.7933 14.8525C19.775 14.8475 19.7583 14.8408 19.7417 14.8358C19.7367 14.8341 19.7317 14.8324 19.7283 14.8324C19.6667 14.8006 19.6067 14.7688 19.5483 14.7304C19.5483 14.7304 19.5433 14.727 19.54 14.7237C19.5317 14.717 19.5183 14.7053 19.515 14.7036C19.4833 14.6769 19.455 14.6484 19.4267 14.6166C19.4167 14.6066 19.4083 14.5949 19.4 14.5849C19.4 14.5849 19.4 14.5849 19.3983 14.5832C19.3817 14.5564 19.3617 14.5313 19.3467 14.5029C19.33 14.4761 19.3167 14.4477 19.3033 14.4176C19.3033 14.4092 19.2833 14.3607 19.28 14.3457C19.2683 14.3072 19.2617 14.2671 19.2533 14.2269C19.2533 14.2069 19.25 14.1868 19.2483 14.1667C19.2467 14.1249 19.2483 14.0814 19.2483 14.0396C19.2483 14.0262 19.25 14.0128 19.2517 13.9978C19.2517 13.9944 19.2517 13.9894 19.255 13.9827C19.265 13.9409 19.2733 13.9008 19.2867 13.8606C19.2917 13.8422 19.3 13.8255 19.305 13.8071C19.305 13.8038 19.305 13.8038 19.305 13.8004C19.305 13.7971 19.3083 13.7954 19.31 13.7904C19.3267 13.7569 19.3433 13.7235 19.3633 13.6917C19.3733 13.675 19.3833 13.6599 19.3933 13.6449C19.3967 13.6399 19.3983 13.6382 19.4 13.6348C19.4033 13.6315 19.4067 13.6282 19.4133 13.6198C19.4167 13.6148 19.42 13.6098 19.4233 13.6047C19.7617 13.573 20.1017 13.5512 20.4433 13.5395L20.4417 13.5429ZM35.525 16.04C35.8583 16.05 36.1917 16.0082 36.5083 15.8995C37 15.7289 37.4433 15.4295 37.795 15.0482C38.16 14.6534 38.4333 14.1851 38.6083 13.6783C38.6817 13.7051 38.7533 13.7319 38.825 13.7603C38.345 14.9528 37.41 15.9397 36.25 16.4983C36.01 16.3444 35.7683 16.1922 35.525 16.0417V16.04ZM36.235 13.409C36.235 13.409 36.2367 13.4124 36.2383 13.4141C36.255 13.4475 36.2433 13.4274 36.235 13.409ZM35.9867 13.1832C36.005 13.2016 36.0267 13.2167 36.0517 13.2284C36.075 13.2384 36.0967 13.2501 36.1183 13.2619C36.1183 13.2585 36.1233 13.2602 36.1383 13.2752C36.1383 13.2752 36.14 13.2769 36.1417 13.2786C36.1467 13.2819 36.15 13.2836 36.1517 13.2836C36.15 13.2836 36.1483 13.2836 36.1467 13.2836C36.16 13.297 36.1733 13.312 36.1867 13.3254C36.1917 13.3338 36.1983 13.3405 36.2033 13.3488C36.2133 13.3656 36.2217 13.3823 36.23 13.399C36.2317 13.4107 36.2433 13.4308 36.245 13.4375C36.2517 13.4592 36.2567 13.481 36.2617 13.5044C36.2617 13.5144 36.265 13.5278 36.265 13.5345C36.265 13.5596 36.265 13.5863 36.265 13.6114C36.265 13.6131 36.265 13.6198 36.265 13.6282C36.265 13.6298 36.265 13.6315 36.265 13.6332C36.2583 13.6583 36.2517 13.6833 36.245 13.7068C36.2417 13.7201 36.225 13.7469 36.2417 13.7185C36.2383 13.7235 36.235 13.7285 36.235 13.7319C36.2217 13.7569 36.205 13.7804 36.1917 13.8054C36.1833 13.8138 36.1767 13.8222 36.1683 13.8305C36.15 13.8506 36.13 13.869 36.11 13.8874C36.1033 13.8924 36.0833 13.9091 36.0783 13.9125C36.0517 13.9309 36.0233 13.9476 35.995 13.9627C35.9817 13.9694 35.97 13.976 35.9567 13.9827C35.945 13.9878 35.91 13.9978 35.9367 13.9911H35.9333C35.92 13.9961 35.9067 14.0011 35.8917 14.0045C35.86 14.0145 35.8283 14.0212 35.7967 14.0279C35.795 14.0279 35.7883 14.0296 35.78 14.0312C35.815 14.0229 35.775 14.0312 35.7633 14.0312C35.735 14.0329 35.705 14.0346 35.6767 14.0346C35.66 14.0346 35.645 14.0346 35.6283 14.0346C35.625 14.0346 35.6167 14.0346 35.61 14.0346C35.6017 14.0346 35.5917 14.0312 35.5883 14.0312C35.5683 14.0262 35.5483 14.0195 35.5283 14.0145C35.5283 14.0145 35.5283 14.0145 35.5267 14.0128C35.5167 14.0062 35.505 13.9995 35.495 13.9944C35.4883 13.9894 35.4833 13.9827 35.4767 13.9777C35.47 13.971 35.4633 13.9627 35.4567 13.956C35.44 13.9292 35.4233 13.9025 35.4083 13.874C35.4067 13.8707 35.4067 13.869 35.405 13.8673C35.405 13.864 35.4033 13.859 35.4 13.8523C35.39 13.8255 35.3833 13.7988 35.3767 13.7703C35.3717 13.7469 35.3667 13.7235 35.3617 13.6984C35.3617 13.68 35.3583 13.6633 35.3583 13.6449C35.3583 13.6148 35.3583 13.5847 35.3583 13.5529C35.3583 13.5395 35.3583 13.5261 35.36 13.5127C35.3683 13.4994 35.3767 13.4258 35.38 13.4157C35.3833 13.4024 35.3867 13.389 35.3917 13.3773C35.3933 13.3706 35.3967 13.3639 35.3983 13.3589C35.3983 13.3555 35.4 13.3538 35.4017 13.3505C35.4083 13.3355 35.4167 13.3221 35.425 13.307C35.4317 13.2953 35.44 13.2853 35.445 13.2736C35.4533 13.2652 35.46 13.2568 35.4683 13.2485C35.47 13.2468 35.4717 13.2451 35.4733 13.2435C35.4933 13.2334 35.5367 13.2033 35.5467 13.1983C35.5567 13.1933 35.565 13.1866 35.5733 13.1799C35.715 13.1799 35.855 13.1799 35.9967 13.1849L35.9867 13.1832ZM32.795 14.4812C32.3483 14.2453 31.8967 14.0195 31.4417 13.7988C31.8217 13.7084 32.2033 13.6215 32.585 13.5429C32.5767 13.8841 32.6517 14.2002 32.7933 14.4812H32.795ZM39.02 13.1648C36.8383 12.2951 34.44 12.4808 32.19 12.9742C31.6817 13.0862 31.1767 13.2134 30.67 13.3355C30.6267 13.3455 30.5917 13.3622 30.5617 13.384C29.6833 12.9809 28.7917 12.6079 27.8883 12.2617C28.21 12.1864 28.5233 12.0844 28.8283 11.9506C29.5283 11.6445 30.1033 11.1661 30.65 10.6409C31.195 10.1174 31.7367 9.63237 32.43 9.31291C33.0533 9.02522 33.745 8.868 34.4283 8.80946C35.7033 8.70241 37.2417 8.82451 38.2333 9.72938C39.1783 10.5908 39.33 11.9773 39.0217 13.1648H39.02ZM49.3683 46.1079C49.3683 47.9059 47.905 49.3694 46.1067 49.3694H39.35C39.35 49.3427 39.3483 49.3159 39.3417 49.2925C39.13 48.0816 38.8883 46.8756 38.6133 45.6781C38.31 44.3551 37.9933 42.9986 37.44 41.7542C37.3033 41.4481 37.13 41.1738 36.95 40.8928C36.6333 40.3994 36.3183 39.906 36.0017 39.4126C36.3767 38.762 36.7667 38.1147 37.0917 37.4389C37.4417 36.708 37.6517 35.937 37.7967 35.1408C37.9433 34.3296 38.04 33.5084 38.085 32.6855C38.135 31.7672 38.1183 30.8473 38.0367 29.9324C38.0367 29.9174 38.0317 29.904 38.03 29.8889C38.9017 29.3972 39.6583 28.7232 40.1683 27.8283C40.6017 27.0707 40.8317 26.1859 40.725 25.3128C40.725 25.3027 40.7217 25.2944 40.72 25.2843C41.1167 25.0953 41.475 24.8461 41.7433 24.4681C42.155 23.8911 42.2717 23.1334 42.1833 22.441C41.97 20.7868 40.6183 19.6645 39.3783 18.7078C38.5567 18.0739 37.7133 17.4684 36.85 16.8913C37.9833 16.2625 38.8833 15.2422 39.3833 14.0463C39.9267 12.7484 39.9983 11.1293 39.2083 9.91002C38.3883 8.64555 36.8483 8.20399 35.4183 8.15214C33.8833 8.09527 32.2933 8.44317 31.07 9.40657C30.3683 9.95852 29.8083 10.6777 29.0317 11.136C28.2933 11.5709 27.4483 11.7833 26.5933 11.7616C26.575 11.7616 26.5583 11.7632 26.5417 11.7649C26.2483 11.6629 25.9533 11.5625 25.6567 11.4672C25.31 11.3551 24.9633 11.2481 24.615 11.1444C24.6117 11.1243 24.6083 11.1042 24.605 11.0842C24.605 11.0524 24.6033 11.0206 24.59 10.9905C24.5833 10.952 24.5667 10.9186 24.545 10.8885C24.0033 9.6608 23.0517 8.69405 21.8083 8.16719C21.205 7.91129 20.57 7.76075 19.9183 7.70389C19.2333 7.64367 18.5433 7.71225 17.8667 7.81762C15.8633 8.12538 13.8767 9.06536 12.895 10.9236C12.3067 12.0359 12.0483 13.4358 12.3633 14.6702C12.4633 15.0599 12.615 15.4329 12.8017 15.7908C12.7867 15.8025 12.7733 15.8142 12.7583 15.8276C10.4867 18.2277 8.14834 20.7366 7.08834 23.9379C6.59167 25.4382 6.44334 27.0205 6.69167 28.5827C6.92334 30.0378 7.49166 31.4327 8.245 32.6955C8.765 33.5669 9.37834 34.3815 10.055 35.1392C9.93167 36.9087 9.80334 38.6767 9.64834 40.4429C9.46834 42.5002 9.26501 44.5574 8.96334 46.6013C8.82667 47.5279 8.67 48.4545 8.45 49.3661H3.89333C2.095 49.3661 0.631663 47.9026 0.631663 46.1046V3.89209C0.631663 2.09407 2.095 0.630561 3.89333 0.630561H46.11C47.9083 0.630561 49.3717 2.09407 49.3717 3.89209V46.1079H49.3683Z" fill="white"/>
<path d="M13.2568 15.2954C13.2568 15.2954 17.5535 12.8284 23.9985 13.7583C23.7785 17.3193 20.3002 18.5469 17.6318 18.5469C14.9618 18.5469 13.8802 16.4846 13.2568 15.2954Z" fill="#F9F8F4"/>
<mask id="mask0_8375_32492" style="mask-type:luminance" maskUnits="userSpaceOnUse" x="13" y="13" width="11" height="6">
<path d="M13.2571 15.2964C13.2571 15.2964 17.5537 12.8294 23.9987 13.7593C23.7787 17.3202 20.3004 18.5479 17.6321 18.5479C14.9621 18.5479 13.8804 16.4856 13.2571 15.2964Z" fill="white"/>
</mask>
<g mask="url(#mask0_8375_32492)">
<path d="M15.4722 14.0393C15.4722 14.0393 15.9905 17.6805 19.4072 17.2506C23.3388 16.7555 22.7505 13.2833 22.7505 13.2833C22.7505 13.2833 17.7422 12.922 15.4722 14.0393Z" fill="#252525"/>
<path d="M19.682 15.0341C20.0926 15.0341 20.4254 14.7016 20.4254 14.2915C20.4254 13.8813 20.0926 13.5488 19.682 13.5488C19.2715 13.5488 18.9387 13.8813 18.9387 14.2915C18.9387 14.7016 19.2715 15.0341 19.682 15.0341Z" fill="#F9F8F4"/>
</g>
<path d="M31.4416 13.7986C31.4416 13.7986 35.1699 12.5609 38.9433 13.5427C38.5933 15.3959 36.2466 16.4965 36.2466 16.4965C36.2466 16.4965 32.3149 14.3874 31.4399 13.7986H31.4416Z" fill="#F9F8F4"/>
<mask id="mask1_8375_32492" style="mask-type:luminance" maskUnits="userSpaceOnUse" x="31" y="13" width="8" height="4">
<path d="M31.4416 13.7996C31.4416 13.7996 35.1699 12.5619 38.9433 13.5437C38.5933 15.3969 36.2466 16.4974 36.2466 16.4974C36.2466 16.4974 32.3149 14.3883 31.4399 13.7996H31.4416Z" fill="white"/>
</mask>
<g mask="url(#mask1_8375_32492)">
<path d="M33.8631 12.9121C33.8631 12.9121 32.9348 15.3223 35.7048 15.5799C38.2331 15.8157 38.4064 12.9472 38.4064 12.9472L33.8631 12.9121Z" fill="#252525"/>
<path d="M35.8164 14.2839C36.1607 14.2839 36.4398 14.0046 36.4398 13.66C36.4398 13.3154 36.1607 13.0361 35.8164 13.0361C35.4722 13.0361 35.1931 13.3154 35.1931 13.66C35.1931 14.0046 35.4722 14.2839 35.8164 14.2839Z" fill="#F9F8F4"/>
</g>
</svg>
