<svg width="50" height="50" viewBox="0 0 50 50" fill="none" xmlns="http://www.w3.org/2000/svg">
<path d="M45.5453 0.661133H4.42945C2.32453 0.661133 0.618164 2.36621 0.618164 4.46954V45.5544C0.618164 47.6577 2.32453 49.3628 4.42945 49.3628H45.5453C47.6502 49.3628 49.3566 47.6577 49.3566 45.5544V4.46954C49.3566 2.36621 47.6502 0.661133 45.5453 0.661133Z" fill="#252525"/>
<path d="M36.9729 30.6149C36.9729 30.6149 36.9729 30.6149 36.9696 30.6149H36.9612C36.9279 30.6149 36.9462 30.6183 36.9646 30.6149C36.9512 30.6183 36.9362 30.6183 36.9279 30.6216C36.8929 30.6299 36.8612 30.6399 36.8262 30.6516C36.8129 30.6566 36.8029 30.6632 36.7912 30.6699C36.7746 30.6782 36.7596 30.6882 36.7446 30.6982C36.7329 30.7065 36.7263 30.7115 36.7229 30.7115L36.7279 30.7065C36.7279 30.7065 36.7379 30.6982 36.7462 30.6932C36.7396 30.6982 36.7346 30.7015 36.7279 30.7065C36.5929 30.8031 36.4329 30.8148 36.2996 30.6932C36.1846 30.5883 36.168 30.3502 36.2996 30.2486C36.4729 30.1137 36.6563 30.0238 36.8746 29.9955C37.0629 29.9705 37.2612 29.9822 37.4378 30.0504C37.6378 30.127 37.8078 30.2453 37.9428 30.4118C38.0128 30.4967 38.0761 30.585 38.1411 30.6716C38.1411 30.6716 38.1411 30.6749 38.1444 30.6749C38.1578 30.6915 38.1694 30.7082 38.1828 30.7232C38.2144 30.7598 38.2478 30.7948 38.2844 30.8281C38.4161 30.9447 38.3961 31.1528 38.2844 31.2727C38.1644 31.4043 37.9628 31.3826 37.8395 31.2727C37.7078 31.1545 37.6028 31.0046 37.4995 30.8614L37.4962 30.8581C37.4828 30.8414 37.4695 30.8264 37.4578 30.8114C37.4328 30.7831 37.4078 30.7565 37.3812 30.7315C37.3812 30.7315 37.3679 30.7199 37.3579 30.7115C37.3495 30.7065 37.3445 30.7015 37.3395 30.6982C37.3129 30.6816 37.2845 30.6682 37.2562 30.6532C37.2395 30.6466 37.2245 30.6416 37.2095 30.6366C37.1795 30.6283 37.1479 30.6216 37.1179 30.6149L37.0679 30.6116C37.0346 30.6116 37.0029 30.6116 36.9712 30.6149H36.9729Z" fill="white"/>
<path d="M27.8339 24.3194C27.8572 24.3327 27.8805 24.3477 27.9039 24.3594C27.9072 24.3627 27.9072 24.3627 27.9105 24.3643C27.9139 24.3643 27.9172 24.3643 27.9239 24.3677C27.9522 24.3743 27.9805 24.3843 28.0089 24.391C28.0189 24.391 28.0255 24.3943 28.0305 24.396C28.0339 24.396 28.0355 24.396 28.0405 24.396C28.0672 24.396 28.0922 24.3993 28.1188 24.3993C28.1288 24.3993 28.1788 24.3927 28.1905 24.3927C28.2355 24.381 28.2822 24.3677 28.3288 24.356C28.3288 24.356 28.3299 24.356 28.3322 24.356L28.3622 24.341C28.3872 24.3277 28.4105 24.3161 28.4338 24.3027C28.4421 24.2977 28.4938 24.2594 28.4988 24.2594C28.5138 24.2461 28.5271 24.2345 28.5421 24.2211C28.5888 24.1778 28.6321 24.1295 28.6738 24.0829C28.6771 24.0779 28.6805 24.0746 28.6821 24.0729C28.6855 24.0696 28.6871 24.0646 28.6905 24.0596C28.7071 24.033 28.7238 24.008 28.7405 23.983C28.4072 23.8115 28.0672 23.6566 27.7189 23.5151L27.7156 23.5184C27.7156 23.5184 27.6789 23.5734 27.6722 23.5833C27.6689 23.5867 27.6556 23.6183 27.6489 23.6283C27.6406 23.6516 27.6322 23.6733 27.6272 23.6982C27.6239 23.7066 27.6156 23.7615 27.6139 23.7665C27.6106 23.7915 27.6106 23.8181 27.6106 23.8431C27.6106 23.8531 27.6206 23.9314 27.6189 23.9314C27.6239 23.958 27.6289 23.983 27.6372 24.0096C27.6406 24.018 27.6639 24.0879 27.6639 24.0946C27.6756 24.1179 27.6872 24.1445 27.7006 24.1678C27.7106 24.1862 27.7206 24.2028 27.7322 24.2211C27.7405 24.2311 27.7456 24.2395 27.7472 24.2445V24.2478C27.7472 24.2478 27.7505 24.2544 27.7539 24.2561C27.7672 24.2728 27.7822 24.2861 27.7972 24.2994C27.8055 24.3077 27.8289 24.3227 27.8355 24.3277C27.8355 24.3277 27.8322 24.3277 27.8305 24.3277L27.8339 24.3194ZM31.8451 24.8872C32.2534 24.8822 32.2518 25.5134 31.8451 25.5184C31.2952 25.525 30.8286 25.2702 30.3836 24.9788C29.892 25.2919 29.3837 25.5866 28.8254 25.7632C28.3388 25.9164 27.8189 25.9613 27.3189 25.8481C26.854 25.7448 26.434 25.505 26.0691 25.207C25.2958 24.5708 24.8692 23.625 24.5592 22.6941C24.0793 22.6342 23.596 22.6025 23.111 22.6009C22.7027 22.6009 22.7044 21.9697 23.111 21.9697C23.8143 21.9731 24.5159 22.0347 25.2108 22.1496C26.434 22.3527 27.6272 22.7357 28.7455 23.2736C29.2954 23.5384 29.8287 23.8415 30.3336 24.1845C30.7869 24.4909 31.2685 24.8939 31.8451 24.8872ZM25.8391 23.3352C25.8391 23.3352 25.8424 23.3269 25.8424 23.3252L25.8307 23.3219C25.8307 23.3219 25.8357 23.3302 25.8391 23.3352Z" fill="white"/>
<path d="M23.1114 22.6663C23.5963 22.6679 24.0796 22.6996 24.5612 22.7595C24.8695 23.6904 25.2961 24.6363 26.0711 25.2724C26.436 25.5721 26.8577 25.8119 27.3209 25.9152C27.8209 26.0267 28.3408 25.9834 28.8275 25.8286C29.3857 25.6521 29.8957 25.3573 30.3856 25.0442C30.8289 25.3357 31.2972 25.5904 31.8472 25.5838C32.2521 25.5788 32.2538 24.9493 31.8472 24.9527C31.2706 24.9593 30.7889 24.558 30.334 24.2499C29.8274 23.9069 29.2957 23.6022 28.7458 23.3374C27.6276 22.7995 26.436 22.4165 25.2112 22.2133C24.5162 22.0984 23.8146 22.0368 23.1114 22.0352C22.7047 22.0352 22.7047 22.6646 23.1114 22.6663ZM28.7425 24.0434C28.7258 24.0701 28.7091 24.0951 28.6925 24.12C28.6891 24.1267 28.6858 24.13 28.6841 24.1334C28.6808 24.1367 28.6791 24.1384 28.6741 24.1433C28.6325 24.1916 28.5908 24.2383 28.5425 24.2816C28.5275 24.2949 28.5125 24.3066 28.4975 24.3199C28.4942 24.3199 28.4408 24.3582 28.4325 24.3632C28.4092 24.3781 28.3858 24.3915 28.3608 24.4031C28.3508 24.4081 28.3408 24.4131 28.3292 24.4181C28.3292 24.4181 28.3292 24.4181 28.3258 24.4181C28.2792 24.4298 28.2342 24.4431 28.1892 24.4548C28.1775 24.4548 28.1292 24.4614 28.1175 24.4614C28.0909 24.4614 28.0659 24.4597 28.0392 24.4597C28.0342 24.4597 28.0325 24.4597 28.0292 24.4597C28.0242 24.4597 28.0175 24.4564 28.0075 24.4548C27.9775 24.4481 27.9492 24.4381 27.9209 24.4314C27.9159 24.4314 27.9126 24.4298 27.9092 24.4281C27.9076 24.4281 27.9059 24.4264 27.9026 24.4248C27.8726 24.4081 27.8442 24.3898 27.8142 24.3732C27.8692 24.4031 27.8142 24.3732 27.7992 24.3582C27.7842 24.3432 27.7709 24.3299 27.7559 24.3132C27.7342 24.2866 27.7292 24.2816 27.7426 24.2966C27.7559 24.3115 27.7509 24.3049 27.7326 24.2782C27.7209 24.2616 27.7109 24.2433 27.7009 24.225C27.6876 24.2016 27.6759 24.1767 27.6642 24.1517C27.6642 24.1467 27.6392 24.0767 27.6376 24.0684C27.6309 24.0418 27.6242 24.0151 27.6192 23.9885C27.6226 24.0018 27.6126 23.9136 27.6109 23.9019C27.6109 23.8769 27.6109 23.8503 27.6142 23.8253C27.6159 23.8203 27.6242 23.767 27.6259 23.757C27.6326 23.7337 27.6409 23.7104 27.6492 23.6871C27.6542 23.6771 27.6692 23.6471 27.6709 23.6421C27.6759 23.6321 27.7176 23.5772 27.7142 23.5788L27.7176 23.5755C28.0642 23.7154 28.4058 23.8719 28.7391 24.0418L28.7425 24.0434ZM25.8444 23.3907C25.8444 23.3907 25.8411 23.3973 25.8394 23.4007C25.8378 23.3957 25.8344 23.3923 25.8328 23.3873C25.8361 23.3873 25.8411 23.389 25.8444 23.3907Z" fill="white"/>
<mask id="mask0_8375_32402" style="mask-type:luminance" maskUnits="userSpaceOnUse" x="22" y="22" width="11" height="4">
<path d="M23.1116 22.6663C23.5966 22.6679 24.0798 22.6996 24.5615 22.7595C24.8698 23.6904 25.2964 24.6363 26.0713 25.2724C26.4363 25.5721 26.8579 25.8119 27.3212 25.9152C27.8211 26.0267 28.3411 25.9834 28.8277 25.8286C29.386 25.6521 29.8959 25.3573 30.3859 25.0442C30.8292 25.3357 31.2975 25.5904 31.8474 25.5838C32.2524 25.5788 32.254 24.9493 31.8474 24.9527C31.2708 24.9593 30.7892 24.558 30.3342 24.2499C29.8276 23.9069 29.296 23.6022 28.746 23.3374C27.6278 22.7995 26.4363 22.4165 25.2114 22.2133C24.5165 22.0984 23.8149 22.0368 23.1116 22.0352C22.705 22.0352 22.705 22.6646 23.1116 22.6663ZM28.7427 24.0434C28.7261 24.0701 28.7094 24.0951 28.6927 24.12C28.6894 24.1267 28.6861 24.13 28.6844 24.1334C28.6811 24.1367 28.6794 24.1384 28.6744 24.1433C28.6327 24.1916 28.5911 24.2383 28.5427 24.2816C28.5277 24.2949 28.5127 24.3066 28.4977 24.3199C28.4944 24.3199 28.4411 24.3582 28.4327 24.3632C28.4094 24.3781 28.3861 24.3915 28.3611 24.4031C28.3511 24.4081 28.3411 24.4131 28.3294 24.4181C28.3294 24.4181 28.3294 24.4181 28.3261 24.4181C28.2794 24.4298 28.2344 24.4431 28.1894 24.4548C28.1778 24.4548 28.1294 24.4614 28.1178 24.4614C28.0911 24.4614 28.0661 24.4597 28.0395 24.4597C28.0345 24.4597 28.0328 24.4597 28.0294 24.4597C28.0244 24.4597 28.0178 24.4564 28.0078 24.4548C27.9778 24.4481 27.9495 24.4381 27.9211 24.4314C27.9161 24.4314 27.9128 24.4298 27.9095 24.4281C27.9078 24.4281 27.9061 24.4264 27.9028 24.4248C27.8728 24.4081 27.8445 24.3898 27.8145 24.3732C27.8695 24.4031 27.8145 24.3732 27.7995 24.3582C27.7845 24.3432 27.7711 24.3299 27.7561 24.3132C27.7345 24.2866 27.7295 24.2816 27.7428 24.2966C27.7561 24.3115 27.7511 24.3049 27.7328 24.2782C27.7211 24.2616 27.7112 24.2433 27.7012 24.225C27.6878 24.2016 27.6762 24.1767 27.6645 24.1517C27.6645 24.1467 27.6395 24.0767 27.6378 24.0684C27.6312 24.0418 27.6245 24.0151 27.6195 23.9885C27.6228 24.0018 27.6128 23.9136 27.6112 23.9019C27.6112 23.8769 27.6112 23.8503 27.6145 23.8253C27.6162 23.8203 27.6245 23.767 27.6262 23.757C27.6328 23.7337 27.6412 23.7104 27.6495 23.6871C27.6545 23.6771 27.6695 23.6471 27.6712 23.6421C27.6762 23.6321 27.7178 23.5772 27.7145 23.5788L27.7178 23.5755C28.0644 23.7154 28.4061 23.8719 28.7394 24.0418L28.7427 24.0434ZM25.8447 23.3907C25.8447 23.3907 25.8413 23.3973 25.8397 23.4007C25.838 23.3957 25.8347 23.3923 25.833 23.3873C25.8363 23.3873 25.8413 23.389 25.8447 23.3907Z" fill="white"/>
</mask>
<g mask="url(#mask0_8375_32402)">
<path d="M25.2332 22.9248C25.2332 22.9248 27.0096 23.2745 27.7179 23.5809C28.4262 23.8873 28.7428 24.0438 28.7428 24.0438L29.951 24.695C29.951 24.695 28.6645 26.1204 27.013 25.3178C25.3615 24.5151 25.2348 22.9248 25.2348 22.9248H25.2332Z" fill="#252525"/>
</g>
<path d="M27.7223 23.5156L28.7422 24.0435C28.7422 24.0435 28.4572 24.643 27.9056 24.4265C27.354 24.21 27.724 23.5156 27.724 23.5156H27.7223Z" fill="#F9F8F4"/>
<path d="M46.1071 0H3.89127C1.74649 0 0 1.74351 0 3.88835V46.0739C0 48.2187 1.74649 49.9623 3.89127 49.9623H30.8502C30.9202 50.0006 30.9986 50.0122 31.0752 49.9856C31.0969 49.9789 31.1152 49.9706 31.1352 49.9623H46.1087C48.2552 49.9623 50 48.2187 50 46.0739V3.88835C50 1.74351 48.2552 0 46.1087 0H46.1071ZM27.3356 45.4528C26.0524 45.9607 24.6625 46.1472 23.2877 46.1139C20.7529 46.0539 18.3165 45.3029 15.9001 44.6035C13.4053 43.8791 10.8306 43.1997 8.21084 43.4911C8.04086 43.5094 7.89587 43.3329 7.89587 43.1764C7.89587 42.9932 8.04253 42.88 8.21084 42.8617C9.66236 42.7001 11.1272 42.835 12.5587 43.1081C15.0868 43.5927 17.5032 44.5186 20.018 45.0615C22.3744 45.5694 24.8825 45.7509 27.1689 44.8466C27.3273 44.7833 27.5139 44.9166 27.5556 45.0664C27.6056 45.2446 27.4939 45.3912 27.3356 45.4544V45.4528ZM30.217 49.1413C30.232 49.1396 30.2403 49.138 30.2486 49.1363C30.242 49.1363 30.232 49.138 30.217 49.1413ZM30.5103 37.0033C30.282 36.9551 30.0487 36.9317 29.8153 36.9184C29.2571 36.8868 28.6955 36.8884 28.1355 36.8751C26.939 36.8468 25.7441 36.8202 24.5475 36.7919C22.1678 36.7352 19.7747 36.6703 17.4066 36.97C17.1033 37.0083 16.8016 37.0516 16.5 37.1016C16.4567 37.1082 16.42 37.1282 16.3867 37.1549C14.8635 36.6803 13.3403 36.2057 11.8171 35.7311C10.6956 35.3814 9.57737 34.9951 8.44248 34.687C8.2875 34.6454 8.12918 34.6104 7.9692 34.5804C8.21084 32.7137 8.52748 30.8519 9.0041 29.0302C9.41073 27.4748 9.92567 25.9128 10.7606 24.529C11.1172 23.9362 11.5105 23.4166 12.0255 22.9537C12.902 23.3817 13.7703 23.8646 14.4952 24.5074C14.9468 24.9104 15.3601 25.3949 15.5384 25.9828C15.7051 26.5356 15.6334 27.1268 15.3518 27.6297C15.0368 28.1892 14.5069 28.5789 13.8686 28.6755C13.2403 28.7704 12.5654 28.5772 12.0971 28.1476C12.0488 28.1043 11.9971 28.0793 11.9438 28.0693C11.7122 27.9278 11.3439 28.2009 11.5088 28.5023C12.4404 30.2175 13.7969 31.6796 15.4001 32.7869C16.99 33.8877 18.8398 34.6387 20.7529 34.9268C21.8095 35.085 22.856 35.09 23.9193 34.9967C25.1475 34.8902 26.3607 34.7636 27.5906 34.9168C28.7305 35.06 29.847 35.4014 30.8769 35.9076C30.8969 35.9176 30.9169 35.9276 30.9369 35.9376C30.6636 36.2207 30.4986 36.6153 30.5069 37.0033H30.5103ZM28.5005 34.4322C27.3289 34.1941 26.1507 34.1708 24.9625 34.2723C23.8593 34.3673 22.7661 34.4872 21.6595 34.4006C19.793 34.2524 17.9732 33.6329 16.375 32.6654C14.9102 31.7795 13.6253 30.5888 12.6604 29.175C13.5686 29.4715 14.6119 29.3083 15.3485 28.6422C15.8334 28.2042 16.1484 27.5831 16.235 26.937C16.3284 26.2542 16.1417 25.5781 15.7701 25.0036C15.0385 23.8762 13.7836 23.1469 12.6154 22.5457C11.4788 21.9612 10.2906 21.485 9.15075 20.9055C8.03086 20.3376 6.93597 19.6532 6.12272 18.6873C7.48925 18.6774 8.83412 19.0071 10.2006 19.0487C11.4239 19.087 12.6821 18.8755 13.6736 18.1345C15.5818 19.0087 17.4732 19.918 19.3431 20.8671C19.8397 21.1186 20.333 21.3734 20.8246 21.6282C20.5229 22.1794 20.318 22.7755 20.2863 23.39C20.248 24.0994 20.4979 24.7888 20.8079 25.4166C21.0646 25.9378 21.3929 26.4224 21.7662 26.8687C22.5044 27.7479 23.4577 28.4656 24.5075 28.9319C26.7857 29.941 29.5604 29.7862 31.5468 28.2025C32.5101 27.4349 33.2117 26.3008 33.445 25.0902C33.48 24.9087 33.5033 24.7255 33.515 24.544C34.3332 24.0344 35.2631 23.7663 36.2047 23.5865C36.7147 23.4899 37.2279 23.4166 37.7412 23.345C38.2812 23.2701 38.8244 23.2035 39.3711 23.1968C39.8293 23.1902 40.2943 23.2301 40.7343 23.355C40.8642 23.5249 40.9942 23.6947 41.1226 23.8646C41.5192 24.3841 41.8975 24.927 42.3258 25.4199C42.7324 25.8845 43.2273 26.151 43.8056 26.3425C44.2806 26.5007 44.8005 26.6206 45.1738 26.9753C45.4871 27.2717 45.6854 27.6763 45.7488 28.0993C45.8187 28.5822 45.6838 29.0019 45.4388 29.4132C45.2788 29.6796 45.1288 29.9527 45.0672 30.2624C45.0038 30.5705 45.0038 30.8836 45.0422 31.195C45.1172 31.8011 45.3071 32.3873 45.3771 32.9951C45.5288 34.329 45.2955 35.6961 44.6872 36.8951C41.2059 36.8918 37.7596 35.9626 34.6865 34.339C33.9099 33.9276 33.1533 33.473 32.4268 32.9785C31.7202 32.4989 31.0369 31.9843 30.3253 31.513C29.6054 31.0384 28.8571 30.6088 28.0472 30.3057C27.2639 30.0127 26.4424 29.8894 25.6074 29.8478C23.9259 29.7629 22.0195 30.021 20.5696 28.9735C20.4313 28.8736 20.218 28.9502 20.138 29.0868C20.0447 29.245 20.113 29.4182 20.2513 29.5181C21.5945 30.4889 23.3243 30.424 24.9042 30.4556C25.6941 30.4706 26.489 30.5056 27.2556 30.7121C28.0789 30.9335 28.8371 31.3232 29.5587 31.7695C30.2836 32.2208 30.9719 32.7287 31.6702 33.2199C32.4001 33.7311 33.1517 34.2141 33.9316 34.647C35.4931 35.5146 37.1563 36.2107 38.8761 36.7003C39.3261 36.8285 39.7777 36.9417 40.2343 37.04C39.561 37.3064 38.8244 37.3697 38.0929 37.3547C37.5779 37.3431 37.0646 37.2948 36.553 37.2381C35.9664 37.1732 35.3781 37.1099 34.8015 36.98C33.6866 36.7286 32.7134 36.1574 31.7152 35.6279C30.6953 35.0883 29.6287 34.6603 28.4955 34.4305L28.5005 34.4322ZM21.0179 12.1946C21.0012 12.1762 20.9812 12.1579 20.9579 12.1413C20.6963 11.9631 20.4263 11.7966 20.153 11.6384C19.4364 12.6575 18.6115 13.5967 17.6816 14.4277C17.3799 14.6974 16.9316 14.2528 17.2349 13.9814C18.1199 13.1904 18.9148 12.3028 19.598 11.332C19.3497 11.2021 19.0981 11.0772 18.8431 10.9623C20.448 9.93484 22.1211 8.91903 24.0026 8.51105C25.0425 8.28458 26.0891 8.32121 27.1306 8.51438C28.2038 8.71255 29.2887 8.95234 30.332 9.27207C30.8352 9.42527 31.3302 9.60845 31.8001 9.84491C32.2801 10.0864 32.7267 10.3828 33.1584 10.7025C34.0599 11.3719 34.9148 12.108 35.7864 12.814C36.673 13.5334 37.5729 14.2378 38.4412 14.9755C38.8278 15.3069 39.2077 15.6583 39.5194 16.0629C39.796 16.4193 40.0227 16.8173 40.206 17.2286C40.9309 18.8555 40.9309 20.7306 40.8542 22.4824C40.7059 22.2876 40.5576 22.0944 40.4093 21.8979C40.306 21.763 40.136 21.6931 39.9777 21.7864C39.8443 21.8646 39.761 22.0811 39.8643 22.2177C39.966 22.3509 40.0677 22.4841 40.1693 22.6173C39.4511 22.5324 38.7178 22.589 37.9912 22.6823C36.8846 22.8271 35.7581 22.9703 34.6932 23.3134C34.2849 23.4449 33.8883 23.6098 33.5116 23.8146C33.4467 22.997 33.1717 22.201 32.7217 21.4916C32.0201 20.3842 30.9702 19.5483 29.8037 18.9704C29.1971 18.6724 28.5605 18.4326 27.9122 18.2411C27.2223 18.0379 26.519 18.0146 25.8107 18.1312C25.6541 18.1561 25.4991 18.1894 25.3458 18.2261C25.3191 18.2261 25.2908 18.2294 25.2608 18.2361C25.1042 18.276 24.9492 18.321 24.7958 18.3743C24.7892 18.3743 24.7825 18.3776 24.7742 18.3809C24.7659 18.3809 24.7609 18.3859 24.7525 18.3893C23.7676 18.724 22.8594 19.2785 22.1061 19.9962C21.7662 20.3209 21.4395 20.6906 21.1579 21.0936C19.3014 20.1261 17.4233 19.1952 15.5284 18.3027C15.0802 18.0929 14.6319 17.8864 14.1836 17.6799C14.4985 17.3452 14.7502 16.9555 14.9352 16.5359C15.0835 16.8189 15.2168 17.1054 15.3318 17.4018C15.3951 17.56 15.5434 17.6699 15.7201 17.6216C15.7534 17.6133 15.7867 17.5949 15.8167 17.5733C16.3584 17.6649 16.9233 17.57 17.4399 17.4001C17.9415 17.2369 18.4198 16.9988 18.8498 16.6924C19.728 16.0679 20.4113 15.212 20.8246 14.2195C21.0546 13.6666 21.1829 13.0805 21.2112 12.4827C21.2195 12.3278 21.1312 12.2329 21.0179 12.1962V12.1946ZM32.8884 24.529C32.8017 25.5082 32.3684 26.4507 31.7152 27.1801C30.1803 28.8936 27.6172 29.3183 25.4841 28.6372C23.4926 28.001 21.6795 26.3874 21.0512 24.3592C20.8562 23.7314 20.8879 23.1202 21.1179 22.5057C21.3195 21.9629 21.6495 21.45 22.0195 21.007C22.7177 20.1694 23.6243 19.4933 24.6425 19.0953C24.7525 19.0504 24.8642 19.0137 24.9775 18.9754C25.5991 18.7939 26.2324 18.654 26.884 18.6907C27.5039 18.7256 28.1155 18.9471 28.6921 19.1703C29.8103 19.5982 30.8719 20.231 31.6685 21.1352C32.4084 21.9729 32.9084 23.0536 32.9034 24.181C32.9034 24.1993 32.9034 24.216 32.9034 24.2343C32.85 24.3225 32.8384 24.4291 32.8884 24.529ZM41.5725 23.0753C41.5742 23.0669 41.5792 23.0603 41.5808 23.0519C41.7625 22.3792 42.0225 21.6998 42.4207 21.1236C42.7157 20.6973 43.3023 20.2443 43.8423 20.5241C44.2806 20.7506 44.3822 21.3517 44.4206 21.7947C44.4805 22.4958 44.4739 23.2251 44.2506 23.8979C44.0589 24.4774 43.6523 25.0419 43.074 25.2817C42.8774 25.1152 42.7107 24.9104 42.5541 24.7089C42.3208 24.4091 42.0925 24.1044 41.8608 23.803C41.7592 23.6714 41.6592 23.5365 41.5575 23.405C41.5608 23.4 41.5658 23.3967 41.5675 23.39C41.6192 23.3051 41.6208 23.1768 41.5742 23.0803L41.5725 23.0753ZM49.3717 46.0722C49.3717 47.869 47.9102 49.3295 46.1121 49.3295H31.5885C31.6135 49.2062 31.6268 49.078 31.6352 48.9515C31.6535 48.69 31.6668 48.4269 31.6802 48.1655C31.7135 47.471 31.7402 46.775 31.7668 46.0789C31.8268 44.4986 31.8785 42.9166 31.9418 41.3363C31.9668 40.7368 31.9918 40.1357 32.0301 39.5378C32.0568 39.1049 32.1001 38.6669 31.9901 38.2423C31.8718 37.7843 31.5552 37.4063 31.1285 37.2032C31.1202 37.1998 31.1119 37.1965 31.1036 37.1932C31.1319 37.1482 31.1485 37.0949 31.1452 37.0383C31.1419 36.9883 31.1452 36.9384 31.1485 36.8901C31.1619 36.8102 31.1835 36.7319 31.2119 36.6536C31.2152 36.6486 31.2185 36.642 31.2202 36.637C31.2302 36.6137 31.2435 36.5937 31.2535 36.572C31.2769 36.5304 31.3035 36.4921 31.3302 36.4538C31.3335 36.4505 31.3352 36.4488 31.3369 36.4455C31.3535 36.4272 31.3702 36.4072 31.3869 36.3905C31.4202 36.3556 31.4569 36.3239 31.4935 36.2923C31.4968 36.289 31.5018 36.2873 31.5052 36.284C31.5202 36.274 31.5352 36.264 31.5518 36.254C32.3368 36.6736 33.1134 37.1166 33.9599 37.4013C34.5549 37.6012 35.1731 37.7027 35.7914 37.7827C36.3447 37.8526 36.8996 37.9159 37.4546 37.9559C38.5028 38.0325 39.596 38.0091 40.5776 37.5895C40.8076 37.4913 41.0242 37.3747 41.2292 37.2331C42.4158 37.433 43.619 37.5362 44.8222 37.5296C44.9555 37.5296 45.0438 37.4596 45.0888 37.3664C45.1438 37.3431 45.1938 37.2998 45.2288 37.2281C45.7971 36.1108 46.0887 34.8585 46.0537 33.6029C46.0354 32.9551 45.9054 32.3323 45.7704 31.6995C45.6488 31.1334 45.5504 30.5272 45.8354 29.9943C45.9787 29.7246 46.1504 29.4781 46.2587 29.19C46.3487 28.9536 46.3904 28.6954 46.3987 28.4423C46.4137 27.9428 46.272 27.4282 46.0071 27.0069C45.7104 26.534 45.2855 26.2209 44.7739 26.0111C44.4272 25.8695 44.0539 25.7796 43.7056 25.6397C44.1506 25.3417 44.4972 24.912 44.7205 24.4125C45.0705 23.6265 45.1121 22.7489 45.0572 21.9013C45.0138 21.2352 44.8688 20.4908 44.3006 20.0695C43.6473 19.5849 42.7574 19.8497 42.2224 20.3792C41.9208 20.679 41.7008 21.0553 41.5158 21.435C41.5292 20.1394 41.4309 18.8422 41.0259 17.6133C40.7143 16.6707 40.2126 15.8148 39.5144 15.1054C39.1344 14.7207 38.7128 14.381 38.2945 14.0397C37.8246 13.66 37.3563 13.2786 36.888 12.899C35.9714 12.1546 35.0565 11.4036 34.1332 10.6642C33.7 10.3195 33.2617 9.9798 32.7934 9.68339C32.3984 9.43193 31.9835 9.22377 31.5535 9.04226C31.5535 9.01895 31.5502 8.99564 31.5435 8.97232C31.4002 8.38782 31.1602 7.82331 30.8286 7.32041C30.6969 7.12058 30.5503 6.92907 30.4003 6.74256C29.7154 6.97403 28.9954 7.08394 28.2688 7.05064C28.0972 7.04231 27.9539 6.91242 27.9539 6.73591C27.9539 6.57105 28.0989 6.41285 28.2688 6.42117C28.8371 6.44782 29.4071 6.38288 29.9537 6.22801C29.8653 6.13142 29.7754 6.0365 29.6837 5.94325C29.4154 5.66682 29.1354 5.40371 28.8471 5.14892C28.3188 5.34542 27.7639 5.462 27.1973 5.49031C27.0256 5.49863 26.8823 5.33877 26.8823 5.17557C26.8823 4.99906 27.0273 4.86917 27.1973 4.86084C27.5639 4.84252 27.9272 4.78091 28.2788 4.67767C27.8955 4.37459 27.4972 4.08983 27.0856 3.82839C26.579 3.50533 26.0491 3.21725 25.5058 2.95914C25.4041 2.85756 25.2525 2.81926 25.1175 2.89752C25.0625 2.93083 25.0158 2.98578 24.9892 3.04906C24.9242 3.17895 24.9558 3.37211 25.0858 3.45204C25.9174 4.70264 26.184 6.2763 25.7891 7.72839C25.4241 7.71507 25.0592 7.72339 24.6909 7.76502C22.5627 8.00981 20.6529 9.07724 18.8698 10.2029C18.6431 10.3445 18.4198 10.4877 18.1965 10.6326C18.1765 10.6459 18.1582 10.6592 18.1415 10.6742C17.5166 10.4344 16.875 10.2379 16.2234 10.088C15.7218 10.9307 15.0535 11.665 14.2469 12.2479C14.1086 12.3478 13.8953 12.2712 13.8153 12.1346C13.7236 11.9781 13.7903 11.8032 13.9286 11.7033C14.5802 11.2321 15.1402 10.6326 15.5751 9.95315C14.4169 9.74 13.2337 9.6684 12.0605 9.74833C11.2305 9.80495 10.4056 9.93317 9.59737 10.1363C9.46405 10.0864 9.29074 10.1613 9.22074 10.2795C9.15742 10.3878 9.17075 10.4993 9.22741 10.5926C9.26241 10.6892 9.33906 10.7675 9.44238 10.7908C11.2972 12.1696 13.1387 13.685 14.4102 15.6366C14.4652 15.7199 14.5135 15.8032 14.5652 15.8881C14.5152 15.928 14.4769 15.983 14.4552 16.0463C14.0753 17.1337 13.1653 17.9263 12.0655 18.2311C10.8023 18.5824 9.47072 18.3843 8.19418 18.2194C7.37926 18.1145 6.56101 18.0212 5.73776 18.0695C5.57277 18.0795 5.47612 18.1911 5.44445 18.316C5.32613 18.4043 5.25947 18.5991 5.35613 18.729C6.83765 20.7206 9.18908 21.6182 11.3622 22.6356C11.3805 22.644 11.3989 22.654 11.4172 22.6606C10.464 23.5865 9.82568 24.8121 9.32573 26.0277C8.62747 27.7313 8.18751 29.5381 7.84755 31.3415C7.64923 32.394 7.48925 33.453 7.35093 34.5155C6.70933 34.5038 6.08939 34.682 5.64277 35.2282C4.9745 36.0458 4.79952 37.2032 4.73619 38.224C4.67953 39.1232 4.74286 40.0208 4.77452 40.92C4.82452 42.2871 4.84951 43.6576 4.87951 45.0265C4.90951 46.3787 4.93284 47.7292 4.9845 49.0813C4.98783 49.1646 4.99117 49.2479 4.9945 49.3311H3.89461C2.09646 49.3311 0.634936 47.8707 0.634936 46.0739V3.88835C0.634936 2.09155 2.09812 0.631133 3.89461 0.631133H46.1104C47.9085 0.631133 49.3701 2.09322 49.3701 3.88835V46.0739L49.3717 46.0722Z" fill="white"/>
</svg>
