<svg width="50" height="50" viewBox="0 0 50 50" fill="none" xmlns="http://www.w3.org/2000/svg">
<path d="M45.5414 0.65332H4.42507C2.31988 0.65332 0.613281 2.36608 0.613281 4.47889V45.5715C0.613281 47.6843 2.31988 49.3971 4.42507 49.3971H45.5414C47.6466 49.3971 49.3532 47.6843 49.3532 45.5715V4.47889C49.3532 2.36608 47.6466 0.65332 45.5414 0.65332Z" fill="#252525"/>
<path d="M36.2429 13.4271C36.2429 13.4271 36.2395 13.4204 36.2362 13.4137C36.2362 13.4137 36.2329 13.4104 36.2329 13.4087C36.2362 13.4154 36.2395 13.4221 36.2429 13.4271ZM36.1429 13.2816L36.1395 13.2782L36.1362 13.2749C36.1212 13.2615 36.1162 13.2582 36.1179 13.2615C36.0962 13.2481 36.0745 13.2381 36.0512 13.2281C36.0262 13.2164 36.0062 13.2013 35.9862 13.1846C35.8445 13.1796 35.7029 13.1762 35.5629 13.1779C35.5545 13.1846 35.5462 13.1913 35.5362 13.1963C35.5262 13.2013 35.4829 13.2331 35.4612 13.2431C35.4612 13.2431 35.4578 13.2465 35.4562 13.2481C35.4478 13.2565 35.4412 13.2649 35.4328 13.2716C35.4262 13.2849 35.4195 13.295 35.4128 13.3067C35.4045 13.3201 35.3979 13.3351 35.3895 13.3502C35.3895 13.3535 35.3862 13.3535 35.3862 13.3585C35.3862 13.3652 35.3829 13.3719 35.3795 13.3769C35.3762 13.3903 35.3712 13.4037 35.3678 13.4154C35.3645 13.4271 35.3545 13.5007 35.3479 13.5141C35.3479 13.5275 35.3478 13.5425 35.3445 13.5542C35.3445 13.5844 35.3445 13.6161 35.3445 13.6462L35.3479 13.6998C35.3528 13.7232 35.3562 13.7466 35.3628 13.77C35.3695 13.7985 35.3762 13.8252 35.3862 13.852C35.3862 13.8604 35.3895 13.8637 35.3895 13.8671C35.3895 13.8704 35.3928 13.8704 35.3928 13.8737C35.4062 13.9022 35.4245 13.9289 35.4412 13.9557C35.4495 13.9641 35.4545 13.9708 35.4629 13.9791C35.4679 13.9841 35.4745 13.9908 35.4812 13.9959C35.4929 14.0009 35.5045 14.0092 35.5145 14.0143C35.5145 14.0143 35.5145 14.0143 35.5145 14.0176C35.5345 14.0226 35.5545 14.0293 35.5745 14.0343C35.5779 14.0343 35.5879 14.0377 35.5979 14.0377C35.6062 14.0377 35.6129 14.0377 35.6162 14.0377C35.6329 14.0377 35.6495 14.0377 35.6662 14.0377C35.6945 14.0377 35.7245 14.0377 35.7512 14.0343C35.7579 14.0343 35.7729 14.031 35.7795 14.031C35.7829 14.031 35.7829 14.031 35.7829 14.031H35.7862C35.8179 14.0243 35.8495 14.0176 35.8812 14.0076C35.8945 14.0042 35.9079 13.9992 35.9212 13.9942C35.9279 13.9908 35.9395 13.9858 35.9462 13.9841L35.9845 13.9657C36.0129 13.9507 36.0412 13.934 36.0679 13.9156C36.0745 13.9122 36.0945 13.8955 36.0995 13.8921C36.1195 13.8737 36.1395 13.8537 36.1595 13.8336C36.1679 13.8252 36.1745 13.8169 36.1829 13.8085C36.1979 13.7817 36.2145 13.76 36.2262 13.7332C36.2262 13.7332 36.2262 13.7332 36.2262 13.7299V13.7265C36.2262 13.7265 36.2295 13.7198 36.2295 13.7182C36.2295 13.7132 36.2329 13.7098 36.2329 13.7048C36.2412 13.6814 36.2462 13.6563 36.2529 13.6312C36.2529 13.6312 36.2529 13.6278 36.2529 13.6262C36.2529 13.6178 36.2529 13.6128 36.2529 13.6094C36.2529 13.5844 36.2529 13.5576 36.2529 13.5325C36.2529 13.5258 36.2495 13.5124 36.2495 13.5024C36.2445 13.4806 36.2395 13.4589 36.2329 13.4372C36.2295 13.4305 36.2195 13.4087 36.2179 13.3987C36.2095 13.3803 36.2012 13.3652 36.1912 13.3485C36.1862 13.3401 36.1812 13.3318 36.1745 13.3251C36.1612 13.3117 36.1479 13.2966 36.1345 13.2833L36.1429 13.2816ZM50 3.88913V46.1092C50 48.2553 48.2533 50 46.1082 50H3.89179C1.74505 50 0 48.2553 0 46.1092V3.8908C0 1.74467 1.74672 0 3.89179 0H46.1082C48.2549 0 50 1.74467 50 3.8908V3.88913ZM49.3683 46.1092V3.8908C49.3683 2.0926 47.9049 0.630625 46.1065 0.630625H3.89013C2.09174 0.630625 0.628352 2.0926 0.628352 3.8908V46.1109C0.628352 47.9091 2.09174 49.371 3.89013 49.371H8.44695C8.66695 48.4594 8.82362 47.5327 8.9603 46.606C9.26364 44.5619 9.46531 42.5044 9.64532 40.447C9.80033 38.6805 9.92866 36.9108 10.052 35.1427C9.37531 34.3849 8.76362 33.5703 8.24194 32.6988C7.48858 31.4376 6.92023 30.0425 6.68856 28.5872C6.44188 27.0249 6.58855 25.4424 7.08523 23.942C8.14527 20.7387 10.4837 18.2312 12.7538 15.8309C12.7671 15.8158 12.7821 15.8041 12.7971 15.7924C12.6104 15.4361 12.4571 15.0631 12.3587 14.6733C12.0437 13.4372 12.3037 12.0371 12.8904 10.9264C13.8738 9.06795 15.8589 8.12786 17.8623 7.82008C18.5406 7.7147 19.229 7.64779 19.914 7.70633C20.5657 7.76488 21.2024 7.91375 21.8057 8.16968C23.0491 8.69827 23.9991 9.66344 24.5408 10.8912C24.5642 10.9213 24.5792 10.9548 24.5858 10.9933C24.5992 11.0234 24.6025 11.0568 24.6008 11.0886C24.6042 11.1087 24.6075 11.1288 24.6108 11.1472C24.9592 11.2526 25.3058 11.3579 25.6525 11.47C25.9492 11.567 26.2425 11.6674 26.5376 11.7694C26.5559 11.7661 26.5709 11.7661 26.5909 11.7661C27.4459 11.7878 28.2909 11.5737 29.0293 11.1405C29.806 10.6821 30.366 9.96454 31.0677 9.41253C32.2911 8.44903 33.8811 8.09943 35.4162 8.1563C36.8462 8.20983 38.3863 8.65143 39.2063 9.91436C39.998 11.1338 39.9263 12.753 39.383 14.0511C38.8813 15.2454 37.9829 16.2674 36.8479 16.8947C37.7129 17.4718 38.5546 18.0773 39.3763 18.7113C40.6164 19.6698 41.9664 20.7905 42.1814 22.4449C42.2714 23.1357 42.1531 23.8952 41.7431 24.4722C41.4731 24.8503 41.1164 25.0995 40.7197 25.2885C40.7197 25.2969 40.723 25.3069 40.7247 25.317C40.8314 26.1885 40.5997 27.0734 40.1663 27.8311C39.6547 28.726 38.8996 29.4002 38.0279 29.8919C38.0313 29.9053 38.0346 29.9204 38.0363 29.9338C38.1163 30.8504 38.1329 31.7704 38.0846 32.6871C38.0396 33.5118 37.9413 34.3314 37.7963 35.1427C37.6529 35.9389 37.4412 36.71 37.0912 37.441C36.7662 38.1185 36.3779 38.7642 36.0029 39.4165C36.3179 39.91 36.6346 40.4035 36.9512 40.8969C37.1312 41.1796 37.3062 41.4539 37.4413 41.7584C37.9946 43.0029 38.3113 44.3612 38.6146 45.6826C38.6646 45.9001 38.7113 46.1176 38.7596 46.3333V46.3367C38.7696 46.3601 38.773 46.3852 38.7746 46.4086C38.9846 47.3671 39.1713 48.3306 39.343 49.2958C39.3496 49.3192 39.3513 49.346 39.3513 49.3727H46.1082C47.9066 49.3727 49.37 47.9107 49.37 46.1125L49.3683 46.1092ZM41.4547 23.6576C41.6631 23.0437 41.6114 22.3428 41.353 21.7524C41.038 21.0297 40.483 20.4443 39.8963 19.9324C39.2813 19.3955 38.6163 18.9054 37.9563 18.4253C36.5712 17.4216 35.1278 16.4966 33.6378 15.6569C30.806 14.0611 27.8076 12.7781 24.6992 11.8296C24.7075 11.9233 24.7125 12.017 24.7175 12.1123C24.7925 13.5726 24.4808 15.0865 23.6625 16.3143C22.7941 17.619 21.4574 18.4704 19.944 18.8334C19.189 19.0158 18.4039 19.0877 17.6256 19.0726C16.8072 19.0542 15.9705 18.9304 15.2355 18.5491C14.4922 18.1627 13.9488 17.5002 13.4621 16.8378C13.3454 16.6806 13.2338 16.52 13.1271 16.3544C11.8904 17.6625 10.647 18.9773 9.60532 20.4493C8.70362 21.7256 7.95193 23.1223 7.53358 24.6345C7.14357 26.0463 7.0869 27.5217 7.39858 28.9552C7.86193 31.0913 9.0053 33.0116 10.4503 34.6442C10.5737 34.676 10.682 34.783 10.692 34.9118C11.077 35.33 11.4787 35.7265 11.8954 36.1028C12.8504 36.7602 13.8905 37.2838 14.9722 37.6986C16.9206 38.4464 18.964 38.8829 20.9724 39.4349C23.0058 39.992 25.0242 40.6878 26.7926 41.8604C26.8009 41.8654 26.8059 41.8705 26.8109 41.8755C26.8142 41.8788 26.8192 41.8805 26.8242 41.8838C26.8742 41.8387 26.9392 41.8069 27.0242 41.8036C29.3743 41.7149 31.7261 41.6279 34.0778 41.5409C34.0845 41.5108 34.0945 41.479 34.1128 41.4473C34.5695 40.6443 35.0262 39.8414 35.4829 39.0402C35.8795 38.346 36.3045 37.6602 36.6312 36.9292C36.9462 36.225 37.1062 35.4572 37.2312 34.6994C37.4779 33.2123 37.5346 31.6952 37.4213 30.1914C37.0296 30.367 36.6212 30.5109 36.2079 30.6246C35.3695 30.8554 34.5012 30.9792 33.6361 31.0645C32.6528 31.1599 31.6661 31.2 30.6777 31.1833C30.271 31.1766 30.271 30.546 30.6777 30.5527C31.7261 30.5694 32.7761 30.5242 33.8195 30.4155C35.3928 30.2499 37.0329 29.912 38.3313 28.9569C39.4063 28.1657 40.1813 26.881 40.1063 25.5278C39.9397 25.5846 39.7713 25.6382 39.6013 25.69C37.8179 26.2387 35.9779 26.5833 34.1245 26.7974C30.3393 27.2356 26.5209 27.0951 22.7224 26.9496C20.7624 26.8743 18.8023 26.799 16.8406 26.8024C15.9355 26.8024 15.0155 26.789 14.1138 26.876C13.5088 26.9345 12.7988 27.0884 12.4371 27.6254C12.2104 27.9599 11.6637 27.6438 11.8921 27.3059C12.0904 27.0115 12.3521 26.7756 12.6688 26.615C13.3171 26.2838 14.0605 26.232 14.7755 26.2069C15.7339 26.1734 16.6939 26.1667 17.6539 26.1751C19.594 26.1918 21.534 26.2755 23.4724 26.3474C27.1992 26.4862 30.9477 26.5833 34.6545 26.0998C36.4412 25.8673 38.2213 25.4926 39.9313 24.9205C40.293 24.8001 40.6697 24.6613 40.9564 24.4037C41.183 24.2013 41.3514 23.9437 41.448 23.656L41.4547 23.6576ZM39.0196 13.1612C39.3263 11.9735 39.1763 10.5868 38.2313 9.72534C37.2396 8.82038 35.7012 8.6966 34.4261 8.80533C33.7428 8.86387 33.0528 9.01944 32.4294 9.30715C31.7361 9.62832 31.196 10.1117 30.6494 10.6353C30.1027 11.1622 29.5293 11.639 28.8293 11.9451C28.526 12.0789 28.2093 12.1826 27.8893 12.2562C28.791 12.6025 29.6843 12.9771 30.5627 13.3786C30.5927 13.3569 30.6277 13.3401 30.6694 13.3301C31.176 13.2097 31.6811 13.0809 32.1894 12.9688C34.4412 12.4753 36.8379 12.2897 39.0213 13.1595L39.0196 13.1612ZM38.823 13.755C38.7513 13.7265 38.6796 13.6998 38.6063 13.6747C38.4329 14.1815 38.1579 14.6499 37.7929 15.043C37.4396 15.426 36.9962 15.7238 36.5046 15.8961C36.1895 16.0048 35.8545 16.0466 35.5212 16.0366C35.7645 16.1871 36.0062 16.3394 36.2462 16.4933C37.4062 15.9362 38.3413 14.9476 38.8213 13.755H38.823ZM38.1029 49.08L38.663 49.0716C38.5796 48.6066 38.4913 48.1432 38.3996 47.6799C38.3213 47.2885 38.2396 46.8971 38.1546 46.5056C38.1546 46.5023 38.1546 46.5023 38.1513 46.4989C37.7863 45.6224 37.1146 44.8429 36.4379 44.1906C35.8845 43.6553 35.2362 43.2538 34.6095 42.8156C34.4878 43.9279 34.3661 45.042 34.2445 46.1544C34.2378 46.2129 34.2195 46.2681 34.1911 46.3166C34.7762 47.1547 35.3628 47.991 35.9479 48.8291C36.0029 48.9077 36.0029 49.0064 35.9695 49.0934C36.6796 49.09 37.3896 49.085 38.1013 49.08H38.1029ZM37.7163 44.6439C37.6163 44.2591 37.5112 43.8761 37.3962 43.4947C37.3046 43.1886 37.2062 42.8858 37.0996 42.5881C37.0496 42.4526 36.9979 42.3188 36.9446 42.1866C36.9362 42.1649 36.9329 42.1582 36.9329 42.1565C36.9329 42.1565 36.9329 42.1565 36.9246 42.1381C36.9112 42.108 36.8979 42.0762 36.8846 42.0461C36.8612 41.9926 36.8346 41.939 36.8096 41.8855C36.6579 41.5744 36.4579 41.2917 36.2729 40.999C36.0662 40.6761 35.8579 40.3516 35.6512 40.0288L34.6712 41.7517C34.7012 41.8002 34.7178 41.8537 34.7128 41.9106C34.7045 41.9742 34.6995 42.0361 34.6912 42.0996C35.0312 42.3489 35.3878 42.5713 35.7345 42.8105C36.1695 43.1116 36.5796 43.4395 36.9579 43.8108C37.2229 44.0718 37.4796 44.3495 37.7179 44.6422L37.7163 44.6439ZM35.3695 49.0967C34.7978 48.2787 34.2261 47.4608 33.6545 46.6445C32.1194 46.6997 30.5844 46.7565 29.0493 46.8134C28.8443 47.5963 28.586 48.3624 28.2826 49.1134H28.681C29.9877 49.1101 31.2944 49.1084 32.5994 49.1051C33.5228 49.1017 34.4461 49.0984 35.3695 49.0967ZM33.6311 46.0138C33.7628 44.8045 33.8961 43.5917 34.0278 42.3823C33.9811 42.3455 33.9328 42.3087 33.8878 42.2719C33.8595 42.2485 33.8378 42.2167 33.8228 42.1833C31.5927 42.2652 29.361 42.3489 27.1309 42.4325C27.6993 43.6653 28.3026 44.8847 28.9376 46.0841C28.9926 46.1059 29.041 46.1376 29.0776 46.1828C30.596 46.1276 32.1127 46.0724 33.6295 46.0155L33.6311 46.0138ZM32.7961 14.4793C32.6528 14.1966 32.5778 13.8821 32.5861 13.5409C32.2044 13.6212 31.8211 13.7081 31.441 13.7968C31.8961 14.0159 32.3477 14.2434 32.7944 14.4793H32.7961ZM28.4443 46.6395C28.4259 46.5859 28.4209 46.524 28.4293 46.4672C27.8143 45.3079 27.2309 44.132 26.6776 42.9427C26.1342 44.4247 25.5942 45.9068 25.0508 47.3888C25.0425 47.4156 25.0275 47.4407 25.0125 47.4641C25.0558 47.5494 25.0592 47.6515 25.0025 47.7485C24.9225 47.884 24.7075 47.9626 24.5708 47.8606C23.3974 46.984 22.2524 46.0707 21.1257 45.1373C19.119 43.4746 17.1656 41.745 15.2338 39.997C13.9805 38.8612 12.7371 37.7137 11.4854 36.5746C11.4821 36.5746 11.4821 36.5746 11.4804 36.5712C11.4704 36.5628 11.4604 36.5528 11.452 36.5444C11.1804 36.2986 10.9104 36.0543 10.6387 35.8101C10.5904 36.4842 10.542 37.1567 10.492 37.8308C10.3337 39.9134 10.1553 41.9942 9.91866 44.0701C9.72532 45.773 9.51865 47.4926 9.14197 49.167C9.45698 49.1603 9.77366 49.162 10.0903 49.1586C10.9237 49.1519 11.7587 49.1486 12.5938 49.1452C13.7388 49.1419 14.8872 49.1369 16.0322 49.1352C17.3739 49.1318 18.719 49.1302 20.0607 49.1268C21.504 49.1235 22.9474 49.1218 24.3891 49.1185C25.4625 49.1185 26.5359 49.1151 27.6093 49.1134C27.6126 49.1017 27.6159 49.09 27.6209 49.08C27.9559 48.2871 28.2293 47.4691 28.4443 46.6378V46.6395ZM24.5125 47.0325C25.0942 45.4418 25.6742 43.8543 26.2559 42.2636C25.3358 41.6798 24.3491 41.2131 23.3291 40.8367C21.3707 40.1124 19.3223 39.6808 17.3172 39.1188C16.1555 38.7926 15.0005 38.4179 13.8971 37.9278C15.5455 39.4349 17.1989 40.9354 18.8823 42.4041C20.7124 43.9999 22.5774 45.5639 24.5125 47.0325ZM24.0791 13.1344C24.1308 12.4737 24.0925 11.8046 23.9825 11.1589C23.8625 10.8712 23.7091 10.5968 23.5341 10.3392C22.8641 9.35399 21.8041 8.71667 20.654 8.45238C19.4756 8.18307 18.2006 8.32692 17.0372 8.62969C16.5106 8.76685 16.0289 8.94082 15.5605 9.18504C15.3455 9.29544 15.1388 9.41922 14.9405 9.55639C14.7505 9.68686 14.6588 9.75879 14.4805 9.9177C14.1771 10.1887 13.9288 10.4714 13.7355 10.7524C13.6371 10.8963 13.5455 11.0451 13.4621 11.199C13.4204 11.2776 13.3821 11.3563 13.3438 11.4349C13.3254 11.4734 13.3071 11.5135 13.2888 11.552L13.2654 11.6055C13.2654 11.6055 13.2654 11.6055 13.2654 11.6088C13.2654 11.6122 13.2621 11.6122 13.2621 11.6172C13.1488 11.8999 13.0571 12.191 12.9888 12.4887C12.9588 12.6242 12.9338 12.758 12.9138 12.8952C12.9138 12.9086 12.9104 12.9169 12.9104 12.9236C12.9104 12.927 12.9104 12.932 12.9104 12.937L12.8988 13.024C12.8938 13.0792 12.8871 13.1344 12.8838 13.1913C12.8421 13.7115 12.8904 14.2183 13.0354 14.7084C13.7488 14.3739 14.4788 14.0795 15.2288 13.8336C18.0723 12.9069 21.1257 12.671 24.0808 13.1377L24.0791 13.1344ZM23.5891 15.145C23.7841 14.7001 23.9191 14.2334 24.0025 13.755C23.5791 13.6864 23.1541 13.6345 22.7258 13.5977C22.5774 14.4642 22.3791 15.3156 21.7991 16.0048C20.9174 17.0553 19.3606 17.5488 18.0506 17.0954C16.8389 16.6773 15.9289 15.5917 15.7089 14.3388C14.8722 14.5964 14.0538 14.9159 13.2604 15.2922C13.5855 15.973 14.0371 16.6087 14.5372 17.169C14.7838 17.4467 15.0555 17.7027 15.3738 17.8967C15.7022 18.0957 16.0622 18.2229 16.4339 18.3082C17.1472 18.4688 17.9039 18.4704 18.6306 18.4086C19.3373 18.35 20.039 18.1961 20.7007 17.9385C21.9991 17.4283 23.0291 16.4197 23.5908 15.1467L23.5891 15.145ZM20.694 14.118C20.694 14.0795 20.6907 14.0393 20.689 14.0009C20.6857 13.9858 20.6824 13.9691 20.679 13.9524C20.6707 13.9156 20.6607 13.8804 20.6507 13.8453C20.6457 13.8319 20.6407 13.8185 20.6357 13.8068V13.8035C20.6157 13.7667 20.5974 13.7282 20.5757 13.6931C20.5674 13.6797 20.5607 13.6697 20.5524 13.658C20.549 13.6546 20.5407 13.6429 20.534 13.6345C20.5257 13.6262 20.5174 13.6161 20.5157 13.6111C20.5074 13.6011 20.4973 13.591 20.4873 13.581C20.474 13.5676 20.4573 13.5542 20.444 13.5409C20.104 13.5542 19.7623 13.5743 19.424 13.6061C19.4206 13.6111 19.4173 13.6161 19.414 13.6212C19.4073 13.6295 19.404 13.6329 19.4006 13.6362L19.3956 13.6462C19.3856 13.663 19.374 13.678 19.364 13.6931C19.3456 13.7265 19.3273 13.7583 19.3106 13.7934C19.3106 13.7968 19.3073 13.8001 19.3073 13.8018C19.3073 13.8035 19.3073 13.8052 19.3073 13.8085C19.3023 13.8269 19.294 13.8436 19.289 13.862C19.2756 13.9022 19.2673 13.944 19.259 13.9858C19.259 13.9925 19.2556 13.9959 19.2556 13.9992L19.2523 14.041C19.249 14.0828 19.249 14.1263 19.2523 14.1665C19.2523 14.1865 19.2556 14.2066 19.2556 14.2284C19.264 14.2668 19.2723 14.307 19.284 14.3455C19.2873 14.3605 19.3056 14.409 19.3073 14.4174C19.3206 14.4458 19.334 14.4759 19.3506 14.5027C19.3673 14.5311 19.3856 14.5562 19.4023 14.583C19.4023 14.583 19.4034 14.583 19.4056 14.583C19.414 14.593 19.424 14.6047 19.4323 14.6148C19.4606 14.6449 19.4907 14.6733 19.5223 14.7001C19.5257 14.7034 19.539 14.7135 19.5473 14.7201C19.5507 14.7235 19.5557 14.7268 19.5557 14.7268C19.614 14.7653 19.6723 14.7988 19.734 14.8289C19.734 14.8289 19.7423 14.8322 19.7473 14.8339C19.7657 14.8389 19.7823 14.8456 19.8007 14.8523C19.8307 14.8607 19.8623 14.869 19.894 14.8757C19.909 14.8791 19.9257 14.8824 19.9423 14.8841H19.9457C19.9773 14.8841 20.0107 14.8874 20.0423 14.8874C20.0657 14.8874 20.0873 14.8874 20.1123 14.8841C20.1157 14.8841 20.1323 14.8807 20.144 14.8791C20.1523 14.8791 20.159 14.8757 20.1607 14.8757C20.1807 14.8707 20.2023 14.8657 20.2223 14.859C20.2407 14.854 20.2573 14.849 20.2757 14.8406C20.2807 14.8372 20.2857 14.8339 20.2957 14.8272C20.309 14.8188 20.324 14.8105 20.3357 14.8004H20.339L20.349 14.7904C20.3857 14.757 20.419 14.7218 20.4523 14.685L20.4823 14.6465C20.4823 14.6465 20.4873 14.6415 20.489 14.6382C20.489 14.6382 20.489 14.6348 20.4923 14.6348C20.539 14.5713 20.5824 14.5044 20.619 14.4324C20.649 14.3739 20.664 14.3421 20.6857 14.2484C20.689 14.2351 20.6907 14.22 20.694 14.2083C20.694 14.2083 20.694 14.2072 20.694 14.2049C20.6974 14.1748 20.699 14.1431 20.699 14.1129L20.694 14.118ZM17.6356 14.2802C17.6356 14.2618 17.6356 14.2434 17.6323 14.2267L17.5639 14.2451C17.5873 14.2551 17.6106 14.2685 17.6339 14.2802H17.6356Z" fill="white"/>
<path d="M38.663 49.0754L38.103 49.0838C37.3913 49.0905 36.6813 49.0938 35.9713 49.0971C36.0046 49.0085 36.0046 48.9098 35.9496 48.8329C35.3646 47.9948 34.7779 47.1584 34.1929 46.3204C34.2212 46.2719 34.2395 46.2167 34.2462 46.1581C34.3679 45.0458 34.4895 43.9317 34.6112 42.8193C35.2362 43.2559 35.8863 43.6591 36.4396 44.1943C37.1163 44.8467 37.788 45.6262 38.153 46.5027C38.153 46.5061 38.1563 46.5061 38.1563 46.5094C38.2413 46.9008 38.323 47.2923 38.4013 47.6837C38.493 48.147 38.5814 48.6104 38.6647 49.0754H38.663Z" fill="white"/>
<path d="M37.6163 20.3825C37.6196 20.4678 37.578 20.5447 37.523 20.6066C37.4696 20.6652 37.378 20.6986 37.3013 20.6986C37.2246 20.6986 37.128 20.6652 37.078 20.6066C36.9346 20.4377 36.828 20.2436 36.7796 20.0262C36.7313 19.807 36.7329 19.5812 36.7896 19.3654C36.8346 19.1948 37.013 19.1062 37.178 19.1446C37.3446 19.1831 37.4396 19.3738 37.398 19.5327C37.3896 19.5612 37.3863 19.5896 37.3813 19.618C37.3746 19.6816 37.3746 19.7452 37.3813 19.8104C37.393 19.8756 37.4096 19.9375 37.433 19.9994C37.463 20.063 37.498 20.1249 37.543 20.1834C37.5863 20.242 37.613 20.3038 37.618 20.3808L37.6163 20.3825Z" fill="white"/>
<path d="M37.3962 43.4965C37.5095 43.8779 37.6162 44.2609 37.7162 44.6457C37.4762 44.3529 37.2195 44.0752 36.9562 43.8143C36.5795 43.443 36.1695 43.1134 35.7328 42.814C35.3861 42.5748 35.0294 42.3523 34.6894 42.1031C34.6978 42.0395 34.7028 41.9776 34.7111 41.9141C34.7161 41.8572 34.6994 41.8037 34.6694 41.7552L35.6495 40.0322C35.8561 40.3551 36.0645 40.6796 36.2712 41.0024C36.4562 41.2935 36.6578 41.5778 36.8078 41.889C36.8345 41.9425 36.8595 41.996 36.8828 42.0496C36.8962 42.0797 36.9112 42.1114 36.9228 42.1416C36.9312 42.1583 36.9312 42.16 36.9312 42.16C36.9312 42.1633 36.9345 42.1683 36.9428 42.1901C36.9978 42.3222 37.0495 42.456 37.0978 42.5915C37.2045 42.8893 37.3029 43.192 37.3945 43.4982L37.3962 43.4965Z" fill="white"/>
<path d="M36.1397 13.2787C36.1397 13.2787 36.143 13.2787 36.143 13.2821C36.1296 13.2821 36.1179 13.2687 36.1179 13.2637C36.1213 13.267 36.1313 13.2737 36.1397 13.2787Z" fill="white"/>
<path d="M28.4611 21.7425C28.4611 21.7425 28.4528 21.7458 28.4444 21.7458C28.4278 21.7492 28.4061 21.7542 28.4011 21.7558C28.3678 21.7625 28.3361 21.7692 28.3044 21.7776C28.1327 21.8211 27.9694 21.7241 27.9161 21.5568C27.8644 21.3979 27.9761 21.2105 28.1361 21.1687C28.7911 21.0031 29.4745 21.1687 29.9945 21.5953C30.1312 21.7073 30.1011 21.9265 29.9945 22.0419C29.8728 22.1757 29.6761 22.1473 29.5495 22.0419C29.5428 22.0369 29.5395 22.0335 29.5361 22.0318C29.5295 22.0268 29.5228 22.0201 29.5161 22.0168C29.4895 21.9967 29.4611 21.9783 29.4345 21.9616C29.3795 21.9281 29.3211 21.8947 29.2611 21.8662C29.2478 21.8596 29.2361 21.8529 29.2228 21.8478C29.1928 21.8361 29.1628 21.8244 29.1311 21.8144C29.0728 21.7943 29.0144 21.7776 28.9528 21.7642C28.9244 21.7575 28.8978 21.7525 28.8678 21.7475C28.8594 21.7475 28.8494 21.7441 28.8394 21.7441C28.8361 21.7441 28.8344 21.7441 28.8294 21.7441C28.7644 21.7391 28.6994 21.7341 28.6328 21.7341C28.5744 21.7341 28.5094 21.7341 28.4511 21.7441C28.4544 21.7441 28.4578 21.7408 28.4594 21.7408L28.4611 21.7425Z" fill="white"/>
<path d="M28.4611 21.7422C28.4611 21.7422 28.4544 21.7422 28.4527 21.7455C28.4494 21.7455 28.4477 21.7455 28.4443 21.7455C28.4527 21.7455 28.4577 21.7422 28.4611 21.7422Z" fill="white"/>
<path d="M28.4277 46.4689C28.4194 46.5274 28.4244 46.5876 28.4427 46.6411C28.2277 47.4742 27.9543 48.2921 27.6193 49.0834C27.6143 49.0951 27.611 49.1068 27.6077 49.1168C26.5343 49.1168 25.4609 49.1202 24.3876 49.1218C22.9458 49.1252 21.5025 49.1268 20.0591 49.1302C18.7174 49.1335 17.3723 49.1352 16.0306 49.1386C14.8856 49.1419 13.7372 49.1452 12.5922 49.1486C11.7571 49.1519 10.9221 49.157 10.0887 49.162C9.77374 49.1653 9.45706 49.162 9.14038 49.1703C9.51706 47.4959 9.7254 45.778 9.91707 44.0735C10.1537 41.9976 10.3304 39.915 10.4904 37.8342C10.5404 37.16 10.5888 36.4876 10.6371 35.8135C10.9088 36.0577 11.1788 36.3019 11.4505 36.5478C11.4588 36.5562 11.4688 36.5662 11.4788 36.5746C11.4788 36.5779 11.4821 36.5779 11.4838 36.5779C12.7355 37.7154 13.9789 38.8646 15.2322 40.0004C17.1656 41.75 19.1174 43.478 21.1241 45.1407C22.2508 46.0741 23.3959 46.9874 24.5692 47.8639C24.7059 47.966 24.9209 47.8873 25.0009 47.7519C25.0576 47.6532 25.0542 47.5528 25.0109 47.4675C25.0259 47.4441 25.0392 47.419 25.0492 47.3922C25.5926 45.9102 26.1326 44.4281 26.676 42.9461C27.2293 44.1354 27.811 45.3113 28.4277 46.4705V46.4689Z" fill="white"/>
<path d="M26.2543 42.2654C25.6726 43.8562 25.0925 45.4437 24.5109 47.0344C22.5758 45.5658 20.7124 44.0018 18.8807 42.406C17.1973 40.939 15.5439 39.4368 13.8955 37.9297C14.9989 38.4198 16.1522 38.7945 17.3156 39.1207C19.3224 39.6827 21.3691 40.1143 23.3275 40.8386C24.3475 41.2166 25.3342 41.6833 26.2543 42.2654Z" fill="white"/>
<path d="M13.2556 15.2878C13.2556 15.2878 17.5524 12.8205 23.9976 13.7506C23.7776 17.3118 20.2992 18.5396 17.6308 18.5396C14.9623 18.5396 13.879 16.4771 13.2556 15.2878Z" fill="#F9F8F4"/>
<mask id="mask0_8375_32544" style="mask-type:luminance" maskUnits="userSpaceOnUse" x="13" y="13" width="11" height="6">
<path d="M13.2559 15.2868C13.2559 15.2868 17.5527 12.8195 23.9979 13.7496C23.7779 17.3109 20.2994 18.5386 17.631 18.5386C14.9626 18.5386 13.8792 16.4762 13.2559 15.2868Z" fill="white"/>
</mask>
<g mask="url(#mask0_8375_32544)">
<path d="M15.4707 14.0296C15.4707 14.0296 15.9891 17.6711 19.4058 17.2413C23.3376 16.7461 22.7493 13.2735 22.7493 13.2735C22.7493 13.2735 17.7408 12.9122 15.4707 14.0296Z" fill="#252525"/>
<path d="M19.6809 15.0264C20.0914 15.0264 20.4242 14.6939 20.4242 14.2837C20.4242 13.8735 20.0914 13.541 19.6809 13.541C19.2703 13.541 18.9375 13.8735 18.9375 14.2837C18.9375 14.6939 19.2703 15.0264 19.6809 15.0264Z" fill="#F9F8F4"/>
</g>
<path d="M31.4411 13.7889C31.4411 13.7889 35.1696 12.5511 38.943 13.533C38.593 15.3864 36.2463 16.487 36.2463 16.487C36.2463 16.487 32.3145 14.3777 31.4395 13.7889H31.4411Z" fill="#F9F8F4"/>
<mask id="mask1_8375_32544" style="mask-type:luminance" maskUnits="userSpaceOnUse" x="31" y="13" width="8" height="4">
<path d="M31.4414 13.7899C31.4414 13.7899 35.1698 12.552 38.9433 13.5339C38.5933 15.3873 36.2465 16.488 36.2465 16.488C36.2465 16.488 32.3147 14.3787 31.4397 13.7899H31.4414Z" fill="white"/>
</mask>
<g mask="url(#mask1_8375_32544)">
<path d="M33.8631 12.9043C33.8631 12.9043 32.9348 15.3147 35.7049 15.5723C38.2333 15.8082 38.4066 12.9394 38.4066 12.9394L33.8631 12.9043Z" fill="#252525"/>
<path d="M35.8165 14.2742C36.1607 14.2742 36.4398 13.9949 36.4398 13.6503C36.4398 13.3057 36.1607 13.0264 35.8165 13.0264C35.4722 13.0264 35.1931 13.3057 35.1931 13.6503C35.1931 13.9949 35.4722 14.2742 35.8165 14.2742Z" fill="#F9F8F4"/>
</g>
<path d="M26.1993 43.6707C25.6943 45.1528 25.1709 46.6298 24.6259 48.0985L25.0892 47.9095C22.1408 45.6412 19.274 43.2693 16.494 40.7986C15.7106 40.1028 14.9356 39.4002 14.1655 38.6893C13.8672 38.4133 13.4205 38.8599 13.7189 39.1359C16.4706 41.6785 19.3107 44.1257 22.2341 46.4675C23.0725 47.1383 23.9175 47.8024 24.7692 48.4564C24.9442 48.5919 25.1709 48.4347 25.2326 48.2674C25.7776 46.7988 26.3009 45.3234 26.806 43.8397C26.9376 43.4549 26.3276 43.2893 26.1976 43.6724L26.1993 43.6707Z" fill="#252525"/>
<path d="M34.4777 43.5112C35.1911 44.5333 35.9878 45.4968 36.8612 46.385C36.9895 46.5155 37.2745 46.5105 37.3562 46.3214C38.1895 44.3995 38.9662 42.4557 39.6846 40.4886C39.7429 40.328 39.6196 40.1423 39.4646 40.1005C39.2896 40.052 39.1346 40.1607 39.0762 40.3213C38.3762 42.2366 37.6212 44.1318 36.8112 46.0036L37.3062 45.9401C36.4695 45.0903 35.7028 44.1736 35.0211 43.1934C34.9244 43.0546 34.7444 42.9893 34.5894 43.0797C34.4511 43.16 34.3777 43.3707 34.4761 43.5112H34.4777Z" fill="#252525"/>
</svg>
