<svg width="50" height="50" viewBox="0 0 50 50" fill="none" xmlns="http://www.w3.org/2000/svg">
<path d="M45.5545 0.663086H4.44394C2.33777 0.663086 0.630371 2.36866 0.630371 4.4726V45.5394C0.630371 47.6434 2.33777 49.349 4.44394 49.349H45.5545C47.6607 49.349 49.3681 47.6434 49.3681 45.5394V4.4726C49.3681 2.36866 47.6607 0.663086 45.5545 0.663086Z" fill="#252525"/>
<path d="M39.6149 38.4917C39.3515 38.6833 39.088 38.8748 38.8246 39.068C38.6795 38.7232 38.5277 38.3818 38.366 38.0453C37.8958 37.0658 37.3605 36.1197 36.7869 35.1969C37.0203 35.0753 37.2521 34.9487 37.4789 34.8154C38.311 35.9664 39.0263 37.1991 39.6149 38.4917Z" fill="white"/>
<path d="M41.5175 46.0125C41.5909 47.1135 41.5792 48.2179 41.4842 49.3173H40.6838C40.6637 47.3384 40.5404 45.3545 40.1618 43.4089C39.9117 42.1213 39.5382 40.8687 39.0613 39.651C39.0863 39.6427 39.1113 39.6344 39.1313 39.6194C39.3781 39.4412 39.6232 39.2612 39.87 39.083C40.0018 39.3928 40.1268 39.706 40.2402 40.0225C40.9422 41.9464 41.3791 43.9703 41.5158 46.0141L41.5175 46.0125Z" fill="white"/>
<path d="M39.1196 49.214C38.5676 49.219 38.0173 49.2224 37.4687 49.2257C36.4932 49.2307 35.5194 49.234 34.5439 49.2374C33.8836 49.2407 33.2216 49.2407 32.5613 49.2423C32.9732 47.3584 33.375 45.4612 33.4934 43.5322C33.937 43.3673 34.3822 43.2024 34.8274 43.0359C34.8658 43.0225 34.9008 43.0025 34.9325 42.9775C36.3148 44.3751 37.4854 45.9675 38.4025 47.7049C38.6643 48.1979 38.9045 48.701 39.1212 49.214H39.1196Z" fill="white"/>
<path d="M34.7757 40.4025C34.7306 41.0721 34.719 41.7417 34.7423 42.413C34.714 42.413 34.6856 42.4164 34.6573 42.4264C34.2304 42.5846 33.8052 42.7445 33.38 42.9028C33.37 42.8978 33.36 42.8928 33.3499 42.8894C33.3449 42.8861 33.3416 42.8811 33.3349 42.8761C33.0548 42.6945 32.7797 42.5063 32.5079 42.3131C32.3728 42.2165 32.2394 42.1166 32.106 42.0149C32.076 41.9916 32.046 41.97 32.0159 41.945C32.0159 41.945 31.9543 41.8967 31.9476 41.8917C31.8825 41.8417 31.8192 41.7901 31.7542 41.7384C31.7975 40.3742 31.9259 39.0133 32.141 37.6641C32.9914 38.6019 33.8702 39.5147 34.7773 40.3992L34.7757 40.4025Z" fill="white"/>
<path d="M28.3608 49.2499C27.9589 49.2499 27.5554 49.2533 27.1535 49.2533C26.2914 49.2533 25.431 49.2566 24.5689 49.2583C23.415 47.5826 22.2461 45.9068 20.8687 44.4027C20.5719 44.0779 20.2651 43.763 19.9482 43.4582C21.2372 43.0184 22.5129 42.5421 23.7752 42.0273C23.8719 42.1706 23.9703 42.3122 24.0686 42.4538C25.1042 43.9329 26.213 45.3638 27.1518 46.9079C27.6071 47.6592 28.0239 48.4387 28.3591 49.2499H28.3608Z" fill="white"/>
<path d="M23.8084 49.2583C23.6249 49.2583 23.4432 49.2583 23.2597 49.2583C22.0475 49.2616 20.8335 49.2633 19.6213 49.2666C18.5924 49.2699 17.5636 49.2716 16.5347 49.2766C15.7777 49.2799 15.0223 49.2849 14.2653 49.2899C14.0051 49.2933 13.745 49.2933 13.4849 49.2983C13.5649 48.622 13.6683 47.9474 13.8234 47.2827C13.9768 46.6248 14.1752 45.9768 14.3603 45.3272C14.6204 44.411 14.8455 43.4865 15.1507 42.5854C15.4558 41.6842 15.8194 40.8047 16.2579 39.9602C16.7482 39.0157 17.3251 38.1129 18.0071 37.295C18.0155 37.285 18.0238 37.2734 18.0305 37.2617C18.0505 37.2667 18.0722 37.2734 18.0922 37.28C18.0922 37.2934 18.0922 37.3067 18.0955 37.3183C18.4307 39.2256 18.8909 41.1079 19.4745 42.9519C19.4062 42.9752 19.3378 43.0001 19.2694 43.0218C19.0543 43.0918 18.9459 43.3799 19.131 43.5482C20.6851 44.9657 21.9724 46.6381 23.1814 48.3521C23.3915 48.652 23.5999 48.9518 23.8084 49.2533V49.2583Z" fill="white"/>
<path d="M22.5997 40.1788C22.8582 40.6269 23.135 41.065 23.4201 41.4964C22.3129 41.9445 21.1974 42.3643 20.0701 42.7524C19.5232 41.015 19.0846 39.2477 18.7578 37.457C19.188 37.5586 19.6199 37.6403 20.0401 37.7152C20.437 37.7852 20.8339 37.8418 21.2341 37.8935C21.801 38.5781 22.1595 39.4143 22.5997 40.1788Z" fill="white"/>
<path d="M33.0698 11.2935C33.1815 11.2252 33.2849 11.1502 33.38 11.0686C33.2699 12.3879 32.5212 13.5938 31.5357 14.4783C30.2117 15.6627 28.4592 16.2423 26.7717 16.6838C24.8707 17.1835 22.9531 17.6232 20.9904 17.7732C19.9816 17.8514 18.9528 17.8897 17.9423 17.8015C17.1252 17.7298 16.3331 17.5166 15.6128 17.1202C14.2504 16.3706 13.2116 15.0847 12.7947 13.5905C13.0681 13.6455 13.3349 13.7438 13.6034 13.8154C13.9536 13.907 14.3171 13.9486 14.679 13.9253C15.4177 13.8754 16.1063 13.5972 16.6733 13.1241C16.78 13.0358 16.7867 12.8726 16.725 12.7543C16.5365 11.6982 16.3448 10.6405 16.1564 9.58443C15.9729 8.565 15.7061 7.51061 15.8045 6.46953C15.9579 4.82545 17.3403 3.69607 18.731 3.01812C19.5431 2.62168 20.4185 2.34685 21.2989 2.15862C22.2627 1.95207 23.2549 1.87211 24.2371 1.96539C25.1525 2.05367 26.138 2.28522 26.8967 2.82491C27.6238 3.34129 28.034 4.20247 28.3458 5.01035C29.0711 6.88096 29.4213 8.88482 29.3713 10.8904C29.3663 11.1002 29.3546 11.3085 29.3413 11.5183C29.3329 11.535 29.3263 11.5517 29.3213 11.5683C29.2729 11.7416 29.3813 11.8981 29.5414 11.9548C30.3351 12.2379 31.2055 12.1163 31.9776 11.8232C32.3528 11.6799 32.7263 11.51 33.0698 11.2968V11.2935Z" fill="white"/>
<path d="M40.0517 18.1331C41.1956 19.4857 42.0477 21.0998 42.3845 22.8338C42.4629 22.7539 42.5513 22.6839 42.6413 22.6239C42.8481 22.4857 43.0832 22.394 43.3 22.2774C43.5284 22.1542 43.7485 22.0176 43.9603 21.871C44.3772 21.5828 44.7574 21.2414 45.1009 20.8682C45.7996 20.1037 46.3215 19.1809 46.6016 18.1831C46.9168 17.0687 46.9418 15.8761 46.6733 14.75C46.6033 14.4619 46.5166 14.177 46.4115 13.9005C46.3498 13.7356 46.2698 13.4774 46.073 13.4341C45.948 13.4058 45.7762 13.5374 45.6612 13.659C45.4994 13.8272 45.3777 14.0288 45.2743 14.237C44.7741 15.2498 44.1904 16.2392 43.3317 16.9921C42.4746 17.7433 41.359 18.2481 40.2018 18.1814C40.1417 18.1781 40.0917 18.1598 40.05 18.1331H40.0517ZM39.7465 49.2056C39.8483 49.2056 39.95 49.2023 40.0517 49.2023C40.0384 48.1279 39.9967 47.0552 39.8949 45.9841C39.7215 44.1435 39.358 42.3245 38.7427 40.5771C38.2758 39.2512 37.6672 37.9853 36.9768 36.7626C37.292 38.3667 37.2103 40.0491 36.7284 41.6132C36.6567 41.8448 36.3782 41.9147 36.2014 41.7515C35.9246 41.4966 35.6495 41.2384 35.376 40.9786C35.356 41.4949 35.3543 42.0113 35.376 42.5277C35.7512 42.9075 36.1147 43.3006 36.4582 43.7087C37.8189 45.3211 38.9178 47.1251 39.7349 49.0674C39.7549 49.1123 39.7549 49.1606 39.7449 49.2056H39.7465ZM39.8433 10.7606C39.8349 10.7789 39.8282 10.7939 39.8249 10.8023C39.8049 10.8622 39.7849 10.9222 39.7632 10.9805C39.7249 11.0921 39.6848 11.202 39.6432 11.312C39.5481 11.5568 39.4481 11.7984 39.3347 12.0349C38.9295 12.8944 38.3775 13.689 37.5705 14.2137C37.0869 14.5302 36.5349 14.775 35.963 14.9199C36.2248 15.0615 36.4849 15.2081 36.7384 15.3564C37.7922 15.976 38.7677 16.7439 39.6065 17.6334C39.5948 17.5635 39.6065 17.4935 39.6448 17.4335C40.2568 16.5423 40.6537 15.5046 40.7671 14.4269C40.8638 13.5024 40.7971 12.503 40.4319 11.6384C40.3418 11.4269 40.2285 11.222 40.0917 11.0371C40.0217 10.9438 39.9433 10.8572 39.8616 10.7756C39.8566 10.7723 39.8483 10.7656 39.8399 10.7573L39.8433 10.7606ZM39.8499 17.8999C39.8766 17.9282 39.905 17.9582 39.93 17.9882C39.9183 17.9615 39.91 17.9349 39.905 17.9066C39.8866 17.9066 39.8683 17.9033 39.8499 17.8999ZM39.8783 10.6557C39.8783 10.644 39.8349 10.559 39.8683 10.659C39.8716 10.659 39.8766 10.659 39.8783 10.6557ZM24.3205 49.9469H13.0549C13.0549 49.9469 13.0449 49.9469 13.0415 49.9469C13.0415 49.9469 13.0426 49.9469 13.0449 49.9469H3.89195C1.74587 49.9469 0 48.2045 0 46.059V3.88782C0 1.74403 1.74421 0 3.89195 0H46.1081C48.2541 0 50 1.74237 50 3.88782V46.059C50 48.2028 48.2558 49.9469 46.1081 49.9469H24.659C24.659 49.9469 24.649 49.9552 24.644 49.9585C24.5356 50.0218 24.4139 50.0085 24.3188 49.9469H24.3205ZM6.11306 14.4868C6.03468 14.4552 6.00967 14.4535 5.92796 14.4635C5.92796 14.4635 5.87294 14.4768 5.86293 14.4802C5.82625 14.4918 5.82958 14.4885 5.78956 14.5135C5.75788 14.5335 5.69285 14.6001 5.65783 14.6601C5.45106 14.9982 5.49608 15.4963 5.52276 15.8744C5.54944 16.2692 5.62448 16.659 5.73287 17.0404C5.95631 17.81 6.3365 18.5429 6.84009 19.1675C7.35201 19.8072 7.97565 20.3502 8.69268 20.7483C9.04119 20.9432 9.40637 21.0998 9.78656 21.2147C10.1934 21.3363 10.7087 21.348 11.0238 21.6645C11.379 22.0193 11.279 22.5173 10.9755 22.8638C10.652 23.2336 10.1834 23.3935 9.71986 23.4984C8.65933 23.7383 7.52876 23.6983 6.49158 23.3652C5.54277 23.0603 4.69235 22.529 3.77022 22.1608C3.53677 22.0676 3.29998 21.9843 3.05653 21.9193C2.85476 21.8644 2.61631 21.7927 2.4062 21.8444C2.07104 21.9243 2.08771 22.3791 2.1294 22.6589C2.36452 24.2813 3.38169 25.7921 4.65733 26.7899C5.29932 27.2946 6.03969 27.6827 6.82341 27.9143C7.83225 28.2124 8.89945 28.2274 9.91663 28.4939C10.3769 28.6155 10.9221 28.7754 11.1522 29.2352C11.3623 29.6516 11.279 30.1797 11.0105 30.5495C10.7137 30.9559 10.2568 31.1791 9.7899 31.334C9.27631 31.5023 8.74437 31.6205 8.21077 31.6988C7.66717 31.7788 7.11856 31.8237 6.56995 31.8204C6.05303 31.8171 5.54611 31.7554 5.03252 31.7038C4.69068 31.6688 4.2688 31.6238 3.96198 31.8004C3.64349 31.9836 3.62681 32.3418 3.74354 32.6599C3.89528 33.068 4.22211 33.3845 4.55061 33.6544C4.90579 33.9475 5.31099 34.1824 5.72453 34.379C6.6083 34.7987 7.58046 35.0269 8.5426 35.1819C10.7003 35.5317 12.9315 35.4067 15.0425 34.847C15.1309 34.8237 15.2059 34.837 15.2676 34.8704C15.3143 34.8837 15.356 34.9087 15.3877 34.947C15.5244 35.1152 15.6712 35.2751 15.8329 35.4234C16.4766 36.0114 17.297 36.3762 18.1224 36.631C19.0429 36.9142 19.9967 37.0891 20.9488 37.2257C21.0789 37.244 21.2089 37.259 21.3407 37.2773C21.4057 37.2657 21.4707 37.274 21.5291 37.3007C23.3467 37.5205 25.1893 37.5405 27.0102 37.3756C29.0178 37.194 31.0055 36.776 32.9165 36.1396C33.8736 35.8215 34.8124 35.4484 35.7245 35.0169C36.5983 34.6055 37.4654 34.1491 38.2308 33.5561C38.9795 32.9781 39.6131 32.2651 40.005 31.4006C40.3702 30.5911 40.4836 29.6633 40.2184 28.8104C39.4864 29.2885 38.6643 29.635 37.8506 29.9415C34.9825 31.0208 31.9593 31.6472 28.9145 31.9437C27.392 32.0919 25.8613 32.1619 24.3322 32.1469C22.7414 32.1319 21.1456 32.0036 19.5915 31.6555C19.1946 31.5655 19.3647 30.9592 19.7599 31.0475C20.1251 31.1291 20.4936 31.2008 20.8654 31.2591C22.3628 31.4956 23.8869 31.5372 25.3994 31.5106C26.8801 31.4856 28.3575 31.389 29.8266 31.2124C32.7064 30.8659 35.5928 30.203 38.2808 29.0969C39.3547 28.6539 40.4769 28.0592 41.1656 27.0897C41.9193 26.0253 42.021 24.6628 41.8509 23.4051C41.5358 21.0831 40.2301 19.001 38.5209 17.4402C37.6322 16.629 36.6367 15.9843 35.5711 15.433C35.0942 15.1864 34.614 14.9416 34.1104 14.7517C33.6101 14.5635 33.0932 14.4319 32.573 14.3186C32.2611 14.6734 31.916 14.9966 31.5474 15.2797C30.045 16.4341 28.1741 16.9821 26.3615 17.4335C25.3577 17.6834 24.3522 17.9282 23.3333 18.1048C22.2778 18.2864 21.2106 18.4013 20.1384 18.4446C19.0862 18.4879 18.004 18.4996 16.9685 18.2814C16.1798 18.1148 15.4227 17.78 14.7624 17.3203C14.734 17.3003 14.7057 17.2786 14.6773 17.257C14.4722 17.3769 14.2638 17.4868 14.037 17.5618C13.7485 17.6601 13.4417 17.73 13.1416 17.785C10.5269 18.2564 8.08404 16.6007 6.41154 14.735C6.29481 14.7151 6.2031 14.6234 6.15474 14.5068C6.15141 14.5068 6.11639 14.4802 6.11639 14.4785L6.11306 14.4868ZM49.3697 46.059V3.88782C49.3697 2.09217 47.9073 0.631317 46.1097 0.631317H3.89195C2.09438 0.631317 0.631983 2.09217 0.631983 3.88782V46.059C0.631983 47.8547 2.09438 49.3155 3.89195 49.3155H12.8498C12.9465 48.506 13.0682 47.6981 13.2633 46.9052C13.4384 46.2023 13.6552 45.5093 13.8486 44.8097C14.1121 43.8586 14.3572 42.9092 14.6923 41.9797C15.3343 40.2057 16.2114 38.5216 17.397 37.0508C16.4949 36.7127 15.6628 36.2296 15.0325 35.495C14.5523 35.6166 14.0687 35.7199 13.5801 35.7965C11.3707 36.1446 9.05453 36.068 6.89345 35.47C5.9263 35.2018 4.99416 34.7987 4.20043 34.1774C3.50842 33.6361 2.69802 32.6616 3.17325 31.7338C3.62681 30.8476 4.76071 31.0525 5.56612 31.1358C6.67167 31.2507 7.7939 31.1858 8.8761 30.9309C9.34467 30.8193 9.87994 30.706 10.2718 30.4095C10.5303 30.2146 10.7821 29.7849 10.5603 29.4751C10.4419 29.3068 10.2101 29.2402 10.025 29.1819C9.75655 29.0969 9.48141 29.0336 9.2046 28.982C8.65933 28.8787 8.10739 28.8204 7.55878 28.7255C5.76121 28.4157 4.13373 27.4629 2.99817 26.0303C2.44622 25.3324 2.01101 24.5495 1.73587 23.7016C1.49742 22.9687 1.16225 21.6745 2.10272 21.283C2.58296 21.0831 3.16658 21.2747 3.63182 21.4396C4.1254 21.6128 4.59897 21.8394 5.06753 22.0692C6.02134 22.534 6.97015 22.9604 8.04736 23.0154C8.58929 23.0437 9.1329 22.9954 9.65983 22.8654C9.99333 22.7838 10.5036 22.6289 10.6136 22.2675C10.627 22.2192 10.637 22.1958 10.592 22.1325C10.5569 22.0859 10.5019 22.0576 10.4486 22.0359C10.2485 21.9543 10.0183 21.9343 9.80824 21.8777C9.38636 21.7661 8.97615 21.6062 8.58596 21.4096C7.02685 20.62 5.81124 19.1909 5.23095 17.5485C4.93914 16.7256 4.78239 15.7828 4.91579 14.9133C4.98583 14.4569 5.23595 13.9971 5.70952 13.8672C6.02301 13.7806 6.33984 13.8522 6.55661 14.0571C6.61664 14.0671 6.67334 14.0954 6.71502 14.142C7.18026 14.6784 7.68884 15.1798 8.24412 15.6262C9.18126 16.3808 10.2851 16.9854 11.4841 17.187C12.046 17.2819 12.633 17.2669 13.1883 17.137C13.4351 17.0804 13.6868 17.0271 13.9236 16.9388C13.987 16.9155 14.0604 16.8788 14.1371 16.8389C13.1299 15.9477 12.3895 14.7567 12.1044 13.4341C12.081 13.3192 12.1144 13.2242 12.1761 13.1576C12.1994 13.026 12.2995 12.9111 12.4746 12.9161C13.1816 12.936 13.8152 13.3075 14.5256 13.2942C15.0809 13.2842 15.6378 13.101 16.088 12.7728C16.0497 12.5529 16.008 12.3314 15.9697 12.1115C15.7696 10.9955 15.5678 9.87778 15.3677 8.76174C15.1793 7.70567 15.0025 6.59796 15.3527 5.55355C15.9096 3.88949 17.4654 2.83507 19.0195 2.1921C20.9155 1.40755 23.0799 1.05276 25.1092 1.45253C26.083 1.64575 27.0769 2.00887 27.7672 2.75179C28.4426 3.47804 28.8227 4.42917 29.1446 5.35198C29.8166 7.29089 30.0984 9.36806 29.9783 11.4152C30.5553 11.5452 31.1472 11.4436 31.7075 11.2453C32.0277 11.1304 32.3362 10.9838 32.633 10.8172C32.8581 10.6907 33.1232 10.5291 33.2166 10.2726C33.2633 10.141 33.3767 10.046 33.5134 10.0427C33.5685 10.006 33.6301 9.98272 33.6918 9.98272C33.8753 9.98272 33.9887 10.1293 34.007 10.2975C34.0303 10.5058 34.0387 10.714 34.0303 10.9222C33.9903 11.9599 33.5968 12.9327 33.0032 13.7706C33.1716 13.8089 33.3383 13.8505 33.5051 13.8972C34.0087 14.0354 34.4989 14.2203 34.9808 14.4352C35.0025 14.4302 35.0258 14.4269 35.0509 14.4252C35.5428 14.4052 36.033 14.267 36.4849 14.0771C36.9385 13.8872 37.3837 13.629 37.7422 13.2858C38.4742 12.5846 38.9045 11.5752 39.2196 10.6307C39.298 10.3958 39.398 10.1343 39.6682 10.0693C39.9767 9.99438 40.2268 10.2292 40.4169 10.4391C40.7621 10.8206 40.9955 11.282 41.1522 11.7684C41.7676 13.669 41.3874 15.8777 40.3218 17.5518C40.5486 17.5584 40.7754 17.5435 41.0005 17.5001C42.1227 17.2769 43.0582 16.534 43.7269 15.6312C44.0754 15.1615 44.3672 14.6518 44.6273 14.127C44.8574 13.664 45.1326 13.1343 45.6261 12.8994C45.8879 12.7761 46.1731 12.7628 46.4332 12.8961C46.68 13.0227 46.8284 13.2609 46.9335 13.5074C47.1753 14.0737 47.332 14.6784 47.4154 15.2881C47.5838 16.519 47.4587 17.7933 47.0102 18.9527C46.6166 19.9721 45.9997 20.9016 45.2076 21.6561C44.8157 22.0309 44.3789 22.3674 43.9136 22.6489C43.6885 22.7855 43.4517 22.9038 43.2149 23.0187C43.0915 23.0787 42.7714 23.2236 42.7764 23.3785C42.7764 23.4035 42.8414 23.4651 42.8881 23.4951C42.9915 23.5634 43.1116 23.6 43.2299 23.635C43.5201 23.7216 43.8186 23.7683 44.1187 23.7849C44.754 23.8182 45.3894 23.7466 46.0213 23.695C46.5816 23.6483 47.352 23.5034 47.7105 24.0615C48.009 24.5229 47.8639 25.1725 47.6255 25.6272C47.1002 26.6283 45.9413 27.203 44.9275 27.5745C43.7719 27.9992 42.5146 28.1591 41.289 28.0409C41.2556 28.0375 41.2239 28.0292 41.1939 28.0192C41.1839 28.0309 41.1739 28.0425 41.1623 28.0525C41.0122 28.2008 40.8538 28.339 40.6903 28.4673C40.7504 28.5023 40.7987 28.5589 40.8237 28.6422C40.8971 28.8771 40.9421 29.1169 40.9722 29.3601C41.0839 30.3329 40.8004 31.3307 40.3168 32.1702C39.8099 33.048 39.0562 33.756 38.2291 34.3323C38.1591 34.3823 38.0857 34.4289 38.014 34.4756C38.6593 35.3701 39.2396 36.3112 39.7415 37.2957C40.6987 39.1696 41.3924 41.1785 41.7892 43.244C42.1744 45.2412 42.2895 47.2867 42.1144 49.3122H46.1081C47.9056 49.3122 49.368 47.8514 49.368 46.0557L49.3697 46.059ZM46.7534 25.7688C47.0419 25.4607 47.2903 25.0309 47.2403 24.5928C47.2153 24.3629 47.0819 24.2863 46.8634 24.2813C46.5649 24.273 46.2631 24.3063 45.9646 24.3313C45.361 24.3813 44.7557 24.4479 44.1487 24.4179C43.6268 24.3913 42.9815 24.318 42.5313 24.0115C42.5363 24.1048 42.5446 24.198 42.5446 24.293C42.568 25.419 42.3112 26.5284 41.6792 27.4396C41.8443 27.4479 42.011 27.4529 42.1778 27.4512C43.335 27.4362 44.4922 27.158 45.5244 26.635C45.9747 26.4085 46.4082 26.1403 46.7517 25.7688H46.7534ZM41.4857 49.3155C41.5825 48.2162 41.5925 47.1118 41.5191 46.0107C41.3824 43.9669 40.9455 41.943 40.2435 40.0191C40.1284 39.7026 40.0033 39.3895 39.8733 39.0797C39.6265 39.2579 39.3814 39.4378 39.1346 39.616C39.1129 39.631 39.0895 39.6393 39.0645 39.6477C39.5414 40.8653 39.915 42.1196 40.1651 43.4055C40.5419 45.3511 40.6653 47.335 40.687 49.3139H41.4874L41.4857 49.3155ZM38.8261 39.0663C39.0895 38.8731 39.353 38.6815 39.6165 38.49C39.0278 37.1974 38.3125 35.9647 37.4804 34.8137C37.2536 34.947 37.0218 35.0752 36.7884 35.1952C37.362 36.118 37.8956 37.0641 38.3675 38.0436C38.5309 38.38 38.681 38.7215 38.8261 39.0663ZM37.4704 49.2239C38.0207 49.2206 38.571 49.2173 39.1212 49.2123C38.9045 48.6976 38.6627 48.1945 38.4025 47.7031C37.4854 45.9658 36.3148 44.3733 34.9325 42.9758C34.9008 42.9991 34.8658 43.0191 34.8274 43.0341C34.3839 43.2007 33.9386 43.3656 33.4934 43.5305C33.375 45.4594 32.9732 47.3567 32.5613 49.2406C33.2216 49.2406 33.8836 49.2373 34.5439 49.2356C35.5194 49.2323 36.4932 49.2289 37.4687 49.2239H37.4704ZM36.2615 40.9436C36.7 39.1729 36.61 37.3023 36.008 35.5783C35.8513 35.6516 35.6945 35.7232 35.5394 35.7932C34.5773 36.2213 33.5901 36.5961 32.5846 36.9092C32.5129 36.9325 32.4396 36.9509 32.3695 36.9725C33.305 38.0153 34.2738 39.0263 35.276 40.0041C35.3143 40.0274 35.346 40.0608 35.3727 40.0974C35.6662 40.3823 35.963 40.6638 36.2631 40.9436H36.2615ZM34.7457 42.4111C34.7224 41.7398 34.7324 41.0702 34.7791 40.4006C33.8736 39.5161 32.9932 38.6032 32.1427 37.6654C31.9276 39.0147 31.8009 40.3756 31.7559 41.7398C31.8209 41.7915 31.8843 41.8414 31.9493 41.8931C31.956 41.8981 32.016 41.9447 32.0177 41.9464C32.0477 41.9697 32.0777 41.993 32.1077 42.0163C32.2395 42.1179 32.3745 42.2162 32.5096 42.3145C32.7814 42.5094 33.0565 42.6959 33.3367 42.8775C33.3433 42.8808 33.3467 42.8858 33.3517 42.8908C33.3617 42.8942 33.3717 42.8992 33.3817 42.9042C33.8086 42.7459 34.2338 42.586 34.659 42.4278C34.6873 42.4178 34.7157 42.4144 34.744 42.4144L34.7457 42.4111ZM33.3834 11.0671C33.2866 11.1487 33.1833 11.2253 33.0732 11.292C32.7297 11.5035 32.3562 11.6751 31.981 11.8184C31.2089 12.1115 30.3385 12.2331 29.5448 11.9499C29.383 11.8933 29.2763 11.7367 29.3247 11.5635C29.3297 11.5452 29.338 11.5302 29.3447 11.5135C29.358 11.3036 29.3697 11.0954 29.3747 10.8855C29.4247 8.88001 29.0745 6.87613 28.3492 5.00552C28.0357 4.19764 27.6255 3.33646 26.9001 2.82009C26.1414 2.28039 25.1559 2.04885 24.2405 1.96056C23.2583 1.86728 22.2661 1.94724 21.3023 2.1538C20.4219 2.34202 19.5464 2.61687 18.7344 3.01332C17.342 3.6896 15.9613 4.81896 15.8079 6.4647C15.7095 7.50744 15.9763 8.56018 16.1597 9.5796C16.3482 10.6357 16.5399 11.6934 16.7284 12.7495C16.7901 12.8678 16.7834 13.031 16.6767 13.1193C16.1097 13.5923 15.421 13.8705 14.6823 13.9205C14.3222 13.9438 13.957 13.9022 13.6068 13.8106C13.3383 13.7389 13.0715 13.6407 12.7981 13.5857C13.2149 15.0798 14.2538 16.3658 15.6161 17.1154C16.3365 17.5118 17.1269 17.725 17.9456 17.7966C18.9561 17.8849 19.985 17.8466 20.9938 17.7683C22.9565 17.6184 24.8741 17.1803 26.7751 16.6789C28.4626 16.2358 30.2151 15.6578 31.5391 14.4735C32.5263 13.5907 33.2733 12.383 33.3834 11.0638V11.0671ZM31.916 49.2422C32.3445 47.29 32.7714 45.3261 32.8731 43.3239C32.4862 43.0674 32.1094 42.8009 31.7409 42.521C31.7375 42.8775 31.7409 43.234 31.7475 43.5904C31.7542 43.8353 31.4774 43.9769 31.2723 43.862C30.6053 43.4872 29.9483 43.1024 29.2946 42.7043C26.9802 41.2934 24.7624 39.7293 22.648 38.0352C22.4612 38.0219 22.2745 38.0053 22.0877 37.9869C22.5363 38.6632 22.8798 39.4111 23.295 40.1074C23.5451 40.5272 23.8086 40.9386 24.0804 41.3434C24.1571 41.3867 24.2188 41.4616 24.2405 41.5383C24.2471 41.5566 24.2488 41.5766 24.2505 41.5932C24.9508 42.6227 25.6978 43.6221 26.4149 44.6398C27.4354 46.089 28.3859 47.5932 29.0412 49.2439C29.6965 49.2439 30.3502 49.2406 31.0038 49.2406C31.309 49.2406 31.6125 49.2406 31.9176 49.2373L31.916 49.2422ZM31.1106 43.0441C31.0955 41.0852 31.2573 39.128 31.5841 37.1957C29.8716 37.6538 28.1141 37.942 26.3448 38.0586C25.4761 38.1152 24.604 38.1252 23.7335 38.0969C24.1087 38.39 24.4856 38.6782 24.8658 38.9614C26.8634 40.4455 28.9495 41.8081 31.1106 43.0457V43.0441ZM27.1569 49.2522C27.5588 49.2522 27.9623 49.2522 28.3642 49.2489C28.029 48.4377 27.6121 47.6582 27.1569 46.9069C26.2181 45.3628 25.1109 43.9319 24.0737 42.4528C23.9753 42.3112 23.8769 42.1696 23.7802 42.0263C22.5179 42.541 21.2423 43.0174 19.9533 43.4572C20.2701 43.7603 20.577 44.0768 20.8738 44.4016C22.2511 45.9058 23.42 47.5799 24.574 49.2573C25.4361 49.2573 26.2965 49.2539 27.1586 49.2522H27.1569ZM23.2616 49.2606C23.4451 49.2606 23.6268 49.2606 23.8102 49.2606C23.6018 48.9591 23.3934 48.6593 23.1833 48.3594C21.9743 46.6437 20.687 44.973 19.1329 43.5555C18.9478 43.3872 19.0579 43.0991 19.2713 43.0291C19.3397 43.0058 19.408 42.9824 19.4764 42.9591C18.8928 41.1135 18.4309 39.2329 18.0974 37.3256C18.094 37.3123 18.094 37.299 18.094 37.2873C18.074 37.2807 18.0524 37.274 18.0324 37.269C18.024 37.2807 18.0173 37.2923 18.009 37.3023C17.327 38.1202 16.7484 39.0214 16.2598 39.9675C15.8212 40.812 15.4594 41.6915 15.1526 42.5927C14.8474 43.4955 14.6223 44.4183 14.3622 45.3345C14.1788 45.9841 13.9787 46.6321 13.8252 47.29C13.6702 47.9546 13.5685 48.6293 13.4867 49.3055C13.7469 49.3005 14.007 49.3006 14.2671 49.2972C15.0242 49.2906 15.7796 49.2872 16.5366 49.2839C17.5654 49.2789 18.5926 49.2756 19.6231 49.2739C20.8354 49.2706 22.0494 49.2672 23.2616 49.2656V49.2606ZM23.4234 41.4966C23.1382 41.0652 22.8614 40.6288 22.603 40.179C22.1611 39.4145 21.8026 38.5783 21.2373 37.8936C20.8371 37.842 20.4402 37.7854 20.0434 37.7154C19.6231 37.6405 19.1913 37.5588 18.761 37.4572C19.0879 39.2462 19.5264 41.0152 20.0734 42.7526C21.2006 42.3628 22.3162 41.943 23.4234 41.4966Z" fill="white"/>
<path d="M20.0732 27.2704C21.7226 27.2704 23.0597 25.9944 23.0597 24.4204C23.0597 22.8463 21.7226 21.5703 20.0732 21.5703C18.4238 21.5703 17.0867 22.8463 17.0867 24.4204C17.0867 25.9944 18.4238 27.2704 20.0732 27.2704Z" fill="white"/>
<path d="M37.3853 23.6222C38.8809 23.6222 40.0933 22.4655 40.0933 21.0386C40.0933 19.6118 38.8809 18.4551 37.3853 18.4551C35.8897 18.4551 34.6772 19.6118 34.6772 21.0386C34.6772 22.4655 35.8897 23.6222 37.3853 23.6222Z" fill="white"/>
<path d="M37.5018 18.9791C37.5151 18.9758 37.5251 18.9708 37.5368 18.9658C37.6168 18.9375 37.7002 18.9525 37.7669 18.9924C38.1121 19.0357 38.4489 19.1707 38.7357 19.4005C39.4261 19.9552 39.7096 21.0046 39.1993 21.7709C38.7191 22.4938 37.8486 22.9769 36.9715 22.8553C36.1128 22.737 35.3891 22.0241 35.3724 21.1429C35.3574 20.3517 35.866 19.4938 36.6164 19.194C36.8915 19.0541 37.195 18.9808 37.5001 18.9791H37.5018ZM38.3756 20.0635C38.3756 20.0468 38.3756 20.0302 38.3722 20.0135C38.3622 19.9769 38.3539 19.9436 38.3405 19.9102C38.3372 19.9019 38.3372 19.8953 38.3355 19.8869C38.2755 19.837 38.2138 19.7937 38.1471 19.7553C37.9837 19.6637 37.8069 19.6121 37.6252 19.6004C37.6219 19.6038 37.6168 19.6038 37.6135 19.6054C37.6018 19.6088 37.5918 19.6137 37.5802 19.6187H37.5768C37.5185 19.6471 37.4601 19.6754 37.4067 19.7104C37.3951 19.717 37.3851 19.7237 37.3734 19.732C37.3517 19.752 37.33 19.7737 37.3084 19.7953L37.305 19.7986L37.29 19.822C37.2833 19.832 37.2783 19.8436 37.2717 19.8536C37.2683 19.8686 37.2633 19.8836 37.2583 19.8986C37.2583 19.8953 37.2583 19.8903 37.2583 19.8869C37.255 19.8903 37.255 19.9019 37.2533 19.9153C37.2533 19.9119 37.2533 19.9069 37.2567 19.8986C37.2567 19.9086 37.2533 19.9153 37.2533 19.9186C37.2533 19.9352 37.2533 19.9519 37.2567 19.9669C37.2633 19.9835 37.2717 20.0102 37.275 20.0185C37.2783 20.0269 37.2783 20.0318 37.28 20.0352C37.2833 20.0435 37.2884 20.0502 37.2917 20.0568C37.3034 20.0785 37.3167 20.0985 37.33 20.1185C37.335 20.1235 37.3684 20.1635 37.3751 20.1718C37.3867 20.1818 37.3967 20.1918 37.4084 20.2001L37.4117 20.2034C37.4418 20.2234 37.4718 20.2417 37.5035 20.26C37.5168 20.2667 37.5318 20.2734 37.5451 20.28C37.5485 20.28 37.5485 20.28 37.5535 20.2834C37.5868 20.295 37.6219 20.3067 37.6569 20.3167C37.6919 20.3267 37.7269 20.335 37.7636 20.3417C37.7736 20.345 37.8336 20.35 37.8386 20.3533C37.9087 20.36 37.977 20.3667 38.0471 20.3633C38.0654 20.3633 38.0837 20.3633 38.1021 20.36C38.1054 20.36 38.1104 20.36 38.1154 20.3567C38.1388 20.35 38.1588 20.3433 38.1805 20.3367C38.1871 20.3317 38.2322 20.31 38.2405 20.3034C38.2455 20.3 38.2488 20.3 38.2505 20.2967C38.2588 20.29 38.2655 20.2834 38.2738 20.2767C38.2839 20.2667 38.3155 20.2234 38.3172 20.2234C38.3255 20.2101 38.3339 20.1951 38.3405 20.1818C38.3405 20.1784 38.3606 20.1201 38.3639 20.1101C38.3639 20.1051 38.3639 20.1018 38.3672 20.1001C38.3672 20.0868 38.3672 20.0735 38.3706 20.0618L38.3756 20.0635ZM36.8831 22.194C36.8598 22.1856 36.8398 22.1773 36.8181 22.169C36.8098 22.1657 36.8031 22.1606 36.7948 22.1556C36.7764 22.1523 36.7614 22.1473 36.7447 22.144C36.7898 22.1623 36.8365 22.179 36.8831 22.194Z" fill="#202020"/>
<path d="M20.2299 23.9891C20.2665 23.9991 20.3049 24.0074 20.3416 24.0141C20.3332 24.0141 20.3232 24.0141 20.3232 24.0141C20.3266 24.0141 20.3366 24.0141 20.3566 24.0174C20.4183 24.0224 20.48 24.0224 20.5434 24.0208H20.565C20.5934 24.0174 20.6217 24.0108 20.6501 24.0025C20.6801 23.9941 20.7101 23.9841 20.7418 23.9758C20.7518 23.9725 20.7585 23.9708 20.7635 23.9691C20.7685 23.9658 20.7735 23.9625 20.7835 23.9575C20.8118 23.9408 20.8385 23.9258 20.8652 23.9092C20.8752 23.9025 20.8819 23.8992 20.8852 23.8975C20.8885 23.8942 20.8935 23.8875 20.9019 23.8792C20.9202 23.8609 20.9385 23.8425 20.9569 23.8225C20.9602 23.8175 20.9652 23.8109 20.9669 23.8092C20.9786 23.7892 20.9902 23.7709 21.0002 23.7493C21.0002 23.7443 21.0203 23.7026 21.0236 23.6976C21.0303 23.6743 21.0353 23.6493 21.0403 23.626C21.0403 23.626 21.0403 23.6249 21.0403 23.6227C21.0403 23.6227 21.0403 23.6143 21.0369 23.6093C21.0369 23.5927 21.0369 23.5777 21.0369 23.5627C21.0369 23.5594 21.0369 23.5544 21.0336 23.5494C21.0336 23.546 21.0153 23.4977 21.0153 23.4911C20.9969 23.4544 20.9752 23.4161 20.9502 23.3845C20.9436 23.3795 20.9152 23.3461 20.9152 23.3445L20.8652 23.2945C20.8485 23.2795 20.8318 23.2645 20.8135 23.2495L20.8035 23.2395C20.8035 23.2395 20.7951 23.2362 20.7885 23.2312C20.7401 23.2029 20.6951 23.1713 20.6451 23.1463C20.6384 23.1429 20.595 23.1279 20.595 23.1263C20.5767 23.1196 20.5584 23.113 20.54 23.108C20.5033 23.0963 20.465 23.0896 20.4283 23.0813C20.415 23.078 20.3883 23.0746 20.3816 23.073C20.3583 23.073 20.3349 23.073 20.3116 23.073C20.2665 23.073 20.2215 23.0796 20.1765 23.088C20.1465 23.0963 20.1148 23.1046 20.0848 23.1163C20.0731 23.1229 20.0464 23.1346 20.0414 23.1379C20.0181 23.1513 19.9981 23.1646 19.9764 23.1796C19.9681 23.1862 19.9481 23.2029 19.9431 23.2079C19.928 23.2212 19.913 23.2379 19.8997 23.2545C19.8997 23.2579 19.8713 23.2995 19.8597 23.3195C19.8597 23.3228 19.8363 23.3845 19.8363 23.3845C19.828 23.4078 19.823 23.4294 19.8197 23.4544C19.8163 23.4678 19.8147 23.4778 19.813 23.4828V23.5111C19.813 23.5744 19.8097 23.636 19.813 23.6976C19.813 23.7093 19.813 23.711 19.813 23.7126C19.813 23.7193 19.8163 23.7226 19.8163 23.7309C19.8197 23.7443 19.823 23.7543 19.8247 23.7676C19.843 23.7859 19.863 23.8042 19.883 23.8225C19.8864 23.8225 19.8914 23.8276 19.8964 23.8309C19.9197 23.8475 19.9447 23.8642 19.9697 23.8792C19.9947 23.8959 20.0231 23.9108 20.0498 23.9242C20.0498 23.9242 20.0748 23.9375 20.0915 23.9458C20.1048 23.9508 20.1432 23.9658 20.1432 23.9658C20.1715 23.9758 20.2015 23.9858 20.2299 23.9941V23.9891ZM21.5472 22.6998C22.3292 23.3228 22.6544 24.5055 22.0758 25.37C21.5188 26.1995 20.5133 26.7426 19.5062 26.5793C18.5707 26.4261 17.7936 25.6282 17.777 24.6671C17.7603 23.7809 18.3289 22.8148 19.171 22.4783C19.9214 22.0935 20.8618 22.1552 21.5472 22.6998ZM21.4755 25.1485C21.4605 25.1618 21.4455 25.1768 21.4288 25.1918C21.4255 25.2001 21.4255 25.2068 21.4221 25.2151C21.4405 25.1934 21.4588 25.1718 21.4755 25.1501V25.1485Z" fill="#202020"/>
<path d="M18.7393 38.2433C18.9394 39.7857 19.3079 41.2982 19.8532 42.754C19.9132 42.9139 20.0666 43.0222 20.2417 42.9739C20.3951 42.9323 20.5219 42.7457 20.4618 42.5858C19.9366 41.1849 19.563 39.7257 19.3696 38.2416C19.3479 38.0733 19.2396 37.9268 19.0545 37.9268C18.9011 37.9268 18.7176 38.0717 18.7393 38.2416V38.2433Z" fill="#202020"/>
<path d="M23.0082 41.4786C22.2261 41.6885 21.4574 41.9417 20.7037 42.2399C20.3302 42.3881 19.96 42.5464 19.5948 42.7146C19.2513 42.8729 18.8061 43.0378 18.7977 43.4875C18.7911 43.844 19.0579 44.1938 19.2446 44.4786C19.4314 44.7635 19.6498 45.0533 19.8733 45.3248C20.3202 45.8712 20.8154 46.3759 21.3107 46.8789C21.8676 47.4453 22.4262 48.0116 22.9215 48.6329C23.0282 48.7662 23.2566 48.7445 23.3683 48.6329C23.5001 48.5014 23.4751 48.3214 23.3683 48.1865C22.5596 47.1721 21.5858 46.3109 20.722 45.3465C20.2935 44.8701 19.8966 44.3653 19.5748 43.8107C19.5364 43.744 19.4931 43.6757 19.4614 43.6041C19.4497 43.5775 19.4264 43.5325 19.428 43.5042C19.4297 43.4808 19.4414 43.4858 19.428 43.5058C19.4464 43.4742 19.5031 43.4559 19.5331 43.4392C19.6231 43.3926 19.7149 43.3509 19.8066 43.3076C20.1301 43.156 20.4586 43.0128 20.7904 42.8795C21.5691 42.5664 22.3662 42.3015 23.1766 42.085C23.5684 41.98 23.4017 41.372 23.0082 41.477V41.4786Z" fill="#202020"/>
<path d="M32.898 43.7481C33.7668 43.2201 34.7156 42.7587 35.7478 42.6937C35.9179 42.6837 36.0629 42.5571 36.0629 42.3789C36.0629 42.2173 35.9179 42.0524 35.7478 42.0641C34.6005 42.1357 33.5483 42.6171 32.5795 43.2051C32.2327 43.415 32.5495 43.9613 32.898 43.7498V43.7481Z" fill="#202020"/>
<path d="M40.0799 40.3919C40.6419 40.0437 41.2038 39.6973 41.7674 39.3491C41.9075 39.2625 41.9742 39.0643 41.8808 38.9177C41.7874 38.7711 41.599 38.7112 41.4489 38.8044C40.887 39.1526 40.3251 39.4991 39.7614 39.8472C39.6214 39.9338 39.5547 40.132 39.648 40.2786C39.7414 40.4252 39.9299 40.4852 40.0799 40.3919Z" fill="#202020"/>
</svg>
