<svg width="77" height="77" viewBox="0 0 77 77" fill="none" xmlns="http://www.w3.org/2000/svg">
<mask id="mask0_8495_32334" style="mask-type:alpha" maskUnits="userSpaceOnUse" x="0" y="0" width="77" height="77">
<rect x="0.5" y="0.5" width="76" height="76" rx="4.5" fill="#D9D9D9" stroke="#252525"/>
</mask>
<g mask="url(#mask0_8495_32334)">
<path opacity="0.5" fill-rule="evenodd" clip-rule="evenodd" d="M75.8099 75.2382C74.8928 76.3162 73.5262 77 72 77H5.00001C3.92139 77 2.92254 76.6585 2.10571 76.0776C4.44094 69.2611 9.96496 63.9775 16.94 61.99L28.927 58.5702L30.5186 50.2206C26.347 46.4518 23.1837 40.3577 21.8641 34.4134C21.5061 34.7867 21.1102 35.0071 20.7001 34.9898C19.2901 34.9298 18.2601 32.0498 18.3401 29.9298C18.4077 28.3376 19.107 26.9992 20.0484 26.4569C20.294 25.4879 20.3705 24.533 20.4466 23.5838C20.5648 22.1093 20.6819 20.6484 21.43 19.17C22.48 17.08 24.12 15.32 25.92 13.82C25.655 13.85 25.3875 13.8825 25.12 13.915C24.8525 13.9475 24.585 13.98 24.32 14.01C27 10.97 30.69 8.89 34.63 8C35.59 7.78 36.57 7.63 37.56 7.56V7.55C38.64 7.47 39.72 7.48 40.8 7.58C40.9128 7.59144 41.111 7.62718 41.3587 7.67185C42.6273 7.90059 45.1954 8.36364 44.25 7C45.8 7.55 47.29 8.34 48.68 9.23C48.89 8.89 48.97 8.46 48.88 8.07C48.9089 8.20299 49.1853 8.43295 49.448 8.65161L49.448 8.65163C49.6397 8.8111 49.8241 8.96456 49.9 9.07C50.16 9.43 50.35 9.83 50.47 10.25C50.7693 11.3275 50.8198 12.5642 50.7207 13.6722L50.7292 13.6801C52.026 13.7014 53.3028 13.9913 54.48 14.53C54.11 14.71 53.75 14.88 53.38 15.05C54.96 15.28 56.3 16.44 57.04 17.85C57.77 19.26 57.97 20.91 57.88 22.5C57.69 22.23 57.4 22.03 57.08 21.96C57.46 22.05 57.58 23.82 57.58 24.12C57.5855 24.5476 57.5218 24.9632 57.4583 25.3783C57.4138 25.6687 57.3694 25.9588 57.3487 26.2526C58.5394 26.5525 59.4882 28.0802 59.55 29.9503C59.62 32.0703 58.57 34.9403 57.16 34.9903C56.9682 34.9971 56.7794 34.9512 56.5961 34.8614C56.3186 35.6593 55.9732 36.4396 55.6032 37.2083C54.0231 42.2016 51.2286 47.0263 47.7186 50.205L49.3144 58.5763L61.28 61.99C67.9659 63.9042 73.3268 68.8304 75.8099 75.2382ZM21.0501 26.1998C20.7172 26.1856 20.3955 26.2679 20.097 26.4297C20.339 26.0833 20.8849 26.0384 21.3214 26.2326L21.3213 26.2328C21.2325 26.2149 21.142 26.2037 21.0501 26.1998Z" fill="#F9F8F4"/>
</g>
<path fill-rule="evenodd" clip-rule="evenodd" d="M39.829 32.5921L39.8301 27L38.588 27.0003L38.5868 32.5923L33.0003 32.5935L33 33.8356L38.5866 33.8344L38.5854 39.4215L39.8275 39.4212L39.8287 33.8342L45.4212 33.833L45.4214 32.5909L39.829 32.5921Z" fill="#252525"/>
<path d="M13.051 48.108C12.253 48.108 11.632 47.838 11.188 47.298C10.744 46.752 10.522 45.951 10.522 44.895C10.522 43.839 10.744 43.029 11.188 42.465C11.632 41.895 12.253 41.61 13.051 41.61C13.579 41.61 14.02 41.73 14.374 41.97C14.734 42.21 15.013 42.549 15.211 42.987L14.599 43.356C14.473 43.032 14.281 42.774 14.023 42.582C13.765 42.384 13.441 42.285 13.051 42.285C12.781 42.285 12.538 42.336 12.322 42.438C12.112 42.54 11.932 42.687 11.782 42.879C11.638 43.065 11.527 43.29 11.449 43.554C11.371 43.812 11.332 44.103 11.332 44.427V45.363C11.332 46.011 11.482 46.518 11.782 46.884C12.082 47.25 12.505 47.433 13.051 47.433C13.453 47.433 13.789 47.331 14.059 47.127C14.329 46.917 14.527 46.641 14.653 46.299L15.256 46.677C15.058 47.121 14.773 47.472 14.401 47.73C14.029 47.982 13.579 48.108 13.051 48.108ZM16.3548 41.34H17.0748V44.112H17.1108C17.2248 43.848 17.3838 43.638 17.5878 43.482C17.7978 43.326 18.0768 43.248 18.4248 43.248C18.9048 43.248 19.2828 43.404 19.5588 43.716C19.8408 44.022 19.9818 44.457 19.9818 45.021V48H19.2618V45.147C19.2618 44.313 18.9108 43.896 18.2088 43.896C18.0648 43.896 17.9238 43.914 17.7858 43.95C17.6538 43.986 17.5338 44.04 17.4258 44.112C17.3178 44.184 17.2308 44.277 17.1648 44.391C17.1048 44.499 17.0748 44.628 17.0748 44.778V48H16.3548V41.34ZM23.2251 48.108C22.9131 48.108 22.6281 48.051 22.3701 47.937C22.1121 47.823 21.8901 47.661 21.7041 47.451C21.5241 47.235 21.3831 46.98 21.2811 46.686C21.1791 46.386 21.1281 46.05 21.1281 45.678C21.1281 45.312 21.1791 44.979 21.2811 44.679C21.3831 44.379 21.5241 44.124 21.7041 43.914C21.8901 43.698 22.1121 43.533 22.3701 43.419C22.6281 43.305 22.9131 43.248 23.2251 43.248C23.5371 43.248 23.8191 43.305 24.0711 43.419C24.3291 43.533 24.5511 43.698 24.7371 43.914C24.9231 44.124 25.0671 44.379 25.1691 44.679C25.2711 44.979 25.3221 45.312 25.3221 45.678C25.3221 46.05 25.2711 46.386 25.1691 46.686C25.0671 46.98 24.9231 47.235 24.7371 47.451C24.5511 47.661 24.3291 47.823 24.0711 47.937C23.8191 48.051 23.5371 48.108 23.2251 48.108ZM23.2251 47.469C23.6151 47.469 23.9331 47.349 24.1791 47.109C24.4251 46.869 24.5481 46.503 24.5481 46.011V45.345C24.5481 44.853 24.4251 44.487 24.1791 44.247C23.9331 44.007 23.6151 43.887 23.2251 43.887C22.8351 43.887 22.5171 44.007 22.2711 44.247C22.0251 44.487 21.9021 44.853 21.9021 45.345V46.011C21.9021 46.503 22.0251 46.869 22.2711 47.109C22.5171 47.349 22.8351 47.469 23.2251 47.469ZM28.2612 48.108C27.9492 48.108 27.6642 48.051 27.4062 47.937C27.1482 47.823 26.9262 47.661 26.7402 47.451C26.5602 47.235 26.4192 46.98 26.3172 46.686C26.2152 46.386 26.1642 46.05 26.1642 45.678C26.1642 45.312 26.2152 44.979 26.3172 44.679C26.4192 44.379 26.5602 44.124 26.7402 43.914C26.9262 43.698 27.1482 43.533 27.4062 43.419C27.6642 43.305 27.9492 43.248 28.2612 43.248C28.5732 43.248 28.8552 43.305 29.1072 43.419C29.3652 43.533 29.5872 43.698 29.7732 43.914C29.9592 44.124 30.1032 44.379 30.2052 44.679C30.3072 44.979 30.3582 45.312 30.3582 45.678C30.3582 46.05 30.3072 46.386 30.2052 46.686C30.1032 46.98 29.9592 47.235 29.7732 47.451C29.5872 47.661 29.3652 47.823 29.1072 47.937C28.8552 48.051 28.5732 48.108 28.2612 48.108ZM28.2612 47.469C28.6512 47.469 28.9692 47.349 29.2152 47.109C29.4612 46.869 29.5842 46.503 29.5842 46.011V45.345C29.5842 44.853 29.4612 44.487 29.2152 44.247C28.9692 44.007 28.6512 43.887 28.2612 43.887C27.8712 43.887 27.5532 44.007 27.3072 44.247C27.0612 44.487 26.9382 44.853 26.9382 45.345V46.011C26.9382 46.503 27.0612 46.869 27.3072 47.109C27.5532 47.349 27.8712 47.469 28.2612 47.469ZM32.9373 48.108C32.5053 48.108 32.1423 48.027 31.8483 47.865C31.5603 47.697 31.3113 47.475 31.1013 47.199L31.6143 46.785C31.7943 47.013 31.9953 47.19 32.2173 47.316C32.4393 47.436 32.6973 47.496 32.9913 47.496C33.2973 47.496 33.5343 47.43 33.7023 47.298C33.8763 47.166 33.9633 46.98 33.9633 46.74C33.9633 46.56 33.9033 46.407 33.7833 46.281C33.6693 46.149 33.4593 46.059 33.1533 46.011L32.7843 45.957C32.5683 45.927 32.3703 45.882 32.1903 45.822C32.0103 45.756 31.8513 45.672 31.7133 45.57C31.5813 45.462 31.4763 45.33 31.3983 45.174C31.3263 45.018 31.2903 44.832 31.2903 44.616C31.2903 44.388 31.3323 44.19 31.4163 44.022C31.5003 43.848 31.6143 43.704 31.7583 43.59C31.9083 43.476 32.0853 43.392 32.2893 43.338C32.4933 43.278 32.7123 43.248 32.9463 43.248C33.3243 43.248 33.6393 43.314 33.8913 43.446C34.1493 43.578 34.3743 43.761 34.5663 43.995L34.0893 44.427C33.9873 44.283 33.8373 44.154 33.6393 44.04C33.4413 43.92 33.1923 43.86 32.8923 43.86C32.5923 43.86 32.3643 43.926 32.2083 44.058C32.0583 44.184 31.9833 44.358 31.9833 44.58C31.9833 44.808 32.0583 44.973 32.2083 45.075C32.3643 45.177 32.5863 45.252 32.8743 45.3L33.2343 45.354C33.7503 45.432 34.1163 45.582 34.3323 45.804C34.5483 46.02 34.6563 46.305 34.6563 46.659C34.6563 47.109 34.5033 47.463 34.1973 47.721C33.8913 47.979 33.4713 48.108 32.9373 48.108ZM37.6741 48.108C37.3561 48.108 37.0681 48.051 36.8101 47.937C36.5581 47.823 36.3391 47.661 36.1531 47.451C35.9731 47.235 35.8321 46.98 35.7301 46.686C35.6341 46.386 35.5861 46.05 35.5861 45.678C35.5861 45.312 35.6341 44.979 35.7301 44.679C35.8321 44.379 35.9731 44.124 36.1531 43.914C36.3391 43.698 36.5581 43.533 36.8101 43.419C37.0681 43.305 37.3561 43.248 37.6741 43.248C37.9861 43.248 38.2651 43.305 38.5111 43.419C38.7571 43.533 38.9671 43.692 39.1411 43.896C39.3151 44.094 39.4471 44.331 39.5371 44.607C39.6331 44.883 39.6811 45.186 39.6811 45.516V45.858H36.3421V46.074C36.3421 46.272 36.3721 46.458 36.4321 46.632C36.4981 46.8 36.5881 46.947 36.7021 47.073C36.8221 47.199 36.9661 47.298 37.1341 47.37C37.3081 47.442 37.5031 47.478 37.7191 47.478C38.0131 47.478 38.2681 47.409 38.4841 47.271C38.7061 47.133 38.8771 46.935 38.9971 46.677L39.5101 47.046C39.3601 47.364 39.1261 47.622 38.8081 47.82C38.4901 48.012 38.1121 48.108 37.6741 48.108ZM37.6741 43.851C37.4761 43.851 37.2961 43.887 37.1341 43.959C36.9721 44.025 36.8311 44.121 36.7111 44.247C36.5971 44.373 36.5071 44.523 36.4411 44.697C36.3751 44.865 36.3421 45.051 36.3421 45.255V45.318H38.9071V45.219C38.9071 44.805 38.7931 44.475 38.5651 44.229C38.3431 43.977 38.0461 43.851 37.6741 43.851ZM46.3695 48C46.0995 48 45.9045 47.928 45.7845 47.784C45.6705 47.64 45.5985 47.46 45.5685 47.244H45.5235C45.4215 47.532 45.2535 47.748 45.0195 47.892C44.7855 48.036 44.5065 48.108 44.1825 48.108C43.6905 48.108 43.3065 47.982 43.0305 47.73C42.7605 47.478 42.6255 47.136 42.6255 46.704C42.6255 46.266 42.7845 45.93 43.1025 45.696C43.4265 45.462 43.9275 45.345 44.6055 45.345H45.5235V44.886C45.5235 44.556 45.4335 44.304 45.2535 44.13C45.0735 43.956 44.7975 43.869 44.4255 43.869C44.1435 43.869 43.9065 43.932 43.7145 44.058C43.5285 44.184 43.3725 44.352 43.2465 44.562L42.8145 44.157C42.9405 43.905 43.1415 43.692 43.4175 43.518C43.6935 43.338 44.0415 43.248 44.4615 43.248C45.0255 43.248 45.4635 43.386 45.7755 43.662C46.0875 43.938 46.2435 44.322 46.2435 44.814V47.37H46.7745V48H46.3695ZM44.2995 47.496C44.4795 47.496 44.6445 47.475 44.7945 47.433C44.9445 47.391 45.0735 47.331 45.1815 47.253C45.2895 47.175 45.3735 47.085 45.4335 46.983C45.4935 46.881 45.5235 46.77 45.5235 46.65V45.885H44.5695C44.1555 45.885 43.8525 45.945 43.6605 46.065C43.4745 46.185 43.3815 46.359 43.3815 46.587V46.776C43.3815 47.004 43.4625 47.181 43.6245 47.307C43.7925 47.433 44.0175 47.496 44.2995 47.496ZM48.7578 48L47.1288 43.356H47.8488L48.6588 45.66L49.1628 47.244H49.2078L49.7118 45.66L50.5398 43.356H51.2328L49.5948 48H48.7578ZM55.4574 48C55.1874 48 54.9924 47.928 54.8724 47.784C54.7584 47.64 54.6864 47.46 54.6564 47.244H54.6114C54.5094 47.532 54.3414 47.748 54.1074 47.892C53.8734 48.036 53.5944 48.108 53.2704 48.108C52.7784 48.108 52.3944 47.982 52.1184 47.73C51.8484 47.478 51.7134 47.136 51.7134 46.704C51.7134 46.266 51.8724 45.93 52.1904 45.696C52.5144 45.462 53.0154 45.345 53.6934 45.345H54.6114V44.886C54.6114 44.556 54.5214 44.304 54.3414 44.13C54.1614 43.956 53.8854 43.869 53.5134 43.869C53.2314 43.869 52.9944 43.932 52.8024 44.058C52.6164 44.184 52.4604 44.352 52.3344 44.562L51.9024 44.157C52.0284 43.905 52.2294 43.692 52.5054 43.518C52.7814 43.338 53.1294 43.248 53.5494 43.248C54.1134 43.248 54.5514 43.386 54.8634 43.662C55.1754 43.938 55.3314 44.322 55.3314 44.814V47.37H55.8624V48H55.4574ZM53.3874 47.496C53.5674 47.496 53.7324 47.475 53.8824 47.433C54.0324 47.391 54.1614 47.331 54.2694 47.253C54.3774 47.175 54.4614 47.085 54.5214 46.983C54.5814 46.881 54.6114 46.77 54.6114 46.65V45.885H53.6574C53.2434 45.885 52.9404 45.945 52.7484 46.065C52.5624 46.185 52.4694 46.359 52.4694 46.587V46.776C52.4694 47.004 52.5504 47.181 52.7124 47.307C52.8804 47.433 53.1054 47.496 53.3874 47.496ZM57.916 48C57.664 48 57.472 47.931 57.34 47.793C57.214 47.649 57.151 47.463 57.151 47.235V43.986H56.386V43.356H56.818C56.974 43.356 57.079 43.326 57.133 43.266C57.193 43.2 57.223 43.089 57.223 42.933V42.069H57.871V43.356H58.888V43.986H57.871V47.37H58.816V48H57.916ZM63.4203 48C63.1503 48 62.9553 47.928 62.8353 47.784C62.7213 47.64 62.6493 47.46 62.6193 47.244H62.5743C62.4723 47.532 62.3043 47.748 62.0703 47.892C61.8363 48.036 61.5573 48.108 61.2333 48.108C60.7413 48.108 60.3573 47.982 60.0813 47.73C59.8113 47.478 59.6763 47.136 59.6763 46.704C59.6763 46.266 59.8353 45.93 60.1533 45.696C60.4773 45.462 60.9783 45.345 61.6563 45.345H62.5743V44.886C62.5743 44.556 62.4843 44.304 62.3043 44.13C62.1243 43.956 61.8483 43.869 61.4763 43.869C61.1943 43.869 60.9573 43.932 60.7653 44.058C60.5793 44.184 60.4233 44.352 60.2973 44.562L59.8653 44.157C59.9913 43.905 60.1923 43.692 60.4683 43.518C60.7443 43.338 61.0923 43.248 61.5123 43.248C62.0763 43.248 62.5143 43.386 62.8263 43.662C63.1383 43.938 63.2943 44.322 63.2943 44.814V47.37H63.8253V48H63.4203ZM61.3503 47.496C61.5303 47.496 61.6953 47.475 61.8453 47.433C61.9953 47.391 62.1243 47.331 62.2323 47.253C62.3403 47.175 62.4243 47.085 62.4843 46.983C62.5443 46.881 62.5743 46.77 62.5743 46.65V45.885H61.6203C61.2063 45.885 60.9033 45.945 60.7113 46.065C60.5253 46.185 60.4323 46.359 60.4323 46.587V46.776C60.4323 47.004 60.5133 47.181 60.6753 47.307C60.8433 47.433 61.0683 47.496 61.3503 47.496ZM64.8529 48V43.356H65.5729V44.211H65.6179C65.7019 43.989 65.8519 43.791 66.0679 43.617C66.2839 43.443 66.5809 43.356 66.9589 43.356H67.2379V44.076H66.8149C66.4249 44.076 66.1189 44.151 65.8969 44.301C65.6809 44.445 65.5729 44.628 65.5729 44.85V48H64.8529Z" fill="#252525"/>
<rect x="0.5" y="0.5" width="76" height="76" rx="4.5" stroke="#252525"/>
</svg>
