<svg width="50" height="50" viewBox="0 0 50 50" fill="none" xmlns="http://www.w3.org/2000/svg">
<path d="M45.5414 0.750977H4.42507C2.31988 0.750977 0.613281 2.46368 0.613281 4.57641V45.6677C0.613281 47.7804 2.31988 49.4931 4.42507 49.4931H45.5414C47.6466 49.4931 49.3532 47.7804 49.3532 45.6677V4.57641C49.3532 2.46368 47.6466 0.750977 45.5414 0.750977Z" fill="#252525"/>
<path d="M37.6163 20.3834C37.6196 20.4687 37.578 20.5457 37.523 20.6075C37.4696 20.6661 37.378 20.6995 37.3013 20.6995C37.2246 20.6995 37.128 20.6661 37.078 20.6075C36.9346 20.4386 36.828 20.2446 36.7796 20.0271C36.7313 19.808 36.7329 19.5822 36.7896 19.3664C36.8346 19.1958 37.013 19.1071 37.178 19.1456C37.3446 19.1841 37.4396 19.3748 37.398 19.5337C37.3896 19.5621 37.3863 19.5905 37.3813 19.619C37.3746 19.6825 37.3746 19.7461 37.3813 19.8113C37.393 19.8749 37.4096 19.9385 37.433 20.0004C37.463 20.0639 37.498 20.1258 37.543 20.1844C37.5863 20.2429 37.613 20.3048 37.618 20.3817L37.6163 20.3834Z" fill="white"/>
<path d="M36.2345 13.7217C36.2345 13.7217 36.2312 13.7267 36.2312 13.7284V13.725C36.2312 13.725 36.2345 13.725 36.2345 13.7217Z" fill="white"/>
<path d="M36.1397 13.2787C36.1397 13.2787 36.143 13.2787 36.143 13.2821C36.1296 13.2821 36.1179 13.2687 36.1179 13.2637C36.1213 13.267 36.1313 13.2737 36.1397 13.2787Z" fill="white"/>
<path d="M28.4508 21.7448C28.4508 21.7448 28.4458 21.7448 28.4425 21.7448C28.4258 21.7482 28.4058 21.7532 28.3991 21.7548C28.3658 21.7615 28.3341 21.7682 28.3025 21.7766C28.1308 21.8201 27.9675 21.7231 27.9141 21.5558C27.8625 21.3969 27.9741 21.2096 28.1341 21.1677C28.7892 21.0021 29.4725 21.1677 29.9925 21.5943C30.1292 21.7063 30.0992 21.9255 29.9925 22.0409C29.8709 22.1747 29.6742 22.1463 29.5475 22.0409C29.5408 22.0359 29.5375 22.0325 29.5342 22.0308C29.5275 22.0258 29.5208 22.0191 29.5142 22.0141C29.4875 21.9957 29.4592 21.9773 29.4325 21.9606C29.3775 21.9255 29.3192 21.8937 29.2592 21.8652C29.2458 21.8586 29.2342 21.8519 29.2208 21.8468C29.1908 21.8351 29.1608 21.8234 29.1292 21.8134C29.0708 21.795 29.0125 21.7783 28.9508 21.7649C28.9225 21.7582 28.8958 21.7532 28.8658 21.7482C28.8575 21.7482 28.8475 21.7448 28.8375 21.7448C28.8342 21.7448 28.8325 21.7448 28.8275 21.7448C28.7625 21.7398 28.6975 21.7348 28.6308 21.7348C28.5708 21.7348 28.5058 21.7348 28.4475 21.7448H28.4508Z" fill="white"/>
<path d="M46.1082 0H3.89179C1.74505 0 0 1.74461 0 3.89067V46.1093C0 48.2554 1.74672 50 3.89179 50H46.1082C48.2549 50 50 48.2554 50 46.1093V3.89235C50 1.74629 48.2533 0.00167269 46.1082 0.00167269V0ZM38.8263 28.5428C38.6713 28.6916 38.508 28.8321 38.3363 28.9593C37.0379 29.9144 35.3979 30.2522 33.8245 30.4178C32.7811 30.5282 31.7311 30.5717 30.6827 30.555C30.276 30.5483 30.276 31.1789 30.6827 31.1856C31.6711 31.2023 32.6578 31.1622 33.6395 31.0668C34.5045 30.9815 35.3712 30.8594 36.2112 30.6269C36.6246 30.5132 37.0329 30.3693 37.4246 30.1937C37.5363 31.6958 37.4796 33.2129 37.2346 34.7016C37.1079 35.4593 36.9496 36.2271 36.6346 36.9313C36.3079 37.6622 35.8829 38.3481 35.4862 39.0422C35.0295 39.8451 34.5728 40.648 34.1161 41.4492C33.9145 41.8022 34.4595 42.12 34.6595 41.767C34.9895 41.1883 35.3195 40.6095 35.6495 40.0308C35.8562 40.3536 36.0645 40.6781 36.2712 41.0009C36.4562 41.292 36.6579 41.5763 36.8079 41.8875C36.8346 41.941 36.8596 41.9945 36.8829 42.048C36.8962 42.0781 36.9112 42.1099 36.9229 42.14C36.9296 42.1534 36.9312 42.1584 36.9312 42.1584C36.9312 42.1618 36.9346 42.1668 36.9429 42.1885C36.9979 42.3207 37.0496 42.4545 37.0979 42.59C37.2046 42.8877 37.3029 43.1905 37.3946 43.4966C37.8079 44.8715 38.1146 46.2783 38.3979 47.6833C38.4896 48.1467 38.5779 48.61 38.6613 49.075L38.1013 49.0834C37.3479 49.0917 36.5962 49.0951 35.8429 49.0967C34.7612 49.1018 33.6795 49.1051 32.5978 49.1085C31.6961 49.1118 30.796 49.1118 29.8943 49.1135C29.886 49.0817 29.876 49.0499 29.856 49.0165C28.8893 47.4525 28.1893 45.7463 27.5909 44.0118C26.9826 42.2521 26.4725 40.4607 25.8709 38.6976C25.2792 36.9631 24.5975 35.2419 23.6508 33.6662C23.1758 32.8784 22.6357 32.1123 22.0157 31.4298C21.8474 31.2441 21.6441 31.0769 21.389 31.0317C21.2524 31.0083 21.1224 31.0183 20.9974 31.0585C19.4723 30.6771 17.8639 30.8042 16.3089 30.8594C14.5155 30.923 12.7188 30.9882 10.9254 31.0518C10.0137 31.0852 9.1003 31.117 8.18694 31.1505C7.79026 30.2071 7.48358 29.2118 7.31191 28.2049C7.13357 27.1527 7.18524 26.1006 7.42525 25.0619C7.9336 22.8656 9.1553 20.9136 10.572 19.1891C11.3787 18.2055 12.2521 17.2805 13.1271 16.3555C13.2338 16.5211 13.3454 16.6817 13.4621 16.839C13.9488 17.5013 14.4938 18.1637 15.2355 18.5501C15.9705 18.9315 16.8072 19.0569 17.6256 19.0737C18.4023 19.0904 19.1873 19.0168 19.944 18.8345C21.4574 18.4715 22.7941 17.6201 23.6625 16.3154C24.4808 15.0876 24.7925 13.5739 24.7175 12.1136C24.7125 12.0183 24.7058 11.9246 24.6992 11.8309C27.8076 12.7793 30.806 14.0623 33.6378 15.658C35.1278 16.4977 36.5712 17.4227 37.9563 18.4263C38.618 18.9064 39.2813 19.3965 39.8963 19.9334C40.483 20.4453 41.0364 21.0307 41.353 21.7533C41.6114 22.3438 41.6631 23.0446 41.4547 23.6585C41.358 23.9462 41.1897 24.2038 40.963 24.4062C40.6747 24.6638 40.298 24.8026 39.938 24.9231C38.2279 25.4951 36.4479 25.8698 34.6612 26.1023C30.9544 26.5857 27.2059 26.4887 23.4791 26.3499C21.5391 26.2763 19.6006 26.1926 17.6606 26.1776C16.7006 26.1692 15.7422 26.1776 14.7822 26.2094C14.0671 26.2328 13.3238 26.2863 12.6754 26.6175C12.3587 26.7797 12.0971 27.0156 11.8987 27.3083C11.6704 27.6462 12.2171 27.9623 12.4437 27.6278C12.8054 27.0909 13.5154 26.937 14.1205 26.8784C15.0222 26.7914 15.9422 26.8065 16.8472 26.8048C18.809 26.8015 20.769 26.8784 22.7291 26.952C26.5276 27.0976 30.346 27.2364 34.1311 26.7998C35.9829 26.5857 37.8229 26.2395 39.608 25.6925C39.7763 25.6406 39.9463 25.5871 40.113 25.5302C40.1697 26.569 39.7263 27.5659 39.0313 28.3303C38.9196 28.3588 38.8513 28.4424 38.8263 28.5428ZM7.77692 34.6531C7.70859 35.1047 7.64358 35.5814 7.65192 36.0531C7.64525 35.5831 7.70859 35.1047 7.77692 34.6531ZM18.0456 17.0982C19.3556 17.5532 20.9124 17.0597 21.7941 16.0076C22.3741 15.3168 22.5741 14.4671 22.7208 13.6006C23.1491 13.6374 23.5741 13.691 23.9975 13.7579C23.9141 14.2362 23.7808 14.7029 23.5841 15.1479C23.0208 16.4208 21.9924 17.4311 20.694 17.9396C20.0323 18.1988 19.3306 18.3511 18.624 18.4096C17.8973 18.4715 17.1406 18.4698 16.4272 18.3092C16.0555 18.2239 15.6955 18.0968 15.3672 17.8978C15.0488 17.7054 14.7772 17.4478 14.5305 17.1718C14.0288 16.6098 13.5771 15.9758 13.2538 15.2934C14.0455 14.917 14.8655 14.5976 15.7022 14.34C15.9222 15.5911 16.8322 16.6767 18.0439 17.0965L18.0456 17.0982ZM17.5606 14.248C17.5839 14.2413 17.6056 14.2346 17.6289 14.2296C17.6289 14.248 17.6289 14.2664 17.6323 14.2831C17.6089 14.2697 17.5856 14.258 17.5623 14.248H17.5606ZM20.6457 13.8482C20.6574 13.8833 20.6674 13.9184 20.674 13.9552C20.6774 13.972 20.6807 13.9887 20.684 14.0037C20.6874 14.0422 20.6907 14.0824 20.689 14.1208C20.689 14.1509 20.6857 14.1827 20.684 14.2128C20.684 14.2128 20.684 14.2139 20.684 14.2162C20.6807 14.2296 20.679 14.2446 20.6757 14.2563C20.654 14.3517 20.639 14.3818 20.609 14.4403C20.5723 14.5106 20.529 14.5775 20.4824 14.6427C20.479 14.6427 20.479 14.6461 20.479 14.6461C20.479 14.6494 20.4757 14.6494 20.4724 14.6544C20.4624 14.6678 20.4523 14.6795 20.4423 14.6929C20.409 14.7297 20.3757 14.7648 20.339 14.7983L20.329 14.8083C20.329 14.8083 20.329 14.8083 20.3257 14.8083C20.3123 14.8183 20.299 14.8267 20.2857 14.8351C20.2757 14.8418 20.2707 14.8451 20.2657 14.8485C20.2473 14.8568 20.2307 14.8618 20.2123 14.8669C20.1923 14.8735 20.1707 14.8786 20.1507 14.8836C20.1507 14.8836 20.1423 14.8836 20.134 14.8869C20.1223 14.8869 20.1057 14.8903 20.1023 14.8919C20.079 14.8919 20.0557 14.8953 20.0323 14.8953C20.0007 14.8953 19.9673 14.8919 19.9357 14.8919H19.9323C19.9157 14.8886 19.899 14.8853 19.884 14.8836C19.8523 14.8752 19.8207 14.8685 19.7907 14.8602C19.7723 14.8535 19.7557 14.8468 19.7373 14.8418C19.7323 14.8384 19.729 14.8384 19.724 14.8384C19.6623 14.8066 19.6023 14.7749 19.5457 14.7364C19.5457 14.7364 19.5406 14.733 19.5373 14.7297C19.529 14.723 19.514 14.7113 19.5123 14.7096C19.4807 14.6829 19.4506 14.6544 19.4223 14.6243C19.414 14.6143 19.404 14.6026 19.3956 14.5925C19.3956 14.5925 19.3945 14.5925 19.3923 14.5925C19.3756 14.5641 19.3573 14.539 19.3406 14.5122C19.324 14.4838 19.3106 14.457 19.2973 14.4269C19.294 14.4186 19.2773 14.3701 19.274 14.355C19.2623 14.3165 19.2556 14.2764 19.2456 14.2362C19.2456 14.2162 19.2423 14.1961 19.2423 14.176C19.2423 14.1342 19.2423 14.0907 19.2423 14.0506C19.2423 14.0372 19.2456 14.0221 19.2456 14.0088C19.2456 14.0054 19.249 14.0004 19.249 13.9954C19.2573 13.9536 19.2673 13.9117 19.279 13.8716C19.2856 13.8532 19.2923 13.8365 19.2973 13.8181C19.2973 13.8147 19.2973 13.8147 19.2973 13.8114C19.2973 13.8097 19.3006 13.8064 19.3006 13.803C19.3173 13.7696 19.334 13.7361 19.354 13.7027C19.364 13.6876 19.3756 13.6726 19.3856 13.6558C19.389 13.6508 19.389 13.6475 19.3906 13.6458C19.394 13.6424 19.399 13.6374 19.404 13.6307C19.4073 13.6257 19.4106 13.6207 19.414 13.6157C19.754 13.5839 20.094 13.5622 20.434 13.5504C20.4473 13.5638 20.464 13.5772 20.4773 13.5906C20.4857 13.6006 20.4957 13.6107 20.5057 13.6207C20.509 13.624 20.5174 13.6341 20.524 13.6441C20.5307 13.6525 20.539 13.6642 20.5424 13.6675C20.5507 13.6792 20.5574 13.691 20.5657 13.7027C20.5874 13.7378 20.604 13.7763 20.6257 13.8131V13.8164C20.6307 13.8298 20.6357 13.8415 20.6407 13.8549L20.6457 13.8482ZM15.2238 13.8331C14.4738 14.0773 13.7438 14.3734 13.0304 14.7079C12.8854 14.2179 12.8371 13.711 12.8788 13.1908C12.8821 13.1356 12.8888 13.0804 12.8938 13.0236C12.8971 12.9951 12.9021 12.965 12.9054 12.9366C12.9054 12.9299 12.9054 12.9265 12.9054 12.9232C12.9054 12.9165 12.9088 12.9081 12.9088 12.8948C12.9304 12.7593 12.9538 12.6238 12.9838 12.4883C13.0504 12.1906 13.1421 11.8995 13.2571 11.6168C13.2571 11.6135 13.2604 11.6118 13.2604 11.6085C13.2604 11.6085 13.2604 11.6073 13.2604 11.6051C13.2688 11.5867 13.2754 11.57 13.2838 11.5516C13.3021 11.5131 13.3188 11.473 13.3388 11.4345C13.3771 11.3542 13.4154 11.2773 13.4571 11.1986C13.5405 11.0448 13.6321 10.8959 13.7305 10.752C13.9238 10.471 14.1705 10.1883 14.4755 9.91737C14.6538 9.75846 14.7455 9.68821 14.9355 9.55607C15.1338 9.42058 15.3405 9.2968 15.5555 9.18473C16.0255 8.94052 16.5072 8.76656 17.0322 8.6294C18.1973 8.32497 19.4707 8.18112 20.649 8.45209C21.7991 8.71638 22.8591 9.35367 23.5291 10.3389C23.7025 10.5965 23.8575 10.8708 23.9775 11.1585C24.0875 11.8042 24.1258 12.4732 24.0741 13.1339C21.119 12.6689 18.0656 12.9031 15.2222 13.8298L15.2238 13.8331ZM36.2412 13.4384C36.2479 13.4601 36.2529 13.4819 36.2579 13.5036C36.2579 13.5136 36.2612 13.527 36.2612 13.5337C36.2612 13.5588 36.2612 13.5856 36.2612 13.6107C36.2612 13.614 36.2612 13.619 36.2612 13.6274C36.2612 13.6274 36.2612 13.6307 36.2612 13.6324C36.2545 13.6558 36.2479 13.6809 36.2412 13.706C36.2412 13.7094 36.2379 13.7177 36.2345 13.7227C36.2345 13.7227 36.2362 13.7227 36.2362 13.7194C36.2362 13.7227 36.2345 13.7244 36.2329 13.7261V13.7294C36.2195 13.7562 36.2045 13.7779 36.1879 13.803C36.1795 13.8131 36.1729 13.8214 36.1645 13.8298C36.1462 13.8499 36.1262 13.8683 36.1045 13.8883C36.0995 13.8917 36.0795 13.9084 36.0729 13.9117C36.0462 13.9301 36.0179 13.9469 35.9895 13.9619C35.9762 13.9686 35.9645 13.9753 35.9512 13.9803C35.9445 13.9837 35.9329 13.987 35.9262 13.9904C35.9129 13.9937 35.8995 13.9987 35.8862 14.0037C35.8545 14.0138 35.8229 14.0221 35.7912 14.0272C35.7912 14.0272 35.7912 14.0272 35.7895 14.0272C35.7895 14.0272 35.7862 14.0272 35.7762 14.0305C35.7695 14.0305 35.7612 14.0305 35.7562 14.0339C35.7279 14.0372 35.6995 14.0372 35.6712 14.0372C35.6545 14.0372 35.6379 14.0372 35.6229 14.0372C35.6195 14.0372 35.6129 14.0372 35.6045 14.0372C35.5962 14.0372 35.5862 14.0339 35.5812 14.0339C35.5612 14.0288 35.5412 14.0221 35.5212 14.0171C35.5212 14.0171 35.5212 14.0171 35.5212 14.0138C35.5112 14.0054 35.4995 14.0004 35.4879 13.9954C35.4812 13.9904 35.4745 13.9837 35.4695 13.9787C35.4612 13.9703 35.4562 13.9636 35.4478 13.9552C35.4312 13.9285 35.4145 13.9017 35.3995 13.8733C35.3995 13.8699 35.3962 13.8699 35.3962 13.8666C35.3962 13.8632 35.3928 13.8582 35.3928 13.8515C35.3828 13.8248 35.3745 13.798 35.3695 13.7696C35.3628 13.7462 35.3595 13.7227 35.3545 13.6993C35.3545 13.6809 35.3512 13.6642 35.3512 13.6458C35.3512 13.6157 35.3512 13.5839 35.3512 13.5538C35.3512 13.5404 35.3512 13.527 35.3528 13.5136C35.3612 13.5003 35.3712 13.4267 35.3728 13.415C35.3762 13.4016 35.3812 13.3899 35.3845 13.3765C35.3878 13.3698 35.3895 13.3631 35.3912 13.3581C35.3912 13.3547 35.3945 13.3531 35.3945 13.3497C35.4012 13.3347 35.4078 13.3213 35.4179 13.3062C35.4245 13.2945 35.4312 13.2828 35.4378 13.2728C35.4462 13.2644 35.4529 13.2544 35.4612 13.246C35.4612 13.246 35.4645 13.2427 35.4662 13.2427C35.4878 13.2326 35.5312 13.2009 35.5412 13.1958C35.5512 13.1925 35.5595 13.1841 35.5678 13.1774C35.7095 13.1774 35.8512 13.1774 35.9912 13.1825C36.0095 13.2009 36.0295 13.2159 36.0562 13.2276C36.0795 13.2377 36.1012 13.2494 36.1229 13.2611C36.1229 13.2577 36.1262 13.2611 36.1412 13.2745L36.1445 13.2778C36.1445 13.2778 36.1479 13.2778 36.1479 13.2811C36.1612 13.2945 36.1745 13.3096 36.1879 13.323C36.1945 13.3297 36.1995 13.3397 36.2045 13.3464C36.2145 13.3631 36.2229 13.3798 36.2312 13.3966C36.2345 13.4083 36.2445 13.4283 36.2462 13.435L36.2412 13.4384ZM36.2329 13.4099C36.2329 13.4099 36.2345 13.4133 36.2362 13.415C36.2395 13.4216 36.2412 13.425 36.2429 13.4283C36.2395 13.425 36.2345 13.4166 36.2329 13.4099ZM36.5046 15.8989C36.9962 15.7266 37.4396 15.4289 37.7929 15.0458C38.1579 14.6527 38.4313 14.1827 38.6063 13.6776C38.6796 13.7027 38.7513 13.7311 38.823 13.7579C38.3429 14.9505 37.4079 15.939 36.2479 16.4961C36.0062 16.3422 35.7662 16.1899 35.5229 16.0394C35.8562 16.0494 36.1895 16.0076 36.5062 15.8989H36.5046ZM32.1877 12.9734C31.6794 13.0854 31.1744 13.2126 30.6677 13.3347C30.6244 13.3447 30.591 13.3631 30.561 13.3832C29.681 12.9801 28.7893 12.6054 27.8876 12.2608C28.2076 12.1872 28.5243 12.0835 28.8276 11.9497C29.5276 11.6436 30.1027 11.1669 30.6477 10.64C31.1944 10.1164 31.7344 9.63134 32.4277 9.31186C33.0511 9.02415 33.7428 8.86692 34.4245 8.81005C35.6995 8.70132 37.2379 8.8251 38.2296 9.73003C39.1746 10.5915 39.3246 11.9781 39.018 13.1657C36.8346 12.2959 34.4378 12.4816 32.1861 12.975L32.1877 12.9734ZM32.7928 14.4805C32.3444 14.2446 31.8944 14.0171 31.4394 13.798C31.8194 13.7077 32.2011 13.6207 32.5844 13.5421C32.5761 13.8833 32.6511 14.1978 32.7944 14.4805H32.7928ZM49.3666 46.1093C49.3666 47.9075 47.9033 49.3694 46.1049 49.3694H39.6213C40.328 46.9005 41.1097 44.455 41.9681 42.0363C42.5881 40.2917 43.2464 38.5588 43.9448 36.8426C45.2715 37.1119 46.5649 37.5418 47.7849 38.1323C47.9383 38.2059 48.1249 38.1741 48.2166 38.0202C48.2699 37.9299 48.2699 37.8061 48.2199 37.7091C48.2533 35.4794 47.8466 33.2464 47.0182 31.1739C46.9482 30.9966 46.7932 30.9113 46.6216 30.9598C45.6699 30.5433 44.7132 30.1402 43.7481 29.7504C42.7848 29.3607 41.8164 28.9526 40.8264 28.6331C40.4914 28.5244 40.148 28.4357 39.7997 28.3805C39.933 28.2065 40.0547 28.0242 40.1663 27.8302C40.5997 27.0725 40.8297 26.1876 40.7247 25.3161C40.7247 25.3061 40.7214 25.2977 40.7197 25.2877C41.1164 25.0987 41.4731 24.8478 41.7431 24.4698C42.1547 23.8927 42.2714 23.135 42.1814 22.4425C41.9664 20.7882 40.6164 19.6658 39.3763 18.709C38.5546 18.0751 37.7113 17.4679 36.8479 16.8925C37.9829 16.2635 38.8813 15.2432 39.383 14.0489C39.9263 12.7509 39.998 11.1317 39.2063 9.91235C38.3863 8.64947 36.8462 8.20788 35.4162 8.15436C33.8811 8.09748 32.2927 8.44373 31.0677 9.41054C30.3643 9.96253 29.806 10.6818 29.0293 11.1384C28.2909 11.5717 27.4459 11.7858 26.5909 11.764C26.5725 11.764 26.5559 11.764 26.5375 11.7674C26.2442 11.6653 25.9492 11.565 25.6525 11.468C25.3075 11.3559 24.9592 11.2488 24.6108 11.1451C24.6075 11.1267 24.6042 11.1067 24.6008 11.0866C24.6008 11.0548 24.5975 11.023 24.5858 10.9912C24.5792 10.9528 24.5625 10.9193 24.5408 10.8892C23.9991 9.66145 23.0474 8.69631 21.8057 8.16774C21.2024 7.91182 20.5674 7.76295 19.914 7.7044C19.229 7.64586 18.5406 7.71277 17.8623 7.81815C15.8589 8.12592 13.8721 9.06597 12.8888 10.9243C12.3021 12.0367 12.0437 13.4367 12.3571 14.6711C12.4554 15.0609 12.6088 15.4339 12.7954 15.7902C12.7821 15.8019 12.7671 15.8136 12.7521 15.8286C11.1087 17.5649 9.44365 19.3262 8.23694 21.4054C7.1069 23.3507 6.33854 25.6406 6.63522 27.9121C6.79023 29.1115 7.14523 30.2773 7.60858 31.393C7.59025 31.4582 7.59192 31.5302 7.61359 31.5954C7.45358 32.6124 7.28857 33.6294 7.1419 34.6497C6.99523 35.6584 6.9219 36.6938 7.36525 37.6422C7.43858 37.7961 7.65858 37.8345 7.79692 37.7542C7.80026 37.7542 7.80193 37.7509 7.80526 37.7492C8.44528 37.8546 9.08197 37.9801 9.71866 38.1139C9.51865 41.0678 9.37865 44.0335 8.91863 46.9624C8.79196 47.7703 8.63695 48.5749 8.44528 49.3694H3.88847C2.09007 49.3694 0.626689 47.9075 0.626689 46.1093V3.89235C0.626689 2.09421 2.09007 0.632276 3.88847 0.632276H46.1049C47.9033 0.632276 49.3666 2.09421 49.3666 3.89235V46.111V46.1093Z" fill="white"/>
<path d="M13.0774 15.2251C13.0774 15.2251 17.5525 12.6859 23.9994 13.6159C23.7794 17.1771 20.231 18.6072 17.5625 18.6089C14.8941 18.6106 13.7007 16.4143 13.0791 15.2251H13.0774Z" fill="#F9F8F4"/>
<mask id="mask0_8375_32516" style="mask-type:luminance" maskUnits="userSpaceOnUse" x="13" y="13" width="11" height="6">
<path d="M13.0776 15.226C13.0776 15.226 17.5528 12.6869 23.9997 13.6169C23.7797 17.1781 20.2312 18.6082 17.5628 18.6099C14.8944 18.6115 13.701 16.4153 13.0793 15.226H13.0776Z" fill="white"/>
</mask>
<g mask="url(#mask0_8375_32516)">
<path d="M15.4709 13.8977C15.4709 13.8977 15.9893 17.5392 19.4061 17.1093C23.3379 16.6142 22.7495 13.1417 22.7495 13.1417C22.7495 13.1417 17.741 12.7804 15.4709 13.8977Z" fill="#252525"/>
<path d="M19.6811 14.8945C20.0917 14.8945 20.4245 14.562 20.4245 14.1519C20.4245 13.7417 20.0917 13.4092 19.6811 13.4092C19.2706 13.4092 18.9377 13.7417 18.9377 14.1519C18.9377 14.562 19.2706 14.8945 19.6811 14.8945Z" fill="#F9F8F4"/>
</g>
<path d="M31.1711 13.6791C31.1711 13.6791 35.1696 12.4196 38.9431 13.3998C38.593 15.2531 36.263 16.6481 36.263 16.6481C36.263 16.6481 32.0462 14.2679 31.1711 13.6791Z" fill="#F9F8F4"/>
<mask id="mask1_8375_32516" style="mask-type:luminance" maskUnits="userSpaceOnUse" x="31" y="13" width="8" height="4">
<path d="M31.1711 13.6801C31.1711 13.6801 35.1696 12.4205 38.9431 13.4007C38.593 15.2541 36.263 16.6491 36.263 16.6491C36.263 16.6491 32.0462 14.2689 31.1711 13.6801Z" fill="white"/>
</mask>
<g mask="url(#mask1_8375_32516)">
<path d="M33.8629 12.7715C33.8629 12.7715 32.9345 15.1818 35.7046 15.4394C38.233 15.6753 38.4064 12.8066 38.4064 12.8066L33.8629 12.7715Z" fill="#252525"/>
<path d="M35.8162 14.1414C36.1605 14.1414 36.4396 13.862 36.4396 13.5175C36.4396 13.1729 36.1605 12.8936 35.8162 12.8936C35.472 12.8936 35.1929 13.1729 35.1929 13.5175C35.1929 13.862 35.472 14.1414 35.8162 14.1414Z" fill="#F9F8F4"/>
</g>
<path d="M7.60041 38.1629C10.3405 38.3552 13.0589 38.8119 15.714 39.5228C16.4707 39.7252 17.2224 39.9493 17.9691 40.1918C18.1291 40.2437 18.3158 40.13 18.3574 39.9711C18.8941 37.9053 18.8908 35.7074 19.6658 33.7018C19.8758 33.1599 20.1592 32.6463 20.5075 32.1813C20.6092 32.0442 20.5292 31.8284 20.3942 31.7498C20.2325 31.6561 20.0658 31.7264 19.9625 31.8635C18.6425 33.6249 18.4524 35.8863 18.1141 37.9889C18.0158 38.5978 17.9041 39.205 17.7491 39.8038L18.1374 39.583C15.4707 38.7132 12.7256 38.106 9.94216 37.7581C9.1638 37.6611 8.38377 37.5858 7.60041 37.5306C7.43041 37.5189 7.2854 37.6845 7.2854 37.8467C7.2854 38.0274 7.43041 38.1495 7.60041 38.1629Z" fill="#252525"/>
<path d="M45.7949 32.4859C44.3399 34.6119 43.5615 37.1042 42.9682 39.5865C42.7982 40.2957 42.6432 41.0066 42.4882 41.7191C42.4015 42.1156 43.0099 42.2845 43.0965 41.8864C43.6315 39.4292 44.1699 36.9286 45.2716 34.652C45.5816 34.0114 45.9366 33.3925 46.34 32.8037C46.4366 32.6632 46.3666 32.4541 46.2266 32.3722C46.0699 32.2802 45.8916 32.3437 45.7949 32.4859Z" fill="#252525"/>
</svg>
