<svg width="50" height="50" viewBox="0 0 50 50" fill="none" xmlns="http://www.w3.org/2000/svg">
<path d="M45.5793 0.631836H4.42204C2.3285 0.631836 0.631348 2.32899 0.631348 4.42253V45.5798C0.631348 47.6733 2.3285 49.3705 4.42204 49.3705H45.5793C47.6728 49.3705 49.37 47.6733 49.37 45.5798V4.42253C49.37 2.32899 47.6728 0.631836 45.5793 0.631836Z" fill="#252525"/>
<path d="M46.1082 0H3.8918C1.74534 0 0 1.74536 0 3.89182V46.1082C0 48.2547 1.74534 50 3.8918 50H13.0412C13.0412 50 13.0412 50 13.0528 50H46.1082C48.2546 50 50 48.2547 50 46.1082V3.89182C50 1.74536 48.2546 0 46.1082 0ZM15.3865 34.9831C15.355 34.9433 15.3119 34.9201 15.2672 34.9052C15.2059 34.8721 15.1313 34.8588 15.0434 34.882C12.9318 35.4439 10.7008 35.5682 8.54273 35.2185C7.58138 35.0627 6.60843 34.8339 5.72498 34.4146C5.30895 34.2173 4.90618 33.9803 4.54982 33.6886C4.22164 33.4184 3.89345 33.1018 3.74262 32.6941C3.62494 32.3759 3.64151 32.0162 3.95975 31.8339C4.26639 31.6582 4.6874 31.7029 5.0305 31.7377C5.54432 31.7908 6.04986 31.8521 6.56699 31.8554C7.11563 31.8587 7.66425 31.814 8.20625 31.7328C8.73997 31.6532 9.27202 31.5355 9.78585 31.3665C10.2533 31.2123 10.7124 30.9885 11.0074 30.5824C11.2776 30.2112 11.3588 29.6841 11.15 29.2664C10.9196 28.8073 10.3743 28.6448 9.91513 28.5255C8.89743 28.2586 7.83166 28.2437 6.82059 27.9437C6.03825 27.7117 5.29735 27.3222 4.65424 26.8183C3.37963 25.8188 2.36193 24.3072 2.12656 22.6828C2.08678 22.4027 2.06855 21.9486 2.40337 21.8673C2.61387 21.816 2.85089 21.8889 3.0531 21.9419C3.2951 22.0066 3.53378 22.0895 3.76583 22.1839C4.6874 22.5535 5.53769 23.0856 6.48743 23.3906C7.52502 23.7237 8.65378 23.7635 9.71458 23.5248C10.177 23.4204 10.6477 23.2596 10.9693 22.89C11.2726 22.5419 11.3721 22.0447 11.0174 21.6883C10.7024 21.3718 10.187 21.3601 9.78088 21.2375C9.39965 21.1215 9.03501 20.9657 8.68693 20.7717C7.97089 20.3723 7.34601 19.8286 6.83385 19.1888C6.33163 18.5623 5.95206 17.828 5.7283 17.0589C5.61725 16.6777 5.54266 16.2865 5.51614 15.8921C5.49128 15.5125 5.44487 15.0153 5.65206 14.6755C5.68852 14.6158 5.75151 14.5495 5.78466 14.5296C5.82444 14.5031 5.82112 14.5081 5.85759 14.4965C5.86919 14.4932 5.94544 14.4766 5.9156 14.4799C6.00345 14.4683 6.02831 14.4699 6.10787 14.5031C6.09958 14.4998 6.14433 14.5329 6.14433 14.5313C6.1924 14.6489 6.28522 14.7401 6.4029 14.76C7.7836 16.3048 9.6201 17.6573 11.7284 17.8728C12.7992 17.9822 13.8384 17.7137 14.7815 17.2131C15.7313 16.7092 16.5633 16.018 17.4667 15.4379C19.3927 14.2031 21.6585 13.7672 23.911 13.6379C26.2265 13.5053 28.5901 13.5716 30.8775 13.9777C32.1587 14.2047 33.43 14.5495 34.635 15.0434C34.6648 15.065 34.6997 15.0782 34.7394 15.0865C35.5549 15.428 36.3389 15.8407 37.0765 16.3363C38.6942 17.4236 40.0749 18.8988 40.9584 20.6425C41.3943 21.5027 41.6959 22.4342 41.8352 23.3889C41.9877 24.4431 41.9578 25.61 41.4788 26.5829C41.0346 27.4862 40.2473 28.1277 39.3804 28.6051C38.4108 29.1404 37.3483 29.5084 36.2991 29.8482C33.9621 30.6023 31.5388 31.0814 29.0957 31.3316C26.6094 31.5852 24.0536 31.683 21.5673 31.393C20.9574 31.3217 20.3507 31.2173 19.7524 31.083C19.3562 30.9935 19.1888 31.6018 19.585 31.6913C22.0944 32.2549 24.7066 32.2582 27.2608 32.109C29.7802 31.9615 32.293 31.6002 34.7361 30.962C35.9245 30.6504 37.0997 30.2775 38.2401 29.8233C38.923 29.5515 39.5959 29.2415 40.2108 28.8388C40.2108 28.8404 40.2108 28.8421 40.2108 28.8454C40.476 29.699 40.3633 30.6289 39.9987 31.4377C39.6075 32.3029 38.9727 33.0173 38.2251 33.5958C37.4594 34.1892 36.5909 34.645 35.7174 35.0577C34.8057 35.4886 33.8676 35.8632 32.9096 36.1815C30.9968 36.8179 29.0111 37.2356 27.0023 37.4179C24.9867 37.6003 22.9447 37.5589 20.9425 37.2671C19.991 37.1296 19.0363 36.9539 18.1164 36.6704C17.291 36.4152 16.4689 36.0522 15.8258 35.4621C15.665 35.3146 15.5175 35.1555 15.3816 34.9864L15.3865 34.9831ZM39.8081 10.8649C39.813 10.85 39.8296 10.8119 39.8445 10.7721C39.8876 10.8135 39.9291 10.8549 39.9688 10.8997C40.1197 11.0671 40.2407 11.2594 40.3418 11.4599C40.781 12.3251 40.8622 13.3876 40.776 14.339C40.6766 15.4545 40.2771 16.5319 39.6456 17.4518C39.6058 17.5114 39.5959 17.5811 39.6058 17.6507C39.4368 17.4717 39.2611 17.2976 39.0821 17.1286C38.129 16.2335 37.0483 15.5042 35.8897 14.9224C36.392 14.7898 36.8793 14.5893 37.3251 14.3489C37.6798 14.1567 38.0312 13.9213 38.3064 13.6246C38.6594 13.2434 38.9495 12.7975 39.1898 12.3384C39.4368 11.866 39.6357 11.3688 39.8047 10.8649H39.8081ZM42.4832 25.3746C42.5429 24.9321 42.5562 24.4845 42.533 24.0387C42.9838 24.3453 43.6253 24.4199 44.1474 24.4448C44.754 24.4746 45.359 24.4083 45.964 24.3586C46.2607 24.3337 46.564 24.3005 46.8624 24.3088C47.0812 24.3138 47.2137 24.3917 47.2403 24.6204C47.2883 25.058 47.0397 25.489 46.753 25.7973C46.4082 26.1685 45.9756 26.437 45.5248 26.6658C44.4921 27.1879 43.3335 27.4664 42.1766 27.4813C42.0109 27.4829 41.8435 27.4796 41.6777 27.4697C42.107 26.8531 42.3772 26.1404 42.4816 25.3763L42.4832 25.3746ZM42.3871 22.8569C42.344 22.6314 42.2926 22.4077 42.233 22.1889C41.8285 20.7005 41.0545 19.333 40.06 18.1579C40.1014 18.1811 40.1495 18.1976 40.2059 18.201C41.3628 18.2673 42.4783 17.7634 43.3335 17.0109C44.1921 16.2567 44.7756 15.2655 45.2761 14.2528C45.3789 14.044 45.5015 13.8418 45.664 13.6727C45.78 13.5517 45.9507 13.4191 46.0767 13.4473C46.2739 13.4904 46.3535 13.7489 46.4165 13.9147C46.5226 14.1915 46.6088 14.4766 46.6784 14.765C46.9469 15.8921 46.922 17.0871 46.6071 18.2026C46.3253 19.2004 45.8049 20.1253 45.1054 20.8894C44.7623 21.264 44.3827 21.6038 43.965 21.8939C43.7529 22.0414 43.5308 22.1773 43.3037 22.3016C43.0866 22.4193 42.8512 22.5104 42.6457 22.648C42.5562 22.7093 42.4667 22.779 42.3904 22.8585L42.3871 22.8569ZM39.9058 17.9258C39.9108 17.954 39.9191 17.9805 39.9307 18.007C39.9059 17.9772 39.8793 17.949 39.8545 17.9192C39.8727 17.9225 39.8893 17.9258 39.9075 17.9258H39.9058ZM18.0302 37.3036C18.6965 37.5025 19.3827 37.6401 20.0408 37.7561C22.1193 38.1207 24.2392 38.2368 26.3442 38.0992C28.4575 37.9616 30.5576 37.5787 32.5814 36.9505C33.5875 36.6373 34.5753 36.2627 35.5367 35.8334C35.7654 35.7323 35.9925 35.6262 36.2196 35.5185C37.224 37.1329 38.1124 38.8252 38.7439 40.6219C39.3589 42.3706 39.7219 44.1922 39.8959 46.0336C39.997 47.1044 40.0384 48.1801 40.0517 49.2541C39.871 49.2574 39.6904 49.2608 39.5097 49.2624C38.8285 49.2707 38.1473 49.274 37.466 49.2773C36.4914 49.2823 35.5168 49.2856 34.5422 49.2889C33.3621 49.2922 32.1803 49.2956 31.0001 49.2972C29.7172 49.3005 28.436 49.3022 27.1531 49.3055C25.8553 49.3072 24.5558 49.3105 23.258 49.3121C22.0447 49.3138 20.8314 49.3171 19.6181 49.3204C18.5888 49.3237 17.5612 49.3271 16.5319 49.3304C15.776 49.3337 15.0186 49.337 14.2627 49.3453C14.0025 49.347 13.7423 49.3469 13.4821 49.3519C13.5633 48.674 13.6644 47.9994 13.8202 47.3348C13.9743 46.6751 14.1716 46.0286 14.3572 45.3772C14.6174 44.4607 14.8429 43.5358 15.1478 42.6324C15.4528 41.7308 15.8158 40.8506 16.2534 40.0037C16.7424 39.0572 17.3208 38.1555 18.0037 37.3367C18.012 37.3268 18.0203 37.3152 18.0269 37.3036H18.0302ZM49.3702 46.1082C49.3702 47.9066 47.9066 49.3702 46.1082 49.3702H40.6849C40.665 47.3895 40.5407 45.4021 40.1628 43.4546C39.8014 41.5915 39.1865 39.7948 38.366 38.0859C37.8953 37.1063 37.3599 36.1583 36.7864 35.235C37.2837 34.9765 37.7693 34.6947 38.2285 34.3731C39.0539 33.7947 39.8081 33.0886 40.3153 32.2085C40.7992 31.3681 41.0827 30.3686 40.9716 29.3957C40.9434 29.152 40.897 28.9117 40.8241 28.6763C40.7976 28.5918 40.7479 28.5354 40.6882 28.5006C40.786 28.4244 40.8821 28.3448 40.9749 28.2619C41.0512 28.194 41.1225 28.1244 41.1921 28.0531C41.2219 28.063 41.2534 28.0713 41.2865 28.0747C42.5114 28.194 43.7695 28.0332 44.9247 27.6089C45.9391 27.236 47.0977 26.6608 47.6231 25.6597C47.8602 25.2055 48.0077 24.5558 47.7093 24.0934C47.3497 23.5348 46.5806 23.6806 46.0187 23.727C45.3872 23.7784 44.7524 23.8514 44.1159 23.8182C43.8142 23.8016 43.5159 23.7552 43.2258 23.6674C43.1081 23.6326 42.9888 23.5961 42.8844 23.5282C42.8363 23.4983 42.7733 23.4353 42.7733 23.4105C42.7683 23.2563 43.0882 23.1105 43.2109 23.0508C43.4479 22.9331 43.6833 22.8154 43.9104 22.6795C44.3761 22.3977 44.812 22.0613 45.2049 21.6867C45.9971 20.9309 46.6121 20.001 47.0066 18.98C47.4541 17.8181 47.5801 16.5418 47.411 15.3103C47.3265 14.6987 47.1706 14.0954 46.9287 13.5268C46.8242 13.2815 46.6734 13.0412 46.4281 12.9152C46.1662 12.781 45.8828 12.7942 45.6209 12.9185C45.1286 13.1522 44.8535 13.6843 44.6231 14.1467C44.3629 14.6705 44.0695 15.181 43.7214 15.6517C43.0534 16.5551 42.1169 17.2993 40.9948 17.5231C40.7711 17.5678 40.544 17.5811 40.3153 17.5761C40.8506 16.7357 41.2086 15.7777 41.3512 14.7915C41.5037 13.7357 41.4589 12.5986 41.0794 11.5925C40.8954 11.1052 40.6285 10.6262 40.2324 10.2781C39.992 10.0676 39.6605 9.97812 39.4152 10.2383C39.2395 10.424 39.1915 10.724 39.1069 10.9577C38.923 11.4666 38.7009 11.9622 38.4191 12.4246C38.1821 12.8125 37.9069 13.1937 37.5406 13.4721C37.1445 13.7738 36.6804 13.9959 36.213 14.1633C35.777 14.3191 35.3229 14.4384 34.8687 14.4633C34.398 14.2694 33.919 14.0953 33.4317 13.9445C31.1592 13.2417 28.7625 12.9915 26.3906 12.9616C24.0652 12.9318 21.6568 13.0362 19.4391 13.797C18.3468 14.1716 17.3689 14.7252 16.4274 15.3865C15.5539 15.9998 14.6771 16.6794 13.6561 17.0291C11.5527 17.7468 9.41623 16.7026 7.84989 15.3169C7.44547 14.9589 7.06921 14.5727 6.71617 14.165C6.66313 14.1036 6.6018 14.0738 6.54213 14.0655C6.32666 13.8716 6.01836 13.8036 5.71173 13.8882C5.23934 14.0174 4.98906 14.4799 4.91779 14.9357C4.78519 15.8059 4.94265 16.749 5.23271 17.5728C5.81283 19.2153 7.02778 20.6474 8.58748 21.4381C8.97699 21.6353 9.38805 21.7961 9.80905 21.9071C10.0179 21.9618 10.2483 21.9817 10.4488 22.0646C10.5019 22.0861 10.5566 22.1143 10.5914 22.1624C10.6378 22.2254 10.6279 22.2502 10.6129 22.2966C10.5035 22.658 9.99304 22.8138 9.65988 22.895C9.1328 23.0259 8.58914 23.0723 8.04714 23.0458C6.96976 22.9911 6.02002 22.5651 5.06696 22.0977C4.59789 21.869 4.12551 21.6403 3.63157 21.4679C3.16582 21.3054 2.58238 21.1115 2.1017 21.3121C1.16025 21.7049 1.49672 23.0011 1.73374 23.7337C2.00888 24.584 2.4448 25.3663 2.99841 26.0641C4.13379 27.4978 5.76145 28.4526 7.55818 28.7625C8.10515 28.857 8.65875 28.915 9.20407 29.0178C9.48087 29.0692 9.75436 29.1338 10.0229 29.2183C10.2085 29.2763 10.4389 29.3443 10.5582 29.5117C10.7803 29.8233 10.5284 30.2526 10.2698 30.4482C9.87867 30.7449 9.34164 30.8593 8.87422 30.9687C7.79188 31.2239 6.66976 31.2902 5.56255 31.1742C4.75867 31.0896 3.62494 30.8858 3.17079 31.7742C2.69509 32.7024 3.50726 33.6787 4.19843 34.2207C4.99237 34.8422 5.92388 35.2466 6.8902 35.5151C9.04992 36.1152 11.3671 36.1898 13.5749 35.8417C14.0638 35.7654 14.5478 35.6627 15.0269 35.54C15.6584 36.2759 16.4888 36.7583 17.3921 37.0964C16.207 38.5699 15.3318 40.2573 14.6887 42.0324C14.3522 42.9623 14.1086 43.9137 13.8434 44.8651C13.6495 45.5645 13.434 46.2574 13.2583 46.9635C13.0627 47.7574 12.9401 48.5646 12.8439 49.3751H3.88517C2.08679 49.3751 0.624874 47.9116 0.624874 46.1132V3.89677C0.624874 2.09839 2.08844 0.634834 3.88517 0.634834H46.1016C47.8999 0.634834 49.3635 2.09839 49.3635 3.89677V46.1132L49.3702 46.1082Z" fill="white"/>
<path d="M37.2604 20.1503C37.2604 20.1503 37.2604 20.142 37.2638 20.1337C37.2638 20.1304 37.2638 20.1254 37.2638 20.1221C37.2604 20.1254 37.2604 20.137 37.2588 20.1503H37.2604Z" fill="white"/>
<path d="M37.3866 18.6865C35.8915 18.6865 34.6782 19.8451 34.6782 21.2739C34.6782 22.7026 35.8915 23.8612 37.3866 23.8612C38.8816 23.8612 40.0949 22.7026 40.0949 21.2739C40.0949 19.8451 38.8816 18.6865 37.3866 18.6865ZM39.2032 22.0065C38.7225 22.7291 37.8523 23.2148 36.9755 23.0921C36.1169 22.9728 35.3926 22.2601 35.376 21.3766C35.3611 20.5844 35.87 19.7258 36.6208 19.4258C36.8959 19.2865 37.1993 19.2119 37.5059 19.2103C37.5192 19.207 37.5291 19.202 37.5407 19.197C37.6219 19.1688 37.7031 19.1838 37.7711 19.2236C38.1175 19.2683 38.454 19.4026 38.7407 19.6329C39.4303 20.1882 39.7153 21.239 39.2048 22.0048L39.2032 22.0065Z" fill="white"/>
<path d="M38.3743 20.2467C38.3644 20.2119 38.3561 20.1787 38.3428 20.1439C38.3395 20.1356 38.3395 20.129 38.3379 20.1207C38.2782 20.071 38.2152 20.0279 38.1506 19.9898C37.9881 19.897 37.8091 19.8472 37.6301 19.834C37.6268 19.8373 37.6218 19.8373 37.6185 19.839C37.6069 19.8423 37.597 19.8472 37.5854 19.8522H37.5821C37.524 19.882 37.466 19.9086 37.4113 19.945C37.3997 19.9517 37.3898 19.9583 37.3782 19.9666C37.3566 19.9865 37.3351 20.008 37.3135 20.0296L37.3102 20.0329C37.3052 20.0412 37.3003 20.0478 37.2953 20.0561C37.2887 20.066 37.2837 20.0776 37.2771 20.0876C37.2738 20.1025 37.2688 20.1174 37.2638 20.1323C37.2638 20.1423 37.2605 20.1489 37.2605 20.1522C37.2605 20.1688 37.2605 20.187 37.2638 20.2003C37.2704 20.2169 37.2787 20.2434 37.282 20.2517C37.2854 20.26 37.2854 20.2649 37.287 20.2682C37.2903 20.2765 37.2953 20.2832 37.2986 20.2898C37.3102 20.3113 37.3235 20.3312 37.3384 20.3511C37.3434 20.3561 37.3765 20.3959 37.3832 20.4042C37.3948 20.4141 37.4047 20.4241 37.4163 20.434L37.4196 20.4373C37.4494 20.4572 37.4809 20.4771 37.5124 20.4937C37.5257 20.5003 37.5406 20.5069 37.5539 20.5136C37.5572 20.5136 37.5572 20.5136 37.5622 20.5169C37.597 20.5285 37.6301 20.5401 37.6649 20.55C37.6997 20.56 37.7362 20.5682 37.7727 20.5749C37.7826 20.5782 37.8423 20.5832 37.8489 20.5865C37.9185 20.5931 37.9881 20.5997 38.0578 20.5964C38.076 20.5964 38.0942 20.5964 38.1124 20.5931C38.1158 20.5931 38.1207 20.5931 38.1257 20.5898C38.1489 20.5832 38.1705 20.5766 38.192 20.5699C38.1986 20.565 38.2434 20.5434 38.2533 20.5368C38.2583 20.5334 38.2616 20.5335 38.2633 20.5301C38.2716 20.5235 38.2782 20.5169 38.2865 20.5103C38.2964 20.5003 38.3279 20.4572 38.3312 20.4572C38.3395 20.4439 38.3478 20.429 38.3544 20.4158C38.3544 20.4125 38.3743 20.3545 38.3776 20.3445C38.3776 20.3395 38.3776 20.3362 38.381 20.3346C38.381 20.3213 38.381 20.308 38.3843 20.2948C38.3843 20.2782 38.3843 20.2616 38.381 20.245L38.3743 20.2467Z" fill="white"/>
<path d="M21.0371 23.8015C21.0371 23.8015 21.0371 23.7932 21.0338 23.7882C21.0338 23.7849 21.0156 23.7368 21.0156 23.7302C20.9973 23.6937 20.9758 23.6556 20.9493 23.6225C20.9426 23.6175 20.9144 23.5827 20.9144 23.5827C20.8979 23.5661 20.8813 23.5495 20.8647 23.533C20.8481 23.518 20.8299 23.5031 20.8133 23.4882L20.8034 23.4782C20.8034 23.4782 20.7951 23.4749 20.7885 23.47C20.7404 23.4401 20.6957 23.4103 20.6443 23.3854C20.6376 23.3821 20.5946 23.3672 20.5946 23.3656C20.5763 23.3589 20.5581 23.3523 20.5399 23.3473C20.5034 23.3357 20.4653 23.3291 20.4271 23.3208C20.4139 23.3175 20.3874 23.3142 20.3807 23.3125C20.3575 23.3125 20.3343 23.3125 20.3111 23.3125C20.2664 23.3125 20.2216 23.3191 20.1769 23.3274C20.147 23.3357 20.1155 23.344 20.084 23.3556C20.0724 23.3622 20.0459 23.3738 20.0409 23.3771C20.0177 23.3904 19.9962 23.4037 19.9746 23.4186C19.9664 23.4252 19.9465 23.4418 19.9415 23.4468C19.9266 23.46 19.9117 23.4766 19.8967 23.4932C19.8967 23.4965 19.8686 23.5379 19.857 23.5578C19.857 23.5611 19.8338 23.6225 19.8338 23.6225C19.8255 23.6457 19.8205 23.6672 19.8172 23.6921C19.8139 23.7053 19.8122 23.7153 19.8106 23.7203V23.7501C19.8106 23.8131 19.8072 23.8744 19.8106 23.9374C19.8106 23.949 19.8106 23.9506 19.8106 23.9523C19.8106 23.9589 19.8139 23.9622 19.8139 23.9705C19.8172 23.9838 19.8205 23.9937 19.8222 24.007C19.8404 24.0252 19.8603 24.0435 19.8802 24.0617C19.8818 24.0617 19.8885 24.0667 19.8934 24.07C19.9166 24.0866 19.9415 24.1031 19.9664 24.118C19.9912 24.1346 20.0194 24.1495 20.0459 24.1628C20.0459 24.1628 20.0708 24.1761 20.0874 24.1843C20.1006 24.1893 20.1387 24.2042 20.1387 24.2042C20.1686 24.2142 20.1968 24.2241 20.2266 24.2324C20.2631 24.2424 20.3012 24.2507 20.3393 24.2573C20.331 24.2573 20.3211 24.2573 20.3211 24.2573C20.3244 24.2573 20.3343 24.2573 20.3559 24.2606C20.4172 24.2656 20.4802 24.2656 20.5432 24.2639H20.5647C20.5945 24.2606 20.6211 24.254 20.6509 24.2457C20.6807 24.2374 20.7122 24.2274 20.7437 24.2191C20.7537 24.2158 20.7603 24.2142 20.7653 24.2125C20.7702 24.2092 20.7752 24.2059 20.7852 24.2009C20.8133 24.1843 20.8399 24.1694 20.8664 24.1529C20.8763 24.1462 20.883 24.1429 20.8863 24.1412C20.8896 24.1379 20.8946 24.1313 20.9028 24.123C20.9211 24.1048 20.9393 24.0866 20.9575 24.0667C20.9609 24.0617 20.9658 24.0551 20.9675 24.0534C20.9791 24.0335 20.9907 24.0136 21.0006 23.9937C21.0006 23.9888 21.0205 23.9473 21.0238 23.9424C21.0305 23.9192 21.0354 23.8943 21.0404 23.8711C21.0404 23.8711 21.0404 23.87 21.0404 23.8678C21.0404 23.8678 21.0404 23.8595 21.0371 23.8545C21.0371 23.8379 21.0371 23.823 21.0371 23.8081V23.8015Z" fill="white"/>
<path d="M20.074 21.8047C18.4248 21.8047 17.0872 23.0826 17.0872 24.6572C17.0872 26.2319 18.4248 27.5098 20.074 27.5098C21.7232 27.5098 23.0608 26.2319 23.0608 24.6572C23.0608 23.0826 21.7232 21.8047 20.074 21.8047ZM22.0762 25.6086C21.5193 26.439 20.5149 26.9827 19.5054 26.8186C18.5706 26.6661 17.7933 25.8672 17.7767 24.9042C17.7601 24.0174 18.3286 23.0495 19.1706 22.713C19.9215 22.3285 20.8613 22.3881 21.5458 22.9351C22.3282 23.5583 22.653 24.7434 22.0746 25.607L22.0762 25.6086Z" fill="white"/>
<path d="M21.4214 25.453C21.4396 25.4315 21.4579 25.4099 21.4744 25.3867C21.4595 25.4 21.4446 25.4166 21.428 25.4298C21.4247 25.4381 21.4247 25.4447 21.4214 25.453Z" fill="white"/>
</svg>
