<svg width="50" height="50" viewBox="0 0 50 50" fill="none" xmlns="http://www.w3.org/2000/svg">
<path d="M45.5485 0.629883H4.43129C2.3263 0.629883 0.619873 2.33611 0.619873 4.44085V45.5533C0.619873 47.658 2.3263 49.3643 4.43129 49.3643H45.5485C47.6535 49.3643 49.36 47.658 49.36 45.5533V4.44085C49.36 2.33611 47.6535 0.629883 45.5485 0.629883Z" fill="#252525"/>
<path d="M36.749 30.7159C36.7207 30.7375 36.7124 30.7442 36.7474 30.7209C36.7624 30.7109 36.7773 30.7025 36.794 30.6925C36.8057 30.6859 36.8173 30.6809 36.8307 30.6742C36.864 30.6642 36.8973 30.6525 36.9307 30.6442C36.9407 30.6425 36.954 30.6409 36.9673 30.6375C36.9506 30.6392 36.9323 30.6375 36.964 30.6375C36.9673 30.6375 36.969 30.6375 36.9723 30.6375C36.9756 30.6375 36.9806 30.6375 36.984 30.6342C36.9823 30.6342 36.979 30.6359 36.9756 30.6375C37.0073 30.6359 37.0406 30.6342 37.0723 30.6342C37.089 30.6342 37.1056 30.6359 37.1206 30.6375C37.1523 30.6442 37.1823 30.6509 37.2123 30.6592C37.2289 30.6642 37.2439 30.6692 37.2589 30.6742C37.2873 30.6892 37.3156 30.7042 37.3422 30.7209C37.3456 30.7225 37.3522 30.7275 37.3606 30.7325C37.3706 30.7409 37.3839 30.7509 37.3839 30.7525C37.4106 30.7775 37.4356 30.8042 37.4606 30.8308C37.4739 30.8458 37.4872 30.8625 37.5005 30.8775C37.5005 30.8792 37.5022 30.8792 37.5039 30.8808C37.6072 31.0241 37.7105 31.1741 37.8438 31.2924C37.9671 31.4024 38.1704 31.4224 38.2904 31.2924C38.4004 31.1724 38.422 30.9641 38.2904 30.8458C38.2537 30.8125 38.2188 30.7792 38.1871 30.7425C38.1738 30.7275 38.1604 30.7109 38.1471 30.6959C38.1471 30.6959 38.1471 30.6959 38.1454 30.6925C38.0804 30.6042 38.0171 30.5159 37.9488 30.4326C37.8122 30.2659 37.6439 30.1476 37.4439 30.071C37.2656 30.0027 37.0673 29.991 36.8807 30.016C36.6624 30.046 36.4774 30.1343 36.3041 30.2693C36.1741 30.3709 36.1891 30.6092 36.3041 30.7159C36.4424 30.8425 36.6107 30.8242 36.7507 30.7159H36.749Z" fill="white"/>
<path d="M31.8479 24.9048C31.2713 24.9115 30.7897 24.5099 30.3347 24.2016C29.8281 23.8583 29.2965 23.5534 28.7465 23.2884C27.6282 22.7502 26.4366 22.3669 25.2117 22.1637C24.5168 22.0487 23.8152 21.987 23.1119 21.9854C22.7052 21.9854 22.7052 22.6152 23.1119 22.6169C23.5968 22.6186 24.0801 22.6502 24.5618 22.7102C24.8701 23.6417 25.2967 24.5882 26.0717 25.2248C26.4366 25.5247 26.8583 25.7647 27.3216 25.868C27.8216 25.9796 28.3415 25.9363 28.8282 25.7813C29.3864 25.6047 29.8964 25.3097 30.3864 24.9965C30.8297 25.2881 31.298 25.543 31.8479 25.5364C32.2529 25.5314 32.2546 24.9015 31.8479 24.9048ZM27.0133 25.2698C25.3617 24.4666 25.2351 22.8752 25.2351 22.8752C25.2351 22.8752 27.0116 23.2251 27.7199 23.5317L27.7232 23.5284C28.0549 23.6617 28.3815 23.8117 28.6998 23.9733C28.7282 23.9866 28.7448 23.995 28.7448 23.995L29.9531 24.6465C29.9531 24.6465 28.6665 26.0729 27.0149 25.2698H27.0133Z" fill="white"/>
<path d="M27.7247 23.4668L28.7445 23.995C28.7445 23.995 28.4596 24.5949 27.908 24.3783C27.3565 24.1617 27.7264 23.4668 27.7264 23.4668H27.7247Z" fill="#F9F8F4"/>
<path d="M46.1103 0H3.89141C1.74655 0 0 1.74634 0 3.89262V46.1049C0 48.2511 1.74655 49.9975 3.89141 49.9975H7.16119C7.18952 50.0008 7.21619 50.0008 7.24285 49.9975H46.1086C48.2551 49.9975 50 48.2511 50 46.1049V3.89262C50 1.74634 48.2551 0 46.1086 0H46.1103ZM29.6647 42.4006C29.7997 43.9986 29.8047 45.6083 29.8547 47.213C29.8747 47.8762 29.888 48.5461 29.933 49.2093C29.7963 49.2126 29.6597 49.216 29.5247 49.2176C28.9481 49.226 28.3731 49.2293 27.7981 49.2326C26.9749 49.2376 26.1499 49.241 25.3283 49.2443C24.335 49.2476 23.3434 49.251 22.3518 49.2526C21.2702 49.256 20.1903 49.2576 19.1087 49.261C18.0205 49.2643 16.9289 49.266 15.8389 49.2693C14.8207 49.2726 13.8007 49.2743 12.7825 49.2776C11.9125 49.281 11.0443 49.2826 10.176 49.2876C9.5377 49.291 8.89941 49.2959 8.26112 49.3009C7.99613 49.3043 7.72782 49.3043 7.4645 49.3126C7.4645 49.3043 7.46117 49.2976 7.46117 49.291C7.44784 49.1743 7.43284 49.056 7.41951 48.9377C7.38784 48.6394 7.36451 48.3378 7.34451 48.0379C7.29451 47.2763 7.27285 46.5131 7.26452 45.7499C7.24118 43.787 7.31118 41.8207 7.4445 39.8627C7.59283 37.6614 7.82281 35.4768 8.17445 33.3206C8.5061 31.2809 8.9344 29.2446 9.60103 27.2867C9.88767 26.4418 10.166 25.7419 10.5776 24.9571C10.7576 24.6172 10.9526 24.2855 11.1709 23.9689C11.2176 23.899 11.2676 23.8306 11.3176 23.764C11.3392 23.7356 11.3609 23.7073 11.3826 23.679C11.3826 23.679 11.4376 23.6107 11.4476 23.5973C11.5509 23.4707 11.6592 23.3457 11.7725 23.2257C11.8559 23.1374 11.9442 23.0541 12.0342 22.9741C12.9108 23.4024 13.7791 23.884 14.504 24.5288C14.9557 24.9304 15.369 25.4153 15.5473 26.0036C15.714 26.5568 15.6423 27.1483 15.3606 27.6516C15.0457 28.2115 14.5157 28.6031 13.8774 28.6981C13.2491 28.7947 12.5742 28.5997 12.1059 28.1698C12.0575 28.1265 12.0059 28.1015 11.9525 28.0915C11.7209 27.9499 11.3526 28.2232 11.5176 28.5264C12.4492 30.2428 13.8057 31.7042 15.409 32.814C16.9989 33.9138 18.8487 34.6653 20.7619 34.9536C21.8185 35.1119 22.8651 35.1169 23.9284 35.0236C25.1567 34.9169 26.3699 34.7903 27.5998 34.9436C28.7397 35.0852 29.8563 35.4285 30.8863 35.9334C31.1213 36.0501 31.3512 36.17 31.5829 36.295C30.8329 36.7716 30.2913 37.5281 29.968 38.3663C29.4764 39.6444 29.558 41.0641 29.6697 42.4022L29.6647 42.4006ZM21.0169 12.2028C21.0003 12.1844 20.9803 12.1661 20.9569 12.1494C20.7519 12.0095 20.542 11.8778 20.3286 11.7495C19.7337 12.916 18.8387 13.9158 17.7538 14.654C17.4172 14.8823 17.1022 14.3357 17.4355 14.1091C18.4321 13.4325 19.2337 12.506 19.782 11.4379C19.4754 11.2713 19.1621 11.1146 18.8437 10.9713C20.4486 9.94318 22.1219 8.92503 24.0034 8.51677C25.0433 8.29014 26.0899 8.32681 27.1315 8.5201C28.2048 8.7184 29.2897 8.95835 30.333 9.2783C30.8363 9.4316 31.3312 9.6149 31.8012 9.85152C32.2812 10.0931 32.7278 10.3898 33.1595 10.7097C34.0611 11.3796 34.916 12.1144 35.7876 12.8226C36.6742 13.5425 37.5742 14.2457 38.4424 14.9856C38.8291 15.3155 39.2091 15.6688 39.5207 16.0721C39.7973 16.4287 40.024 16.8269 40.2073 17.2385C40.9323 18.8682 40.9323 20.7429 40.8556 22.4975C40.7073 22.3026 40.559 22.1076 40.4106 21.9126C40.3073 21.7777 40.1373 21.706 39.979 21.7993C39.8457 21.8777 39.7623 22.0943 39.8657 22.2309C40.2856 22.7808 40.7056 23.3324 41.1256 23.8823C41.5222 24.4005 41.9005 24.9454 42.3288 25.4387C42.7355 25.9036 43.2304 26.1685 43.8087 26.3618C44.2837 26.5201 44.8037 26.6401 45.177 26.995C45.4903 27.29 45.6886 27.6949 45.7519 28.1198C45.8219 28.6014 45.687 29.023 45.442 29.4329C45.282 29.6995 45.132 29.9745 45.0703 30.2828C45.007 30.591 45.007 30.9043 45.0453 31.2159C45.1203 31.8225 45.3103 32.4091 45.3803 33.0173C45.532 34.3537 45.2986 35.7201 44.6904 36.9199C41.2089 36.9166 37.7625 35.9867 34.6894 34.362C33.9127 33.9488 33.1561 33.4955 32.4295 32.9989C31.7229 32.519 31.0396 32.0058 30.328 31.5342C29.608 31.0593 28.8597 30.6277 28.0498 30.3261C27.2665 30.0328 26.4449 29.9095 25.61 29.8662C23.9284 29.7812 22.0219 30.0395 20.572 28.993C20.4336 28.893 20.2203 28.9697 20.1403 29.1047C20.047 29.263 20.1153 29.4363 20.2537 29.5362C21.5969 30.5077 23.3268 30.4427 24.9067 30.4744C25.6966 30.4894 26.4916 30.5261 27.2582 30.7327C28.0815 30.9527 28.8397 31.3426 29.5614 31.7908C30.2863 32.2408 30.9746 32.749 31.6729 33.2406C32.4028 33.7538 33.1545 34.2354 33.9344 34.6686C35.496 35.5368 37.1592 36.235 38.8791 36.7249C39.329 36.8516 39.7807 36.9649 40.2373 37.0649C39.564 37.3315 38.8274 37.3948 38.0958 37.3798C37.5808 37.3665 37.0675 37.3181 36.5559 37.2632C35.9693 37.1982 35.381 37.1349 34.8043 37.0049C34.0244 36.8299 33.3128 36.4966 32.6128 36.13C32.5528 36.0117 32.4128 35.9284 32.2812 35.9534C32.0929 35.8534 31.9062 35.7534 31.7179 35.6535C30.698 35.1119 29.6314 34.6853 28.4981 34.4537C27.3265 34.2154 26.1483 34.1921 24.96 34.2937C23.8567 34.3887 22.7635 34.5087 21.6569 34.422C19.7903 34.2737 17.9705 33.6555 16.3722 32.6873C14.9073 31.8008 13.6224 30.6094 12.6575 29.193C13.5658 29.4913 14.609 29.3263 15.3456 28.6597C15.8306 28.2215 16.1456 27.5999 16.2323 26.9534C16.3256 26.2702 16.1389 25.5936 15.7673 25.0187C15.0357 23.8923 13.7807 23.1608 12.6125 22.5609C11.4759 21.976 10.2876 21.4977 9.14772 20.9178C8.0278 20.3496 6.93287 19.6664 6.11959 18.6982C7.48617 18.6899 8.83108 19.0182 10.1977 19.0598C11.5209 19.0998 12.8841 18.8499 13.9074 17.955C14.3507 17.5668 14.694 17.0802 14.9307 16.5436C15.079 16.8253 15.2123 17.1135 15.3273 17.4085C15.3906 17.5668 15.539 17.6768 15.7156 17.6284C15.749 17.6184 15.7823 17.6001 15.8123 17.5784C16.3539 17.6718 16.9189 17.5751 17.4355 17.4068C17.9371 17.2435 18.4154 17.0035 18.8454 16.6986C19.7237 16.0721 20.407 15.2172 20.8203 14.2224C21.0503 13.6692 21.1786 13.0826 21.2069 12.4844C21.2153 12.3294 21.1269 12.2328 21.0136 12.1961L21.0169 12.2028ZM49.37 46.1032C49.37 47.9012 47.9085 49.3643 46.1103 49.3643H30.5746C30.5296 48.7777 30.518 48.1878 30.498 47.5996C30.4696 46.7148 30.4463 45.8316 30.418 44.9484C30.3946 44.2469 30.3796 43.5453 30.333 42.8455C30.2513 41.6324 30.0947 40.4026 30.3696 39.2011C30.608 38.1563 31.2263 37.0915 32.2379 36.6449C32.7961 36.9416 33.3594 37.2248 33.9594 37.4265C34.5544 37.6264 35.1727 37.7281 35.7909 37.8081C36.3442 37.878 36.8992 37.9397 37.4542 37.9814C38.5024 38.058 39.5957 38.0347 40.5773 37.6148C40.8073 37.5164 41.0239 37.3998 41.2289 37.2582C42.4155 37.4581 43.6188 37.5614 44.822 37.5564C44.9553 37.5564 45.0437 37.4865 45.0887 37.3931C45.1437 37.3698 45.1936 37.3248 45.2286 37.2548C45.7969 36.135 46.0886 34.8819 46.0536 33.6272C46.0353 32.9789 45.9053 32.3541 45.7703 31.7225C45.6486 31.1576 45.5503 30.5494 45.8353 30.0162C45.9786 29.7479 46.1503 29.4996 46.2586 29.2113C46.3486 28.9747 46.3902 28.7164 46.3986 28.4631C46.4136 27.9632 46.2719 27.4483 46.0069 27.0267C45.7103 26.5551 45.2853 26.2402 44.7737 26.0319C44.2587 25.8203 43.6888 25.7286 43.2205 25.4137C42.9555 25.2337 42.7455 24.9754 42.5522 24.7255C42.3188 24.4255 42.0905 24.1206 41.8589 23.819C41.7206 23.639 41.5839 23.4574 41.4456 23.2774C41.5522 21.3994 41.6239 19.4364 41.0239 17.6284C40.7123 16.6853 40.2107 15.8288 39.5124 15.1206C39.1324 14.7356 38.7108 14.3957 38.2924 14.0541C37.8225 13.6725 37.3542 13.2926 36.8859 12.9126C35.9693 12.1678 35.0543 11.4146 34.1311 10.6764C33.6978 10.3314 33.2594 9.98983 32.7911 9.69322C32.3962 9.4416 31.9812 9.23331 31.5512 9.05167C31.5512 9.02834 31.5479 9.00668 31.5412 8.98169C31.3979 8.3968 31.1579 7.83189 30.8263 7.32865C30.7979 7.28533 30.7646 7.24367 30.7363 7.20035C30.018 7.36032 29.2847 7.4503 28.5498 7.46696C28.1431 7.47696 28.1448 6.84541 28.5498 6.83542C29.1431 6.82208 29.733 6.75542 30.3113 6.64211C30.1097 6.40216 29.898 6.17053 29.6814 5.94724C29.413 5.67063 29.1314 5.40401 28.8397 5.14906C28.3331 5.32403 27.8131 5.46066 27.2815 5.55065C27.1132 5.57898 26.9432 5.50899 26.8932 5.33069C26.8515 5.17905 26.9449 4.97076 27.1132 4.94243C27.5032 4.87578 27.8881 4.78745 28.2664 4.67414C27.8848 4.3742 27.4898 4.09091 27.0815 3.83096C26.5749 3.50602 26.0449 3.21775 25.5016 2.96113C25.4 2.85948 25.2483 2.81949 25.1133 2.89947C25.0583 2.9328 25.0117 2.98778 24.985 3.04944C24.92 3.17941 24.9517 3.37272 25.0817 3.4527C25.9133 4.70414 26.1799 6.27885 25.7849 7.73359C25.42 7.71859 25.055 7.72691 24.6867 7.76857C22.5585 8.01353 20.6486 9.08167 18.8654 10.2081C18.6388 10.3514 18.4154 10.4947 18.1921 10.6381C18.1721 10.6514 18.1538 10.6664 18.1371 10.6814C17.4805 10.4281 16.8055 10.2248 16.1189 10.0715C15.7456 10.9513 15.1857 11.7495 14.4774 12.3944C14.1774 12.6677 13.7308 12.2228 14.0307 11.9478C14.6507 11.3829 15.144 10.6997 15.4856 9.94317C14.354 9.74154 13.1991 9.6749 12.0542 9.75321C11.2243 9.80987 10.3993 9.93984 9.59103 10.1431C9.4577 10.0931 9.28438 10.1665 9.21439 10.2864C9.15106 10.3948 9.16439 10.5064 9.22105 10.6014C9.25605 10.6964 9.33271 10.7747 9.43604 10.7997C11.2909 12.1794 13.1325 13.6958 14.404 15.6488C14.459 15.7305 14.5074 15.8154 14.559 15.8988C14.509 15.9387 14.4707 15.9954 14.449 16.0571C14.0691 17.1469 13.1591 17.9384 12.0592 18.245C10.7959 18.5949 9.46437 18.3983 8.18779 18.2317C7.37284 18.1267 6.55456 18.035 5.73128 18.0817C5.5663 18.0917 5.46964 18.2033 5.43797 18.3283C5.31964 18.4183 5.25298 18.6116 5.34964 18.7416C6.83121 20.7345 9.18272 21.6327 11.3559 22.6508C11.3742 22.6592 11.3926 22.6692 11.4109 22.6775C10.3743 23.6907 9.73102 25.0987 9.22772 26.4301C8.50443 28.3381 8.04946 30.3444 7.69282 32.3491C7.29951 34.562 7.03786 36.7983 6.86454 39.0395C6.70622 41.0658 6.61956 43.0988 6.62289 45.1301C6.62289 46.5398 6.64789 47.9645 6.83454 49.3659H3.88807C2.08986 49.3659 0.628291 47.9029 0.628291 46.1049V3.89262C0.628291 2.09295 2.09153 0.631557 3.88807 0.631557H46.1053C47.9035 0.631557 49.365 2.09461 49.365 3.89262V46.1049L49.37 46.1032Z" fill="white"/>
</svg>
