<svg width="50" height="50" viewBox="0 0 50 50" fill="none" xmlns="http://www.w3.org/2000/svg">
<path d="M45.5415 0.663086H4.42509C2.3199 0.663086 0.613281 2.37579 0.613281 4.48852V45.5798C0.613281 47.6925 2.3199 49.4052 4.42509 49.4052H45.5415C47.6467 49.4052 49.3532 47.6925 49.3532 45.5798V4.48852C49.3532 2.37579 47.6467 0.663086 45.5415 0.663086Z" fill="#252525"/>
<path d="M15.8105 13.5789C15.8105 13.5789 15.8072 13.5789 15.8055 13.5789C15.8022 13.5789 15.8055 13.5789 15.8222 13.5789C15.8455 13.5789 15.8689 13.5789 15.8922 13.5789C15.9022 13.5789 15.9572 13.5722 15.9422 13.5755C15.9889 13.5688 16.0339 13.5688 16.0772 13.5789C16.4239 13.4835 16.7739 13.3982 17.1256 13.323C16.8289 13.1122 16.5856 12.8245 16.4389 12.4933C16.1505 11.8393 16.2122 11.0581 16.6172 10.466C16.7139 10.3255 16.8939 10.2619 17.0506 10.3539C17.1889 10.4342 17.2606 10.645 17.1622 10.7855C16.8789 11.1986 16.7956 11.7506 17.0006 12.2106C17.2006 12.6589 17.6056 12.9633 18.0789 13.0604C18.1273 13.0704 18.1673 13.0938 18.2006 13.1256C18.4306 13.0905 18.6606 13.0587 18.8923 13.0319C18.5873 12.7793 18.3556 12.4448 18.2356 12.0567C18.0306 11.381 18.2189 10.645 18.6723 10.1181C18.784 9.98762 19.0056 10.0043 19.119 10.1181C19.2456 10.2452 19.2306 10.4359 19.119 10.5647C18.4873 11.299 18.8106 12.4749 19.709 12.7944C19.789 12.8228 19.854 12.8747 19.8957 12.9416C21.289 12.8529 22.6924 12.9182 24.0741 13.1356C24.1258 12.4749 24.0875 11.8058 23.9775 11.1602C23.8575 10.8725 23.7041 10.5982 23.5291 10.3406C22.8591 9.35535 21.7991 8.71805 20.649 8.45377C19.4707 8.18446 18.1956 8.32832 17.0322 8.63107C16.5055 8.76823 16.0239 8.94219 15.5555 9.18641C15.3405 9.2968 15.1338 9.42058 14.9355 9.55774C14.7455 9.68821 14.6538 9.76014 14.4755 9.91904C14.1721 10.19 13.9238 10.4727 13.7305 10.7537C13.6321 10.8976 13.5405 11.0464 13.4571 11.2003C13.4154 11.2789 13.3771 11.3576 13.3388 11.4362C13.3204 11.4746 13.3021 11.5148 13.2838 11.5533L13.2604 11.6068C13.2604 11.6068 13.2604 11.6068 13.2604 11.6101C13.2604 11.6135 13.2571 11.6135 13.2571 11.6185C13.1438 11.9012 13.0521 12.1922 12.9838 12.49C12.9538 12.6255 12.9288 12.7593 12.9088 12.8964C12.9088 12.9098 12.9054 12.9182 12.9054 12.9249C12.9054 12.9282 12.9054 12.9332 12.9054 12.9382L12.8938 13.0252C12.8888 13.0804 12.8821 13.1356 12.8788 13.1925C12.8371 13.7127 12.8854 14.2195 13.0304 14.7096C13.6821 14.4035 14.3521 14.1309 15.0355 13.9C14.8488 13.7545 14.6922 13.5655 14.5822 13.3481C14.2505 12.6873 14.3705 11.933 14.5205 11.2421C14.5572 11.0749 14.7522 10.9779 14.9088 11.0213C15.0788 11.0682 15.1655 11.2438 15.1288 11.4094C15.0222 11.9045 14.9088 12.4983 15.0955 12.9633C15.1722 13.1507 15.3088 13.3263 15.4555 13.4317C15.5522 13.5003 15.6139 13.532 15.7155 13.5605C15.7389 13.5672 15.7605 13.5722 15.7855 13.5772C15.7939 13.5772 15.7989 13.5806 15.8072 13.5806C15.8072 13.5806 15.8105 13.5806 15.8122 13.5806L15.8105 13.5789ZM36.2429 13.4267C36.2429 13.4267 36.2395 13.42 36.2362 13.4133C36.2362 13.4133 36.2329 13.4099 36.2329 13.4083C36.2362 13.415 36.2395 13.4217 36.2429 13.4267ZM36.8196 10.66C36.7596 10.5078 36.7812 10.3355 36.9396 10.2419C37.0729 10.1633 37.3046 10.1984 37.3712 10.3556C37.7063 11.1435 37.4979 12.05 36.9279 12.6338C37.1946 12.6673 37.4596 12.7124 37.7246 12.7693C38.2879 12.2524 38.4796 11.4613 38.2179 10.7537C38.1579 10.5915 38.2846 10.4075 38.438 10.3657C38.593 10.3222 38.7346 10.4041 38.8046 10.5379C38.813 10.553 38.8196 10.5697 38.8263 10.5864C39.1146 11.3693 38.9396 12.301 38.4196 12.9516C38.6213 13.0135 38.8213 13.0838 39.0196 13.1641C39.243 12.2976 39.2246 11.3241 38.8296 10.5262C38.6846 10.2302 38.4863 9.96086 38.2313 9.72668C37.2396 8.82176 35.7012 8.69798 34.4262 8.8067C33.7428 8.86525 33.0528 9.02081 32.4294 9.30851C31.736 9.62967 31.196 10.1131 30.6494 10.6366C30.1027 11.1635 29.5293 11.6402 28.8293 11.9463C28.5259 12.0802 28.2093 12.1839 27.8893 12.2575C28.791 12.6037 29.6843 12.9784 30.5627 13.3798C30.5927 13.3581 30.6277 13.3414 30.6694 13.3313C31.176 13.2109 31.6811 13.0821 32.1894 12.97C33.4144 12.7007 34.6812 12.5251 35.9362 12.5585C35.9679 12.5335 36.0045 12.5134 36.0429 12.4983C36.0562 12.4916 36.0629 12.49 36.0662 12.49C36.0695 12.49 36.0729 12.4866 36.0795 12.4833C36.1062 12.4699 36.1329 12.4582 36.1595 12.4448C36.2029 12.4214 36.2445 12.3963 36.2862 12.3679C36.3062 12.3545 36.3279 12.3394 36.3479 12.3244C36.3529 12.3177 36.3662 12.3076 36.3745 12.301C36.4162 12.2658 36.4545 12.229 36.4929 12.1906C36.5229 12.1571 36.5529 12.1253 36.5795 12.0902C36.5879 12.0818 36.6112 12.05 36.6129 12.0467C36.6279 12.0266 36.6412 12.0066 36.6546 11.9848C36.7096 11.9029 36.7562 11.8142 36.7962 11.7239C36.8012 11.7105 36.8146 11.6754 36.8146 11.6754C36.8229 11.6519 36.8312 11.6285 36.8379 11.6051C36.8546 11.5533 36.8696 11.4997 36.8812 11.4462L36.8962 11.3743C36.8962 11.3642 36.8996 11.3525 36.9012 11.3442C36.9079 11.294 36.9112 11.2438 36.9129 11.192C36.9129 11.1384 36.9129 11.0832 36.9096 11.0297C36.9062 11.0063 36.9046 10.9812 36.9012 10.9561V10.9511C36.9012 10.9511 36.8979 10.9427 36.8979 10.9377C36.8862 10.8842 36.8762 10.8323 36.8612 10.7805C36.8546 10.7571 36.8479 10.732 36.8379 10.7102C36.8379 10.7069 36.8229 10.6701 36.8196 10.6584V10.66ZM36.1429 13.2828L36.1395 13.2795L36.1362 13.2761C36.1212 13.2627 36.1162 13.2594 36.1179 13.2627C36.0962 13.2494 36.0745 13.2393 36.0512 13.2293C36.0262 13.2176 36.0062 13.2025 35.9862 13.1858C35.8445 13.1808 35.7029 13.1774 35.5629 13.1791C35.5545 13.1858 35.5462 13.1925 35.5362 13.1975C35.5262 13.2025 35.4829 13.2343 35.4612 13.2443C35.4612 13.2443 35.4578 13.2477 35.4562 13.2494C35.4478 13.2577 35.4412 13.2661 35.4328 13.2728C35.4262 13.2862 35.4195 13.2962 35.4128 13.3079C35.4045 13.3213 35.3962 13.3363 35.3895 13.3514C35.3895 13.3547 35.3862 13.3547 35.3862 13.3598C35.3862 13.3665 35.3829 13.3731 35.3795 13.3798L35.3678 13.4183C35.3645 13.43 35.3545 13.5036 35.3478 13.517C35.3478 13.5304 35.3478 13.5454 35.3445 13.5571C35.3445 13.5872 35.3445 13.619 35.3445 13.6491L35.3478 13.7027C35.3528 13.7261 35.3562 13.7495 35.3629 13.7729C35.3695 13.8014 35.3762 13.8281 35.3862 13.8549C35.3862 13.8632 35.3895 13.8666 35.3895 13.8699C35.3895 13.8733 35.3928 13.8733 35.3928 13.8766C35.4062 13.9051 35.4245 13.9318 35.4412 13.9586C35.4495 13.9669 35.4545 13.9736 35.4629 13.982C35.4679 13.987 35.4745 13.9937 35.4812 13.9987C35.4929 14.0037 35.5045 14.0121 35.5145 14.0171C35.5145 14.0171 35.5145 14.0171 35.5145 14.0205C35.5345 14.0255 35.5545 14.0322 35.5745 14.0372C35.5778 14.0372 35.5878 14.0405 35.5978 14.0405C35.6062 14.0405 35.6128 14.0405 35.6162 14.0405C35.6328 14.0405 35.6495 14.0405 35.6662 14.0405C35.6945 14.0405 35.7245 14.0405 35.7512 14.0372C35.7562 14.0372 35.7645 14.0339 35.7712 14.0339C35.7745 14.0339 35.7779 14.0339 35.7795 14.0339C35.7795 14.0339 35.7806 14.0339 35.7829 14.0339H35.7862L35.7895 14.0305C35.8212 14.0238 35.8529 14.0171 35.8845 14.0071C35.8979 14.0037 35.9112 13.9987 35.9245 13.9937C35.9312 13.9904 35.9429 13.9853 35.9495 13.9837L35.9879 13.9653C36.0162 13.9502 36.0445 13.9335 36.0712 13.9151C36.0779 13.9117 36.0979 13.895 36.1029 13.8917C36.1245 13.8733 36.1429 13.8532 36.1629 13.8331C36.1712 13.8248 36.1779 13.8164 36.1862 13.808C36.2012 13.7813 36.2179 13.7595 36.2295 13.7328V13.7294C36.2295 13.7294 36.2295 13.7294 36.2295 13.7261C36.2295 13.7261 36.2329 13.7227 36.2329 13.7194C36.2329 13.7194 36.2329 13.7194 36.2295 13.7227C36.2329 13.716 36.2345 13.711 36.2362 13.706C36.2445 13.6826 36.2495 13.6575 36.2562 13.6324C36.2562 13.6324 36.2562 13.6291 36.2562 13.6274C36.2562 13.619 36.2562 13.614 36.2562 13.6107C36.2562 13.5856 36.2562 13.5588 36.2562 13.5337C36.2562 13.527 36.2529 13.5136 36.2529 13.5036C36.2479 13.4819 36.2429 13.4601 36.2362 13.4384C36.2329 13.4317 36.2229 13.4099 36.2212 13.3999C36.2129 13.3815 36.2045 13.3665 36.1945 13.3497C36.1895 13.3414 36.1845 13.333 36.1779 13.3263C36.1645 13.3129 36.1512 13.2979 36.1379 13.2845L36.1429 13.2828ZM50 3.89067V46.1093C50 48.2554 48.2533 50 46.1082 50H3.89179C1.74505 50 0 48.2554 0 46.1093V3.89067C0 1.74461 1.74672 0 3.89179 0H46.1082C48.2549 0 50 1.74461 50 3.89067ZM49.3683 46.1093V3.89067C49.3683 2.09253 47.9049 0.630604 46.1065 0.630604H3.89012C2.09173 0.630604 0.628358 2.09253 0.628358 3.89067V46.1093C0.628358 47.9075 2.09173 49.3694 3.89012 49.3694H8.44694C8.66694 48.4578 8.82363 47.5311 8.9603 46.6044C9.26364 44.5604 9.46531 42.503 9.64532 40.4456C9.66366 40.2399 9.67865 40.0325 9.69698 39.8267C9.43197 39.8719 9.16531 39.9037 8.8953 39.9154C7.77526 39.9589 6.64022 39.6712 5.66519 39.1225C4.64515 38.5471 3.84512 37.6756 3.2851 36.652C2.69175 35.5697 2.32507 34.3604 2.07339 33.156C1.81672 31.9249 1.69172 30.6621 1.70172 29.4042C1.72005 26.8851 2.26508 24.3845 3.25845 22.0711C4.16681 19.9602 5.46686 18.0232 7.02691 16.3405C8.58029 14.6645 10.402 13.236 12.3871 12.1086C12.4021 12.1002 12.4154 12.0952 12.4304 12.0902C12.5437 11.6821 12.7004 11.289 12.8904 10.926C13.8738 9.06764 15.8589 8.12759 17.8623 7.81982C18.5406 7.71444 19.229 7.64753 19.914 7.70608C20.3573 7.74455 20.7924 7.82818 21.214 7.95531C21.274 7.8884 21.3607 7.84658 21.4557 7.83655C22.1957 7.75124 22.9391 7.70608 23.6808 7.69604C26.2925 7.66593 28.911 8.10083 31.3727 8.97397C31.436 8.99739 31.4894 9.03419 31.531 9.0827C32.6794 8.36679 34.0678 8.10418 35.4145 8.15436C36.8446 8.20788 38.3846 8.64947 39.2046 9.91235C39.793 10.8189 39.903 11.948 39.698 13.0001C39.723 13.0135 39.7463 13.0286 39.768 13.047C39.9747 13.2209 40.1713 13.4066 40.3597 13.6006C41.1297 14.3935 41.7714 15.3084 42.4248 16.1966C43.0864 17.0982 43.7365 18.0132 44.2798 18.9934C44.8432 20.0037 45.2582 21.0809 45.5782 22.1916C45.8899 23.2788 46.1549 24.3845 46.3365 25.5001C46.6866 27.6663 46.6799 29.9311 45.7265 31.9517C44.9582 33.5792 43.6398 34.899 42.1231 35.8424C40.5697 36.8109 38.8013 37.3963 36.9912 37.6321C36.6879 38.2393 36.3362 38.8248 35.9979 39.4119C36.3129 39.9053 36.6296 40.3988 36.9462 40.8922C37.1262 41.1749 37.3012 41.4492 37.4362 41.7537C37.9896 42.9998 38.3063 44.3563 38.6096 45.6778C38.8846 46.8754 39.1263 48.0814 39.3397 49.2925C39.3463 49.3159 39.348 49.3426 39.348 49.3694H46.1049C47.9033 49.3694 49.3666 47.9075 49.3666 46.1093H49.3683ZM45.4315 31.0334C46.1649 28.9961 45.9815 26.7781 45.5482 24.6956C45.3215 23.6 45.0465 22.5044 44.6865 21.4472C44.3331 20.4152 43.8481 19.4467 43.2698 18.5234C42.6964 17.6067 42.0497 16.7386 41.4047 15.8705C40.828 15.0943 40.238 14.3232 39.523 13.6692C39.4797 13.798 39.433 13.9251 39.383 14.0472C38.8813 15.2415 37.9829 16.2635 36.8479 16.8925C37.7129 17.4679 38.5546 18.0734 39.3763 18.709C40.6164 19.6675 41.9664 20.7882 42.1814 22.4425C42.2714 23.1333 42.1531 23.8927 41.7431 24.4698C41.473 24.8478 41.1164 25.097 40.7197 25.286C40.7197 25.2944 40.723 25.3044 40.7247 25.3145C40.8314 26.1859 40.5997 27.0708 40.1663 27.8285C39.6547 28.7234 38.8996 29.3975 38.0279 29.8893C38.0313 29.9027 38.0346 29.9177 38.0363 29.9311C38.1163 30.8477 38.1329 31.7677 38.0846 32.6843C38.0396 33.509 37.9413 34.3286 37.7963 35.1398C37.6829 35.7638 37.5296 36.3709 37.2996 36.9564C37.3896 36.9413 37.4779 36.9263 37.5679 36.9095C39.283 36.5984 40.9414 35.9394 42.3631 34.9274C43.7265 33.9589 44.8632 32.6191 45.4332 31.0317L45.4315 31.0334ZM41.4547 23.6585C41.6631 23.0446 41.6114 22.3438 41.353 21.7533C41.038 21.0307 40.483 20.4453 39.8963 19.9334C39.2813 19.3965 38.6163 18.9064 37.9563 18.4263C36.5712 17.4227 35.1278 16.4977 33.6378 15.658C30.806 14.0623 27.8076 12.7793 24.6991 11.8309C24.7075 11.9246 24.7125 12.0183 24.7175 12.1136C24.7925 13.5739 24.4808 15.0876 23.6625 16.3154C22.7941 17.6201 21.4574 18.4715 19.944 18.8345C19.189 19.0168 18.4039 19.0887 17.6256 19.0737C16.8072 19.0553 15.9705 18.9315 15.2355 18.5501C14.4922 18.1637 13.9488 17.5013 13.4621 16.839C13.3454 16.6817 13.2338 16.5211 13.1271 16.3555C11.8904 17.6636 10.647 18.9783 9.60532 20.4503C8.70362 21.7265 7.95192 23.1232 7.53358 24.6354C7.14356 26.0471 7.08691 27.5224 7.39858 28.9559C7.86193 31.0919 9.00529 33.0122 10.4503 34.6447C10.5737 34.6765 10.682 34.7836 10.692 34.9124C11.0837 35.3372 11.4954 35.7437 11.9204 36.1267C12.2237 36.3994 11.7754 36.8426 11.4754 36.5717C11.187 36.3124 10.9087 36.0448 10.637 35.7671C10.5887 36.4546 10.5403 37.142 10.4887 37.8295C10.452 38.3029 10.4153 38.7763 10.377 39.2496C10.5504 39.3985 10.727 39.5457 10.9054 39.6896C12.4237 40.9056 14.1438 41.864 15.9189 42.6519C17.7073 43.4447 19.569 44.062 21.4441 44.6156C23.5191 45.2295 25.6325 45.835 27.7959 46.0207C28.5843 46.0893 29.3793 46.0959 30.1643 46.024C30.271 45.9237 30.4427 45.8885 30.571 45.9805C31.5327 45.8584 32.4744 45.6092 33.3628 45.1944C34.8395 44.5069 36.1195 43.413 36.8262 41.9293C36.8196 41.9159 36.8146 41.9025 36.8079 41.8891C36.6562 41.578 36.4562 41.2953 36.2712 41.0026C36.0645 40.6798 35.8562 40.3553 35.6495 40.0325C35.3195 40.6112 34.9912 41.1916 34.6595 41.7687C34.4595 42.1216 33.9145 41.8038 34.1161 41.4509C34.5728 40.648 35.0295 39.8451 35.4862 39.0439C35.8829 38.3497 36.3079 37.6639 36.6346 36.933C36.9496 36.2288 37.1096 35.461 37.2346 34.7033C37.4813 33.2162 37.5379 31.6991 37.4246 30.1954C37.0329 30.371 36.6246 30.5149 36.2112 30.6286C35.3728 30.8594 34.5045 30.9832 33.6395 31.0685C32.6561 31.1639 31.6694 31.204 30.681 31.1873C30.2743 31.1806 30.2743 30.55 30.681 30.5567C31.7294 30.5734 32.7794 30.5282 33.8228 30.4195C35.3962 30.2539 37.0362 29.916 38.3346 28.9609C39.4096 28.1697 40.1847 26.8851 40.1097 25.5319C39.943 25.5888 39.7747 25.6423 39.6047 25.6942C37.8213 26.2428 35.9812 26.5874 34.1278 26.8015C30.3427 27.2397 26.5242 27.0992 22.7258 26.9537C20.7657 26.8784 18.8056 26.8032 16.8439 26.8065C15.9389 26.8065 15.0188 26.7931 14.1171 26.8801C13.5121 26.9386 12.8021 27.0925 12.4404 27.6295C12.2137 27.964 11.6671 27.6479 11.8954 27.31C12.0937 27.0156 12.3554 26.7797 12.6721 26.6192C13.3204 26.288 14.0638 26.2361 14.7788 26.211C15.7372 26.1776 16.6972 26.1709 17.6572 26.1792C19.5973 26.196 21.5374 26.2796 23.4758 26.3515C27.2026 26.4904 30.951 26.5874 34.6578 26.104C36.4445 25.8715 38.2246 25.4968 39.9347 24.9247C40.2963 24.8043 40.673 24.6655 40.9597 24.4079C41.1864 24.2055 41.3547 23.9479 41.4514 23.6602L41.4547 23.6585ZM38.823 13.7562C38.7513 13.7278 38.6796 13.701 38.6063 13.6759C38.4329 14.1827 38.1579 14.6511 37.7929 15.0442C37.4396 15.4272 36.9962 15.7249 36.5046 15.8972C36.1895 16.006 35.8545 16.0478 35.5212 16.0377C35.7645 16.1883 36.0062 16.3405 36.2462 16.4944C37.4062 15.9374 38.3413 14.9488 38.8213 13.7562H38.823ZM38.1029 49.08L38.663 49.0717C38.5796 48.6067 38.4913 48.1433 38.3996 47.68C38.1829 46.5961 37.9479 45.5105 37.6646 44.4417C37.6246 44.6658 37.5713 44.8899 37.5046 45.1091C37.2712 45.8869 36.8862 46.6111 36.3695 47.2367C36.1079 47.5529 35.7945 47.8406 35.4179 48.0145C35.0345 48.1918 34.6262 48.2738 34.2078 48.3089C33.8011 48.344 33.3895 48.339 32.9811 48.3273C32.5311 48.3139 32.0844 48.2604 31.6694 48.0731C31.1527 47.8389 30.7794 47.4107 30.4644 46.9473C29.6327 47.9978 28.4726 48.7254 27.1959 49.1168C27.6909 49.1168 28.1859 49.1135 28.6793 49.1135C29.986 49.1101 31.2927 49.1085 32.5977 49.1051C33.6811 49.1018 34.7612 49.0984 35.8429 49.0934C36.5962 49.0901 37.3479 49.0867 38.1013 49.08H38.1029ZM36.0945 46.566C36.8779 45.4754 37.2529 44.0937 37.1012 42.7573C36.1995 44.2761 34.7128 45.3499 33.0894 45.9906C32.4011 46.2615 31.6861 46.4455 30.9627 46.5593C31.271 47.0193 31.6427 47.4408 32.1944 47.5947C32.5578 47.695 32.9378 47.695 33.3111 47.6984C33.6678 47.7017 34.0295 47.7051 34.3828 47.6582C34.7328 47.6131 35.0762 47.511 35.3712 47.317C35.6595 47.1247 35.8945 46.8453 36.0962 46.5643L36.0945 46.566ZM32.7944 14.4788C32.6511 14.1961 32.5761 13.8816 32.5844 13.5404C32.2027 13.6207 31.8194 13.7077 31.4394 13.7963C31.8944 14.0155 32.3461 14.2429 32.7928 14.4788H32.7944ZM29.031 11.1368C29.7676 10.7019 30.311 10.0361 30.9627 9.49585C30.3594 9.29011 29.7477 9.10779 29.1276 8.9539C26.8876 8.40024 24.5675 8.21457 22.2691 8.38853C23.2874 8.94386 24.0725 9.81534 24.5442 10.8875C24.5675 10.9176 24.5825 10.9511 24.5892 10.9896C24.6025 11.0197 24.6058 11.0531 24.6042 11.0849C24.6075 11.105 24.6108 11.125 24.6141 11.1434C24.9625 11.2488 25.3092 11.3559 25.6558 11.4663C25.9525 11.5633 26.2459 11.6637 26.5409 11.7657C26.5592 11.7623 26.5742 11.7623 26.5942 11.7623C27.4492 11.7841 28.2943 11.57 29.0326 11.1368H29.031ZM29.8793 46.678C28.956 46.7349 28.0226 46.6931 27.1042 46.5777C24.9108 46.3034 22.7691 45.6811 20.6573 45.0388C18.7189 44.4483 16.8022 43.7726 14.9688 42.9078C13.9405 42.4227 12.9438 41.8707 11.9954 41.2452C12.8188 42.0414 13.6521 42.8242 14.5121 43.5802C15.7639 44.6775 17.0672 45.7263 18.4673 46.6295C19.799 47.4893 21.2324 48.2186 22.7807 48.5899C25.2342 49.1804 28.2093 48.712 29.8777 46.678H29.8793ZM23.5875 15.1445C23.7825 14.6996 23.9175 14.2329 24.0008 13.7545C23.5775 13.6859 23.1524 13.6341 22.7241 13.5973C22.5757 14.4637 22.3774 15.3151 21.7974 16.0043C20.9157 17.0547 19.359 17.5482 18.0489 17.0965C16.8372 16.6767 15.9272 15.5911 15.7072 14.34C14.8705 14.5976 14.0521 14.917 13.2588 15.2934C13.5838 15.9742 14.0355 16.6098 14.5355 17.1701C14.7822 17.4478 15.0538 17.7037 15.3722 17.8978C15.7005 18.0968 16.0605 18.2239 16.4322 18.3092C17.1456 18.4698 17.9023 18.4715 18.629 18.4096C19.3356 18.3511 20.0373 18.1972 20.699 17.9396C21.9974 17.4294 23.0274 16.4208 23.5891 15.1479L23.5875 15.1445ZM20.059 49.1269C20.8307 49.1269 21.599 49.1235 22.3707 49.1235C20.7557 48.6936 19.2173 47.8924 17.8289 46.9641C15.0605 45.1074 12.6421 42.784 10.2753 40.4473C10.1703 41.6566 10.0553 42.8643 9.917 44.072C9.72366 45.7748 9.51698 47.4943 9.1403 49.1703C9.45531 49.162 9.772 49.1637 10.0887 49.162C10.922 49.1553 11.7571 49.1519 12.5921 49.1486C13.7371 49.1453 14.8855 49.1402 16.0305 49.1386C17.3722 49.1352 18.7173 49.1335 20.059 49.1302V49.1269ZM20.6907 14.1175C20.6907 14.079 20.6874 14.0389 20.6857 14.0004C20.6824 13.9853 20.679 13.9686 20.6757 13.9519C20.6674 13.9151 20.6574 13.88 20.6474 13.8448C20.6424 13.8315 20.6374 13.8181 20.6324 13.8064V13.803C20.6124 13.7662 20.594 13.7278 20.5723 13.6926C20.564 13.6792 20.5574 13.6692 20.549 13.6575C20.5457 13.6542 20.5373 13.6424 20.5307 13.6341C20.5223 13.6257 20.514 13.6157 20.5123 13.6123C20.504 13.6006 20.494 13.5906 20.484 13.5806C20.4707 13.5672 20.454 13.5538 20.4407 13.5404C20.1007 13.5538 19.759 13.5739 19.4207 13.6056C19.4173 13.6107 19.414 13.6157 19.4106 13.6207C19.404 13.6291 19.4006 13.6324 19.3973 13.6358L19.3923 13.6458C19.3823 13.6625 19.3707 13.6776 19.3607 13.6926C19.3423 13.7261 19.324 13.7579 19.3073 13.793C19.3073 13.7963 19.304 13.7997 19.304 13.8014C19.304 13.803 19.304 13.8047 19.304 13.808C19.299 13.8264 19.2906 13.8432 19.2856 13.8616C19.2723 13.9017 19.264 13.9435 19.2556 13.9853C19.2556 13.992 19.2523 13.9954 19.2523 13.9987L19.249 14.0405C19.2456 14.0824 19.2456 14.1259 19.249 14.166C19.249 14.1861 19.2523 14.2061 19.2523 14.2279C19.2606 14.2664 19.269 14.3065 19.2806 14.345C19.284 14.36 19.3023 14.4085 19.304 14.4169C19.3173 14.4453 19.3306 14.4754 19.3473 14.5022C19.364 14.5306 19.3823 14.5557 19.399 14.5825C19.399 14.5825 19.4001 14.5825 19.4023 14.5825C19.4107 14.5925 19.4206 14.6042 19.429 14.6143C19.4573 14.6444 19.4873 14.6728 19.519 14.6996C19.5223 14.7029 19.5357 14.713 19.544 14.7197C19.5473 14.723 19.5523 14.7263 19.5523 14.7263C19.6106 14.7648 19.669 14.7983 19.7307 14.8284C19.7307 14.8284 19.739 14.8317 19.744 14.8334C19.7623 14.8384 19.779 14.8451 19.7973 14.8518C19.8273 14.8602 19.859 14.8685 19.8907 14.8752C19.9057 14.8786 19.9223 14.8819 19.939 14.8836H19.9423C19.974 14.8836 20.0073 14.8869 20.039 14.8869C20.0623 14.8869 20.084 14.8869 20.109 14.8836C20.1123 14.8836 20.129 14.8802 20.1407 14.8786C20.149 14.8786 20.1557 14.8752 20.1573 14.8752C20.1773 14.8702 20.199 14.8652 20.219 14.8585C20.2373 14.8535 20.254 14.8485 20.2723 14.8401C20.2773 14.8367 20.2823 14.8334 20.2923 14.8267C20.3057 14.8183 20.3207 14.81 20.3323 14.7999H20.3357L20.3457 14.7899C20.3823 14.7565 20.4157 14.7213 20.449 14.6845L20.479 14.6461C20.479 14.6461 20.484 14.641 20.4857 14.6377C20.4857 14.6377 20.4857 14.6344 20.489 14.6344C20.5357 14.5708 20.579 14.5039 20.6157 14.432C20.6457 14.3734 20.6607 14.3416 20.6824 14.248C20.6857 14.2346 20.6874 14.2195 20.6907 14.2078C20.6907 14.2078 20.6907 14.2067 20.6907 14.2045C20.694 14.1744 20.6957 14.1426 20.6957 14.1125L20.6907 14.1175ZM17.6323 14.2797C17.6323 14.2613 17.6323 14.2429 17.6289 14.2262L17.5606 14.2446C17.5839 14.2563 17.6073 14.268 17.6306 14.2797H17.6323ZM12.7571 15.827C12.7704 15.8119 12.7854 15.8002 12.8004 15.7885C12.6138 15.4322 12.4604 15.0592 12.3621 14.6695C12.2171 14.1024 12.1954 13.5019 12.2687 12.9098C12.1854 12.96 12.1004 13.0068 12.0171 13.0587C10.1453 14.2112 8.44862 15.6447 7.00858 17.304C5.56686 18.9666 4.38348 20.8718 3.58679 22.9259C2.71009 25.184 2.27508 27.6111 2.34175 30.0348C2.37509 31.2291 2.53176 32.4167 2.8201 33.5775C3.10178 34.715 3.48679 35.8474 4.13348 36.8326C5.30019 38.6073 7.48192 39.5892 9.58532 39.2078C9.64032 39.1978 9.69699 39.1995 9.75033 39.2128C9.862 37.8563 9.95866 36.4981 10.0537 35.1382C9.37697 34.3804 8.76529 33.5658 8.2436 32.6944C7.49024 31.4332 6.9219 30.0381 6.69023 28.5829C6.44355 27.0206 6.59022 25.4382 7.08691 23.9378C8.14694 20.7346 10.4854 18.2273 12.7554 15.827H12.7571Z" fill="white"/>
<path d="M45.5499 24.6956C45.9832 26.7781 46.1649 28.9961 45.4332 31.0334C44.8632 32.6191 43.7265 33.9589 42.3631 34.9291C40.9414 35.9411 39.283 36.6001 37.5679 36.9112C37.4779 36.928 37.3896 36.943 37.2996 36.9581C37.5296 36.371 37.6829 35.7638 37.7963 35.1415C37.9429 34.3303 38.0396 33.5107 38.0846 32.686C38.1346 31.7694 38.1163 30.8494 38.0363 29.9328C38.0363 29.9194 38.0313 29.9043 38.028 29.891C38.8996 29.3992 39.6563 28.7251 40.1664 27.8302C40.5997 27.0725 40.8297 26.1876 40.7247 25.3162C40.7247 25.3061 40.7214 25.2978 40.7197 25.2877C41.1164 25.0987 41.4731 24.8478 41.7431 24.4714C42.1547 23.8927 42.2714 23.135 42.1814 22.4441C41.9664 20.7899 40.6164 19.6675 39.3763 18.7107C38.5546 18.0768 37.7113 17.4696 36.8479 16.8942C37.9829 16.2652 38.8813 15.2432 39.383 14.0489C39.433 13.9268 39.4797 13.7997 39.523 13.6709C40.2364 14.3249 40.828 15.096 41.4047 15.8722C42.0498 16.7386 42.6948 17.6084 43.2698 18.525C43.8481 19.4484 44.3332 20.4169 44.6865 21.4489C45.0482 22.5077 45.3215 23.6033 45.5482 24.6973L45.5499 24.6956Z" fill="white"/>
<path d="M38.6629 49.0734L38.1029 49.0817C37.3495 49.0901 36.5978 49.0934 35.8445 49.0951C34.7628 49.1001 33.6811 49.1035 32.5994 49.1068C31.2927 49.1102 29.9859 49.1135 28.6809 49.1152C28.1859 49.1152 27.6909 49.1152 27.1975 49.1185C28.4726 48.7271 29.6343 48.0012 30.466 46.949C30.781 47.4124 31.1543 47.8406 31.671 48.0748C32.0844 48.2621 32.531 48.3156 32.9827 48.329C33.3911 48.3424 33.8027 48.3474 34.2094 48.3106C34.6278 48.2755 35.0361 48.1952 35.4195 48.0162C35.7961 47.8406 36.1095 47.5546 36.3712 47.2384C36.8878 46.6145 37.2729 45.8886 37.5062 45.1108C37.5729 44.8916 37.6262 44.6675 37.6662 44.4434C37.9495 45.5139 38.1846 46.5978 38.4012 47.6817C38.4929 48.145 38.5812 48.6084 38.6646 49.0734H38.6629Z" fill="white"/>
<path d="M37.6163 20.3815C37.6196 20.4668 37.578 20.5437 37.523 20.6056C37.4696 20.6641 37.378 20.6976 37.3013 20.6976C37.2246 20.6976 37.128 20.6641 37.0779 20.6056C36.9346 20.4366 36.828 20.2426 36.7796 20.0252C36.7313 19.806 36.7329 19.5802 36.7896 19.3645C36.8346 19.1938 37.0129 19.1052 37.1779 19.1437C37.3446 19.1821 37.4396 19.3728 37.398 19.5317C37.3896 19.5602 37.3863 19.5886 37.3813 19.617C37.3746 19.6806 37.3746 19.7442 37.3813 19.8094C37.393 19.8746 37.4096 19.9365 37.433 19.9984C37.463 20.062 37.498 20.1239 37.543 20.1824C37.5863 20.2409 37.613 20.3028 37.618 20.3798L37.6163 20.3815Z" fill="white"/>
<path d="M36.2345 13.7197C36.2345 13.7197 36.2312 13.7247 36.2312 13.7264V13.7231C36.2312 13.7231 36.2345 13.7231 36.2345 13.7197Z" fill="white"/>
<path d="M36.1394 13.2777L36.1428 13.2811C36.1294 13.2811 36.1177 13.2677 36.1177 13.2627C36.121 13.266 36.1311 13.2727 36.1394 13.2777Z" fill="white"/>
<path d="M30.9626 9.49746C30.3109 10.0377 29.7676 10.7035 29.0309 11.1384C28.2925 11.5733 27.4475 11.7857 26.5925 11.764C26.5742 11.764 26.5575 11.764 26.5391 11.7673C26.2458 11.6653 25.9508 11.5649 25.6541 11.4679C25.3091 11.3575 24.9608 11.2488 24.6124 11.1451C24.6091 11.1267 24.6057 11.1066 24.6024 11.0865C24.6024 11.0547 24.5991 11.023 24.5874 10.9912C24.5808 10.9527 24.5641 10.9192 24.5424 10.8891C24.0707 9.81862 23.2857 8.94547 22.2673 8.39014C24.5657 8.21618 26.8875 8.40185 29.1259 8.95551C29.7459 9.10773 30.3576 9.29172 30.961 9.49746H30.9626Z" fill="white"/>
<path d="M29.9942 21.5948C30.1309 21.7068 30.1009 21.9259 29.9942 22.0414C29.8725 22.1752 29.6759 22.1467 29.5492 22.0414C29.5425 22.0363 29.5392 22.033 29.5358 22.0313C29.5292 22.0263 29.5225 22.0213 29.5158 22.0163C29.4892 21.9962 29.4608 21.9778 29.4342 21.9611C29.3792 21.9276 29.3208 21.8942 29.2608 21.8657C29.2475 21.859 29.2358 21.8524 29.2225 21.8473C29.1925 21.8356 29.1625 21.8239 29.1308 21.8139C29.0725 21.7938 29.0142 21.7771 28.9525 21.7637C28.9242 21.757 28.8975 21.752 28.8675 21.747C28.8591 21.747 28.8492 21.7436 28.8392 21.7436C28.8358 21.7436 28.8342 21.7436 28.8292 21.7436C28.7641 21.7386 28.6992 21.7336 28.6325 21.7336C28.5775 21.7336 28.5158 21.7336 28.4608 21.742C28.4608 21.742 28.4619 21.742 28.4641 21.742C28.4641 21.742 28.4608 21.742 28.4575 21.742C28.4525 21.742 28.4475 21.742 28.4425 21.7453C28.4258 21.7486 28.4058 21.7537 28.3991 21.7553C28.3658 21.762 28.3341 21.7687 28.3025 21.7771C28.1308 21.8206 27.9675 21.7236 27.9141 21.5563C27.8625 21.3974 27.9741 21.21 28.1341 21.1682C28.7892 21.0026 29.4725 21.1716 29.9925 21.5948H29.9942Z" fill="white"/>
<path d="M28.4577 21.7432C28.4577 21.7432 28.4476 21.7432 28.4426 21.7465C28.4476 21.7465 28.4527 21.7465 28.4577 21.7432Z" fill="white"/>
<path d="M22.3691 49.1249C21.5974 49.1249 20.8291 49.1282 20.0574 49.1282C18.7157 49.1316 17.3706 49.1333 16.0289 49.1366C14.8839 49.1399 13.7355 49.1433 12.5905 49.1466C11.7554 49.15 10.9204 49.155 10.087 49.16C9.77204 49.1634 9.45535 49.16 9.13867 49.1684C9.51535 47.4923 9.7237 45.7745 9.91537 44.07C10.0537 42.864 10.1687 41.6563 10.2737 40.4453C12.6388 42.7821 15.0589 45.1071 17.8273 46.9621C19.2157 47.8921 20.7541 48.6917 22.3691 49.1215V49.1249Z" fill="white"/>
<path d="M12.7986 15.7918C12.7853 15.8035 12.7703 15.8152 12.7553 15.8303C10.4836 18.2322 8.14681 20.7379 7.08678 23.9411C6.59009 25.4415 6.44175 27.0239 6.6901 28.5862C6.92177 30.0431 7.49011 31.4364 8.24347 32.6976C8.76516 33.5691 9.37684 34.3854 10.0535 35.1414C9.95853 36.4997 9.86187 37.8596 9.7502 39.2161C9.69686 39.2027 9.64019 39.2011 9.58519 39.2111C7.48179 39.5908 5.29839 38.6089 4.13335 36.8359C3.48666 35.8523 3.10165 34.7183 2.81997 33.5808C2.53163 32.4217 2.37662 31.2324 2.34162 30.0381C2.27495 27.6143 2.70996 25.1873 3.58666 22.9291C4.38335 20.8768 5.5684 18.9699 7.00845 17.3072C8.45016 15.6463 10.1452 14.2128 12.0169 13.062C12.0986 13.0101 12.1853 12.9633 12.2686 12.9131C12.1953 13.5052 12.217 14.1057 12.362 14.6728C12.4603 15.0625 12.6136 15.4355 12.8003 15.7918H12.7986Z" fill="white"/>
<path d="M13.2556 15.3317C13.2556 15.3317 17.5524 12.8645 23.9976 13.7945C23.7776 17.3557 20.2992 18.5834 17.6308 18.5834C14.9607 18.5834 13.879 16.521 13.2556 15.3317Z" fill="#F9F8F4"/>
<mask id="mask0_8375_32457" style="mask-type:luminance" maskUnits="userSpaceOnUse" x="13" y="13" width="11" height="6">
<path d="M13.2556 15.3317C13.2556 15.3317 17.5524 12.8645 23.9976 13.7945C23.7776 17.3557 20.2992 18.5834 17.6308 18.5834C14.9607 18.5834 13.879 16.521 13.2556 15.3317Z" fill="white"/>
</mask>
<g mask="url(#mask0_8375_32457)">
<path d="M15.4705 14.0735C15.4705 14.0735 15.9888 17.7149 19.4056 17.2851C23.3374 16.7899 22.749 13.3174 22.749 13.3174C22.749 13.3174 17.7405 12.9561 15.4705 14.0735Z" fill="#252525"/>
<path d="M19.6804 15.0703C20.0909 15.0703 20.4237 14.7378 20.4237 14.3276C20.4237 13.9175 20.0909 13.585 19.6804 13.585C19.2698 13.585 18.937 13.9175 18.937 14.3276C18.937 14.7378 19.2698 15.0703 19.6804 15.0703Z" fill="#F9F8F4"/>
</g>
<path d="M31.4411 13.8348C31.4411 13.8348 35.1696 12.597 38.943 13.5789C38.593 15.4322 36.2463 16.5328 36.2463 16.5328C36.2463 16.5328 32.3145 14.4236 31.4395 13.8348H31.4411Z" fill="#F9F8F4"/>
<mask id="mask1_8375_32457" style="mask-type:luminance" maskUnits="userSpaceOnUse" x="31" y="13" width="8" height="4">
<path d="M31.4411 13.8348C31.4411 13.8348 35.1696 12.597 38.943 13.5789C38.593 15.4322 36.2463 16.5328 36.2463 16.5328C36.2463 16.5328 32.3145 14.4236 31.4395 13.8348H31.4411Z" fill="white"/>
</mask>
<g mask="url(#mask1_8375_32457)">
<path d="M33.8629 12.9482C33.8629 12.9482 32.9345 15.3586 35.7046 15.6162C38.233 15.852 38.4064 12.9834 38.4064 12.9834L33.8629 12.9482Z" fill="#252525"/>
<path d="M35.8162 14.3181C36.1605 14.3181 36.4396 14.0388 36.4396 13.6942C36.4396 13.3496 36.1605 13.0703 35.8162 13.0703C35.472 13.0703 35.1929 13.3496 35.1929 13.6942C35.1929 14.0388 35.472 14.3181 35.8162 14.3181Z" fill="#F9F8F4"/>
</g>
<path d="M38.3797 17.0933C39.1764 16.4928 39.6431 15.6113 39.9314 14.6712C40.2581 13.6091 40.3614 12.4917 40.7431 11.4446C40.8015 11.2841 40.6781 11.0984 40.5231 11.0566C40.3481 11.0081 40.1931 11.1168 40.1348 11.2774C39.7698 12.2776 39.6581 13.3415 39.3664 14.3618C39.1331 15.1764 38.7564 16.0245 38.0614 16.548C37.9264 16.65 37.8547 16.8206 37.948 16.9796C38.0264 17.1134 38.243 17.1953 38.3797 17.0933Z" fill="#252525"/>
</svg>
