<svg width="50" height="50" viewBox="0 0 50 50" fill="none" xmlns="http://www.w3.org/2000/svg">
<path d="M45.538 0.749023H4.4626C2.34612 0.749023 0.630371 2.46477 0.630371 4.58126V45.6567C0.630371 47.7732 2.34612 49.4889 4.4626 49.4889H45.538C47.6545 49.4889 49.3703 47.7732 49.3703 45.6567V4.58126C49.3703 2.46477 47.6545 0.749023 45.538 0.749023Z" fill="#252525"/>
<path d="M5.9237 14.4777C5.9237 14.4777 5.87007 14.4911 5.86002 14.4945C5.82316 14.5062 5.8265 14.5028 5.78628 14.528C5.75444 14.5481 5.69078 14.6151 5.65392 14.6738C5.44781 15.0122 5.49304 15.5099 5.51818 15.8903C5.54499 16.2857 5.61872 16.6762 5.72931 17.0582C5.95218 17.829 6.33422 18.563 6.83524 19.188C7.348 19.8281 7.97135 20.371 8.68686 20.7698C9.03539 20.9642 9.39902 21.12 9.78107 21.2373C10.1866 21.3596 10.7027 21.3714 11.0177 21.6881C11.3729 22.0433 11.2724 22.5426 10.9691 22.8895C10.6457 23.2598 10.1765 23.419 9.71404 23.5246C8.65334 23.7642 7.52395 23.724 6.48671 23.3905C5.53829 23.0856 4.68706 22.5544 3.76545 22.1841C3.53253 22.0902 3.29458 22.0081 3.05161 21.9411C2.85053 21.8875 2.61091 21.8154 2.40146 21.8674C2.06632 21.9478 2.08308 22.4019 2.12329 22.6817C2.35788 24.3054 3.3767 25.8186 4.6502 26.8173C5.29198 27.3216 6.03261 27.7104 6.81681 27.9433C7.82556 28.2416 8.89295 28.2567 9.91008 28.5231C10.3709 28.6437 10.9155 28.8063 11.1451 29.2654C11.3545 29.6826 11.2724 30.2105 11.0043 30.5808C10.7077 30.988 10.2503 31.2125 9.78274 31.365C9.26999 31.5342 8.73712 31.6515 8.20259 31.7303C7.658 31.8107 7.11173 31.856 6.56211 31.8526C6.04433 31.8493 5.5383 31.7889 5.02554 31.7353C4.68371 31.7001 4.26144 31.6566 3.9548 31.8308C3.63475 32.0135 3.61966 32.3737 3.73695 32.6921C3.88776 33.101 4.21453 33.4177 4.54463 33.6875C4.89987 33.9807 5.30371 34.217 5.71927 34.413C6.60234 34.8336 7.57589 35.0615 8.53604 35.2173C10.6943 35.5676 12.9263 35.4436 15.0359 34.8822C15.1247 34.8587 15.1985 34.8722 15.2605 34.9057C15.3074 34.9191 15.3493 34.9442 15.3811 34.9827C15.5168 35.152 15.6643 35.3128 15.8268 35.4586C16.4703 36.0485 17.2914 36.4138 18.1175 36.6685C19.0374 36.9517 19.9925 37.1259 20.9443 37.2633C22.9467 37.5549 24.9893 37.5968 27.0052 37.4141C29.0126 37.2332 30.9999 36.8142 32.9119 36.1775C33.8703 35.8574 34.8087 35.4854 35.7186 35.0531C36.5916 34.6409 37.4596 34.1835 38.2254 33.5903C38.9744 33.0122 39.6078 32.2983 39.9999 31.432C40.3652 30.6227 40.4775 29.6944 40.2127 28.8398C40.2127 28.8364 40.2127 28.8364 40.2127 28.8331C39.5977 29.2352 38.9241 29.5452 38.2421 29.8167C37.101 30.2708 35.9247 30.6445 34.7383 30.9561C32.2952 31.5946 29.7817 31.9565 27.2615 32.1023C24.7062 32.2531 22.0938 32.2481 19.5854 31.6867C19.1899 31.5979 19.3575 30.9897 19.7529 31.0785C20.3528 31.2125 20.9577 31.3164 21.5693 31.3868C24.056 31.6767 26.6114 31.5778 29.0964 31.3248C31.5395 31.0751 33.9625 30.5976 36.3001 29.8418C37.3507 29.5017 38.413 29.1347 39.3832 28.5985C40.2496 28.1209 41.0371 27.4791 41.4812 26.576C41.9587 25.6024 41.9889 24.4378 41.8364 23.3822C41.699 22.427 41.3957 21.4954 40.96 20.6357C40.077 18.8914 38.6946 17.4168 37.0792 16.3293C36.3419 15.8333 35.5577 15.4228 34.7417 15.0809C34.7031 15.0726 34.668 15.0575 34.6378 15.0374C33.4313 14.543 32.1612 14.1979 30.8793 13.9716C28.5937 13.5661 26.2277 13.5008 23.9136 13.6315C21.6581 13.7605 19.3943 14.1962 17.469 15.4312C16.5658 16.0109 15.7347 16.7013 14.7846 17.2057C13.8429 17.705 12.8023 17.9748 11.7315 17.8659C9.62188 17.6497 7.78535 16.2975 6.40629 14.7525C6.28731 14.7341 6.19515 14.6419 6.14823 14.5246C6.14488 14.5246 6.10969 14.4978 6.10969 14.4961C6.03094 14.4643 6.0058 14.4626 5.9237 14.4727V14.4777ZM49.9986 3.8909V46.1091C49.9986 48.2556 48.2542 50 46.1077 50H13.0519C13.0519 50 13.0402 50 13.0385 50C13.0385 50 13.0397 50 13.0419 50H3.89112C1.7446 50 0.000244141 48.2556 0.000244141 46.1091V3.8909C0.000244141 1.74438 1.7446 0 3.89112 0H46.1093C48.2559 0 50.0002 1.74438 50.0002 3.8909H49.9986ZM49.3668 46.1091V3.8909C49.3668 2.09291 47.904 0.63005 46.106 0.63005H3.88777C2.08978 0.63005 0.626939 2.09291 0.626939 3.8909V46.1091C0.626939 47.9071 2.08978 49.3699 3.88777 49.3699H12.8458C12.9413 48.5606 13.0637 47.7513 13.2597 46.957C13.4357 46.2532 13.6502 45.5595 13.8445 44.8608C14.1076 43.909 14.3523 42.9572 14.6891 42.0289C15.3308 40.2544 16.2089 38.567 17.3936 37.0924C16.4921 36.7556 15.6593 36.273 15.0292 35.5374C14.55 35.6597 14.0657 35.7619 13.5764 35.839C11.3662 36.1859 9.05048 36.1121 6.89055 35.5123C5.9237 35.2442 4.99202 34.8403 4.19776 34.217C3.50571 33.6741 2.69469 32.6988 3.17058 31.7705C3.62468 30.8841 4.75743 31.0885 5.56342 31.1706C6.66936 31.2862 7.79205 31.2192 8.87453 30.9645C9.34204 30.8539 9.87824 30.74 10.2703 30.4434C10.5284 30.2473 10.7798 29.8184 10.5586 29.5067C10.4396 29.3391 10.2084 29.2721 10.024 29.2135C9.75592 29.1297 9.47944 29.066 9.20463 29.014C8.66004 28.9102 8.10708 28.8532 7.55914 28.7577C5.76116 28.4477 4.13408 27.4925 2.99798 26.0599C2.44501 25.3594 2.00936 24.5769 1.73455 23.7273C1.4966 22.9951 1.15979 21.6981 2.10151 21.306C2.58242 21.1049 3.16555 21.2976 3.63138 21.4619C4.12403 21.6344 4.59825 21.8623 5.06744 22.0919C6.02089 22.5577 6.97097 22.9833 8.04842 23.0403C8.59133 23.0688 9.13425 23.0202 9.6604 22.8895C9.99386 22.8074 10.5049 22.6516 10.6139 22.2896C10.6273 22.241 10.6373 22.2176 10.5921 22.1539C10.5569 22.107 10.5033 22.0802 10.448 22.0567C10.2469 21.9746 10.0173 21.9545 9.80786 21.8992C9.3856 21.7886 8.97507 21.6277 8.58464 21.4317C7.0246 20.6425 5.80975 19.2098 5.22997 17.5676C4.93841 16.7432 4.78257 15.7998 4.91495 14.9285C4.98365 14.471 5.23499 14.0119 5.70921 13.8812C6.01585 13.7974 6.32416 13.8627 6.53865 14.0571C6.59897 14.0655 6.65931 14.0956 6.7146 14.156C7.06817 14.5632 7.44519 14.9502 7.84903 15.3071C9.41409 16.6946 11.5506 17.7385 13.6552 17.0197C14.6773 16.6711 15.5537 15.9908 16.4267 15.3775C16.7853 15.1262 17.1489 14.8899 17.5209 14.6754C17.0417 13.8074 16.5625 12.9394 16.0832 12.0731C15.9844 11.8922 16.0732 11.6676 16.2709 11.6107C17.2344 11.3258 18.1996 11.0409 19.1664 10.7695C19.1564 10.751 19.1497 10.7309 19.1463 10.7075C18.9084 9.28148 19.0307 7.80858 19.5066 6.44292C19.9272 5.23477 20.6075 4.08191 21.5325 3.19214C22.0268 2.71458 22.6133 2.37275 23.3036 2.29902C23.9538 2.23032 24.6039 2.42301 25.1804 2.71123C26.3684 3.30776 27.3336 4.34332 28.1698 5.35542C29.0511 6.42282 29.8069 7.59073 30.4084 8.83743C30.4084 8.84078 30.4084 8.84078 30.4118 8.84246C30.8659 8.83911 31.32 8.84917 31.7741 8.87263C32.0874 8.88771 32.4494 8.87261 32.7476 8.98321C33.0979 9.11391 33.2302 9.4105 33.2638 9.76239C33.3844 11.0912 33.1364 12.4786 32.6354 13.7136C32.9035 13.7823 33.1699 13.8594 33.4347 13.9415C33.9223 14.0923 34.4015 14.2649 34.8707 14.4593C35.3248 14.4341 35.7806 14.3135 36.2163 14.1593C36.6838 13.9934 37.1479 13.7706 37.5451 13.469C37.9103 13.1908 38.1868 12.8104 38.4231 12.4217C38.7063 11.9592 38.9275 11.4632 39.1101 10.9555C39.1939 10.7225 39.2442 10.4209 39.4184 10.2366C39.6631 9.97857 39.9966 10.0657 40.2362 10.2768C40.6316 10.6237 40.898 11.1029 41.0824 11.5922C41.4611 12.5976 41.5063 13.7354 41.3538 14.791C41.2114 15.778 40.8545 16.7348 40.32 17.5743C40.5478 17.581 40.774 17.5659 40.9986 17.5224C42.1196 17.2995 43.0563 16.5538 43.7249 15.6507C44.0734 15.1798 44.3667 14.6687 44.6264 14.1459C44.8576 13.6834 45.1324 13.1523 45.6251 12.9177C45.8865 12.792 46.1714 12.7803 46.4328 12.9143C46.6791 13.04 46.8282 13.2796 46.9338 13.5259C47.1768 14.094 47.3326 14.6989 47.4164 15.3088C47.5856 16.5404 47.4599 17.8173 47.0109 18.9785C46.6171 19.999 46.0004 20.929 45.2095 21.6847C44.8174 22.0601 44.3801 22.3969 43.9142 22.6784C43.688 22.8141 43.4517 22.9331 43.2155 23.0487C43.0915 23.109 42.7714 23.2548 42.7765 23.409C42.7765 23.4341 42.8401 23.4961 42.8887 23.5263C42.9926 23.595 43.1116 23.6301 43.2306 23.667C43.5205 23.7541 43.8187 23.8011 44.1203 23.8178C44.7571 23.8513 45.3905 23.7793 46.0239 23.7273C46.5836 23.6804 47.3544 23.5363 47.713 24.0943C48.0112 24.5568 47.8654 25.2069 47.6275 25.661C47.103 26.6614 45.9435 27.2378 44.9297 27.6098C43.7735 28.0355 42.5167 28.1947 41.2901 28.0774C41.2566 28.074 41.2265 28.0656 41.1963 28.0556C41.1259 28.1259 41.0539 28.1963 40.9785 28.2634C40.8846 28.3471 40.7908 28.4259 40.6919 28.503C40.7506 28.5381 40.8025 28.5935 40.8277 28.6789C40.9014 28.9135 40.9466 29.1531 40.9751 29.3961C41.0857 30.3697 40.8042 31.37 40.3183 32.2095C39.8106 33.0893 39.0582 33.7964 38.2321 34.3745C37.7729 34.6945 37.287 34.9777 36.7893 35.2358C37.3624 36.1591 37.8969 37.1075 38.3678 38.0877C39.1889 39.7969 39.8055 41.5949 40.1658 43.4566C40.5428 45.4054 40.6668 47.391 40.6869 49.3716H46.111C47.909 49.3716 49.3718 47.9088 49.3718 46.1108L49.3668 46.1091ZM46.7495 25.7968C47.0377 25.4885 47.2857 25.0578 47.2371 24.6188C47.2119 24.3892 47.0796 24.3122 46.86 24.3071C46.5618 24.2987 46.2602 24.3322 45.9619 24.3574C45.3587 24.4076 44.7537 24.473 44.1455 24.4445C43.6227 24.4177 42.9809 24.3457 42.5301 24.039C42.5536 24.4864 42.5402 24.9338 42.4799 25.3745C42.376 26.1386 42.1045 26.8524 41.6756 27.4674C41.8414 27.4758 42.009 27.4808 42.1749 27.4791C43.3328 27.4641 44.4907 27.1859 45.5229 26.6631C45.9736 26.4352 46.406 26.1671 46.7511 25.7968H46.7495ZM46.6003 18.1993C46.9153 17.0833 46.9405 15.8903 46.6724 14.7626C46.6037 14.4743 46.5165 14.1895 46.4093 13.9113C46.3473 13.7454 46.2685 13.4874 46.0708 13.4438C45.9451 13.4153 45.7742 13.5477 45.6586 13.67C45.4977 13.8376 45.3754 14.0404 45.2715 14.2498C44.7705 15.2636 44.1874 16.2539 43.3294 17.0079C42.4732 17.7603 41.3572 18.263 40.201 18.1993C40.144 18.196 40.0971 18.1792 40.0552 18.1558C41.0489 19.3321 41.8247 20.7011 42.2285 22.1891C42.2872 22.4086 42.3391 22.6315 42.3827 22.8577C42.4598 22.7772 42.5486 22.7069 42.6374 22.6465C42.8435 22.5075 43.0798 22.417 43.2959 22.2997C43.5238 22.1757 43.745 22.04 43.9578 21.8925C44.375 21.6043 44.7554 21.2624 45.0989 20.8888C45.7977 20.1247 46.3188 19.1997 46.6003 18.201V18.1993ZM40.7741 14.3386C40.8578 13.3869 40.7791 12.3228 40.3384 11.4598C40.2362 11.2588 40.1155 11.0661 39.9647 10.9002C39.9245 10.8566 39.8826 10.8147 39.839 10.7728C39.824 10.813 39.8072 10.8516 39.8022 10.8666C39.6312 11.371 39.4335 11.8687 39.1872 12.3412C38.9476 12.8004 38.6577 13.2461 38.3041 13.6265C38.0276 13.9247 37.6774 14.1593 37.3222 14.352C36.8748 14.5933 36.3888 14.7944 35.8861 14.9268C37.0457 15.5066 38.1265 16.2371 39.08 17.1319C39.2593 17.2995 39.4335 17.4738 39.6028 17.6531C39.591 17.5844 39.6028 17.5123 39.6413 17.4554C40.2747 16.5337 40.6718 15.4563 40.7724 14.342L40.7741 14.3386ZM39.5072 49.2627C39.6882 49.2627 39.8675 49.2594 40.0485 49.2543C40.0351 48.1786 39.9932 47.1045 39.8927 46.0337C39.7217 44.2223 39.3665 42.4311 38.7716 40.7102C38.6141 41.1559 38.4683 41.6033 38.336 42.0557C37.654 44.3999 37.3172 46.8347 37.3373 49.2778C37.3808 49.2778 37.4227 49.2778 37.4663 49.2778C38.1466 49.2744 38.8269 49.2711 39.5089 49.2627H39.5072ZM39.8491 17.9195C39.8742 17.948 39.8993 17.9782 39.9262 18.0083C39.9144 17.9815 39.9061 17.9547 39.901 17.9262C39.8843 17.9262 39.8675 17.9229 39.8491 17.9195ZM38.3963 39.9058C38.408 39.8757 38.4231 39.8489 38.4398 39.8237C37.8802 38.4229 37.1731 37.0857 36.3888 35.7971C36.0487 36.6936 35.7169 37.5917 35.4119 38.5C34.244 41.9652 33.4162 45.6198 33.8519 49.2912C34.0815 49.2912 34.3127 49.2912 34.5423 49.2878C35.2645 49.2845 35.985 49.2828 36.7072 49.2795C36.7005 48.5891 36.7223 47.9004 36.7726 47.2134C36.9569 44.7133 37.5015 42.2434 38.398 39.9025L38.3963 39.9058ZM35.737 35.7401C35.67 35.772 35.6013 35.8038 35.5343 35.834C34.5708 36.2629 33.5855 36.6383 32.5784 36.95C30.5542 37.5783 28.4546 37.9604 26.3399 38.0995C24.2353 38.2352 22.1156 38.1196 20.0378 37.756C19.6373 37.6856 19.2284 37.6068 18.8179 37.5113C19.267 38.1263 19.6993 38.7513 20.1098 39.3914C22.0771 42.4428 23.6103 45.774 24.6559 49.2476C24.6626 49.2694 24.6643 49.2895 24.6676 49.3096C25.4971 49.3096 26.3248 49.3063 27.1526 49.3046C28.4345 49.3012 29.7164 49.2996 30.9983 49.2962C31.7389 49.2962 32.4795 49.2929 33.2202 49.2912C33.0995 48.269 33.071 47.2385 33.1263 46.2113C33.3207 42.5902 34.4585 39.1065 35.7387 35.7385L35.737 35.7401ZM32.6505 10.4394C32.6538 10.2483 32.6471 10.0573 32.6354 9.86628C32.6304 9.77915 32.6404 9.64008 32.5566 9.58814C32.4779 9.53619 32.3455 9.54121 32.255 9.5345C32.0841 9.5211 31.9115 9.51106 31.7406 9.50268C31.3887 9.48425 31.0351 9.47586 30.6816 9.47418C29.9979 9.47083 29.3142 9.49597 28.6306 9.54289C27.2582 9.64176 25.8976 9.83948 24.5487 10.1026C21.9329 10.612 19.3709 11.3526 16.8172 12.1083C17.2344 12.8657 17.6533 13.6214 18.0705 14.3788C18.5079 14.1543 18.962 13.9566 19.4362 13.794C21.6531 13.0333 24.0627 12.9294 26.3868 12.9596C28.272 12.983 30.1705 13.1472 32.0137 13.5662C32.2852 12.9043 32.4779 12.2105 32.575 11.5001C32.6236 11.1498 32.6471 10.7963 32.6488 10.4427L32.6505 10.4394ZM29.5957 8.85921C29.6343 8.85921 29.6728 8.85585 29.7113 8.85585C29.1115 7.67284 28.3775 6.56021 27.5129 5.55314C26.7153 4.6265 25.8121 3.6697 24.6743 3.16868C24.1683 2.94581 23.5935 2.8369 23.0506 2.98268C22.4624 3.13852 22.0117 3.57252 21.6179 4.01657C20.0763 5.76596 19.3709 8.2409 19.7529 10.5399C19.7563 10.5617 19.7579 10.5835 19.7579 10.6036C20.1802 10.488 20.6025 10.374 21.0247 10.2634C23.8298 9.53618 26.6952 8.96478 29.5957 8.85921ZM23.2567 49.3113C23.5097 49.3113 23.7628 49.3113 24.0158 49.3113C23.7309 48.3746 23.4109 47.448 23.0573 46.5347C21.7872 43.2756 20.0579 40.194 17.9532 37.4007C17.3483 38.1347 16.8272 38.9356 16.3765 39.7718C16.7518 40.4353 17.1054 41.109 17.4371 41.796C18.6017 44.1955 19.4982 46.7224 20.1065 49.3214C21.1571 49.318 22.2061 49.3163 23.2567 49.313V49.3113ZM16.5306 49.3297C17.5075 49.3264 18.4844 49.3214 19.4597 49.3197C19.3089 48.6829 19.1396 48.0495 18.9519 47.4212C18.2314 44.9998 17.2478 42.664 16.0296 40.4521C15.6894 41.1592 15.3962 41.8865 15.1449 42.6305C14.8399 43.532 14.6153 44.4586 14.3556 45.3752C14.1713 46.027 13.9719 46.6738 13.8194 47.334C13.6636 47.9993 13.5613 48.6746 13.4809 49.3515C13.7406 49.3465 14.0004 49.3465 14.2601 49.3432C15.0175 49.3365 15.7732 49.3331 16.5306 49.3297Z" fill="white"/>
<path d="M40.0517 49.2541C39.8708 49.2575 39.6915 49.2608 39.5105 49.2625C38.8285 49.2709 38.1482 49.2743 37.4679 49.2776C37.4243 49.2776 37.3824 49.2776 37.3389 49.2776C37.3204 46.8345 37.6555 44.3997 38.3375 42.0555C38.4699 41.6031 38.6157 41.154 38.7732 40.71C39.3681 42.4309 39.725 44.2221 39.8942 46.0335C39.9948 47.1043 40.0367 48.18 40.0501 49.2541H40.0517Z" fill="#F9F8F4"/>
<path d="M38.7381 19.422C39.4285 19.9767 39.7117 21.029 39.2023 21.7948C38.7213 22.517 37.8517 23.0029 36.9736 22.8806C36.1157 22.7616 35.3918 22.0495 35.3734 21.1664C35.3583 20.3738 35.866 19.5142 36.6167 19.2159C36.8915 19.0752 37.1965 19.0031 37.5015 18.9998C37.5149 18.9964 37.5249 18.9914 37.5367 18.9864C37.6171 18.9579 37.6992 18.973 37.7679 19.0132C38.1131 19.0568 38.4499 19.1925 38.7364 19.422H38.7381ZM38.3761 20.0839C38.3761 20.0672 38.3762 20.0504 38.3728 20.0353C38.3628 19.9985 38.3544 19.9666 38.341 19.9314C38.3376 19.9231 38.3376 19.9164 38.3359 19.908C38.2773 19.8594 38.2136 19.8141 38.1483 19.7773C37.9857 19.6851 37.8081 19.6348 37.6271 19.6214C37.6238 19.6248 37.6188 19.6248 37.6154 19.6265C37.6037 19.6298 37.5936 19.6349 37.5819 19.6399H37.5785C37.5199 19.6684 37.4629 19.6968 37.4076 19.732C37.3959 19.7387 37.3858 19.7454 37.3741 19.7538C37.3523 19.7739 37.3305 19.7957 37.3104 19.8175L37.3071 19.8208L37.292 19.8443C37.2853 19.8544 37.2803 19.8661 37.2736 19.8761C37.2702 19.8895 37.2652 19.9046 37.2602 19.9197C37.2602 19.9164 37.2602 19.913 37.2602 19.9097C37.2568 19.9147 37.2568 19.9264 37.2551 19.9381C37.2551 19.9348 37.2551 19.9298 37.2585 19.9214C37.2585 19.9314 37.2551 19.9381 37.2551 19.9415C37.2551 19.9582 37.2551 19.975 37.2585 19.9901C37.2652 20.0068 37.2736 20.0336 37.2769 20.042C37.2803 20.0504 37.2803 20.0554 37.282 20.0588C37.2853 20.0672 37.2903 20.0739 37.2937 20.0806C37.3054 20.1024 37.3188 20.1225 37.3322 20.1426C37.3372 20.1476 37.3708 20.1878 37.3775 20.1962C37.3892 20.2062 37.3993 20.2163 37.411 20.2247C37.411 20.2247 37.4143 20.2247 37.4143 20.228C37.4445 20.2481 37.4746 20.2666 37.5065 20.285C37.5199 20.2917 37.535 20.2984 37.5484 20.3051C37.5517 20.3051 37.5517 20.3051 37.5568 20.3085C37.5903 20.3202 37.6255 20.3319 37.6607 20.342C37.6958 20.352 37.731 20.3604 37.7679 20.3671C37.7763 20.3705 37.8366 20.3755 37.8433 20.3788C37.912 20.3855 37.9824 20.3906 38.0511 20.3889C38.0695 20.3889 38.0879 20.3889 38.1047 20.3855C38.108 20.3855 38.1131 20.3855 38.1181 20.3822C38.1416 20.3755 38.1617 20.3688 38.1835 20.3621C38.1902 20.3571 38.2354 20.3353 38.2438 20.3286C38.2488 20.3252 38.2521 20.3252 38.2538 20.3219C38.2622 20.3152 38.2689 20.3085 38.2773 20.3018C38.2873 20.2917 38.3192 20.2481 38.3209 20.2481C38.3292 20.2347 38.3376 20.2197 38.3443 20.2063C38.3443 20.1979 38.3644 20.1442 38.3678 20.1342C38.3678 20.1292 38.3678 20.1258 38.3711 20.1241C38.3711 20.1107 38.3711 20.0973 38.3745 20.0856L38.3761 20.0839ZM36.8831 22.217C36.8597 22.2087 36.8396 22.2003 36.8178 22.1902C36.8094 22.1869 36.8027 22.1818 36.7943 22.1785C36.7759 22.1751 36.7608 22.1701 36.7441 22.1668C36.7893 22.1852 36.8362 22.202 36.8831 22.2154V22.217Z" fill="white"/>
<path d="M38.4415 39.8221C38.4248 39.8472 38.4097 39.874 38.398 39.9042C37.5015 42.2451 36.9569 44.7133 36.7726 47.2151C36.7223 47.9021 36.7005 48.5908 36.7072 49.2812C35.985 49.2845 35.2645 49.2862 34.5423 49.2896C34.3127 49.2896 34.0815 49.2896 33.8519 49.2929C33.4162 45.6215 34.2457 41.9653 35.412 38.5017C35.7169 37.5935 36.0487 36.6953 36.3889 35.7988C37.1731 37.0874 37.8819 38.4246 38.4399 39.8254L38.4415 39.8221Z" fill="#F9F8F4"/>
<path d="M32.6371 9.86581C32.6505 10.0568 32.6555 10.2479 32.6522 10.4389C32.6522 10.7925 32.6287 11.146 32.5784 11.4962C32.4813 12.205 32.2886 12.8988 32.0171 13.5623C30.1756 13.1434 28.2754 12.9792 26.3902 12.9557C24.0661 12.9273 21.6565 13.0295 19.4396 13.7902C18.9654 13.9528 18.513 14.1505 18.0739 14.375C17.6567 13.6176 17.2378 12.8619 16.8206 12.1045C19.3743 11.3504 21.9363 10.6098 24.552 10.0987C25.9009 9.83565 27.2616 9.63793 28.634 9.53907C29.3159 9.49047 30.0013 9.46533 30.685 9.47036C31.0385 9.47371 31.3921 9.4821 31.744 9.49885C31.9149 9.50723 32.0875 9.51727 32.2584 9.53068C32.3489 9.53906 32.4813 9.53404 32.56 9.58431C32.6438 9.63793 32.6337 9.77532 32.6388 9.86246L32.6371 9.86581Z" fill="#F9F8F4"/>
<path d="M29.7129 8.85618C29.6743 8.85618 29.6358 8.85953 29.5973 8.85953C26.6967 8.9651 23.8313 9.5365 21.0263 10.2637C20.604 10.3743 20.1817 10.4866 19.7594 10.6039C19.7594 10.5838 19.7594 10.562 19.7544 10.5402C19.3724 8.24122 20.0778 5.76628 21.6194 4.01689C22.0115 3.57284 22.464 3.13884 23.0521 2.983C23.595 2.83722 24.1698 2.94781 24.6758 3.169C25.8136 3.67002 26.7168 4.62682 27.5144 5.55346C28.379 6.55885 29.113 7.67316 29.7129 8.85618Z" fill="#F9F8F4"/>
<path d="M24.0175 49.3117C23.7645 49.3117 23.5114 49.3117 23.2584 49.3117C22.2078 49.315 21.1588 49.3167 20.1082 49.3201C19.4999 46.7228 18.6034 44.1942 17.4389 41.7947C17.1071 41.1076 16.7518 40.434 16.3782 39.7705C16.8273 38.9343 17.35 38.1334 17.955 37.3994C20.0596 40.1927 21.7889 43.2743 23.059 46.5334C23.4143 47.4467 23.7326 48.3733 24.0175 49.31V49.3117Z" fill="#F9F8F4"/>
<path d="M19.9086 23.8617C19.9287 23.8751 19.9472 23.8885 19.9689 23.9003C19.9941 23.917 20.0226 23.9321 20.0477 23.9455C20.0477 23.9455 20.0728 23.9589 20.0896 23.9673C20.103 23.9723 20.1415 23.9874 20.1415 23.9874C20.17 23.9975 20.2002 24.0075 20.2287 24.0159C20.2655 24.026 20.3024 24.0343 20.3409 24.041C20.3326 24.041 20.3225 24.041 20.3225 24.041C20.3259 24.041 20.3359 24.041 20.356 24.0444C20.418 24.0494 20.48 24.0494 20.542 24.0477H20.5638C20.5923 24.0427 20.6208 24.0377 20.6493 24.0293C20.6794 24.0209 20.7096 24.0109 20.7414 24.0025C20.7515 23.9991 20.7582 23.9975 20.7632 23.9958C20.7682 23.9925 20.7733 23.9891 20.7833 23.9841C20.8118 23.9673 20.8369 23.9522 20.8654 23.9355C20.8755 23.9288 20.8822 23.9254 20.8855 23.9237C20.8889 23.9204 20.8939 23.9137 20.9023 23.9053C20.9207 23.8869 20.9391 23.8685 20.9559 23.8483C20.9593 23.8433 20.9643 23.8366 20.966 23.8349C20.9777 23.8148 20.9894 23.7964 20.9995 23.7763C20.9995 23.7713 21.0196 23.7294 21.0229 23.7243C21.0296 23.7009 21.0347 23.6757 21.0397 23.6523C21.0397 23.6523 21.0397 23.6512 21.0397 23.6489C21.0397 23.6489 21.0397 23.6406 21.0363 23.6355C21.0363 23.6188 21.0363 23.6037 21.0363 23.5886C21.0363 23.5853 21.0363 23.5802 21.033 23.5752C21.033 23.5719 21.0145 23.5233 21.0145 23.5166C20.9961 23.478 20.9743 23.4428 20.9492 23.4093C20.9425 23.4026 20.914 23.3708 20.914 23.3691L20.8654 23.3205C20.8487 23.3054 20.8319 23.2903 20.8135 23.2753L20.8034 23.2652C20.8034 23.2652 20.795 23.2619 20.7883 23.2568C20.7397 23.2283 20.6945 23.1982 20.6442 23.173C20.6375 23.1697 20.5956 23.1546 20.594 23.1529C20.5755 23.1462 20.5571 23.1395 20.5403 23.1345C20.5035 23.1228 20.4666 23.1161 20.4281 23.1077C20.4147 23.1043 20.3879 23.101 20.3812 23.0993C20.3577 23.0993 20.3342 23.0993 20.3125 23.0993C20.2672 23.0993 20.2236 23.106 20.1767 23.1144C20.1466 23.1228 20.1147 23.1311 20.0846 23.1429C20.0728 23.1496 20.046 23.1613 20.041 23.1647C20.0175 23.1781 19.9974 23.1915 19.9756 23.2066C19.9673 23.2133 19.9472 23.23 19.9421 23.235C19.9271 23.2485 19.912 23.2652 19.8986 23.282C19.8986 23.2853 19.8701 23.3272 19.8584 23.3456C19.8584 23.349 19.8349 23.4093 19.8349 23.4093C19.8265 23.4328 19.8215 23.4545 19.8181 23.478C19.8148 23.4914 19.8131 23.5015 19.8114 23.5065V23.535C19.8114 23.5987 19.8081 23.6607 19.8114 23.721C19.8114 23.7327 19.8114 23.7344 19.8114 23.7361C19.8114 23.7428 19.8148 23.7461 19.8148 23.7545C19.8181 23.7679 19.8215 23.778 19.8232 23.7914C19.8416 23.8098 19.8617 23.8282 19.8818 23.845C19.8852 23.8483 19.8902 23.8517 19.8952 23.855C19.8986 23.8584 19.9036 23.8601 19.9086 23.8634V23.8617ZM21.5457 22.7256C22.3283 23.3473 22.6534 24.5337 22.0753 25.3983C21.5189 26.2278 20.5135 26.7724 19.5048 26.6081C18.5698 26.4557 17.7923 25.6564 17.7755 24.6945C17.7587 23.8081 18.3285 22.8396 19.1696 22.5045C19.9203 22.1191 20.8604 22.1794 21.5457 22.7273V22.7256ZM21.4737 25.1771C21.4586 25.1905 21.4435 25.2056 21.4268 25.2207C21.4234 25.2291 21.4234 25.2358 21.4201 25.2442C21.4385 25.2224 21.4569 25.2006 21.4737 25.1788V25.1771Z" fill="white"/>
<path d="M19.4612 49.3217C18.4859 49.3251 17.509 49.3284 16.5321 49.3317C15.7747 49.3351 15.019 49.3401 14.2616 49.3451C14.0019 49.3485 13.7421 49.3485 13.4824 49.3535C13.5629 48.6766 13.6651 48.0013 13.8209 47.336C13.9734 46.6758 14.1728 46.029 14.3571 45.3772C14.6168 44.4606 14.8414 43.5356 15.1463 42.6325C15.3977 41.8885 15.6909 41.1612 16.0311 40.4541C17.2493 42.666 18.2329 45.0018 18.9535 47.4232C19.1395 48.0499 19.3087 48.6833 19.4612 49.3217Z" fill="#F9F8F4"/>
<path d="M20.0729 27.3211C21.7221 27.3211 23.059 26.0443 23.059 24.4692C23.059 22.8941 21.7221 21.6172 20.0729 21.6172C18.4238 21.6172 17.0869 22.8941 17.0869 24.4692C17.0869 26.0443 18.4238 27.3211 20.0729 27.3211Z" fill="white"/>
<path d="M37.3858 23.6715C38.8814 23.6715 40.0937 22.5132 40.0937 21.0843C40.0937 19.6554 38.8814 18.4971 37.3858 18.4971C35.8903 18.4971 34.678 19.6554 34.678 21.0843C34.678 22.5132 35.8903 23.6715 37.3858 23.6715Z" fill="white"/>
<path d="M37.5031 19.0232C37.5165 19.0199 37.5266 19.0148 37.5383 19.0098C37.6187 18.9813 37.7009 18.9964 37.7696 19.0366C38.1147 19.0802 38.4516 19.2159 38.7381 19.4455C39.4285 20.0001 39.7117 21.0524 39.2023 21.8182C38.7213 22.5404 37.8517 23.0264 36.9736 22.904C36.1157 22.7851 35.3918 22.0729 35.3734 21.1898C35.3583 20.3973 35.866 19.5376 36.6167 19.2394C36.8915 19.0986 37.1965 19.0266 37.5015 19.0232H37.5031ZM38.3761 20.109C38.3761 20.0923 38.3762 20.0755 38.3728 20.0605C38.3628 20.0236 38.3544 19.9918 38.341 19.9566C38.3376 19.9482 38.3376 19.9415 38.3359 19.9331C38.2773 19.8845 38.2136 19.8393 38.1483 19.8024C37.9857 19.7102 37.8081 19.66 37.6271 19.6466C37.6238 19.6499 37.6188 19.6499 37.6154 19.6516C37.6037 19.6549 37.5936 19.66 37.5819 19.665H37.5785C37.5199 19.6935 37.4629 19.722 37.4076 19.7572C37.3959 19.7639 37.3858 19.7706 37.3741 19.7789C37.3523 19.799 37.3305 19.8208 37.3104 19.8426L37.3071 19.846L37.292 19.8694C37.2853 19.8795 37.2803 19.8912 37.2736 19.9013C37.2702 19.9163 37.2652 19.9314 37.2602 19.9465C37.2602 19.9431 37.2602 19.9381 37.2602 19.9348C37.2568 19.9381 37.2568 19.9498 37.2551 19.9633C37.2551 19.9599 37.2551 19.9549 37.2585 19.9465C37.2585 19.9566 37.2551 19.9633 37.2551 19.9666C37.2551 19.9834 37.2551 20.0001 37.2585 20.0152C37.2652 20.032 37.2736 20.0588 37.2769 20.0671C37.2803 20.0755 37.2803 20.0805 37.282 20.0839C37.2853 20.0923 37.2903 20.099 37.2937 20.1057C37.3054 20.1275 37.3188 20.1476 37.3322 20.1677C37.3372 20.1727 37.3708 20.2129 37.3775 20.2213C37.3892 20.2314 37.3993 20.2414 37.411 20.2498L37.4143 20.2531C37.4445 20.2732 37.4746 20.2917 37.5065 20.3101C37.5199 20.3168 37.535 20.3235 37.5484 20.3302C37.5517 20.3302 37.5517 20.3302 37.5568 20.3336C37.5903 20.3453 37.6255 20.357 37.6607 20.3671C37.6958 20.3771 37.731 20.3855 37.7679 20.3922C37.7779 20.3956 37.8366 20.4006 37.8433 20.404C37.912 20.4107 37.9824 20.4174 38.0511 20.414C38.0695 20.414 38.0879 20.414 38.1047 20.4107C38.108 20.4107 38.1131 20.4107 38.1181 20.4073C38.1416 20.4006 38.1617 20.3939 38.1835 20.3872C38.1902 20.3822 38.2354 20.3604 38.2438 20.3537C38.2488 20.3503 38.2521 20.3503 38.2538 20.347C38.2622 20.3403 38.2689 20.3336 38.2773 20.3269C38.2873 20.3168 38.3192 20.2732 38.3209 20.2732C38.3292 20.2598 38.3376 20.2448 38.3443 20.2314C38.3443 20.228 38.3644 20.1694 38.3678 20.1593C38.3678 20.1543 38.3678 20.1509 38.3711 20.1492C38.3711 20.1358 38.3711 20.1224 38.3745 20.1107L38.3761 20.109ZM36.8831 22.2421C36.8597 22.2338 36.8396 22.2254 36.8178 22.217C36.8094 22.2137 36.8027 22.2086 36.7943 22.2036C36.7759 22.2003 36.7608 22.1952 36.7441 22.1919C36.7893 22.2103 36.8362 22.2271 36.8831 22.2405V22.2421Z" fill="#202020"/>
<path d="M20.2287 24.0384C20.2655 24.0484 20.3024 24.0568 20.3409 24.0635C20.3326 24.0635 20.3225 24.0635 20.3225 24.0635C20.3259 24.0635 20.3359 24.0635 20.356 24.0668C20.418 24.0719 20.48 24.0719 20.542 24.0702H20.5638C20.5923 24.0668 20.6208 24.0601 20.6493 24.0518C20.6794 24.0434 20.7096 24.0333 20.7414 24.025C20.7515 24.0216 20.7582 24.0199 20.7632 24.0183C20.7682 24.0149 20.7733 24.0115 20.7833 24.0065C20.8118 23.9898 20.8369 23.9747 20.8654 23.9579C20.8755 23.9512 20.8822 23.9479 20.8855 23.9462C20.8889 23.9428 20.8939 23.9361 20.9023 23.9278C20.9207 23.9093 20.9391 23.8909 20.9559 23.8708C20.9593 23.8658 20.9643 23.8591 20.966 23.8574C20.9777 23.8373 20.9894 23.8188 20.9995 23.7987C20.9995 23.7937 21.0196 23.7518 21.0229 23.7468C21.0296 23.7233 21.0347 23.6982 21.0397 23.6747C21.0397 23.6747 21.0397 23.6736 21.0397 23.6714C21.0397 23.6714 21.0397 23.663 21.0363 23.658C21.0363 23.6412 21.0363 23.6261 21.0363 23.6111C21.0363 23.6077 21.0363 23.6027 21.033 23.5977C21.033 23.5943 21.0145 23.5457 21.0145 23.539C20.9961 23.5022 20.9743 23.4653 20.9492 23.4318C20.9425 23.4268 20.914 23.3932 20.914 23.3916L20.8654 23.343C20.8487 23.3279 20.8319 23.3128 20.8135 23.2977L20.8034 23.2877C20.8034 23.2877 20.795 23.2843 20.7883 23.2793C20.7397 23.2508 20.6945 23.2206 20.6442 23.1955C20.6375 23.1922 20.5956 23.1771 20.594 23.1754C20.5755 23.1687 20.5571 23.162 20.5403 23.157C20.5035 23.1452 20.4666 23.1385 20.4281 23.1302C20.4147 23.1268 20.3879 23.1234 20.3812 23.1218C20.3577 23.1218 20.3342 23.1218 20.3125 23.1218C20.2672 23.1218 20.2236 23.1285 20.1767 23.1369C20.1466 23.1452 20.1147 23.1536 20.0846 23.1653C20.0728 23.172 20.046 23.1838 20.041 23.1871C20.0175 23.2005 19.9974 23.2139 19.9756 23.229C19.9673 23.2357 19.9472 23.2525 19.9421 23.2575C19.9271 23.2709 19.912 23.2877 19.8986 23.3044C19.8986 23.3078 19.8701 23.3497 19.8584 23.3681C19.8584 23.3715 19.8349 23.4318 19.8349 23.4318C19.8265 23.4552 19.8215 23.477 19.8181 23.5005C19.8148 23.5139 19.8131 23.5239 19.8114 23.529V23.5575C19.8114 23.6211 19.8081 23.6831 19.8114 23.7435C19.8114 23.7552 19.8114 23.7569 19.8114 23.7585C19.8114 23.7652 19.8148 23.7686 19.8148 23.777C19.8181 23.7904 19.8215 23.8004 19.8232 23.8138C19.8416 23.8322 19.8617 23.8507 19.8818 23.8674C19.8852 23.8674 19.8902 23.8725 19.8952 23.8758C19.9187 23.8926 19.9438 23.9093 19.9689 23.9244C19.9941 23.9412 20.0226 23.9563 20.0477 23.9697C20.0477 23.9697 20.0728 23.9831 20.0896 23.9914C20.103 23.9965 20.1415 24.0116 20.1415 24.0116C20.17 24.0216 20.2002 24.0317 20.2287 24.04V24.0384ZM21.5457 22.7481C22.3283 23.3714 22.6534 24.5561 22.0753 25.4208C21.5189 26.2502 20.5135 26.7948 19.5048 26.6306C18.5698 26.4781 17.7923 25.6788 17.7755 24.717C17.7587 23.8306 18.3285 22.8621 19.1696 22.5269C19.9203 22.1415 20.8604 22.2018 21.5457 22.7498V22.7481ZM21.4737 25.1996C21.4586 25.213 21.4435 25.2281 21.4268 25.2432C21.4234 25.2515 21.4234 25.2582 21.4201 25.2666C21.4385 25.2448 21.4569 25.2231 21.4737 25.2013V25.1996Z" fill="#202020"/>
<path d="M18.5346 10.9216C21.9563 10.4038 25.3009 9.47218 28.731 9.00132C29.6961 8.86895 30.668 8.78013 31.6416 8.74327C32.0471 8.72818 32.0488 8.09813 31.6416 8.11154C28.1294 8.24056 24.7077 9.0985 21.2776 9.78888C20.3108 9.98325 19.3423 10.1642 18.367 10.3117C18.1978 10.3368 18.1056 10.5496 18.1475 10.7004C18.1978 10.8814 18.367 10.9468 18.5363 10.9199L18.5346 10.9216Z" fill="#202020"/>
<path d="M37.1663 48.8575C37.4294 45.9686 37.8299 42.996 39.2425 40.4155C39.6078 39.7486 40.0351 39.1168 40.5327 38.5438C40.645 38.4147 40.6584 38.2237 40.5327 38.098C40.4188 37.9841 40.1993 37.969 40.087 38.098C38.1282 40.3518 37.2585 43.2775 36.8379 46.1814C36.7089 47.0712 36.6151 47.9643 36.5346 48.8591C36.5195 49.0284 36.6905 49.1742 36.8496 49.1742C37.034 49.1742 37.1496 49.0284 37.1647 48.8591L37.1663 48.8575Z" fill="#202020"/>
<path d="M20.6309 47.8983C19.7278 45.0681 18.4928 42.2379 16.4401 40.0428C15.8721 39.4362 15.2404 38.8916 14.5584 38.4158C14.4176 38.3186 14.2081 38.3906 14.126 38.5297C14.0339 38.6872 14.0992 38.8632 14.24 38.962C16.5943 40.5991 18.1342 43.1428 19.1949 45.7568C19.5015 46.5142 19.7747 47.2867 20.0227 48.0659C20.145 48.4513 20.7549 48.2871 20.6309 47.8983Z" fill="#202020"/>
</svg>
