<svg width="50" height="50" viewBox="0 0 50 50" fill="none" xmlns="http://www.w3.org/2000/svg">
<path d="M45.5602 0.679688H4.44521C2.34009 0.679688 0.633545 2.38623 0.633545 4.49135V45.6064C0.633545 47.7115 2.34009 49.418 4.44521 49.418H45.5602C47.6653 49.418 49.3719 47.7115 49.3719 45.6064V4.49135C49.3719 2.38623 47.6653 0.679688 45.5602 0.679688Z" fill="#252525"/>
<path d="M5.92691 14.4783C5.92691 14.4783 5.87191 14.4917 5.86191 14.495C5.82524 14.5067 5.82857 14.5033 5.78857 14.5283C5.75691 14.5483 5.69191 14.615 5.65691 14.675C5.45024 15.0133 5.49524 15.5117 5.52191 15.8917C5.54858 16.2883 5.62358 16.6783 5.73191 17.0583C5.95525 17.83 6.33692 18.5617 6.83858 19.19C7.35025 19.8283 7.97358 20.3717 8.69025 20.7717C9.03858 20.965 9.40358 21.1217 9.78358 21.2367C10.1902 21.3583 10.7053 21.37 11.0203 21.6867C11.3753 22.0417 11.2752 22.5417 10.9719 22.8883C10.6486 23.2583 10.1802 23.4183 9.71691 23.5233C8.65524 23.7633 7.52691 23.7233 6.48858 23.39C5.54024 23.085 4.68858 22.5533 3.76692 22.1833C3.53358 22.09 3.29691 22.0067 3.05358 21.9417C2.85191 21.8867 2.61357 21.815 2.40357 21.8667C2.06857 21.9467 2.08524 22.4017 2.12524 22.6817C2.36024 24.305 3.37858 25.8183 4.65192 26.8167C5.29358 27.3217 6.03525 27.71 6.81858 27.9417C7.82858 28.24 8.89525 28.2567 9.91192 28.5233C10.3719 28.6433 10.9169 28.805 11.1469 29.2633C11.3569 29.6817 11.2736 30.2083 11.0052 30.58C10.7086 30.9883 10.2502 31.2117 9.78358 31.365C9.27025 31.5333 8.73692 31.6533 8.20358 31.7317C7.66025 31.8117 7.11191 31.8583 6.56358 31.8533C6.04691 31.85 5.54025 31.7883 5.02692 31.7367C4.68525 31.7017 4.26358 31.6567 3.95691 31.8333C3.63691 32.0167 3.62191 32.3767 3.73858 32.6933C3.89024 33.1017 4.21692 33.4183 4.54692 33.6883C4.90192 33.9817 5.30691 34.2167 5.72191 34.4133C6.60525 34.8333 7.57857 35.0617 8.53857 35.2183C10.6969 35.5683 12.9286 35.4433 15.0386 34.8817C15.1269 34.8583 15.2019 34.8717 15.2636 34.905C15.3102 34.9183 15.3519 34.9433 15.3836 34.9817C15.5202 35.1517 15.6669 35.3117 15.8286 35.4583C16.4719 36.0483 17.2936 36.4117 18.1186 36.6667C19.0386 36.95 19.9936 37.125 20.9452 37.2633C22.9469 37.5533 24.9902 37.595 27.0052 37.4133C29.0119 37.2317 31.0002 36.8133 32.9119 36.1767C33.8703 35.8567 34.8086 35.4833 35.7186 35.0517C36.5919 34.6383 37.4603 34.1817 38.2253 33.59C38.9736 33.0117 39.6086 32.2983 39.9986 31.4317C40.3653 30.6217 40.4769 29.6933 40.2119 28.8383V28.835C39.9936 28.9783 39.7686 29.11 39.5403 29.23C38.4236 29.8183 37.2019 30.23 35.9986 30.5983C33.3886 31.395 30.6819 31.8533 27.9619 32.0567C25.1819 32.265 22.3153 32.3017 19.5819 31.6867C19.1853 31.5967 19.3553 30.9883 19.7503 31.0783C20.0769 31.1517 20.4052 31.2167 20.7352 31.27C22.0802 31.4933 23.4486 31.5533 24.8103 31.5483C26.1369 31.5433 27.4653 31.48 28.7869 31.355C31.4053 31.1067 34.0052 30.6 36.5036 29.7733C38.5286 29.1033 41.0569 28.23 41.7119 25.95C42.0202 24.8833 41.9286 23.73 41.7269 22.6517C41.5553 21.735 41.2669 20.8417 40.8252 20.0167C39.9236 18.325 38.4569 17.0733 36.7769 16.1917C36.7652 16.1867 36.7569 16.1783 36.7486 16.1733C35.2869 16.8717 33.7369 17.37 32.1519 17.7033C29.0319 18.3567 25.8219 18.4183 22.6453 18.3583C21.7236 18.34 20.8036 18.2833 19.8836 18.2C18.9652 18.1167 18.0486 18.0083 17.1336 17.89C17.1086 17.89 17.0836 17.8867 17.0552 17.88C16.3086 17.69 15.5603 17.4733 14.8286 17.2183C14.6086 17.36 14.3836 17.4933 14.1319 17.575C13.8719 17.66 13.5953 17.7067 13.3303 17.7667C10.6553 18.3667 8.11358 16.6683 6.40025 14.7533C6.28358 14.7333 6.19191 14.6417 6.14358 14.5267C6.14358 14.5267 6.10525 14.5 6.10525 14.4983C6.02691 14.4667 6.00191 14.465 5.92025 14.475L5.92691 14.4783ZM50.0003 3.89166V46.1083C50.0003 48.255 48.2552 50 46.1086 50H13.0519C13.0519 50 13.0403 50 13.0386 50C13.0386 50 13.0386 50 13.0419 50H3.89192C1.74525 50 0.000244141 48.255 0.000244141 46.1083V3.89166C0.000244141 1.745 1.74525 0 3.89192 0H46.1086C48.2552 0 50.0003 1.745 50.0003 3.89166ZM49.3686 46.1083V3.89166C49.3686 2.09333 47.9069 0.631673 46.1086 0.631673H3.89192C2.09358 0.631673 0.631907 2.09333 0.631907 3.89166V46.1083C0.631907 47.9067 2.09358 49.3683 3.89192 49.3683H12.8503C12.9469 48.5583 13.0686 47.75 13.2636 46.9567C13.4386 46.2533 13.6552 45.5583 13.8486 44.86C14.1119 43.9083 14.3569 42.9567 14.6919 42.0267C15.3336 40.2517 16.2103 38.565 17.3953 37.0917C16.4936 36.7533 15.6619 36.27 15.0302 35.535C14.5502 35.6567 14.0669 35.76 13.5786 35.8367C11.3686 36.185 9.05192 36.11 6.89192 35.51C5.92525 35.2417 4.99358 34.8367 4.19858 34.215C3.50691 33.6733 2.69525 32.6967 3.17192 31.7683C3.62692 30.8817 4.75858 31.085 5.56358 31.1683C6.66858 31.2833 7.79191 31.2183 8.87358 30.9633C9.34191 30.8517 9.87858 30.7383 10.2686 30.4417C10.5269 30.2467 10.7786 29.8167 10.5569 29.505C10.4386 29.3367 10.2069 29.27 10.0219 29.2117C9.75358 29.1267 9.47858 29.0633 9.20191 29.0117C8.65691 28.91 8.10358 28.85 7.55692 28.755C5.75858 28.445 4.13192 27.49 2.99525 26.0567C2.44192 25.3583 2.00691 24.5733 1.73191 23.725C1.49358 22.9917 1.15858 21.6967 2.09858 21.3033C2.57858 21.1033 3.16191 21.295 3.62858 21.46C4.12191 21.6333 4.59525 21.86 5.06525 22.09C6.01858 22.555 6.96858 22.9817 8.04525 23.0383C8.58858 23.0667 9.13025 23.0183 9.65691 22.8883C9.99024 22.8067 10.5002 22.6517 10.6102 22.2883C10.6236 22.24 10.6336 22.2167 10.5886 22.1533C10.5536 22.1067 10.4986 22.0783 10.4452 22.0567C10.2452 21.975 10.0152 21.955 9.80525 21.9C9.38358 21.7883 8.97191 21.6267 8.58191 21.43C7.02191 20.64 5.80691 19.2083 5.22691 17.565C4.93524 16.7417 4.77858 15.7967 4.91192 14.9267C4.98192 14.4717 5.23191 14.01 5.70524 13.88C6.02024 13.795 6.33524 13.865 6.55191 14.07C6.61191 14.08 6.66858 14.1083 6.71025 14.155C7.18691 14.7067 7.71024 15.2183 8.28024 15.6733C9.23691 16.435 10.3819 17.0583 11.6069 17.2233C12.2136 17.3033 12.7936 17.2417 13.3852 17.1067C13.5919 17.06 13.8019 17.0233 14.0019 16.955C14.0102 16.9517 14.0402 16.94 14.0469 16.9367C14.0519 16.9333 14.0553 16.9333 14.0603 16.93C13.8603 16.85 13.6619 16.7667 13.4652 16.68C12.5519 16.2683 11.6569 15.7167 11.0319 14.92C10.6952 14.4917 10.3952 13.98 10.3036 13.435C10.2036 12.845 10.3736 12.29 10.7886 11.8617C11.6536 10.9733 13.0269 11.0383 14.1702 11.0183C15.3269 11 16.4936 11.0667 17.5786 11.4917C17.7952 10.7933 18.0702 10.115 18.4269 9.46501C18.9319 8.54334 19.5936 7.68667 20.4119 7.02167C21.3219 6.28333 22.3919 5.83001 23.5169 5.52667C24.6719 5.21334 25.8652 4.98666 27.0552 4.86666C28.2202 4.74999 29.4102 4.765 30.5519 5.03833C31.6202 5.29333 32.6052 5.795 33.4486 6.49666C34.2269 7.14333 34.8686 7.95334 35.3869 8.82001C35.9186 9.70501 36.3286 10.665 36.6469 11.645C36.8703 12.3333 37.0603 13.045 37.1636 13.7667C37.5403 13.3 37.8919 12.815 38.2319 12.32C38.4536 11.995 38.6686 11.6667 38.8652 11.325C38.9519 11.1733 39.0369 11.0183 39.1119 10.86C39.1769 10.7267 39.1869 10.6883 39.2453 10.53C39.3403 10.2683 39.5236 10.0417 39.8303 10.0717C40.0969 10.0967 40.3102 10.3317 40.4719 10.5267C40.8019 10.9217 41.0252 11.3867 41.1702 11.8767C41.7352 13.765 41.3603 15.9167 40.3103 17.5683C40.5369 17.575 40.7652 17.56 40.9886 17.5167C42.1102 17.2933 43.0469 16.55 43.7152 15.645C44.0636 15.175 44.3569 14.665 44.6169 14.14C44.8486 13.6767 45.1236 13.145 45.6152 12.9117C45.8769 12.7883 46.1619 12.7733 46.4236 12.9083C46.6702 13.035 46.8186 13.275 46.9252 13.52C47.1669 14.0883 47.3236 14.6917 47.4069 15.3033C47.5752 16.535 47.4502 17.8117 47.0019 18.9717C46.6086 19.9933 45.9919 20.9217 45.2002 21.6783C44.8086 22.055 44.3719 22.39 43.9052 22.6733C43.6786 22.8117 43.4436 22.9283 43.2069 23.045C43.0836 23.105 42.7636 23.25 42.7686 23.405C42.7686 23.4283 42.8336 23.49 42.8802 23.5217C42.9836 23.5883 43.1036 23.625 43.2219 23.66C43.5119 23.7467 43.8102 23.7933 44.1119 23.81C44.7486 23.8433 45.3819 23.7717 46.0153 23.7183C46.5752 23.6717 47.3469 23.5267 47.7053 24.085C48.0036 24.5467 47.8586 25.1983 47.6203 25.6517C47.0952 26.6533 45.9352 27.2283 44.9219 27.6017C43.7669 28.0267 42.5086 28.1867 41.2836 28.0683C41.2502 28.065 41.2186 28.0567 41.1869 28.045C41.0286 28.205 40.8603 28.3533 40.6836 28.4933C40.7436 28.5283 40.7936 28.585 40.8186 28.67C40.8919 28.905 40.9369 29.145 40.9669 29.39C41.0786 30.3633 40.7953 31.3633 40.3103 32.2017C39.8036 33.0817 39.0503 33.7883 38.2236 34.3667C37.7636 34.6883 37.2786 34.97 36.7819 35.2283C37.3552 36.1517 37.8902 37.1 38.3602 38.08C39.1819 39.79 39.7969 41.5883 40.1586 43.45C40.5352 45.3967 40.6602 47.3833 40.6802 49.3633H46.1053C47.9036 49.3633 49.3652 47.9017 49.3652 46.1033L49.3686 46.1083ZM46.7519 25.7967C47.0402 25.4883 47.2886 25.0567 47.2386 24.62C47.2136 24.39 47.0802 24.3133 46.8619 24.3083C46.5636 24.3 46.2619 24.3333 45.9636 24.3583C45.3602 24.4083 44.7552 24.475 44.1486 24.445C43.6252 24.4183 42.9819 24.345 42.5302 24.0367C42.5802 25.0267 42.4652 26.025 42.0136 26.925C41.9186 27.1167 41.8086 27.2967 41.6853 27.4683C41.8486 27.4767 42.0119 27.4817 42.1752 27.4783C43.3319 27.4633 44.4903 27.185 45.5219 26.6633C45.9719 26.435 46.4053 26.1667 46.7503 25.795L46.7519 25.7967ZM46.6036 18.2C46.9186 17.085 46.9436 15.8917 46.6752 14.7633C46.6052 14.475 46.5186 14.19 46.4136 13.9133C46.3519 13.7483 46.2719 13.49 46.0752 13.4467C45.9502 13.4183 45.7786 13.55 45.6619 13.6733C45.5003 13.8417 45.3786 14.045 45.2752 14.2517C44.7736 15.265 44.1919 16.2567 43.3336 17.01C42.5136 17.73 41.4569 18.2217 40.3519 18.205C40.8953 18.85 41.3519 19.5667 41.6902 20.3533C42.0352 21.1533 42.2636 21.9867 42.4002 22.8433C42.4736 22.77 42.5569 22.705 42.6419 22.6483C42.8486 22.51 43.0836 22.4183 43.3002 22.3017C43.5286 22.1783 43.7502 22.0417 43.9619 21.8933C44.3802 21.605 44.7586 21.2633 45.1019 20.89C45.8003 20.1233 46.3219 19.2 46.6036 18.2017V18.2ZM40.7536 14.5733C40.8686 13.6717 40.8119 12.7167 40.5102 11.8533C40.3702 11.4517 40.1552 11.0667 39.8436 10.77C39.8302 10.8067 39.8136 10.8417 39.8019 10.8717C39.7436 11.0167 39.6802 11.16 39.6069 11.2983C39.2769 11.945 38.8586 12.55 38.4353 13.1367C38.0603 13.655 37.6719 14.1667 37.2536 14.65C37.2619 14.89 37.2586 15.13 37.2419 15.3717C37.2386 15.4217 37.2236 15.4667 37.2036 15.51C37.2703 15.5783 37.3102 15.6717 37.3036 15.7617C37.4669 15.85 37.6303 15.9417 37.7886 16.0383C38.4586 16.4433 39.0836 16.9183 39.6453 17.4533C40.2336 16.595 40.6186 15.605 40.7519 14.5733H40.7536ZM39.5119 49.2617C39.6919 49.2617 39.8736 49.2583 40.0536 49.2533C40.0402 48.1783 39.9986 47.1033 39.8969 46.0317C39.7236 44.19 39.3603 42.3683 38.7453 40.6183C38.2436 39.1933 37.5802 37.8333 36.8269 36.5267C36.8602 38.27 36.3719 40.0267 35.4736 41.5167C34.4986 43.1317 33.0236 44.4133 31.3052 45.1883C29.5069 45.9983 27.4952 46.2733 25.5502 45.9183C23.6352 45.5683 21.8702 44.5283 20.6686 42.9917C19.4636 41.4517 18.8536 39.4983 18.9786 37.5467C18.6619 37.4767 18.3452 37.3967 18.0319 37.3033C18.0236 37.315 18.0169 37.3267 18.0086 37.3367C17.3252 38.155 16.7486 39.0583 16.2586 40.0033C15.8202 40.8483 15.4569 41.73 15.1519 42.6317C14.8469 43.535 14.6219 44.46 14.3619 45.3767C14.1769 46.0267 13.9786 46.675 13.8252 47.3333C13.6702 47.9983 13.5686 48.6733 13.4869 49.3517C13.7469 49.3467 14.0069 49.3467 14.2669 49.3433C15.0236 49.3367 15.7802 49.3333 16.5369 49.33C17.5653 49.3267 18.5936 49.3217 19.6236 49.32C20.8369 49.3167 22.0502 49.3133 23.2619 49.3117C24.5602 49.3083 25.8586 49.3067 27.1569 49.3033C28.4386 49.3 29.7202 49.2983 31.0019 49.295C32.1836 49.2917 33.3636 49.29 34.5452 49.2867C35.5202 49.2833 36.4952 49.28 37.4702 49.275C38.1502 49.2717 38.8319 49.2683 39.5136 49.26L39.5119 49.2617ZM36.6119 15.3733C36.6336 15.07 36.6352 14.7683 36.6152 14.4667C36.5436 13.3367 36.2136 12.215 35.8186 11.16C35.4752 10.245 35.0336 9.36333 34.4769 8.56C33.9403 7.78833 33.2786 7.08833 32.4953 6.56333C31.6286 5.98333 30.6302 5.63667 29.5969 5.505C28.4836 5.36334 27.3436 5.44001 26.2369 5.61001C25.1102 5.78334 23.9669 6.01168 22.8902 6.38668C21.8919 6.73335 20.9969 7.27333 20.2602 8.03333C19.5686 8.74499 19.0369 9.59667 18.6319 10.4983C17.6786 12.6217 17.5102 14.9983 17.3436 17.2883C18.0936 17.3833 18.8469 17.4633 19.6003 17.5383C20.7753 17.655 21.9452 17.7233 23.1269 17.7417C24.7052 17.765 26.2852 17.7517 27.8602 17.6467C30.8819 17.4433 33.9236 16.8767 36.6552 15.53C36.6269 15.4817 36.6102 15.4283 36.6136 15.3717L36.6119 15.3733ZM35.2486 40.625C36.0353 39.0817 36.3669 37.2833 36.1236 35.5633C35.9286 35.655 35.7336 35.745 35.5386 35.8333C35.1653 36 34.7869 36.1567 34.4052 36.305C34.3986 36.4667 34.3886 36.6267 34.3769 36.7883H35.4902C35.6669 36.7883 35.7986 36.9317 35.8052 37.1033C35.8136 37.2733 35.6552 37.4183 35.4902 37.4183H34.3069C34.2702 37.67 34.2236 37.9217 34.1653 38.17C34.5669 38.3217 34.9319 38.5283 35.2703 38.7933C35.3353 38.8433 35.3602 38.94 35.3619 39.0167C35.3652 39.1017 35.3253 39.18 35.2703 39.24C35.2169 39.2983 35.1252 39.3317 35.0469 39.3317C34.9619 39.3317 34.9002 39.2983 34.8369 39.2483C34.8286 39.2433 34.8236 39.2383 34.8169 39.2333C34.8019 39.2217 34.7869 39.21 34.7719 39.2C34.7436 39.1783 34.7119 39.1567 34.6819 39.1367C34.6169 39.0917 34.5486 39.05 34.4803 39.01C34.3536 38.935 34.2236 38.87 34.0886 38.8117C34.0569 38.7983 34.0269 38.7883 33.9953 38.775C33.8636 39.1783 33.6969 39.5683 33.4869 39.9367C33.4319 40.035 33.3703 40.1317 33.3086 40.225C33.3419 40.25 33.3702 40.2817 33.3986 40.32C33.6352 40.63 33.8719 40.94 34.1086 41.25C34.1586 41.3167 34.1586 41.4167 34.1403 41.4933C34.1219 41.5733 34.0619 41.6383 33.9953 41.6817C33.9286 41.725 33.8269 41.735 33.7519 41.715C33.6669 41.6917 33.6153 41.6383 33.5636 41.57C33.3503 41.29 33.1369 41.0117 32.9236 40.7317C32.7719 40.905 32.6069 41.0683 32.4286 41.215C32.2436 41.3667 32.0469 41.4983 31.8436 41.6183C32.0686 42.15 32.2936 42.685 32.5169 43.2167C32.5853 43.38 32.4419 43.5583 32.2969 43.605C32.2686 43.615 32.2386 43.6183 32.2119 43.6183C32.0736 43.6183 31.9619 43.51 31.9086 43.3833C31.7019 42.89 31.4936 42.395 31.2852 41.9017C31.0702 41.9983 30.8502 42.0817 30.6269 42.1583C30.3886 42.24 30.1469 42.3117 29.9019 42.3733C30.0236 42.9633 30.1436 43.5533 30.2636 44.1417C30.2986 44.315 30.2136 44.4733 30.0436 44.5283C29.8902 44.5783 29.6886 44.47 29.6569 44.3083C29.5336 43.7083 29.4102 43.1067 29.2869 42.5033C28.9219 42.5683 28.5519 42.6083 28.1836 42.6217C28.0203 43.3 27.9269 43.99 27.9069 44.6867C27.9019 44.8583 27.7669 45.0017 27.5919 45.0017C27.4169 45.0017 27.2719 44.8583 27.2769 44.6867C27.2969 43.9917 27.3853 43.2967 27.5369 42.6183C27.2436 42.605 26.9486 42.575 26.6569 42.525C26.4869 42.4967 26.3169 42.4583 26.1502 42.4133C25.8819 43.0783 25.6136 43.7433 25.3436 44.4083C25.2769 44.5733 25.1386 44.67 24.9553 44.6283C24.8019 44.5933 24.6719 44.3933 24.7352 44.2417C25.0069 43.5683 25.2786 42.895 25.5502 42.2233C25.1602 42.0767 24.7902 41.8883 24.4419 41.66C23.8736 42.2033 23.3036 42.745 22.7352 43.2883C22.6236 43.395 22.4636 43.405 22.3386 43.3267C22.3202 43.315 22.3053 43.3033 22.2886 43.2883C22.1669 43.175 22.1703 42.955 22.2886 42.8417C22.8369 42.32 23.3819 41.8 23.9286 41.28C23.7702 41.1483 23.6186 41.005 23.4753 40.8533C23.3486 40.72 23.2286 40.5783 23.1186 40.43C22.4886 40.8333 21.8602 41.2367 21.2319 41.6383C21.0952 41.725 20.9236 41.6733 20.8252 41.5583C20.8169 41.5467 20.8069 41.535 20.8002 41.525C20.7052 41.3783 20.7753 41.1833 20.9136 41.0933C21.5303 40.6983 22.1486 40.3017 22.7652 39.9067C22.5636 39.56 22.4019 39.19 22.2936 38.8033C21.6219 39.035 20.9386 39.2317 20.2453 39.385C20.0769 39.4217 19.9036 39.335 19.8569 39.165L19.8486 39.1267C19.8302 38.9767 19.9236 38.8117 20.0769 38.7767C20.7836 38.6183 21.4803 38.42 22.1636 38.1817C22.1569 38.1317 22.1519 38.0817 22.1469 38.0333C21.4436 37.9667 20.7402 37.875 20.0436 37.7533C19.8969 37.7283 19.7486 37.7 19.6003 37.6717C19.5936 37.8 19.5902 37.9283 19.5902 38.0583C19.5902 38.425 19.6186 38.7933 19.6752 39.155C19.8102 40.0433 20.1086 40.9033 20.5502 41.6833C20.8336 42.1833 21.1736 42.65 21.5702 43.0717C21.7302 43.2417 21.8969 43.4033 22.0719 43.5567C23.2886 44.6267 24.8269 45.265 26.4519 45.4083C28.2369 45.565 30.0503 45.1833 31.6253 44.33C31.8686 44.1983 32.1053 44.0567 32.3336 43.9033C33.5669 43.0783 34.5752 41.9567 35.2536 40.6233L35.2486 40.625ZM33.1519 39.215C33.5352 38.385 33.7052 37.4617 33.7619 36.5483C33.3719 36.6917 32.9803 36.8267 32.5836 36.95C30.5603 37.5783 28.4602 37.9617 26.3452 38.1C25.1602 38.1767 23.9702 38.17 22.7852 38.0883C22.9119 39.1167 23.4769 40.0483 24.2503 40.7333C24.3436 40.8167 24.4403 40.895 24.5386 40.97C24.5719 40.985 24.6052 41.005 24.6352 41.0317C24.6436 41.0383 24.6486 41.0467 24.6552 41.055C26.4536 42.3267 28.9502 42.205 30.9236 41.38C31.4436 41.1633 31.9236 40.8683 32.3169 40.4633C32.6669 40.1017 32.9386 39.6733 33.1502 39.2167L33.1519 39.215ZM16.7786 16.4067C16.8919 14.9667 17.0519 13.505 17.4186 12.1033C16.2886 11.625 15.0219 11.6317 13.8169 11.6617C12.8919 11.685 11.6086 11.6367 11.0619 12.5517C10.8086 12.9783 10.9236 13.4683 11.1302 13.89C11.3252 14.2883 11.5936 14.6383 11.9136 14.9433C12.5703 15.57 13.4069 15.995 14.2452 16.3267C15.0536 16.6467 15.8836 16.91 16.7236 17.1383C16.7419 16.895 16.7586 16.65 16.7786 16.405V16.4067Z" fill="white"/>
<path d="M40.0534 49.2533C39.8734 49.2566 39.6918 49.26 39.5118 49.2617C38.8301 49.27 38.1484 49.275 37.4684 49.2767C36.4934 49.2817 35.5184 49.285 34.5434 49.2883C33.3618 49.2916 32.1818 49.295 31.0001 49.2967C29.7185 49.3 28.4368 49.3016 27.1551 49.305C25.8568 49.3083 24.5584 49.31 23.2601 49.3133C22.0468 49.3166 20.8335 49.3183 19.6218 49.3217C18.5918 49.325 17.5634 49.3283 16.5351 49.3316C15.7784 49.335 15.0218 49.34 14.2651 49.345C14.0051 49.3483 13.7451 49.3483 13.4851 49.3533C13.5651 48.675 13.6684 48 13.8234 47.335C13.9768 46.6766 14.1751 46.0283 14.3601 45.3783C14.6201 44.4616 14.8451 43.5367 15.1501 42.6333C15.4551 41.7317 15.8184 40.85 16.2568 40.005C16.7468 39.0583 17.3234 38.1567 18.0068 37.3383C18.0151 37.3283 18.0234 37.3166 18.0301 37.305C18.3434 37.3983 18.6601 37.4783 18.9768 37.5483C18.8518 39.4983 19.4618 41.4533 20.6668 42.9933C21.8685 44.53 23.6334 45.5716 25.5484 45.92C27.4934 46.275 29.5051 46 31.3034 45.19C33.0218 44.415 34.4968 43.1333 35.4718 41.5183C36.3718 40.0283 36.8601 38.2717 36.8251 36.5283C37.5784 37.835 38.2418 39.195 38.7434 40.62C39.3584 42.3683 39.7218 44.19 39.8951 46.0333C39.9968 47.105 40.0384 48.18 40.0518 49.255L40.0534 49.2533Z" fill="white"/>
<path d="M38.7401 19.4229C39.4301 19.9762 39.7135 21.0279 39.2051 21.7929C38.7251 22.5162 37.8535 22.9996 36.9768 22.8796C36.1185 22.7612 35.3951 22.0495 35.3768 21.1645C35.3618 20.3729 35.8701 19.5129 36.6201 19.2146C36.8951 19.0746 37.1985 19.0012 37.5051 18.9995C37.5185 18.9962 37.5285 18.9912 37.5401 18.9862C37.6201 18.9579 37.7035 18.9729 37.7718 19.0145C38.1168 19.0579 38.4551 19.1929 38.7401 19.4229ZM38.3785 20.0846C38.3785 20.0679 38.3785 20.0512 38.3751 20.0362V20.0329C38.3651 19.9995 38.3568 19.9645 38.3435 19.9312C38.3401 19.9229 38.3401 19.9162 38.3385 19.9079C38.2785 19.8579 38.2168 19.8146 38.1501 19.7762C37.9868 19.6846 37.8101 19.6329 37.6285 19.6229L37.6168 19.6262C37.6051 19.6296 37.5951 19.6345 37.5835 19.6395H37.5801C37.5218 19.6679 37.4635 19.6962 37.4101 19.7312C37.3985 19.7379 37.3885 19.7446 37.3768 19.7529C37.3551 19.7729 37.3335 19.7946 37.3118 19.8162L37.3085 19.8196L37.2935 19.8429C37.2868 19.8529 37.2818 19.8645 37.2751 19.8745C37.2718 19.8895 37.2668 19.9046 37.2618 19.9196C37.2618 19.9162 37.2618 19.9112 37.2618 19.9079C37.2585 19.9112 37.2585 19.9229 37.2568 19.9362C37.2568 19.9329 37.2568 19.9279 37.2601 19.9196C37.2601 19.9296 37.2568 19.9362 37.2568 19.9396C37.2568 19.9562 37.2568 19.9729 37.2601 19.9879C37.2668 20.0062 37.2751 20.0312 37.2785 20.0395C37.2818 20.0479 37.2818 20.0529 37.2835 20.0562C37.2868 20.0645 37.2918 20.0712 37.2951 20.0779C37.3068 20.0995 37.3201 20.1195 37.3335 20.1395C37.3385 20.1445 37.3718 20.1846 37.3785 20.1929C37.3901 20.2029 37.4001 20.2129 37.4118 20.2229C37.4118 20.2229 37.4151 20.2229 37.4151 20.2262C37.4451 20.2445 37.4751 20.2646 37.5068 20.2812C37.5201 20.2896 37.5351 20.2946 37.5485 20.3012C37.5518 20.3012 37.5518 20.3012 37.5568 20.3045C37.5901 20.3162 37.6251 20.3279 37.6601 20.3379C37.6951 20.3479 37.7301 20.3562 37.7668 20.3629C37.7751 20.3662 37.8368 20.3712 37.8418 20.3745C37.9118 20.3812 37.9801 20.3879 38.0501 20.3846C38.0685 20.3846 38.0868 20.3846 38.1051 20.3812C38.1085 20.3812 38.1135 20.3812 38.1185 20.3779C38.1418 20.3729 38.1618 20.3646 38.1835 20.3579C38.1901 20.3529 38.2351 20.3312 38.2435 20.3262C38.2485 20.3229 38.2518 20.3212 38.2535 20.3179L38.2768 20.2996C38.2868 20.2896 38.3185 20.2445 38.3201 20.2445C38.3285 20.2312 38.3368 20.2162 38.3435 20.2029C38.3435 20.1945 38.3635 20.1412 38.3668 20.1312C38.3668 20.1262 38.3668 20.1245 38.3701 20.1212C38.3701 20.1079 38.3701 20.0945 38.3735 20.0829L38.3785 20.0846ZM36.8851 22.2162C36.8618 22.2079 36.8418 22.2012 36.8201 22.1912C36.8118 22.1879 36.8051 22.1829 36.7968 22.1779C36.7785 22.1746 36.7635 22.1695 36.7468 22.1662C36.7918 22.1845 36.8385 22.2012 36.8851 22.2162Z" fill="white"/>
<path d="M36.6137 14.4636C36.6337 14.7653 36.632 15.0686 36.6103 15.3703C36.607 15.427 36.6237 15.4803 36.652 15.5286C33.9187 16.8753 30.8787 17.442 27.857 17.6453C26.282 17.7503 24.702 17.7636 23.1237 17.7403C21.942 17.722 20.772 17.6536 19.597 17.537C18.8437 17.462 18.0903 17.382 17.3403 17.287C17.507 14.997 17.6753 12.6203 18.6287 10.497C19.0337 9.59529 19.5653 8.74364 20.257 8.03197C20.9937 7.27197 21.8903 6.73197 22.887 6.38531C23.9653 6.01031 25.107 5.78197 26.2337 5.60863C27.3403 5.43863 28.4803 5.36197 29.5937 5.50363C30.627 5.6353 31.6253 5.98196 32.492 6.56196C33.2753 7.08696 33.9387 7.78696 34.4737 8.55863C35.0303 9.36029 35.472 10.2436 35.8153 11.1586C36.2103 12.2136 36.5403 13.337 36.612 14.4653L36.6137 14.4636ZM32.8153 14.9186C32.9703 14.8486 33.007 14.622 32.927 14.487C32.9237 14.4803 32.9187 14.4753 32.9153 14.4703C32.862 13.8003 32.8087 13.1303 32.757 12.4586C32.747 12.3286 32.6653 12.202 32.542 12.1603C32.457 12.0953 32.3387 12.077 32.217 12.152C31.762 12.432 31.227 12.517 30.7037 12.5753C30.0753 12.6453 29.4437 12.6953 28.812 12.7253C27.537 12.7853 26.2603 12.7636 24.9887 12.6603C24.832 12.647 24.6987 12.7903 24.677 12.9386C24.652 12.9703 24.6337 13.0086 24.627 13.0503C24.4953 13.927 24.4937 14.8036 24.617 15.6803C24.6403 15.8486 24.857 15.942 25.0053 15.9003C25.0187 15.897 25.0303 15.8903 25.0437 15.8853C27.0603 16.2436 29.1487 16.1353 31.1137 15.5553C31.6953 15.382 32.262 15.167 32.8153 14.9186ZM27.2887 16.9086V16.877C27.2887 16.8336 27.2803 16.792 27.262 16.7553C27.2487 16.717 27.227 16.682 27.197 16.6536C27.1687 16.6236 27.1337 16.602 27.0953 16.5886C27.0587 16.5703 27.0187 16.5603 26.9737 16.562L26.8903 16.5736C26.8353 16.5886 26.7903 16.6153 26.7503 16.6536L26.7003 16.7186C26.672 16.7686 26.657 16.8203 26.657 16.877V16.9086C26.657 16.952 26.6653 16.9936 26.6853 17.0303C26.6987 17.0686 26.7187 17.1036 26.7503 17.132C26.7787 17.162 26.8137 17.1853 26.852 17.197C26.8903 17.2153 26.9303 17.2253 26.9737 17.2236C27.002 17.2203 27.0287 17.2153 27.0587 17.212C27.112 17.197 27.1587 17.1703 27.197 17.132L27.247 17.067C27.2753 17.017 27.2903 16.9653 27.2903 16.9086H27.2887Z" fill="white"/>
<path d="M32.9268 14.4877C33.0068 14.6227 32.9701 14.8494 32.8151 14.9194C32.2618 15.1677 31.6951 15.3844 31.1135 15.5561C29.1485 16.1361 27.0601 16.2444 25.0435 15.8861C25.0301 15.8911 25.0201 15.8977 25.0051 15.9011C24.8568 15.9411 24.6401 15.8494 24.6168 15.6811C24.4935 14.8027 24.4951 13.9277 24.6268 13.0511C24.6335 13.0077 24.6518 12.9711 24.6768 12.9394C24.6985 12.7911 24.8318 12.6494 24.9885 12.6611C26.2601 12.7644 27.5368 12.7877 28.8118 12.7261C29.4435 12.6961 30.0751 12.6461 30.7035 12.5761C31.2268 12.5161 31.7618 12.4327 32.2168 12.1527C32.3385 12.0777 32.4568 12.0977 32.5418 12.1611C32.6651 12.2044 32.7468 12.3294 32.7568 12.4594C32.8101 13.1311 32.8635 13.8011 32.9151 14.4711C32.9185 14.4761 32.9235 14.4811 32.9268 14.4877ZM32.2835 14.4644C32.2435 13.9377 32.2018 13.4127 32.1601 12.8861C31.7485 13.0561 31.3051 13.1327 30.8601 13.1877C30.2218 13.2661 29.5785 13.3177 28.9351 13.3511C27.6985 13.4161 26.4585 13.4011 25.2235 13.3094C25.1335 13.9577 25.1235 14.6244 25.1951 15.2761C25.6868 15.3627 26.1835 15.4227 26.6818 15.4494C28.5918 15.5511 30.5251 15.2177 32.2835 14.4661V14.4644Z" fill="white"/>
<path d="M27.2886 16.8785V16.9101C27.2886 16.9668 27.2753 17.0201 27.2453 17.0685L27.1953 17.1335C27.1569 17.1718 27.1103 17.1985 27.0569 17.2135C27.0286 17.2168 27.0003 17.2218 26.9719 17.2251C26.9286 17.2251 26.8886 17.2168 26.8503 17.1985C26.8119 17.1852 26.7769 17.1635 26.7486 17.1335C26.7186 17.1052 26.6969 17.0702 26.6836 17.0318C26.6636 16.9952 26.6553 16.9551 26.6553 16.9101V16.8785C26.6553 16.8218 26.6703 16.7685 26.6986 16.7202L26.7486 16.6552C26.7886 16.6168 26.8336 16.5901 26.8886 16.5751L26.9719 16.5635C27.0153 16.5635 27.0569 16.5718 27.0936 16.5901C27.1319 16.6035 27.1669 16.6252 27.1953 16.6552C27.2253 16.6835 27.2486 16.7185 27.2603 16.7568C27.2786 16.7935 27.2886 16.8351 27.2869 16.8785H27.2886Z" fill="white"/>
<path d="M20.3253 24.0391C20.3253 24.0391 20.3387 24.0391 20.3587 24.0424C20.4203 24.0474 20.482 24.0474 20.5453 24.0457H20.567C20.5953 24.0424 20.6237 24.0357 20.652 24.0274C20.682 24.0191 20.712 24.0107 20.7437 24.0007C20.7537 23.9974 20.7604 23.9957 20.7654 23.9941C20.7704 23.9907 20.7753 23.9874 20.7853 23.9824C20.8137 23.9657 20.8403 23.9507 20.867 23.9341C20.877 23.9274 20.8837 23.9241 20.887 23.9224C20.8903 23.9191 20.8953 23.9141 20.9037 23.9041C20.922 23.8857 20.9404 23.8674 20.9587 23.8474C20.962 23.8424 20.967 23.8357 20.9687 23.8341C20.9803 23.8141 20.992 23.7957 21.002 23.7741C21.002 23.7691 21.022 23.7274 21.0253 23.7224C21.032 23.6991 21.037 23.6741 21.042 23.6507C21.042 23.6507 21.042 23.6496 21.042 23.6474C21.042 23.6474 21.042 23.6391 21.0387 23.6341C21.0387 23.6174 21.0387 23.6024 21.0387 23.5874C21.0387 23.5841 21.0387 23.5791 21.0353 23.5741C21.0353 23.5707 21.017 23.5224 21.017 23.5174C20.9987 23.4791 20.977 23.4424 20.952 23.4091C20.9453 23.4041 20.917 23.3707 20.917 23.3691L20.867 23.3191C20.8503 23.3041 20.8337 23.2891 20.8153 23.2741L20.8053 23.2641C20.8053 23.2641 20.797 23.2607 20.7904 23.2557C20.742 23.2274 20.697 23.1957 20.647 23.1724C20.6404 23.1691 20.597 23.1524 20.597 23.1507C20.5787 23.1441 20.5604 23.1374 20.542 23.1324C20.5054 23.1207 20.467 23.1141 20.4303 23.1057C20.417 23.1057 20.3903 23.0991 20.3837 23.0974C20.3603 23.0974 20.337 23.0974 20.3137 23.0974C20.2687 23.0974 20.2237 23.1041 20.1787 23.1124C20.1487 23.1207 20.117 23.1307 20.087 23.1407C20.0737 23.1474 20.0487 23.1591 20.0437 23.1624C20.0203 23.1757 20.0004 23.1891 19.9787 23.2041C19.9704 23.2107 19.9503 23.2274 19.9453 23.2324C19.9303 23.2474 19.9153 23.2624 19.902 23.2791C19.902 23.2824 19.8737 23.3241 19.862 23.3441C19.862 23.3474 19.8387 23.4091 19.8387 23.4091C19.8303 23.4324 19.8253 23.4557 19.822 23.4791C19.8187 23.4941 19.817 23.5024 19.8153 23.5074V23.5357C19.8153 23.5991 19.812 23.6607 19.8153 23.7224C19.8153 23.7341 19.8153 23.7374 19.8153 23.7391C19.8153 23.7441 19.8187 23.7474 19.8187 23.7574C19.822 23.7691 19.8253 23.7807 19.827 23.7924C19.8453 23.8107 19.8653 23.8291 19.8853 23.8474C19.8887 23.8474 19.8937 23.8524 19.8987 23.8557C19.922 23.8724 19.947 23.8891 19.972 23.9041C19.997 23.9207 20.0253 23.9357 20.052 23.9491C20.052 23.9491 20.077 23.9624 20.0937 23.9707C20.107 23.9757 20.1454 23.9907 20.1454 23.9907C20.1737 24.0007 20.2037 24.0107 20.232 24.0191C20.2687 24.0291 20.307 24.0374 20.3437 24.0441C20.3353 24.0441 20.3253 24.0441 20.3253 24.0441V24.0391ZM21.5487 22.7241C22.3303 23.3474 22.657 24.5324 22.077 25.3957C21.5203 26.2257 20.5153 26.7691 19.507 26.6057C18.572 26.4524 17.7953 25.6541 17.7787 24.6924C17.762 23.8057 18.332 22.8374 19.1737 22.5024C19.9237 22.1174 20.8637 22.1774 21.5503 22.7241H21.5487ZM21.477 25.1757C21.462 25.1891 21.447 25.2041 21.4303 25.2191C21.427 25.2274 21.427 25.2341 21.4237 25.2424C21.442 25.2207 21.4604 25.1991 21.477 25.1774V25.1757Z" fill="white"/>
<path d="M20.0751 27.5973C21.7245 27.5973 23.0617 26.3198 23.0617 24.744C23.0617 23.1681 21.7245 21.8906 20.0751 21.8906C18.4256 21.8906 17.0884 23.1681 17.0884 24.744C17.0884 26.3198 18.4256 27.5973 20.0751 27.5973Z" fill="white"/>
<path d="M37.3883 23.9468C38.884 23.9468 40.0966 22.7887 40.0966 21.3601C40.0966 19.9315 38.884 18.7734 37.3883 18.7734C35.8925 18.7734 34.6799 19.9315 34.6799 21.3601C34.6799 22.7887 35.8925 23.9468 37.3883 23.9468Z" fill="white"/>
<path d="M37.5051 19.2965C37.5185 19.2932 37.5285 19.2882 37.5401 19.2832C37.6201 19.2548 37.7035 19.2698 37.7718 19.3098C38.1168 19.3532 38.4551 19.4882 38.7401 19.7182C39.4301 20.2732 39.7135 21.3248 39.2051 22.0898C38.7251 22.8132 37.8535 23.2965 36.9768 23.1765C36.1185 23.0582 35.3951 22.3448 35.3768 21.4615C35.3618 20.6698 35.8701 19.8099 36.6201 19.5115C36.8951 19.3715 37.1985 19.2982 37.5051 19.2965ZM38.3785 20.3815C38.3785 20.3648 38.3785 20.3482 38.3751 20.3315C38.3651 20.2948 38.3568 20.2615 38.3435 20.2282C38.3401 20.2198 38.3401 20.2132 38.3385 20.2048C38.2785 20.1548 38.2168 20.1115 38.1501 20.0732C37.9868 19.9815 37.8101 19.9298 37.6285 19.9182C37.6251 19.9215 37.6201 19.9215 37.6168 19.9232C37.6051 19.9265 37.5951 19.9315 37.5835 19.9365H37.5801C37.5218 19.9648 37.4635 19.9932 37.4101 20.0282C37.3985 20.0348 37.3885 20.0415 37.3768 20.0498C37.3551 20.0698 37.3335 20.0915 37.3118 20.1132L37.3085 20.1165L37.2935 20.1398C37.2868 20.1498 37.2818 20.1615 37.2751 20.1715C37.2718 20.1865 37.2668 20.2015 37.2618 20.2165C37.2618 20.2132 37.2618 20.2082 37.2618 20.2048C37.2585 20.2082 37.2585 20.2198 37.2568 20.2332C37.2568 20.2298 37.2568 20.2248 37.2601 20.2165C37.2601 20.2265 37.2568 20.2332 37.2568 20.2365C37.2568 20.2532 37.2568 20.2698 37.2601 20.2848C37.2668 20.3015 37.2751 20.3282 37.2785 20.3365C37.2818 20.3448 37.2818 20.3498 37.2835 20.3532C37.2868 20.3615 37.2918 20.3682 37.2951 20.3748C37.3068 20.3965 37.3201 20.4165 37.3335 20.4365C37.3385 20.4415 37.3718 20.4815 37.3785 20.4899C37.3901 20.4999 37.4001 20.5098 37.4118 20.5182L37.4151 20.5215C37.4451 20.5415 37.4751 20.5598 37.5068 20.5782C37.5201 20.5848 37.5351 20.5915 37.5485 20.5982C37.5518 20.5982 37.5518 20.5982 37.5568 20.6015C37.5901 20.6132 37.6251 20.6248 37.6601 20.6348C37.6951 20.6448 37.7301 20.6532 37.7668 20.6598C37.7768 20.6632 37.8368 20.6682 37.8418 20.6715C37.9118 20.6782 37.9801 20.6848 38.0501 20.6815C38.0685 20.6815 38.0868 20.6815 38.1051 20.6782C38.1085 20.6782 38.1135 20.6782 38.1185 20.6748C38.1418 20.6682 38.1618 20.6615 38.1835 20.6548C38.1901 20.6498 38.2351 20.6282 38.2435 20.6215C38.2485 20.6182 38.2518 20.6182 38.2535 20.6149C38.2618 20.6082 38.2685 20.6015 38.2768 20.5949C38.2868 20.5849 38.3185 20.5415 38.3201 20.5415C38.3285 20.5282 38.3368 20.5132 38.3435 20.4998C38.3435 20.4965 38.3635 20.4382 38.3668 20.4282C38.3668 20.4232 38.3668 20.4198 38.3701 20.4182C38.3701 20.4048 38.3701 20.3915 38.3735 20.3798L38.3785 20.3815ZM36.8851 22.5132C36.8618 22.5048 36.8418 22.4965 36.8201 22.4882C36.8118 22.4848 36.8051 22.4798 36.7968 22.4748C36.7785 22.4715 36.7635 22.4665 36.7468 22.4632C36.7918 22.4815 36.8385 22.4982 36.8851 22.5132Z" fill="#202020"/>
<path d="M20.2318 24.3139C20.2684 24.3239 20.3068 24.3322 20.3434 24.3389C20.3351 24.3389 20.3251 24.3389 20.3251 24.3389C20.3284 24.3389 20.3384 24.3389 20.3584 24.3422C20.4201 24.3472 20.4818 24.3472 20.5451 24.3455H20.5668C20.5951 24.3422 20.6234 24.3355 20.6518 24.3272C20.6818 24.3189 20.7118 24.3089 20.7434 24.3005C20.7534 24.2972 20.7601 24.2955 20.7651 24.2939C20.7701 24.2905 20.7751 24.2872 20.7851 24.2822C20.8134 24.2655 20.8401 24.2505 20.8668 24.2339C20.8768 24.2272 20.8834 24.2239 20.8868 24.2222C20.8901 24.2189 20.8951 24.2122 20.9034 24.2039C20.9218 24.1855 20.9401 24.1672 20.9584 24.1472C20.9618 24.1422 20.9668 24.1355 20.9684 24.1339C20.9801 24.1139 20.9918 24.0955 21.0018 24.0739C21.0018 24.0689 21.0218 24.0272 21.0251 24.0222C21.0318 23.9989 21.0368 23.9739 21.0418 23.9505C21.0418 23.9505 21.0418 23.9494 21.0418 23.9472C21.0418 23.9472 21.0418 23.9389 21.0384 23.9339C21.0384 23.9172 21.0384 23.9022 21.0384 23.8872C21.0384 23.8839 21.0384 23.8789 21.0351 23.8739C21.0351 23.8705 21.0168 23.8222 21.0168 23.8155C20.9984 23.7789 20.9768 23.7405 20.9518 23.7089C20.9451 23.7039 20.9168 23.6705 20.9168 23.6689L20.8668 23.6189C20.8501 23.6039 20.8334 23.5889 20.8151 23.5739L20.8051 23.5639C20.8051 23.5639 20.7968 23.5605 20.7901 23.5555C20.7418 23.5272 20.6968 23.4955 20.6468 23.4705C20.6401 23.4672 20.5968 23.4522 20.5968 23.4505C20.5784 23.4439 20.5601 23.4372 20.5418 23.4322C20.5051 23.4205 20.4668 23.4139 20.4301 23.4055C20.4168 23.4022 20.3901 23.3989 20.3834 23.3972C20.3601 23.3972 20.3368 23.3972 20.3134 23.3972C20.2684 23.3972 20.2234 23.4039 20.1784 23.4122C20.1484 23.4205 20.1168 23.4289 20.0868 23.4405C20.0751 23.4472 20.0484 23.4589 20.0434 23.4622C20.0201 23.4755 20.0001 23.4889 19.9784 23.5039C19.9701 23.5105 19.9501 23.5272 19.9451 23.5322C19.9301 23.5455 19.9151 23.5622 19.9018 23.5789C19.9018 23.5822 19.8734 23.6239 19.8618 23.6439C19.8618 23.6472 19.8384 23.7089 19.8384 23.7089C19.8301 23.7322 19.8251 23.7539 19.8218 23.7789C19.8184 23.7922 19.8168 23.8022 19.8151 23.8072V23.8355C19.8151 23.8989 19.8118 23.9605 19.8151 24.0222C19.8151 24.0339 19.8151 24.0355 19.8151 24.0372C19.8151 24.0439 19.8184 24.0472 19.8184 24.0555C19.8218 24.0689 19.8251 24.0789 19.8268 24.0922C19.8451 24.1105 19.8651 24.1289 19.8851 24.1472C19.8884 24.1472 19.8934 24.1522 19.8984 24.1555C19.9218 24.1722 19.9468 24.1889 19.9718 24.2039C19.9968 24.2205 20.0251 24.2355 20.0518 24.2489C20.0518 24.2489 20.0768 24.2622 20.0934 24.2705C20.1068 24.2755 20.1451 24.2905 20.1451 24.2905C20.1734 24.3005 20.2034 24.3105 20.2318 24.3189V24.3139ZM21.5484 23.0239C22.3301 23.6472 22.6568 24.8322 22.0768 25.6955C21.5201 26.5255 20.5151 27.0689 19.5068 26.9055C18.5718 26.7522 17.7951 25.9539 17.7784 24.9922C17.7618 24.1055 18.3318 23.1372 19.1734 22.8022C19.9234 22.4172 20.8634 22.4772 21.5501 23.0239H21.5484ZM21.4768 25.4755C21.4618 25.4889 21.4468 25.5039 21.4301 25.5189C21.4268 25.5272 21.4268 25.5339 21.4234 25.5422C21.4418 25.5205 21.4601 25.4989 21.4768 25.4772V25.4755Z" fill="#202020"/>
</svg>
