<svg width="50" height="50" viewBox="0 0 50 50" fill="none" xmlns="http://www.w3.org/2000/svg">
<path d="M45.5468 0.65332H4.42958C2.32459 0.65332 0.618164 2.35967 0.618164 4.46455V45.5797C0.618164 47.6846 2.32459 49.391 4.42958 49.391H45.5468C47.6518 49.391 49.3582 47.6846 49.3582 45.5797V4.46455C49.3582 2.35967 47.6518 0.65332 45.5468 0.65332Z" fill="#252525"/>
<path d="M36.9759 30.6389H36.9726C36.9726 30.6389 36.9726 30.6389 36.9692 30.6389H36.9609C36.9609 30.6389 36.9526 30.6389 36.9492 30.6389H36.9626C36.9493 30.6422 36.9343 30.6422 36.9259 30.6455C36.8909 30.6538 36.8593 30.6638 36.8243 30.6755C36.8109 30.6805 36.8009 30.6872 36.7893 30.6938C36.7726 30.7022 36.7576 30.7122 36.7426 30.7222C36.7343 30.7272 36.7293 30.7305 36.7259 30.7322C36.591 30.8288 36.431 30.8388 36.2977 30.7188C36.1827 30.6122 36.166 30.3739 36.2977 30.2722C36.471 30.1372 36.6543 30.0472 36.8726 30.0189C37.0609 29.9939 37.2592 30.0056 37.4359 30.0739C37.6358 30.1506 37.8058 30.2689 37.9408 30.4355C38.0108 30.5205 38.0741 30.6088 38.1391 30.6955C38.1391 30.6955 38.1391 30.6988 38.1424 30.6988C38.1558 30.7155 38.1674 30.7322 38.1808 30.7472C38.2124 30.7838 38.2458 30.8188 38.2824 30.8505C38.4141 30.9671 38.3941 31.1771 38.2824 31.2971C38.1624 31.4288 37.9608 31.4071 37.8375 31.2971C37.7058 31.1788 37.6008 31.0288 37.4975 30.8855C37.4975 30.8822 37.4942 30.8822 37.4942 30.8822C37.4809 30.8655 37.4675 30.8505 37.4559 30.8338C37.4309 30.8072 37.4059 30.7805 37.3792 30.7555C37.3792 30.7555 37.3659 30.7438 37.3559 30.7355C37.3475 30.7305 37.3425 30.7255 37.3375 30.7222C37.3109 30.7055 37.2826 30.6922 37.2542 30.6755C37.2376 30.6705 37.2226 30.6655 37.2076 30.6605C37.1776 30.6522 37.1459 30.6455 37.1159 30.6389L37.0659 30.6355C37.0343 30.6355 37.0026 30.6355 36.9709 30.6389H36.9759Z" fill="white"/>
<path d="M38.2642 5.08008C38.2642 5.08008 38.2609 5.08675 38.2576 5.08842C38.2576 5.08509 38.2609 5.08174 38.2642 5.08008Z" fill="white"/>
<path d="M38.2577 5.08789L38.2544 5.09122C38.2544 5.09122 38.2544 5.09122 38.2577 5.08789Z" fill="white"/>
<path d="M27.8348 24.3377C27.8581 24.3511 27.8814 24.3661 27.9048 24.3777C27.9081 24.3811 27.9081 24.381 27.9114 24.3827C27.9147 24.3827 27.9181 24.3827 27.9248 24.3861C27.9531 24.3927 27.9814 24.4027 28.0097 24.4094C28.0197 24.4094 28.0264 24.4127 28.0314 24.4144C28.0347 24.4144 28.0364 24.4144 28.0414 24.4144C28.0681 24.4144 28.0931 24.4177 28.1197 24.4177C28.1297 24.4177 28.1797 24.411 28.1914 24.411C28.2364 24.3994 28.283 24.3861 28.3297 24.3744C28.3297 24.3744 28.3308 24.3744 28.333 24.3744L28.363 24.3594C28.388 24.3461 28.4114 24.3344 28.4347 24.3211C28.443 24.3161 28.4947 24.2777 28.4997 24.2777C28.5147 24.2644 28.528 24.2527 28.543 24.2394C28.5897 24.1961 28.633 24.1477 28.6747 24.1011C28.678 24.0961 28.6813 24.0927 28.683 24.0911C28.6863 24.0878 28.688 24.0827 28.6913 24.0777C28.708 24.0511 28.7246 24.0261 28.7413 24.0011C28.408 23.8295 28.0681 23.6745 27.7198 23.5328L27.7164 23.5361C27.7164 23.5361 27.6798 23.5911 27.6731 23.6011C27.6698 23.6045 27.6565 23.6361 27.6498 23.6461C27.6415 23.6695 27.6331 23.6911 27.6281 23.7161C27.6248 23.7245 27.6165 23.7795 27.6148 23.7845C27.6115 23.8095 27.6115 23.8361 27.6115 23.8611C27.6115 23.8711 27.6214 23.9494 27.6198 23.9494C27.6248 23.9761 27.6298 24.0011 27.6381 24.0278C27.6414 24.0361 27.6648 24.1061 27.6648 24.1127C27.6764 24.1361 27.6881 24.1627 27.7014 24.1861C27.7114 24.2044 27.7214 24.2211 27.7331 24.2394C27.7414 24.2494 27.7464 24.2577 27.7481 24.2627V24.2661C27.7481 24.2661 27.7514 24.2727 27.7548 24.2744C27.7681 24.2911 27.7831 24.3044 27.7981 24.3177C27.8064 24.3261 27.8298 24.3411 27.8364 24.3461C27.8364 24.3461 27.8331 24.3461 27.8314 24.3461L27.8348 24.3377ZM31.846 24.906C32.2542 24.901 32.2526 25.5326 31.846 25.5376C31.296 25.5442 30.8294 25.2893 30.3845 24.9976C29.8929 25.3109 29.3846 25.6059 28.8263 25.7826C28.3397 25.9359 27.8198 25.9809 27.3198 25.8675C26.8549 25.7642 26.4349 25.5242 26.07 25.226C25.2967 24.5894 24.8701 23.6428 24.5601 22.7112C24.0802 22.6513 23.5969 22.6196 23.112 22.6179C22.7037 22.6179 22.7054 21.9863 23.112 21.9863C23.8152 21.9897 24.5168 22.0513 25.2117 22.1663C26.4349 22.3696 27.6281 22.7529 28.7463 23.2912C29.2963 23.5561 29.8295 23.8594 30.3345 24.2027C30.7878 24.5094 31.2694 24.9127 31.846 24.906ZM25.84 23.3528C25.84 23.3528 25.8433 23.3445 25.8433 23.3428L25.8317 23.3395C25.8317 23.3395 25.8367 23.3478 25.84 23.3528Z" fill="white"/>
<path d="M23.1114 22.5418C23.5963 22.5434 24.0796 22.5751 24.5612 22.6351C24.8695 23.5666 25.2961 24.5132 26.071 25.1498C26.436 25.4497 26.8576 25.6897 27.3209 25.793C27.8208 25.9047 28.3407 25.8614 28.8273 25.7064C29.3856 25.5297 29.8956 25.2348 30.3855 24.9215C30.8288 25.2131 31.2971 25.4681 31.847 25.4614C32.2519 25.4564 32.2536 24.8265 31.847 24.8298C31.2704 24.8365 30.7888 24.4349 30.3338 24.1266C29.8272 23.7833 29.2956 23.4783 28.7457 23.2133C27.6275 22.6751 26.436 22.2918 25.2111 22.0885C24.5162 21.9735 23.8146 21.9118 23.1114 21.9102C22.7047 21.9102 22.7047 22.5401 23.1114 22.5418ZM28.7424 23.9199C28.7257 23.9466 28.709 23.9716 28.6924 23.9966C28.689 24.0032 28.6857 24.0066 28.684 24.0099C28.6807 24.0133 28.679 24.0149 28.674 24.0199C28.6324 24.0682 28.5907 24.1149 28.5424 24.1582C28.5274 24.1716 28.5124 24.1832 28.4974 24.1966C28.4941 24.1966 28.4407 24.2349 28.4324 24.2399C28.4091 24.2549 28.3857 24.2682 28.3607 24.2799C28.3507 24.2849 28.3407 24.2899 28.3291 24.2949C28.3291 24.2949 28.3291 24.2949 28.3257 24.2949C28.2791 24.3066 28.2341 24.3199 28.1891 24.3315C28.1774 24.3315 28.1291 24.3382 28.1174 24.3382C28.0908 24.3382 28.0658 24.3365 28.0391 24.3365C28.0341 24.3365 28.0325 24.3365 28.0291 24.3365C28.0241 24.3365 28.0175 24.3332 28.0075 24.3315C27.9775 24.3249 27.9491 24.3149 27.9208 24.3082C27.9158 24.3082 27.9125 24.3066 27.9091 24.3049C27.9075 24.3049 27.9058 24.3032 27.9025 24.3015C27.8725 24.2849 27.8441 24.2666 27.8141 24.2499C27.8691 24.2799 27.8141 24.2499 27.7991 24.2349C27.7841 24.2199 27.7708 24.2066 27.7558 24.1899C27.7342 24.1632 27.7291 24.1582 27.7425 24.1732C27.7558 24.1882 27.7508 24.1816 27.7325 24.1549C27.7208 24.1382 27.7108 24.1199 27.7008 24.1016C27.6875 24.0782 27.6758 24.0532 27.6642 24.0282C27.6642 24.0232 27.6392 23.9533 27.6375 23.9449C27.6308 23.9183 27.6242 23.8916 27.6192 23.8649C27.6225 23.8783 27.6125 23.7899 27.6108 23.7783C27.6108 23.7533 27.6108 23.7266 27.6142 23.7016C27.6158 23.6966 27.6242 23.6433 27.6258 23.6333C27.6325 23.61 27.6408 23.5866 27.6492 23.5633C27.6542 23.5533 27.6692 23.5233 27.6708 23.5183C27.6758 23.5083 27.7175 23.4533 27.7142 23.455L27.7175 23.4516C28.0641 23.5916 28.4057 23.7483 28.739 23.9183L28.7424 23.9199ZM25.8444 23.2667C25.8444 23.2667 25.841 23.2733 25.8394 23.2767C25.8377 23.2717 25.8344 23.2683 25.8327 23.2633C25.836 23.2633 25.841 23.265 25.8444 23.2667Z" fill="white"/>
<mask id="mask0_8375_32439" style="mask-type:luminance" maskUnits="userSpaceOnUse" x="22" y="21" width="11" height="5">
<path d="M23.1111 22.5408C23.5961 22.5424 24.0793 22.5741 24.5609 22.6341C24.8692 23.5657 25.2959 24.5122 26.0708 25.1488C26.4357 25.4488 26.8573 25.6887 27.3206 25.7921C27.8206 25.9037 28.3405 25.8604 28.8271 25.7054C29.3854 25.5288 29.8953 25.2338 30.3853 24.9205C30.8285 25.2121 31.2968 25.4671 31.8468 25.4604C32.2517 25.4554 32.2534 24.8255 31.8468 24.8288C31.2702 24.8355 30.7885 24.4339 30.3336 24.1256C29.827 23.7823 29.2954 23.4773 28.7454 23.2124C27.6272 22.6741 26.4357 22.2908 25.2109 22.0875C24.5159 21.9725 23.8144 21.9108 23.1111 21.9092C22.7045 21.9092 22.7045 22.5391 23.1111 22.5408ZM28.7421 23.919C28.7254 23.9456 28.7088 23.9706 28.6921 23.9956C28.6888 24.0023 28.6855 24.0056 28.6838 24.0089C28.6805 24.0123 28.6788 24.0139 28.6738 24.0189C28.6321 24.0673 28.5905 24.1139 28.5421 24.1573C28.5271 24.1706 28.5121 24.1823 28.4971 24.1956C28.4938 24.1956 28.4405 24.2339 28.4322 24.2389C28.4088 24.2539 28.3855 24.2672 28.3605 24.2789C28.3505 24.2839 28.3405 24.2889 28.3288 24.2939C28.3288 24.2939 28.3288 24.2939 28.3255 24.2939C28.2788 24.3056 28.2338 24.3189 28.1889 24.3306C28.1772 24.3306 28.1289 24.3372 28.1172 24.3372C28.0905 24.3372 28.0655 24.3356 28.0389 24.3356C28.0339 24.3356 28.0322 24.3356 28.0289 24.3356C28.0239 24.3356 28.0172 24.3322 28.0072 24.3306C27.9772 24.3239 27.9489 24.3139 27.9206 24.3072C27.9156 24.3072 27.9122 24.3056 27.9089 24.3039C27.9072 24.3039 27.9056 24.3022 27.9022 24.3006C27.8722 24.2839 27.8439 24.2656 27.8139 24.2489C27.8689 24.2789 27.8139 24.2489 27.7989 24.2339C27.7839 24.2189 27.7706 24.2056 27.7556 24.1889C27.7339 24.1623 27.7289 24.1573 27.7422 24.1723C27.7556 24.1872 27.7506 24.1806 27.7322 24.1539C27.7206 24.1373 27.7106 24.1189 27.7006 24.1006C27.6872 24.0773 27.6756 24.0523 27.6639 24.0273C27.6639 24.0223 27.6389 23.9523 27.6372 23.9439C27.6306 23.9173 27.6239 23.8906 27.6189 23.864C27.6222 23.8773 27.6123 23.789 27.6106 23.7773C27.6106 23.7523 27.6106 23.7256 27.6139 23.7006C27.6156 23.6956 27.6239 23.6423 27.6256 23.6323C27.6322 23.609 27.6406 23.5857 27.6489 23.5623C27.6539 23.5523 27.6689 23.5223 27.6706 23.5173C27.6756 23.5073 27.7172 23.4523 27.7139 23.454L27.7172 23.4507C28.0639 23.5907 28.4055 23.7473 28.7388 23.9173L28.7421 23.919ZM25.8441 23.2657C25.8441 23.2657 25.8408 23.2724 25.8391 23.2757C25.8375 23.2707 25.8341 23.2674 25.8325 23.2624C25.8358 23.2624 25.8408 23.264 25.8441 23.2657Z" fill="white"/>
</mask>
<g mask="url(#mask0_8375_32439)">
<path d="M25.2329 22.7998C25.2329 22.7998 27.0094 23.1498 27.7176 23.4564C28.4259 23.763 28.7425 23.9197 28.7425 23.9197L29.9507 24.5713C29.9507 24.5713 28.6642 25.9978 27.0127 25.1945C25.3612 24.3913 25.2346 22.7998 25.2346 22.7998H25.2329Z" fill="#252525"/>
</g>
<path d="M27.723 23.3906L28.7429 23.9189C28.7429 23.9189 28.458 24.5188 27.9063 24.3022C27.3547 24.0855 27.7247 23.3906 27.7247 23.3906H27.723Z" fill="#F9F8F4"/>
<path d="M46.1086 0H3.89141C1.74656 0 0 1.7448 0 3.89122V46.1063C0 48.2527 1.74656 49.9975 3.89141 49.9975H7.16119C7.18953 50.0008 7.21619 50.0008 7.24285 49.9975H46.1086C48.2551 49.9975 50 48.2527 50 46.1063V3.89122C50 1.7448 48.2551 0 46.1086 0ZM6.83621 28.4133C7.44951 28.2434 8.06279 28.0734 8.67609 27.9034C8.61442 28.1184 8.55444 28.3367 8.49611 28.555C8.32778 29.2016 8.18113 29.8549 8.0478 30.5114C7.57783 29.8532 7.17119 29.1499 6.83455 28.415L6.83621 28.4133ZM17.2655 44.7614C17.2855 44.7348 17.3022 44.7064 17.3138 44.6698C17.3022 44.7048 17.2838 44.7348 17.2655 44.7614ZM20.2503 39.5154C19.582 40.1803 19.1171 41.0252 18.9071 41.9451C18.7038 42.84 18.9321 43.9082 18.3521 44.6865C18.2454 44.8298 18.0838 44.8848 17.9205 44.7998C17.1905 44.4198 16.4672 44.0299 15.7489 43.6299C13.2158 42.2151 10.7576 40.6652 8.38611 38.9921C8.24612 38.8938 8.18112 38.7188 8.27278 38.5605C8.35278 38.4222 8.56444 38.3489 8.70443 38.4472C9.37605 38.9205 10.0543 39.3854 10.7393 39.8404C13.0708 41.3852 15.4806 42.8083 17.9571 44.1082C18.1005 43.7882 18.1288 43.4299 18.1471 43.075C18.1721 42.5867 18.2105 42.1051 18.3338 41.6301C18.5838 40.6653 19.0971 39.7737 19.802 39.0721C20.0903 38.7855 20.537 39.2321 20.2486 39.5187L20.2503 39.5154ZM29.9597 38.3672C29.468 39.6454 29.5497 41.0652 29.6614 42.4017C29.7963 43.9999 29.8013 45.6113 29.8513 47.2145C29.8713 47.8794 29.8847 48.546 29.9297 49.2126C29.793 49.2143 29.6564 49.2176 29.5214 49.2209C28.9447 49.2293 28.3698 49.2326 27.7948 49.2359C27.4215 49.2393 27.0482 49.2392 26.6732 49.2409C26.8216 48.3594 26.9232 47.4711 26.9715 46.5779C26.9949 46.1329 27.0115 45.6863 27.0049 45.2414C26.9982 44.8448 26.9149 44.4548 26.6232 44.1648C26.1183 43.6616 25.3683 43.6632 24.7084 43.6132C24.4 43.5899 24.0551 43.5449 23.8051 43.3466C23.5518 43.145 23.4618 42.8033 23.3968 42.5C23.2118 41.6301 23.0851 40.7436 22.9318 39.867C22.8518 39.4154 22.7735 38.9621 22.6935 38.5088C22.6385 38.2005 22.5502 37.8822 22.3685 37.6206C22.1818 37.3523 21.8985 37.1523 21.5569 37.1857C21.5036 37.1907 21.4536 37.2007 21.4036 37.214C18.9204 36.9857 16.4372 36.4358 14.1607 35.3975C12.0642 34.4426 10.1577 33.0795 8.66776 31.313C8.62943 31.268 8.59276 31.2214 8.5561 31.1747C8.82108 29.7849 9.13939 28.4 9.5977 27.0618C9.95601 26.0136 10.406 24.9871 11.0443 24.0755C11.3209 23.6839 11.6509 23.3056 12.0242 22.9723C12.9008 23.4006 13.7691 23.8822 14.494 24.5255C14.9457 24.9288 15.359 25.4137 15.5373 26.002C15.7039 26.5552 15.6323 27.1468 15.3506 27.6501C15.0357 28.21 14.5057 28.6 13.8674 28.6967C13.2391 28.7916 12.5642 28.5983 12.0959 28.1684C12.0475 28.1234 11.9959 28.1001 11.9425 28.0901C11.7109 27.9484 11.3426 28.2217 11.5076 28.5233C12.4392 30.2398 13.7957 31.703 15.399 32.8112C16.9889 33.9127 18.8387 34.6643 20.752 34.9526C21.8085 35.1109 22.8551 35.1159 23.9184 35.0226C25.1467 34.9159 26.3599 34.7893 27.5898 34.9426C28.7298 35.0859 29.8463 35.4275 30.8763 35.9341C31.1113 36.0491 31.3413 36.1708 31.5729 36.2958C30.823 36.7707 30.2813 37.5289 29.958 38.3672H29.9597ZM28.4981 34.4576C27.3265 34.2193 26.1483 34.196 24.96 34.2977C23.8567 34.3927 22.7635 34.5126 21.6569 34.426C19.7904 34.2777 17.9705 33.6577 16.3722 32.6895C14.9073 31.803 13.6224 30.6114 12.6575 29.1966C13.5658 29.4932 14.609 29.3299 15.3456 28.6633C15.8306 28.225 16.1456 27.6034 16.2323 26.9569C16.3256 26.2736 16.1389 25.597 15.7673 25.0221C15.0357 23.8939 13.7808 23.164 12.6125 22.5624C11.4759 21.9774 10.2876 21.5008 9.14773 20.9209C8.0278 20.3526 6.93288 19.6677 6.1196 18.7012C7.48617 18.6912 8.83108 19.0211 10.1977 19.0628C11.5209 19.1044 12.8842 18.8545 13.9074 17.9579C14.3507 17.5713 14.694 17.083 14.9307 16.5464C15.079 16.8297 15.2123 17.1163 15.3273 17.413C15.3906 17.5713 15.539 17.6813 15.7156 17.6329C15.749 17.6246 15.7823 17.6063 15.8123 17.5846C16.3539 17.6763 16.9189 17.5796 17.4355 17.4113C17.9371 17.248 18.4154 17.0097 18.8454 16.703C19.7237 16.0781 20.407 15.2216 20.8203 14.2283C21.0469 13.6834 21.1753 13.1035 21.2069 12.5152C24.0251 12.3269 26.5016 13.9784 28.7614 15.4482C29.9747 16.2381 31.2013 16.9747 32.5295 17.5579C33.8211 18.1262 35.1593 18.6162 36.5559 18.8495C37.5042 19.0078 38.4624 19.0411 39.409 18.9378C39.424 18.9378 39.4407 18.9411 39.4574 18.9378C39.614 18.9195 39.769 18.8945 39.9223 18.8678C40.1673 18.8278 40.4123 18.7778 40.6556 18.7195C40.7223 19.2528 40.7906 19.7877 40.8239 20.3243C40.8689 21.0459 40.8706 21.7708 40.8473 22.4924C40.7006 22.3007 40.554 22.1074 40.4073 21.9141C40.304 21.7791 40.134 21.7091 39.9757 21.8025C39.8423 21.8808 39.759 22.0974 39.8624 22.2341C40.2823 22.784 40.7023 23.3339 41.1223 23.8839C41.5189 24.4038 41.8972 24.9471 42.3255 25.4404C42.7321 25.9053 43.2271 26.1719 43.8054 26.3636C44.2804 26.5219 44.8004 26.6419 45.1737 26.9968C45.487 27.2935 45.6853 27.6984 45.7486 28.1217C45.8186 28.605 45.6836 29.0249 45.4386 29.4366C45.2786 29.7049 45.1287 29.9765 45.067 30.2865C45.0037 30.5964 45.0037 30.9081 45.042 31.2197C45.117 31.8263 45.307 32.4129 45.377 33.0211C45.5286 34.356 45.2953 35.7242 44.687 36.924C41.2056 36.9207 37.7591 35.9908 34.686 34.366C33.9094 33.9544 33.1528 33.4994 32.4262 33.0045C31.7196 32.5245 31.0363 32.0096 30.3246 31.538C29.6047 31.063 28.8564 30.6331 28.0465 30.3298C27.2632 30.0365 26.4416 29.9132 25.6066 29.8715C23.9251 29.7865 22.0185 30.0448 20.5686 28.9966C20.4303 28.8966 20.217 28.9733 20.137 29.1099C20.0437 29.2682 20.112 29.4416 20.2503 29.5416C21.5936 30.5131 23.3235 30.4481 24.9033 30.4798C25.6933 30.4948 26.4882 30.5298 27.2549 30.7364C28.0781 30.9581 28.8364 31.348 29.558 31.7946C30.283 32.2462 30.9713 32.7545 31.6696 33.2461C32.3995 33.7577 33.1511 34.241 33.9311 34.6743C35.4926 35.5425 37.1559 36.2391 38.8757 36.729C39.3257 36.8574 39.7774 36.9707 40.234 37.069C39.5607 37.3373 38.8241 37.399 38.0925 37.384C37.5775 37.3723 37.0642 37.324 36.5526 37.2673C35.9659 37.2023 35.3777 37.139 34.801 37.009C34.0211 36.8324 33.3095 36.4991 32.6095 36.1341C32.5495 36.0141 32.4095 35.9308 32.2779 35.9575C32.0895 35.8575 31.9029 35.7558 31.7146 35.6558C30.6946 35.1159 29.628 34.6876 28.4948 34.4576H28.4981ZM14.4774 12.7985C14.6057 12.9268 14.7924 12.9085 14.924 12.7985C15.564 12.2586 16.0589 11.552 16.3606 10.7721C17.0555 10.9471 17.7371 11.177 18.3938 11.4603C18.4554 11.487 18.5171 11.517 18.5788 11.5453C18.2521 12.5219 17.7005 13.4068 16.9655 14.13C16.6756 14.415 17.1222 14.8616 17.4122 14.5766C18.1971 13.8067 18.7921 12.8585 19.1537 11.822C19.6404 12.0703 20.112 12.3436 20.5653 12.6485C20.4153 14.4233 19.1687 16.0848 17.5038 16.7231C16.9755 16.9264 16.3722 17.0763 15.8106 16.9397C14.8573 14.7449 13.1791 12.9868 11.3443 11.4837C10.9909 11.1954 10.6293 10.9154 10.266 10.6388C12.0625 10.2638 13.9391 10.2671 15.739 10.6321C15.4656 11.2953 15.0357 11.8836 14.4807 12.3536C14.3507 12.4635 14.3674 12.6869 14.4807 12.8002L14.4774 12.7985ZM49.3684 46.1063C49.3684 47.9061 47.9085 49.3659 46.1086 49.3659H33.8744C34.2877 48.6676 34.6727 47.9511 35.0277 47.2211C35.361 46.5329 35.7493 45.773 35.5676 44.9864C35.4976 44.6798 35.3343 44.3782 35.096 44.1698C34.9743 44.0632 34.8393 43.9849 34.6877 43.9282C34.5177 43.8682 34.3377 43.8632 34.1627 43.8216C33.9527 43.7716 33.8961 43.6382 33.8994 43.4633C33.8344 43.4066 33.7911 43.3316 33.7911 43.2333C33.7861 42.1667 34.0627 41.1135 34.5877 40.1853C34.7877 39.832 35.3326 40.1503 35.1327 40.5036C34.791 41.1069 34.571 41.7635 34.476 42.445C35.4526 42.5284 36.4276 42.6117 37.4058 42.6967C37.6692 42.72 37.9808 42.7933 38.1824 42.57C38.3874 42.3451 38.2691 42.0318 38.0858 41.8368C37.9008 41.6418 37.6792 41.4702 37.4792 41.2885C37.2725 41.1019 37.0659 40.9152 36.8575 40.7286C36.3826 40.3003 33.3178 37.4223 32.1778 36.6724C32.1962 36.6641 32.2162 36.6541 32.2362 36.6457C32.7945 36.9424 33.3578 37.224 33.9577 37.4273C34.5527 37.6273 35.171 37.7289 35.7893 37.8089C36.3426 37.8789 36.8975 37.9406 37.4525 37.9822C38.5008 38.0589 39.594 38.0356 40.5756 37.6156C40.8056 37.5173 41.0223 37.4006 41.2272 37.259C42.4138 37.459 43.6171 37.5623 44.8204 37.5556C44.9537 37.5556 45.042 37.4856 45.087 37.3923C45.142 37.369 45.192 37.3256 45.227 37.254C45.7953 36.1358 46.0869 34.8826 46.0519 33.6261C46.0336 32.9778 45.9036 32.3546 45.7686 31.723C45.647 31.1564 45.5486 30.5498 45.8336 30.0165C45.9769 29.7465 46.1486 29.4999 46.2569 29.2116C46.3469 28.975 46.3886 28.7166 46.3969 28.4633C46.4119 27.9634 46.2703 27.4485 46.0053 27.0268C45.7086 26.5536 45.2836 26.2403 44.772 26.0303C44.257 25.8203 43.6871 25.727 43.2188 25.412C42.9538 25.2337 42.7438 24.9737 42.5505 24.7238C42.2722 24.3655 42.0005 24.0022 41.7239 23.6422C41.6489 23.4089 41.5422 23.0773 41.4656 22.8423C41.5006 22.0041 41.5072 21.1642 41.4539 20.326C41.4156 19.7427 41.3406 19.1644 41.2672 18.5845C41.2672 18.5728 41.2639 18.5612 41.2606 18.5512C41.2672 18.5512 41.2739 18.5478 41.2789 18.5462C41.3689 18.5178 41.4272 18.4612 41.4622 18.3945C41.8722 18.2129 42.2672 17.9912 42.6422 17.7246C43.0688 17.4213 43.4688 17.083 43.8571 16.7347C44.2854 16.3481 44.7137 15.9615 45.087 15.5182C45.8919 14.5633 46.4869 13.4584 46.9335 12.2952C47.4252 11.0121 47.7785 9.63555 47.5902 8.25571C47.4218 7.03085 46.9169 5.85266 46.1119 4.9111C45.342 4.00954 44.2937 3.27462 43.1388 2.97132C41.4522 2.52637 39.6307 3.04965 38.3058 4.14785C38.0875 4.32783 37.8891 4.52947 37.7208 4.75778C37.3592 5.24439 37.1775 5.84099 37.1209 6.43925C37.0842 6.81254 37.1075 7.18249 37.1775 7.54079C37.2492 7.91074 37.4425 8.24904 37.7325 8.48901C38.2858 8.94562 38.9657 9.20726 39.7273 9.06228C40.3756 8.93896 40.9456 8.48568 41.1506 7.84742C41.2423 7.56079 41.2689 7.18916 41.0123 6.97752C40.8423 6.83753 40.5723 6.8692 40.5273 7.10751C40.4956 7.27582 40.294 7.37081 40.139 7.32748C39.9657 7.27916 39.8873 7.10584 39.919 6.93919C40.0157 6.43925 40.5856 6.15262 41.0556 6.29594C41.5672 6.45092 41.8572 6.98086 41.8489 7.49413C41.8322 8.41236 41.1306 9.22559 40.304 9.55222C39.464 9.88385 38.4608 9.7172 37.7058 9.25059C36.9442 8.78064 36.4342 8.10072 36.0743 7.33081C35.9426 7.05084 35.7809 6.78588 35.5776 6.55257C35.556 6.52757 35.536 6.50424 35.5143 6.47924C33.3828 4.07119 30.6446 2.08642 27.5232 1.20486C26.4766 0.909891 25.3966 0.744918 24.315 0.744918C23.8601 0.744918 23.4034 0.773245 22.9468 0.834904C21.4002 1.03988 19.9087 1.56315 18.5621 2.35139C17.1889 3.15463 15.9673 4.22617 14.9857 5.47769C14.1574 6.53424 13.3275 7.83908 13.7358 9.23559C13.7891 9.41556 13.8574 9.58721 13.9374 9.75719C13.3108 9.71553 12.6808 9.7122 12.0542 9.75387C11.2242 9.81053 10.3993 9.93884 9.59102 10.1421C9.4577 10.0922 9.28439 10.1672 9.21439 10.2855C9.15106 10.3938 9.16439 10.5054 9.22105 10.5988C9.25605 10.6954 9.33271 10.7737 9.43604 10.7971C11.2909 12.1769 13.1325 13.6934 14.404 15.6465C14.459 15.7298 14.5074 15.8132 14.559 15.8981C14.509 15.9381 14.4707 15.9931 14.449 16.0565C14.0691 17.1447 13.1591 17.9379 12.0592 18.2429C10.7959 18.5945 9.46437 18.3962 8.18779 18.2312C7.37284 18.1262 6.55456 18.0329 5.73129 18.0812C5.5663 18.0912 5.46964 18.2029 5.43797 18.3279C5.31965 18.4178 5.25299 18.6128 5.34965 18.7411C6.83122 20.7342 9.18272 21.6325 11.3559 22.6507C11.3742 22.659 11.3926 22.669 11.4109 22.6757C10.7509 23.3139 10.2293 24.0905 9.81435 24.9054C9.43771 25.6453 9.13605 26.4203 8.88274 27.2102C8.80108 27.2035 8.69942 27.2202 8.59109 27.3435C8.03279 27.9867 7.17119 28.245 6.35124 28.0151C6.03959 27.9284 5.87461 28.0034 5.80128 28.1267C4.38471 28.9066 3.34645 30.3431 3.06647 31.9379C3.0548 32.0046 3.05979 32.0729 3.08146 32.1329C3.03313 32.2079 3.01647 32.3012 3.03313 32.3962C3.27978 33.6861 4.11473 34.7509 4.97301 35.7042C5.62463 36.4274 6.28959 37.1407 6.96287 37.8472C6.76955 39.767 6.64622 41.6935 6.60456 43.6232C6.5729 45.0997 6.5829 46.5812 6.69289 48.0561C6.72622 48.4943 6.76789 48.931 6.82788 49.3642H3.88474C2.08319 49.3642 0.624958 47.9044 0.624958 46.1046V3.88955C0.624958 2.08976 2.08486 0.629931 3.88474 0.629931H46.1019C47.9018 0.629931 49.3617 2.08976 49.3617 3.88955V46.1063H49.3684ZM37.6508 42.2951C37.6592 42.3217 37.6908 42.3251 37.6508 42.2951V42.2951Z" fill="#F9F8F4"/>
</svg>
