<svg width="50" height="50" viewBox="0 0 50 50" fill="none" xmlns="http://www.w3.org/2000/svg">
<path d="M45.5468 0.75H4.42958C2.32459 0.75 0.618164 2.45634 0.618164 4.56122V45.6764C0.618164 47.7813 2.32459 49.4876 4.42958 49.4876H45.5468C47.6518 49.4876 49.3582 47.7813 49.3582 45.6764V4.56122C49.3582 2.45634 47.6518 0.75 45.5468 0.75Z" fill="#252525"/>
<path d="M43.3351 35.853C43.795 36.0429 44.1233 36.4512 44.26 36.9212C42.0752 36.8712 39.9088 36.4596 37.8474 35.743C38.4923 35.0631 39.5172 34.8464 40.3954 35.1847C40.6221 35.2714 40.8454 35.4014 41.032 35.5597C41.2603 35.7546 41.462 36.0229 41.8003 35.963C41.9219 35.9413 42.0286 35.8763 42.1436 35.8346C42.2736 35.788 42.4085 35.7547 42.5452 35.7413C42.8135 35.7163 43.0868 35.7513 43.3368 35.8546L43.3351 35.853Z" fill="white"/>
<path d="M36.9757 30.6379H36.9723H36.969H36.9607C36.9607 30.6379 36.9523 30.6379 36.949 30.6379H36.9623C36.949 30.6412 36.934 30.6412 36.9257 30.6445C36.8907 30.6529 36.859 30.6629 36.824 30.6745C36.8107 30.6795 36.8007 30.6862 36.789 30.6929C36.7724 30.7012 36.7574 30.7112 36.7424 30.7212C36.7307 30.7295 36.724 30.7345 36.7207 30.7345L36.7257 30.7295C36.7257 30.7295 36.7357 30.7212 36.744 30.7162C36.7374 30.7212 36.7324 30.7245 36.7257 30.7295C36.5907 30.8262 36.4307 30.8378 36.2974 30.7162C36.1824 30.6112 36.1658 30.3729 36.2974 30.2712C36.4707 30.1363 36.654 30.0463 36.8724 30.0179C37.0607 29.9929 37.259 30.0046 37.4356 30.0729C37.6356 30.1496 37.8056 30.2679 37.9406 30.4346C38.0106 30.5196 38.0739 30.6079 38.1389 30.6945C38.1389 30.6945 38.1389 30.6979 38.1422 30.6979C38.1555 30.7145 38.1672 30.7312 38.1805 30.7462C38.2122 30.7829 38.2455 30.8178 38.2822 30.8495C38.4138 30.9662 38.3938 31.1761 38.2822 31.2961C38.1622 31.4278 37.9606 31.4061 37.8372 31.2961C37.7056 31.1778 37.6006 31.0278 37.4973 30.8845C37.4973 30.8812 37.494 30.8812 37.494 30.8812C37.4806 30.8645 37.4673 30.8495 37.4556 30.8328C37.4306 30.8062 37.4056 30.7795 37.379 30.7545C37.379 30.7545 37.3656 30.7429 37.3556 30.7345C37.3473 30.7295 37.3423 30.7245 37.3373 30.7212C37.3106 30.7045 37.2823 30.6912 37.254 30.6745C37.2373 30.6695 37.2223 30.6645 37.2073 30.6595C37.1773 30.6512 37.1457 30.6445 37.1157 30.6379L37.0657 30.6345C37.034 30.6345 37.0023 30.6345 36.9707 30.6379H36.9757Z" fill="white"/>
<path d="M31.9878 43.3567C32.0062 43.8833 31.7612 44.3932 31.4079 44.7699C30.7713 45.4464 29.7514 45.7597 28.8515 45.5048C27.9966 45.2631 27.3234 44.4499 27.24 43.5617C27.1867 43.0017 27.3717 42.4851 27.7 42.0335C27.87 41.8002 28.0833 41.5935 28.3049 41.4086C28.3766 41.3486 28.4532 41.2903 28.5349 41.2369C28.5949 41.2403 28.6532 41.2286 28.7032 41.1936C28.7932 41.1319 28.8882 41.0836 28.9865 41.0436C29.0198 41.0386 29.0515 41.0336 29.0848 41.032C29.1648 41.0286 29.2282 40.9986 29.2765 40.957C29.5548 40.9053 29.8447 40.9253 30.1264 41.0103C30.6113 41.1586 31.0196 41.5069 31.3279 41.9019C31.6379 42.3035 31.9695 42.8351 31.9895 43.355L31.9878 43.3567Z" fill="white"/>
<path d="M27.8345 24.3374C27.8579 24.3507 27.8812 24.3657 27.9045 24.3774C27.9079 24.3807 27.9079 24.3807 27.9112 24.3807C27.9145 24.3807 27.9178 24.3807 27.9245 24.384C27.9528 24.3923 27.9812 24.4024 28.0095 24.4073C28.0195 24.4073 28.0262 24.4107 28.0312 24.4123C28.0345 24.4123 28.0362 24.4123 28.0412 24.4123C28.0678 24.4123 28.0928 24.4157 28.1195 24.4157C28.1295 24.4157 28.1795 24.409 28.1912 24.409C28.2362 24.3974 28.2828 24.384 28.3295 24.3724C28.3295 24.3724 28.3306 24.3724 28.3328 24.3724L28.3628 24.3574C28.3878 24.344 28.4111 24.3324 28.4345 24.3174C28.4428 24.314 28.4944 24.2757 28.4994 24.274C28.5128 24.2607 28.5278 24.249 28.5428 24.2357C28.5894 24.1924 28.6328 24.144 28.6744 24.0974C28.6778 24.0924 28.6811 24.0891 28.6828 24.0874C28.6861 24.0841 28.6878 24.0791 28.6911 24.0741C28.7078 24.0474 28.7244 24.0224 28.7411 23.9974C28.4078 23.8257 28.0678 23.6708 27.7195 23.5291L27.7162 23.5325C27.7162 23.5325 27.6796 23.5874 27.6729 23.5974C27.6696 23.6008 27.6562 23.6324 27.6496 23.6408C27.6412 23.6641 27.6329 23.6874 27.6279 23.7108C27.6246 23.7191 27.6162 23.7741 27.6146 23.7791C27.6112 23.8041 27.6112 23.8291 27.6112 23.8557C27.6112 23.8657 27.6212 23.9441 27.6196 23.9441C27.6246 23.9707 27.6296 23.9957 27.6379 24.0224C27.6412 24.0307 27.6645 24.1007 27.6645 24.1074C27.6762 24.1307 27.6879 24.1574 27.7012 24.1807C27.7112 24.199 27.7212 24.2157 27.7329 24.234C27.7412 24.2474 27.7462 24.254 27.7495 24.2574C27.7495 24.2574 27.7495 24.2574 27.7529 24.2607C27.7529 24.264 27.7562 24.2657 27.7595 24.269C27.7729 24.284 27.7879 24.299 27.8029 24.3124C27.8112 24.3207 27.8345 24.3357 27.8412 24.3407C27.8412 24.3407 27.8379 24.3407 27.8362 24.3407L27.8345 24.3374ZM31.8457 24.9056C32.254 24.9006 32.2523 25.5322 31.8457 25.5372C31.2958 25.5439 30.8292 25.2889 30.3842 24.9973C29.8926 25.3106 29.3843 25.6055 28.8261 25.7822C28.3395 25.9355 27.8195 25.9805 27.3196 25.8672C26.8546 25.7639 26.4347 25.5239 26.0697 25.2256C25.2965 24.589 24.8699 23.6424 24.5599 22.7109C24.08 22.6509 23.5967 22.6192 23.1117 22.6176C22.7035 22.6176 22.7051 21.986 23.1117 21.986C23.38 21.986 23.65 21.9993 23.9183 22.0176C23.7083 21.8376 23.5267 21.626 23.3767 21.391C22.8134 20.5078 22.8234 19.3513 23.3684 18.4614C23.58 18.1164 24.125 18.433 23.9117 18.7813C23.4684 19.5046 23.4784 20.4061 23.9466 21.1144C24.3033 21.6493 24.8449 21.9076 25.4281 22.076C24.6882 21.1611 24.3499 19.9062 25.0532 18.8913C25.1498 18.7513 25.3265 18.6863 25.4848 18.7797C25.6231 18.8597 25.6948 19.0713 25.5965 19.2113C24.7516 20.4311 25.8598 22.0076 27.0063 22.5409C27.0496 22.5626 27.083 22.5959 27.1079 22.6342C27.6662 22.8175 28.2145 23.0358 28.7444 23.2908C29.2944 23.5558 29.8276 23.8591 30.3326 24.2024C30.7858 24.509 31.2675 24.9123 31.8441 24.9056H31.8457ZM25.8398 23.3525C25.8398 23.3525 25.8431 23.3441 25.8431 23.3425L25.8314 23.3391C25.8314 23.3391 25.8364 23.3475 25.8398 23.3525Z" fill="white"/>
<path d="M26.6146 43.7498C26.6346 44.2764 26.3896 44.7864 26.0346 45.163C25.3981 45.8412 24.3798 46.1529 23.4799 45.8979C22.625 45.6563 21.9501 44.843 21.8685 43.9565C21.8151 43.3949 22.0001 42.8783 22.3284 42.4266C22.4984 42.1933 22.71 41.9867 22.9333 41.8017C23.005 41.7417 23.0817 41.6834 23.1633 41.6301C23.2233 41.6334 23.2816 41.6217 23.3316 41.5867C23.4216 41.5251 23.5166 41.4768 23.6133 41.4368C23.6466 41.4318 23.6799 41.4268 23.7132 41.4251C23.7932 41.4218 23.8566 41.3934 23.9049 41.3518C24.1832 41.2984 24.4732 41.3184 24.7531 41.4034C25.2397 41.5517 25.6464 41.9 25.9547 42.295C26.2663 42.6966 26.5962 43.2282 26.6162 43.7482L26.6146 43.7498Z" fill="white"/>
<path d="M20.7301 43.7498C20.75 44.2764 20.5034 44.7864 20.1501 45.163C19.5135 45.8412 18.4953 46.1529 17.5938 45.8979C16.7389 45.6563 16.0656 44.843 15.9823 43.9565C15.9306 43.3949 16.1139 42.8783 16.4422 42.4266C16.6122 42.1933 16.8238 41.9867 17.0472 41.8017C17.1188 41.7417 17.1955 41.6834 17.2771 41.6301C17.3371 41.6334 17.3954 41.6217 17.4454 41.5867C17.5354 41.5251 17.6304 41.4768 17.7271 41.4368C17.7604 41.4318 17.7921 41.4268 17.8271 41.4251C17.9071 41.4218 17.9704 41.3934 18.0187 41.3518C18.2953 41.2984 18.587 41.3184 18.8669 41.4034C19.3535 41.5517 19.7602 41.9 20.0685 42.295C20.3801 42.6966 20.7101 43.2282 20.7301 43.7482V43.7498Z" fill="white"/>
<path d="M15.317 43.3567C15.337 43.8833 15.092 44.3932 14.737 44.7699C14.1004 45.4464 13.0822 45.7597 12.1823 45.5048C11.3274 45.2631 10.6542 44.4499 10.5709 43.5617C10.5175 43.0017 10.7025 42.4851 11.0308 42.0335C11.2008 41.8002 11.4124 41.5935 11.6357 41.4086C11.7074 41.3486 11.7841 41.2903 11.8657 41.2369C11.9257 41.2403 11.984 41.2286 12.034 41.1936C12.124 41.1319 12.219 41.0836 12.3173 41.0436C12.3507 41.0386 12.3823 41.0336 12.4156 41.032C12.4956 41.0286 12.559 40.9986 12.6073 40.957C12.8856 40.9053 13.1756 40.9253 13.4555 41.0103C13.9421 41.1586 14.3504 41.5069 14.6587 41.9019C14.9687 42.3035 15.3003 42.8351 15.3203 43.355L15.317 43.3567Z" fill="white"/>
<path d="M9.82429 42.3984C9.84429 42.925 9.59932 43.4333 9.24436 43.8116C8.60777 44.4882 7.58955 44.8015 6.68799 44.5465C5.83309 44.3049 5.15984 43.4933 5.07651 42.6051C5.02485 42.0451 5.20817 41.5269 5.53646 41.0769C5.70644 40.8436 5.91808 40.637 6.14139 40.4503C6.21305 40.3903 6.28971 40.3337 6.37136 40.2787C6.43136 40.2837 6.48969 40.2703 6.53968 40.2354C6.62967 40.1737 6.72465 40.1254 6.8213 40.0854C6.85463 40.0804 6.8863 40.0754 6.9213 40.0737C7.00129 40.0704 7.06461 40.0404 7.11294 39.9987C7.39124 39.9454 7.68121 39.9671 7.96118 40.052C8.44779 40.2004 8.85441 40.5486 9.16271 40.9436C9.47434 41.3436 9.80429 41.8768 9.82429 42.3968V42.3984Z" fill="white"/>
<path d="M23.1118 22.7058C23.5968 22.7075 24.0801 22.7391 24.5617 22.7991C24.87 23.7307 25.2966 24.6772 26.0715 25.3138C26.4365 25.6138 26.8581 25.8538 27.3214 25.9571C27.8213 26.0688 28.3412 26.0254 28.8279 25.8704C29.3861 25.6938 29.8961 25.3988 30.386 25.0855C30.8293 25.3772 31.2976 25.6321 31.8475 25.6255C32.2525 25.6205 32.2541 24.9905 31.8475 24.9939C31.2709 25.0005 30.7893 24.5989 30.3343 24.2906C29.8277 23.9473 29.2961 23.6424 28.7462 23.3774C27.628 22.8391 26.4365 22.4558 25.2116 22.2525C24.5167 22.1375 23.8151 22.0759 23.1118 22.0742C22.7052 22.0742 22.7052 22.7041 23.1118 22.7058ZM28.7429 24.084C28.7262 24.1106 28.7095 24.1356 28.6929 24.1606C28.6895 24.1673 28.6862 24.1706 28.6845 24.174C28.6812 24.1773 28.6795 24.179 28.6745 24.184C28.6329 24.2323 28.5912 24.279 28.5429 24.3223C28.5279 24.3356 28.5129 24.3473 28.4979 24.3606C28.4946 24.3606 28.4412 24.3989 28.4329 24.4039C28.4096 24.4189 28.3862 24.4323 28.3612 24.4439C28.3512 24.4489 28.3412 24.4539 28.3296 24.4589C28.3296 24.4589 28.3296 24.4589 28.3262 24.4589C28.2796 24.4706 28.2346 24.4839 28.1896 24.4956C28.1779 24.4956 28.1296 24.5023 28.1179 24.5023C28.0913 24.5023 28.0663 24.5006 28.0396 24.5006C28.0346 24.5006 28.0329 24.5006 28.0296 24.5006C28.0246 24.5006 28.0179 24.4973 28.0079 24.4956C27.9779 24.4889 27.9496 24.4789 27.9213 24.4723C27.9163 24.4723 27.913 24.4706 27.9096 24.4689C27.908 24.4689 27.9063 24.4673 27.903 24.4656C27.873 24.4489 27.8446 24.4306 27.8146 24.4139C27.8696 24.4439 27.8146 24.4139 27.7996 24.3989C27.7846 24.384 27.7713 24.3706 27.7563 24.354C27.7347 24.3273 27.7297 24.3223 27.743 24.3373C27.7563 24.3523 27.7513 24.3456 27.733 24.319C27.7213 24.3023 27.7113 24.284 27.7013 24.2656C27.688 24.2423 27.6763 24.2173 27.6647 24.1923C27.6647 24.1873 27.6397 24.1173 27.638 24.109C27.6313 24.0823 27.6247 24.0557 27.6197 24.029C27.623 24.0423 27.613 23.954 27.6113 23.9423C27.6113 23.9173 27.6113 23.8907 27.6147 23.8657C27.6163 23.8607 27.6247 23.8073 27.6263 23.7973C27.633 23.774 27.6413 23.7507 27.6497 23.7274C27.6547 23.7174 27.6697 23.6874 27.6713 23.6824C27.6763 23.6724 27.718 23.6174 27.7147 23.619L27.718 23.6157C28.0646 23.7557 28.4062 23.9123 28.7395 24.0823L28.7429 24.084ZM25.8449 23.4307C25.8449 23.4307 25.8415 23.4374 25.8399 23.4407C25.8382 23.4357 25.8349 23.4324 25.8332 23.4274C25.8365 23.4274 25.8415 23.4291 25.8449 23.4307Z" fill="white"/>
<mask id="mask0_8375_32418" style="mask-type:luminance" maskUnits="userSpaceOnUse" x="22" y="22" width="11" height="5">
<path d="M23.1118 22.7058C23.5968 22.7075 24.0801 22.7391 24.5617 22.7991C24.87 23.7307 25.2966 24.6772 26.0715 25.3138C26.4365 25.6138 26.8581 25.8538 27.3214 25.9571C27.8213 26.0688 28.3412 26.0254 28.8279 25.8704C29.3861 25.6938 29.8961 25.3988 30.386 25.0855C30.8293 25.3772 31.2976 25.6321 31.8475 25.6255C32.2525 25.6205 32.2541 24.9905 31.8475 24.9939C31.2709 25.0005 30.7893 24.5989 30.3343 24.2906C29.8277 23.9473 29.2961 23.6424 28.7462 23.3774C27.628 22.8391 26.4365 22.4558 25.2116 22.2525C24.5167 22.1375 23.8151 22.0759 23.1118 22.0742C22.7052 22.0742 22.7052 22.7041 23.1118 22.7058ZM28.7429 24.084C28.7262 24.1106 28.7095 24.1356 28.6929 24.1606C28.6895 24.1673 28.6862 24.1706 28.6845 24.174C28.6812 24.1773 28.6795 24.179 28.6745 24.184C28.6329 24.2323 28.5912 24.279 28.5429 24.3223C28.5279 24.3356 28.5129 24.3473 28.4979 24.3606C28.4946 24.3606 28.4412 24.3989 28.4329 24.4039C28.4096 24.4189 28.3862 24.4323 28.3612 24.4439C28.3512 24.4489 28.3412 24.4539 28.3296 24.4589C28.3296 24.4589 28.3296 24.4589 28.3262 24.4589C28.2796 24.4706 28.2346 24.4839 28.1896 24.4956C28.1779 24.4956 28.1296 24.5023 28.1179 24.5023C28.0913 24.5023 28.0663 24.5006 28.0396 24.5006C28.0346 24.5006 28.0329 24.5006 28.0296 24.5006C28.0246 24.5006 28.0179 24.4973 28.0079 24.4956C27.9779 24.4889 27.9496 24.4789 27.9213 24.4723C27.9163 24.4723 27.913 24.4706 27.9096 24.4689C27.908 24.4689 27.9063 24.4673 27.903 24.4656C27.873 24.4489 27.8446 24.4306 27.8146 24.4139C27.8696 24.4439 27.8146 24.4139 27.7996 24.3989C27.7846 24.384 27.7713 24.3706 27.7563 24.354C27.7347 24.3273 27.7297 24.3223 27.743 24.3373C27.7563 24.3523 27.7513 24.3456 27.733 24.319C27.7213 24.3023 27.7113 24.284 27.7013 24.2656C27.688 24.2423 27.6763 24.2173 27.6647 24.1923C27.6647 24.1873 27.6397 24.1173 27.638 24.109C27.6313 24.0823 27.6247 24.0557 27.6197 24.029C27.623 24.0423 27.613 23.954 27.6113 23.9423C27.6113 23.9173 27.6113 23.8907 27.6147 23.8657C27.6163 23.8607 27.6247 23.8073 27.6263 23.7973C27.633 23.774 27.6413 23.7507 27.6497 23.7274C27.6547 23.7174 27.6697 23.6874 27.6713 23.6824C27.6763 23.6724 27.718 23.6174 27.7147 23.619L27.718 23.6157C28.0646 23.7557 28.4062 23.9123 28.7395 24.0823L28.7429 24.084ZM25.8449 23.4307C25.8449 23.4307 25.8415 23.4374 25.8399 23.4407C25.8382 23.4357 25.8349 23.4324 25.8332 23.4274C25.8365 23.4274 25.8415 23.4291 25.8449 23.4307Z" fill="white"/>
</mask>
<g mask="url(#mask0_8375_32418)">
<path d="M25.2334 22.9619C25.2334 22.9619 27.0099 23.3119 27.7181 23.6185C28.4264 23.9251 28.743 24.0818 28.743 24.0818L29.9512 24.7334C29.9512 24.7334 28.6647 26.1599 27.0132 25.3566C25.3617 24.5534 25.2351 22.9619 25.2351 22.9619H25.2334Z" fill="#252525"/>
</g>
<path d="M27.7233 23.5537L28.7432 24.082C28.7432 24.082 28.4582 24.6819 27.9066 24.4653C27.355 24.2486 27.7249 23.5537 27.7249 23.5537H27.7233Z" fill="#F9F8F4"/>
<path d="M46.1086 0H3.89141C1.74656 0 0 1.7448 0 3.89122V46.1063C0 48.2527 1.74656 49.9975 3.89141 49.9975H7.16119C7.18953 50.0008 7.21619 50.0008 7.24285 49.9975H46.1086C48.2551 49.9975 50 48.2527 50 46.1063V3.89122C50 1.7448 48.2551 0 46.1086 0ZM6.68789 44.5465C5.83294 44.3048 5.15966 43.4933 5.07633 42.605C5.02467 42.0451 5.20799 41.5268 5.5363 41.0769C5.70629 40.8436 5.91794 40.6369 6.14126 40.4503C6.21292 40.3903 6.28959 40.3336 6.37125 40.2786C6.43124 40.2836 6.48958 40.2703 6.53957 40.2353C6.62957 40.1736 6.72455 40.1253 6.82121 40.0853C6.85454 40.0803 6.88621 40.0753 6.92121 40.0737C7.0012 40.0703 7.06453 40.0403 7.11286 39.9987C7.39117 39.9453 7.68116 39.967 7.96114 40.052C8.44777 40.2003 8.85442 40.5486 9.16273 40.9436C9.47437 41.3435 9.80435 41.8751 9.82435 42.3967C9.84435 42.9233 9.59936 43.4316 9.24439 43.8099C8.60776 44.4865 7.58949 44.7998 6.68789 44.5448V44.5465ZM21.0153 12.2052C20.9986 12.1869 20.9786 12.1686 20.9553 12.1519C20.4636 11.817 19.9487 11.5153 19.4187 11.2487C19.412 11.2754 19.4037 11.3004 19.392 11.327C18.9371 12.2986 18.3654 13.3251 17.3655 13.8201C17.2122 13.895 17.0255 13.8617 16.9339 13.7067C16.8522 13.5667 16.8939 13.3501 17.0472 13.2751C17.4772 13.0618 17.8271 12.7302 18.0988 12.3519C18.3988 11.9336 18.6321 11.472 18.8487 11.0087C18.8537 11.0004 18.8587 10.992 18.8637 10.9854C18.8571 10.982 18.8504 10.9787 18.8421 10.9754C18.8621 10.9621 18.8837 10.9487 18.9037 10.9354C18.9287 10.9121 18.9571 10.8937 18.9887 10.8804C20.5486 9.88552 22.1769 8.91729 24.0001 8.52234C25.04 8.2957 26.0866 8.33237 27.1282 8.52568C28.2015 8.72399 29.2864 8.96396 30.3297 9.28392C30.833 9.43723 31.3279 9.62055 31.7979 9.85719C32.2779 10.0988 32.7245 10.3955 33.1561 10.7154C34.0577 11.3853 34.9127 12.1219 35.7843 12.8285C36.6709 13.5484 37.5708 14.2533 38.4391 14.9916C38.8257 15.3232 39.2057 15.6748 39.5174 16.0798C39.794 16.4364 40.0207 16.8347 40.204 17.2463C40.9289 18.8745 40.9289 20.7509 40.8523 22.504C40.7039 22.3091 40.5556 22.1158 40.4073 21.9191C40.304 21.7841 40.134 21.7141 39.9757 21.8075C39.8423 21.8841 39.759 22.1024 39.8623 22.2391C40.2823 22.789 40.7023 23.3389 41.1223 23.8889C41.5189 24.4088 41.8972 24.9521 42.3255 25.4454C42.7322 25.9103 43.2271 26.1769 43.8054 26.3686C44.2804 26.5269 44.8003 26.6469 45.1736 27.0019C45.487 27.2985 45.6853 27.7034 45.7486 28.1267C45.8186 28.61 45.6836 29.0299 45.4386 29.4399C45.2786 29.7082 45.1287 29.9815 45.067 30.2898C45.0037 30.5998 45.0037 30.9114 45.042 31.223C45.117 31.8296 45.307 32.4162 45.377 33.0245C45.5153 34.2477 45.3303 35.4992 44.8303 36.6224C44.4454 35.5059 43.2071 34.8426 42.0489 35.2009C41.9822 35.2209 41.9172 35.2475 41.8539 35.2742C41.8155 35.2909 41.7522 35.3075 41.7155 35.3342C41.7072 35.3275 41.6972 35.3209 41.6939 35.3175C41.6755 35.2942 41.6472 35.2709 41.6256 35.2509C41.5656 35.1909 41.5039 35.1359 41.4389 35.0826C41.1923 34.8826 40.9273 34.726 40.6323 34.606C40.064 34.3743 39.424 34.3277 38.8257 34.4776C38.1858 34.636 37.6358 35.0109 37.2225 35.5175C36.3542 35.1859 35.5076 34.8026 34.686 34.3693C33.9094 33.9577 33.1528 33.5028 32.4262 33.0078C31.7196 32.5279 31.0363 32.0129 30.3246 31.5413C29.6047 31.0664 28.8564 30.6364 28.0465 30.3331C27.2632 30.0398 26.4416 29.9165 25.6066 29.8748C23.9251 29.7899 22.0185 30.0482 20.5686 29C20.4303 28.9 20.217 28.9766 20.137 29.1133C20.0437 29.2716 20.112 29.4449 20.2503 29.5449C21.5936 30.5164 23.3234 30.4514 24.9033 30.4831C25.6933 30.4981 26.4882 30.5331 27.2549 30.7397C28.0781 30.9614 28.8364 31.3513 29.558 31.798C30.283 32.2496 30.9713 32.7578 31.6696 33.2495C32.3995 33.7611 33.1511 34.2443 33.9311 34.6776C35.4926 35.5459 37.1559 36.2424 38.8757 36.7324C39.3257 36.8607 39.7774 36.974 40.234 37.0723C39.5607 37.339 38.8241 37.4023 38.0925 37.3873C37.5775 37.3756 37.0642 37.3273 36.5526 37.2707C35.9659 37.2057 35.3776 37.1423 34.801 37.0124C34.0211 36.8357 33.3095 36.5024 32.6095 36.1375C32.5495 36.0175 32.4095 35.9341 32.2778 35.9608C32.0895 35.8608 31.9029 35.7592 31.7146 35.6592C30.6946 35.1192 29.628 34.691 28.4948 34.461C27.3232 34.2227 26.1449 34.1993 24.9567 34.301C23.8534 34.3943 22.7601 34.516 21.6536 34.4293C19.787 34.281 17.9671 33.6611 16.3689 32.6928C14.904 31.8063 13.6191 30.6148 12.6542 29.1999C13.5624 29.4966 14.6057 29.3332 15.3423 28.6667C15.8273 28.2284 16.1423 27.6068 16.2289 26.9602C16.3222 26.2769 16.1356 25.6003 15.764 25.0254C15.0323 23.8972 13.7774 23.1673 12.6092 22.5657C11.4726 21.9808 10.2843 21.5042 9.14439 20.9242C8.02446 20.356 6.92954 19.671 6.11626 18.7045C7.48284 18.6945 8.82775 19.0245 10.1943 19.0661C11.5176 19.1061 12.8808 18.8561 13.9041 17.9612C14.3474 17.5746 14.6907 17.0863 14.9273 16.5497C15.0757 16.833 15.209 17.1197 15.324 17.4163C15.3873 17.5746 15.5356 17.6846 15.7123 17.6363C15.7456 17.6279 15.779 17.6096 15.809 17.588C16.3506 17.6796 16.9155 17.5829 17.4322 17.4146C17.9338 17.2513 18.4121 17.013 18.8421 16.7064C19.7204 16.0815 20.4036 15.2249 20.8169 14.2317C21.0469 13.6784 21.1753 13.0918 21.2036 12.4935C21.2119 12.3386 21.1236 12.2436 21.0103 12.2069L21.0153 12.2052ZM44.2604 36.9207C42.0755 36.8707 39.909 36.4591 37.8475 35.7425C38.4924 35.0626 39.5174 34.8459 40.3956 35.1842C40.6223 35.2709 40.8456 35.4009 41.0323 35.5592C41.2606 35.7542 41.4622 36.0225 41.8005 35.9625C41.9222 35.9408 42.0289 35.8758 42.1439 35.8342C42.2738 35.7875 42.4088 35.7542 42.5455 35.7408C42.8138 35.7158 43.0871 35.7508 43.3371 35.8542C43.7971 36.0441 44.1254 36.4524 44.2621 36.9224L44.2604 36.9207ZM12.0259 22.9723C12.9008 23.4006 13.7691 23.8822 14.4957 24.5255C14.9473 24.9288 15.3607 25.4137 15.539 26.002C15.7056 26.5552 15.634 27.1468 15.3523 27.6501C15.0373 28.21 14.5074 28.6 13.8691 28.6967C13.2408 28.7916 12.5658 28.5983 12.0975 28.1684C12.0492 28.1234 11.9975 28.1001 11.9442 28.0901C11.7126 27.9484 11.3442 28.2217 11.5092 28.5233C12.4408 30.2398 13.7974 31.703 15.4006 32.8112C16.9905 33.911 18.8404 34.6643 20.7536 34.9526C21.8102 35.1109 22.8568 35.1159 23.9201 35.0226C25.1483 34.9159 26.3616 34.7893 27.5915 34.9426C28.7314 35.0859 29.848 35.4275 30.8779 35.9341C31.1113 36.0491 31.3412 36.1708 31.5712 36.2924C30.2663 37.1157 29.6147 38.7705 29.578 40.297C29.2881 40.297 28.9981 40.3486 28.7331 40.4603C28.2031 40.6086 27.7448 41.0119 27.3932 41.4168C27.1365 41.7135 26.9249 42.0451 26.7849 42.4067C26.7582 42.3617 26.7299 42.3167 26.7032 42.2717C26.3166 41.6618 25.7866 41.1302 25.105 40.8602C24.555 40.6436 23.9084 40.6236 23.3601 40.8536C22.8318 41.0019 22.3735 41.4052 22.0219 41.8101C21.6552 42.2317 21.3819 42.725 21.2769 43.27C21.1853 42.92 21.0203 42.5884 20.8203 42.2717C20.432 41.6618 19.902 41.1302 19.2221 40.8602C18.6721 40.6436 18.0238 40.6236 17.4772 40.8536C16.9489 41.0019 16.4906 41.4052 16.1373 41.8101C15.9723 42.0018 15.8256 42.2067 15.704 42.425C15.6206 42.2384 15.519 42.0568 15.4073 41.8801C15.0207 41.2702 14.4907 40.7386 13.8091 40.4686C13.2591 40.252 12.6125 40.232 12.0659 40.4619C11.5359 40.6103 11.0776 41.0135 10.726 41.4185C10.5943 41.5718 10.4743 41.7335 10.371 41.9034C10.2777 41.5602 10.1143 41.2335 9.916 40.9202C9.52936 40.3103 8.9994 39.777 8.31778 39.5087C8.0728 39.4121 7.80948 39.3554 7.54283 39.3404C7.71615 36.7957 7.98947 34.2527 8.45777 31.7446C8.87274 29.5216 9.40937 27.2435 10.4293 25.2104C10.8526 24.3638 11.3392 23.5972 12.0325 22.9707L12.0259 22.9723ZM30.1247 41.0119C30.6096 41.1602 31.0179 41.5085 31.3262 41.9034C31.6362 42.3051 31.9679 42.8367 31.9879 43.3566C32.0062 43.8832 31.7612 44.3932 31.4079 44.7698C30.7713 45.4464 29.7513 45.7597 28.8514 45.5047C27.9965 45.2631 27.3232 44.4498 27.2399 43.5616C27.1865 43.0017 27.3715 42.485 27.6998 42.0334C27.8698 41.8001 28.0831 41.5935 28.3048 41.4085C28.3764 41.3485 28.4531 41.2902 28.5348 41.2369C28.5948 41.2402 28.6531 41.2285 28.7031 41.1919C28.7931 41.1302 28.8881 41.0819 28.9864 41.0419C29.0197 41.0369 29.0514 41.0319 29.0847 41.0302C29.1647 41.0269 29.2281 40.9969 29.2764 40.9552C29.5547 40.9036 29.8447 40.9236 30.1263 41.0085L30.1247 41.0119ZM26.6149 43.7499C26.6349 44.2765 26.3899 44.7864 26.0349 45.1631C25.3983 45.8413 24.38 46.1529 23.4801 45.898C22.6252 45.6563 21.9502 44.8431 21.8685 43.9565C21.8152 43.3949 22.0002 42.8783 22.3285 42.4267C22.4985 42.1934 22.7102 41.9868 22.9335 41.8018C23.0051 41.7418 23.0818 41.6835 23.1635 41.6301C23.2235 41.6335 23.2818 41.6218 23.3318 41.5852C23.4218 41.5235 23.5168 41.4752 23.6134 41.4352C23.6468 41.4302 23.6801 41.4252 23.7134 41.4235C23.7934 41.4202 23.8567 41.3918 23.9051 41.3502C24.1834 41.2968 24.4734 41.3168 24.7534 41.4018C25.24 41.5501 25.6466 41.8984 25.9549 42.2934C26.2666 42.695 26.5966 43.2266 26.6166 43.7466L26.6149 43.7499ZM20.7303 43.7499C20.7503 44.2765 20.5036 44.7864 20.1503 45.1631C19.5137 45.8413 18.4954 46.1529 17.5938 45.898C16.7389 45.6563 16.0656 44.8431 15.9823 43.9565C15.9306 43.3949 16.1139 42.8783 16.4422 42.4267C16.6122 42.1934 16.8239 41.9868 17.0472 41.8018C17.1189 41.7418 17.1955 41.6835 17.2772 41.6301C17.3372 41.6335 17.3955 41.6218 17.4455 41.5852C17.5355 41.5235 17.6305 41.4752 17.7271 41.4352C17.7605 41.4302 17.7922 41.4252 17.8271 41.4235C17.9071 41.4202 17.9705 41.3918 18.0188 41.3502C18.2954 41.2968 18.5871 41.3168 18.8671 41.4018C19.3537 41.5501 19.7604 41.8984 20.0687 42.2934C20.3803 42.695 20.7103 43.2266 20.7303 43.7466V43.7499ZM15.3173 43.3583C15.3373 43.8849 15.0923 44.3948 14.7373 44.7714C14.1007 45.448 13.0825 45.7613 12.1825 45.5064C11.3276 45.2647 10.6543 44.4515 10.571 43.5633C10.5176 43.0033 10.7026 42.4867 11.0309 42.0351C11.2009 41.8018 11.4126 41.5951 11.6359 41.4102C11.7076 41.3502 11.7842 41.2919 11.8659 41.2385C11.9259 41.2419 11.9842 41.2302 12.0342 41.1935C12.1242 41.1319 12.2192 41.0835 12.3175 41.0435C12.3508 41.0385 12.3825 41.0335 12.4158 41.0319C12.4958 41.0285 12.5592 40.9986 12.6075 40.9569C12.8858 40.9052 13.1758 40.9252 13.4558 41.0102C13.9424 41.1585 14.3507 41.5068 14.659 41.9018C14.969 42.3034 15.3006 42.835 15.3206 43.3549L15.3173 43.3583ZM29.523 49.2209C28.9464 49.2293 28.3714 49.2326 27.7965 49.2359C26.9732 49.2409 26.1483 49.2443 25.3266 49.2476C24.3334 49.2509 23.3418 49.2542 22.3502 49.2559C21.2686 49.2593 20.1887 49.2609 19.1071 49.2642C18.0188 49.2676 16.9272 49.2676 15.8373 49.2726C14.819 49.2726 13.7991 49.2776 12.7808 49.2809C11.9109 49.2843 11.0426 49.2876 10.1743 49.2926C9.53604 49.2959 8.89774 49.2992 8.25945 49.3059C7.99447 49.3092 7.72615 49.3092 7.46117 49.3176C7.38784 48.8226 7.33952 48.3327 7.30785 47.7894C7.25785 46.9479 7.24952 46.103 7.25619 45.2614C8.04114 45.2797 8.83108 45.0031 9.44603 44.4948C9.65102 44.3265 9.83268 44.1215 9.98933 43.8982C10.1693 44.7681 10.7676 45.5697 11.5642 45.9463C12.6742 46.4696 14.0091 46.2263 14.939 45.4547C15.1707 45.2631 15.3773 45.0281 15.544 44.7681C15.8106 45.4464 16.3289 46.033 16.9772 46.3396C18.0871 46.8629 19.422 46.6196 20.352 45.848C20.8053 45.4714 21.1653 44.9331 21.3002 44.3532C21.4936 45.1997 22.0835 45.973 22.8618 46.3396C23.9717 46.8629 25.3066 46.6196 26.2366 45.848C26.5649 45.5763 26.8415 45.2197 27.0232 44.8248C27.3132 45.308 27.7348 45.7113 28.2364 45.948C28.7381 46.1846 29.2831 46.2629 29.818 46.2079C29.8463 47.2112 29.8613 48.2177 29.933 49.2193C29.798 49.2226 29.6614 49.2243 29.5264 49.2276L29.523 49.2209ZM49.37 46.1079C49.37 47.9061 47.9085 49.3676 46.1103 49.3676H30.5746C30.488 48.2744 30.4763 47.1728 30.443 46.0763C30.8663 45.948 31.2646 45.7363 31.6096 45.4497C32.0912 45.0481 32.4728 44.4648 32.5828 43.8416C32.7095 43.1266 32.4578 42.4784 32.0779 41.8801C31.6912 41.2702 31.1613 40.7386 30.4796 40.4686C30.3913 40.4336 30.2996 40.4036 30.208 40.3803C30.208 40.0703 30.2263 39.7954 30.2996 39.4854C30.3996 39.0621 30.508 38.6405 30.698 38.2472C31.0279 37.569 31.5429 36.9557 32.2378 36.6474C32.7961 36.944 33.3594 37.2257 33.9594 37.429C34.5544 37.6289 35.1727 37.7306 35.7909 37.8106C36.3442 37.8806 36.8992 37.9422 37.4542 37.9839C38.5024 38.0606 39.5957 38.0372 40.5773 37.6173C40.8073 37.5206 41.0239 37.4023 41.2289 37.2607C42.4155 37.4606 43.6188 37.5639 44.822 37.5573C44.9553 37.5573 45.0437 37.4873 45.0887 37.394C45.1437 37.3706 45.1937 37.3273 45.2286 37.2556C45.7969 36.1358 46.0886 34.8843 46.0536 33.6277C46.0353 32.9795 45.9053 32.3562 45.7703 31.7246C45.6486 31.158 45.5503 30.5514 45.8353 30.0182C45.9786 29.7482 46.1503 29.5016 46.2586 29.2133C46.3486 28.9766 46.3902 28.7166 46.3986 28.465C46.4136 27.9651 46.2719 27.4501 46.0069 27.0285C45.7103 26.5552 45.2853 26.2419 44.7737 26.032C44.2587 25.822 43.6888 25.7287 43.2205 25.4137C42.9555 25.2354 42.7455 24.9754 42.5522 24.7254C42.3188 24.4255 42.0905 24.1205 41.8589 23.8189C41.7206 23.6389 41.5839 23.4573 41.4456 23.2773C41.5522 21.4008 41.6239 19.4377 41.0239 17.6296C40.7123 16.6864 40.2107 15.8298 39.5124 15.1199C39.1324 14.7349 38.7108 14.395 38.2924 14.0534C37.8225 13.6734 37.3542 13.2918 36.8859 12.9118C35.9693 12.1669 35.0543 11.4153 34.1311 10.6754C33.6978 10.3305 33.2594 9.9905 32.7911 9.69387C32.3962 9.44223 31.9812 9.23392 31.5512 9.05228C31.5512 9.02895 31.5479 9.00562 31.5412 8.98229C31.3979 8.39736 31.1579 7.83242 30.8263 7.32914C30.768 7.24082 30.7046 7.15583 30.643 7.06917C29.8797 7.21082 29.1097 7.31582 28.3364 7.38081C28.1665 7.39581 28.0215 7.22416 28.0215 7.06585C28.0215 6.88587 28.1665 6.76421 28.3364 6.75088C28.9597 6.69755 29.5814 6.61756 30.198 6.51091C30.0313 6.31926 29.858 6.13095 29.6814 5.94931C29.4647 5.726 29.2397 5.50936 29.0081 5.30105C28.4714 5.49436 27.9115 5.62101 27.3382 5.676C27.1682 5.69267 27.0232 5.51769 27.0232 5.36104C27.0232 5.17939 27.1699 5.06275 27.3382 5.04608C27.7165 5.00942 28.0898 4.93276 28.4531 4.82444C28.0165 4.46781 27.5582 4.13618 27.0832 3.83289C26.5766 3.50959 26.0466 3.2213 25.5033 2.96299C25.4016 2.86134 25.25 2.82301 25.115 2.90133C25.06 2.93466 25.0133 2.98965 24.9867 3.05298C24.9217 3.18296 24.9533 3.37627 25.0833 3.45626C25.9149 4.70945 26.1816 6.28427 25.7866 7.73743C25.4216 7.7241 25.0567 7.73243 24.6884 7.7741C22.5602 8.01907 20.6503 9.08728 18.8671 10.2121C18.6404 10.3538 18.4171 10.4971 18.1938 10.6421C18.1738 10.6554 18.1555 10.6688 18.1388 10.6838C17.3488 10.3805 16.5306 10.1471 15.699 9.98717C15.3823 10.6838 14.9357 11.322 14.3824 11.8536C14.0891 12.1353 13.6441 11.6903 13.9357 11.407C14.3974 10.9621 14.7723 10.4438 15.0523 9.87551C14.0607 9.73053 13.0558 9.68888 12.0575 9.75553C11.2276 9.81219 10.4026 9.94051 9.59436 10.1438C9.46104 10.0938 9.28771 10.1688 9.21772 10.2871C9.15439 10.3954 9.16773 10.5071 9.22439 10.6004C9.25939 10.6971 9.33605 10.7754 9.43937 10.7987C11.2942 12.1786 13.1358 13.6951 14.4074 15.6482C14.4624 15.7315 14.5107 15.8148 14.5624 15.8998C14.5124 15.9398 14.474 15.9948 14.4524 16.0581C14.0724 17.1463 13.1625 17.9396 12.0625 18.2445C10.7993 18.5962 9.46771 18.3979 8.19112 18.2329C7.37618 18.1279 6.5579 18.0346 5.73462 18.0829C5.56963 18.0929 5.47297 18.2045 5.44131 18.3295C5.32298 18.4195 5.25631 18.6145 5.35298 18.7428C6.83454 20.7359 9.18606 21.6341 11.3592 22.6524C11.3776 22.6607 11.3959 22.6707 11.4142 22.6774C10.8643 23.2206 10.4243 23.8755 10.0577 24.5521C9.5477 25.492 9.16106 26.4986 8.83775 27.5151C8.05613 29.9732 7.6245 32.5379 7.30785 35.0926C7.1312 36.5224 7.0012 37.9572 6.90454 39.3954C6.78955 39.4221 6.67789 39.4571 6.56957 39.5021C6.04127 39.6504 5.58296 40.0537 5.22965 40.4586C4.80301 40.9502 4.50136 41.5385 4.44637 42.1934C4.34971 43.3233 5.048 44.4998 6.0696 44.9814C6.24959 45.0664 6.43624 45.1297 6.62456 45.1747C6.61123 46.5746 6.63623 47.9811 6.83621 49.3659H3.89308C2.09487 49.3659 0.633299 47.9027 0.633299 46.1063V3.89122C0.633299 2.0931 2.09653 0.631599 3.89308 0.631599H46.1103C47.9085 0.631599 49.37 2.0931 49.37 3.89122V46.1063V46.1079Z" fill="white"/>
</svg>
