<svg width="50" height="50" viewBox="0 0 50 50" fill="none" xmlns="http://www.w3.org/2000/svg">
<path d="M45.5313 0.655273H4.47043C2.35003 0.655273 0.631104 2.37281 0.631104 4.49151V45.5193C0.631104 47.638 2.35003 49.3555 4.47043 49.3555H45.5313C47.6517 49.3555 49.3706 47.638 49.3706 45.5193V4.49151C49.3706 2.37281 47.6517 0.655273 45.5313 0.655273Z" fill="#252525"/>
<path d="M6.1107 14.4911C6.0318 14.4593 6.00662 14.4576 5.92604 14.4677C5.92604 14.4677 5.87232 14.4811 5.86224 14.4844C5.82531 14.4962 5.82867 14.4928 5.78838 14.518C5.75648 14.5381 5.69268 14.6052 5.65575 14.6639C5.44926 15.0011 5.49459 15.4993 5.52145 15.88C5.54831 16.2742 5.62218 16.6651 5.73298 17.0458C5.95625 17.8158 6.33733 18.5488 6.83928 19.1745C7.35131 19.8119 7.97412 20.3554 8.69095 20.7546C9.03846 20.9492 9.40443 21.1069 9.78551 21.2209C10.1918 21.3434 10.7071 21.3551 11.0228 21.6705C11.377 22.0261 11.2779 22.5243 10.9741 22.8715C10.6517 23.2405 10.1817 23.4016 9.71835 23.5055C8.65738 23.7454 7.52757 23.7052 6.4901 23.3713C5.5416 23.0661 4.69046 22.536 3.76882 22.1653C3.53547 22.0714 3.29877 21.9892 3.05535 21.9237C2.8539 21.8684 2.61551 21.7963 2.40567 21.8483C2.06992 21.9288 2.08838 22.3834 2.12867 22.6635C2.3637 24.2855 3.38103 25.7986 4.65521 26.7949C5.29818 27.2998 6.03851 27.6873 6.82249 27.9188C7.83143 28.2174 8.89912 28.2325 9.91645 28.4992C10.3764 28.62 10.922 28.781 11.152 29.2406C11.3619 29.6583 11.2796 30.185 11.011 30.5557C10.7139 30.9633 10.2572 31.1864 9.78886 31.3407C9.27516 31.5101 8.743 31.6276 8.20915 31.7064C7.66523 31.7869 7.11795 31.8305 6.569 31.8289C6.05194 31.8255 5.54496 31.7651 5.03293 31.7114C4.69047 31.6762 4.2691 31.6326 3.96356 31.8071C3.6446 31.9899 3.6278 32.3489 3.74532 32.6676C3.89641 33.0769 4.22376 33.3922 4.5528 33.6623C4.9087 33.9541 5.3116 34.1907 5.72793 34.3869C6.61096 34.8063 7.58465 35.0344 8.5449 35.1904C10.7021 35.541 12.9349 35.4168 15.0451 34.8549C15.134 34.8314 15.2079 34.8448 15.27 34.8784C15.317 34.8918 15.359 34.917 15.3892 34.9556C15.5252 35.125 15.6729 35.2843 15.8341 35.4303C16.477 36.0207 17.2996 36.3847 18.1239 36.6397C19.0439 36.9232 19.9991 37.0976 20.951 37.2351C22.9537 37.527 24.9968 37.5673 27.0113 37.3861C29.0191 37.205 31.0067 36.7856 32.9172 36.1499C33.8741 35.8312 34.8142 35.4571 35.7241 35.026C36.597 34.6134 37.4649 34.1571 38.2304 33.565C38.9792 32.9879 39.6137 32.2734 40.0049 31.4078C40.3709 30.5993 40.4833 29.6717 40.2181 28.8179V28.8146C39.9999 28.9571 39.7749 29.0896 39.5466 29.2087C38.4302 29.7958 37.2081 30.2068 36.0044 30.5758C33.3956 31.3726 30.6878 31.8305 27.9682 32.0335C25.1881 32.2415 22.3225 32.2784 19.5895 31.6645C19.1933 31.5756 19.3628 30.9667 19.7573 31.0573C20.0847 31.1311 20.4121 31.1948 20.7428 31.2485C22.0875 31.4716 23.4573 31.5319 24.8188 31.5269C26.1467 31.5219 27.4729 31.4582 28.7958 31.334C31.4147 31.0858 34.0151 30.5809 36.5131 29.7539C38.5377 29.0846 41.0676 28.2124 41.7223 25.9344C42.0295 24.8726 41.9388 23.7253 41.7458 22.6501C41.588 21.7661 41.3261 20.9022 40.9097 20.1088C40.0838 18.5337 38.7122 17.3998 37.1644 16.5577C36.9932 16.6818 36.8052 16.7842 36.6037 16.8647C36.0229 17.0962 35.3413 17.1062 34.747 16.9217C34.5707 16.8664 34.4062 16.7875 34.2383 16.7104C34.1242 16.66 33.9882 16.5879 33.8757 16.6701C33.7414 16.7691 33.6323 16.8915 33.4812 16.972C33.3436 17.0442 33.1942 17.0978 33.0431 17.1314C32.3749 17.2773 31.6329 17.1431 30.9883 16.9502C30.4074 16.7758 29.8534 16.5124 29.3532 16.1719C29.2138 16.4487 29.0308 16.7037 28.7941 16.9268C28.3459 17.3461 27.7818 17.6044 27.2111 17.8174C26.5748 18.054 25.9234 18.2469 25.2603 18.3962C23.9778 18.688 22.6566 18.8206 21.3404 18.7954C20.8855 19.7733 19.9974 20.5835 18.8542 20.5281C18.0232 20.4896 17.3886 19.9662 17.0075 19.2785C16.195 20.1122 14.7731 19.4378 13.9572 18.8776C13.5795 18.6176 13.2521 18.2955 13.0238 17.898C13.0205 17.898 13.0171 17.9013 13.0138 17.9013C12.4346 18.0355 11.8487 18.0607 11.2595 17.9751C9.27852 17.6866 7.68034 16.1954 6.40448 14.7444C6.29032 14.7243 6.19799 14.6337 6.15099 14.518C6.14763 14.518 6.11238 14.4911 6.11238 14.4895L6.1107 14.4911ZM39.837 10.769C39.7867 10.9166 39.7262 11.0608 39.6624 11.2034C39.513 11.5356 39.33 11.8509 39.1336 12.1579C38.7861 12.703 38.3899 13.2197 37.9702 13.7128C37.9937 13.7615 38.0156 13.8084 38.034 13.8588C38.2506 14.4341 38.1801 15.09 37.9299 15.6418C37.8544 15.8113 37.7554 15.9639 37.6446 16.1048C37.7587 16.1686 37.8712 16.234 37.982 16.3011C38.5679 16.65 39.1168 17.0492 39.6205 17.4971C39.6272 17.4786 39.6372 17.4585 39.649 17.4417C40.1409 16.7238 40.485 15.9253 40.6663 15.0749C40.8225 14.3469 40.8544 13.5837 40.7503 12.8456C40.6512 12.1394 40.438 11.3863 39.9394 10.8562C39.9176 10.8327 39.8756 10.8025 39.8404 10.7706L39.837 10.769ZM35.4219 14.2865C35.4219 14.2865 35.4622 14.2563 35.4655 14.2597C35.4739 14.2496 35.479 14.2395 35.4739 14.2479C35.4823 14.2312 35.4924 14.2144 35.5008 14.1993C35.5763 14.045 35.7946 14.0047 35.9339 14.0869C36.0883 14.1758 36.1202 14.3637 36.0464 14.518C35.7476 15.1336 34.8293 15.0044 34.4986 14.4945C34.0839 13.8588 34.5875 13.0268 35.1768 12.7215C35.296 12.6594 35.4185 12.6141 35.5444 12.5806C35.5495 12.542 35.5629 12.5017 35.5881 12.4699C35.8751 12.0572 35.8735 11.5137 35.6535 11.0675C35.4454 10.6465 35.0912 10.3245 34.7017 10.0729C34.3223 9.82963 33.8438 9.5126 33.3889 9.73737C33.0347 9.91183 32.6116 10.3077 32.6653 10.7455C32.6821 10.883 32.7694 10.9971 32.8869 11.0675C33.0229 11.1514 33.1169 11.1548 33.2311 11.0759C33.3721 10.9787 33.582 11.0508 33.6625 11.19C33.7532 11.3443 33.6894 11.5238 33.5501 11.6211C32.981 12.0153 32.1651 11.5322 32.0543 10.9015C31.9317 10.2137 32.4119 9.57801 32.9793 9.2442C33.085 9.18214 33.1958 9.13517 33.3066 9.09827C33.1421 8.52627 32.714 8.05828 32.1634 7.82344C31.6682 7.61209 30.8523 7.55673 30.5081 8.06834C30.2815 8.40214 29.7359 8.08679 29.9642 7.74963C29.9911 7.71105 30.0196 7.67248 30.0498 7.63725C29.7678 6.90926 29.4623 6.1779 28.9301 5.59416C28.0437 4.62629 26.7276 4.10127 25.4198 4.17676C24.1624 4.24888 22.9806 4.86953 22.1412 5.79378C22.398 5.90281 22.6532 6.02022 22.9033 6.141C24.8876 7.11725 26.6201 8.58834 27.9161 10.3765C28.5994 11.3208 29.234 12.3927 29.5345 13.5266C29.7074 14.1808 29.7426 14.9004 29.5781 15.5597C30.0666 15.9069 30.6055 16.1769 31.1813 16.3497C31.732 16.5107 32.4035 16.66 32.9709 16.499C33.0884 16.4655 33.2009 16.4168 33.2982 16.3413C33.4158 16.2524 33.5114 16.14 33.6457 16.0746C33.963 15.922 34.2837 16.0394 34.5825 16.1786C35.0274 16.3866 35.5226 16.4772 36.0111 16.3816C36.4728 16.291 36.9177 16.0595 37.193 15.667C37.4549 15.2946 37.5892 14.8182 37.5203 14.3637C37.3944 13.5149 36.5064 12.963 35.7039 13.1878C35.3564 13.2851 34.9317 13.6223 34.9921 14.0349C35.0173 14.2043 35.1214 14.2613 35.2641 14.2949C35.2674 14.2949 35.3178 14.3033 35.3648 14.2999C35.3682 14.2999 35.3782 14.2999 35.3849 14.2966C35.3984 14.2932 35.4135 14.2882 35.4269 14.2832L35.4219 14.2865ZM50.0002 3.88825V46.0718C50.0002 48.2155 48.256 49.96 46.1089 49.96H13.0524C13.0524 49.96 13.0406 49.96 13.0389 49.96C13.0389 49.96 13.0401 49.96 13.0423 49.96H3.89137C1.74591 49.96 0 48.2172 0 46.0718V3.88825C0 1.74452 1.74423 0 3.89137 0H46.1089C48.2543 0 50.0002 1.74284 50.0002 3.88825ZM49.369 46.0718V3.88825C49.369 2.09174 47.9068 0.630708 46.1089 0.630708H3.89137C2.09341 0.630708 0.631216 2.09174 0.631216 3.88825V46.0718C0.631216 47.8683 2.09341 49.3293 3.89137 49.3293H12.8492C12.9449 48.5191 13.0675 47.7122 13.2639 46.9188C13.4385 46.216 13.655 45.5216 13.8498 44.8237C14.1133 43.8727 14.3585 42.9232 14.6942 41.994C15.3372 40.2193 16.2135 38.5351 17.3987 37.0624C16.4972 36.7252 15.6645 36.2421 15.0333 35.5074C14.5532 35.6299 14.0697 35.7322 13.5812 35.8093C11.3719 36.1566 9.05524 36.0811 6.89468 35.4823C5.92771 35.2139 4.996 34.8096 4.20195 34.189C3.5103 33.6488 2.69945 32.6726 3.17454 31.745C3.62949 30.8593 4.76265 31.0623 5.56678 31.1462C6.6714 31.2602 7.79449 31.1948 8.87729 30.9398C9.34567 30.8291 9.88119 30.7151 10.2723 30.4198C10.5309 30.2236 10.7827 29.7958 10.5594 29.4838C10.4402 29.3161 10.2102 29.249 10.0239 29.1903C9.75529 29.1064 9.47997 29.0427 9.20297 28.9907C8.65738 28.8867 8.10506 28.8297 7.55779 28.734C5.75983 28.4237 4.13144 27.4709 2.9966 26.0384C2.44428 25.339 2.0078 24.5573 1.73416 23.7085C1.49578 22.9755 1.16003 21.6805 2.10181 21.2897C2.58194 21.0884 3.16615 21.2813 3.63116 21.4457C4.12472 21.6185 4.59813 21.8449 5.0665 22.0747C6.02004 22.5394 6.96854 22.9654 8.0463 23.0208C8.58854 23.0493 9.13079 23.0006 9.6596 22.8715C9.992 22.7893 10.504 22.635 10.6131 22.2727C10.6266 22.224 10.6366 22.2005 10.5913 22.1385C10.5561 22.0915 10.5023 22.0647 10.4469 22.0412C10.2455 21.959 10.0172 21.9388 9.80733 21.8835C9.38596 21.7728 8.97466 21.6118 8.58519 21.4155C7.02562 20.6254 5.8102 19.1946 5.22935 17.5541C4.93724 16.7305 4.78112 15.7878 4.91374 14.9172C4.98257 14.461 5.23438 14.0014 5.70779 13.8705C6.02172 13.7833 6.33733 13.8554 6.55389 14.06C6.61433 14.0701 6.67141 14.0986 6.71338 14.1456C7.0827 14.5733 7.46714 14.9893 7.87676 15.3785C9.18451 16.6282 10.8868 17.7051 12.7636 17.3075C12.7149 17.1482 12.6763 16.9838 12.6512 16.8177C12.5991 16.8311 12.5454 16.8328 12.4917 16.8228C11.7681 16.6835 11.0916 16.2709 10.6316 15.6955C10.2119 15.1705 9.96681 14.5364 9.9601 13.8604C9.95338 13.2063 10.1632 12.5403 10.5577 12.017C11.288 11.0525 12.5958 10.6717 13.7222 11.0457C13.7222 10.9065 13.7188 10.7656 13.7222 10.6264C13.7289 9.54278 13.8162 8.42229 14.2443 7.41249C14.6791 6.39094 15.4832 5.61764 16.5274 5.23519C17.5565 4.85945 18.7014 4.88462 19.7657 5.07417C20.3584 5.17984 20.9426 5.3459 21.51 5.55222C22.0405 4.90139 22.7271 4.37133 23.4943 4.02746C24.8843 3.40011 26.4439 3.38502 27.8322 4.02746C28.4953 4.33443 29.0997 4.79571 29.5563 5.36603C30.0062 5.92629 30.2966 6.57209 30.5585 7.23131C31.0924 6.97299 31.7706 6.99144 32.3178 7.20951C33.1052 7.52318 33.7431 8.18912 33.9345 9.02448C33.9345 9.02951 33.9345 9.03621 33.9379 9.04124C33.9697 9.04628 34.0016 9.05131 34.0335 9.05969C34.3659 9.13686 34.6866 9.32137 34.972 9.50085C35.5276 9.84976 36.0229 10.3161 36.2747 10.935C36.4778 11.4349 36.498 12.0287 36.2747 12.5236C36.7733 12.5772 37.2484 12.8121 37.5975 13.1761C38.0877 12.594 38.5393 11.97 38.9036 11.3024C38.9926 11.1397 39.0782 10.9736 39.1504 10.8025C39.2142 10.6499 39.2495 10.4805 39.3334 10.3379C39.466 10.1098 39.7212 10.0091 39.9713 10.098C40.161 10.1668 40.3155 10.3328 40.4464 10.4821C41.0222 11.1447 41.2707 12.0086 41.3781 12.8641C41.5846 14.4861 41.1985 16.1786 40.3188 17.5575C40.5455 17.5642 40.7738 17.5491 40.997 17.5054C42.1185 17.2824 43.0552 16.5393 43.7234 15.6351C44.0709 15.1655 44.3646 14.6539 44.6248 14.1305C44.8565 13.6675 45.1302 13.1375 45.6237 12.9026C45.8856 12.7785 46.1693 12.7651 46.4312 12.8993C46.678 13.0251 46.8257 13.265 46.9315 13.5115C47.1732 14.0785 47.331 14.6824 47.4133 15.293C47.5828 16.5242 47.4569 17.799 47.0087 18.9598C46.6142 19.9796 45.9981 20.9089 45.2074 21.6638C44.8145 22.0395 44.3781 22.375 43.9131 22.6568C43.6864 22.7943 43.4514 22.9118 43.2147 23.0275C43.0905 23.0879 42.7698 23.2338 42.7749 23.3865C42.7749 23.4116 42.8386 23.4737 42.8873 23.5039C42.9914 23.5726 43.1106 23.6079 43.2298 23.6431C43.5202 23.7303 43.8174 23.7773 44.1195 23.7924C44.7558 23.8259 45.3904 23.7538 46.0216 23.7018C46.5823 23.6548 47.3528 23.5106 47.7104 24.0692C48.0075 24.5304 47.8632 25.1813 47.6248 25.6359C47.0993 26.6373 45.941 27.2126 44.927 27.5833C43.772 28.0077 42.513 28.1687 41.2875 28.0496C41.2539 28.0463 41.222 28.0379 41.1918 28.0262C41.0323 28.1855 40.8644 28.3348 40.6881 28.474C40.7469 28.5093 40.7973 28.5663 40.8225 28.6502C40.8963 28.885 40.9416 29.1249 40.9702 29.3681C41.081 30.341 40.7989 31.3407 40.3138 32.1794C39.8068 33.0584 39.053 33.7663 38.2271 34.3433C37.7671 34.6637 37.2819 34.9455 36.785 35.2038C37.1241 35.7473 37.4549 36.2958 37.7688 36.8561C38.3194 37.839 38.8147 38.8539 39.2142 39.909C39.5768 40.8701 40.7503 44.9311 40.4464 45.2397C40.5438 45.8889 40.616 46.5414 40.6479 47.1973C40.6814 47.9068 40.6831 48.6197 40.6865 49.3293H46.1089C47.9068 49.3293 49.369 47.8683 49.369 46.0718ZM46.7518 25.7768C47.0389 25.4681 47.2874 25.0387 47.2387 24.6009C47.2135 24.3711 47.0809 24.2939 46.861 24.2889C46.5638 24.2805 46.26 24.3141 45.9628 24.3392C45.3601 24.3895 44.7541 24.455 44.1464 24.4264C43.6226 24.3996 42.978 24.3275 42.5281 24.0172C42.5768 25.0085 42.4643 26.0049 42.0127 26.904C41.9187 27.0952 41.8062 27.2764 41.6853 27.4475C41.8498 27.4559 42.0127 27.4609 42.1755 27.4575C43.3322 27.4424 44.4906 27.1656 45.523 26.6423C45.9729 26.4158 46.406 26.1475 46.7502 25.7768H46.7518ZM46.6024 18.1865C46.918 17.0727 46.9432 15.88 46.6746 14.7528C46.6058 14.4643 46.5185 14.1808 46.4127 13.9024C46.3506 13.738 46.2717 13.478 46.0753 13.4361C45.9511 13.4075 45.7782 13.54 45.6623 13.6625C45.5012 13.8302 45.3786 14.0332 45.2745 14.2412C44.7743 15.2544 44.19 16.244 43.3322 16.9972C42.5012 17.7252 41.4302 18.2184 40.3121 18.1898C40.8997 18.8424 41.3899 19.5821 41.7424 20.4124C42.0698 21.1857 42.2763 21.9959 42.4038 22.8212C42.476 22.749 42.5583 22.6853 42.6405 22.6299C42.847 22.4907 43.0821 22.4001 43.2986 22.2827C43.5269 22.1586 43.7485 22.0227 43.9601 21.8751C44.3781 21.5866 44.7575 21.2461 45.0999 20.872C45.7983 20.1088 46.3204 19.1845 46.6007 18.1865H46.6024ZM28.7757 15.9052C29.3045 14.8887 29.0073 13.6743 28.549 12.693C28.1092 11.7486 27.5351 10.8596 26.8669 10.0611C25.5424 8.47427 23.8435 7.20112 21.9364 6.39429C21.0114 6.00345 20.0192 5.69649 19.0153 5.60423C18.045 5.51365 17.0109 5.59752 16.1547 6.1041C14.3333 7.17932 14.3198 9.57299 14.3585 11.4366C14.3585 11.4601 14.3584 11.4819 14.3534 11.502C14.3618 11.7184 14.1318 11.9465 13.8834 11.8056C13.3579 11.5087 12.7284 11.4634 12.1542 11.6362C11.0966 11.9532 10.4805 13.0452 10.6047 14.1204C10.7239 15.1688 11.6036 15.9924 12.6092 16.2088C12.626 15.3282 12.9516 14.419 13.5476 13.7732C13.885 13.4059 14.3316 13.1492 14.8302 13.1006C15.2751 13.057 15.7518 13.1945 16.0758 13.5082C16.6936 14.1037 16.4854 15.3735 15.5688 15.5429C15.3993 15.5731 15.2297 15.4993 15.181 15.3215C15.1391 15.1671 15.2348 14.9642 15.4026 14.934C15.6595 14.887 15.8072 14.6522 15.8123 14.3838C15.8123 14.2462 15.7871 14.1322 15.6914 14.0164C15.5923 13.8957 15.4513 13.8135 15.3036 13.7699C14.5851 13.5568 13.9874 14.1154 13.6601 14.6958C13.3176 15.303 13.1649 16.0461 13.2757 16.7389C13.3294 17.0861 13.4486 17.4165 13.6416 17.7101C13.8615 18.0472 14.1839 18.2972 14.528 18.5002C14.9007 18.7216 15.3086 18.943 15.7384 19.0286C16.0473 19.0906 16.4452 19.0369 16.6349 18.7535C16.6651 18.7082 16.702 18.6746 16.7423 18.6511C16.4787 17.7655 16.5979 16.6282 17.4558 16.1065C17.8234 15.8834 18.2952 15.7995 18.7132 15.9119C19.1916 16.0427 19.519 16.4353 19.6382 16.91C19.7574 17.3897 19.7607 18.0087 19.4417 18.4129C19.1194 18.8205 18.4865 18.8424 18.1793 18.4129C18.0803 18.2737 18.1558 18.0607 18.2935 17.9802C18.4496 17.8896 18.6259 17.9567 18.7249 18.0942C18.7249 18.0942 18.7568 18.1076 18.8105 18.1009C18.8256 18.0976 18.8894 18.0775 18.9113 18.0624C19.0456 17.9634 19.0657 17.7453 19.0724 17.591C19.0858 17.2488 19.0388 16.7993 18.7316 16.603C18.2666 16.3061 17.6119 16.6131 17.3802 17.1129C17.0915 17.7353 17.2761 18.527 17.6169 19.0889C17.9896 19.7012 18.6326 20.0383 19.3461 19.8555C20.0629 19.6743 20.5732 19.0688 20.8318 18.3995C20.8872 18.2553 21.0131 18.1529 21.1692 18.1714C21.1776 18.1714 21.1843 18.168 21.1927 18.168C21.51 18.1781 21.8273 18.1798 22.1446 18.168C23.4254 18.1295 24.6963 17.9315 25.9268 17.5793C26.4993 17.4149 27.0835 17.2354 27.6173 16.9704C28.1058 16.7271 28.5238 16.4 28.779 15.9102L28.7757 15.9052Z" fill="white"/>
<mask id="mask0_8375_32329" style="mask-type:luminance" maskUnits="userSpaceOnUse" x="0" y="0" width="51" height="50">
<path d="M6.1107 14.4911C6.0318 14.4593 6.00662 14.4576 5.92604 14.4677C5.92604 14.4677 5.87232 14.4811 5.86224 14.4844C5.82531 14.4962 5.82867 14.4928 5.78838 14.518C5.75648 14.5381 5.69268 14.6052 5.65575 14.6639C5.44926 15.0011 5.49459 15.4993 5.52145 15.88C5.54831 16.2742 5.62218 16.6651 5.73298 17.0458C5.95625 17.8158 6.33733 18.5488 6.83928 19.1745C7.35131 19.8119 7.97412 20.3554 8.69095 20.7546C9.03846 20.9492 9.40443 21.1069 9.78551 21.2209C10.1918 21.3434 10.7071 21.3551 11.0228 21.6705C11.377 22.0261 11.2779 22.5243 10.9741 22.8715C10.6517 23.2405 10.1817 23.4016 9.71835 23.5055C8.65738 23.7454 7.52757 23.7052 6.4901 23.3713C5.5416 23.0661 4.69046 22.536 3.76882 22.1653C3.53547 22.0714 3.29877 21.9892 3.05535 21.9237C2.8539 21.8684 2.61551 21.7963 2.40567 21.8483C2.06992 21.9288 2.08838 22.3834 2.12867 22.6635C2.3637 24.2855 3.38103 25.7986 4.65521 26.7949C5.29818 27.2998 6.03851 27.6873 6.82249 27.9188C7.83143 28.2174 8.89912 28.2325 9.91645 28.4992C10.3764 28.62 10.922 28.781 11.152 29.2406C11.3619 29.6583 11.2796 30.185 11.011 30.5557C10.7139 30.9633 10.2572 31.1864 9.78886 31.3407C9.27516 31.5101 8.743 31.6276 8.20915 31.7064C7.66523 31.7869 7.11795 31.8305 6.569 31.8289C6.05194 31.8255 5.54496 31.7651 5.03293 31.7114C4.69047 31.6762 4.2691 31.6326 3.96356 31.8071C3.6446 31.9899 3.6278 32.3489 3.74532 32.6676C3.89641 33.0769 4.22376 33.3922 4.5528 33.6623C4.9087 33.9541 5.3116 34.1907 5.72793 34.3869C6.61096 34.8063 7.58465 35.0344 8.5449 35.1904C10.7021 35.541 12.9349 35.4168 15.0451 34.8549C15.134 34.8314 15.2079 34.8448 15.27 34.8784C15.317 34.8918 15.359 34.917 15.3892 34.9556C15.5252 35.125 15.6729 35.2843 15.8341 35.4303C16.477 36.0207 17.2996 36.3847 18.1239 36.6397C19.0439 36.9232 19.9991 37.0976 20.951 37.2351C22.9537 37.527 24.9968 37.5673 27.0113 37.3861C29.0191 37.205 31.0067 36.7856 32.9172 36.1499C33.8741 35.8312 34.8142 35.4571 35.7241 35.026C36.597 34.6134 37.4649 34.1571 38.2304 33.565C38.9792 32.9879 39.6137 32.2734 40.0049 31.4078C40.3709 30.5993 40.4833 29.6717 40.2181 28.8179V28.8146C39.9999 28.9571 39.7749 29.0896 39.5466 29.2087C38.4302 29.7958 37.2081 30.2068 36.0044 30.5758C33.3956 31.3726 30.6878 31.8305 27.9682 32.0335C25.1881 32.2415 22.3225 32.2784 19.5895 31.6645C19.1933 31.5756 19.3628 30.9667 19.7573 31.0573C20.0847 31.1311 20.4121 31.1948 20.7428 31.2485C22.0875 31.4716 23.4573 31.5319 24.8188 31.5269C26.1467 31.5219 27.4729 31.4582 28.7958 31.334C31.4147 31.0858 34.0151 30.5809 36.5131 29.7539C38.5377 29.0846 41.0676 28.2124 41.7223 25.9344C42.0295 24.8726 41.9388 23.7253 41.7458 22.6501C41.588 21.7661 41.3261 20.9022 40.9097 20.1088C40.0838 18.5337 38.7122 17.3998 37.1644 16.5577C36.9932 16.6818 36.8052 16.7842 36.6037 16.8647C36.0229 17.0962 35.3413 17.1062 34.747 16.9217C34.5707 16.8664 34.4062 16.7875 34.2383 16.7104C34.1242 16.66 33.9882 16.5879 33.8757 16.6701C33.7414 16.7691 33.6323 16.8915 33.4812 16.972C33.3436 17.0442 33.1942 17.0978 33.0431 17.1314C32.3749 17.2773 31.6329 17.1431 30.9883 16.9502C30.4074 16.7758 29.8534 16.5124 29.3532 16.1719C29.2138 16.4487 29.0308 16.7037 28.7941 16.9268C28.3459 17.3461 27.7818 17.6044 27.2111 17.8174C26.5748 18.054 25.9234 18.2469 25.2603 18.3962C23.9778 18.688 22.6566 18.8206 21.3404 18.7954C20.8855 19.7733 19.9974 20.5835 18.8542 20.5281C18.0232 20.4896 17.3886 19.9662 17.0075 19.2785C16.195 20.1122 14.7731 19.4378 13.9572 18.8776C13.5795 18.6176 13.2521 18.2955 13.0238 17.898C13.0205 17.898 13.0171 17.9013 13.0138 17.9013C12.4346 18.0355 11.8487 18.0607 11.2595 17.9751C9.27852 17.6866 7.68034 16.1954 6.40448 14.7444C6.29032 14.7243 6.19799 14.6337 6.15099 14.518C6.14763 14.518 6.11238 14.4911 6.11238 14.4895L6.1107 14.4911ZM39.837 10.769C39.7867 10.9166 39.7262 11.0608 39.6624 11.2034C39.513 11.5356 39.33 11.8509 39.1336 12.1579C38.7861 12.703 38.3899 13.2197 37.9702 13.7128C37.9937 13.7615 38.0156 13.8084 38.034 13.8588C38.2506 14.4341 38.1801 15.09 37.9299 15.6418C37.8544 15.8113 37.7554 15.9639 37.6446 16.1048C37.7587 16.1686 37.8712 16.234 37.982 16.3011C38.5679 16.65 39.1168 17.0492 39.6205 17.4971C39.6272 17.4786 39.6372 17.4585 39.649 17.4417C40.1409 16.7238 40.485 15.9253 40.6663 15.0749C40.8225 14.3469 40.8544 13.5837 40.7503 12.8456C40.6512 12.1394 40.438 11.3863 39.9394 10.8562C39.9176 10.8327 39.8756 10.8025 39.8404 10.7706L39.837 10.769ZM35.4219 14.2865C35.4219 14.2865 35.4622 14.2563 35.4655 14.2597C35.4739 14.2496 35.479 14.2395 35.4739 14.2479C35.4823 14.2312 35.4924 14.2144 35.5008 14.1993C35.5763 14.045 35.7946 14.0047 35.9339 14.0869C36.0883 14.1758 36.1202 14.3637 36.0464 14.518C35.7476 15.1336 34.8293 15.0044 34.4986 14.4945C34.0839 13.8588 34.5875 13.0268 35.1768 12.7215C35.296 12.6594 35.4185 12.6141 35.5444 12.5806C35.5495 12.542 35.5629 12.5017 35.5881 12.4699C35.8751 12.0572 35.8735 11.5137 35.6535 11.0675C35.4454 10.6465 35.0912 10.3245 34.7017 10.0729C34.3223 9.82963 33.8438 9.5126 33.3889 9.73737C33.0347 9.91183 32.6116 10.3077 32.6653 10.7455C32.6821 10.883 32.7694 10.9971 32.8869 11.0675C33.0229 11.1514 33.1169 11.1548 33.2311 11.0759C33.3721 10.9787 33.582 11.0508 33.6625 11.19C33.7532 11.3443 33.6894 11.5238 33.5501 11.6211C32.981 12.0153 32.1651 11.5322 32.0543 10.9015C31.9317 10.2137 32.4119 9.57801 32.9793 9.2442C33.085 9.18214 33.1958 9.13517 33.3066 9.09827C33.1421 8.52627 32.714 8.05828 32.1634 7.82344C31.6682 7.61209 30.8523 7.55673 30.5081 8.06834C30.2815 8.40214 29.7359 8.08679 29.9642 7.74963C29.9911 7.71105 30.0196 7.67248 30.0498 7.63725C29.7678 6.90926 29.4623 6.1779 28.9301 5.59416C28.0437 4.62629 26.7276 4.10127 25.4198 4.17676C24.1624 4.24888 22.9806 4.86953 22.1412 5.79378C22.398 5.90281 22.6532 6.02022 22.9033 6.141C24.8876 7.11725 26.6201 8.58834 27.9161 10.3765C28.5994 11.3208 29.234 12.3927 29.5345 13.5266C29.7074 14.1808 29.7426 14.9004 29.5781 15.5597C30.0666 15.9069 30.6055 16.1769 31.1813 16.3497C31.732 16.5107 32.4035 16.66 32.9709 16.499C33.0884 16.4655 33.2009 16.4168 33.2982 16.3413C33.4158 16.2524 33.5114 16.14 33.6457 16.0746C33.963 15.922 34.2837 16.0394 34.5825 16.1786C35.0274 16.3866 35.5226 16.4772 36.0111 16.3816C36.4728 16.291 36.9177 16.0595 37.193 15.667C37.4549 15.2946 37.5892 14.8182 37.5203 14.3637C37.3944 13.5149 36.5064 12.963 35.7039 13.1878C35.3564 13.2851 34.9317 13.6223 34.9921 14.0349C35.0173 14.2043 35.1214 14.2613 35.2641 14.2949C35.2674 14.2949 35.3178 14.3033 35.3648 14.2999C35.3682 14.2999 35.3782 14.2999 35.3849 14.2966C35.3984 14.2932 35.4135 14.2882 35.4269 14.2832L35.4219 14.2865ZM50.0002 3.88825V46.0718C50.0002 48.2155 48.256 49.96 46.1089 49.96H13.0524C13.0524 49.96 13.0406 49.96 13.0389 49.96C13.0389 49.96 13.0401 49.96 13.0423 49.96H3.89137C1.74591 49.96 0 48.2172 0 46.0718V3.88825C0 1.74452 1.74423 0 3.89137 0H46.1089C48.2543 0 50.0002 1.74284 50.0002 3.88825ZM49.369 46.0718V3.88825C49.369 2.09174 47.9068 0.630708 46.1089 0.630708H3.89137C2.09341 0.630708 0.631216 2.09174 0.631216 3.88825V46.0718C0.631216 47.8683 2.09341 49.3293 3.89137 49.3293H12.8492C12.9449 48.5191 13.0675 47.7122 13.2639 46.9188C13.4385 46.216 13.655 45.5216 13.8498 44.8237C14.1133 43.8727 14.3585 42.9232 14.6942 41.994C15.3372 40.2193 16.2135 38.5351 17.3987 37.0624C16.4972 36.7252 15.6645 36.2421 15.0333 35.5074C14.5532 35.6299 14.0697 35.7322 13.5812 35.8093C11.3719 36.1566 9.05524 36.0811 6.89468 35.4823C5.92771 35.2139 4.996 34.8096 4.20195 34.189C3.5103 33.6488 2.69945 32.6726 3.17454 31.745C3.62949 30.8593 4.76265 31.0623 5.56678 31.1462C6.6714 31.2602 7.79449 31.1948 8.87729 30.9398C9.34567 30.8291 9.88119 30.7151 10.2723 30.4198C10.5309 30.2236 10.7827 29.7958 10.5594 29.4838C10.4402 29.3161 10.2102 29.249 10.0239 29.1903C9.75529 29.1064 9.47997 29.0427 9.20297 28.9907C8.65738 28.8867 8.10506 28.8297 7.55779 28.734C5.75983 28.4237 4.13144 27.4709 2.9966 26.0384C2.44428 25.339 2.0078 24.5573 1.73416 23.7085C1.49578 22.9755 1.16003 21.6805 2.10181 21.2897C2.58194 21.0884 3.16615 21.2813 3.63116 21.4457C4.12472 21.6185 4.59813 21.8449 5.0665 22.0747C6.02004 22.5394 6.96854 22.9654 8.0463 23.0208C8.58854 23.0493 9.13079 23.0006 9.6596 22.8715C9.992 22.7893 10.504 22.635 10.6131 22.2727C10.6266 22.224 10.6366 22.2005 10.5913 22.1385C10.5561 22.0915 10.5023 22.0647 10.4469 22.0412C10.2455 21.959 10.0172 21.9388 9.80733 21.8835C9.38596 21.7728 8.97466 21.6118 8.58519 21.4155C7.02562 20.6254 5.8102 19.1946 5.22935 17.5541C4.93724 16.7305 4.78112 15.7878 4.91374 14.9172C4.98257 14.461 5.23438 14.0014 5.70779 13.8705C6.02172 13.7833 6.33733 13.8554 6.55389 14.06C6.61433 14.0701 6.67141 14.0986 6.71338 14.1456C7.0827 14.5733 7.46714 14.9893 7.87676 15.3785C9.18451 16.6282 10.8868 17.7051 12.7636 17.3075C12.7149 17.1482 12.6763 16.9838 12.6512 16.8177C12.5991 16.8311 12.5454 16.8328 12.4917 16.8228C11.7681 16.6835 11.0916 16.2709 10.6316 15.6955C10.2119 15.1705 9.96681 14.5364 9.9601 13.8604C9.95338 13.2063 10.1632 12.5403 10.5577 12.017C11.288 11.0525 12.5958 10.6717 13.7222 11.0457C13.7222 10.9065 13.7188 10.7656 13.7222 10.6264C13.7289 9.54278 13.8162 8.42229 14.2443 7.41249C14.6791 6.39094 15.4832 5.61764 16.5274 5.23519C17.5565 4.85945 18.7014 4.88462 19.7657 5.07417C20.3584 5.17984 20.9426 5.3459 21.51 5.55222C22.0405 4.90139 22.7271 4.37133 23.4943 4.02746C24.8843 3.40011 26.4439 3.38502 27.8322 4.02746C28.4953 4.33443 29.0997 4.79571 29.5563 5.36603C30.0062 5.92629 30.2966 6.57209 30.5585 7.23131C31.0924 6.97299 31.7706 6.99144 32.3178 7.20951C33.1052 7.52318 33.7431 8.18912 33.9345 9.02448C33.9345 9.02951 33.9345 9.03621 33.9379 9.04124C33.9697 9.04628 34.0016 9.05131 34.0335 9.05969C34.3659 9.13686 34.6866 9.32137 34.972 9.50085C35.5276 9.84976 36.0229 10.3161 36.2747 10.935C36.4778 11.4349 36.498 12.0287 36.2747 12.5236C36.7733 12.5772 37.2484 12.8121 37.5975 13.1761C38.0877 12.594 38.5393 11.97 38.9036 11.3024C38.9926 11.1397 39.0782 10.9736 39.1504 10.8025C39.2142 10.6499 39.2495 10.4805 39.3334 10.3379C39.466 10.1098 39.7212 10.0091 39.9713 10.098C40.161 10.1668 40.3155 10.3328 40.4464 10.4821C41.0222 11.1447 41.2707 12.0086 41.3781 12.8641C41.5846 14.4861 41.1985 16.1786 40.3188 17.5575C40.5455 17.5642 40.7738 17.5491 40.997 17.5054C42.1185 17.2824 43.0552 16.5393 43.7234 15.6351C44.0709 15.1655 44.3646 14.6539 44.6248 14.1305C44.8565 13.6675 45.1302 13.1375 45.6237 12.9026C45.8856 12.7785 46.1693 12.7651 46.4312 12.8993C46.678 13.0251 46.8257 13.265 46.9315 13.5115C47.1732 14.0785 47.331 14.6824 47.4133 15.293C47.5828 16.5242 47.4569 17.799 47.0087 18.9598C46.6142 19.9796 45.9981 20.9089 45.2074 21.6638C44.8145 22.0395 44.3781 22.375 43.9131 22.6568C43.6864 22.7943 43.4514 22.9118 43.2147 23.0275C43.0905 23.0879 42.7698 23.2338 42.7749 23.3865C42.7749 23.4116 42.8386 23.4737 42.8873 23.5039C42.9914 23.5726 43.1106 23.6079 43.2298 23.6431C43.5202 23.7303 43.8174 23.7773 44.1195 23.7924C44.7558 23.8259 45.3904 23.7538 46.0216 23.7018C46.5823 23.6548 47.3528 23.5106 47.7104 24.0692C48.0075 24.5304 47.8632 25.1813 47.6248 25.6359C47.0993 26.6373 45.941 27.2126 44.927 27.5833C43.772 28.0077 42.513 28.1687 41.2875 28.0496C41.2539 28.0463 41.222 28.0379 41.1918 28.0262C41.0323 28.1855 40.8644 28.3348 40.6881 28.474C40.7469 28.5093 40.7973 28.5663 40.8225 28.6502C40.8963 28.885 40.9416 29.1249 40.9702 29.3681C41.081 30.341 40.7989 31.3407 40.3138 32.1794C39.8068 33.0584 39.053 33.7663 38.2271 34.3433C37.7671 34.6637 37.2819 34.9455 36.785 35.2038C37.1241 35.7473 37.4549 36.2958 37.7688 36.8561C38.3194 37.839 38.8147 38.8539 39.2142 39.909C39.5768 40.8701 40.7503 44.9311 40.4464 45.2397C40.5438 45.8889 40.616 46.5414 40.6479 47.1973C40.6814 47.9068 40.6831 48.6197 40.6865 49.3293H46.1089C47.9068 49.3293 49.369 47.8683 49.369 46.0718ZM46.7518 25.7768C47.0389 25.4681 47.2874 25.0387 47.2387 24.6009C47.2135 24.3711 47.0809 24.2939 46.861 24.2889C46.5638 24.2805 46.26 24.3141 45.9628 24.3392C45.3601 24.3895 44.7541 24.455 44.1464 24.4264C43.6226 24.3996 42.978 24.3275 42.5281 24.0172C42.5768 25.0085 42.4643 26.0049 42.0127 26.904C41.9187 27.0952 41.8062 27.2764 41.6853 27.4475C41.8498 27.4559 42.0127 27.4609 42.1755 27.4575C43.3322 27.4424 44.4906 27.1656 45.523 26.6423C45.9729 26.4158 46.406 26.1475 46.7502 25.7768H46.7518ZM46.6024 18.1865C46.918 17.0727 46.9432 15.88 46.6746 14.7528C46.6058 14.4643 46.5185 14.1808 46.4127 13.9024C46.3506 13.738 46.2717 13.478 46.0753 13.4361C45.9511 13.4075 45.7782 13.54 45.6623 13.6625C45.5012 13.8302 45.3786 14.0332 45.2745 14.2412C44.7743 15.2544 44.19 16.244 43.3322 16.9972C42.5012 17.7252 41.4302 18.2184 40.3121 18.1898C40.8997 18.8424 41.3899 19.5821 41.7424 20.4124C42.0698 21.1857 42.2763 21.9959 42.4038 22.8212C42.476 22.749 42.5583 22.6853 42.6405 22.6299C42.847 22.4907 43.0821 22.4001 43.2986 22.2827C43.5269 22.1586 43.7485 22.0227 43.9601 21.8751C44.3781 21.5866 44.7575 21.2461 45.0999 20.872C45.7983 20.1088 46.3204 19.1845 46.6007 18.1865H46.6024ZM28.7757 15.9052C29.3045 14.8887 29.0073 13.6743 28.549 12.693C28.1092 11.7486 27.5351 10.8596 26.8669 10.0611C25.5424 8.47427 23.8435 7.20112 21.9364 6.39429C21.0114 6.00345 20.0192 5.69649 19.0153 5.60423C18.045 5.51365 17.0109 5.59752 16.1547 6.1041C14.3333 7.17932 14.3198 9.57299 14.3585 11.4366C14.3585 11.4601 14.3584 11.4819 14.3534 11.502C14.3618 11.7184 14.1318 11.9465 13.8834 11.8056C13.3579 11.5087 12.7284 11.4634 12.1542 11.6362C11.0966 11.9532 10.4805 13.0452 10.6047 14.1204C10.7239 15.1688 11.6036 15.9924 12.6092 16.2088C12.626 15.3282 12.9516 14.419 13.5476 13.7732C13.885 13.4059 14.3316 13.1492 14.8302 13.1006C15.2751 13.057 15.7518 13.1945 16.0758 13.5082C16.6936 14.1037 16.4854 15.3735 15.5688 15.5429C15.3993 15.5731 15.2297 15.4993 15.181 15.3215C15.1391 15.1671 15.2348 14.9642 15.4026 14.934C15.6595 14.887 15.8072 14.6522 15.8123 14.3838C15.8123 14.2462 15.7871 14.1322 15.6914 14.0164C15.5923 13.8957 15.4513 13.8135 15.3036 13.7699C14.5851 13.5568 13.9874 14.1154 13.6601 14.6958C13.3176 15.303 13.1649 16.0461 13.2757 16.7389C13.3294 17.0861 13.4486 17.4165 13.6416 17.7101C13.8615 18.0472 14.1839 18.2972 14.528 18.5002C14.9007 18.7216 15.3086 18.943 15.7384 19.0286C16.0473 19.0906 16.4452 19.0369 16.6349 18.7535C16.6651 18.7082 16.702 18.6746 16.7423 18.6511C16.4787 17.7655 16.5979 16.6282 17.4558 16.1065C17.8234 15.8834 18.2952 15.7995 18.7132 15.9119C19.1916 16.0427 19.519 16.4353 19.6382 16.91C19.7574 17.3897 19.7607 18.0087 19.4417 18.4129C19.1194 18.8205 18.4865 18.8424 18.1793 18.4129C18.0803 18.2737 18.1558 18.0607 18.2935 17.9802C18.4496 17.8896 18.6259 17.9567 18.7249 18.0942C18.7249 18.0942 18.7568 18.1076 18.8105 18.1009C18.8256 18.0976 18.8894 18.0775 18.9113 18.0624C19.0456 17.9634 19.0657 17.7453 19.0724 17.591C19.0858 17.2488 19.0388 16.7993 18.7316 16.603C18.2666 16.3061 17.6119 16.6131 17.3802 17.1129C17.0915 17.7353 17.2761 18.527 17.6169 19.0889C17.9896 19.7012 18.6326 20.0383 19.3461 19.8555C20.0629 19.6743 20.5732 19.0688 20.8318 18.3995C20.8872 18.2553 21.0131 18.1529 21.1692 18.1714C21.1776 18.1714 21.1843 18.168 21.1927 18.168C21.51 18.1781 21.8273 18.1798 22.1446 18.168C23.4254 18.1295 24.6963 17.9315 25.9268 17.5793C26.4993 17.4149 27.0835 17.2354 27.6173 16.9704C28.1058 16.7271 28.5238 16.4 28.779 15.9102L28.7757 15.9052Z" fill="white"/>
</mask>
<g mask="url(#mask0_8375_32329)">
<path d="M12.5237 49.3308H41.2876L40.8763 37.9345L36.7885 35.207C36.7885 35.207 32.2475 37.9378 25.8497 38.1106C19.4519 38.2834 17.3988 37.0639 17.3988 37.0639L14.696 37.4967L12.5237 49.3308Z" fill="#252525"/>
</g>
<path d="M37.7705 19.0005C38.1163 19.0441 38.4537 19.18 38.7391 19.4098C39.4291 19.965 39.7128 21.0151 39.2041 21.78C38.724 22.503 37.8527 22.9861 36.9764 22.8653C36.1186 22.7462 35.3933 22.035 35.3765 21.1526C35.3614 20.3609 35.8701 19.5021 36.6188 19.2035C36.8958 19.0643 37.1997 18.9905 37.5052 18.9871C37.5186 18.9838 37.5287 18.9787 37.5405 18.9737C37.621 18.9452 37.7033 18.9603 37.7721 19.0005H37.7705ZM38.3782 20.0707C38.3782 20.0539 38.3782 20.0372 38.3748 20.0221C38.3647 19.9852 38.3563 19.9533 38.3429 19.9181C38.3396 19.9097 38.3396 19.903 38.3379 19.8946C38.2791 19.8459 38.2153 19.8006 38.1499 19.7637C37.987 19.6715 37.8091 19.6212 37.6294 19.6094C37.6261 19.6128 37.621 19.6128 37.6177 19.6145C37.6059 19.6178 37.5959 19.6229 37.5841 19.6279H37.5808C37.522 19.6564 37.4649 19.6849 37.4112 19.7201C37.3995 19.7269 37.3894 19.7336 37.3776 19.742C37.3558 19.7621 37.334 19.7839 37.3138 19.8057L37.3105 19.809L37.2954 19.8325C37.2887 19.8426 37.2836 19.8543 37.2769 19.8644C37.2736 19.8795 37.2685 19.8946 37.2635 19.9097C37.2635 19.9063 37.2635 19.9013 37.2635 19.8979C37.2601 19.9013 37.2601 19.913 37.2584 19.9265C37.2584 19.9231 37.2584 19.9181 37.2618 19.9097C37.2618 19.9198 37.2584 19.9265 37.2584 19.9298C37.2584 19.9466 37.2584 19.9634 37.2618 19.9785C37.2685 19.9952 37.2769 20.0221 37.2803 20.0305C37.2836 20.0389 37.2836 20.0439 37.2853 20.0472C37.2887 20.0556 37.2937 20.0623 37.2971 20.069C37.3088 20.0908 37.3222 20.111 37.3357 20.1311C37.3407 20.1361 37.3743 20.1764 37.381 20.1848C37.3927 20.1948 37.4028 20.2049 37.4146 20.2133L37.4179 20.2167C37.4481 20.2368 37.4784 20.2552 37.5102 20.2737C37.5237 20.2804 37.5388 20.2871 37.5522 20.2938C37.5556 20.2938 37.5556 20.2938 37.5606 20.2972C37.5942 20.3089 37.6294 20.3206 37.6647 20.3307C37.7 20.3408 37.7352 20.3492 37.7721 20.3559C37.7822 20.3592 37.841 20.3643 37.8477 20.3676C37.9165 20.3743 37.987 20.3794 38.0558 20.3777C38.0743 20.3777 38.0928 20.3777 38.1096 20.3743C38.1129 20.3743 38.118 20.3743 38.123 20.371C38.1465 20.3643 38.1667 20.3575 38.1885 20.3508C38.1952 20.3458 38.2405 20.324 38.2489 20.3173C38.2539 20.3139 38.2573 20.3139 38.259 20.3106C38.2674 20.3039 38.2741 20.2972 38.2825 20.2905C38.2926 20.2804 38.3245 20.2368 38.3261 20.2368C38.3345 20.2234 38.3429 20.2083 38.3496 20.1948C38.3496 20.1915 38.3698 20.1328 38.3731 20.1227C38.3731 20.1177 38.3731 20.1143 38.3765 20.1127C38.3765 20.0992 38.3765 20.0858 38.3798 20.0741L38.3782 20.0707ZM36.8858 22.201C36.8639 22.1926 36.8421 22.1842 36.8203 22.1759C36.8119 22.1725 36.8052 22.1675 36.7968 22.1624C36.7783 22.1591 36.7632 22.1541 36.7464 22.1507C36.7917 22.1692 36.8387 22.1859 36.8858 22.1993V22.201Z" fill="white"/>
<path d="M37.5168 14.365C37.5857 14.8195 37.4514 15.2959 37.1895 15.6683C36.9142 16.0608 36.471 16.2923 36.0076 16.3829C35.5191 16.4785 35.0239 16.3879 34.579 16.1799C34.2819 16.0407 33.9612 15.9233 33.6423 16.0759C33.508 16.1413 33.4106 16.2537 33.2948 16.3426C33.1957 16.4181 33.0832 16.4668 32.9674 16.5003C32.4016 16.6597 31.7285 16.512 31.1778 16.351C30.602 16.1799 30.0631 15.9099 29.5746 15.561C29.7391 14.9017 29.7039 14.1821 29.531 13.5279C29.2288 12.394 28.5959 11.3221 27.9126 10.3778C26.615 8.58796 24.8842 7.11687 22.8999 6.1423C22.6497 6.01984 22.3945 5.90243 22.1377 5.79508C22.9788 4.86915 24.1589 4.25018 25.4163 4.17805C26.7241 4.10257 28.0402 4.62759 28.9266 5.59546C29.4605 6.17752 29.766 6.90888 30.0464 7.63855C30.0161 7.67378 29.9876 7.71235 29.9607 7.75093C29.7324 8.08809 30.278 8.40344 30.5046 8.06964C30.8488 7.55971 31.6647 7.61339 32.1599 7.82474C32.7105 8.05958 33.1386 8.52757 33.3031 9.09957C33.1907 9.13647 33.0815 9.18344 32.9758 9.2455C32.41 9.57931 31.9282 10.215 32.0508 10.9028C32.1633 11.5352 32.9775 12.0166 33.5466 11.6224C33.6859 11.5251 33.7497 11.3456 33.659 11.1913C33.5785 11.0521 33.3686 10.98 33.2276 11.0772C33.1134 11.1561 33.0194 11.1544 32.8835 11.0688C32.7676 10.9967 32.6786 10.8843 32.6619 10.7468C32.6081 10.309 33.0312 9.91312 33.3854 9.73867C33.8403 9.51222 34.3171 9.83093 34.6982 10.0742C35.0877 10.3258 35.4419 10.6478 35.6501 11.0688C35.87 11.5134 35.8717 12.0585 35.5846 12.4712C35.5611 12.5047 35.546 12.5433 35.5409 12.5819C35.4167 12.6154 35.2942 12.6607 35.1733 12.7228C34.584 13.0281 34.0804 13.8601 34.4951 14.4958C34.8275 15.0057 35.7441 15.1332 36.0429 14.5193C36.1167 14.365 36.0849 14.1771 35.9304 14.0882C35.7911 14.006 35.5728 14.0463 35.4973 14.2006C35.4889 14.2174 35.4788 14.2341 35.4704 14.2492C35.4755 14.2408 35.4704 14.2492 35.462 14.261C35.4587 14.2576 35.4184 14.2828 35.4184 14.2878C35.405 14.2928 35.3898 14.2962 35.3764 14.3012C35.368 14.3012 35.3596 14.3046 35.3563 14.3046C35.3093 14.3079 35.2572 14.2995 35.2555 14.2995C35.1145 14.266 35.0088 14.209 34.9836 14.0395C34.9231 13.6252 35.3462 13.2897 35.6954 13.1925C36.4978 12.966 37.3859 13.5196 37.5118 14.3683L37.5168 14.365Z" fill="#F9F8F4"/>
<path d="M28.5523 12.6928C29.0106 13.6741 29.3061 14.8885 28.7789 15.905C28.5238 16.3948 28.1058 16.7219 27.6172 16.9651C27.0834 17.2302 26.4992 17.4097 25.9267 17.574C24.6945 17.9263 23.4254 18.1242 22.1445 18.1628C21.8272 18.1729 21.5116 18.1712 21.1926 18.1628C21.1842 18.1628 21.1775 18.1628 21.1691 18.1662C21.0147 18.1477 20.8871 18.25 20.8317 18.3943C20.5732 19.0636 20.0628 19.6691 19.346 19.8503C18.6325 20.0331 17.9879 19.696 17.6169 19.0837C17.2744 18.5218 17.0914 17.73 17.3802 17.1077C17.6118 16.6079 18.2665 16.3009 18.7316 16.5978C19.0388 16.794 19.0841 17.2436 19.0724 17.5858C19.0656 17.7401 19.0455 17.9582 18.9112 18.0571C18.8894 18.0739 18.8256 18.094 18.8105 18.0957C18.7568 18.1024 18.7249 18.089 18.7249 18.089C18.6258 17.9515 18.4495 17.8844 18.2934 17.9749C18.1558 18.0555 18.0802 18.2668 18.1793 18.4077C18.4865 18.8371 19.1194 18.8136 19.4417 18.4077C19.7606 18.0035 19.7573 17.3845 19.6381 16.9048C19.5189 16.4301 19.1915 16.0392 18.7131 15.9067C18.2951 15.7926 17.8234 15.8782 17.4557 16.1013C16.5995 16.6213 16.4787 17.7586 16.7422 18.6459C16.7019 18.6694 16.665 18.7029 16.6348 18.7482C16.4451 19.03 16.0472 19.0854 15.7383 19.0233C15.3086 18.9378 14.9023 18.7164 14.5279 18.4949C14.1855 18.292 13.8615 18.042 13.6416 17.7049C13.4485 17.4097 13.3293 17.0792 13.2756 16.7337C13.1648 16.0409 13.3192 15.2978 13.66 14.6906C13.9874 14.1102 14.5867 13.5516 15.3035 13.7647C15.4529 13.8083 15.5923 13.8905 15.6913 14.0112C15.787 14.1286 15.8139 14.2427 15.8122 14.3786C15.8088 14.647 15.6594 14.8835 15.4026 14.9288C15.2347 14.9606 15.1407 15.1636 15.181 15.3163C15.2297 15.4924 15.4009 15.5679 15.5688 15.5377C16.4854 15.3682 16.6935 14.0984 16.0758 13.503C15.7518 13.1893 15.275 13.0517 14.8301 13.0953C14.3299 13.144 13.885 13.4023 13.5475 13.768C12.9499 14.4155 12.6259 15.323 12.6091 16.2036C11.6035 15.9872 10.7256 15.1653 10.6047 14.1152C10.4805 13.0417 11.0966 11.9497 12.1542 11.631C12.7283 11.4582 13.3562 11.5052 13.8833 11.8004C14.1318 11.9413 14.3617 11.7132 14.3533 11.4968C14.3567 11.4767 14.3601 11.4532 14.3584 11.4314C14.3198 9.56944 14.3315 7.17577 16.1547 6.09887C17.0108 5.59397 18.045 5.50843 19.0153 5.59901C20.0192 5.69294 21.0113 5.99823 21.9363 6.38906C23.8434 7.19422 25.5406 8.46737 26.8668 10.0559C27.535 10.856 28.1091 11.7434 28.549 12.6877L28.5523 12.6928Z" fill="#F9F8F4"/>
<path d="M20.3232 24.0218C20.3232 24.0218 20.3366 24.0218 20.3567 24.0252C20.4189 24.0302 20.481 24.0302 20.5431 24.0285H20.5649C20.5934 24.0235 20.622 24.0185 20.6505 24.0101C20.6807 24.0017 20.711 23.9916 20.7429 23.9833C20.7529 23.9799 20.7596 23.9782 20.7647 23.9766C20.7697 23.9732 20.7748 23.9698 20.7848 23.9648C20.8134 23.948 20.8386 23.9329 20.8671 23.9162C20.8772 23.9094 20.8839 23.9061 20.8872 23.9044C20.8906 23.9011 20.8956 23.8944 20.904 23.886C20.9225 23.8675 20.941 23.8491 20.9577 23.8289C20.9611 23.8239 20.9661 23.8172 20.9678 23.8155C20.9796 23.7954 20.9913 23.7769 21.0014 23.7568C21.0014 23.7518 21.0215 23.7098 21.0249 23.7048C21.0316 23.6813 21.0366 23.6562 21.0417 23.6327C21.0417 23.6327 21.0417 23.6316 21.0417 23.6293C21.0417 23.6293 21.0417 23.6209 21.0383 23.6159C21.0383 23.5991 21.0383 23.584 21.0383 23.5689C21.0383 23.5656 21.0383 23.5606 21.035 23.5555C21.035 23.5522 21.0165 23.5035 21.0165 23.4968C20.998 23.4582 20.9762 23.423 20.951 23.3895C20.9443 23.3844 20.9158 23.3509 20.9158 23.3492L20.8671 23.3006C20.8503 23.2855 20.8335 23.2704 20.815 23.2553L20.805 23.2452C20.805 23.2452 20.7966 23.2418 20.7899 23.2368C20.7412 23.2083 20.6959 23.1781 20.6455 23.1529C20.6388 23.1496 20.5968 23.1345 20.5951 23.1328C20.5767 23.1261 20.5582 23.1194 20.5414 23.1144C20.5045 23.1026 20.4675 23.0959 20.4289 23.0875C20.4155 23.0842 20.3886 23.0808 20.3819 23.0791C20.3584 23.0791 20.3349 23.0791 20.3131 23.0791C20.2678 23.0791 20.2241 23.0859 20.1788 23.0942C20.1486 23.1026 20.1167 23.111 20.0881 23.1227C20.0747 23.1295 20.0495 23.1412 20.0445 23.1445C20.021 23.158 20.0008 23.1714 19.979 23.1865C19.9706 23.1932 19.9505 23.21 19.9454 23.215C19.9303 23.2284 19.9152 23.2452 19.9018 23.262C19.9018 23.2653 19.8733 23.3073 19.8615 23.3257C19.8615 23.3291 19.838 23.3895 19.838 23.3895C19.8296 23.4129 19.8246 23.4347 19.8212 23.4582C19.8179 23.4716 19.8162 23.4817 19.8145 23.4867V23.5153C19.8145 23.579 19.8111 23.6394 19.8145 23.7015C19.8145 23.7132 19.8145 23.7149 19.8145 23.7166C19.8145 23.7233 19.8179 23.7266 19.8179 23.735C19.8212 23.7484 19.8246 23.7585 19.8263 23.7719C19.8447 23.7903 19.8649 23.8088 19.885 23.8256C19.8884 23.8256 19.8934 23.8306 19.8984 23.834C19.9219 23.8507 19.9471 23.8675 19.9723 23.8826C19.9975 23.8994 20.026 23.9145 20.0512 23.9279C20.0512 23.9279 20.0764 23.9413 20.0932 23.9497C20.1066 23.9547 20.1452 23.9698 20.1452 23.9698C20.1738 23.9799 20.204 23.99 20.2325 23.9983C20.2694 24.0084 20.3064 24.0168 20.345 24.0235C20.3366 24.0235 20.3265 24.0235 20.3265 24.0235L20.3232 24.0218ZM21.547 22.7084C22.3293 23.3307 22.655 24.515 22.0758 25.3789C21.5201 26.2092 20.5145 26.7527 19.5056 26.5883C18.5705 26.4356 17.7933 25.6372 17.7765 24.676C17.7597 23.7904 18.3288 22.8225 19.1715 22.487C19.9219 22.1029 20.8621 22.1633 21.547 22.7084ZM21.4748 25.1574C21.4597 25.1709 21.4446 25.186 21.4278 25.2011C21.4244 25.2094 21.4244 25.2162 21.4211 25.2245C21.4395 25.2027 21.458 25.1809 21.4748 25.1591V25.1574Z" fill="white"/>
<path d="M20.0746 27.5729C21.7241 27.5729 23.0612 26.2969 23.0612 24.723C23.0612 23.149 21.7241 21.873 20.0746 21.873C18.4252 21.873 17.0881 23.149 17.0881 24.723C17.0881 26.2969 18.4252 27.5729 20.0746 27.5729Z" fill="white"/>
<path d="M37.3878 23.9256C38.8833 23.9256 40.0956 22.7683 40.0956 21.3408C40.0956 19.9132 38.8833 18.7559 37.3878 18.7559C35.8923 18.7559 34.6799 19.9132 34.6799 21.3408C34.6799 22.7683 35.8923 23.9256 37.3878 23.9256Z" fill="white"/>
<path d="M37.5035 19.2791C37.517 19.2758 37.527 19.2707 37.5388 19.2657C37.6194 19.2372 37.7016 19.2523 37.7705 19.2925C38.1163 19.3361 38.4537 19.472 38.7391 19.7018C39.4291 20.257 39.7128 21.3071 39.2041 22.072C38.724 22.7949 37.8527 23.2781 36.9764 23.1573C36.1186 23.0382 35.3933 22.327 35.3765 21.4446C35.3614 20.6529 35.8701 19.7941 36.6205 19.4955C36.8958 19.3563 37.1997 19.2825 37.5052 19.2791H37.5035ZM38.3765 20.3627C38.3765 20.3459 38.3765 20.3292 38.3731 20.3141C38.3631 20.2772 38.3547 20.2453 38.3412 20.2101C38.3379 20.2017 38.3379 20.195 38.3362 20.1866C38.2774 20.1379 38.2137 20.0926 38.1482 20.0557C37.9853 19.9635 37.8074 19.9132 37.6278 19.9014C37.6244 19.9048 37.6194 19.9048 37.616 19.9065C37.6043 19.9098 37.5942 19.9148 37.5824 19.9199H37.5791C37.5203 19.9484 37.4632 19.9769 37.4095 20.0121C37.3978 20.0189 37.3877 20.0256 37.3759 20.0339C37.3541 20.0541 37.3323 20.0759 37.3122 20.0977L37.3088 20.101L37.2937 20.1245C37.287 20.1346 37.2819 20.1463 37.2752 20.1564C37.2719 20.1715 37.2668 20.1866 37.2618 20.2017C37.2618 20.1983 37.2618 20.1933 37.2618 20.1899C37.2584 20.1933 37.2584 20.205 37.2568 20.2185C37.2568 20.2151 37.2568 20.2101 37.2601 20.2017C37.2601 20.2118 37.2568 20.2185 37.2568 20.2218C37.2568 20.2386 37.2568 20.2554 37.2601 20.2704C37.2668 20.2872 37.2752 20.3141 37.2786 20.3225C37.2819 20.3308 37.2819 20.3359 37.2836 20.3392C37.287 20.3476 37.292 20.3543 37.2954 20.361C37.3071 20.3828 37.3205 20.403 37.334 20.4231C37.339 20.4281 37.3726 20.4684 37.3793 20.4768C37.3911 20.4868 37.4011 20.4969 37.4129 20.5053L37.4162 20.5086C37.4465 20.5288 37.4767 20.5472 37.5086 20.5657C37.522 20.5724 37.5371 20.5791 37.5505 20.5858C37.5539 20.5858 37.5539 20.5858 37.5589 20.5892C37.5925 20.6009 37.6278 20.6126 37.663 20.6227C37.6983 20.6328 37.7335 20.6412 37.7705 20.6479C37.7805 20.6512 37.8393 20.6563 37.846 20.6596C37.9148 20.6663 37.9853 20.673 38.0542 20.6697C38.0726 20.6697 38.0911 20.6697 38.1079 20.6663C38.1112 20.6663 38.1163 20.6663 38.1213 20.663C38.1448 20.6563 38.165 20.6495 38.1868 20.6428C38.1935 20.6378 38.2388 20.616 38.2472 20.6093C38.2523 20.6059 38.2556 20.6059 38.2573 20.6026C38.2657 20.5959 38.2724 20.5892 38.2808 20.5824C38.2909 20.5724 38.3228 20.5288 38.3245 20.5288C38.3328 20.5154 38.3412 20.5003 38.3479 20.4868C38.3479 20.4835 38.3681 20.4248 38.3715 20.4147C38.3715 20.4097 38.3715 20.4063 38.3748 20.4046C38.3748 20.3912 38.3748 20.3778 38.3782 20.3661L38.3765 20.3627ZM36.8841 22.493C36.8606 22.4846 36.8404 22.4762 36.8186 22.4679C36.8102 22.4645 36.8035 22.4595 36.7951 22.4544C36.7766 22.4511 36.7615 22.4461 36.7447 22.4427C36.7901 22.4612 36.8371 22.4779 36.8841 22.4913V22.493Z" fill="#202020"/>
<path d="M20.2306 24.2913C20.2676 24.3014 20.3045 24.3098 20.3431 24.3165C20.3347 24.3165 20.3246 24.3165 20.3246 24.3165C20.328 24.3165 20.3381 24.3165 20.3582 24.3198C20.4203 24.3249 20.4824 24.3249 20.5445 24.3232H20.5664C20.5949 24.3198 20.6235 24.3131 20.652 24.3047C20.6822 24.2964 20.7124 24.2863 20.7443 24.2779C20.7544 24.2745 20.7611 24.2729 20.7661 24.2712C20.7712 24.2678 20.7762 24.2645 20.7863 24.2595C20.8148 24.2427 20.84 24.2276 20.8685 24.2108C20.8786 24.2041 20.8853 24.2007 20.8887 24.1991C20.892 24.1957 20.8971 24.189 20.9055 24.1806C20.924 24.1622 20.9424 24.1437 20.9592 24.1236C20.9626 24.1185 20.9676 24.1118 20.9693 24.1102C20.981 24.09 20.9928 24.0716 21.0029 24.0515C21.0029 24.0464 21.023 24.0045 21.0263 23.9994C21.0331 23.976 21.0381 23.9508 21.0431 23.9273C21.0431 23.9273 21.0431 23.9262 21.0431 23.924C21.0431 23.924 21.0431 23.9156 21.0398 23.9106C21.0398 23.8938 21.0398 23.8787 21.0398 23.8636C21.0398 23.8602 21.0398 23.8552 21.0364 23.8502C21.0364 23.8468 21.018 23.7982 21.018 23.7914C20.9995 23.7545 20.9777 23.7176 20.9525 23.6841C20.9458 23.6791 20.9172 23.6455 20.9172 23.6438L20.8685 23.5952C20.8518 23.5801 20.835 23.565 20.8165 23.5499L20.8064 23.5398C20.8064 23.5398 20.798 23.5365 20.7913 23.5315C20.7426 23.5029 20.6973 23.4728 20.647 23.4476C20.6402 23.4442 20.5983 23.4291 20.5966 23.4275C20.5781 23.4208 20.5597 23.414 20.5429 23.409C20.5059 23.3973 20.469 23.3906 20.4304 23.3822C20.417 23.3788 20.3901 23.3755 20.3834 23.3738C20.3599 23.3738 20.3364 23.3738 20.3146 23.3738C20.2692 23.3738 20.2256 23.3805 20.1803 23.3889C20.15 23.3973 20.1181 23.4056 20.0879 23.4174C20.0762 23.4241 20.0493 23.4358 20.0443 23.4392C20.0208 23.4526 20.0006 23.466 19.9788 23.4811C19.9704 23.4878 19.9503 23.5046 19.9452 23.5097C19.9301 23.5231 19.915 23.5399 19.9016 23.5566C19.9016 23.56 19.873 23.6019 19.8613 23.6203C19.8613 23.6237 19.8378 23.6841 19.8378 23.6841C19.8294 23.7076 19.8244 23.7294 19.821 23.7529C19.8176 23.7663 19.816 23.7764 19.8143 23.7814V23.8099C19.8143 23.8736 19.8109 23.934 19.8143 23.9961C19.8143 24.0078 19.8143 24.0095 19.8143 24.0112C19.8143 24.0179 19.8176 24.0213 19.8176 24.0296C19.821 24.0431 19.8244 24.0531 19.826 24.0665C19.8445 24.085 19.8646 24.1035 19.8848 24.1202C19.8882 24.1202 19.8932 24.1253 19.8982 24.1286C19.9217 24.1454 19.9469 24.1622 19.9721 24.1773C19.9973 24.194 20.0258 24.2091 20.051 24.2226C20.051 24.2226 20.0762 24.236 20.093 24.2444C20.1064 24.2494 20.145 24.2645 20.145 24.2645C20.1735 24.2746 20.2038 24.2846 20.2323 24.293L20.2306 24.2913ZM21.5485 23.0014C22.3308 23.6237 22.6564 24.808 22.0773 25.6718C21.5216 26.5022 20.516 27.0456 19.5071 26.8812C18.572 26.7286 17.7947 25.9301 17.7779 24.969C17.7612 24.0833 18.3303 23.1155 19.173 22.78C19.9234 22.3959 20.8635 22.4562 21.5485 23.0014ZM21.4763 25.4504C21.4611 25.4638 21.446 25.4789 21.4293 25.494C21.4259 25.5024 21.4259 25.5091 21.4225 25.5175C21.441 25.4957 21.4595 25.4739 21.4763 25.4521V25.4504Z" fill="#202020"/>
<path d="M40.5522 43.3726C40.5774 43.5823 40.564 43.7953 40.5052 44.005C40.4045 44.3673 40.1863 44.624 39.9193 44.879C39.7683 45.0232 39.6272 45.1742 39.5097 45.3469C39.3805 45.5382 39.2848 45.7495 39.1773 45.9542C39.0078 46.2729 38.7895 46.548 38.5142 46.7811C38.2591 46.9992 37.9535 47.1686 37.6345 47.276C37.4683 47.3313 37.2954 47.3766 37.1225 47.3968C36.9664 47.4152 36.8103 47.4202 36.6542 47.4303C36.6407 47.385 36.6189 47.3397 36.5786 47.2978C35.9743 46.6453 35.2793 45.8837 35.2507 44.9595C35.239 44.5552 34.6077 44.5535 34.6195 44.9595C34.6514 46.0095 35.3179 46.8516 35.9978 47.5964C35.7644 47.7171 35.5596 47.8882 35.3414 48.0526C35.0274 48.2874 34.6715 48.4585 34.2921 48.5575C33.9295 48.6531 33.5552 48.68 33.1808 48.6447C32.7896 48.6078 32.427 48.4653 32.0661 48.316C31.9352 48.2623 31.8025 48.2137 31.6699 48.1734C31.915 47.3448 32.0057 46.4708 31.9301 45.6103C31.915 45.4409 31.7958 45.295 31.6145 45.295C31.455 45.295 31.2838 45.4392 31.2989 45.6103C31.3711 46.4406 31.2855 47.2659 31.0437 48.061C30.9531 48.0576 30.8607 48.0577 30.7667 48.0677C30.342 48.1113 29.9391 48.2489 29.5228 48.3327C29.1669 48.4049 28.8143 48.4032 28.4736 48.2656C28.168 48.1415 27.8893 47.9201 27.7097 47.6416C27.525 47.3565 27.4529 47.0093 27.2464 46.7409C27.9766 46.1789 28.581 45.4677 28.9973 44.6424C29.0745 44.4898 29.0376 44.3002 28.8848 44.2113C28.7438 44.1291 28.5306 44.1711 28.4534 44.3237C28.2469 44.7313 27.9934 45.1171 27.7131 45.4426C27.5637 45.6153 27.4042 45.7814 27.2346 45.9357C27.0584 46.0967 26.9039 46.2225 26.7226 46.35C26.7159 46.3551 26.7108 46.3601 26.7041 46.3651C26.4892 46.2913 26.2559 46.2662 26.0276 46.2628C25.6935 46.2561 25.2923 46.3165 24.9952 46.1253C24.8625 46.0397 24.8172 45.9173 24.8122 45.7562C24.8055 45.5482 24.834 45.357 24.7887 45.1507C24.7081 44.7867 24.4848 44.4663 24.285 44.1577C24.1591 43.9614 24.0215 43.7551 23.9526 43.5404C25.5156 43.428 27.1188 43.3022 28.6028 42.7923C28.9755 42.6648 29.3431 42.5071 29.6823 42.3008C29.8082 42.5474 29.9844 42.7705 30.1909 42.9483C31.037 43.6763 32.197 43.7014 33.1993 43.2988C33.7398 43.0824 34.3224 42.7772 34.7034 42.3226C35.0812 42.7151 35.6435 43.0154 36.0582 43.1965C36.9765 43.5991 37.9888 43.7836 38.991 43.7031C39.5232 43.6595 40.0469 43.5504 40.5489 43.3659L40.5522 43.3726Z" fill="#F9F8F4"/>
<path d="M27.122 42.4753C25.2367 41.6333 23.5513 40.3903 22.1898 38.8404C21.9346 38.5485 21.6929 38.2466 21.4629 37.9346C23.0812 38.1291 24.718 38.1761 26.3447 38.0704C26.4773 38.062 26.6083 38.0486 26.7409 38.0386C26.6318 38.8588 26.8702 39.7109 27.3486 40.3869C27.6156 40.7644 27.9379 41.0881 28.3022 41.3682C28.4768 41.5024 28.6581 41.6265 28.8478 41.7389C28.9334 41.7892 29.0391 41.8362 29.1365 41.8916C28.5775 42.1834 27.9547 42.3546 27.3402 42.4887C27.2882 42.5005 27.2378 42.5105 27.1858 42.5206C27.1673 42.5022 27.1455 42.4871 27.122 42.4753Z" fill="#F9F8F4"/>
<path d="M34.6361 36.1853C34.6512 36.1987 34.668 36.2121 34.6881 36.2255C35.4016 36.67 35.4688 37.6144 35.3613 38.3659C35.2673 39.0201 35.0491 39.6475 34.7284 40.2211C34.6327 40.0165 34.5001 39.8286 34.3406 39.6676C33.9444 39.27 33.4123 39.0704 32.8616 39.0184C31.7956 38.9161 30.5651 39.3455 29.9137 40.2161C29.6586 40.5566 29.5092 40.9642 29.489 41.3819C29.2876 41.2494 29.0677 41.1404 28.8679 41.0028C28.5304 40.7713 28.2165 40.4895 27.9664 40.1641C27.4879 39.5468 27.2361 38.7467 27.3906 37.9768C29.1499 37.7939 30.8941 37.4433 32.583 36.92C33.278 36.7036 33.9629 36.457 34.6378 36.1836L34.6361 36.1853Z" fill="#F9F8F4"/>
<path d="M34.3222 41.2275C34.2769 41.4171 34.2903 41.5966 34.3457 41.766C34.3222 41.8046 34.2971 41.8415 34.2685 41.8767C34.0033 42.2122 33.5903 42.4369 33.2126 42.6181C32.4672 42.9737 31.554 43.1079 30.8254 42.6449C30.1958 42.244 29.9205 41.4976 30.2781 40.8166C30.6743 40.0634 31.5775 39.696 32.3933 39.644C32.8584 39.6139 33.3553 39.686 33.7363 39.9745C34.0704 40.2261 34.287 40.6136 34.2652 41.0346C34.2601 41.1151 34.2836 41.1806 34.3222 41.2292V41.2275Z" fill="#F9F8F4"/>
<path d="M37.8912 38.6639C37.6108 40.0562 36.8285 41.3377 35.6853 42.1915C35.6618 42.21 35.64 42.2301 35.6215 42.2519C35.4536 42.1445 35.185 41.9667 35.0339 41.7554C35.1279 41.4769 35.1447 41.1783 35.0507 40.9016C35.5695 40.1165 35.8935 39.2191 36.0043 38.2848C36.1033 37.4327 35.9422 36.495 35.3042 35.9062C35.3831 35.8727 35.462 35.8408 35.5392 35.8056C35.7676 35.7033 35.9959 35.5993 36.2225 35.4902C36.8453 36.4866 37.4346 37.5031 37.9416 38.5582C37.918 38.5884 37.8996 38.6236 37.8929 38.6639H37.8912Z" fill="#F9F8F4"/>
<path d="M17.5414 36.8545C16.3293 38.0169 15.5856 39.5417 14.9846 41.0849C14.6623 41.9119 14.3685 42.7506 14.0764 43.5876C13.7541 44.5119 13.4519 45.4428 13.2203 46.3922C12.955 47.4742 12.7821 48.5762 12.6931 49.685C12.6797 49.8544 12.8476 50.0004 13.0087 50.0004C13.1901 50.0004 13.3109 49.8561 13.3243 49.685C13.4788 47.766 13.9455 45.9176 14.5666 44.1009C14.8503 43.2689 15.1458 42.4386 15.4547 41.615C15.7334 40.8736 16.0372 40.1422 16.4099 39.4427C16.8313 38.6544 17.3416 37.9197 17.9879 37.299C18.2817 37.0172 17.8352 36.5727 17.5414 36.8528V36.8545Z" fill="#F9F8F4"/>
<path d="M36.0481 35.2426C37.0352 36.9251 38.0525 38.6025 38.8365 40.3923C39.5769 42.0814 39.9999 43.8511 40.1476 45.6862C40.2467 46.9174 40.2534 48.1537 40.2484 49.3865C40.2484 49.7925 40.8779 49.7925 40.8796 49.3865C40.888 47.2646 40.8712 45.1075 40.3877 43.0292C39.9747 41.2545 39.2176 39.5888 38.353 37.9919C37.7923 36.9553 37.1913 35.9404 36.5937 34.9239C36.3889 34.5733 35.8433 34.8904 36.0498 35.2426H36.0481Z" fill="#F9F8F4"/>
<path d="M18.2331 18.2838C18.3574 18.6294 18.7317 18.7904 19.0776 18.6679C19.4418 18.5405 19.598 18.1631 19.6584 17.8108C19.781 17.108 19.7239 16.2625 19.0222 15.8767C18.4195 15.5446 17.6506 15.6821 17.1554 16.1401C16.6131 16.6383 16.4218 17.4283 16.4688 18.1396C16.5007 18.621 16.6215 19.089 16.7542 19.5519C16.8868 20.0149 17.0379 20.5148 17.1789 20.9979C17.293 21.387 17.9024 21.221 17.7866 20.8301C17.5952 20.1793 17.3837 19.5301 17.2225 18.8692C17.0849 18.3073 17.0194 17.7202 17.2208 17.165C17.3703 16.7523 17.6976 16.3934 18.1442 16.3313C18.5907 16.2692 18.9852 16.5141 19.0675 16.9771C19.1145 17.2455 19.0809 17.5441 19.0154 17.8058C18.9903 17.903 18.96 18.0238 18.8643 18.0758C18.8778 18.0691 18.814 18.0876 18.8341 18.0775C18.8257 18.0809 18.7804 18.054 18.8157 18.0741C18.8291 18.0825 18.8358 18.101 18.8409 18.1144C18.7838 17.955 18.626 17.846 18.4531 17.8947C18.2986 17.9366 18.1744 18.1211 18.2331 18.2821V18.2838Z" fill="#202020"/>
<path d="M15.5636 15.6265C16.2788 15.4302 16.5944 14.5579 16.2737 13.9155C15.9329 13.2361 15.0449 12.9913 14.3583 13.2412C13.5776 13.5263 13.0841 14.2392 12.7752 14.9773C12.4663 15.7154 12.3656 16.5222 12.5586 17.3039C12.7903 18.2415 13.3611 19.0584 13.9403 19.8133C14.0443 19.9475 14.2122 20.0196 14.3717 19.9257C14.5043 19.8485 14.5899 19.6304 14.4842 19.4946C13.6784 18.4445 12.8474 17.225 13.158 15.8361C13.2906 15.2423 13.5709 14.6116 14.0141 14.1839C14.4002 13.8115 14.9761 13.622 15.4579 13.9289C15.6744 14.0665 15.797 14.2946 15.7684 14.5395C15.7432 14.7525 15.6056 14.9605 15.3957 15.0192C15.0046 15.1266 15.1708 15.7355 15.5636 15.6265Z" fill="#202020"/>
<path d="M35.5276 14.2142C35.4503 14.3299 35.3026 14.4591 35.1515 14.4389C35.0004 14.4188 34.9316 14.2595 34.9232 14.1303C34.8997 13.7478 35.2489 13.4107 35.5729 13.2681C35.9657 13.0937 36.4274 13.1574 36.7917 13.3704C37.1862 13.6019 37.4733 14.0196 37.6714 14.4238C37.9013 14.8986 37.9702 15.4286 37.7821 15.9268C37.7217 16.0862 37.8493 16.2724 38.0021 16.3143C38.1783 16.3629 38.3294 16.2539 38.3899 16.0945C38.6299 15.4538 38.5208 14.761 38.2371 14.1521C37.9534 13.5432 37.5169 12.998 36.9243 12.7297C36.3317 12.4613 35.635 12.4663 35.081 12.8186C34.5656 13.1457 34.1208 13.82 34.3508 14.4473C34.4767 14.7912 34.7772 15.0596 35.1549 15.0696C35.5326 15.0797 35.8684 14.8398 36.0732 14.5329C36.2981 14.194 35.7525 13.8787 35.5292 14.2142H35.5276Z" fill="#202020"/>
<path d="M33.1792 11.0892C33.0818 11.2116 32.9526 11.173 32.8485 11.0707C32.7175 10.9432 32.6454 10.7436 32.6302 10.5625C32.5967 10.1297 32.9089 9.89486 33.2866 9.77408C33.7382 9.6315 34.2385 9.55099 34.7119 9.61306C35.2256 9.68015 35.6453 10.024 36.1573 10.0945C36.3252 10.118 36.4964 10.0542 36.5451 9.87472C36.5854 9.72711 36.4948 9.51074 36.3252 9.48725C36.0784 9.4537 35.8619 9.35137 35.6369 9.24905C35.3918 9.13834 35.1467 9.04609 34.8798 9.00584C34.3527 8.92532 33.8171 8.98234 33.3034 9.11485C32.8535 9.23059 32.3734 9.44027 32.1468 9.87472C31.9201 10.3092 31.9604 10.8694 32.2223 11.2854C32.365 11.5136 32.5832 11.7165 32.8535 11.7752C33.1238 11.8339 33.4445 11.7601 33.6241 11.5337C33.7298 11.3995 33.755 11.2183 33.6241 11.0875C33.515 10.9785 33.2833 10.9533 33.1775 11.0875L33.1792 11.0892Z" fill="#202020"/>
</svg>
