<svg width="201" height="200" viewBox="0 0 201 200" fill="none" xmlns="http://www.w3.org/2000/svg">
<path d="M182.979 2.71777H18.5459C10.1159 2.71777 3.28198 9.55168 3.28198 17.9817V182.415C3.28198 190.845 10.1159 197.679 18.5459 197.679H182.979C191.409 197.679 198.243 190.845 198.243 182.415V17.9817C198.243 9.55168 191.409 2.71777 182.979 2.71777Z" fill="#252525"/>
<path d="M148.707 122.566H148.693H148.66C148.66 122.566 148.607 122.566 148.6 122.579C148.613 122.579 148.647 122.579 148.673 122.579C148.62 122.592 148.56 122.592 148.527 122.606C148.386 122.639 148.259 122.686 148.126 122.726C148.073 122.753 148.033 122.773 147.986 122.799C147.919 122.833 147.859 122.873 147.799 122.913C147.766 122.933 147.746 122.946 147.732 122.953C147.192 123.333 146.551 123.38 146.024 122.899C145.563 122.472 145.496 121.525 146.024 121.111C146.718 120.57 147.452 120.21 148.326 120.096C149.08 119.996 149.868 120.043 150.582 120.317C151.383 120.624 152.064 121.091 152.598 121.758C152.878 122.099 153.132 122.452 153.392 122.799C153.392 122.799 153.396 122.804 153.405 122.813C153.459 122.879 153.505 122.946 153.559 123.006C153.686 123.153 153.819 123.293 153.966 123.427C154.493 123.894 154.413 124.728 153.966 125.209C153.485 125.736 152.678 125.649 152.184 125.209C151.657 124.742 151.243 124.134 150.829 123.56L150.816 123.547C150.762 123.48 150.709 123.42 150.662 123.36C150.562 123.246 150.462 123.14 150.355 123.04C150.355 123.04 150.302 122.993 150.262 122.959C150.228 122.939 150.208 122.919 150.188 122.913C150.082 122.839 149.968 122.786 149.855 122.726C149.788 122.706 149.728 122.679 149.668 122.659C149.548 122.626 149.421 122.599 149.301 122.572L149.107 122.559C148.974 122.559 148.847 122.559 148.72 122.572L148.707 122.566Z" fill="white"/>
<path d="M128.41 148.475C128.41 148.475 128.424 148.462 128.424 148.448C128.424 148.462 128.41 148.482 128.39 148.508C128.39 148.508 128.403 148.482 128.403 148.475H128.41Z" fill="white"/>
<path d="M112.152 97.357C112.245 97.4104 112.339 97.4704 112.432 97.5172C112.446 97.5305 112.446 97.5305 112.459 97.5372C112.472 97.5372 112.486 97.5372 112.512 97.5506C112.626 97.5773 112.739 97.6173 112.853 97.644C112.893 97.644 112.919 97.6573 112.939 97.664C112.953 97.664 112.96 97.664 112.98 97.664C113.086 97.664 113.186 97.6774 113.293 97.6774C113.333 97.6774 113.533 97.6507 113.58 97.6507C113.76 97.6039 113.941 97.5506 114.128 97.5038C114.128 97.5038 114.128 97.5038 114.141 97.5038L114.261 97.4438C114.361 97.3904 114.455 97.3437 114.548 97.2903C114.581 97.2702 114.788 97.1167 114.808 97.1167C114.868 97.0633 114.922 97.0166 114.982 96.9632C115.169 96.7897 115.342 96.6028 115.509 96.4093C115.522 96.3892 115.536 96.3759 115.542 96.3692C115.549 96.3625 115.563 96.3425 115.576 96.3158C115.643 96.209 115.709 96.1089 115.776 96.0088C114.441 95.3214 113.08 94.7006 111.691 94.14C111.691 94.14 111.678 94.14 111.678 94.1534C111.678 94.1667 111.531 94.3736 111.505 94.4137C111.491 94.427 111.438 94.5538 111.411 94.5938C111.378 94.6873 111.344 94.7741 111.324 94.8742C111.311 94.9076 111.278 95.1278 111.271 95.1478C111.258 95.2479 111.258 95.3547 111.258 95.4549C111.258 95.4949 111.298 95.8086 111.291 95.8086C111.311 95.9154 111.331 96.0155 111.364 96.1223C111.378 96.1556 111.471 96.436 111.471 96.4627C111.518 96.5628 111.565 96.6562 111.618 96.7563C111.658 96.8298 111.698 96.8965 111.745 96.9699C111.778 97.0166 111.798 97.05 111.805 97.0633C111.818 97.0767 111.825 97.0833 111.838 97.0967C111.892 97.1634 111.952 97.2168 112.012 97.2769C112.045 97.3103 112.139 97.3704 112.165 97.3837C112.165 97.3837 112.152 97.3837 112.145 97.3837L112.152 97.357ZM128.197 99.6262C129.825 99.6062 129.825 102.129 128.197 102.149C125.994 102.176 124.125 101.155 122.35 99.9866C120.388 101.241 118.346 102.416 116.116 103.124C114.168 103.738 112.092 103.918 110.09 103.464C108.234 103.057 106.546 102.096 105.091 100.894C101.994 98.3448 100.292 94.5605 99.0571 90.8363C97.1416 90.596 95.1994 90.4759 93.2639 90.4692C91.6354 90.4558 91.6354 87.933 93.2639 87.9463C96.0737 87.9597 98.8835 88.2066 101.66 88.6605C106.559 89.4747 111.324 91.0098 115.796 93.1656C117.999 94.2268 120.128 95.4415 122.15 96.8164C123.959 98.0511 125.887 99.6529 128.197 99.6262ZM104.17 93.4125C104.17 93.4125 104.183 93.3858 104.183 93.3725L104.136 93.3591C104.136 93.3591 104.156 93.3925 104.17 93.4125Z" fill="white"/>
<path d="M93.2578 90.898C95.2 90.9047 97.1355 91.0315 99.0577 91.2718C100.292 94.996 102.001 98.7803 105.098 101.33C106.553 102.531 108.241 103.486 110.097 103.899C112.099 104.347 114.175 104.173 116.124 103.552C118.353 102.845 120.395 101.664 122.357 100.415C124.133 101.583 126.002 102.605 128.204 102.578C129.826 102.558 129.833 100.035 128.204 100.055C125.895 100.082 123.973 98.4733 122.157 97.2452C120.135 95.877 118.006 94.6556 115.803 93.5944C111.332 91.4386 106.566 89.9036 101.667 89.096C98.8908 88.6355 96.081 88.3885 93.2711 88.3818C91.6493 88.3818 91.6426 90.898 93.2711 90.9047L93.2578 90.898ZM115.783 96.411C115.717 96.5177 115.65 96.6179 115.583 96.718C115.57 96.7447 115.556 96.758 115.55 96.7713C115.536 96.7847 115.53 96.7914 115.51 96.8114C115.343 97.0049 115.176 97.1918 114.982 97.3654C114.922 97.4188 114.862 97.4655 114.802 97.5189C114.789 97.5189 114.575 97.6724 114.542 97.6924C114.448 97.7525 114.355 97.8059 114.255 97.8526C114.215 97.8726 114.175 97.8926 114.128 97.9127C114.128 97.9127 114.128 97.9127 114.115 97.9127C113.928 97.9594 113.748 98.0127 113.567 98.0595C113.521 98.0595 113.327 98.0862 113.28 98.0862C113.174 98.0862 113.074 98.0795 112.967 98.0795C112.947 98.0795 112.94 98.0795 112.927 98.0795C112.907 98.0795 112.88 98.0661 112.84 98.0595C112.72 98.0328 112.613 97.9928 112.493 97.9661C112.473 97.9661 112.46 97.9594 112.446 97.9527C112.44 97.9527 112.433 97.946 112.419 97.9393C112.299 97.8726 112.186 97.7992 112.066 97.7324C112.286 97.8526 112.066 97.7325 112.006 97.6724C111.946 97.619 111.892 97.5589 111.832 97.4922C111.745 97.3854 111.725 97.3654 111.779 97.4255C111.832 97.4855 111.812 97.4588 111.739 97.352C111.692 97.2853 111.652 97.2119 111.612 97.1385C111.559 97.045 111.512 96.9449 111.465 96.8448C111.465 96.8248 111.365 96.5445 111.358 96.5111C111.332 96.4043 111.305 96.2975 111.285 96.1907C111.298 96.2441 111.258 95.8904 111.251 95.8437C111.251 95.7435 111.251 95.6367 111.265 95.5366C111.272 95.5166 111.305 95.303 111.312 95.263C111.338 95.1695 111.372 95.0761 111.405 94.9827C111.425 94.9426 111.485 94.8225 111.492 94.8025C111.512 94.7624 111.679 94.5422 111.665 94.5489L111.679 94.5355C113.067 95.0961 114.428 95.7168 115.763 96.4043L115.783 96.411ZM104.19 93.7947C104.19 93.7947 104.177 93.8214 104.17 93.8347C104.163 93.8147 104.15 93.8013 104.143 93.7813C104.157 93.7813 104.177 93.788 104.19 93.7947Z" fill="white"/>
<mask id="mask0_8378_53482" style="mask-type:luminance" maskUnits="userSpaceOnUse" x="92" y="88" width="38" height="17">
<path d="M93.2575 90.9C95.1997 90.9067 97.1353 91.0335 99.0575 91.2737C100.292 94.998 102.001 98.7823 105.098 101.332C106.553 102.533 108.241 103.488 110.097 103.901C112.099 104.349 114.175 104.175 116.123 103.554C118.353 102.847 120.395 101.666 122.357 100.417C124.132 101.585 126.001 102.607 128.204 102.58C129.826 102.56 129.832 100.037 128.204 100.057C125.894 100.084 123.972 98.4752 122.157 97.2472C120.135 95.879 118.006 94.6576 115.803 93.5964C111.331 91.4406 106.566 89.9055 101.667 89.0979C98.8906 88.6374 96.0807 88.3905 93.2709 88.3838C91.649 88.3838 91.6424 90.9 93.2709 90.9067L93.2575 90.9ZM115.783 96.4129C115.716 96.5197 115.65 96.6198 115.583 96.7199C115.569 96.7466 115.556 96.76 115.549 96.7733C115.536 96.7866 115.529 96.7933 115.509 96.8133C115.343 97.0069 115.176 97.1938 114.982 97.3673C114.922 97.4207 114.862 97.4674 114.802 97.5208C114.789 97.5208 114.575 97.6743 114.542 97.6943C114.448 97.7544 114.355 97.8078 114.255 97.8545C114.215 97.8745 114.175 97.8946 114.128 97.9146C114.128 97.9146 114.128 97.9146 114.114 97.9146C113.928 97.9613 113.747 98.0147 113.567 98.0614C113.521 98.0614 113.327 98.0881 113.28 98.0881C113.173 98.0881 113.073 98.0815 112.967 98.0815C112.947 98.0815 112.94 98.0815 112.926 98.0815C112.906 98.0815 112.88 98.0681 112.84 98.0614C112.72 98.0347 112.613 97.9947 112.493 97.968C112.473 97.968 112.459 97.9613 112.446 97.9547C112.439 97.9547 112.433 97.948 112.419 97.9413C112.299 97.8745 112.186 97.8011 112.066 97.7344C112.286 97.8545 112.065 97.7344 112.005 97.6743C111.945 97.621 111.892 97.5609 111.832 97.4941C111.745 97.3873 111.725 97.3673 111.779 97.4274C111.832 97.4875 111.812 97.4607 111.739 97.354C111.692 97.2872 111.652 97.2138 111.612 97.1404C111.558 97.047 111.512 96.9469 111.465 96.8467C111.465 96.8267 111.365 96.5464 111.358 96.513C111.331 96.4062 111.305 96.2994 111.285 96.1926C111.298 96.246 111.258 95.8923 111.251 95.8456C111.251 95.7455 111.251 95.6387 111.265 95.5386C111.271 95.5186 111.305 95.305 111.311 95.2649C111.338 95.1715 111.371 95.0781 111.405 94.9846C111.425 94.9446 111.485 94.8245 111.492 94.8044C111.512 94.7644 111.678 94.5441 111.665 94.5508L111.678 94.5375C113.067 95.0981 114.428 95.7188 115.763 96.4062L115.783 96.4129ZM104.19 93.7966C104.19 93.7966 104.177 93.8233 104.17 93.8367C104.163 93.8166 104.15 93.8033 104.143 93.7833C104.157 93.7833 104.177 93.7899 104.19 93.7966Z" fill="white"/>
</mask>
<g mask="url(#mask0_8378_53482)">
<path d="M101.74 91.9248C101.74 91.9248 108.848 93.3264 111.678 94.5545C114.508 95.7825 115.776 96.4099 115.776 96.4099L120.608 99.0129C120.608 99.0129 115.462 104.719 108.855 101.509C102.247 98.2987 101.74 91.9315 101.74 91.9315V91.9248Z" fill="#252525"/>
</g>
<path d="M111.699 94.2939L115.777 96.4097C115.777 96.4097 114.635 98.8057 112.426 97.9447C110.217 97.0838 111.699 94.2939 111.699 94.2939Z" fill="#F9F8F4"/>
<path d="M185.241 0H16.37C7.78695 0 0.805664 6.98125 0.805664 15.5643V184.436C0.805664 193.019 7.79363 200 16.37 200H185.241C193.824 200 200.806 193.019 200.806 184.436V15.5643C200.806 6.98125 193.824 0 185.241 0ZM94.652 197.484C94.652 197.484 94.6654 197.444 94.672 197.424C94.672 197.444 94.6587 197.464 94.652 197.484ZM125.614 149.102C125.614 149.102 125.6 149.156 125.6 149.189C124.379 148.815 123.111 148.555 121.863 148.388C119.76 148.101 117.651 147.994 115.542 147.801C113.567 147.614 111.618 147.274 109.676 146.88C105.658 146.086 101.627 145.111 97.5086 145.031C93.6442 144.951 89.7598 145.792 86.4494 147.848C86.396 147.881 86.3493 147.914 86.3025 147.948C88.1046 149.836 89.4995 152.106 90.5207 154.502C91.9089 157.752 92.6498 161.203 93.1904 164.68C93.7443 168.277 94.2782 171.908 94.4851 175.546C94.692 179.176 94.3451 182.767 93.5508 186.318C93.4307 186.865 93.2905 187.412 93.157 187.953C93.1169 188.48 93.0769 189.014 93.0369 189.541C92.9168 190.983 92.79 192.431 92.6298 193.88C92.5964 194.187 92.563 194.494 92.523 194.801C92.5096 194.934 92.4895 195.068 92.4762 195.201C92.4762 195.235 92.4562 195.355 92.4429 195.441C92.3828 195.875 92.3227 196.309 92.2426 196.736C92.1959 196.997 92.2093 197.25 92.2894 197.477H89.6197C89.3527 197.557 89.0657 197.557 88.7988 197.477H30.7663C30.6462 196.776 30.526 196.076 30.4192 195.375C30.3858 195.181 30.3658 194.981 30.3391 194.787C30.3391 194.754 30.3258 194.714 30.3258 194.687C30.3124 194.587 30.2991 194.494 30.2924 194.387C30.2391 193.933 30.1857 193.473 30.1456 193.012C29.9187 190.536 29.8653 188.053 29.8452 185.57C36.3793 186.431 43.0136 186.485 49.5877 186.418C59.0784 186.324 68.5758 185.891 78.0465 185.116C82.4382 184.756 86.9033 184.309 91.2949 184.829C91.3016 184.783 91.3149 184.743 91.3216 184.696C92.6965 177.895 91.7087 170.927 90.5674 164.153C89.633 158.6 87.9377 152.84 83.7196 148.929C82.318 148.615 80.9231 148.241 79.5616 147.767C75.5303 146.353 71.726 144.29 67.8616 142.468C59.946 138.737 51.9436 135.187 43.8678 131.816C41.6186 130.875 39.3627 129.921 37.0868 129.033C36.1724 128.673 35.258 128.365 34.3236 128.139C35.3448 122.205 36.5996 116.285 38.4083 110.539C39.9167 105.746 41.8188 101.028 44.6287 96.8431C45.8434 95.0411 47.2383 93.3791 48.9002 91.8841C52.4109 93.5994 55.8881 95.5283 58.7847 98.1045C60.5934 99.7063 62.2419 101.655 62.9561 104.005C63.6235 106.214 63.3365 108.583 62.2086 110.599C60.9538 112.841 58.8247 114.396 56.2752 114.79C53.759 115.171 51.0626 114.396 49.1872 112.674C48.9936 112.501 48.7868 112.401 48.5799 112.361C47.6521 111.793 46.1837 112.888 46.8378 114.096C50.562 120.964 55.9949 126.817 62.4022 131.249C68.7627 135.654 76.1577 138.664 83.8197 139.812C88.0445 140.446 92.2359 140.466 96.4807 140.092C101.393 139.665 106.245 139.158 111.171 139.772C115.729 140.339 120.201 141.714 124.319 143.736C125.374 144.257 126.415 144.804 127.456 145.365C126.521 146.413 125.854 147.701 125.614 149.089V149.102ZM93.4773 150.21C93.3972 150.043 93.2905 149.923 93.177 149.83C93.2905 149.93 93.3972 150.05 93.4773 150.21ZM114.802 137.843C110.11 136.888 105.404 136.795 100.652 137.202C96.2405 137.583 91.8622 138.063 87.4372 137.716C79.9754 137.129 72.6871 134.646 66.2999 130.775C60.4399 127.224 55.3008 122.459 51.443 116.792C55.0738 117.98 59.2519 117.326 62.1952 114.657C64.1307 112.901 65.3922 110.425 65.746 107.836C66.1197 105.106 65.3722 102.389 63.8838 100.093C60.9538 95.5817 55.9415 92.6583 51.2628 90.2556C46.7177 87.9196 41.959 86.0041 37.4005 83.6882C32.9221 81.4123 28.5438 78.6758 25.2868 74.8115C30.753 74.7714 36.1324 76.0862 41.5986 76.2531C46.8912 76.4199 52.3441 75.4188 56.4354 71.8347C58.204 70.2796 59.5856 68.3308 60.5267 66.1817C61.114 67.3096 61.6546 68.4709 62.1151 69.6523C62.3688 70.2863 62.9628 70.7268 63.6703 70.5333C63.8038 70.4999 63.9372 70.4265 64.0507 70.3397C66.2131 70.7135 68.4757 70.3264 70.5447 69.6523C72.547 68.9982 74.4692 68.0438 76.1845 66.8157C79.6951 64.3195 82.4315 60.889 84.08 56.9112C85.0011 54.702 85.5151 52.346 85.6285 49.9566C85.6619 49.3426 85.3081 48.9555 84.8543 48.8086C84.7875 48.7352 84.7075 48.6618 84.614 48.5951C84.1535 48.2814 83.6796 47.9877 83.2124 47.6807C91.8088 49.7831 100.439 51.792 108.661 55.1024C111.257 56.1503 113.814 57.2983 116.43 58.2994C119.073 59.3139 121.756 60.2349 124.472 61.0225C129.952 62.6043 135.652 63.6388 141.372 63.6388C142.953 63.6388 144.555 63.5921 146.124 63.3585C147.452 63.1582 148.713 62.7044 149.935 62.1504C151.47 61.4563 152.918 60.6087 154.38 59.7811C155.921 61.0559 157.31 62.3574 158.578 63.9258C160.066 65.7545 161.241 67.8702 162.075 70.0794C163.837 74.7514 164.298 79.7838 164.318 84.7427C164.331 86.4914 164.278 88.24 164.204 89.9887C163.617 89.2144 163.016 88.4336 162.429 87.6594C162.015 87.1121 161.341 86.8318 160.7 87.2055C160.166 87.5192 159.833 88.3868 160.246 88.9341C161.928 91.1366 163.61 93.3325 165.285 95.5416C166.874 97.6173 168.382 99.7931 170.098 101.762C171.726 103.617 173.708 104.692 176.018 105.46C177.913 106.094 180.002 106.581 181.497 107.996C182.752 109.184 183.546 110.799 183.8 112.501C184.08 114.43 183.539 116.112 182.565 117.753C181.924 118.821 181.324 119.916 181.077 121.151C180.823 122.385 180.823 123.64 180.977 124.888C181.277 127.318 182.038 129.66 182.311 132.096C182.919 137.436 181.984 142.909 179.548 147.707C165.626 147.694 151.837 143.97 139.543 137.469C136.433 135.821 133.409 133.999 130.506 132.023C127.683 130.101 124.946 128.045 122.096 126.163C119.22 124.254 116.223 122.539 112.979 121.324C109.843 120.15 106.559 119.656 103.222 119.495C96.4941 119.155 88.8655 120.19 83.0656 115.998C82.5116 115.598 81.6573 115.905 81.3369 116.452C80.9632 117.086 81.2369 117.78 81.7908 118.181C87.1636 122.065 94.0847 121.811 100.405 121.932C103.562 121.992 106.746 122.132 109.816 122.959C113.106 123.847 116.143 125.409 119.026 127.191C121.93 129 124.679 131.029 127.476 132.997C130.399 135.046 133.403 136.975 136.526 138.711C142.773 142.181 149.427 144.971 156.309 146.933C158.104 147.447 159.919 147.894 161.741 148.288C159.052 149.356 156.102 149.616 153.178 149.543C151.116 149.496 149.067 149.303 147.018 149.076C144.669 148.815 142.319 148.562 140.01 148.041C136.686 147.287 133.67 145.832 130.7 144.257C130.466 143.99 130.139 143.81 129.799 143.776C129.084 143.396 128.377 143.009 127.669 142.628C123.585 140.466 119.327 138.757 114.788 137.836L114.802 137.843ZM57.9972 48.5417C58.6646 48.8954 59.292 48.6485 59.7258 48.0878C61.0206 46.3926 61.8949 44.3503 62.2553 42.2412C65.6859 42.8352 69.063 43.7629 72.3134 45.0043C72.2867 45.1111 72.2733 45.2179 72.2867 45.3314C72.3734 46.0588 72.3868 46.793 72.3134 47.5205C72.3134 47.5339 72.3 47.634 72.2933 47.6807C72.2867 47.7408 72.26 47.8943 72.2533 47.9076C72.22 48.0812 72.1866 48.2547 72.1465 48.4282C72.0598 48.7953 71.9597 49.1557 71.8328 49.5161C71.6927 49.9099 71.6793 49.9499 71.4991 50.317C71.3323 50.6574 71.152 50.9844 70.9518 51.3048C70.5514 51.9322 70.2177 52.3326 69.637 52.8933C69.1431 53.3671 69.1631 54.2014 69.637 54.6753C70.1309 55.1692 70.9318 55.1492 71.4191 54.6753C73.715 52.4728 75.0231 49.2425 74.8696 46.0589C77.7261 47.327 80.4693 48.842 83.0656 50.584C82.4649 57.6921 77.4792 64.3262 70.8184 66.8825C68.7026 67.6967 66.2932 68.2974 64.044 67.7501C60.233 58.9668 53.5187 51.9389 46.1771 45.9254C44.7621 44.7707 43.3205 43.6495 41.8655 42.5415C47.7322 41.3135 53.8125 41.1066 59.7659 41.8608C59.6057 42.6684 59.3721 43.4492 59.0717 44.2235C59.0517 44.2702 59.0317 44.3102 59.0117 44.3569C58.9583 44.4838 58.8982 44.6039 58.8381 44.724C58.718 44.971 58.5911 45.2113 58.451 45.4449C58.1773 45.9187 57.877 46.3659 57.5433 46.7997C57.1428 47.327 57.4432 48.2347 57.9972 48.5283V48.5417ZM126.955 20.4765C126.955 20.4765 126.969 20.4632 126.969 20.4565C126.969 20.4432 126.982 20.4432 126.982 20.4365C126.995 20.4231 127.002 20.4165 127.015 20.4031C126.982 20.4365 127.116 20.3164 127.169 20.2897C127.182 20.2763 127.182 20.2763 127.202 20.2696C127.289 20.2363 127.382 20.2096 127.476 20.1895C127.489 20.1895 127.543 20.1762 127.589 20.1629C127.656 20.1629 127.81 20.1428 127.81 20.1428C127.976 20.1428 128.143 20.1428 128.31 20.1562C128.33 20.1562 128.344 20.1562 128.357 20.1562H128.37C128.484 20.1762 128.611 20.2029 128.724 20.2296C128.877 20.2696 129.044 20.3164 129.191 20.3631C129.285 20.3965 129.378 20.4232 129.471 20.4565C129.485 20.4565 129.545 20.4899 129.592 20.5033C129.645 20.5366 129.759 20.5833 129.759 20.5833C129.832 20.6167 129.899 20.6567 129.965 20.6901C130.132 20.7836 130.299 20.877 130.453 20.9838C130.506 21.0172 130.68 21.1507 130.706 21.164C130.82 21.2574 130.926 21.3442 131.027 21.4443C131.147 21.5578 131.267 21.6712 131.367 21.7914C131.42 21.8448 131.46 21.9048 131.507 21.9582C131.521 21.9716 131.527 21.9782 131.54 21.9916C131.554 22.0049 131.554 22.025 131.574 22.045C131.734 22.2919 131.874 22.5389 132.008 22.7992C132.034 22.8793 132.061 22.9594 132.088 23.0395C132.128 23.1663 132.161 23.2998 132.181 23.4266C132.181 23.4466 132.215 23.6201 132.215 23.6935C132.215 23.7603 132.215 23.827 132.215 23.8937C132.201 23.9605 132.181 24.0273 132.161 24.094C132.161 24.114 132.141 24.1474 132.128 24.1807C132.114 24.2074 132.094 24.2341 132.081 24.2542C132.068 24.2675 132.054 24.2875 132.028 24.3075C132.008 24.3276 131.974 24.3543 131.948 24.3743C131.908 24.3943 131.874 24.4143 131.834 24.441C131.821 24.441 131.807 24.441 131.794 24.4544C131.761 24.4544 131.721 24.4677 131.681 24.4811C131.681 24.4811 131.647 24.5011 131.607 24.5011C131.594 24.5011 131.587 24.5011 131.574 24.5011C131.48 24.5011 131.374 24.5144 131.28 24.5144C131.2 24.5144 131.127 24.5011 131.04 24.5011C131.007 24.5011 130.947 24.4944 130.906 24.4811C130.733 24.4477 130.553 24.401 130.379 24.3476C130.326 24.3342 130.112 24.2542 130.079 24.2408C129.758 24.1006 129.438 23.9271 129.138 23.7336C129.071 23.6935 129.011 23.6468 128.944 23.6067C128.918 23.5867 128.777 23.4866 128.737 23.4533C128.704 23.4199 128.664 23.3865 128.651 23.3798C128.564 23.3064 128.477 23.233 128.397 23.1529C128.263 23.0194 128.13 22.8926 128.003 22.7458C127.956 22.6924 127.91 22.6323 127.863 22.5723C127.863 22.5723 127.859 22.5678 127.85 22.5589C127.85 22.5589 127.81 22.5055 127.79 22.4788C127.583 22.1851 127.416 21.8781 127.262 21.5578C127.262 21.5578 127.262 21.5533 127.262 21.5444C127.236 21.451 127.202 21.3575 127.169 21.2641C127.176 21.0038 127.109 20.7368 126.962 20.4899C126.962 20.4765 126.962 20.4699 126.949 20.4632L126.955 20.4765ZM134.998 197.484C135.352 195.882 135.565 194.247 135.745 192.612C136.032 190.015 136.199 187.406 136.306 184.796C136.526 179.23 136.506 173.63 136.126 168.07C136.026 166.649 135.899 165.221 135.719 163.799C135.719 163.806 135.719 163.812 135.732 163.826C135.925 164.273 136.179 164.914 136.406 165.494C136.653 166.148 136.893 166.809 137.113 167.47C137.601 168.898 138.041 170.34 138.448 171.788C140.083 177.635 141.245 183.621 142.119 189.628C142.466 192.044 142.793 194.667 142.98 197.257C142.98 197.33 143 197.41 143.014 197.477H135.011L134.998 197.484ZM198.283 184.442C198.283 191.637 192.436 197.484 185.241 197.484H145.476C145.49 197.41 145.49 197.337 145.49 197.264C145.109 191.931 144.268 186.598 143.247 181.352C142.086 175.332 140.671 169.245 138.328 163.559C137.3 161.063 136.112 158.566 134.297 156.544C134.15 156.384 133.99 156.277 133.823 156.217C133.262 154.962 132.548 153.781 131.621 152.766C130.573 151.618 129.298 150.751 127.923 150.09C127.977 149.997 128.023 149.897 128.043 149.776C128.117 149.349 128.23 148.935 128.384 148.535C128.384 148.542 128.37 148.555 128.37 148.568C128.37 148.555 128.384 148.535 128.39 148.522C128.39 148.522 128.404 148.495 128.404 148.488C128.404 148.475 128.417 148.475 128.417 148.462V148.448C128.417 148.448 128.43 148.428 128.43 148.422V148.408C128.47 148.328 128.504 148.255 128.544 148.181C128.651 147.988 128.764 147.794 128.884 147.607C128.938 147.521 128.998 147.44 129.058 147.36C129.071 147.34 129.091 147.327 129.098 147.307V147.294C129.238 147.133 129.378 146.973 129.532 146.826C129.605 146.753 129.685 146.693 129.752 146.626C131.981 147.801 134.23 148.929 136.62 149.736C138.996 150.531 141.472 150.944 143.948 151.258C146.157 151.545 148.38 151.785 150.602 151.952C154.794 152.259 159.165 152.166 163.096 150.491C164.017 150.097 164.885 149.63 165.699 149.062C170.451 149.863 175.257 150.277 180.075 150.25C180.609 150.25 180.963 149.97 181.143 149.603C181.364 149.509 181.564 149.329 181.704 149.049C183.98 144.577 185.148 139.558 185.008 134.532C184.934 131.936 184.42 129.447 183.88 126.917C183.393 124.648 182.999 122.225 184.14 120.089C184.714 119.015 185.402 118.02 185.829 116.872C186.189 115.925 186.356 114.897 186.389 113.882C186.449 111.887 185.882 109.824 184.821 108.136C183.633 106.24 181.931 104.986 179.889 104.151C177.826 103.31 175.55 102.943 173.675 101.675C172.614 100.961 171.779 99.9266 170.999 98.9255C170.064 97.7241 169.15 96.5094 168.229 95.2947C167.681 94.5739 167.127 93.8531 166.58 93.1322C167.148 83.1009 167.488 71.6679 161.167 63.2116C160.373 62.1504 159.526 61.1093 158.605 60.1548C158.051 59.5875 157.443 59.0669 156.829 58.5597C159.138 57.3717 161.434 56.0836 163.283 54.2415C165.305 52.2259 166.734 49.4293 166.213 46.506C165.693 43.5827 163.303 41.3869 161.314 39.378C158.945 37.0019 156.582 34.6192 154.213 32.2365C149.461 27.4578 144.735 22.6457 139.957 17.8936C137.801 15.7512 135.558 13.7089 133.049 11.9869C130.973 10.572 128.751 9.37062 126.448 8.38283C116.477 4.0913 105.184 3.29041 94.5052 4.68532C89.1992 5.37944 83.9399 6.54741 78.9876 8.62309C74.4158 10.5386 69.9907 13.2283 67.0474 17.3063C65.4856 19.4687 64.5513 21.9849 64.2643 24.6346C63.9239 27.7314 64.5313 30.9017 65.5057 33.8384C66.3333 36.3412 67.4412 39.0509 69.0764 41.2868C62.5957 39.3713 55.7746 38.5837 49.0403 39.0376C45.7166 39.2645 42.4195 39.7784 39.1892 40.5927C38.6552 40.3991 37.9611 40.6928 37.6875 41.1666C37.4338 41.6005 37.4873 42.0476 37.7142 42.4214C37.8543 42.8018 38.1614 43.1222 38.5752 43.2156C45.9969 48.7352 53.3585 54.8021 58.4443 62.6243C58.6646 62.9514 58.8581 63.2851 59.065 63.6254C58.8648 63.7856 58.7113 64.0059 58.6245 64.2595C57.1028 68.6178 53.4654 71.788 49.0671 73.0094C44.0147 74.4177 38.6819 73.6168 33.5828 72.9627C30.3191 72.5422 27.0487 72.1684 23.7584 72.362C23.0976 72.402 22.7105 72.8492 22.5904 73.3498C22.1165 73.7035 21.8562 74.4844 22.2366 74.9983C28.1633 82.974 37.5673 86.5648 46.2638 90.636C46.3373 90.6694 46.4174 90.7095 46.4841 90.7428C43.5008 93.6261 41.2315 97.2168 39.4562 100.948C36.9533 106.2 35.2647 111.82 33.9299 117.48C33.1356 120.837 32.4749 124.227 31.8876 127.631C31.8075 127.611 31.7274 127.598 31.6473 127.585C26.7485 126.997 21.8429 130.288 20.3011 134.92C19.3801 137.689 19.6203 140.659 19.934 143.503C20.2611 146.533 20.5213 149.563 20.4813 152.613C20.4813 153.02 20.4613 153.421 20.448 153.828C27.5493 158.139 35.465 160.996 43.7076 162.204C44.3884 162.304 44.7488 163.165 44.5886 163.759C44.395 164.473 43.7076 164.74 43.0335 164.64C40.9311 164.333 38.8421 163.919 36.7798 163.399C31.0132 161.944 25.4403 159.668 20.2945 156.678C20.1543 158.767 19.9674 160.849 19.8473 162.931C19.627 166.816 19.4535 170.707 19.4669 174.598C19.4669 176.38 19.4935 178.169 19.6871 179.944C19.7739 180.685 19.8339 181.486 20.1142 182.193C20.5881 183.401 21.5692 184.296 22.8173 184.309C24.3123 184.669 25.814 184.97 27.3224 185.223C27.3557 189.368 27.6027 193.433 28.2434 197.51H16.3834C9.18856 197.51 3.3419 191.664 3.3419 184.469V15.5977C3.3419 8.40285 9.18856 2.55624 16.3834 2.55624H185.255C192.449 2.55624 198.296 8.40285 198.296 15.5977V184.469L198.283 184.442Z" fill="#F9F8F4"/>
</svg>
