<svg width="200" height="200" viewBox="0 0 200 200" fill="none" xmlns="http://www.w3.org/2000/svg">
<rect x="1" y="1" width="198" height="198" rx="9" fill="#252525" stroke="#F9F8F4" stroke-width="2" stroke-linejoin="round"/>
<path d="M53.0992 70.7128C57.1331 38.5518 91.0314 42.0602 93.8873 68.7297C94.0992 70.7297 95.4381 72.4501 97.3195 73.0941C99.7347 73.9162 102.319 73.8738 105.057 73.0602C107.404 72.3653 109.159 70.3992 109.659 67.9755C115.235 40.8229 147.616 40.1789 150.642 68.5348C150.836 70.3823 151.828 72.0518 153.311 73.1534C178.87 92.1196 180.158 110.484 152.497 128.128C146.955 131.662 140.853 134.213 134.472 135.713C109.226 141.653 83.8534 140.908 58.3619 133.662C57.5144 133.416 56.6585 133.145 55.8365 132.84C17.5738 118.637 21.9636 91.9755 49.5907 76.1619C51.5568 75.0348 52.828 72.9924 53.1077 70.7297L53.0992 70.7128Z" stroke="#F9F8F4" stroke-width="2" stroke-miterlimit="10"/>
<path d="M69.8789 86.4072C76.362 92.0767 82.8536 92.0767 89.3451 86.4072" stroke="#F9F8F4" stroke-width="2" stroke-miterlimit="10"/>
<path d="M117.193 86.4072C123.676 92.0767 130.167 92.0767 136.659 86.4072" stroke="#F9F8F4" stroke-width="2" stroke-miterlimit="10"/>
<path d="M68.2688 113.077C90.9976 122.755 114.625 125.051 140.243 111.043" stroke="#F9F8F4" stroke-width="2" stroke-miterlimit="10"/>
<path d="M111.065 120.526C116.464 127.874 122.218 131.958 128.591 130.552C133.65 128.992 132.608 123.179 129.591 115.992" stroke="#F9F8F4" stroke-width="2" stroke-miterlimit="10"/>
<path d="M52.6416 57.8475L80.3111 40.1102L77.5823 17L65.684 32.4068L48.4805 25L50.0568 41.4237L34.8619 49.1271L52.6416 57.8475Z" stroke="#F9F8F4" stroke-width="2" stroke-miterlimit="10"/>
<path d="M83.6753 138.703C78.2431 159.949 79.5229 180.195 90.6246 198.983" stroke="#F9F8F4" stroke-width="2" stroke-miterlimit="10"/>
<path d="M125.277 137.567C134.726 155.423 133.303 176.762 129.125 198.983" stroke="#F9F8F4" stroke-width="2" stroke-miterlimit="10"/>
<path d="M80.7264 167.094C72.6416 163.017 65.6925 162.153 61.0484 167.856C57.184 172.602 56.9637 179.339 59.9806 184.678C62.684 189.484 67.1077 194.238 71.989 198.975" stroke="#F9F8F4" stroke-width="2" stroke-miterlimit="10"/>
<path d="M132.353 168.838C139.726 162.686 145.43 162.016 149.955 165.254C153.726 167.949 155.599 172.677 154.989 177.313C153.794 186.499 150.506 193.423 145.972 198.982" stroke="#F9F8F4" stroke-width="2" stroke-miterlimit="10"/>
</svg>
