<svg width="202" height="200" viewBox="0 0 202 200" fill="none" xmlns="http://www.w3.org/2000/svg">
<path d="M183.547 2.61719H18.4872C10.036 2.61719 3.18494 9.46825 3.18494 17.9195V182.29C3.18494 190.741 10.036 197.592 18.4872 197.592H183.547C191.998 197.592 198.849 190.741 198.849 182.29V17.9195C198.849 9.46825 191.998 2.61719 183.547 2.61719Z" fill="#252525"/>
<path d="M146.218 53.7085C146.218 53.7085 146.205 53.6817 146.191 53.6549C146.191 53.6549 146.178 53.6416 146.178 53.6349C146.191 53.6616 146.205 53.6884 146.218 53.7085ZM145.816 53.1264L145.803 53.113L145.79 53.0996C145.73 53.0461 145.709 53.0327 145.716 53.0461C145.629 52.9925 145.542 52.9524 145.448 52.9122C145.348 52.8654 145.268 52.8052 145.188 52.7383C144.619 52.7182 144.05 52.7048 143.488 52.7115C143.455 52.7383 143.421 52.765 143.381 52.7851C143.341 52.8052 143.167 52.9323 143.08 52.9725C143.08 52.9725 143.066 52.9858 143.06 52.9925C143.026 53.026 143 53.0594 142.966 53.0862C142.939 53.1397 142.913 53.1799 142.886 53.2267C142.852 53.2802 142.826 53.3405 142.792 53.4007C142.792 53.4141 142.779 53.4141 142.779 53.4341C142.779 53.4609 142.765 53.4877 142.752 53.5077C142.739 53.5613 142.719 53.6148 142.705 53.6616C142.692 53.7085 142.652 54.0029 142.625 54.0564C142.625 54.1099 142.625 54.1702 142.612 54.217C142.612 54.3374 142.612 54.4646 142.612 54.585L142.625 54.7991C142.645 54.8928 142.658 54.9865 142.685 55.0801C142.712 55.1939 142.739 55.3009 142.779 55.408C142.779 55.4414 142.792 55.4548 142.792 55.4682C142.792 55.4816 142.806 55.4816 142.806 55.495C142.859 55.6087 142.933 55.7158 143 55.8228C143.033 55.8563 143.053 55.883 143.087 55.9165C143.107 55.9366 143.133 55.9633 143.16 55.9834C143.207 56.0035 143.254 56.0369 143.294 56.057C143.294 56.057 143.294 56.057 143.294 56.0704C143.374 56.0905 143.455 56.1172 143.535 56.1373C143.548 56.1373 143.588 56.1507 143.629 56.1507C143.662 56.1507 143.689 56.1507 143.702 56.1507C143.769 56.1507 143.836 56.1507 143.903 56.1507C144.017 56.1507 144.137 56.1507 144.244 56.1373C144.271 56.1373 144.331 56.1239 144.358 56.1239C144.371 56.1239 144.371 56.1239 144.371 56.1239H144.385C144.512 56.0972 144.639 56.0704 144.766 56.0302C144.82 56.0169 144.873 55.9968 144.927 55.9767C144.953 55.9633 145 55.9433 145.027 55.9366L145.181 55.863C145.295 55.8027 145.408 55.7358 145.515 55.6622C145.542 55.6489 145.622 55.5819 145.643 55.5686C145.723 55.495 145.803 55.4147 145.883 55.3344C145.917 55.3009 145.944 55.2675 145.977 55.234C146.037 55.127 146.104 55.04 146.151 54.9329C146.151 54.9329 146.151 54.9329 146.151 54.9195V54.9062C146.151 54.9062 146.164 54.8794 146.164 54.8727C146.164 54.8526 146.178 54.8392 146.178 54.8192C146.211 54.7255 146.231 54.6251 146.258 54.5248C146.258 54.5248 146.258 54.5114 146.258 54.5047C146.258 54.4712 146.258 54.4512 146.258 54.4378C146.258 54.3374 146.258 54.2304 146.258 54.13C146.258 54.1032 146.245 54.0497 146.245 54.0096C146.225 53.9226 146.205 53.8356 146.178 53.7486C146.164 53.7219 146.124 53.6349 146.118 53.5947C146.084 53.5211 146.051 53.4609 146.011 53.394C145.99 53.3605 145.97 53.3271 145.944 53.3003C145.89 53.2468 145.837 53.1866 145.783 53.133L145.816 53.1264ZM201.445 15.5565V184.437C201.445 193.021 194.433 200 185.822 200H16.3461C7.72809 200 0.722656 193.021 0.722656 184.437V15.5632C0.722656 6.97869 7.73478 0 16.3461 0H185.822C194.44 0 201.445 6.97869 201.445 15.5632V15.5565ZM198.909 184.437V15.5632C198.909 8.37041 193.035 2.5225 185.815 2.5225H16.3394C9.11983 2.5225 3.24515 8.37041 3.24515 15.5632V184.443C3.24515 191.636 9.11983 197.484 16.3394 197.484H34.6325C35.5157 193.838 36.1447 190.131 36.6933 186.424C37.9111 178.248 38.7207 170.018 39.4433 161.788C40.0656 154.722 40.5808 147.643 41.0759 140.571C38.3594 137.54 35.9038 134.281 33.8095 130.795C30.7852 125.75 28.5036 120.17 27.5736 114.349C26.5833 108.099 27.1721 101.77 29.166 95.768C33.4214 82.9547 42.8089 72.925 51.922 63.3234C51.9755 63.2632 52.0358 63.2164 52.096 63.1695C51.3466 61.7443 50.731 60.2523 50.3362 58.6933C49.0717 53.7486 50.1154 48.1483 52.4707 43.7055C56.4183 36.2718 64.3873 32.5115 72.4298 31.2803C75.1531 30.8588 77.9165 30.5912 80.6664 30.8253C83.2826 31.0595 85.8386 31.655 88.2607 32.6787C93.2522 34.7931 97.066 38.6538 99.2406 43.565C99.3343 43.6854 99.3945 43.8192 99.4212 43.9731C99.4748 44.0935 99.4882 44.2274 99.4815 44.3545C99.4948 44.4348 99.5082 44.5151 99.5216 44.5887C100.92 45.0102 102.312 45.4317 103.703 45.88C104.894 46.2681 106.072 46.6696 107.256 47.0777C107.33 47.0643 107.39 47.0643 107.47 47.0643C110.903 47.1513 114.295 46.2949 117.259 44.5619C120.377 42.7286 122.626 39.8582 125.442 37.6501C130.354 33.7961 136.737 32.3977 142.899 32.6252C148.64 32.8393 154.823 34.6057 158.115 39.6574C161.293 44.5351 161.005 51.012 158.824 56.2042C156.81 60.9816 153.203 65.0698 148.647 67.5789C152.119 69.8873 155.498 72.3094 158.797 74.8453C163.775 78.6792 169.195 83.1622 170.058 89.7795C170.419 92.5429 169.944 95.5806 168.298 97.889C167.214 99.4012 165.782 100.398 164.19 101.154C164.19 101.188 164.203 101.228 164.21 101.268C164.638 104.754 163.708 108.293 161.969 111.324C159.914 114.904 156.883 117.601 153.384 119.568C153.397 119.621 153.411 119.682 153.417 119.735C153.739 123.402 153.806 127.082 153.611 130.748C153.431 134.047 153.036 137.326 152.454 140.571C151.879 143.756 151.029 146.84 149.624 149.764C148.319 152.474 146.76 155.057 145.254 157.666C146.519 159.64 147.79 161.614 149.062 163.588C149.784 164.718 150.487 165.816 151.029 167.034C153.25 172.012 154.521 177.445 155.739 182.731C155.94 183.6 156.127 184.47 156.321 185.333V185.347C156.361 185.44 156.375 185.541 156.382 185.634C157.225 189.468 157.974 193.322 158.663 197.183C158.69 197.277 158.697 197.384 158.697 197.491H185.822C193.041 197.491 198.916 191.643 198.916 184.45L198.909 184.437ZM167.141 94.6305C167.977 92.1749 167.77 89.3714 166.732 87.0095C165.468 84.119 163.24 81.7771 160.885 79.7297C158.416 77.5819 155.746 75.6214 153.096 73.7011C147.536 69.6865 141.742 65.9864 135.76 62.6275C124.392 56.2444 112.355 51.1124 99.8763 47.3186C99.9097 47.6933 99.9298 48.068 99.9498 48.4494C100.251 54.2906 98.9997 60.3459 95.7145 65.2571C92.2285 70.4761 86.8623 73.8818 80.7869 75.3337C77.7559 76.063 74.6044 76.3507 71.4797 76.2905C68.1945 76.2169 64.8356 75.7218 61.8849 74.1962C58.9007 72.6506 56.7194 70.001 54.7657 67.3514C54.2973 66.7224 53.849 66.0801 53.4208 65.4177C48.4561 70.65 43.4646 75.9091 39.2828 81.7972C35.6629 86.9024 32.6453 92.4894 30.9659 98.538C29.4002 104.185 29.1727 110.087 30.4239 115.821C32.284 124.365 36.874 132.046 42.6751 138.577C43.1702 138.704 43.6051 139.132 43.6453 139.647C45.1909 141.32 46.8034 142.906 48.4762 144.411C52.3101 147.041 56.4853 149.135 60.8277 150.795C68.6494 153.785 76.8526 155.532 84.9152 157.74C93.0782 159.968 101.181 162.751 108.28 167.442C108.314 167.462 108.334 167.482 108.354 167.502C108.367 167.515 108.387 167.522 108.407 167.535C108.608 167.355 108.869 167.228 109.21 167.214C118.644 166.86 128.085 166.512 137.526 166.164C137.553 166.043 137.593 165.916 137.667 165.789C139.5 162.577 141.334 159.366 143.167 156.161C144.759 153.384 146.465 150.641 147.777 147.717C149.042 144.9 149.684 141.829 150.186 138.798C151.176 132.849 151.403 126.781 150.948 120.765C149.376 121.468 147.737 122.043 146.077 122.498C142.712 123.422 139.226 123.917 135.753 124.258C131.806 124.64 127.845 124.8 123.877 124.733C122.244 124.706 122.244 122.184 123.877 122.211C128.085 122.278 132.301 122.097 136.489 121.662C142.806 121 149.389 119.648 154.602 115.828C158.917 112.663 162.029 107.524 161.728 102.111C161.059 102.338 160.383 102.553 159.7 102.76C152.541 104.955 145.154 106.333 137.714 107.189C122.519 108.942 107.189 108.38 91.9407 107.798C84.0722 107.497 76.2036 107.196 68.3283 107.21C64.6951 107.21 61.0017 107.156 57.3818 107.504C54.953 107.738 52.1027 108.354 50.6507 110.501C49.7408 111.84 47.5461 110.575 48.4628 109.224C49.259 108.046 50.3095 107.102 51.5808 106.46C54.1836 105.135 57.1677 104.928 60.0382 104.828C63.8855 104.694 67.7395 104.667 71.5935 104.7C79.3818 104.767 87.1701 105.102 94.9517 105.39C109.913 105.945 124.961 106.333 139.841 104.399C147.014 103.469 154.16 101.97 161.025 99.6822C162.477 99.2004 163.989 98.6451 165.14 97.6147C166.05 96.8051 166.726 95.7746 167.114 94.6238L167.141 94.6305ZM157.365 52.6446C158.596 47.894 157.994 42.3472 154.2 38.9013C150.219 35.2815 144.043 34.7864 138.925 35.2213C136.181 35.4555 133.411 36.0778 130.909 37.2286C128.126 38.5133 125.958 40.447 123.763 42.5412C121.568 44.6489 119.267 46.5558 116.456 47.7803C115.239 48.3155 113.967 48.7304 112.683 49.0248C116.303 50.4098 119.889 51.9086 123.415 53.5144C123.536 53.4275 123.676 53.3605 123.843 53.3204C125.877 52.8386 127.905 52.3234 129.945 51.8751C138.985 49.9013 148.607 49.1586 157.372 52.6379L157.365 52.6446ZM156.576 55.0199C156.288 54.9062 156 54.7991 155.706 54.6987C155.01 56.7261 153.906 58.5996 152.441 60.172C151.022 61.7042 149.242 62.8952 147.268 63.5844C146.004 64.0193 144.659 64.1865 143.321 64.1464C144.298 64.7486 145.268 65.3575 146.231 65.973C150.888 63.7449 154.642 59.7906 156.569 55.0199H156.576ZM153.685 196.32L155.933 196.286C155.599 194.426 155.244 192.573 154.876 190.72C154.562 189.154 154.234 187.588 153.893 186.023C153.893 186.009 153.892 186.009 153.879 185.996C152.414 182.49 149.717 179.372 147.001 176.762C144.779 174.621 142.177 173.015 139.661 171.262C139.172 175.712 138.684 180.168 138.195 184.617C138.169 184.852 138.095 185.072 137.981 185.266C140.33 188.619 142.685 191.964 145.034 195.316C145.254 195.631 145.254 196.026 145.121 196.373C147.971 196.36 150.821 196.34 153.678 196.32H153.685ZM152.133 178.575C151.731 177.037 151.31 175.504 150.848 173.979C150.48 172.754 150.085 171.543 149.657 170.352C149.456 169.81 149.249 169.275 149.035 168.746C149.001 168.659 148.988 168.633 148.988 168.626C148.988 168.626 148.988 168.626 148.955 168.552C148.901 168.432 148.848 168.305 148.794 168.184C148.7 167.97 148.593 167.756 148.493 167.542C147.884 166.298 147.081 165.167 146.338 163.996C145.509 162.704 144.672 161.406 143.843 160.115L139.908 167.007C140.029 167.201 140.096 167.415 140.076 167.642C140.042 167.897 140.022 168.144 139.989 168.399C141.354 169.395 142.785 170.285 144.177 171.242C145.924 172.447 147.57 173.758 149.088 175.243C150.152 176.287 151.183 177.398 152.139 178.569L152.133 178.575ZM142.712 196.387C140.417 193.115 138.122 189.843 135.827 186.578C129.664 186.799 123.502 187.026 117.34 187.254C116.517 190.385 115.48 193.45 114.262 196.454H115.861C121.107 196.44 126.352 196.434 131.591 196.42C135.298 196.407 139.005 196.394 142.712 196.387ZM135.733 184.055C136.262 179.218 136.797 174.367 137.326 169.529C137.138 169.382 136.944 169.235 136.764 169.088C136.65 168.994 136.563 168.867 136.503 168.733C127.55 169.061 118.591 169.395 109.638 169.73C111.92 174.661 114.342 179.539 116.891 184.336C117.112 184.423 117.306 184.551 117.453 184.731C123.549 184.51 129.638 184.29 135.727 184.062L135.733 184.055ZM132.381 57.9171C131.806 56.7863 131.505 55.5284 131.538 54.1635C130.006 54.4846 128.467 54.8326 126.941 55.1872C128.768 56.0637 130.581 56.9737 132.374 57.9171H132.381ZM114.911 186.558C114.837 186.344 114.817 186.096 114.851 185.869C112.382 181.232 110.04 176.528 107.818 171.771C105.637 177.699 103.469 183.627 101.288 189.555C101.255 189.662 101.194 189.763 101.134 189.856C101.308 190.198 101.321 190.606 101.094 190.994C100.773 191.536 99.9097 191.85 99.361 191.442C94.6506 187.936 90.0539 184.283 85.5308 180.549C77.4749 173.898 69.633 166.98 61.8782 159.988C56.8466 155.445 51.8551 150.855 46.8302 146.298C46.8168 146.298 46.8168 146.298 46.8101 146.285C46.77 146.251 46.7298 146.211 46.6964 146.178C45.6057 145.194 44.5218 144.217 43.4312 143.24C43.2371 145.937 43.0431 148.627 42.8423 151.323C42.2067 159.653 41.4908 167.977 40.5406 176.28C39.7645 183.092 38.9348 189.97 37.4226 196.668C38.6872 196.641 39.9585 196.648 41.2298 196.634C44.5753 196.608 47.9275 196.594 51.2797 196.581C55.8764 196.568 60.4865 196.547 65.0832 196.541C70.4694 196.527 75.869 196.521 81.2552 196.507C87.0496 196.494 92.844 196.487 98.6317 196.474C102.941 196.474 107.25 196.46 111.559 196.454C111.572 196.407 111.585 196.36 111.606 196.32C112.95 193.148 114.048 189.877 114.911 186.551V186.558ZM99.1268 188.13C101.462 181.767 103.79 175.417 106.126 169.054C102.432 166.719 98.4711 164.852 94.3763 163.347C86.5144 160.45 78.2912 158.723 70.2419 156.475C65.5783 155.17 60.9415 153.672 56.512 151.711C63.1294 157.74 69.7668 163.742 76.5247 169.616C83.8714 175.999 91.3586 182.256 99.1268 188.13ZM97.3872 52.5376C97.5946 49.8946 97.4407 47.2182 96.9991 44.6355C96.5174 43.4847 95.9018 42.3873 95.1992 41.3569C92.5095 37.4159 88.254 34.8667 83.6372 33.8095C78.9067 32.7323 73.7881 33.3077 69.1178 34.5188C67.0035 35.0674 65.0698 35.7633 63.1896 36.7402C62.3265 37.1818 61.4968 37.6769 60.7006 38.2256C59.9378 38.7474 59.5698 39.0352 58.8539 39.6708C57.6361 40.7547 56.6392 41.8855 55.863 43.0096C55.4682 43.585 55.1002 44.1805 54.7657 44.7961C54.5984 45.1106 54.4445 45.425 54.2906 45.7395C54.217 45.8934 54.1434 46.054 54.0698 46.2079L53.9761 46.422C53.9761 46.422 53.9761 46.422 53.9761 46.4354C53.9761 46.4488 53.9627 46.4488 53.9627 46.4688C53.5078 47.5996 53.1398 48.7638 52.8654 49.9548C52.745 50.4968 52.6446 51.0321 52.5643 51.5807C52.5643 51.6343 52.551 51.6677 52.551 51.6945C52.551 51.7079 52.551 51.7279 52.551 51.748L52.5041 52.0959C52.484 52.3167 52.4573 52.5376 52.4439 52.765C52.2766 54.8459 52.4707 56.8733 53.0528 58.8338C55.9165 57.4956 58.8472 56.318 61.8581 55.3344C73.2729 51.6276 85.5308 50.6842 97.3939 52.5509L97.3872 52.5376ZM95.4201 60.5801C96.2029 58.8003 96.7449 56.9335 97.0794 55.0199C95.3799 54.7456 93.6737 54.5382 91.9541 54.391C91.3586 57.8569 90.5624 61.2626 88.2339 64.0193C84.6944 68.2212 78.445 70.195 73.1859 68.3818C68.3216 66.709 64.6683 62.3666 63.7851 57.3551C60.4262 58.3855 57.141 59.6634 53.9561 61.1689C55.2608 63.8921 57.0741 66.4347 59.0814 68.6762C60.0716 69.7869 61.1622 70.8106 62.4402 71.5868C63.7583 72.383 65.2036 72.8915 66.6957 73.2327C69.5594 73.8751 72.5971 73.8818 75.5144 73.6342C78.3514 73.4 81.1683 72.7844 83.8246 71.754C89.0368 69.7133 93.1719 65.6786 95.4267 60.5868L95.4201 60.5801ZM83.7978 56.4718C83.7978 56.318 83.7845 56.1574 83.7778 56.0035C83.7644 55.9433 83.751 55.8763 83.7376 55.8094C83.7041 55.6622 83.664 55.5217 83.6239 55.3812C83.6038 55.3277 83.5837 55.2742 83.5636 55.2273V55.2139C83.4834 55.0667 83.4097 54.9128 83.3228 54.7723C83.2893 54.7188 83.2626 54.6787 83.2291 54.6318C83.2157 54.6184 83.1823 54.5716 83.1555 54.5382C83.122 54.5047 83.0886 54.4646 83.0819 54.4445C83.0484 54.4043 83.0083 54.3642 82.9681 54.324C82.9146 54.2705 82.8477 54.217 82.7942 54.1635C81.4292 54.217 80.0576 54.2973 78.6993 54.4244C78.6859 54.4445 78.6725 54.4646 78.6591 54.4846C78.6324 54.5181 78.619 54.5315 78.6056 54.5448L78.5856 54.585C78.5454 54.6519 78.4986 54.7121 78.4584 54.7723C78.3848 54.9062 78.3112 55.0333 78.2443 55.1738C78.2443 55.1872 78.2309 55.2006 78.2309 55.2072C78.2309 55.2139 78.2309 55.2206 78.2309 55.234C78.2109 55.3076 78.1774 55.3745 78.1573 55.4481C78.1038 55.6087 78.0703 55.776 78.0369 55.9433C78.0369 55.97 78.0235 55.9834 78.0235 55.9968L78.0101 56.1641C77.9967 56.3313 77.9967 56.5053 78.0101 56.6659C78.0101 56.7462 78.0235 56.8265 78.0235 56.9135C78.057 57.0673 78.0904 57.2279 78.1373 57.3818C78.1506 57.442 78.2242 57.6361 78.2309 57.6695C78.2845 57.7833 78.338 57.9037 78.4049 58.0108C78.4718 58.1245 78.5454 58.2249 78.6123 58.3319C78.6123 58.3319 78.6168 58.3319 78.6257 58.3319C78.6592 58.3721 78.6993 58.4189 78.7328 58.4591C78.8465 58.5795 78.9669 58.6932 79.0941 58.8003C79.1075 58.8137 79.161 58.8538 79.1944 58.8806C79.2078 58.894 79.2279 58.9074 79.2279 58.9074C79.4621 59.0613 79.6963 59.1951 79.9438 59.3155C79.9438 59.3155 79.9773 59.3289 79.9973 59.3356C80.0709 59.3557 80.1379 59.3824 80.2115 59.4092C80.3319 59.4426 80.459 59.4761 80.5862 59.5029C80.6464 59.5162 80.7133 59.5296 80.7802 59.5363H80.7936C80.9207 59.5363 81.0545 59.5497 81.1817 59.5497C81.2753 59.5497 81.3623 59.5497 81.4627 59.5363C81.4761 59.5363 81.543 59.5229 81.5898 59.5162C81.6233 59.5162 81.65 59.5029 81.6567 59.5029C81.737 59.4828 81.824 59.4627 81.9043 59.4359C81.9779 59.4159 82.0448 59.3958 82.1184 59.3624C82.1385 59.349 82.1585 59.3356 82.1987 59.3088C82.2522 59.2754 82.3124 59.2419 82.3593 59.2018H82.3727L82.4128 59.1616C82.56 59.0278 82.6938 58.8873 82.8276 58.7401L82.9481 58.5862C82.9481 58.5862 82.9681 58.5661 82.9748 58.5527C82.9748 58.5527 82.9748 58.5394 82.9882 58.5394C83.1756 58.2851 83.3495 58.0175 83.4967 57.7298C83.6172 57.4956 83.6774 57.3684 83.7644 56.9937C83.7777 56.9402 83.7844 56.88 83.7978 56.8332C83.7978 56.8332 83.7978 56.8287 83.7978 56.8198C83.8112 56.6993 83.8179 56.5722 83.8179 56.4518L83.7978 56.4718ZM71.5199 57.1209C71.5199 57.0473 71.5199 56.9737 71.5065 56.9068L71.2322 56.9804C71.3259 57.0205 71.4195 57.074 71.5132 57.1209H71.5199Z" fill="white"/>
<path d="M155.933 196.3L153.685 196.333C150.828 196.36 147.978 196.373 145.128 196.387C145.261 196.032 145.261 195.637 145.041 195.329C142.692 191.977 140.337 188.632 137.988 185.28C138.102 185.086 138.176 184.865 138.202 184.631C138.691 180.181 139.179 175.725 139.668 171.275C142.177 173.022 144.786 174.634 147.008 176.775C149.724 179.385 152.421 182.503 153.886 186.009C153.886 186.022 153.899 186.022 153.899 186.036C154.241 187.601 154.569 189.167 154.883 190.733C155.251 192.586 155.606 194.44 155.94 196.3H155.933Z" fill="white"/>
<path d="M151.731 81.5299C151.745 81.8711 151.577 82.1789 151.356 82.4265C151.142 82.6606 150.774 82.7945 150.467 82.7945C150.159 82.7945 149.771 82.6606 149.57 82.4265C148.995 81.7507 148.566 80.9745 148.372 80.1047C148.178 79.2282 148.185 78.3249 148.412 77.4618C148.593 76.7793 149.309 76.4247 149.971 76.5786C150.641 76.7324 151.022 77.4952 150.855 78.1309C150.821 78.2446 150.808 78.3584 150.788 78.4721C150.761 78.7264 150.761 78.9806 150.788 79.2416C150.835 79.5025 150.901 79.7501 150.995 79.9976C151.116 80.2519 151.256 80.4995 151.437 80.7336C151.611 80.9678 151.718 81.2154 151.738 81.5232L151.731 81.5299Z" fill="white"/>
<path d="M150.848 173.985C151.303 175.51 151.731 177.043 152.133 178.582C151.169 177.411 150.139 176.3 149.082 175.256C147.569 173.771 145.923 172.453 144.17 171.255C142.779 170.298 141.347 169.408 139.982 168.411C140.015 168.157 140.035 167.91 140.069 167.655C140.089 167.428 140.022 167.214 139.902 167.02L143.836 160.128C144.666 161.419 145.502 162.717 146.332 164.009C147.074 165.173 147.884 166.31 148.486 167.555C148.593 167.769 148.694 167.983 148.787 168.197C148.841 168.318 148.901 168.445 148.948 168.565C148.981 168.632 148.981 168.639 148.981 168.639C148.981 168.652 148.995 168.672 149.028 168.759C149.249 169.288 149.456 169.823 149.65 170.365C150.079 171.556 150.473 172.767 150.841 173.992L150.848 173.985Z" fill="white"/>
<path d="M145.803 53.113C145.803 53.113 145.817 53.113 145.817 53.1263C145.763 53.1263 145.716 53.0728 145.716 53.0527C145.73 53.0661 145.77 53.0929 145.803 53.113Z" fill="white"/>
<path d="M114.978 86.9708C114.978 86.9708 114.944 86.9842 114.911 86.9842C114.844 86.9976 114.757 87.0177 114.737 87.0244C114.603 87.0511 114.476 87.0779 114.349 87.1113C113.66 87.2853 113.004 86.8972 112.79 86.2281C112.582 85.5925 113.031 84.8431 113.673 84.6758C116.303 84.0134 119.046 84.6758 121.133 86.382C121.682 86.8303 121.562 87.7068 121.133 88.1685C120.645 88.7038 119.855 88.5901 119.347 88.1685C119.32 88.1484 119.307 88.1351 119.293 88.1284C119.267 88.1083 119.24 88.0815 119.213 88.0682C119.106 87.9879 118.992 87.9143 118.885 87.8474C118.664 87.7135 118.43 87.5797 118.189 87.466C118.136 87.4392 118.089 87.4124 118.035 87.3924C117.915 87.3455 117.795 87.2987 117.667 87.2585C117.433 87.1783 117.199 87.1113 116.952 87.0578C116.838 87.0311 116.731 87.011 116.61 86.9909C116.577 86.9909 116.537 86.9775 116.497 86.9775C116.483 86.9775 116.476 86.9775 116.456 86.9775C116.195 86.9575 115.934 86.9374 115.667 86.9374C115.433 86.9374 115.172 86.9374 114.938 86.9775C114.951 86.9775 114.964 86.9641 114.971 86.9641L114.978 86.9708Z" fill="white"/>
<path d="M114.978 86.9697C114.978 86.9697 114.951 86.9697 114.944 86.9831C114.931 86.9831 114.924 86.9831 114.911 86.9831C114.944 86.9831 114.964 86.9697 114.978 86.9697Z" fill="white"/>
<path d="M114.844 185.874C114.811 186.109 114.831 186.35 114.904 186.564C114.041 189.896 112.944 193.168 111.599 196.332C111.579 196.379 111.566 196.426 111.552 196.466C107.243 196.466 102.934 196.48 98.6253 196.486C92.8376 196.5 87.0432 196.506 81.2488 196.52C75.8626 196.533 70.463 196.54 65.0768 196.553C60.4801 196.567 55.87 196.58 51.2733 196.593C47.9211 196.607 44.5689 196.627 41.2234 196.647C39.9588 196.66 38.6875 196.647 37.4163 196.68C38.9284 189.983 39.7648 183.111 40.5343 176.293C41.4844 167.989 42.1936 159.659 42.836 151.336C43.0367 148.639 43.2307 145.949 43.4247 143.253C44.5154 144.23 45.5993 145.207 46.6899 146.19C46.7234 146.224 46.7636 146.264 46.8037 146.297C46.8037 146.311 46.8171 146.311 46.8238 146.311C51.8487 150.861 56.8402 155.457 61.8718 160C69.6333 166.999 77.4684 173.911 85.5244 180.562C90.0475 184.295 94.6442 187.949 99.3546 191.455C99.9033 191.863 100.766 191.548 101.088 191.006C101.315 190.612 101.302 190.21 101.128 189.869C101.188 189.775 101.241 189.675 101.282 189.568C103.463 183.64 105.631 177.711 107.812 171.783C110.033 176.541 112.369 181.244 114.844 185.881V185.874Z" fill="white"/>
<path d="M106.119 169.062C103.784 175.425 101.455 181.775 99.1201 188.138C91.3519 182.263 83.8713 176.007 76.518 169.624C69.7601 163.756 63.1226 157.747 56.5052 151.719C60.9347 153.679 65.5648 155.178 70.2351 156.483C78.2911 158.731 86.5076 160.457 94.3695 163.354C98.4644 164.867 102.425 166.733 106.119 169.062Z" fill="white"/>
<path d="M53.9357 61.1473C53.9357 61.1473 71.185 51.2781 97.059 54.9983C96.1758 69.2434 82.2117 74.1546 71.4995 74.1546C60.7872 74.1546 56.4381 65.9046 53.9357 61.1473Z" fill="#F9F8F4"/>
<mask id="mask0_8378_53417" style="mask-type:luminance" maskUnits="userSpaceOnUse" x="53" y="54" width="45" height="21">
<path d="M53.9349 61.1444C53.9349 61.1444 71.1843 51.2752 97.0583 54.9954C96.1751 69.2405 82.211 74.1517 71.4988 74.1517C60.7865 74.1517 56.4374 65.9017 53.9349 61.1444Z" fill="white"/>
</mask>
<g mask="url(#mask0_8378_53417)">
<path d="M62.8273 56.1134C62.8273 56.1134 64.9082 70.6797 78.6247 68.9601C94.4087 66.9796 92.0468 53.0891 92.0468 53.0891C92.0468 53.0891 71.9404 51.6439 62.8273 56.1134Z" fill="#252525"/>
<path d="M79.7289 60.1027C81.377 60.1027 82.7131 58.7727 82.7131 57.1319C82.7131 55.4912 81.377 54.1611 79.7289 54.1611C78.0808 54.1611 76.7448 55.4912 76.7448 57.1319C76.7448 58.7727 78.0808 60.1027 79.7289 60.1027Z" fill="#F9F8F4"/>
</g>
<path d="M126.941 55.1527C126.941 55.1527 141.909 50.2014 157.057 54.129C155.652 61.5426 146.231 65.9452 146.231 65.9452C146.231 65.9452 130.447 57.5079 126.934 55.1527H126.941Z" fill="#F9F8F4"/>
<mask id="mask1_8378_53417" style="mask-type:luminance" maskUnits="userSpaceOnUse" x="126" y="52" width="32" height="14">
<path d="M126.941 55.1527C126.941 55.1527 141.909 50.2014 157.057 54.129C155.652 61.5426 146.231 65.9452 146.231 65.9452C146.231 65.9452 130.447 57.5079 126.934 55.1527H126.941Z" fill="white"/>
</mask>
<g mask="url(#mask1_8378_53417)">
<path d="M136.663 51.6162C136.663 51.6162 132.936 61.2579 144.056 62.2883C154.206 63.2317 154.902 51.7567 154.902 51.7567L136.663 51.6162Z" fill="#252525"/>
<path d="M144.505 57.096C145.887 57.096 147.007 55.9786 147.007 54.6002C147.007 53.2219 145.887 52.1045 144.505 52.1045C143.122 52.1045 142.002 53.2219 142.002 54.6002C142.002 55.9786 143.122 57.096 144.505 57.096Z" fill="#F9F8F4"/>
</g>
<path d="M105.898 174.681C103.87 180.609 101.77 186.517 99.5816 192.392L101.442 191.636C89.6053 182.563 78.0968 173.075 66.9363 163.193C63.7915 160.409 60.6802 157.599 57.589 154.755C56.3913 153.651 54.5981 155.438 55.7958 156.542C66.8426 166.712 78.2441 176.501 89.98 185.868C93.3456 188.551 96.7379 191.208 100.157 193.824C100.86 194.366 101.77 193.737 102.017 193.068C104.205 187.193 106.306 181.292 108.333 175.357C108.862 173.818 106.413 173.155 105.891 174.688L105.898 174.681Z" fill="#252525"/>
<path d="M139.132 174.047C141.996 178.135 145.194 181.989 148.7 185.542C149.215 186.064 150.359 186.044 150.687 185.288C154.033 177.6 157.151 169.825 160.034 161.956C160.269 161.314 159.774 160.571 159.151 160.404C158.449 160.21 157.826 160.645 157.592 161.287C154.782 168.948 151.751 176.529 148.499 184.016L150.486 183.762C147.128 180.363 144.05 176.697 141.313 172.776C140.925 172.22 140.202 171.959 139.58 172.321C139.025 172.642 138.73 173.485 139.125 174.047H139.132Z" fill="#252525"/>
</svg>
