<svg width="201" height="200" viewBox="0 0 201 200" fill="none" xmlns="http://www.w3.org/2000/svg">
<path d="M182.824 2.72363H17.7703C9.31933 2.72363 2.46851 9.57446 2.46851 18.0254V182.39C2.46851 190.841 9.31933 197.692 17.7703 197.692H182.824C191.275 197.692 198.126 190.841 198.126 182.39V18.0254C198.126 9.57446 191.275 2.72363 182.824 2.72363Z" fill="#252525"/>
<path d="M144.212 55.9748C144.212 55.9748 144.286 55.9414 144.313 55.9347L144.467 55.8611C144.58 55.8009 144.694 55.734 144.801 55.6604C144.828 55.647 144.908 55.5801 144.928 55.5667C145.009 55.4931 145.089 55.4128 145.169 55.3392L145.263 55.2322C145.323 55.1251 145.39 55.0381 145.437 54.9311C145.437 54.9311 145.437 54.9311 145.437 54.9177V54.9043C145.437 54.9043 145.45 54.8776 145.45 54.8709C145.45 54.8508 145.464 54.8374 145.464 54.8173C145.497 54.7237 145.517 54.6233 145.544 54.5229C145.544 54.5229 145.544 54.5096 145.544 54.5029C145.544 54.4694 145.544 54.4493 145.544 54.436C145.544 54.3356 145.544 54.2286 145.544 54.1282C145.544 54.1014 145.531 54.0479 145.531 54.0145C145.51 53.9208 145.49 53.8338 145.464 53.7468C145.45 53.7201 145.41 53.6331 145.403 53.5929C145.37 53.526 145.337 53.4591 145.296 53.3922C145.276 53.3588 145.256 53.3253 145.229 53.2985C145.176 53.245 145.122 53.1848 145.069 53.138H145.089C145.089 53.138 145.069 53.1246 145.056 53.1179L145.042 53.1045C144.982 53.051 144.962 53.0443 144.969 53.051C144.882 52.9975 144.795 52.9573 144.701 52.9172C144.601 52.8703 144.52 52.8101 144.44 52.7432C143.871 52.7231 143.303 52.7098 142.741 52.7164C142.707 52.7432 142.674 52.77 142.633 52.79C142.593 52.8101 142.419 52.9372 142.332 52.9774C142.332 52.9774 142.319 52.9908 142.312 52.9975C142.279 53.0309 142.252 53.0644 142.219 53.0911C142.192 53.1446 142.165 53.1848 142.138 53.2316C142.105 53.2852 142.078 53.3454 142.045 53.4056C142.045 53.419 142.031 53.419 142.031 53.439C142.031 53.4658 142.018 53.4926 142.005 53.5193L141.958 53.6732C141.944 53.7201 141.904 54.0144 141.877 54.068C141.877 54.1215 141.877 54.1817 141.864 54.2286C141.864 54.3557 141.864 54.4761 141.864 54.5965L141.877 54.8106C141.897 54.9043 141.911 55.0047 141.938 55.0917C141.964 55.2054 141.991 55.3125 142.031 55.4195C142.031 55.453 142.045 55.4663 142.045 55.4797C142.045 55.4931 142.058 55.4931 142.058 55.5132C142.112 55.6269 142.185 55.7273 142.252 55.8343C142.286 55.8678 142.306 55.8946 142.339 55.928C142.359 55.9481 142.386 55.9748 142.413 55.9949C142.46 56.0217 142.506 56.0484 142.546 56.0685C142.546 56.0685 142.546 56.0685 142.546 56.0819C142.627 56.102 142.707 56.1287 142.787 56.1488C142.801 56.1488 142.841 56.1622 142.881 56.1622C142.914 56.1622 142.941 56.1622 142.955 56.1622C143.022 56.1622 143.088 56.1622 143.155 56.1622C143.269 56.1622 143.39 56.1622 143.497 56.1488C143.517 56.1488 143.55 56.1354 143.577 56.1354C143.59 56.1354 143.604 56.1354 143.61 56.1354C143.61 56.1354 143.615 56.1354 143.624 56.1354H143.637L143.65 56.122C143.778 56.0953 143.905 56.0685 144.032 56.0284C144.085 56.015 144.139 55.9949 144.192 55.9748H144.212ZM145.497 53.7134C145.497 53.7134 145.484 53.6866 145.47 53.6598C145.47 53.6598 145.457 53.6465 145.457 53.6398C145.47 53.6665 145.484 53.6933 145.497 53.7134ZM200.723 15.5627V184.437C200.723 193.022 193.711 200 185.1 200H15.6229C7.00522 200 0 193.022 0 184.437V15.5694C0 6.98515 7.01191 0 15.6229 0H185.093C193.711 0 200.716 6.97846 200.716 15.5627H200.723ZM198.187 184.437V15.5694C198.187 8.37682 192.312 2.5291 185.093 2.5291H15.6229C8.41028 2.5291 2.5358 8.37682 2.5358 15.5694V184.444C2.5358 191.637 8.41028 197.484 15.6296 197.484H33.9087C34.6313 193.443 35.3539 189.395 36.0765 185.347C34.357 184.906 32.6509 184.437 30.9581 183.936C25.0836 182.196 19.169 180.001 14.2245 176.301C9.70828 172.923 5.98153 168.239 4.58317 162.699C4.1951 161.18 4.02783 159.648 4.02783 158.129C4.02783 153.493 5.58009 148.883 7.31299 144.594C11.662 133.815 18.4999 124.087 27.2514 116.399C27.1042 115.717 26.9704 115.034 26.8634 114.352C25.8731 108.103 26.4619 101.78 28.4558 95.7714C32.7111 82.9586 42.0982 72.9292 51.211 63.328C51.2645 63.2678 51.3248 63.2209 51.385 63.1741C50.6356 61.749 50.0201 60.2569 49.6253 58.698C48.3608 53.7535 49.4045 48.16 51.7597 43.7107C55.7072 36.284 63.6759 32.5171 71.7182 31.286C74.4413 30.8644 77.2046 30.5968 79.9545 30.8377C82.5706 31.0652 85.1265 31.6606 87.5485 32.6843C92.5398 34.7986 96.3535 38.6592 98.528 43.5769C98.6217 43.6906 98.6819 43.8311 98.7087 43.9783C98.7622 44.1054 98.7756 44.2326 98.7689 44.3597C98.7823 44.44 98.7957 44.5203 98.809 44.5939C100.207 45.0154 101.599 45.4436 102.991 45.8919C104.182 46.2732 105.359 46.6747 106.544 47.0828C106.617 47.0695 106.677 47.0694 106.758 47.0694C110.19 47.1564 113.582 46.3 116.546 44.5671C119.664 42.7405 121.912 39.8635 124.729 37.6556C129.64 33.8017 136.023 32.4033 142.185 32.6308C147.926 32.8449 154.108 34.6113 157.4 39.6695C160.578 44.5403 160.29 51.017 158.109 56.209C156.095 60.9929 152.489 65.0743 147.933 67.59C151.405 69.8916 154.784 72.3137 158.082 74.8561C163.06 78.6899 168.48 83.1728 169.343 89.7899C169.704 92.5532 169.229 95.5908 167.583 97.8991C166.499 99.4112 165.068 100.408 163.475 101.164C163.475 101.198 163.489 101.238 163.495 101.278C163.923 104.764 162.993 108.303 161.254 111.334C159.2 114.914 156.169 117.61 152.67 119.577C152.683 119.631 152.696 119.691 152.703 119.744C152.783 120.674 152.85 121.598 152.897 122.528C158.022 128.188 163.79 133.434 167.737 140.037C171.109 145.664 173.15 152.415 171.785 158.966C170.567 164.793 166.653 169.577 162.224 173.364C159.595 175.605 156.751 177.553 153.901 179.486C155.68 185.294 156.891 191.208 157.949 197.19C157.975 197.284 157.982 197.391 157.982 197.498H185.106C192.326 197.498 198.2 191.65 198.2 184.457L198.187 184.437ZM169.53 157.139C170.393 150.79 167.784 144.427 164.245 139.275C161 134.544 156.898 130.503 152.977 126.335C152.977 127.807 152.957 129.279 152.884 130.744C152.703 134.036 152.308 137.314 151.726 140.559C151.151 143.744 150.301 146.829 148.896 149.752C147.591 152.456 146.032 155.045 144.527 157.648C145.397 159.006 146.267 160.364 147.143 161.722C147.518 160.016 147.819 158.31 147.993 156.617C148.06 155.935 148.515 155.353 149.257 155.353C149.893 155.353 150.589 155.935 150.522 156.617C150.221 159.514 149.625 162.371 148.883 165.188C147.043 172.14 144.493 178.884 141.703 185.528C143.329 184.002 145.076 182.597 146.869 181.279C151.559 177.827 156.637 174.916 161.013 171.049C165.175 167.383 168.768 162.786 169.537 157.146L169.53 157.139ZM166.412 94.634C167.249 92.1785 167.041 89.3751 166.004 87.0132C164.74 84.1228 162.512 81.7811 160.157 79.7337C157.688 77.586 155.018 75.6256 152.369 73.7053C146.809 69.6909 141.014 65.9909 135.033 62.6254C123.665 56.2425 111.629 51.1107 99.1503 47.317C99.1837 47.6984 99.2038 48.0664 99.2239 48.4477C99.525 54.2888 98.2738 60.3439 94.9886 65.2549C91.5027 70.4737 86.1368 73.8793 80.0616 75.3312C77.0306 76.0605 73.8793 76.3482 70.7547 76.288C67.4696 76.2144 64.1108 75.7259 61.1602 74.1938C58.1761 72.6482 55.9949 69.9987 54.0412 67.3491C53.5729 66.7202 53.1246 66.0779 52.6964 65.4155C47.7318 70.6477 42.7405 75.9066 38.5588 81.7945C34.9391 86.8995 31.9216 92.4863 30.2422 98.5347C28.6766 104.182 28.4491 110.083 29.7003 115.817C31.5603 124.368 36.1501 132.042 41.951 138.579C42.4461 138.699 42.881 139.128 42.9212 139.643C44.4935 141.349 46.1461 142.968 47.8523 144.5C49.07 145.591 47.2702 147.371 46.0658 146.287C44.9016 145.243 43.7776 144.159 42.6803 143.042C42.5264 144.962 42.3592 146.882 42.1919 148.802C44.8414 149.953 47.4843 151.117 50.1271 152.268C55.9012 154.784 61.4345 157.112 67.3023 159.387C75.5051 162.565 83.6946 165.79 91.7503 169.316C99.7458 172.815 107.621 176.602 115.195 180.931C122.146 184.906 128.824 189.348 135.073 194.34C135.207 194.052 135.347 193.771 135.488 193.49C136.297 191.65 137.107 189.81 137.896 187.957C140.165 182.644 142.326 177.285 144.186 171.819C144.935 169.617 145.664 167.356 146.287 165.074C146.246 165.021 146.2 164.974 146.166 164.92C145.143 163.321 144.112 161.722 143.088 160.123C141.764 162.438 140.446 164.76 139.114 167.075C138.311 168.48 136.123 167.209 136.933 165.797C138.766 162.585 140.599 159.374 142.433 156.169C144.025 153.392 145.731 150.649 147.043 147.732C148.307 144.908 148.95 141.844 149.451 138.806C150.442 132.858 150.669 126.79 150.214 120.775C148.642 121.477 147.003 122.053 145.343 122.514C141.978 123.438 138.492 123.926 135.019 124.267C131.072 124.649 127.111 124.809 123.143 124.749C121.511 124.722 121.511 122.2 123.143 122.227C127.352 122.294 131.567 122.113 135.755 121.671C142.071 121.009 148.655 119.657 153.867 115.837C158.183 112.672 161.294 107.534 160.993 102.121C160.324 102.348 159.648 102.563 158.966 102.77C151.806 104.965 144.42 106.343 136.98 107.199C121.785 108.952 106.457 108.39 91.2084 107.808C83.34 107.507 75.4717 107.206 67.5967 107.219C63.9636 107.219 60.2703 107.166 56.6506 107.514C54.2219 107.748 51.3716 108.363 49.9197 110.511C49.0098 111.849 46.8152 110.585 47.7318 109.233C48.528 108.056 49.5785 107.112 50.8497 106.47C53.4524 105.145 56.4365 104.938 59.3068 104.837C63.154 104.704 67.0079 104.677 70.8618 104.71C78.6498 104.784 86.4378 105.112 94.2192 105.399C109.18 105.955 124.227 106.35 139.107 104.409C146.28 103.479 153.426 101.98 160.29 99.6922C161.742 99.2105 163.254 98.6552 164.405 97.6248C165.315 96.8152 165.991 95.7848 166.379 94.634H166.412ZM156.637 52.6495C157.868 47.8991 157.266 42.3525 153.473 38.9067C149.492 35.287 143.316 34.7986 138.198 35.2268C135.454 35.461 132.684 36.0832 130.182 37.234C127.399 38.5187 125.231 40.4523 123.036 42.5532C120.842 44.6541 118.54 46.561 115.73 47.792C114.512 48.3206 113.241 48.7354 111.956 49.0365C115.576 50.4215 119.162 51.9202 122.688 53.526C122.809 53.439 122.949 53.3721 123.117 53.332C125.151 52.8503 127.178 52.3351 129.219 51.8868C138.258 49.913 147.879 49.1703 156.644 52.6495H156.637ZM155.848 55.0248C155.56 54.911 155.272 54.804 154.978 54.7036C154.282 56.7309 153.178 58.6043 151.713 60.1766C150.294 61.7088 148.515 62.9065 146.541 63.5889C145.276 64.0305 143.931 64.1911 142.593 64.1509C143.57 64.7531 144.54 65.362 145.504 65.9842C150.161 63.7495 153.914 59.8019 155.841 55.0248H155.848ZM152.957 196.32C153.707 196.307 154.463 196.3 155.212 196.287C154.275 191.115 153.191 185.99 151.699 180.945C150.341 181.875 148.99 182.811 147.672 183.802C143.818 186.679 140.098 190.098 137.863 194.393C137.609 194.955 137.361 195.524 137.107 196.093C137.154 196.186 137.187 196.287 137.207 196.394C139.435 196.38 141.663 196.38 143.891 196.367C146.916 196.354 149.933 196.34 152.957 196.313V196.32ZM130.864 196.42C131.145 196.42 131.42 196.42 131.694 196.42C131.339 196.333 130.992 196.246 130.637 196.166C117.577 193.155 104.061 192.828 90.7266 192.112C77.2514 191.396 63.7629 190.539 50.4416 188.338C46.4472 187.676 42.4662 186.886 38.5254 185.949C37.8897 189.522 37.2474 193.102 36.6185 196.675C37.9098 196.641 39.2078 196.648 40.5058 196.641C43.8512 196.614 47.2033 196.601 50.5553 196.588C55.1519 196.574 59.7618 196.554 64.3584 196.548C69.7444 196.534 75.1438 196.527 80.5299 196.514C86.3241 196.501 92.1183 196.494 97.9058 196.481C103.646 196.481 109.394 196.467 115.134 196.454C120.38 196.441 125.626 196.434 130.864 196.42ZM131.647 57.9152C131.072 56.7844 130.771 55.5266 130.804 54.1616C129.272 54.4828 127.733 54.8307 126.208 55.1853C128.034 56.0685 129.847 56.9785 131.641 57.9152H131.647ZM129.76 193.39C123.799 188.96 117.47 185.019 110.953 181.447C103.325 177.265 95.4302 173.592 87.4348 170.179C79.4795 166.787 71.4104 163.663 63.3414 160.551C57.7211 158.384 52.2213 155.915 46.6948 153.513C44.6273 152.616 42.5866 151.713 40.546 150.816C40.4255 150.783 40.3051 150.736 40.2047 150.669C36.9664 149.257 33.7415 147.879 30.4697 146.608C29.8274 146.36 29.3858 145.771 29.5865 145.056C29.7538 144.447 30.5098 143.931 31.1388 144.179C31.6473 144.373 32.1558 144.574 32.6576 144.781C35.0395 145.738 37.4013 146.742 39.7631 147.759C39.9706 145.357 40.178 142.961 40.3519 140.559C37.6355 137.528 35.18 134.27 33.0925 130.791C30.9113 127.151 29.1182 123.237 27.9406 119.149C27.3384 119.704 26.7362 120.266 26.1475 120.842C18.065 128.757 11.8426 138.586 8.25639 149.304C7.24609 152.342 6.42312 155.493 6.53687 158.718C6.63054 161.314 7.39328 163.863 8.60431 166.151C11.2472 171.156 15.7032 174.769 20.6744 177.325C25.7862 179.948 31.4064 181.58 36.9731 182.972C37.2675 182.825 37.6087 182.778 37.9098 182.858C38.2243 182.945 38.4518 183.133 38.6056 183.373C44.7879 184.872 51.0638 185.996 57.3732 186.833C70.4469 188.586 83.6277 189.208 96.7884 189.904C107.815 190.486 118.948 191.075 129.76 193.39ZM96.6546 52.5358C96.862 49.8929 96.7081 47.2166 96.2666 44.634C95.7848 43.4899 95.1693 42.3859 94.4667 41.3555C91.7771 37.4214 87.5217 34.8655 82.9051 33.8151C78.1748 32.7312 73.0563 33.3066 68.3862 34.5243C66.2719 35.0729 64.3383 35.7688 62.4582 36.7456C61.5951 37.1939 60.7654 37.6823 59.9692 38.2377C59.2065 38.7595 58.8385 39.0472 58.1226 39.6762C56.9049 40.7601 55.9079 41.8908 55.1318 43.0149C54.7371 43.5903 54.3691 44.1924 54.0345 44.808C53.8673 45.1157 53.7134 45.4302 53.5595 45.7447C53.4859 45.8986 53.4123 46.0591 53.3387 46.213L53.245 46.4271C53.245 46.4271 53.245 46.4271 53.245 46.4405C53.245 46.4539 53.2316 46.4539 53.2316 46.474C52.7767 47.6047 52.4087 48.7689 52.1343 49.9599C52.0139 50.5018 51.9136 51.0371 51.8333 51.5857C51.8333 51.6392 51.8199 51.6727 51.8199 51.6994C51.8199 51.7128 51.8199 51.7329 51.8199 51.753L51.773 52.1009C51.753 52.3217 51.7262 52.5425 51.7128 52.77C51.5456 54.8575 51.7396 56.8781 52.3217 58.8385C55.1853 57.5003 58.1159 56.3228 61.1267 55.3459C72.5411 51.6325 84.7986 50.6891 96.6613 52.5559L96.6546 52.5358ZM94.6875 60.5781C95.4704 58.7983 96.0123 56.9316 96.3468 55.0181C94.6474 54.7437 92.9412 54.5363 91.2217 54.3891C90.6263 57.8549 89.83 61.2605 87.5017 64.0171C83.9623 68.2256 77.7131 70.1927 72.4542 68.3862C67.59 66.7068 63.9368 62.3645 63.0537 57.3598C59.6949 58.3902 56.4097 59.6681 53.2249 61.1736C54.5296 63.8967 56.3428 66.4325 58.3501 68.6806C59.3403 69.7912 60.4309 70.8149 61.7088 71.5911C63.0269 72.3873 64.4721 72.8958 65.9641 73.237C68.8278 73.8793 71.8654 73.886 74.7825 73.6384C77.6194 73.4043 80.4362 72.7887 83.0925 71.7583C88.3046 69.7176 92.4394 65.6831 94.6942 60.5915L94.6875 60.5781ZM83.0657 56.47C83.0657 56.3161 83.0523 56.1555 83.0456 56.0016C83.0322 55.9414 83.0189 55.8745 83.0055 55.8076C82.972 55.6604 82.9319 55.5199 82.8917 55.3794C82.8717 55.3258 82.8516 55.2723 82.8315 55.2255V55.2121C82.7512 55.0649 82.6776 54.911 82.5907 54.7705C82.5572 54.717 82.5304 54.6768 82.497 54.63C82.4836 54.6166 82.4501 54.5698 82.4234 54.5363C82.3899 54.5029 82.3565 54.4627 82.3498 54.4493C82.3163 54.4025 82.2762 54.3624 82.236 54.3222C82.1825 54.2687 82.1156 54.2152 82.0621 54.1616C80.6972 54.2152 79.3256 54.2955 77.9673 54.4226C77.954 54.4427 77.9406 54.4627 77.9272 54.4828C77.9004 54.5163 77.8871 54.5363 77.8737 54.543L77.8536 54.5832C77.8135 54.6501 77.7666 54.7103 77.7265 54.7772C77.6529 54.9043 77.5793 55.0314 77.5124 55.172C77.5124 55.1853 77.499 55.1987 77.499 55.2054C77.499 55.2121 77.499 55.2188 77.499 55.2322C77.4789 55.3058 77.4455 55.3727 77.4254 55.4463C77.3719 55.6068 77.3384 55.7741 77.305 55.9414C77.305 55.9682 77.2916 55.9815 77.2916 55.9949L77.2782 56.1622C77.2648 56.3295 77.2648 56.5034 77.2782 56.664C77.2782 56.751 77.2916 56.8313 77.2916 56.9115C77.325 57.0654 77.3585 57.226 77.4053 57.3799C77.4187 57.4401 77.4923 57.6341 77.499 57.6676C77.5525 57.7813 77.606 57.9018 77.673 58.0088C77.7399 58.1226 77.8135 58.2229 77.8804 58.33C77.8804 58.33 77.8848 58.33 77.8937 58.33C77.9272 58.3701 77.9673 58.417 78.0008 58.4571C78.1145 58.5775 78.235 58.6913 78.3621 58.7983C78.3755 58.8117 78.429 58.8519 78.4625 58.8853C78.4758 58.8987 78.4959 58.9054 78.4959 58.9054C78.7301 59.0593 78.9643 59.1931 79.2118 59.3135C79.2118 59.3135 79.2453 59.3269 79.2654 59.3336C79.339 59.3537 79.4059 59.3804 79.4795 59.4072C79.5999 59.4407 79.727 59.4741 79.8541 59.5009C79.9144 59.5142 79.9813 59.5276 80.0482 59.5343H80.0616C80.1887 59.5343 80.3225 59.5477 80.4496 59.5477C80.5433 59.5477 80.6303 59.5477 80.7306 59.5343C80.744 59.5343 80.8109 59.5209 80.8577 59.5209C80.8912 59.5076 80.918 59.5076 80.9247 59.5076C81.0049 59.4875 81.0919 59.4674 81.1722 59.4406C81.2458 59.4206 81.3127 59.4005 81.3863 59.3671C81.4064 59.3537 81.4265 59.3403 81.4666 59.3135C81.5201 59.2801 81.5804 59.2466 81.6272 59.2132C81.6272 59.2132 81.6406 59.2132 81.6406 59.1998L81.6807 59.1596C81.8279 59.0258 81.9617 58.8853 82.0955 58.7381L82.216 58.5842C82.216 58.5842 82.236 58.5642 82.2427 58.5508L82.2561 58.5374C82.4435 58.2831 82.6174 58.0155 82.7646 57.7278C82.885 57.4936 82.9453 57.3665 83.0322 56.9918C83.0456 56.9383 83.0523 56.8781 83.0657 56.8313V56.8179C83.0791 56.6974 83.0858 56.577 83.0858 56.4499L83.0657 56.47ZM70.7882 57.119C70.7882 57.0454 70.7882 56.9718 70.7748 56.9049L70.5005 56.9785C70.5941 57.0253 70.6878 57.0721 70.7815 57.119H70.7882Z" fill="white"/>
<path d="M164.251 139.281C167.784 144.432 170.4 150.795 169.537 157.145C168.767 162.785 165.168 167.382 161.013 171.048C156.637 174.916 151.559 177.826 146.869 181.278C145.076 182.603 143.329 184.002 141.703 185.527C144.493 178.883 147.049 172.139 148.883 165.187C149.625 162.37 150.227 159.513 150.522 156.616C150.589 155.934 149.886 155.352 149.257 155.352C148.515 155.352 148.06 155.934 147.993 156.616C147.819 158.309 147.518 160.015 147.143 161.721C146.273 160.363 145.403 159.005 144.527 157.647C146.032 155.044 147.598 152.461 148.896 149.752C150.301 146.821 151.151 143.743 151.726 140.559C152.315 137.314 152.703 134.035 152.884 130.743C152.957 129.271 152.984 127.799 152.977 126.334C156.898 130.502 161 134.544 164.245 139.274L164.251 139.281Z" fill="white"/>
<path d="M155.219 196.301C154.469 196.314 153.713 196.321 152.964 196.334C149.94 196.368 146.922 196.381 143.898 196.388C141.67 196.401 139.442 196.401 137.214 196.415C137.194 196.308 137.16 196.207 137.114 196.114C137.368 195.545 137.615 194.976 137.87 194.414C140.111 190.125 143.824 186.7 147.678 183.823C148.996 182.833 150.348 181.896 151.706 180.966C153.198 186.011 154.282 191.129 155.219 196.308V196.301Z" fill="white"/>
<path d="M151.01 81.5334C151.024 81.8746 150.857 82.1824 150.636 82.4299C150.422 82.6641 150.054 82.7979 149.746 82.7979C149.438 82.7979 149.05 82.6641 148.849 82.4299C148.274 81.7541 147.846 80.978 147.652 80.1082C147.458 79.2317 147.464 78.3352 147.692 77.4654C147.872 76.7829 148.588 76.435 149.251 76.5822C149.92 76.7361 150.301 77.4988 150.134 78.1345C150.1 78.2482 150.087 78.3619 150.067 78.4757C150.04 78.7299 150.04 78.9909 150.067 79.2451C150.114 79.5061 150.181 79.7603 150.274 80.0012C150.395 80.2621 150.535 80.503 150.716 80.7372C150.89 80.9713 150.997 81.2189 151.017 81.5267L151.01 81.5334Z" fill="white"/>
<path d="M145.082 53.1178C145.082 53.1178 145.095 53.1312 145.095 53.1379C145.042 53.1245 144.995 53.0777 144.995 53.0576C145.008 53.071 145.049 53.0978 145.082 53.1178Z" fill="white"/>
<path d="M131.701 196.428C131.427 196.428 131.146 196.428 130.871 196.428C125.626 196.441 120.38 196.455 115.141 196.462C109.401 196.475 103.653 196.482 97.9125 196.488C92.125 196.502 86.3309 196.508 80.5367 196.522C75.1506 196.535 69.7512 196.542 64.3651 196.555C59.7686 196.569 55.1586 196.582 50.5621 196.595C47.21 196.609 43.8579 196.629 40.5126 196.649C39.2146 196.662 37.9166 196.649 36.6252 196.682C37.2609 193.109 37.8965 189.53 38.5321 185.957C42.473 186.894 46.454 187.683 50.4483 188.346C63.7696 190.54 77.2649 191.397 90.7334 192.119C104.068 192.828 117.577 193.156 130.644 196.174C130.998 196.254 131.346 196.348 131.701 196.428Z" fill="white"/>
<path d="M110.96 181.461C117.477 185.027 123.806 188.968 129.767 193.404C118.955 191.089 107.828 190.493 96.7954 189.918C83.6347 189.222 70.4539 188.6 57.3802 186.847C51.0708 186.004 44.8015 184.886 38.6126 183.388C38.4587 183.147 38.2312 182.959 37.9168 182.872C37.6157 182.792 37.2744 182.839 36.98 182.986C31.4133 181.594 25.7931 179.962 20.6814 177.339C15.7101 174.783 11.2541 171.164 8.61125 166.166C7.40023 163.877 6.63748 161.328 6.54381 158.732C6.43007 155.507 7.24634 152.356 8.26333 149.318C11.8496 138.6 18.072 128.771 26.1544 120.856C26.7432 120.28 27.3454 119.718 27.9475 119.163C29.1251 123.244 30.9182 127.165 33.0994 130.805C35.1869 134.291 37.6424 137.549 40.3589 140.573C40.1849 142.975 39.9775 145.371 39.7701 147.773C37.4083 146.756 35.0464 145.752 32.6645 144.795C32.1627 144.588 31.6542 144.394 31.1457 144.193C30.5101 143.946 29.7607 144.468 29.5935 145.07C29.3927 145.786 29.8343 146.374 30.4766 146.622C33.7484 147.886 36.9734 149.265 40.2117 150.683C40.3187 150.75 40.4325 150.797 40.5529 150.83C42.5936 151.727 44.6343 152.63 46.7017 153.527C52.2216 155.935 57.7214 158.398 63.3483 160.565C71.4174 163.677 79.4864 166.801 87.4417 170.193C95.4372 173.606 103.332 177.279 110.96 181.461Z" fill="white"/>
<path d="M120.414 86.3838C120.962 86.832 120.842 87.7085 120.414 88.1702C119.925 88.7055 119.136 88.5917 118.627 88.1702C118.601 88.1501 118.587 88.1367 118.574 88.13C118.547 88.11 118.52 88.0899 118.493 88.0698C118.386 87.9962 118.273 87.9159 118.166 87.849C117.945 87.7152 117.711 87.5881 117.47 87.4677C117.416 87.4409 117.369 87.4208 117.316 87.3941C117.195 87.3472 117.075 87.3004 116.948 87.2602C116.714 87.18 116.48 87.1131 116.232 87.0662C116.118 87.0395 116.011 87.0127 115.891 86.9926C115.857 86.9926 115.817 86.9792 115.777 86.9792C115.764 86.9792 115.757 86.9792 115.737 86.9792C115.476 86.9592 115.215 86.9391 114.947 86.9391C114.713 86.9391 114.452 86.9391 114.218 86.9792C114.305 86.9592 114.352 86.9458 114.185 86.9792C114.118 86.9926 114.031 87.0127 114.011 87.0194C113.877 87.0461 113.75 87.0729 113.623 87.1064C112.933 87.2803 112.278 86.8923 112.064 86.2232C111.856 85.5876 112.305 84.8382 112.947 84.6709C115.576 84.0085 118.32 84.6843 120.407 86.3771L120.414 86.3838Z" fill="white"/>
<path d="M114.191 86.9865C114.351 86.9531 114.305 86.9598 114.224 86.9865C114.211 86.9865 114.204 86.9865 114.191 86.9865Z" fill="white"/>
<path d="M53.2185 61.5065C53.2185 61.5065 70.4673 51.6376 96.3404 55.3577C95.4572 69.6023 81.4936 74.5133 70.7817 74.5133C60.0631 74.5133 55.7208 66.2636 53.2185 61.5065Z" fill="#F9F8F4"/>
<mask id="mask0_8378_53448" style="mask-type:luminance" maskUnits="userSpaceOnUse" x="53" y="54" width="44" height="21">
<path d="M53.2178 61.5104C53.2178 61.5104 70.4665 51.6415 96.3397 55.3616C95.4565 69.6062 81.4929 74.5172 70.781 74.5172C60.0624 74.5172 55.7201 66.2675 53.2178 61.5104Z" fill="white"/>
</mask>
<g mask="url(#mask0_8378_53448)">
<path d="M62.1101 56.4844C62.1101 56.4844 64.1909 71.0502 77.907 69.3307C93.6905 67.3502 91.3286 53.4602 91.3286 53.4602C91.3286 53.4602 71.2229 52.015 62.1101 56.4844Z" fill="#252525"/>
<path d="M79.0109 60.4648C80.659 60.4648 81.995 59.1348 81.995 57.4941C81.995 55.8535 80.659 54.5234 79.0109 54.5234C77.3629 54.5234 76.0269 55.8535 76.0269 57.4941C76.0269 59.1348 77.3629 60.4648 79.0109 60.4648Z" fill="#F9F8F4"/>
</g>
<path d="M126.221 55.5178C126.221 55.5178 141.188 50.5667 156.336 54.4941C154.931 61.9075 145.511 66.31 145.511 66.31C145.511 66.31 129.727 57.873 126.214 55.5178H126.221Z" fill="#F9F8F4"/>
<mask id="mask1_8378_53448" style="mask-type:luminance" maskUnits="userSpaceOnUse" x="126" y="52" width="31" height="15">
<path d="M126.221 55.5139C126.221 55.5139 141.189 50.5628 156.336 54.4902C154.931 61.9036 145.511 66.3061 145.511 66.3061C145.511 66.3061 129.727 57.8691 126.215 55.5139H126.221Z" fill="white"/>
</mask>
<g mask="url(#mask1_8378_53448)">
<path d="M135.943 51.9688C135.943 51.9688 132.216 61.6101 143.336 62.6405C153.486 63.5839 154.182 52.1093 154.182 52.1093L135.943 51.9688Z" fill="#252525"/>
<path d="M143.785 57.4483C145.167 57.4483 146.287 56.331 146.287 54.9527C146.287 53.5744 145.167 52.457 143.785 52.457C142.403 52.457 141.282 53.5744 141.282 54.9527C141.282 56.331 142.403 57.4483 143.785 57.4483Z" fill="#F9F8F4"/>
</g>
<path d="M24.8229 143.228C36.0433 148.647 48.381 150.842 60.1768 154.609C63.4687 155.659 66.7204 156.837 69.8717 158.255C70.494 158.536 71.2367 158.436 71.6046 157.8C71.9191 157.258 71.7786 156.355 71.1497 156.074C59.7955 150.962 47.4577 148.841 35.7021 144.894C32.4303 143.797 29.212 142.545 26.1008 141.047C25.4853 140.752 24.7292 140.879 24.3679 141.502C24.0401 142.057 24.2073 142.927 24.8229 143.228Z" fill="#252525"/>
<path d="M156.456 143.203C154.181 153.801 146.139 161.783 140.546 170.702C138.906 173.325 137.461 176.061 136.351 178.945C136.103 179.581 136.625 180.33 137.234 180.497C137.95 180.691 138.545 180.256 138.793 179.614C142.68 169.545 150.89 161.951 155.76 152.423C157.145 149.713 158.263 146.85 158.898 143.872C159.24 142.286 156.797 141.611 156.456 143.203Z" fill="#252525"/>
<path d="M63.8099 190.969C58.4104 190.567 53.0311 189.885 47.7721 188.553C45.1159 187.877 42.5266 187.001 39.8904 186.252C37.2543 185.502 34.6047 184.947 31.9083 184.519C28.8239 184.024 25.7194 183.676 22.6149 183.334C21.9324 183.261 21.3503 183.97 21.3503 184.599C21.3503 185.342 21.9324 185.783 22.6149 185.863C27.9943 186.459 33.3937 187.081 38.6259 188.526C41.262 189.256 43.858 190.146 46.5076 190.841C49.137 191.531 51.8133 192.066 54.503 192.474C57.5875 192.942 60.692 193.27 63.8099 193.498C64.4923 193.551 65.0744 192.882 65.0744 192.233C65.0744 191.51 64.4923 191.022 63.8099 190.969Z" fill="#252525"/>
<path d="M144.052 191.923C148.388 185.875 154.623 181.532 161.026 177.879C162.906 176.809 164.813 175.785 166.734 174.788C168.179 174.032 166.901 171.858 165.456 172.607C158.578 176.193 151.686 180.094 146.153 185.607C144.587 187.166 143.155 188.852 141.871 190.652C141.476 191.207 141.77 192.057 142.326 192.378C142.961 192.746 143.657 192.478 144.059 191.923H144.052Z" fill="#252525"/>
</svg>
