<svg width="200" height="201" viewBox="0 0 200 201" fill="none" xmlns="http://www.w3.org/2000/svg">
<rect x="1" y="1" width="198" height="198" rx="9" fill="#252525" stroke="#F9F8F4" stroke-width="2" stroke-linejoin="round"/>
<path d="M134.988 117.562C159.614 107.63 162.733 86.1394 136.912 49.1072C147.005 27.8709 117.921 4.94818 103.897 36.5739C97.3207 33.9384 89.9227 33.7096 81.4654 36.5739C72.254 14.1173 44.8484 18.4645 49.416 47.5734C24.7731 84.148 26.451 110.613 67.2034 122.062" stroke="#F9F8F4" stroke-width="2" stroke-miterlimit="10"/>
<path d="M88.1176 122.07C93.1936 123.655 99.3374 124.155 108.066 122.07" stroke="#F9F8F4" stroke-width="2" stroke-miterlimit="10"/>
<path d="M61.7543 92.5045C70.9572 90.4707 79.7196 92.8096 88.1175 98.6144C95.8121 92.7164 104.846 91.3181 114.955 93.5723" stroke="#F9F8F4" stroke-width="2" stroke-miterlimit="10"/>
<path d="M64.9406 47.5743C67.73 47.5743 69.9912 44.668 69.9912 41.083C69.9912 37.498 67.73 34.5918 64.9406 34.5918C62.1512 34.5918 59.89 37.498 59.89 41.083C59.89 44.668 62.1512 47.5743 64.9406 47.5743Z" fill="#F9F8F4"/>
<path d="M122.32 47.5743C125.109 47.5743 127.37 44.668 127.37 41.083C127.37 37.498 125.109 34.5918 122.32 34.5918C119.53 34.5918 117.269 37.498 117.269 41.083C117.269 44.668 119.53 47.5743 122.32 47.5743Z" fill="#F9F8F4"/>
<path d="M83.9907 69.505C84.7629 69.505 85.3889 68.9055 85.3889 68.1661C85.3889 67.4266 84.7629 66.8271 83.9907 66.8271C83.2184 66.8271 82.5924 67.4266 82.5924 68.1661C82.5924 68.9055 83.2184 69.505 83.9907 69.505Z" fill="#F9F8F4"/>
<path d="M89.7531 69.505C90.5253 69.505 91.1513 68.9055 91.1513 68.1661C91.1513 67.4266 90.5253 66.8271 89.7531 66.8271C88.9809 66.8271 88.3549 67.4266 88.3549 68.1661C88.3549 68.9055 88.9809 69.505 89.7531 69.505Z" fill="#F9F8F4"/>
<path d="M55.7377 118.012C53.7039 157.086 63.2034 183.06 81.1433 199.44" stroke="#F9F8F4" stroke-width="2" stroke-miterlimit="10"/>
<path d="M143.14 113.326C146.225 138.91 134.497 168.019 113.116 199.441" stroke="#F9F8F4" stroke-width="2" stroke-miterlimit="10"/>
<path d="M76.3385 152.553L89.7532 199.44" stroke="#F9F8F4" stroke-width="2" stroke-miterlimit="10"/>
<path d="M113.116 155.07L104.219 199.441" stroke="#F9F8F4" stroke-width="2" stroke-miterlimit="10"/>
<path d="M56.1614 143.23C37.9249 150.027 26.4763 157.696 26.0186 166.763C25.4085 178.805 39.874 189.118 54.2208 199.44" stroke="#F9F8F4" stroke-width="2" stroke-miterlimit="10"/>
<path d="M28.239 160.391C33.4252 160.467 36.7725 162.179 37.3911 166.297C38.2555 171.483 35.1201 175.398 30.2135 178.763" stroke="#F9F8F4" stroke-width="2" stroke-miterlimit="10"/>
<path d="M52.1893 185.174C53.2874 183.06 52.7266 180.593 50.9365 179.663C49.1465 178.733 46.8051 179.693 45.707 181.807C44.6088 183.921 45.1698 186.389 46.9598 187.318C48.7499 188.248 51.0912 187.288 52.1893 185.174Z" stroke="#F9F8F4" stroke-width="2" stroke-miterlimit="10"/>
<path d="M60.7628 166.627C58.8222 168.017 57.3392 169.695 56.5935 171.839C55.4919 175.008 56.9918 178.423 60.1612 179.83C62.2289 180.745 64.4321 180.872 66.6778 180.77" stroke="#F9F8F4" stroke-width="2" stroke-miterlimit="10"/>
<path d="M140.412 144.333C152.801 141.359 162.402 142.698 167.427 151.079C169.732 154.926 170.478 159.434 169.885 163.832C167.699 180.162 158.208 190.229 147.716 199.449" stroke="#F9F8F4" stroke-width="2" stroke-miterlimit="10"/>
<path d="M149.598 177.915C152.532 177.915 154.911 175.112 154.911 171.653C154.911 168.194 152.532 165.391 149.598 165.391C146.663 165.391 144.285 168.194 144.285 171.653C144.285 175.112 146.663 177.915 149.598 177.915Z" stroke="#F9F8F4" stroke-width="2" stroke-miterlimit="10"/>
<path d="M139.073 196.855C142.925 196.855 146.047 194.325 146.047 191.203C146.047 188.081 142.925 185.551 139.073 185.551C135.221 185.551 132.099 188.081 132.099 191.203C132.099 194.325 135.221 196.855 139.073 196.855Z" stroke="#F9F8F4" stroke-width="2" stroke-miterlimit="10"/>
<path d="M168.224 152.553C163.741 153.654 161.131 155.925 159.479 158.79C158.818 159.934 158.394 161.222 158.496 162.527C158.818 166.62 163.284 169.128 168.224 171.467" stroke="#F9F8F4" stroke-width="2" stroke-miterlimit="10"/>
</svg>
