<svg width="24" height="22" viewBox="0 0 24 22" fill="none" xmlns="http://www.w3.org/2000/svg">
<path d="M12.513 0C11.868 0 11.28 0.34 10.106 1.017L3.675 4.723C2.56762 5.34862 1.64479 6.25518 0.99958 7.35125C0.354366 8.44732 0.00958182 9.69416 0 10.966L0 11.202C0.00965302 12.4722 0.353644 13.7175 0.997368 14.8125C1.64109 15.9076 2.56184 16.8138 3.667 17.44L7.69 19.763C10.044 21.123 11.221 21.805 12.514 21.805C13.806 21.806 14.984 21.127 17.339 19.767L21.59 17.314C22.767 16.634 23.354 16.294 23.677 15.735C24 15.175 24.001 14.495 24 13.135V10.505C24.0002 10.3225 23.9524 10.1432 23.8614 9.98509C23.7704 9.82694 23.6394 9.69552 23.4815 9.60402C23.3236 9.51253 23.1445 9.46418 22.962 9.46382C22.7796 9.46346 22.6002 9.51112 22.442 9.602L13.714 14.626C13.127 14.963 12.834 15.133 12.513 15.133C12.19 15.133 11.897 14.965 11.309 14.627L5.405 11.234C5.108 11.063 4.959 10.978 4.84 10.963C4.70857 10.9462 4.57526 10.9731 4.46066 11.0396C4.34606 11.1061 4.25656 11.2085 4.206 11.331C4.161 11.442 4.161 11.613 4.163 11.956C4.165 12.208 4.163 12.334 4.188 12.45C4.241 12.709 4.377 12.943 4.575 13.117C4.664 13.194 4.773 13.257 4.991 13.383L11.306 17.033C11.895 17.373 12.19 17.543 12.513 17.543C12.837 17.543 13.13 17.373 13.719 17.034L21.459 12.565C21.661 12.449 21.761 12.393 21.836 12.435C21.911 12.479 21.911 12.595 21.911 12.827V14.02C21.911 14.36 21.912 14.53 21.831 14.669C21.751 14.809 21.604 14.893 21.309 15.063L14.927 18.748C13.749 19.428 13.16 19.768 12.514 19.768C11.868 19.768 11.278 19.428 10.102 18.746L4.132 15.294L4.089 15.269C3.47415 14.9089 2.96357 14.3951 2.60748 13.7779C2.25138 13.1607 2.06202 12.4615 2.058 11.749V10.603C2.05829 10.2093 2.16188 9.82258 2.35841 9.48144C2.55495 9.14031 2.83756 8.85672 3.178 8.659C3.47911 8.4846 3.82089 8.39267 4.16887 8.3925C4.51684 8.39232 4.85871 8.4839 5.16 8.658L10.106 11.516C11.28 12.195 11.868 12.535 12.513 12.536C13.158 12.536 13.746 12.196 14.923 11.519L22.405 7.213C22.5712 7.11733 22.7092 6.97957 22.8052 6.81358C22.9011 6.64759 22.9517 6.45924 22.9517 6.2675C22.9517 6.07576 22.9011 5.88741 22.8052 5.72142C22.7092 5.55543 22.5712 5.41767 22.405 5.322L14.92 1.013C13.745 0.338 13.158 0 12.514 0H12.513Z" fill="#D2FF00"/>
</svg>
