<svg width="24" height="22" viewBox="0 0 24 22" fill="none" xmlns="http://www.w3.org/2000/svg">
<mask id="mask0_4745_13724" style="mask-type:alpha" maskUnits="userSpaceOnUse" x="0" y="0" width="24" height="22">
<path d="M17.8969 17.9818L17.8983 17.9807C20.3814 15.9057 23.372 12.5316 23.4945 8.04436C23.5509 6.53174 23.1695 5.03502 22.3998 3.76615C21.6293 2.49611 20.5065 1.51544 19.1849 0.972028C17.8624 0.428259 16.414 0.352759 15.0484 0.757637C13.8812 1.1037 12.8307 1.78384 12.0011 2.71575C11.1915 1.80599 10.1711 1.13568 9.03618 0.782095C7.7037 0.366948 6.28537 0.411043 4.97763 0.907579C3.67069 1.40381 2.54385 2.32521 1.74575 3.53761C0.9486 4.74855 0.515945 6.19367 0.501889 7.67591L0.500145 7.7482L0.5 7.7482V7.76026C0.5 12.3434 3.51367 15.7952 6.02494 17.9151L6.02656 17.9164C7.49937 19.149 9.08592 20.2124 10.761 21.0893C10.8996 21.1632 11.0396 21.2339 11.181 21.3013L11.2763 21.3792H11.3569C11.5626 21.4591 11.781 21.5004 12.0022 21.5C12.223 21.4996 12.4409 21.4576 12.6461 21.3772H12.6749L12.7805 21.3196L12.7891 21.3156C12.7901 21.3151 12.7914 21.3146 12.7928 21.3139C12.81 21.3063 12.8558 21.286 12.9034 21.2605C14.6724 20.3671 16.3466 19.2677 17.8969 17.9818Z" fill="#212121" stroke="#F9F8F4"/>
</mask>
<g mask="url(#mask0_4745_13724)">
<path d="M29.484 -0.507952C29.484 1.53766 22.4238 1.53766 22.4238 -0.507952C22.4238 -2.55356 24.0173 -4.23682 25.9538 -4.23682C27.8903 -4.23682 29.484 -2.55356 29.484 -0.507952Z" fill="#D2FF00" stroke="#212121" stroke-width="0.3" stroke-miterlimit="10"/>
<path d="M24.9911 -0.507952C24.9911 1.53766 17.2891 1.53766 17.2891 -0.507952C17.2891 -2.55356 19.0274 -4.23682 21.14 -4.23682C23.2525 -4.23682 24.9909 -2.55356 24.9909 -0.507952H24.9911Z" fill="#D2FF00" stroke="#212121" stroke-width="0.3" stroke-miterlimit="10"/>
<path d="M26.9169 2.7816C26.9169 4.82721 19.2148 4.82721 19.2148 2.7816C19.2148 0.735986 20.9532 -0.947266 23.0657 -0.947266C25.1783 -0.947266 26.9166 0.735986 26.9166 2.7816H26.9169Z" fill="#D2FF00" stroke="#212121" stroke-width="0.3" stroke-miterlimit="10"/>
<path d="M21.1405 -0.507879C21.1405 1.53764 13.4385 1.53764 13.4385 -0.507879C13.4385 -2.55339 15.1771 -4.23682 17.2896 -4.23682C19.4022 -4.23682 21.1405 -2.55339 21.1405 -0.507879Z" fill="#D2FF00" stroke="#212121" stroke-width="0.3" stroke-miterlimit="10"/>
<path d="M23.0653 2.78167C23.0653 4.82719 15.3633 4.82719 15.3633 2.78167C15.3633 0.736156 17.1019 -0.947266 19.2144 -0.947266C21.327 -0.947266 23.0653 0.736156 23.0653 2.78167Z" fill="#D2FF00" stroke="#212121" stroke-width="0.3" stroke-miterlimit="10"/>
<path d="M17.2887 -0.507952C17.2887 1.53766 10.2285 1.53766 10.2285 -0.507952C10.2285 -2.55357 11.822 -4.23682 13.7585 -4.23682C15.695 -4.23682 17.2887 -2.55357 17.2887 -0.507952Z" fill="#D2FF00" stroke="#212121" stroke-width="0.3" stroke-miterlimit="10"/>
<path d="M19.2145 2.7816C19.2145 4.82721 12.1543 4.82721 12.1543 2.7816C12.1543 0.735986 13.7478 -0.947266 15.6843 -0.947266C17.6208 -0.947266 19.2145 0.735986 19.2145 2.7816Z" fill="#D2FF00" stroke="#212121" stroke-width="0.3" stroke-miterlimit="10"/>
<path d="M12.7965 -0.507952C12.7965 1.53766 5.73633 1.53766 5.73633 -0.507952C5.73633 -2.55356 7.32981 -4.23682 9.26632 -4.23682C11.2028 -4.23682 12.7965 -2.55356 12.7965 -0.507952Z" fill="#D2FF00" stroke="#212121" stroke-width="0.3" stroke-miterlimit="10"/>
<path d="M14.7223 2.7816C14.7223 4.82721 7.66211 4.82721 7.66211 2.7816C7.66211 0.735986 9.25559 -0.947266 11.1921 -0.947266C13.1286 -0.947266 14.7223 0.735986 14.7223 2.7816Z" fill="#D2FF00" stroke="#212121" stroke-width="0.3" stroke-miterlimit="10"/>
<path d="M8.30362 -0.507952C8.30362 1.53766 0.601562 1.53766 0.601562 -0.507952C0.601562 -2.55356 2.3399 -4.23682 4.45246 -4.23682C6.56502 -4.23682 8.30336 -2.55356 8.30336 -0.507952H8.30362Z" fill="#D2FF00" stroke="#212121" stroke-width="0.3" stroke-miterlimit="10"/>
<path d="M10.2284 2.7816C10.2284 4.82721 2.52637 4.82721 2.52637 2.7816C2.52637 0.735986 4.26471 -0.947266 6.37727 -0.947266C8.48983 -0.947266 10.2282 0.735986 10.2282 2.7816H10.2284Z" fill="#D2FF00" stroke="#212121" stroke-width="0.3" stroke-miterlimit="10"/>
<path d="M4.45206 -0.507879C4.45206 1.53764 -3.25 1.53764 -3.25 -0.507879C-3.25 -2.55339 -1.5114 -4.23682 0.601159 -4.23682C2.71372 -4.23682 4.45206 -2.55339 4.45206 -0.507879Z" fill="#D2FF00" stroke="#212121" stroke-width="0.3" stroke-miterlimit="10"/>
<path d="M6.37882 2.78167C6.37882 4.82719 -1.32324 4.82719 -1.32324 2.78167C-1.32324 0.736156 0.415356 -0.947266 2.52792 -0.947266C4.64048 -0.947266 6.37882 0.736156 6.37882 2.78167Z" fill="#D2FF00" stroke="#212121" stroke-width="0.3" stroke-miterlimit="10"/>
<path d="M-0.0403643 -0.507879C-0.0403643 1.53764 -7.10059 1.53764 -7.10059 -0.507879C-7.10059 -2.55339 -5.50711 -4.23682 -3.57036 -4.23682C-1.63361 -4.23682 -0.0403643 -2.55339 -0.0403643 -0.507879Z" fill="#D2FF00" stroke="#212121" stroke-width="0.3" stroke-miterlimit="10"/>
<path d="M1.88444 2.78167C1.88444 4.82719 -5.17578 4.82719 -5.17578 2.78167C-5.17578 0.736156 -3.5823 -0.947266 -1.64555 -0.947266C0.291199 -0.947266 1.88444 0.736156 1.88444 2.78167Z" fill="#D2FF00" stroke="#212121" stroke-width="0.3" stroke-miterlimit="10"/>
<path d="M28.8415 6.07066C28.8415 8.11627 21.7812 8.11627 21.7812 6.07066C21.7812 4.02505 23.3747 2.3418 25.3112 2.3418C27.2478 2.3418 28.8415 4.02505 28.8415 6.07066Z" fill="#D2FF00" stroke="#212121" stroke-width="0.3" stroke-miterlimit="10"/>
<path d="M30.7663 9.3607C30.7663 11.4063 23.7061 11.4063 23.7061 9.3607C23.7061 7.31509 25.2995 5.63184 27.236 5.63184C29.1726 5.63184 30.7663 7.31509 30.7663 9.3607Z" fill="#D2FF00" stroke="#212121" stroke-width="0.3" stroke-miterlimit="10"/>
<path d="M24.3485 6.07066C24.3485 8.11627 16.6465 8.11627 16.6465 6.07066C16.6465 4.02505 18.3848 2.3418 20.4974 2.3418C22.6099 2.3418 24.3483 4.02505 24.3483 6.07066H24.3485Z" fill="#D2FF00" stroke="#212121" stroke-width="0.3" stroke-miterlimit="10"/>
<path d="M26.2743 9.3607C26.2743 11.4063 18.5723 11.4063 18.5723 9.3607C18.5723 7.31509 20.3106 5.63184 22.4232 5.63184C24.5357 5.63184 26.2741 7.31509 26.2741 9.3607H26.2743Z" fill="#D2FF00" stroke="#212121" stroke-width="0.3" stroke-miterlimit="10"/>
<path d="M20.498 6.07073C20.498 8.11625 12.7959 8.11625 12.7959 6.07073C12.7959 4.02522 14.5345 2.3418 16.6471 2.3418C18.7596 2.3418 20.498 4.02522 20.498 6.07073Z" fill="#D2FF00" stroke="#212121" stroke-width="0.3" stroke-miterlimit="10"/>
<path d="M22.4228 9.36077C22.4228 11.4063 14.7207 11.4063 14.7207 9.36077C14.7207 7.31526 16.4593 5.63184 18.5719 5.63184C20.6844 5.63184 22.4228 7.31526 22.4228 9.36077Z" fill="#D2FF00" stroke="#212121" stroke-width="0.3" stroke-miterlimit="10"/>
<path d="M16.6462 6.07066C16.6462 8.11627 9.58594 8.11627 9.58594 6.07066C9.58594 4.02505 11.1794 2.3418 13.1159 2.3418C15.0524 2.3418 16.6462 4.02505 16.6462 6.07066Z" fill="#D2FF00" stroke="#212121" stroke-width="0.3" stroke-miterlimit="10"/>
<path d="M18.5719 9.3607C18.5719 11.4063 11.5117 11.4063 11.5117 9.3607C11.5117 7.31509 13.1052 5.63184 15.0417 5.63184C16.9782 5.63184 18.5719 7.31509 18.5719 9.3607Z" fill="#D2FF00" stroke="#212121" stroke-width="0.3" stroke-miterlimit="10"/>
<path d="M12.154 6.07066C12.154 8.11627 5.09375 8.11627 5.09375 6.07066C5.09375 4.02505 6.68723 2.3418 8.62374 2.3418C10.5603 2.3418 12.154 4.02505 12.154 6.07066Z" fill="#D2FF00" stroke="#212121" stroke-width="0.3" stroke-miterlimit="10"/>
<path d="M14.0798 9.3607C14.0798 11.4063 7.01953 11.4063 7.01953 9.3607C7.01953 7.31509 8.61301 5.63184 10.5495 5.63184C12.486 5.63184 14.0798 7.31509 14.0798 9.3607Z" fill="#D2FF00" stroke="#212121" stroke-width="0.3" stroke-miterlimit="10"/>
<path d="M7.66104 6.07066C7.66104 8.11627 -0.0410156 8.11627 -0.0410156 6.07066C-0.0410156 4.02505 1.69732 2.3418 3.80988 2.3418C5.92244 2.3418 7.66078 4.02505 7.66078 6.07066H7.66104Z" fill="#D2FF00" stroke="#212121" stroke-width="0.3" stroke-miterlimit="10"/>
<path d="M9.58585 9.3607C9.58585 11.4063 1.88379 11.4063 1.88379 9.3607C1.88379 7.31509 3.62213 5.63184 5.73469 5.63184C7.84725 5.63184 9.58559 7.31509 9.58559 9.3607H9.58585Z" fill="#D2FF00" stroke="#212121" stroke-width="0.3" stroke-miterlimit="10"/>
<path d="M3.80948 6.07073C3.80948 8.11625 -3.89258 8.11625 -3.89258 6.07073C-3.89258 4.02522 -2.15398 2.3418 -0.0414193 2.3418C2.07114 2.3418 3.80948 4.02522 3.80948 6.07073Z" fill="#D2FF00" stroke="#212121" stroke-width="0.3" stroke-miterlimit="10"/>
<path d="M5.73624 9.36077C5.73624 11.4063 -1.96582 11.4063 -1.96582 9.36077C-1.96582 7.31526 -0.227222 5.63184 1.88534 5.63184C3.9979 5.63184 5.73624 7.31526 5.73624 9.36077Z" fill="#D2FF00" stroke="#212121" stroke-width="0.3" stroke-miterlimit="10"/>
<path d="M1.24186 9.36077C1.24186 11.4063 -5.81836 11.4063 -5.81836 9.36077C-5.81836 7.31526 -4.22488 5.63184 -2.28813 5.63184C-0.351379 5.63184 1.24186 7.31526 1.24186 9.36077Z" fill="#D2FF00" stroke="#212121" stroke-width="0.3" stroke-miterlimit="10"/>
<path d="M29.484 11.9916C29.484 14.0372 22.4238 14.0372 22.4238 11.9916C22.4238 9.94595 24.0173 8.2627 25.9538 8.2627C27.8903 8.2627 29.484 9.94595 29.484 11.9916Z" fill="#D2FF00" stroke="#212121" stroke-width="0.3" stroke-miterlimit="10"/>
<path d="M24.9911 11.9916C24.9911 14.0372 17.2891 14.0372 17.2891 11.9916C17.2891 9.94595 19.0274 8.2627 21.14 8.2627C23.2525 8.2627 24.9909 9.94595 24.9909 11.9916H24.9911Z" fill="#D2FF00" stroke="#212121" stroke-width="0.3" stroke-miterlimit="10"/>
<path d="M26.9169 15.2816C26.9169 17.3272 19.2148 17.3272 19.2148 15.2816C19.2148 13.236 20.9532 11.5527 23.0657 11.5527C25.1783 11.5527 26.9166 13.236 26.9166 15.2816H26.9169Z" fill="#D2FF00" stroke="#212121" stroke-width="0.3" stroke-miterlimit="10"/>
<path d="M21.1405 11.9916C21.1405 14.0371 13.4385 14.0371 13.4385 11.9916C13.4385 9.94612 15.1771 8.2627 17.2896 8.2627C19.4022 8.2627 21.1405 9.94612 21.1405 11.9916Z" fill="#D2FF00" stroke="#212121" stroke-width="0.3" stroke-miterlimit="10"/>
<path d="M23.0653 15.2817C23.0653 17.3272 15.3633 17.3272 15.3633 15.2817C15.3633 13.2362 17.1019 11.5527 19.2144 11.5527C21.327 11.5527 23.0653 13.2362 23.0653 15.2817Z" fill="#D2FF00" stroke="#212121" stroke-width="0.3" stroke-miterlimit="10"/>
<path d="M17.2887 11.9916C17.2887 14.0372 10.2285 14.0372 10.2285 11.9916C10.2285 9.94595 11.822 8.2627 13.7585 8.2627C15.695 8.2627 17.2887 9.94595 17.2887 11.9916Z" fill="#D2FF00" stroke="#212121" stroke-width="0.3" stroke-miterlimit="10"/>
<path d="M19.2145 15.2816C19.2145 17.3272 12.1543 17.3272 12.1543 15.2816C12.1543 13.236 13.7478 11.5527 15.6843 11.5527C17.6208 11.5527 19.2145 13.236 19.2145 15.2816Z" fill="#D2FF00" stroke="#212121" stroke-width="0.3" stroke-miterlimit="10"/>
<path d="M12.7965 11.9916C12.7965 14.0372 5.73633 14.0372 5.73633 11.9916C5.73633 9.94595 7.32981 8.2627 9.26632 8.2627C11.2028 8.2627 12.7965 9.94595 12.7965 11.9916Z" fill="#D2FF00" stroke="#212121" stroke-width="0.3" stroke-miterlimit="10"/>
<path d="M14.7223 15.2816C14.7223 17.3272 7.66211 17.3272 7.66211 15.2816C7.66211 13.236 9.25559 11.5527 11.1921 11.5527C13.1286 11.5527 14.7223 13.236 14.7223 15.2816Z" fill="#D2FF00" stroke="#212121" stroke-width="0.3" stroke-miterlimit="10"/>
<path d="M8.30362 11.9916C8.30362 14.0372 0.601562 14.0372 0.601562 11.9916C0.601562 9.94595 2.3399 8.2627 4.45246 8.2627C6.56502 8.2627 8.30336 9.94595 8.30336 11.9916H8.30362Z" fill="#D2FF00" stroke="#212121" stroke-width="0.3" stroke-miterlimit="10"/>
<path d="M10.2284 15.2816C10.2284 17.3272 2.52637 17.3272 2.52637 15.2816C2.52637 13.236 4.26471 11.5527 6.37727 11.5527C8.48983 11.5527 10.2282 13.236 10.2282 15.2816H10.2284Z" fill="#D2FF00" stroke="#212121" stroke-width="0.3" stroke-miterlimit="10"/>
<path d="M4.45206 11.9916C4.45206 14.0371 -3.25 14.0371 -3.25 11.9916C-3.25 9.94612 -1.5114 8.2627 0.601159 8.2627C2.71372 8.2627 4.45206 9.94612 4.45206 11.9916Z" fill="#D2FF00" stroke="#212121" stroke-width="0.3" stroke-miterlimit="10"/>
<path d="M6.37882 15.2817C6.37882 17.3272 -1.32324 17.3272 -1.32324 15.2817C-1.32324 13.2362 0.415356 11.5527 2.52792 11.5527C4.64048 11.5527 6.37882 13.2362 6.37882 15.2817Z" fill="#D2FF00" stroke="#212121" stroke-width="0.3" stroke-miterlimit="10"/>
<path d="M-0.0403643 11.9916C-0.0403643 14.0371 -7.10059 14.0371 -7.10059 11.9916C-7.10059 9.94612 -5.50711 8.2627 -3.57036 8.2627C-1.63361 8.2627 -0.0403643 9.94612 -0.0403643 11.9916Z" fill="#D2FF00" stroke="#212121" stroke-width="0.3" stroke-miterlimit="10"/>
<path d="M1.88444 15.2817C1.88444 17.3272 -5.17578 17.3272 -5.17578 15.2817C-5.17578 13.2362 -3.5823 11.5527 -1.64555 11.5527C0.291199 11.5527 1.88444 13.2362 1.88444 15.2817Z" fill="#D2FF00" stroke="#212121" stroke-width="0.3" stroke-miterlimit="10"/>
<path d="M28.7194 18.7289C28.7194 20.7745 21.6592 20.7745 21.6592 18.7289C21.6592 16.6833 23.2527 15 25.1892 15C27.1257 15 28.7194 16.6833 28.7194 18.7289Z" fill="#D2FF00" stroke="#212121" stroke-width="0.3" stroke-miterlimit="10"/>
<path d="M30.6442 22.0184C30.6442 24.064 23.584 24.064 23.584 22.0184C23.584 19.9728 25.1775 18.2896 27.114 18.2896C29.0505 18.2896 30.6442 19.9728 30.6442 22.0184Z" fill="#D2FF00" stroke="#212121" stroke-width="0.3" stroke-miterlimit="10"/>
<path d="M24.2265 18.7289C24.2265 20.7745 16.5244 20.7745 16.5244 18.7289C16.5244 16.6833 18.2628 15 20.3753 15C22.4879 15 24.2262 16.6833 24.2262 18.7289H24.2265Z" fill="#D2FF00" stroke="#212121" stroke-width="0.3" stroke-miterlimit="10"/>
<path d="M26.1523 22.0184C26.1523 24.064 18.4502 24.064 18.4502 22.0184C18.4502 19.9728 20.1885 18.2896 22.3011 18.2896C24.4137 18.2896 26.152 19.9728 26.152 22.0184H26.1523Z" fill="#D2FF00" stroke="#212121" stroke-width="0.3" stroke-miterlimit="10"/>
<path d="M20.3759 18.7289C20.3759 20.7745 12.6738 20.7745 12.6738 18.7289C12.6738 16.6834 14.4124 15 16.525 15C18.6375 15 20.3759 16.6834 20.3759 18.7289Z" fill="#D2FF00" stroke="#212121" stroke-width="0.3" stroke-miterlimit="10"/>
<path d="M22.3007 22.0185C22.3007 24.064 14.5986 24.064 14.5986 22.0185C14.5986 19.973 16.3372 18.2896 18.4498 18.2896C20.5624 18.2896 22.3007 19.973 22.3007 22.0185Z" fill="#D2FF00" stroke="#212121" stroke-width="0.3" stroke-miterlimit="10"/>
<path d="M16.5241 18.7289C16.5241 20.7745 9.46387 20.7745 9.46387 18.7289C9.46387 16.6833 11.0573 15 12.9939 15C14.9304 15 16.5241 16.6833 16.5241 18.7289Z" fill="#D2FF00" stroke="#212121" stroke-width="0.3" stroke-miterlimit="10"/>
<path d="M18.4499 22.0184C18.4499 24.064 11.3896 24.064 11.3896 22.0184C11.3896 19.9728 12.9831 18.2896 14.9196 18.2896C16.8562 18.2896 18.4499 19.9728 18.4499 22.0184Z" fill="#D2FF00" stroke="#212121" stroke-width="0.3" stroke-miterlimit="10"/>
<path d="M12.0319 18.7289C12.0319 20.7745 4.97168 20.7745 4.97168 18.7289C4.97168 16.6833 6.56516 15 8.50167 15C10.4382 15 12.0319 16.6833 12.0319 18.7289Z" fill="#D2FF00" stroke="#212121" stroke-width="0.3" stroke-miterlimit="10"/>
<path d="M13.9577 22.0184C13.9577 24.064 6.89746 24.064 6.89746 22.0184C6.89746 19.9728 8.49094 18.2896 10.4275 18.2896C12.364 18.2896 13.9577 19.9728 13.9577 22.0184Z" fill="#D2FF00" stroke="#212121" stroke-width="0.3" stroke-miterlimit="10"/>
<path d="M7.53897 18.7289C7.53897 20.7745 -0.163086 20.7745 -0.163086 18.7289C-0.163086 16.6833 1.57525 15 3.68781 15C5.80037 15 7.53871 16.6833 7.53871 18.7289H7.53897Z" fill="#D2FF00" stroke="#212121" stroke-width="0.3" stroke-miterlimit="10"/>
<path d="M9.46378 22.0184C9.46378 24.064 1.76172 24.064 1.76172 22.0184C1.76172 19.9728 3.50006 18.2896 5.61262 18.2896C7.72518 18.2896 9.46352 19.9728 9.46352 22.0184H9.46378Z" fill="#D2FF00" stroke="#212121" stroke-width="0.3" stroke-miterlimit="10"/>
<path d="M3.68741 18.7289C3.68741 20.7745 -4.01465 20.7745 -4.01465 18.7289C-4.01465 16.6834 -2.27605 15 -0.16349 15C1.94907 15 3.68741 16.6834 3.68741 18.7289Z" fill="#D2FF00" stroke="#212121" stroke-width="0.3" stroke-miterlimit="10"/>
<path d="M5.61417 22.0185C5.61417 24.064 -2.08789 24.064 -2.08789 22.0185C-2.08789 19.973 -0.349293 18.2896 1.76327 18.2896C3.87583 18.2896 5.61417 19.973 5.61417 22.0185Z" fill="#D2FF00" stroke="#212121" stroke-width="0.3" stroke-miterlimit="10"/>
<path d="M1.11979 22.0185C1.11979 24.064 -5.94043 24.064 -5.94043 22.0185C-5.94043 19.973 -4.34695 18.2896 -2.4102 18.2896C-0.47345 18.2896 1.11979 19.973 1.11979 22.0185Z" fill="#D2FF00" stroke="#212121" stroke-width="0.3" stroke-miterlimit="10"/>
<path d="M29.362 25.3075C29.362 27.3531 22.3018 27.3531 22.3018 25.3075C22.3018 23.2619 23.8952 21.5786 25.8318 21.5786C27.7683 21.5786 29.362 23.2619 29.362 25.3075Z" fill="#D2FF00" stroke="#212121" stroke-width="0.3" stroke-miterlimit="10"/>
<path d="M24.8691 25.3075C24.8691 27.3531 17.167 27.3531 17.167 25.3075C17.167 23.2619 18.9053 21.5786 21.0179 21.5786C23.1305 21.5786 24.8688 23.2619 24.8688 25.3075H24.8691Z" fill="#D2FF00" stroke="#212121" stroke-width="0.3" stroke-miterlimit="10"/>
<path d="M21.0185 25.3076C21.0185 27.3531 13.3164 27.3531 13.3164 25.3076C13.3164 23.262 15.055 21.5786 17.1676 21.5786C19.2801 21.5786 21.0185 23.262 21.0185 25.3076Z" fill="#D2FF00" stroke="#212121" stroke-width="0.3" stroke-miterlimit="10"/>
<path d="M17.1667 25.3075C17.1667 27.3531 10.1064 27.3531 10.1064 25.3075C10.1064 23.2619 11.6999 21.5786 13.6364 21.5786C15.573 21.5786 17.1667 23.2619 17.1667 25.3075Z" fill="#D2FF00" stroke="#212121" stroke-width="0.3" stroke-miterlimit="10"/>
<path d="M12.6745 25.3075C12.6745 27.3531 5.61426 27.3531 5.61426 25.3075C5.61426 23.2619 7.20774 21.5786 9.14425 21.5786C11.0808 21.5786 12.6745 23.2619 12.6745 25.3075Z" fill="#D2FF00" stroke="#212121" stroke-width="0.3" stroke-miterlimit="10"/>
<path d="M8.18155 25.3075C8.18155 27.3531 0.479492 27.3531 0.479492 25.3075C0.479492 23.2619 2.21783 21.5786 4.33039 21.5786C6.44295 21.5786 8.18129 23.2619 8.18129 25.3075H8.18155Z" fill="#D2FF00" stroke="#212121" stroke-width="0.3" stroke-miterlimit="10"/>
<path d="M4.32999 25.3076C4.32999 27.3531 -3.37207 27.3531 -3.37207 25.3076C-3.37207 23.262 -1.63347 21.5786 0.479089 21.5786C2.59165 21.5786 4.32999 23.262 4.32999 25.3076Z" fill="#D2FF00" stroke="#212121" stroke-width="0.3" stroke-miterlimit="10"/>
</g>
<path d="M17.8969 17.9818L17.8983 17.9807C20.3814 15.9057 23.372 12.5316 23.4945 8.04436C23.5509 6.53174 23.1695 5.03502 22.3998 3.76615C21.6293 2.49611 20.5065 1.51544 19.1849 0.972028C17.8624 0.428259 16.414 0.352759 15.0484 0.757637C13.8812 1.1037 12.8307 1.78384 12.0011 2.71575C11.1915 1.80599 10.1711 1.13568 9.03618 0.782095C7.7037 0.366948 6.28537 0.411043 4.97763 0.907579C3.67069 1.40381 2.54385 2.32521 1.74575 3.53761C0.9486 4.74855 0.515945 6.19367 0.501889 7.67591L0.500145 7.7482L0.5 7.7482V7.76026C0.5 12.3434 3.51367 15.7952 6.02494 17.9151L6.02656 17.9164C7.49937 19.149 9.08592 20.2124 10.761 21.0893C10.8996 21.1632 11.0396 21.2339 11.181 21.3013L11.2763 21.3792H11.3569C11.5626 21.4591 11.781 21.5004 12.0022 21.5C12.223 21.4996 12.4409 21.4576 12.6461 21.3772H12.6749L12.7805 21.3196L12.7891 21.3156C12.7901 21.3151 12.7914 21.3146 12.7928 21.3139C12.81 21.3063 12.8558 21.286 12.9034 21.2605C14.6724 20.3671 16.3466 19.2677 17.8969 17.9818Z" stroke="#D2FF00"/>
</svg>
