<svg width="56" height="56" viewBox="0 0 56 56" fill="none" xmlns="http://www.w3.org/2000/svg">
<path d="M28.001 55C42.9121 55 55 42.9117 55 28C55 13.0883 42.9121 1 28.001 1C13.0898 1 1.00195 13.0883 1.00195 28C1.00195 42.9117 13.0898 55 28.001 55Z" fill="#252525" stroke="#CEFF00" stroke-miterlimit="10"/>
<mask id="mask0_3882_10924" style="mask-type:luminance" maskUnits="userSpaceOnUse" x="1" y="1" width="54" height="54">
<path d="M27.999 55C42.9102 55 54.998 42.9117 54.998 28C54.998 13.0883 42.9102 1 27.999 1C13.0879 1 1 13.0883 1 28C1 42.9117 13.0879 55 27.999 55Z" fill="white"/>
</mask>
<g mask="url(#mask0_3882_10924)">
<path d="M5.60759 -0.39151C5.42838 1.55953 3.74974 23.7856 20.216 37.1737C35.2369 49.3871 58.9412 49.0287 76.3881 34.9127C75.2306 37.5611 65.2034 59.5227 41.9545 64.6519C23.452 68.734 -2.66116 61.9863 -9.17379 41.6956C-13.6768 27.6658 -7.60158 10.9242 5.60838 -0.39151H5.60759Z" fill="#CEFF00"/>
<path opacity="0.5" d="M20.5641 -10.9998C19.9271 -9.16532 11.217 17.0129 24.7376 32.8263C38.9446 49.4419 74.39 50.7481 100.648 25.0002C79.343 64.5595 42.3426 86.4812 9.60801 80.3048C-11.4504 76.3315 -40.431 58.9021 -39.9552 34.9136C-39.5224 13.0991 -14.8116 -10.1029 20.5641 -10.9998Z" fill="#CEFF00"/>
</g>
</svg>
