<svg width="209" height="195" viewBox="0 0 209 195" fill="none" xmlns="http://www.w3.org/2000/svg">
<g clip-path="url(#clip0_8079_31360)">
<path d="M208.435 88.5846C208.435 137.195 168.805 176.604 119.916 176.604C71.0276 176.604 31.3984 137.195 31.3984 88.5846C31.3984 39.9742 71.0276 0.564453 119.916 0.564453C168.805 0.564453 208.435 39.9742 208.435 88.5846Z" stroke="#F9F8F4"/>
<path d="M177.344 108.797C177.344 142.961 149.493 170.658 115.133 170.658C80.7722 170.658 52.9209 142.961 52.9209 108.797C52.9209 74.6336 80.7722 46.9355 115.133 46.9355C149.493 46.9355 177.344 74.6336 177.344 108.797Z" stroke="#F9F8F4"/>
<path d="M50.5629 41.6177C54.8554 41.6177 58.3352 38.1574 58.3352 33.8889C58.3352 29.6205 54.8554 26.1602 50.5629 26.1602C46.2703 26.1602 42.7905 29.6205 42.7905 33.8889C42.7905 38.1574 46.2703 41.6177 50.5629 41.6177Z" fill="#F9F8F4"/>
<path d="M203.022 126.039C206.324 126.039 209 123.377 209 120.094C209 116.81 206.324 114.148 203.022 114.148C199.72 114.148 197.043 116.81 197.043 120.094C197.043 123.377 199.72 126.039 203.022 126.039Z" fill="#DCB8FF"/>
<path d="M60.7269 26.1577C62.7081 26.1577 64.3141 24.5606 64.3141 22.5906C64.3141 20.6205 62.7081 19.0234 60.7269 19.0234C58.7457 19.0234 57.1396 20.6205 57.1396 22.5906C57.1396 24.5606 58.7457 26.1577 60.7269 26.1577Z" fill="#DCB8FF"/>
<path d="M138.909 20.2541L105.457 14.5388C104.976 14.4567 104.485 14.6158 104.143 14.9644L72.2177 47.6034C71.7577 48.0738 71.6631 48.7902 71.9853 49.363L92.0046 84.9678C92.2238 85.3575 92.6077 85.6277 93.0493 85.7032L126.503 91.4185C126.984 91.5007 127.474 91.3417 127.815 90.993L159.742 58.3541C160.201 57.8837 160.296 57.1675 159.974 56.5944L139.954 20.9897C139.735 20.5999 139.351 20.3295 138.909 20.2541Z" fill="#252525" stroke="#252525" stroke-linejoin="round"/>
<path d="M103.974 15.1369L71.8438 47.9854C71.6066 48.2278 71.5577 48.5975 71.7239 48.8932L91.8518 84.6908C92.1022 85.1359 92.7109 85.2159 93.0682 84.8506L125.199 52.0021C125.436 51.7597 125.485 51.39 125.319 51.0943L105.191 15.2967C104.941 14.8516 104.332 14.7716 103.974 15.1369Z" fill="#F9F8F4" stroke="#252525" stroke-linejoin="round"/>
<path d="M85.2038 48.95C85.7242 45.9184 84.305 43.1462 82.0342 42.7583C79.7635 42.3703 77.5009 44.5135 76.9805 47.5451C76.4603 50.5769 77.8793 53.349 80.1501 53.7369C82.4209 54.1248 84.6836 51.9818 85.2038 48.95Z" fill="#DCB8FF" stroke="#252525" stroke-linejoin="round"/>
<path d="M106.092 27.5926C106.612 24.5609 105.193 21.7888 102.922 21.4008C100.651 21.0129 98.3885 23.1561 97.8682 26.1877C97.3479 29.2193 98.7669 31.9915 101.038 32.3795C103.309 32.7674 105.571 30.6242 106.092 27.5926Z" fill="#DCB8FF" stroke="#252525" stroke-linejoin="round"/>
<path d="M92.6787 68.8562C90.7567 70.8213 90.2651 74.312 91.5814 76.6528C92.8978 78.9943 95.5232 79.2987 97.4454 77.3338C99.3675 75.3688 99.8589 71.8779 98.5422 69.5365C97.2259 67.1956 94.6009 66.891 92.6787 68.8562Z" fill="#DCB8FF" stroke="#252525" stroke-linejoin="round"/>
<path d="M119.433 48.181C118.117 45.8402 115.491 45.5356 113.568 47.5007C111.647 49.4658 111.155 52.9565 112.471 55.2975C113.787 57.6388 116.413 57.9434 118.336 55.9785C120.257 54.0133 120.749 50.5227 119.433 48.181Z" fill="#DCB8FF" stroke="#252525" stroke-linejoin="round"/>
<path d="M90.4603 64.9112C92.3823 62.9463 92.8739 59.4554 91.5576 57.1146C90.2414 54.7738 87.6162 54.4692 85.6939 56.4344C83.7716 58.3996 83.2803 61.8902 84.5966 64.231C85.9128 66.5719 88.538 66.8765 90.4603 64.9112Z" fill="#DCB8FF" stroke="#252525" stroke-linejoin="round"/>
<path d="M113.077 40.0164C113.598 36.9848 112.179 34.2126 109.908 33.8246C107.637 33.4368 105.374 35.5799 104.854 38.6116C104.334 41.6432 105.753 44.4154 108.024 44.8034C110.294 45.1912 112.557 43.0481 113.077 40.0164Z" fill="#DCB8FF" stroke="#252525" stroke-linejoin="round"/>
<path d="M139.248 20.3094L106.272 14.6756C105.636 14.5672 105.159 15.242 105.474 15.8029L125.419 51.2745C125.532 51.4756 125.73 51.6151 125.958 51.654L158.934 57.2878C159.569 57.3964 160.047 56.7214 159.731 56.1604L139.787 20.6887C139.674 20.4877 139.475 20.3483 139.248 20.3094Z" fill="#DCB8FF" stroke="#252525" stroke-linejoin="round"/>
<path d="M118.303 22.3098C116.987 19.969 114.283 17.7916 112.264 17.4467C110.246 17.1018 109.676 18.72 110.992 21.0608C112.308 23.4022 115.012 25.5789 117.031 25.9239C119.05 26.2687 119.62 24.6512 118.303 22.3098Z" fill="white" stroke="#252525" stroke-linejoin="round"/>
<path d="M140.245 26.0578C138.929 23.717 136.225 21.5397 134.206 21.1948C132.187 20.8499 131.617 22.468 132.933 24.8088C134.25 27.1503 136.954 29.3269 138.973 29.672C140.991 30.0169 141.561 28.3993 140.245 26.0578Z" fill="white" stroke="#252525" stroke-linejoin="round"/>
<path d="M126.235 42.2924C124.216 41.9475 123.647 43.5653 124.963 45.9062C126.279 48.2477 128.982 50.4251 131.001 50.77C133.021 51.1148 133.59 49.4967 132.273 47.1554C130.957 44.8145 128.254 42.6376 126.235 42.2924Z" fill="white" stroke="#252525" stroke-linejoin="round"/>
<path d="M154.214 50.9054C152.897 48.5647 150.194 46.3875 148.175 46.0424C146.156 45.6976 145.587 47.3156 146.903 49.6563C148.219 51.9978 150.923 54.1751 152.942 54.5199C154.96 54.8649 155.531 53.2468 154.214 50.9054Z" fill="white" stroke="#252525" stroke-linejoin="round"/>
<path d="M125.319 51.8809L93.3723 84.5408C92.9413 84.9816 93.1829 85.7243 93.7912 85.8281L126.877 91.4805C127.125 91.5229 127.378 91.4409 127.555 91.261L159.501 58.6011C159.931 58.1603 159.69 57.4177 159.082 57.3139L125.997 51.6614C125.748 51.619 125.495 51.701 125.319 51.8809Z" fill="#252525" stroke="#252525" stroke-linejoin="round"/>
<path d="M127.77 73.9417C130.459 72.4368 132.042 70.1549 131.305 68.8449C130.568 67.5349 127.792 67.6928 125.103 69.1977C122.414 70.7026 120.831 72.9845 121.568 74.2945C122.304 75.6046 125.081 75.4466 127.77 73.9417Z" fill="white" stroke="#252525" stroke-linejoin="round"/>
<path d="M95.5048 97.5879L53.9673 85.3074C53.381 85.134 52.7497 85.2011 52.2131 85.4933L22.0204 101.946C21.7461 102.096 21.5751 102.382 21.5742 102.694L21.4356 145.224C21.4323 146.242 22.1021 147.14 23.0804 147.429L63.5513 159.393C64.1376 159.567 64.7689 159.5 65.3055 159.209L94.7512 143.162C95.4863 142.762 95.9447 141.993 95.9474 141.158L96.0867 98.3677C96.088 98.0077 95.851 97.6902 95.5048 97.5879Z" fill="#252525" stroke="#252525" stroke-linejoin="round"/>
<path d="M64.6121 115.365L64.4722 158.372C64.4701 158.954 65.094 159.325 65.6055 159.046L95.5463 142.731C95.7916 142.598 95.9443 142.342 95.9453 142.062L96.0855 99.055C96.0874 98.4735 95.4636 98.103 94.9522 98.3818L65.0114 114.697C64.7662 114.831 64.6132 115.087 64.6121 115.365Z" fill="#252525" stroke="#252525" stroke-linejoin="round"/>
<path d="M90.1344 133.176C88.3146 134.167 86.8319 137.255 86.8228 140.073C86.8135 142.889 88.2815 144.369 90.1013 143.378C91.921 142.386 93.4037 139.298 93.4131 136.482C93.4223 133.664 91.9541 132.184 90.1344 133.176Z" fill="white" stroke="#252525" stroke-linejoin="round"/>
<path d="M73.7334 117.357C73.7427 114.539 72.2747 113.059 70.4549 114.051C68.6351 115.042 67.1524 118.13 67.1431 120.948C67.1338 123.764 68.6018 125.244 70.4217 124.253C72.2415 123.262 73.7242 120.173 73.7334 117.357Z" fill="white" stroke="#252525" stroke-linejoin="round"/>
<path d="M83.5731 126.918C83.5822 124.101 82.1145 122.621 80.2948 123.613C78.475 124.605 76.9922 127.692 76.983 130.509C76.9738 133.326 78.4415 134.806 80.2613 133.814C82.0812 132.823 83.5639 129.735 83.5731 126.918Z" fill="white" stroke="#252525" stroke-linejoin="round"/>
<path d="M21.5711 103.212L21.4307 146.371C21.4295 146.711 21.653 147.011 21.9792 147.106L63.4854 159.378C63.9755 159.523 64.4675 159.158 64.4692 158.647L64.6097 115.488C64.6109 115.149 64.3874 114.849 64.0612 114.752L22.5551 102.481C22.065 102.336 21.5728 102.702 21.5711 103.212Z" fill="#DCB8FF" stroke="#252525" stroke-linejoin="round"/>
<path d="M60.1151 147.901C58.6374 145.201 55.8165 143.898 53.8145 144.989C51.8125 146.079 51.3875 149.153 52.8652 151.851C54.3429 154.551 57.1638 155.855 59.1658 154.764C61.1678 153.673 61.5928 150.6 60.1151 147.901Z" fill="white" stroke="#252525" stroke-linejoin="round"/>
<path d="M24.9463 140.551C24.9371 143.368 26.9468 146.247 29.4352 146.983C31.9234 147.718 33.948 146.031 33.9572 143.214C33.9664 140.396 31.9566 137.518 29.4683 136.781C26.9801 136.047 24.9555 137.733 24.9463 140.551Z" fill="white" stroke="#252525" stroke-linejoin="round"/>
<path d="M56.606 114.873C54.1178 114.138 52.0932 115.826 52.084 118.644C52.0749 121.46 54.0845 124.34 56.5729 125.076C59.0611 125.811 61.0859 124.124 61.0949 121.307C61.1041 118.489 59.0943 115.609 56.606 114.873Z" fill="white" stroke="#252525" stroke-linejoin="round"/>
<path d="M34.0543 113.313C34.0636 110.495 32.0538 107.615 29.5655 106.879C27.0772 106.144 25.0526 107.831 25.0435 110.649C25.0342 113.466 27.0441 116.346 29.5324 117.082C32.0206 117.817 34.0451 116.129 34.0543 113.313Z" fill="white" stroke="#252525" stroke-linejoin="round"/>
<path d="M52.0362 133.594C52.027 136.41 54.0368 139.29 56.5249 140.026C59.0133 140.761 61.0379 139.074 61.047 136.257C61.0563 133.44 59.0464 130.56 56.5581 129.824C54.0699 129.089 52.0452 130.777 52.0362 133.594Z" fill="white" stroke="#252525" stroke-linejoin="round"/>
<path d="M29.5166 121.831C27.0284 121.095 25.0036 122.782 24.9947 125.599C24.9855 128.416 26.9953 131.296 29.4834 132.032C31.9718 132.768 33.9963 131.08 34.0055 128.263C34.0146 125.447 32.005 122.566 29.5166 121.831Z" fill="white" stroke="#252525" stroke-linejoin="round"/>
<path d="M53.208 85.0827L95.1717 97.4892C95.5102 97.5892 95.5591 98.0474 95.249 98.2162L64.7559 114.833C64.6634 114.883 64.554 114.895 64.4529 114.865L22.4892 102.458C22.1508 102.359 22.1018 101.9 22.412 101.731L52.9051 85.1149C52.9978 85.0643 53.1069 85.0528 53.208 85.0827Z" fill="#F9F8F4" stroke="#252525" stroke-linejoin="round"/>
<path d="M62.1253 98.1785C59.6371 97.4429 56.1445 97.6504 54.3247 98.6421C52.505 99.6337 53.0469 101.034 55.5351 101.77C58.0235 102.505 61.5159 102.298 63.3358 101.306C65.1556 100.314 64.6136 98.9141 62.1253 98.1785Z" fill="#DCB8FF" stroke="#252525" stroke-linejoin="round"/>
<path d="M139.27 97.5141L116.157 117.405C115.913 117.614 115.744 117.897 115.675 118.21L106.649 159.357C106.502 160.025 106.833 160.706 107.449 161.006L150.897 182.107C151.43 182.367 152.067 182.283 152.517 181.897L175.63 162.005C175.873 161.797 176.041 161.514 176.11 161.201L185.137 120.054C185.284 119.386 184.953 118.705 184.337 118.405L140.889 97.3037C140.355 97.0446 139.718 97.1273 139.27 97.5141Z" fill="#252525" stroke="#252525" stroke-linejoin="round"/>
<path d="M175.813 161.848L153.518 181.034C152.961 181.515 152.111 181.011 152.269 180.293L161.105 140.013C161.141 139.852 161.228 139.707 161.353 139.599L183.649 120.411C184.206 119.932 185.054 120.436 184.897 121.154L176.06 161.433C176.025 161.594 175.938 161.74 175.813 161.848Z" fill="#252525" stroke="#252525" stroke-linejoin="round"/>
<path d="M158.524 166.648C156.998 167.96 155.322 171.028 154.78 173.501C154.237 175.974 155.034 176.914 156.559 175.602C158.084 174.289 159.761 171.221 160.303 168.748C160.845 166.276 160.049 165.334 158.524 166.648Z" fill="white" stroke="#252525" stroke-linejoin="round"/>
<path d="M180.607 125.843C179.082 127.155 177.406 130.223 176.864 132.696C176.321 135.169 177.118 136.109 178.643 134.797C180.168 133.484 181.845 130.416 182.387 127.943C182.929 125.47 182.133 124.53 180.607 125.843Z" fill="white" stroke="#252525" stroke-linejoin="round"/>
<path d="M139.628 97.2052L116.663 116.969C116.246 117.328 116.333 117.995 116.828 118.236L160.704 139.546C160.98 139.68 161.309 139.637 161.54 139.438L184.507 119.674C184.923 119.314 184.836 118.648 184.342 118.407L140.464 97.0966C140.188 96.9629 139.86 97.0058 139.628 97.2052Z" fill="#F9F8F4" stroke="#252525" stroke-linejoin="round"/>
<path d="M159.507 129.834C156.883 128.56 153.521 128.591 151.995 129.904C150.47 131.216 151.361 133.312 153.984 134.587C156.608 135.861 159.971 135.83 161.496 134.517C163.021 133.205 162.131 131.109 159.507 129.834Z" fill="#DCB8FF" stroke="#252525" stroke-linejoin="round"/>
<path d="M149.173 106.739C150.698 105.426 149.808 103.329 147.185 102.055C144.56 100.781 141.197 100.812 139.672 102.124C138.147 103.437 139.037 105.534 141.661 106.808C144.285 108.082 147.648 108.051 149.173 106.739Z" fill="#DCB8FF" stroke="#252525" stroke-linejoin="round"/>
<path d="M155.335 120.629C156.86 119.316 155.97 117.22 153.345 115.946C150.722 114.671 147.359 114.703 145.834 116.015C144.309 117.328 145.199 119.424 147.823 120.698C150.446 121.973 153.81 121.941 155.335 120.629Z" fill="#DCB8FF" stroke="#252525" stroke-linejoin="round"/>
<path d="M115.574 118.677L106.529 159.908C106.453 160.253 106.623 160.604 106.942 160.758L150.901 182.109C151.348 182.326 151.879 182.069 151.985 181.585L161.029 140.354C161.105 140.009 160.935 139.659 160.617 139.503L116.657 118.154C116.211 117.937 115.68 118.194 115.574 118.677Z" fill="#DCB8FF" stroke="#252525" stroke-linejoin="round"/>
<path d="M111.893 154.024C111.351 156.497 113.038 159.534 115.662 160.808C118.285 162.082 120.852 161.111 121.394 158.638C121.936 156.165 120.25 153.128 117.626 151.854C115.003 150.579 112.436 151.551 111.893 154.024Z" fill="white" stroke="#252525" stroke-linejoin="round"/>
<path d="M140.406 167.871C139.864 170.344 141.551 173.382 144.174 174.655C146.797 175.93 149.364 174.958 149.907 172.485C150.449 170.012 148.762 166.976 146.138 165.701C143.515 164.427 140.948 165.398 140.406 167.871Z" fill="white" stroke="#252525" stroke-linejoin="round"/>
<path d="M127.152 132.391C127.694 129.918 126.008 126.88 123.385 125.605C120.761 124.331 118.195 125.303 117.651 127.776C117.109 130.249 118.797 133.287 121.42 134.56C124.043 135.835 126.61 134.864 127.152 132.391Z" fill="white" stroke="#252525" stroke-linejoin="round"/>
<path d="M151.896 139.454C149.272 138.179 146.706 139.15 146.163 141.623C145.62 144.096 147.308 147.134 149.931 148.408C152.554 149.683 155.121 148.711 155.663 146.238C156.205 143.765 154.519 140.727 151.896 139.454Z" fill="white" stroke="#252525" stroke-linejoin="round"/>
<path d="M138.529 152.439C139.071 149.966 137.384 146.928 134.761 145.655C132.137 144.38 129.571 145.351 129.028 147.824C128.485 150.296 130.173 153.334 132.796 154.609C135.42 155.883 137.986 154.911 138.529 152.439Z" fill="white" stroke="#252525" stroke-linejoin="round"/>
</g>
<defs>
<clipPath id="clip0_8079_31360">
<rect width="209" height="195" fill="white"/>
</clipPath>
</defs>
</svg>
