<svg width="30" height="30" viewBox="0 0 30 30" fill="none" xmlns="http://www.w3.org/2000/svg">
<path fill-rule="evenodd" clip-rule="evenodd" d="M22.0689 30.0019C19.9053 29.9222 13.7734 29.0748 7.35154 22.6545C0.931188 16.2326 0.0852571 10.1022 0.00411996 7.93708C-0.116083 4.63751 2.41119 1.43259 5.33062 0.180972C5.68218 0.0291658 6.06717 -0.0286315 6.44781 0.0132518C6.82845 0.0551351 7.19165 0.19526 7.50179 0.419876C9.90586 2.17184 11.5647 4.82232 12.9891 6.90634C13.3025 7.36421 13.4365 7.92138 13.3655 8.47168C13.2946 9.02199 13.0237 9.52696 12.6044 9.89038L9.67296 12.0676C9.53134 12.1698 9.43165 12.32 9.3924 12.4903C9.35316 12.6605 9.37704 12.8392 9.4596 12.9931C10.1237 14.1997 11.3047 15.9967 12.657 17.349C14.0108 18.7013 15.892 19.9604 17.1827 20.6997C17.3445 20.7905 17.535 20.8159 17.7149 20.7706C17.8949 20.7253 18.0507 20.6128 18.1503 20.4562L20.0585 17.5518C20.4093 17.0858 20.9269 16.7736 21.5027 16.6806C22.0786 16.5876 22.6681 16.7211 23.1477 17.053C25.2618 18.5165 27.729 20.1467 29.535 22.4591C29.7779 22.7715 29.9324 23.1434 29.9823 23.5359C30.0323 23.9284 29.9759 24.3271 29.819 24.6904C28.5614 27.6249 25.379 30.1236 22.0689 30.0019Z" fill="#D2FF00"/>
</svg>
