<svg width="329" height="207" viewBox="0 0 329 207" fill="none" xmlns="http://www.w3.org/2000/svg">
<path d="M377.673 108.535L377.634 122.155L200.373 225.256L200.412 211.637L377.673 108.535Z" fill="#7D2000"/>
<path d="M200.411 211.637L200.372 225.256L21.8066 122.161L21.8447 108.542L200.411 211.637Z" fill="#B72F00"/>
<path d="M377.67 108.535L200.41 211.637L21.8433 108.542L199.104 5.44043L377.67 108.535Z" fill="#FF5B23"/>
<path d="M199.148 13.417L36.5923 107.972L200.33 202.506L362.886 107.95L199.148 13.417Z" fill="#F9F8F4"/>
<mask id="mask0_2444_1777" style="mask-type:luminance" maskUnits="userSpaceOnUse" x="36" y="13" width="327" height="190">
<path d="M199.148 13.415L36.5928 107.97L200.331 202.504L362.886 107.948L199.148 13.415Z" fill="white"/>
</mask>
<g mask="url(#mask0_2444_1777)">
<path d="M339.844 94.4512L316.594 107.962L340.009 121.481L363.259 107.969L339.844 94.4512ZM270.082 134.992L293.652 148.601L316.902 135.091L293.331 121.482L270.081 134.992H270.082ZM223.569 162.023L247.374 175.767L270.624 162.255L246.819 148.511L223.569 162.023ZM200.167 148.512L176.904 162.031L200.305 175.542L223.569 162.023L200.167 148.512ZM153.351 121.483L130.088 135.001L153.489 148.512L176.752 134.993L153.351 121.483ZM106.534 94.4532L83.2709 107.972L106.672 121.483L129.935 107.964L106.534 94.4532ZM176.448 80.9335L153.047 67.4227L129.784 80.9415L153.185 94.4522L176.448 80.9335ZM222.96 53.904L199.559 40.3932L176.296 53.912L199.697 67.4227L222.96 53.904ZM246.376 67.4227L269.626 53.911L246.21 40.3922L222.96 53.904L246.376 67.4227ZM293.192 94.4522L316.441 80.9405L293.026 67.4217L269.776 80.9335L293.191 94.4522H293.192ZM269.929 107.971L293.331 121.482L316.594 107.962L293.192 94.4522L269.929 107.971ZM223.417 135.001L246.819 148.512L270.082 134.992L246.68 121.483L223.417 135.001ZM200.002 121.483L176.752 134.993L200.167 148.512L223.417 135L200.002 121.483ZM153.185 94.4522L129.935 107.964L153.351 121.483L176.601 107.972L153.185 94.4522ZM223.113 80.9415L199.697 67.4227L176.447 80.9335L199.863 94.4522L223.113 80.9415ZM246.514 94.4522L269.777 80.9335L246.376 67.4227L223.113 80.9415L246.514 94.4522ZM223.265 107.964L246.68 121.483L269.929 107.971L246.514 94.4522L223.265 107.964ZM199.864 94.4532L176.601 107.972L200.002 121.483L223.265 107.964L199.864 94.4532ZM197.627 12.3438L174.378 25.8545L199.56 40.3932L222.809 26.8825L197.627 12.3438ZM151.115 39.3732L127.866 52.884L153.048 67.4227L176.297 53.911L151.115 39.3732ZM104.603 66.4037L81.3531 79.9144L106.534 94.4532L129.784 80.9415L104.603 66.4037ZM32.5967 108.237L57.7785 122.776L83.2699 107.971L58.0881 93.4322L32.5967 108.237ZM81.1808 136.287L104.596 149.806L130.088 135L106.672 121.483L81.1808 136.287ZM127.997 163.316L151.413 176.835L176.904 162.03L153.489 148.511L127.997 163.316ZM174.814 190.346L198.229 203.865L223.721 189.059L200.305 175.542L174.814 190.346Z" fill="#FF5B23"/>
</g>
<path fill-rule="evenodd" clip-rule="evenodd" d="M184.025 25.2051C184.025 27.5879 185.54 29.9707 188.57 31.7887C194.63 35.4247 204.456 35.4247 210.516 31.7887C213.546 29.9707 215.061 27.5879 215.061 25.2051V20.5498C215.061 18.167 213.546 15.7843 210.516 13.9663C204.456 10.3303 194.63 10.3303 188.57 13.9663C185.54 15.7843 184.025 18.167 184.025 20.5498V25.2051Z" fill="#C6C6C6"/>
<circle cx="8.25458" cy="8.25458" r="8.25458" transform="matrix(0.866041 -0.499972 0.866041 0.499972 185.245 20.4229)" fill="white"/>
<circle cx="11.7923" cy="11.7923" r="10.7923" transform="matrix(0.866041 -0.499972 0.866041 0.499972 179.118 20.2354)" stroke="white" stroke-width="2"/>
<path fill-rule="evenodd" clip-rule="evenodd" d="M266.996 216.683C266.996 219.065 268.511 221.448 271.541 223.266C277.601 226.902 287.426 226.902 293.486 223.266C296.516 221.448 298.031 219.065 298.031 216.683V212.027C298.031 209.645 296.516 207.262 293.486 205.444C287.426 201.808 277.601 201.808 271.541 205.444C268.511 207.262 266.996 209.645 266.996 212.027V216.683Z" fill="#C6C6C6"/>
<circle cx="8.25458" cy="8.25458" r="8.25458" transform="matrix(0.866041 -0.499972 0.866041 0.499972 268.215 211.901)" fill="white"/>
<circle cx="11.7923" cy="11.7923" r="10.7923" transform="matrix(0.866041 -0.499972 0.866041 0.499972 262.088 211.715)" stroke="white" stroke-width="2"/>
<path fill-rule="evenodd" clip-rule="evenodd" d="M135.931 53.2608C135.931 55.6436 137.446 58.0264 140.476 59.8443C146.536 63.4804 156.361 63.4804 162.421 59.8443C165.451 58.0264 166.966 55.6436 166.966 53.2608V48.6055C166.966 46.2227 165.451 43.8399 162.421 42.0219C156.361 38.3859 146.536 38.3859 140.476 42.0219C137.446 43.8399 135.931 46.2227 135.931 48.6055V53.2608Z" fill="#C6C6C6"/>
<circle cx="8.25458" cy="8.25458" r="8.25458" transform="matrix(0.866041 -0.499972 0.866041 0.499972 137.15 48.4785)" fill="white"/>
<circle cx="11.7923" cy="11.7923" r="10.7923" transform="matrix(0.866041 -0.499972 0.866041 0.499972 131.023 48.292)" stroke="white" stroke-width="2"/>
<path fill-rule="evenodd" clip-rule="evenodd" d="M89.8394 80.3155C89.8394 82.6983 91.3544 85.081 94.3844 86.899C100.444 90.535 110.27 90.535 116.33 86.899C119.36 85.081 120.875 82.6983 120.875 80.3155V75.6602C120.875 73.2774 119.36 70.8946 116.33 69.0766C110.27 65.4406 100.444 65.4406 94.3844 69.0766C91.3544 70.8946 89.8394 73.2774 89.8394 75.6602V80.3155Z" fill="#C6C6C6"/>
<circle cx="8.25458" cy="8.25458" r="8.25458" transform="matrix(0.866041 -0.499972 0.866041 0.499972 91.0586 75.5332)" fill="white"/>
<circle cx="11.7923" cy="11.7923" r="10.7923" transform="matrix(0.866041 -0.499972 0.866041 0.499972 84.9316 75.3467)" stroke="white" stroke-width="2"/>
<path fill-rule="evenodd" clip-rule="evenodd" d="M39.7402 106.366C39.7402 108.749 41.2552 111.132 44.2852 112.95C50.3452 116.586 60.1705 116.586 66.2305 112.95C69.2605 111.132 70.7755 108.749 70.7755 106.366V101.711C70.7755 99.3282 69.2605 96.9454 66.2305 95.1274C60.1705 91.4914 50.3452 91.4914 44.2852 95.1274C41.2552 96.9454 39.7402 99.3282 39.7402 101.711V106.366Z" fill="#C6C6C6"/>
<circle cx="8.25458" cy="8.25458" r="8.25458" transform="matrix(0.866041 -0.499972 0.866041 0.499972 40.9595 101.584)" fill="white"/>
<circle cx="11.7923" cy="11.7923" r="10.7923" transform="matrix(0.866041 -0.499972 0.866041 0.499972 34.8325 101.397)" stroke="white" stroke-width="2"/>
<path fill-rule="evenodd" clip-rule="evenodd" d="M136.932 80.3155C136.932 82.6983 138.447 85.081 141.477 86.899C147.537 90.535 157.362 90.535 163.422 86.899C166.452 85.081 167.967 82.6983 167.967 80.3155V75.6602C167.967 73.2774 166.452 70.8946 163.422 69.0766C157.362 65.4406 147.537 65.4406 141.477 69.0766C138.447 70.8946 136.932 73.2774 136.932 75.6602V80.3155Z" fill="#C6C6C6"/>
<circle cx="8.25458" cy="8.25458" r="8.25458" transform="matrix(0.866041 -0.499972 0.866041 0.499972 138.151 75.5332)" fill="white"/>
<circle cx="11.7923" cy="11.7923" r="10.7923" transform="matrix(0.866041 -0.499972 0.866041 0.499972 132.024 75.3467)" stroke="white" stroke-width="2"/>
<path fill-rule="evenodd" clip-rule="evenodd" d="M184.025 80.3155C184.025 82.6983 185.54 85.081 188.57 86.899C194.63 90.535 204.456 90.535 210.516 86.899C213.546 85.081 215.061 82.6983 215.061 80.3155V75.6602C215.061 73.2774 213.546 70.8946 210.516 69.0766C204.456 65.4406 194.63 65.4406 188.57 69.0766C185.54 70.8946 184.025 73.2774 184.025 75.6602V80.3155Z" fill="#C6C6C6"/>
<circle cx="8.25458" cy="8.25458" r="8.25458" transform="matrix(0.866041 -0.499972 0.866041 0.499972 185.245 75.5332)" fill="white"/>
<circle cx="11.7923" cy="11.7923" r="10.7923" transform="matrix(0.866041 -0.499972 0.866041 0.499972 179.118 75.3467)" stroke="white" stroke-width="2"/>
<path fill-rule="evenodd" clip-rule="evenodd" d="M278.213 78.3106C278.213 80.6934 279.728 83.0762 282.758 84.8942C288.818 88.5302 298.643 88.5302 304.703 84.8942C307.733 83.0762 309.248 80.6934 309.248 78.3106V73.6553C309.248 71.2725 307.733 68.8897 304.703 67.0717C298.643 63.4357 288.818 63.4357 282.758 67.0717C279.728 68.8897 278.213 71.2725 278.213 73.6553V78.3106Z" fill="#C6C6C6"/>
<circle cx="8.25458" cy="8.25458" r="8.25458" transform="matrix(0.866041 -0.499972 0.866041 0.499972 279.432 73.5293)" fill="white"/>
<circle cx="11.7923" cy="11.7923" r="10.7923" transform="matrix(0.866041 -0.499972 0.866041 0.499972 273.305 73.3428)" stroke="white" stroke-width="2"/>
<path fill-rule="evenodd" clip-rule="evenodd" d="M208.074 174.5C208.074 176.883 209.589 179.266 212.619 181.084C218.679 184.72 228.504 184.72 234.564 181.084C237.594 179.266 239.109 176.883 239.109 174.5V169.845C239.109 167.462 237.594 165.079 234.564 163.261C228.504 159.625 218.679 159.625 212.619 163.261C209.589 165.079 208.074 167.462 208.074 169.845V174.5Z" fill="#494949"/>
<circle cx="8.25458" cy="8.25458" r="8.25458" transform="matrix(0.866041 -0.499972 0.866041 0.499972 209.294 169.719)" fill="#212121"/>
<circle cx="11.7923" cy="11.7923" r="10.7923" transform="matrix(0.866041 -0.499972 0.866041 0.499972 203.167 169.532)" stroke="#212121" stroke-width="2"/>
<path fill-rule="evenodd" clip-rule="evenodd" d="M33.6157 175.904C33.6157 178.287 35.1307 180.67 38.1607 182.488C44.2207 186.124 54.046 186.124 60.106 182.488C63.136 180.67 64.651 178.287 64.651 175.904V171.249C64.651 168.866 63.136 166.483 60.106 164.665C54.046 161.029 44.2207 161.029 38.1607 164.665C35.1307 166.483 33.6157 168.866 33.6157 171.249V175.904Z" fill="#494949"/>
<circle cx="8.25458" cy="8.25458" r="8.25458" transform="matrix(0.866041 -0.499972 0.866041 0.499972 34.835 171.123)" fill="#212121"/>
<circle cx="11.7923" cy="11.7923" r="10.7923" transform="matrix(0.866041 -0.499972 0.866041 0.499972 28.708 170.937)" stroke="#212121" stroke-width="2"/>
<path fill-rule="evenodd" clip-rule="evenodd" d="M5.07031 160.22C5.07031 162.603 6.58531 164.985 9.61532 166.803C15.6753 170.439 25.5005 170.439 31.5606 166.803C34.5906 164.985 36.1056 162.603 36.1056 160.22V155.564C36.1056 153.182 34.5906 150.799 31.5606 148.981C25.5005 145.345 15.6753 145.345 9.61532 148.981C6.58531 150.799 5.07031 153.182 5.07031 155.564V160.22Z" fill="#494949"/>
<circle cx="8.25458" cy="8.25458" r="8.25458" transform="matrix(0.866041 -0.499972 0.866041 0.499972 6.29004 155.438)" fill="#212121"/>
<circle cx="11.7923" cy="11.7923" r="10.7923" transform="matrix(0.866041 -0.499972 0.866041 0.499972 0.162598 155.252)" stroke="#212121" stroke-width="2"/>
<path fill-rule="evenodd" clip-rule="evenodd" d="M254.165 147.446C254.165 149.829 255.68 152.212 258.71 154.03C264.77 157.666 274.595 157.666 280.655 154.03C283.685 152.212 285.2 149.829 285.2 147.446V142.791C285.2 140.408 283.685 138.025 280.655 136.207C274.595 132.571 264.77 132.571 258.71 136.207C255.68 138.025 254.165 140.408 254.165 142.791V147.446Z" fill="#494949"/>
<circle cx="8.25458" cy="8.25458" r="8.25458" transform="matrix(0.866041 -0.499972 0.866041 0.499972 255.384 142.666)" fill="#212121"/>
<circle cx="11.7923" cy="11.7923" r="10.7923" transform="matrix(0.866041 -0.499972 0.866041 0.499972 249.257 142.479)" stroke="#212121" stroke-width="2"/>
<path fill-rule="evenodd" clip-rule="evenodd" d="M208.074 120.395C208.074 122.777 209.589 125.16 212.619 126.978C218.679 130.614 228.504 130.614 234.564 126.978C237.594 125.16 239.109 122.777 239.109 120.395V115.739C239.109 113.356 237.594 110.974 234.564 109.156C228.504 105.52 218.679 105.52 212.619 109.156C209.589 110.974 208.074 113.356 208.074 115.739V120.395Z" fill="#494949"/>
<circle cx="8.25458" cy="8.25458" r="8.25458" transform="matrix(0.866041 -0.499972 0.866041 0.499972 209.294 115.613)" fill="#212121"/>
<circle cx="11.7923" cy="11.7923" r="10.7923" transform="matrix(0.866041 -0.499972 0.866041 0.499972 203.167 115.427)" stroke="#212121" stroke-width="2"/>
<path fill-rule="evenodd" clip-rule="evenodd" d="M3.81592 148.614C3.81592 150.997 5.33091 153.38 8.36092 155.198C14.4209 158.834 24.2462 158.834 30.3062 155.198C33.3362 153.38 34.8512 150.997 34.8512 148.614V143.959C34.8512 141.576 33.3362 139.193 30.3062 137.375C24.2462 133.739 14.4209 133.739 8.36092 137.375C5.33091 139.193 3.81592 141.576 3.81592 143.959V148.614Z" fill="#494949"/>
<circle cx="8.25458" cy="8.25458" r="8.25458" transform="matrix(0.866041 -0.499972 0.866041 0.499972 5.03564 143.834)" fill="#212121"/>
<circle cx="11.7923" cy="11.7923" r="10.7923" transform="matrix(0.866041 -0.499972 0.866041 0.499972 -1.0918 143.646)" stroke="#212121" stroke-width="2"/>
<path fill-rule="evenodd" clip-rule="evenodd" d="M3.81592 137.008C3.81592 139.391 5.33091 141.773 8.36092 143.591C14.4209 147.227 24.2462 147.227 30.3062 143.591C33.3362 141.773 34.8512 139.391 34.8512 137.008V132.353C34.8512 129.97 33.3362 127.587 30.3062 125.769C24.2462 122.133 14.4209 122.133 8.36092 125.769C5.33091 127.587 3.81592 129.97 3.81592 132.353V137.008Z" fill="#494949"/>
<circle cx="8.25458" cy="8.25458" r="8.25458" transform="matrix(0.866041 -0.499972 0.866041 0.499972 5.03564 132.226)" fill="#212121"/>
<circle cx="11.7923" cy="11.7923" r="10.7923" transform="matrix(0.866041 -0.499972 0.866041 0.499972 -1.0918 132.039)" stroke="#212121" stroke-width="2"/>
<path fill-rule="evenodd" clip-rule="evenodd" d="M33.6157 164.61C33.6157 166.993 35.1307 169.376 38.1607 171.194C44.2207 174.83 54.046 174.83 60.106 171.194C63.136 169.376 64.651 166.993 64.651 164.61V159.955C64.651 157.572 63.136 155.19 60.106 153.372C54.046 149.736 44.2207 149.736 38.1607 153.372C35.1307 155.19 33.6157 157.572 33.6157 159.955V164.61Z" fill="#494949"/>
<circle cx="8.25458" cy="8.25458" r="8.25458" transform="matrix(0.866041 -0.499972 0.866041 0.499972 34.835 159.829)" fill="#212121"/>
<circle cx="11.7923" cy="11.7923" r="10.7923" transform="matrix(0.866041 -0.499972 0.866041 0.499972 28.708 159.643)" stroke="#212121" stroke-width="2"/>
<path fill-rule="evenodd" clip-rule="evenodd" d="M1.93359 187.824C1.93359 190.207 3.44859 192.59 6.4786 194.408C12.5386 198.044 22.3638 198.044 28.4238 194.408C31.4538 192.59 32.9688 190.207 32.9688 187.824V183.169C32.9688 180.786 31.4538 178.403 28.4238 176.585C22.3638 172.949 12.5386 172.949 6.4786 176.585C3.44859 178.403 1.93359 180.786 1.93359 183.169V187.824Z" fill="#494949"/>
<circle cx="8.25458" cy="8.25458" r="8.25458" transform="matrix(0.866041 -0.499972 0.866041 0.499972 3.15283 183.043)" fill="#212121"/>
<circle cx="11.7923" cy="11.7923" r="10.7923" transform="matrix(0.866041 -0.499972 0.866041 0.499972 -2.97412 182.856)" stroke="#212121" stroke-width="2"/>
<path fill-rule="evenodd" clip-rule="evenodd" d="M114.888 120.395C114.888 122.777 116.403 125.16 119.433 126.978C125.493 130.614 135.318 130.614 141.378 126.978C144.408 125.16 145.923 122.777 145.923 120.395V115.739C145.923 113.356 144.408 110.974 141.378 109.156C135.318 105.52 125.493 105.52 119.433 109.156C116.403 110.974 114.888 113.356 114.888 115.739V120.395Z" fill="#494949"/>
<circle cx="8.25458" cy="8.25458" r="8.25458" transform="matrix(0.866041 -0.499972 0.866041 0.499972 116.108 115.613)" fill="#212121"/>
<circle cx="11.7923" cy="11.7923" r="10.7923" transform="matrix(0.866041 -0.499972 0.866041 0.499972 109.981 115.427)" stroke="#212121" stroke-width="2"/>
<path fill-rule="evenodd" clip-rule="evenodd" d="M301.258 120.395C301.258 122.777 302.773 125.16 305.803 126.978C311.863 130.614 321.689 130.614 327.749 126.978C330.779 125.16 332.294 122.777 332.294 120.395V115.739C332.294 113.356 330.779 110.974 327.749 109.156C321.689 105.52 311.863 105.52 305.803 109.156C302.773 110.974 301.258 113.356 301.258 115.739V120.395Z" fill="#494949"/>
<circle cx="8.25458" cy="8.25458" r="8.25458" transform="matrix(0.866041 -0.499972 0.866041 0.499972 302.478 115.613)" fill="#212121"/>
<circle cx="11.7923" cy="11.7923" r="10.7923" transform="matrix(0.866041 -0.499972 0.866041 0.499972 296.351 115.426)" stroke="#212121" stroke-width="2"/>
<path fill-rule="evenodd" clip-rule="evenodd" d="M265.999 30.0212C268.567 32.0373 272.318 32.521 276.643 30.9942C285.293 27.9406 292.963 18.0017 293.775 8.79497C294.181 4.19162 292.796 0.642926 290.227 -1.37324L285.21 -5.31226C282.642 -7.32843 278.891 -7.81207 274.566 -6.28527C265.916 -3.2317 258.246 6.70722 257.434 15.9139C257.028 20.5173 258.413 24.066 260.981 26.0821L265.999 30.0212Z" fill="#494949"/>
<ellipse cx="13.3458" cy="10.4677" rx="13.3458" ry="10.4677" transform="matrix(0.0880743 -0.825005 0.994183 -0.366788 261.475 25.2158)" fill="#212121"/>
<path d="M274.453 -4.6903C281.903 -7.43895 287.634 -3.3335 286.735 5.0957C285.835 13.5249 278.721 22.3692 271.271 25.1179C263.821 27.8665 258.089 23.7611 258.989 15.3319C259.889 6.90266 267.003 -1.94166 274.453 -4.6903Z" stroke="#212121" stroke-width="2"/>
<path d="M280.152 9.86514L277.715 12.0327L274.056 16.538L275.325 14.6805C276.089 13.5632 276.853 12.4461 277.617 11.3288L277.297 9.14863L276.755 9.04113L275.613 11.5157L274.879 12.6457L273.988 13.6934L274.729 12.0898L275.225 10.7706L275.594 9.32229L275.224 9.02939L274.525 8.9528L272.736 9.11965L271.926 9.33701L271.302 9.72262L270.567 11.2051L270.07 12.5243L269.613 14.1015L269.475 13.1498L269.57 12.0794L270.275 9.64554L269.609 9.86573L267.566 12.2663C267.514 13.3172 267.462 14.3679 267.41 15.4188C267.38 16.0013 267.351 16.5838 267.321 17.1663L266.911 13.0404L265.988 11.1863L266.874 8.95501L267.945 8.12934L269.174 6.80751L269.501 6.11511L269.832 6.47299L269.725 7.21362C270.009 7.22659 270.294 7.23932 270.579 7.25228C270.804 7.54981 271.03 7.84727 271.255 8.14507C271.254 7.77959 271.254 7.41384 271.253 7.04835L270.909 6.48386L269.638 5.82376L270.629 5.01182L271.257 4.71345L271.849 4.65821L272.404 5.02603C272.692 4.93922 272.98 4.85241 273.268 4.76561C273.941 4.70137 274.612 4.63738 275.285 4.57315L275.339 4.56812C276.01 4.50707 276.68 4.44581 277.351 4.38479C277.593 4.42221 277.834 4.45961 278.075 4.49703L278.957 3.9952L279.55 3.93996L279.991 4.13854L280.42 4.81802L278.542 5.7719L277.732 6.44394C277.447 6.83617 277.16 7.2287 276.874 7.62095C277.348 7.25791 277.822 6.89519 278.297 6.5324C278.612 6.46346 278.927 6.39475 279.243 6.32581L279.705 5.55208L280.34 5.10402L280.151 5.78359L280.437 6.96412L280.943 7.64265L280.152 9.86514Z" fill="#F9F8F4"/>
<path d="M273.156 16.4862L272.891 17.207L271.659 17.8325L269.932 18.2981L269.903 18.3058L269.878 18.3032L268.381 18.145L267.537 17.7174L267.803 16.9966L268.234 16.7723L268.782 15.2849L268.673 16.3287L269.044 16.8274L268.977 17.3494L270.304 17.1473L270.331 17.1431L270.358 17.1422L271.627 17.0968L271.954 16.5499L272.731 15.9418L273.412 14.8434L272.865 16.3309L273.156 16.4862Z" fill="#F9F8F4"/>
<path d="M272.914 12.2017L271.5 14.3686L271.5 14.3693L271.5 14.3687L271.752 12.3052L272.641 11.4697L272.914 12.2017Z" fill="#F9F8F4"/>
<path fill-rule="evenodd" clip-rule="evenodd" d="M117.497 174.655C114.796 177.545 110.501 178.964 105.253 178.227C94.7553 176.753 84.4181 167.214 82.1639 156.921C81.0368 151.774 82.1438 147.414 84.8448 144.524L90.1218 138.878C92.8228 135.988 97.1177 134.569 102.366 135.306C112.864 136.78 123.201 146.319 125.455 156.612C126.582 161.759 125.475 166.12 122.774 169.01L117.497 174.655Z" fill="#C6C6C6"/>
<ellipse cx="15.8612" cy="12.0668" rx="15.8612" ry="12.0668" transform="matrix(-0.191557 -0.80461 -1.08042 -0.171348 122.432 168.838)" fill="white"/>
<path d="M102.404 136.369C97.6702 135.619 93.7546 136.803 91.2895 139.439C88.8239 142.077 87.8477 146.139 89.0082 151.014C90.1687 155.888 93.2318 160.592 97.1959 164.248C101.159 167.904 105.968 170.472 110.701 171.223C115.435 171.974 119.35 170.789 121.815 168.153C124.281 165.516 125.257 161.453 124.097 156.579C122.936 151.704 119.873 147.001 115.909 143.344C111.946 139.688 107.137 137.12 102.404 136.369Z" stroke="white" stroke-width="2"/>
<path d="M98.3995 154.881L101.624 156.658L106.774 160.622L104.916 158.941C103.797 157.93 102.677 156.92 101.558 155.909L101.37 153.587L101.941 153.37L103.814 155.715L104.903 156.745L106.145 157.66L104.931 156.14L104.056 154.868L103.292 153.438L103.626 153.063L104.378 152.848L106.392 152.676L107.339 152.744L108.123 153.024L109.301 154.419L110.175 155.69L111.07 157.237L110.987 156.224L110.617 155.132L109.236 152.745L110.025 152.845L112.873 154.939C113.19 156.019 113.508 157.098 113.826 158.177C114.003 158.776 114.18 159.374 114.357 159.972L113.786 155.615L114.345 153.515L112.816 151.372L111.429 150.723L109.748 149.59L109.215 148.935L108.938 149.37L109.24 150.118C108.93 150.186 108.619 150.254 108.308 150.323C108.133 150.675 107.958 151.027 107.783 151.379C107.694 151 107.604 150.62 107.515 150.241L107.754 149.59L108.992 148.66L107.698 148.009L106.931 147.821L106.265 147.878L105.744 148.367C105.405 148.333 105.066 148.298 104.726 148.264C103.969 148.327 103.213 148.391 102.456 148.454L102.395 148.459C101.64 148.526 100.885 148.592 100.13 148.658C99.8734 148.743 99.6166 148.829 99.3596 148.914L98.2626 148.564L97.596 148.621L97.1585 148.913L96.8535 149.7L99.1611 150.326L100.22 150.867C100.632 151.218 101.045 151.57 101.458 151.921C100.845 151.636 100.233 151.352 99.6199 151.067C99.255 151.057 98.8902 151.046 98.5253 151.036L97.8238 150.323L97.0124 149.981L97.3898 150.649L97.3663 151.928L96.9768 152.73L98.3995 154.881Z" fill="#252525"/>
<path d="M107.476 161.069L107.948 161.734L109.473 162.122L111.51 162.257L111.544 162.26L111.571 162.252L113.2 161.812L114.035 161.228L113.563 160.563L113.028 160.422L112.053 159.05L112.43 160.065L112.14 160.63L112.342 161.135L110.814 161.186L110.783 161.187L110.753 161.191L109.328 161.386L108.83 160.905L107.815 160.448L106.788 159.487L107.762 160.86L107.476 161.069Z" fill="#252525"/>
<path d="M106.881 156.122L108.92 158.234L108.921 158.235L108.921 158.234L108.188 156.002L107.021 155.258L106.881 156.122Z" fill="#252525"/>
</svg>
