<svg width="30" height="24" viewBox="0 0 30 24" fill="none" xmlns="http://www.w3.org/2000/svg">
<path d="M26.25 0H3.75C2.75576 0.00106354 1.80256 0.396493 1.09952 1.09952C0.396493 1.80256 0.00106354 2.75576 0 3.75V19.8214C0.00106354 20.8157 0.396493 21.7689 1.09952 22.4719C1.80256 23.1749 2.75576 23.5704 3.75 23.5714H26.25C27.2442 23.5704 28.1974 23.1749 28.9005 22.4719C29.6035 21.7689 29.9989 20.8157 30 19.8214V3.75C29.9989 2.75576 29.6035 1.80256 28.9005 1.09952C28.1974 0.396493 27.2442 0.00106354 26.25 0ZM25.3004 6.2029L15.6576 13.7029C15.4696 13.8491 15.2382 13.9284 15 13.9284C14.7618 13.9284 14.5304 13.8491 14.3424 13.7029L4.69955 6.2029C4.58626 6.11734 4.4911 6.01012 4.4196 5.88747C4.3481 5.76482 4.30169 5.62918 4.28307 5.48843C4.26445 5.34769 4.27398 5.20465 4.31112 5.06762C4.34825 4.93059 4.41225 4.80231 4.4994 4.69023C4.58654 4.57815 4.69509 4.48451 4.81874 4.41475C4.94238 4.34498 5.07866 4.30049 5.21965 4.28384C5.36065 4.2672 5.50354 4.27875 5.64003 4.31781C5.77652 4.35687 5.90389 4.42267 6.01473 4.51138L15 11.4998L23.9853 4.51138C24.2099 4.34171 24.4924 4.26729 24.7715 4.30423C25.0506 4.34116 25.304 4.48647 25.4768 4.70874C25.6496 4.93101 25.728 5.21237 25.695 5.49198C25.662 5.77159 25.5203 6.02697 25.3004 6.2029Z" fill="#D2FF00"/>
</svg>
