<svg xmlns="http://www.w3.org/2000/svg" fill="none" viewBox="-7.11 20.37 193.36 198.13"><path d="M46.5008 218C63.8972 218 77.9997 203.897 77.9997 186.5C77.9997 169.103 63.8972 155 46.5008 155C29.1045 155 15.002 169.103 15.002 186.5C15.002 203.897 29.1045 218 46.5008 218Z" fill="#252525" stroke="#CEFF00" stroke-miterlimit="10"></path><mask id="mask0_3885_17612" style="mask-type:luminance" maskUnits="userSpaceOnUse" x="15" y="155" width="63" height="63"><path d="M46.4989 218C63.8952 218 77.9977 203.897 77.9977 186.5C77.9977 169.103 63.8952 155 46.4989 155C29.1025 155 15 169.103 15 186.5C15 203.897 29.1025 218 46.4989 218Z" fill="white"></path></mask><g mask="url(#mask0_3885_17612)"><path d="M20.3732 153.375C20.1642 155.651 18.2057 181.582 37.4164 197.201C54.9407 211.45 82.5958 211.032 102.95 194.563C101.6 197.653 89.9017 223.275 62.778 229.259C41.1917 234.021 10.7264 226.149 3.1283 202.477C-2.12516 186.109 4.96255 166.577 20.3742 153.375H20.3732Z" fill="#CEFF00"></path><path opacity="0.5" d="M37.8235 141C37.0803 143.14 26.9185 173.681 42.6926 192.13C59.2674 211.515 100.62 213.039 131.255 183C106.399 229.153 63.2317 254.728 25.0414 247.522C0.473175 242.887 -33.3374 222.552 -32.7823 194.566C-32.2774 169.115 -3.4482 142.046 37.8235 141Z" fill="#CEFF00"></path></g><path d="M139.012 201.188L17.7685 131.188L113.605 27.1953L181.155 66.1953L139.012 201.188Z" fill="#252525"></path><path d="M139.012 201.188L17.7685 131.188L113.605 27.1953L181.155 66.1953L139.012 201.188Z" stroke="#CEFF00" stroke-miterlimit="10"></path><mask id="mask1_3885_17612" style="mask-type:luminance" maskUnits="userSpaceOnUse" x="17" y="27" width="165" height="175"><path d="M139.012 201.188L17.7685 131.188L113.605 27.1953L181.155 66.1953L139.012 201.188Z" fill="white"></path></mask><g mask="url(#mask1_3885_17612)"><g opacity="0.3"><path d="M111.774 20.3662C100.76 39.9261 101.332 63.854 113.991 80.5267C129.613 101.101 161.081 107.15 186.245 93.3794C173.364 131.895 159.92 170.771 147.039 209.286C95.611 179.695 44.3141 149.878 -7.11372 120.286C32.4578 86.9466 72.2031 53.7071 111.774 20.3662Z" fill="#CEFF00"></path></g><path d="M91.7857 24.9888C98.6118 29.4861 78.6703 57.1961 88.5033 94.6741C97.4917 128.93 126.121 150.218 133.261 155.151C147.068 164.69 159.937 168.744 169.036 171.187C163.048 185.388 157.224 199.818 151.236 214.018L-6.38087 123.018C62.4922 39.0875 85.6183 20.9251 91.7857 24.9888Z" fill="#CEFF00"></path><g opacity="0.3"><path d="M130.23 26.4027L18.896 157.238L40.1806 168.372L137.292 28.1709L130.23 26.4027Z" fill="white"></path></g><g opacity="0.5"><path d="M116.57 30.0615L17.8684 137.018L26.5286 142.018L116.436 32.2933L116.57 30.0615Z" fill="white"></path></g></g><path d="M144.819 52.1456C163.473 62.9151 179.499 69.0659 181.155 66.1962C182.812 63.3264 169.473 52.5228 150.819 41.7532C132.166 30.9837 115.262 24.3264 113.605 27.1962C111.949 30.0659 126.166 41.376 144.819 52.1456Z" fill="#CEFF00" stroke="#CEFF00" stroke-miterlimit="10"></path><path d="M150.272 207.689C146.684 213.903 138.776 216.06 132.515 212.445C132.086 212.198 131.17 211.732 130.782 211.445L13.003 143.445C12.561 143.253 11.6993 142.692 11.271 142.445C5.0164 138.834 2.92385 130.903 6.51165 124.689C9.92006 118.785 17.3173 116.549 23.4029 119.432C23.7313 119.585 23.9494 119.747 24.269 119.932L145.513 189.932C151.774 193.547 153.864 201.468 150.272 207.689Z" fill="#252525"></path><path d="M150.272 207.689C146.684 213.903 138.776 216.06 132.515 212.445C132.086 212.198 131.17 211.732 130.782 211.445L13.003 143.445C12.561 143.253 11.6993 142.692 11.271 142.445C5.0164 138.834 2.92385 130.903 6.51165 124.689C9.92006 118.785 17.3173 116.549 23.4029 119.432C23.7313 119.585 23.9494 119.747 24.269 119.932L145.513 189.932C151.774 193.547 153.864 201.468 150.272 207.689Z" stroke="#CEFF00" stroke-miterlimit="10"></path></svg>