<svg width="168" height="159" viewBox="0 0 223 220" fill="none" xmlns="http://www.w3.org/2000/svg">
<path d="M41.5008 219C58.8972 219 72.9997 204.897 72.9997 187.5C72.9997 170.103 58.8972 156 41.5008 156C24.1045 156 10.002 170.103 10.002 187.5C10.002 204.897 24.1045 219 41.5008 219Z" stroke="#CEFF00" stroke-miterlimit="10" stroke-dasharray="2 2"/>
<path d="M139.012 201.188L17.7685 131.188L113.605 27.1953L181.155 66.1953L139.012 201.188Z" fill="#252525"/>
<path d="M139.012 201.188L17.7685 131.188L113.605 27.1953L181.155 66.1953L139.012 201.188Z" stroke="#CEFF00" stroke-miterlimit="10"/>
<mask id="mask0_3882_16997" style="mask-type:luminance" maskUnits="userSpaceOnUse" x="17" y="27" width="165" height="175">
<path d="M139.012 201.188L17.7685 131.188L113.605 27.1953L181.155 66.1953L139.012 201.188Z" fill="white"/>
</mask>
<g mask="url(#mask0_3882_16997)">
<g opacity="0.3">
<path d="M111.774 20.3657C100.76 39.9256 101.332 63.8535 113.991 80.5262C129.613 101.1 161.081 107.15 186.245 93.3789C173.364 131.895 159.92 170.77 147.039 209.286C95.611 179.694 44.3141 149.878 -7.11372 120.286C32.4578 86.9461 72.2031 53.7066 111.774 20.3657Z" fill="#CEFF00"/>
</g>
<path d="M91.7857 24.9883C98.6118 29.4856 78.6703 57.1956 88.5033 94.6736C97.4917 128.93 126.121 150.217 133.261 155.15C147.068 164.689 159.937 168.744 169.036 171.187C163.048 185.387 157.224 199.817 151.236 214.018L-6.38087 123.018C62.4922 39.087 85.6183 20.9246 91.7857 24.9883Z" fill="#CEFF00"/>
<g opacity="0.3">
<path d="M130.23 26.4022L18.896 157.238L40.1806 168.372L137.292 28.1704L130.23 26.4022Z" fill="white"/>
</g>
<g opacity="0.5">
<path d="M116.57 30.061L17.8684 137.018L26.5286 142.018L116.436 32.2928L116.57 30.061Z" fill="white"/>
</g>
</g>
<path d="M144.819 52.1456C163.473 62.9151 179.499 69.0659 181.155 66.1962C182.812 63.3264 169.473 52.5228 150.819 41.7532C132.166 30.9837 115.262 24.3264 113.605 27.1962C111.949 30.0659 126.166 41.376 144.819 52.1456Z" fill="#CEFF00" stroke="#CEFF00" stroke-miterlimit="10"/>
<path d="M150.272 207.689C146.684 213.903 138.776 216.06 132.515 212.445C132.086 212.198 131.17 211.732 130.782 211.445L13.003 143.445C12.561 143.253 11.6993 142.692 11.271 142.445C5.0164 138.834 2.92385 130.903 6.51165 124.689C9.92006 118.785 17.3173 116.549 23.4029 119.432C23.7313 119.585 23.9494 119.747 24.269 119.932L145.513 189.932C151.774 193.547 153.864 201.468 150.272 207.689Z" fill="#252525"/>
<path d="M150.272 207.689C146.684 213.903 138.776 216.06 132.515 212.445C132.086 212.198 131.17 211.732 130.782 211.445L13.003 143.445C12.561 143.253 11.6993 142.692 11.271 142.445C5.0164 138.834 2.92385 130.903 6.51165 124.689C9.92006 118.785 17.3173 116.549 23.4029 119.432C23.7313 119.585 23.9494 119.747 24.269 119.932L145.513 189.932C151.774 193.547 153.864 201.468 150.272 207.689Z" stroke="#CEFF00" stroke-miterlimit="10"/>
</svg>
