<svg width="168" height="159" viewBox="0 0 168 159" fill="none" xmlns="http://www.w3.org/2000/svg">
<path d="M154 144.978H14L45 6.99908H123L154 144.978Z" fill="#252525"/>
<path d="M154 144.978H14L45 6.99908H123L154 144.978Z" stroke="#CEFF00" stroke-miterlimit="10"/>
<mask id="mask0_3735_11108" style="mask-type:luminance" maskUnits="userSpaceOnUse" x="14" y="6" width="140" height="139">
<path d="M154 144.978H14L45 6.99905H123L154 144.978Z" fill="white"/>
</mask>
<g mask="url(#mask0_3735_11108)">
<g opacity="0.3">
<path d="M40 1.99985C40.2415 24.4462 52.7007 44.8824 72 52.992C95.8159 62.9987 126.093 52.5036 141 27.9958C149.103 67.7921 156.897 108.181 165 147.977C105.666 148.064 46.3336 147.89 -13 147.977C4.60004 99.3184 22.4007 50.6595 40 1.99985Z" fill="#CEFF00"/>
</g>
<path d="M25 15.9977C33.1602 16.4794 29.7454 50.4478 57 77.9881C81.9124 103.161 117.35 107.281 126 107.983C142.726 109.341 155.898 106.418 165 103.984C166.915 119.276 169.085 134.685 171 149.977H-11C6.6804 42.8542 17.627 15.5621 25 15.9977Z" fill="#CEFF00"/>
<g opacity="0.3">
<path d="M59 -1.99955L28 166.974L52 165.974L66 -3.99924L59 -1.99955Z" fill="white"/>
</g>
<g opacity="0.5">
<path d="M49 7.99893L17 149.977H27L50 9.99862L49 7.99893Z" fill="white"/>
</g>
</g>
<path d="M84.5065 13C106.046 13 123 10.3137 123 7C123 3.68629 106.046 1 84.5065 1C62.9674 1 45 3.68629 45 7C45 10.3137 62.9674 13 84.5065 13Z" fill="#CEFF00" stroke="#CEFF00" stroke-miterlimit="10"/>
<path d="M167 144.978C167 152.153 161.23 157.976 154 157.976C153.505 157.976 152.479 158.03 152 157.976H16C15.5211 158.03 14.4946 157.976 14 157.976C6.77783 157.976 1 152.153 1 144.978C1 138.161 6.28809 132.526 13 131.98C13.3611 131.949 13.631 131.98 14 131.98H154C161.23 131.98 167 137.794 167 144.978Z" fill="#252525"/>
<path d="M167 144.978C167 152.153 161.23 157.976 154 157.976C153.505 157.976 152.479 158.03 152 157.976H16C15.5211 158.03 14.4946 157.976 14 157.976C6.77783 157.976 1 152.153 1 144.978C1 138.161 6.28809 132.526 13 131.98C13.3611 131.949 13.631 131.98 14 131.98H154C161.23 131.98 167 137.794 167 144.978Z" stroke="#CEFF00" stroke-miterlimit="10"/>
</svg>
