<svg width="200" height="200" viewBox="0 0 200 200" fill="none" xmlns="http://www.w3.org/2000/svg">
<rect x="1" y="1" width="198" height="198" rx="9" fill="#252525" stroke="#F9F8F4" stroke-width="2" stroke-linejoin="round"/>
<path d="M49.5422 72.7203C49.9913 71.0254 49.7795 69.1272 49.7202 67.3307C49.4236 58.331 54.5251 48.7636 62.6264 46.6196C67.9229 45.2213 73.7192 47.1704 77.8377 51.0262C80.8376 53.8312 82.9985 57.5514 84.3714 61.5936C85.1764 63.9748 87.5492 65.2884 89.7949 64.5257C97.5997 61.8648 106.108 61.636 114.014 63.8986C115.277 64.263 116.514 63.2545 116.599 61.8563C116.862 57.509 117.963 53.2126 120.217 49.6279C122.955 45.2468 127.548 42.0604 132.446 42.0011C137.276 41.9333 141.903 44.9332 144.674 49.1958C147.445 53.4583 148.504 58.8479 148.25 64.0596C148.166 65.7714 147.988 67.6442 148.86 69.0763C149.369 69.9068 150.174 70.4661 150.945 71.0085C156.945 75.2117 162.911 80.22 165.69 87.3299C169.139 96.1431 166.826 106.702 161.555 114.405C156.292 122.108 148.479 127.337 140.42 131.32C121.972 140.455 101.328 143.972 81.0579 142.836C69.9651 142.218 58.6096 140.107 49.1609 133.803C42.1272 129.108 36.28 121.744 33.9326 113.092C31.4243 103.846 34.2801 94.8042 38.8731 86.8468C41.0425 83.0843 43.6865 79.6437 46.7288 76.6693C47.6185 75.8049 48.5592 74.9405 49.1185 73.805C49.288 73.4575 49.4236 73.0931 49.5253 72.7203H49.5422Z" stroke="#F9F8F4" stroke-width="2" stroke-miterlimit="10" stroke-linejoin="round"/>
<path d="M92.1677 99.1845C103.811 100.795 114.769 99.532 124.768 94.3203" stroke="#F9F8F4" stroke-width="2" stroke-miterlimit="10" stroke-linejoin="round"/>
<path d="M72.1515 70.575C74.5665 70.575 76.5242 67.4373 76.5242 63.5668C76.5242 59.6963 74.5665 56.5586 72.1515 56.5586C69.7365 56.5586 67.7788 59.6963 67.7788 63.5668C67.7788 67.4373 69.7365 70.575 72.1515 70.575Z" fill="#F9F8F4"/>
<path d="M136.022 67.2791C138.437 67.2791 140.395 64.1414 140.395 60.2709C140.395 56.4004 138.437 53.2627 136.022 53.2627C133.607 53.2627 131.649 56.4004 131.649 60.2709C131.649 64.1414 133.607 67.2791 136.022 67.2791Z" fill="#F9F8F4"/>
<path d="M63.94 140.293C63.9061 134.013 64.6773 128.539 69.6178 127.2C70.3889 126.988 71.2024 126.937 71.999 126.954C81.7275 127.175 81.1088 136.03 82.863 142.911" stroke="#F9F8F4" stroke-width="2" stroke-miterlimit="10" stroke-linejoin="round"/>
<path d="M54.9234 125.252C58.2182 125.252 60.8893 122.539 60.8893 119.193C60.8893 115.847 58.2182 113.134 54.9234 113.134C51.6285 113.134 48.9575 115.847 48.9575 119.193C48.9575 122.539 51.6285 125.252 54.9234 125.252Z" stroke="#F9F8F4" stroke-width="2" stroke-miterlimit="10" stroke-linejoin="round"/>
<path d="M77.5835 142.582C69.1517 167.234 68.2619 186.335 75.8633 199.182" stroke="#F9F8F4" stroke-width="2" stroke-miterlimit="10" stroke-linejoin="round"/>
<path d="M119.192 139.192C127.344 158.48 128.327 178.454 121.328 199.182" stroke="#F9F8F4" stroke-width="2" stroke-miterlimit="10" stroke-linejoin="round"/>
<path d="M91.1084 199.18C88.9559 185.266 88.1848 172.597 95.3624 167.097C97.8962 165.156 101.345 165.36 103.735 167.521C110.98 174.063 108.167 187.308 107.413 199.18" stroke="#F9F8F4" stroke-width="2" stroke-miterlimit="10" stroke-linejoin="round"/>
<path d="M125.963 169.182C132.505 158.793 139.42 159.072 143.276 163.674C145.301 166.097 146.039 169.462 145.572 172.69C144.056 183.114 135.378 199.181 135.378 199.181" stroke="#F9F8F4" stroke-width="2" stroke-miterlimit="10" stroke-linejoin="round"/>
<path d="M71.6431 165.766C64.0417 158.919 56.8132 156.224 50.2117 160.758C44.7797 164.487 42.3137 171.597 43.5086 178.427C44.9662 186.774 49.0253 193.181 53.6014 199.189" stroke="#F9F8F4" stroke-width="2" stroke-miterlimit="10" stroke-linejoin="round"/>
<path d="M44.8644 183.765C45.8643 180.011 47.4151 177.435 49.9405 176.927C51.8895 176.537 53.8047 177.664 54.8555 179.477C57.3554 183.791 54.8216 189.604 51.1099 195.756" stroke="#F9F8F4" stroke-width="2" stroke-miterlimit="10" stroke-linejoin="round"/>
<path d="M64.5925 160.631C62.0672 161.122 60.2707 162.987 59.3046 166.385C58.9148 167.758 58.9487 169.283 59.6097 170.537C61.4232 173.995 65.9993 173.071 70.9398 171.571" stroke="#F9F8F4" stroke-width="2" stroke-miterlimit="10" stroke-linejoin="round"/>
<path d="M142.03 184.749C138.259 182.936 135.064 182.495 133.302 185.427C132.954 186.012 132.726 186.673 132.581 187.351C131.853 190.876 133.302 193.986 136.649 196.723" stroke="#F9F8F4" stroke-width="2" stroke-miterlimit="10" stroke-linejoin="round"/>
</svg>
