<svg width="201" height="200" viewBox="0 0 201 200" fill="none" xmlns="http://www.w3.org/2000/svg">
<path d="M182.994 2.61133H18.5335C10.1139 2.61133 3.28857 9.43673 3.28857 17.8563V182.317C3.28857 190.737 10.1139 197.562 18.5335 197.562H182.994C191.414 197.562 198.239 190.737 198.239 182.317V17.8563C198.239 9.43673 191.414 2.61133 182.994 2.61133Z" fill="#252525"/>
<path d="M148.711 122.552H148.698C148.698 122.552 148.698 122.552 148.685 122.552H148.651C148.651 122.552 148.618 122.552 148.605 122.552H148.658C148.605 122.566 148.545 122.566 148.511 122.579C148.371 122.612 148.245 122.652 148.105 122.699C148.051 122.719 148.011 122.746 147.965 122.772C147.898 122.806 147.838 122.846 147.778 122.886C147.745 122.906 147.725 122.919 147.712 122.926C147.172 123.312 146.532 123.352 145.998 122.872C145.538 122.446 145.472 121.493 145.998 121.086C146.692 120.546 147.425 120.186 148.298 120.073C149.051 119.973 149.845 120.019 150.551 120.293C151.351 120.599 152.031 121.073 152.571 121.739C152.851 122.079 153.104 122.432 153.364 122.779C153.364 122.779 153.364 122.792 153.378 122.792C153.431 122.859 153.478 122.926 153.531 122.986C153.657 123.132 153.791 123.272 153.937 123.399C154.464 123.866 154.384 124.706 153.937 125.185C153.457 125.712 152.651 125.625 152.158 125.185C151.631 124.712 151.211 124.112 150.798 123.539C150.798 123.526 150.784 123.526 150.784 123.526C150.731 123.459 150.678 123.399 150.631 123.332C150.531 123.226 150.431 123.119 150.325 123.019C150.325 123.019 150.271 122.972 150.231 122.939C150.198 122.919 150.178 122.899 150.158 122.886C150.051 122.819 149.938 122.766 149.825 122.699C149.758 122.679 149.698 122.659 149.638 122.639C149.518 122.606 149.391 122.579 149.271 122.552L149.071 122.539C148.945 122.539 148.818 122.539 148.691 122.552H148.711Z" fill="white"/>
<path d="M153.865 20.3174C153.865 20.3174 153.851 20.3441 153.838 20.3507C153.838 20.3374 153.851 20.324 153.865 20.3174Z" fill="white"/>
<path d="M153.838 20.3506L153.824 20.3639C153.824 20.3639 153.824 20.3639 153.838 20.3506Z" fill="white"/>
<path d="M112.149 97.349C112.242 97.4023 112.336 97.4623 112.429 97.5089C112.442 97.5223 112.442 97.5222 112.456 97.5289C112.469 97.5289 112.482 97.5289 112.509 97.5423C112.622 97.5689 112.736 97.6089 112.849 97.6356C112.889 97.6356 112.916 97.6489 112.936 97.6556C112.949 97.6556 112.956 97.6556 112.976 97.6556C113.082 97.6556 113.182 97.6689 113.289 97.6689C113.329 97.6689 113.529 97.6422 113.576 97.6422C113.756 97.5956 113.942 97.5422 114.129 97.4956C114.129 97.4956 114.133 97.4956 114.142 97.4956L114.262 97.4356C114.362 97.3823 114.455 97.3356 114.549 97.2823C114.582 97.2623 114.789 97.109 114.809 97.109C114.869 97.0556 114.922 97.009 114.982 96.9557C115.169 96.7823 115.342 96.589 115.509 96.4024C115.522 96.3824 115.535 96.369 115.542 96.3624C115.555 96.349 115.562 96.329 115.575 96.309C115.642 96.2024 115.709 96.1024 115.775 96.0024C114.442 95.3158 113.082 94.6959 111.689 94.1293L111.676 94.1426C111.676 94.1426 111.529 94.3626 111.503 94.4026C111.489 94.4159 111.436 94.5426 111.409 94.5826C111.376 94.6759 111.343 94.7626 111.323 94.8626C111.309 94.8959 111.276 95.1159 111.269 95.1359C111.256 95.2359 111.256 95.3425 111.256 95.4425C111.256 95.4825 111.296 95.7958 111.289 95.7958C111.309 95.9024 111.329 96.0024 111.362 96.1091C111.376 96.1424 111.469 96.4224 111.469 96.449C111.516 96.5424 111.562 96.649 111.616 96.7423C111.656 96.8157 111.696 96.8823 111.742 96.9557C111.776 96.9956 111.796 97.029 111.802 97.049V97.0623C111.802 97.0623 111.816 97.089 111.829 97.0957C111.882 97.1623 111.942 97.2156 112.002 97.2689C112.036 97.3023 112.129 97.3623 112.156 97.3823C112.156 97.3823 112.142 97.3823 112.136 97.3823L112.149 97.349ZM128.194 99.622C129.827 99.602 129.82 102.128 128.194 102.148C125.994 102.175 124.128 101.155 122.348 99.9886C120.382 101.242 118.348 102.422 116.115 103.128C114.169 103.742 112.089 103.922 110.089 103.468C108.23 103.055 106.55 102.095 105.09 100.902C101.997 98.3555 100.29 94.5693 99.0506 90.843C97.1308 90.6031 95.1978 90.4764 93.258 90.4698C91.6249 90.4698 91.6315 87.9434 93.258 87.9434C96.071 87.9567 98.8773 88.2033 101.657 88.6633C106.55 89.4765 111.323 91.0097 115.795 93.1628C117.995 94.2226 120.128 95.4358 122.148 96.809C123.961 98.0355 125.887 99.6487 128.194 99.622ZM104.17 93.4094C104.17 93.4094 104.183 93.3761 104.183 93.3694L104.137 93.3561C104.137 93.3561 104.157 93.3894 104.17 93.4094Z" fill="white"/>
<path d="M93.2582 90.1709C95.198 90.1776 97.131 90.3042 99.0575 90.5442C100.291 94.2704 101.997 98.0567 105.097 100.603C106.557 101.803 108.243 102.763 110.096 103.176C112.096 103.623 114.176 103.449 116.122 102.829C118.355 102.123 120.395 100.943 122.355 99.6898C124.128 100.856 126.001 101.876 128.201 101.85C129.821 101.83 129.827 99.3098 128.201 99.3232C125.894 99.3498 123.968 97.7434 122.148 96.5102C120.122 95.137 117.995 93.9171 115.796 92.8573C111.323 90.7042 106.557 89.171 101.657 88.3578C98.8775 87.8978 96.0712 87.6512 93.2582 87.6445C91.6317 87.6445 91.6317 90.1643 93.2582 90.1709ZM115.782 95.6836C115.716 95.7903 115.649 95.8902 115.582 95.9902C115.569 96.0169 115.556 96.0302 115.549 96.0436C115.536 96.0569 115.529 96.0636 115.509 96.0836C115.342 96.2769 115.176 96.4635 114.982 96.6368C114.922 96.6902 114.862 96.7368 114.802 96.7902C114.789 96.7902 114.576 96.9435 114.542 96.9635C114.449 97.0235 114.356 97.0768 114.256 97.1234C114.216 97.1434 114.176 97.1635 114.129 97.1835C114.129 97.1835 114.129 97.1835 114.116 97.1835C113.929 97.2301 113.749 97.2834 113.569 97.3301C113.522 97.3301 113.329 97.3567 113.282 97.3567C113.176 97.3567 113.076 97.3501 112.969 97.3501C112.949 97.3501 112.943 97.3501 112.929 97.3501C112.909 97.3501 112.883 97.3368 112.843 97.3301C112.723 97.3034 112.609 97.2634 112.496 97.2368C112.476 97.2368 112.463 97.2301 112.449 97.2235C112.443 97.2235 112.436 97.2168 112.423 97.2101C112.303 97.1434 112.189 97.0701 112.069 97.0035C112.289 97.1235 112.069 97.0034 112.009 96.9435C111.949 96.8835 111.896 96.8302 111.836 96.7635C111.749 96.6568 111.729 96.6368 111.783 96.6968C111.836 96.7568 111.816 96.7302 111.743 96.6235C111.696 96.5568 111.656 96.4835 111.616 96.4102C111.563 96.3169 111.516 96.2169 111.469 96.1169C111.469 96.0969 111.369 95.8169 111.363 95.7836C111.336 95.6769 111.309 95.5703 111.289 95.4636C111.303 95.517 111.263 95.1637 111.256 95.117C111.256 95.017 111.256 94.9103 111.269 94.8104C111.276 94.7904 111.309 94.5771 111.316 94.5371C111.343 94.4438 111.376 94.3504 111.409 94.2571C111.429 94.2171 111.489 94.0971 111.496 94.0771C111.516 94.0371 111.683 93.8172 111.669 93.8238L111.683 93.8105C113.069 94.3704 114.436 94.997 115.769 95.677L115.782 95.6836ZM104.19 93.0706C104.19 93.0706 104.177 93.0972 104.17 93.1106C104.164 93.0906 104.15 93.0773 104.144 93.0573C104.157 93.0573 104.177 93.0639 104.19 93.0706Z" fill="white"/>
<mask id="mask0_8378_53312" style="mask-type:luminance" maskUnits="userSpaceOnUse" x="92" y="87" width="38" height="17">
<path d="M93.2579 90.1748C95.1977 90.1815 97.1308 90.3082 99.0572 90.5481C100.29 94.2744 101.997 98.0606 105.097 100.607C106.556 101.807 108.243 102.767 110.096 103.18C112.096 103.627 114.175 103.453 116.122 102.833C118.355 102.127 120.395 100.947 122.354 99.6937C124.128 100.86 126.001 101.88 128.2 101.853C129.82 101.833 129.827 99.3138 128.2 99.3271C125.894 99.3538 123.968 97.7473 122.148 96.5141C120.121 95.1409 117.995 93.921 115.795 92.8612C111.322 90.7081 106.556 89.1749 101.657 88.3617C98.8773 87.9017 96.0709 87.6551 93.2579 87.6484C91.6315 87.6484 91.6315 90.1682 93.2579 90.1748ZM115.782 95.6875C115.715 95.7942 115.649 95.8942 115.582 95.9941C115.569 96.0208 115.555 96.0341 115.549 96.0475C115.535 96.0608 115.529 96.0675 115.509 96.0875C115.342 96.2808 115.175 96.4674 114.982 96.6408C114.922 96.6941 114.862 96.7407 114.802 96.7941C114.789 96.7941 114.575 96.9474 114.542 96.9674C114.449 97.0274 114.355 97.0807 114.255 97.1274C114.215 97.1473 114.175 97.1674 114.129 97.1874C114.129 97.1874 114.129 97.1874 114.115 97.1874C113.929 97.234 113.749 97.2873 113.569 97.334C113.522 97.334 113.329 97.3606 113.282 97.3606C113.176 97.3606 113.076 97.354 112.969 97.354C112.949 97.354 112.942 97.354 112.929 97.354C112.909 97.354 112.882 97.3407 112.842 97.334C112.722 97.3073 112.609 97.2673 112.496 97.2407C112.476 97.2407 112.462 97.234 112.449 97.2274C112.442 97.2274 112.436 97.2207 112.422 97.214C112.302 97.1474 112.189 97.074 112.069 97.0074C112.289 97.1274 112.069 97.0074 112.009 96.9474C111.949 96.8874 111.896 96.8341 111.836 96.7674C111.749 96.6608 111.729 96.6407 111.782 96.7007C111.836 96.7607 111.816 96.7341 111.742 96.6274C111.696 96.5608 111.656 96.4874 111.616 96.4141C111.562 96.3208 111.516 96.2208 111.469 96.1208C111.469 96.1008 111.369 95.8208 111.362 95.7875C111.336 95.6808 111.309 95.5742 111.289 95.4676C111.302 95.5209 111.263 95.1676 111.256 95.1209C111.256 95.0209 111.256 94.9143 111.269 94.8143C111.276 94.7943 111.309 94.581 111.316 94.541C111.342 94.4477 111.376 94.3544 111.409 94.261C111.429 94.221 111.489 94.101 111.496 94.081C111.516 94.041 111.682 93.8211 111.669 93.8277L111.682 93.8144C113.069 94.3743 114.435 95.0009 115.769 95.6809L115.782 95.6875ZM104.19 93.0745C104.19 93.0745 104.177 93.1011 104.17 93.1145C104.163 93.0945 104.15 93.0812 104.143 93.0612C104.157 93.0612 104.177 93.0678 104.19 93.0745Z" fill="white"/>
</mask>
<g mask="url(#mask0_8378_53312)">
<path d="M101.744 91.2061C101.744 91.2061 108.85 92.6059 111.683 93.8324C114.516 95.0589 115.782 95.6856 115.782 95.6856L120.615 98.2919C120.615 98.2919 115.469 103.998 108.863 100.785C102.257 97.572 101.751 91.2061 101.751 91.2061H101.744Z" fill="#252525"/>
</g>
<path d="M111.703 93.5625L115.782 95.6756C115.782 95.6756 114.642 98.0753 112.436 97.2088C110.23 96.3422 111.709 93.5625 111.709 93.5625H111.703Z" fill="#F9F8F4"/>
<path d="M185.241 0H16.3805C7.80155 0 0.815674 6.97921 0.815674 15.5649V184.425C0.815674 193.011 7.80155 199.99 16.3805 199.99H29.459C29.5723 200.003 29.679 200.003 29.7856 199.99H185.241C193.827 199.99 200.806 193.011 200.806 184.425V15.5649C200.806 6.97921 193.827 0 185.241 0ZM28.1592 113.653C30.6122 112.973 33.0652 112.294 35.5183 111.614C35.2716 112.474 35.0317 113.347 34.7984 114.22C34.1251 116.806 33.5385 119.419 33.0053 122.046C31.1255 119.413 29.499 116.6 28.1525 113.66L28.1592 113.653ZM69.8743 179.046C69.9543 178.939 70.0209 178.826 70.0676 178.679C70.0209 178.819 69.9476 178.939 69.8743 179.046ZM81.8129 158.062C79.1399 160.721 77.2801 164.101 76.4402 167.78C75.627 171.36 76.5402 175.633 74.2204 178.746C73.7938 179.319 73.1472 179.539 72.494 179.199C69.5743 177.679 66.6813 176.119 63.8083 174.52C53.6762 168.86 43.844 162.661 34.3584 155.968C33.7985 155.575 33.5385 154.875 33.9052 154.242C34.2251 153.689 35.0717 153.395 35.6316 153.789C38.318 155.682 41.031 157.542 43.7707 159.361C53.0963 165.541 62.7351 171.233 72.6406 176.433C73.2139 175.153 73.3272 173.72 73.4005 172.3C73.5005 170.347 73.6538 168.42 74.1471 166.521C75.147 162.661 77.2001 159.095 80.0198 156.288C81.173 155.142 82.9594 156.928 81.8062 158.075L81.8129 158.062ZM120.648 153.469C118.682 158.581 119.009 164.261 119.455 169.607C119.995 175.999 120.015 182.445 120.215 188.858C120.295 191.518 120.348 194.184 120.528 196.85C119.982 196.857 119.435 196.87 118.895 196.884C116.589 196.917 114.289 196.93 111.989 196.944C110.496 196.957 109.003 196.957 107.503 196.964C108.097 193.437 108.503 189.884 108.696 186.312C108.79 184.532 108.856 182.745 108.83 180.966C108.803 179.379 108.47 177.819 107.303 176.659C105.283 174.646 102.284 174.653 99.6441 174.453C98.4109 174.36 97.0311 174.18 96.0312 173.386C95.018 172.58 94.6581 171.213 94.3981 170C93.6582 166.521 93.1515 162.974 92.5383 159.468C92.2183 157.662 91.9051 155.848 91.5851 154.035C91.3651 152.802 91.0118 151.529 90.2852 150.482C89.5386 149.409 88.4054 148.609 87.0389 148.743C86.8256 148.763 86.6257 148.803 86.4257 148.856C76.4935 147.943 66.5613 145.743 57.4557 141.59C49.07 137.771 41.4443 132.318 35.485 125.252C35.3316 125.072 35.185 124.885 35.0384 124.699C36.0982 119.139 37.3714 113.6 39.2045 108.247C40.6377 104.055 42.4375 99.9483 44.9905 96.3021C46.0971 94.7356 47.4169 93.2225 48.9101 91.8893C52.4163 93.6024 55.8892 95.5288 58.7889 98.1019C60.5953 99.715 62.2485 101.655 62.9617 104.008C63.6283 106.221 63.3417 108.587 62.2152 110.6C60.9553 112.84 58.8355 114.4 56.2825 114.787C53.7695 115.167 51.0698 114.393 49.1967 112.674C49.0034 112.494 48.7968 112.4 48.5835 112.36C47.6569 111.794 46.1837 112.887 46.8437 114.093C50.5699 120.959 55.9959 126.812 62.4085 131.245C68.7678 135.651 76.1669 138.657 83.8193 139.81C88.0455 140.444 92.2317 140.464 96.4845 140.09C101.397 139.664 106.25 139.157 111.169 139.77C115.729 140.344 120.195 141.71 124.315 143.737C125.254 144.197 126.174 144.683 127.101 145.183C124.101 147.083 121.935 150.116 120.642 153.469H120.648ZM114.802 137.831C110.116 136.877 105.403 136.784 100.651 137.191C96.2379 137.571 91.8651 138.051 87.4389 137.704C79.9731 137.111 72.6939 134.631 66.3014 130.758C60.442 127.212 55.3027 122.446 51.4431 116.786C55.0761 117.973 59.2488 117.32 62.1951 114.653C64.1349 112.9 65.3948 110.414 65.7414 107.827C66.1147 105.094 65.3681 102.388 63.8816 100.088C60.9553 95.5755 55.9359 92.6559 51.2632 90.2495C46.717 87.9097 41.9642 86.0033 37.4047 83.6836C32.9253 81.4105 28.5458 78.6708 25.2928 74.8046C30.7589 74.7646 36.1382 76.0845 41.6042 76.2511C46.897 76.4178 52.3497 75.4179 56.4426 71.8316C58.2157 70.2851 59.5888 68.332 60.5353 66.1856C61.1286 67.3188 61.6619 68.4653 62.1218 69.6519C62.3751 70.2851 62.9684 70.7251 63.675 70.5318C63.8084 70.4984 63.9416 70.4251 64.0616 70.3385C66.228 70.7051 68.4878 70.3184 70.5542 69.6452C72.5606 68.9919 74.4737 68.0387 76.1935 66.8122C79.7064 64.3125 82.4395 60.8862 84.0927 56.9134C84.9992 54.7336 85.5125 52.4139 85.6391 50.0608C96.9111 49.3076 106.817 55.9135 115.856 61.7928C120.708 64.9524 125.614 67.8987 130.927 70.2318C136.093 72.5049 141.446 74.4646 147.032 75.3979C150.825 76.0311 154.658 76.1645 158.444 75.7512C158.504 75.7512 158.571 75.7645 158.637 75.7512C159.264 75.6778 159.884 75.5779 160.497 75.4712C161.477 75.3112 162.457 75.1112 163.43 74.8779C163.697 77.011 163.97 79.1508 164.103 81.2972C164.283 84.1835 164.29 87.0832 164.197 89.9695C163.61 89.2029 163.023 88.4297 162.437 87.6564C162.023 87.1165 161.344 86.8365 160.71 87.2098C160.177 87.5231 159.844 88.3897 160.257 88.9363C161.937 91.136 163.617 93.3358 165.296 95.5355C166.883 97.6153 168.396 99.7884 170.109 101.761C171.736 103.621 173.715 104.688 176.029 105.454C177.928 106.088 180.008 106.568 181.501 107.987C182.754 109.174 183.548 110.794 183.801 112.487C184.081 114.42 183.541 116.1 182.561 117.746C181.921 118.819 181.321 119.906 181.075 121.146C180.821 122.386 180.821 123.632 180.975 124.879C181.275 127.305 182.035 129.652 182.314 132.085C182.921 137.424 181.988 142.897 179.555 147.696C165.63 147.683 151.845 143.963 139.553 137.464C136.447 135.818 133.42 133.998 130.514 132.018C127.688 130.098 124.954 128.038 122.108 126.152C119.228 124.252 116.236 122.532 112.996 121.319C109.863 120.146 106.577 119.653 103.237 119.486C96.5112 119.146 88.8854 120.179 83.0861 115.986C82.5328 115.587 81.6795 115.893 81.3596 116.44C80.9863 117.073 81.2596 117.766 81.8129 118.166C87.1856 122.052 94.1048 121.792 100.424 121.919C103.584 121.979 106.763 122.119 109.83 122.946C113.123 123.832 116.156 125.392 119.042 127.179C121.942 128.985 124.695 131.018 127.488 132.984C130.407 135.031 133.414 136.964 136.533 138.697C142.779 142.17 149.432 144.956 156.311 146.916C158.111 147.429 159.917 147.883 161.744 148.276C159.051 149.349 156.104 149.596 153.178 149.536C151.118 149.489 149.065 149.296 147.019 149.069C144.672 148.809 142.319 148.556 140.013 148.036C136.893 147.329 134.047 145.996 131.247 144.536C131.007 144.057 130.447 143.723 129.921 143.83C129.167 143.43 128.421 143.023 127.668 142.623C123.588 140.464 119.322 138.75 114.789 137.831H114.802ZM58.7222 51.194C59.2355 51.7073 59.9821 51.634 60.5087 51.194C63.0684 49.0343 65.0482 46.2079 66.2547 43.0883C69.0344 43.7882 71.7607 44.7081 74.3871 45.8413C74.6337 45.948 74.8803 46.068 75.127 46.1813C73.8205 50.0875 71.6141 53.6271 68.6745 56.5201C67.5146 57.66 69.301 59.4464 70.4609 58.3065C73.6005 55.2269 75.9803 51.434 77.4268 47.2878C79.3732 48.281 81.2596 49.3743 83.0728 50.5941C82.4728 57.6933 77.4867 64.3392 70.8275 66.8922C68.7144 67.7055 66.3014 68.3054 64.055 67.7588C60.2421 58.9798 53.5296 51.9473 46.1904 45.9347C44.7773 44.7815 43.3307 43.6616 41.8776 42.555C49.0634 41.0552 56.5692 41.0685 63.7684 42.5284C62.6752 45.1814 60.9553 47.5345 58.7356 49.4142C58.2156 49.8542 58.2823 50.7474 58.7356 51.2007L58.7222 51.194ZM198.279 184.425C198.279 191.624 192.44 197.464 185.241 197.464H136.307C137.96 194.671 139.5 191.804 140.919 188.885C142.253 186.132 143.806 183.092 143.079 179.946C142.799 178.719 142.146 177.513 141.193 176.679C140.706 176.253 140.166 175.939 139.559 175.713C138.88 175.473 138.16 175.453 137.46 175.286C136.62 175.086 136.393 174.553 136.407 173.853C136.147 173.626 135.973 173.326 135.973 172.933C135.953 168.667 137.06 164.454 139.16 160.741C139.959 159.328 142.139 160.601 141.339 162.014C139.973 164.427 139.093 167.054 138.713 169.78C142.619 170.113 146.519 170.447 150.432 170.787C151.485 170.88 152.731 171.173 153.538 170.28C154.358 169.38 153.884 168.127 153.151 167.347C152.411 166.567 151.525 165.881 150.725 165.154C149.898 164.407 149.072 163.661 148.238 162.914C146.339 161.201 134.08 149.689 129.521 146.69C129.594 146.656 129.674 146.616 129.754 146.583C131.987 147.769 134.24 148.896 136.64 149.709C139.02 150.509 141.493 150.916 143.966 151.236C146.179 151.516 148.398 151.762 150.618 151.929C154.811 152.236 159.184 152.142 163.11 150.462C164.03 150.069 164.897 149.603 165.716 149.036C170.463 149.836 175.275 150.249 180.088 150.222C180.621 150.222 180.975 149.943 181.155 149.569C181.375 149.476 181.575 149.303 181.715 149.016C183.988 144.543 185.154 139.53 185.014 134.504C184.941 131.911 184.421 129.418 183.881 126.892C183.394 124.625 183.001 122.199 184.141 120.066C184.714 118.986 185.401 118 185.834 116.846C186.194 115.9 186.361 114.867 186.394 113.853C186.454 111.854 185.887 109.794 184.828 108.107C183.641 106.214 181.941 104.961 179.895 104.121C177.835 103.281 175.555 102.908 173.682 101.648C172.622 100.935 171.782 99.895 171.009 98.8951C169.896 97.4619 168.809 96.0088 167.703 94.569C167.403 93.6357 166.976 92.3092 166.67 91.3693C166.81 88.0164 166.836 84.6568 166.623 81.3039C166.47 78.9708 166.17 76.6577 165.876 74.338C165.876 74.2913 165.863 74.2447 165.85 74.2047C165.876 74.2047 165.903 74.1914 165.923 74.1847C166.283 74.0714 166.516 73.8447 166.656 73.5781C168.296 72.8515 169.876 71.9649 171.376 70.8984C173.082 69.6852 174.682 68.332 176.235 66.9388C177.948 65.3924 179.661 63.8459 181.155 62.0728C184.374 58.2532 186.754 53.8337 188.54 49.1809C190.507 44.0482 191.92 38.5422 191.167 33.0228C190.494 28.1234 188.474 23.4106 185.254 19.6444C182.175 16.0381 177.982 13.0985 173.362 11.8853C166.616 10.1055 159.33 12.1986 154.031 16.5914C153.158 17.3113 152.365 18.1179 151.691 19.0311C150.245 20.9775 149.518 23.3639 149.292 25.757C149.145 27.2502 149.238 28.73 149.518 30.1631C149.805 31.643 150.578 32.9962 151.738 33.956C153.951 35.7825 156.671 36.829 159.717 36.2491C162.31 35.7558 164.59 33.9427 165.41 31.3897C165.776 30.2432 165.883 28.7566 164.857 27.9101C164.177 27.3501 163.097 27.4768 162.917 28.43C162.79 29.1033 161.984 29.4832 161.364 29.3099C160.67 29.1166 160.357 28.4234 160.484 27.7568C160.87 25.757 163.15 24.6105 165.03 25.1837C167.076 25.8037 168.236 27.9234 168.203 29.9765C168.136 33.6494 165.33 36.9024 162.023 38.2089C158.664 39.5354 154.651 38.8688 151.631 37.0024C148.585 35.1226 146.545 32.4029 145.105 29.3232C144.579 28.2034 143.932 27.1435 143.119 26.2103C143.032 26.1103 142.952 26.017 142.866 25.917C134.34 16.2848 123.388 8.34568 110.903 4.81942C106.717 3.63956 102.397 2.97967 98.071 2.97967C96.2512 2.97967 94.4248 3.09298 92.5983 3.33962C86.4124 4.15952 80.4464 6.25259 75.0603 9.40556C69.5676 12.6185 64.6816 16.9047 60.7554 21.9108C57.4424 26.1369 54.1228 31.3563 55.756 36.9423C55.9693 37.6623 56.2425 38.3488 56.5625 39.0288C54.0561 38.8621 51.5364 38.8488 49.03 39.0155C45.7104 39.2421 42.4108 39.7553 39.1779 40.5686C38.6446 40.3686 37.9514 40.6686 37.6714 41.1419C37.4181 41.5752 37.4714 42.0218 37.698 42.3951C37.838 42.7817 38.1446 43.095 38.5579 43.1883C45.9771 48.7077 53.3429 54.7736 58.429 62.586C58.649 62.9193 58.8422 63.2526 59.0489 63.5926C58.8489 63.7526 58.6956 63.9726 58.609 64.2259C57.0892 68.5787 53.4495 71.7516 49.05 72.9715C43.9973 74.378 38.6713 73.5848 33.5652 72.9248C30.3056 72.5049 27.0326 72.1316 23.7397 72.3249C23.0798 72.3649 22.6931 72.8115 22.5665 73.3114C22.0932 73.6714 21.8266 74.4513 22.2132 74.9646C28.1392 82.937 37.5447 86.5299 46.237 90.6027C46.3104 90.6361 46.3837 90.6761 46.457 90.7028C43.8173 93.2558 41.7309 96.3621 40.0711 99.6217C38.5646 102.581 37.3581 105.681 36.3449 108.841C36.0182 108.814 35.6116 108.881 35.1783 109.374C32.9452 111.947 29.499 112.98 26.2194 112.06C24.9728 111.714 24.3129 112.014 24.0196 112.507C18.3536 115.627 14.2008 121.373 13.0809 127.752C13.0343 128.018 13.0542 128.292 13.1409 128.532C12.9476 128.832 12.8809 129.205 12.9476 129.585C13.9342 134.744 17.2738 139.004 20.7067 142.817C23.3131 145.71 25.9728 148.563 28.6658 151.389C27.8925 159.068 27.3992 166.774 27.2326 174.493C27.1059 180.399 27.146 186.325 27.5859 192.224C27.7192 193.977 27.8859 195.724 28.1258 197.457H16.3539C9.14803 197.457 3.31538 191.618 3.31538 184.418V15.5582C3.31538 8.35904 9.1547 2.51973 16.3539 2.51973H185.214C192.413 2.51973 198.253 8.35904 198.253 15.5582V184.425H198.279ZM151.411 169.18C151.445 169.287 151.571 169.3 151.411 169.18V169.18Z" fill="#F9F8F4"/>
</svg>
