<svg width="201" height="200" viewBox="0 0 201 200" fill="none" xmlns="http://www.w3.org/2000/svg">
<path d="M182.777 2.99707H18.4757C10.0097 2.99707 3.14673 9.86006 3.14673 18.326V182.628C3.14673 191.094 10.0097 197.957 18.4757 197.957H182.777C191.243 197.957 198.106 191.094 198.106 182.628V18.326C198.106 9.86006 191.243 2.99707 182.777 2.99707Z" fill="#252525"/>
<path d="M24.3203 57.9108C24.3203 57.9108 24.1058 57.9644 24.0656 57.9778C23.9181 58.0247 23.9315 58.0114 23.7706 58.1119C23.6433 58.1923 23.3886 58.4604 23.2412 58.695C22.4167 60.049 22.5977 62.0397 22.6982 63.5612C22.8054 65.143 23.1004 66.7047 23.5427 68.2329C24.4342 71.3161 25.9624 74.2518 27.9665 76.7519C30.0175 79.3123 32.5109 81.484 35.3729 83.0792C36.7671 83.8567 38.2216 84.48 39.7498 84.9492C41.3718 85.4385 43.4362 85.4855 44.6963 86.7523C46.1173 88.1732 45.7151 90.1706 44.5019 91.558C43.2083 93.0393 41.3316 93.6761 39.4816 94.0983C35.2389 95.0568 30.7213 94.896 26.5723 93.5622C22.7787 92.3423 19.3737 90.2175 15.6873 88.7362C14.7556 88.3609 13.8038 88.0325 12.8319 87.7644C12.0276 87.5499 11.0691 87.2616 10.2313 87.4694C8.89079 87.7911 8.95779 89.6075 9.11865 90.7269C10.057 97.2217 14.1323 103.274 19.2263 107.269C21.7934 109.287 24.7559 110.842 27.8927 111.773C31.9277 112.966 36.1973 113.027 40.2658 114.092C42.109 114.575 44.2874 115.225 45.2057 117.062C46.0435 118.731 45.7151 120.842 44.6426 122.323C43.4563 123.952 41.6265 124.85 39.7565 125.46C37.7055 126.137 35.574 126.606 33.4358 126.921C31.2575 127.243 29.0724 127.424 26.8739 127.41C24.8028 127.397 22.7787 127.156 20.7277 126.941C19.3603 126.8 17.6713 126.626 16.4447 127.323C15.1645 128.054 15.1041 129.495 15.5733 130.768C16.1765 132.404 17.4836 133.671 18.804 134.75C20.225 135.923 21.8403 136.868 23.5026 137.652C27.0349 139.334 30.929 140.246 34.7697 140.869C43.4027 142.27 52.3306 141.774 60.7692 139.529C61.1245 139.435 61.4193 139.489 61.6673 139.623C61.855 139.676 62.0226 139.777 62.1499 139.931C62.6928 140.608 63.2827 141.251 63.9328 141.834C66.5067 144.194 69.791 145.655 73.0954 146.674C76.7751 147.807 80.5956 148.504 84.4027 149.053C92.4124 150.22 100.583 150.387 108.646 149.656C116.676 148.933 124.625 147.257 132.273 144.71C136.107 143.43 139.86 141.942 143.5 140.213C146.992 138.564 150.464 136.734 153.527 134.361C156.523 132.049 159.057 129.193 160.625 125.728C162.086 122.491 162.535 118.777 161.476 115.359C161.476 115.346 161.476 115.346 161.476 115.332C159.016 116.941 156.322 118.181 153.594 119.267C149.03 121.083 144.324 122.578 139.579 123.825C129.806 126.378 119.752 127.826 109.672 128.409C99.4501 129.012 89.0007 128.992 78.9669 126.747C77.3851 126.392 78.0553 123.959 79.6372 124.314C82.0367 124.85 84.4563 125.266 86.9028 125.547C96.8495 126.707 107.071 126.311 117.011 125.299C126.783 124.3 136.476 122.39 145.826 119.367C150.028 118.007 154.278 116.539 158.158 114.394C161.624 112.484 164.774 109.917 166.55 106.304C168.46 102.41 168.581 97.7513 167.971 93.5286C167.422 89.7081 166.208 85.9814 164.466 82.543C160.933 75.5655 155.404 69.6673 148.942 65.3172C145.993 63.3333 142.856 61.6911 139.592 60.3237C139.438 60.2902 139.297 60.2299 139.177 60.1495C134.351 58.1722 129.27 56.7914 124.143 55.8866C115 54.2646 105.536 54.0031 96.2798 54.5259C87.258 55.042 78.2028 56.7848 70.5015 61.7246C66.8887 64.0438 63.5642 66.8052 59.7638 68.8227C55.9969 70.8201 51.8346 71.8992 47.5516 71.4635C39.113 70.5989 31.7669 65.1899 26.2506 59.01C25.7747 58.9363 25.4061 58.5677 25.2184 58.0985C25.205 58.0985 25.0643 57.9912 25.0643 57.9845C24.7492 57.8572 24.6487 57.8505 24.3203 57.8907V57.9108ZM200.62 15.5636V184.436C200.62 193.023 193.642 200 185.056 200H52.8332C52.8332 200 52.7863 200 52.7796 200C52.7796 200 52.7841 200 52.7931 200H16.19C7.60389 200 0.626465 193.023 0.626465 184.436V15.5636C0.626465 6.97751 7.60389 0 16.19 0H185.063C193.649 0 200.626 6.97751 200.626 15.5636H200.62ZM198.093 184.436V15.5636C198.093 8.37166 192.241 2.5202 185.049 2.5202H16.1765C8.98462 2.5202 3.13324 8.37166 3.13324 15.5636V184.436C3.13324 191.628 8.98462 197.48 16.1765 197.48H52.0088C52.3909 194.242 52.8802 191.005 53.6644 187.828C54.3682 185.013 55.2261 182.238 56.0037 179.443C57.056 175.636 58.0345 171.829 59.3817 168.116C61.9488 161.018 65.461 154.268 70.1998 148.37C66.5938 147.022 63.2626 145.092 60.7424 142.15C58.8254 142.639 56.8883 143.048 54.9312 143.356C46.0904 144.743 36.8274 144.449 28.1877 142.049C24.3203 140.977 20.5936 139.361 17.4165 136.868C14.6483 134.696 11.4043 130.795 13.3078 127.082C15.1242 123.536 19.6552 124.354 22.8792 124.682C27.3029 125.145 31.7937 124.877 36.1236 123.858C37.9936 123.416 40.1385 122.96 41.7069 121.774C42.7391 120.989 43.7445 119.273 42.8598 118.027C42.3839 117.357 41.4589 117.088 40.7216 116.854C39.6492 116.519 38.5432 116.264 37.444 116.056C35.2656 115.641 33.0538 115.413 30.8621 115.031C23.6701 113.791 17.1618 109.97 12.6174 104.239C10.4055 101.438 8.66291 98.3076 7.56368 94.9093C6.6119 91.9803 5.26463 86.7925 9.03152 85.224C10.9552 84.4197 13.2877 85.1906 15.151 85.8474C17.1216 86.5378 19.0185 87.4494 20.8952 88.3676C24.709 90.231 28.5094 91.9334 32.8192 92.1613C34.9908 92.2752 37.1625 92.0808 39.2671 91.558C40.6009 91.2296 42.6453 90.6063 43.0809 89.1585C43.1346 88.9641 43.1748 88.8703 42.9938 88.6156C42.8531 88.4279 42.6386 88.3207 42.4174 88.2268C41.6131 87.8984 40.6948 87.818 39.8569 87.5968C38.1679 87.1544 36.5258 86.511 34.9641 85.7267C28.7239 82.5698 23.8645 76.8391 21.5454 70.2705C20.3791 66.9728 19.7558 63.1992 20.2853 59.7139C20.5601 57.884 21.5655 56.0475 23.4623 55.5247C24.6889 55.1896 25.9221 55.4509 26.7801 56.2284C27.0214 56.2619 27.2627 56.3826 27.4839 56.6239C28.8982 58.2526 30.4063 59.8009 32.0216 61.2286C38.2819 66.7784 46.8277 70.9542 55.2462 68.0787C59.3349 66.6846 62.8403 63.9633 66.3324 61.5101C67.7667 60.5047 69.2212 59.5597 70.7092 58.7017C68.7922 55.2298 66.8753 51.7578 64.9584 48.2925C64.5629 47.5686 64.9181 46.6705 65.7091 46.4426C69.5631 45.3032 73.4238 44.1637 77.2912 43.0779C77.251 43.0041 77.2242 42.9237 77.2108 42.8299C76.259 37.1259 76.7483 31.2343 78.6518 25.7717C80.3342 20.9391 83.0555 16.3277 86.7553 12.7686C88.7326 10.8583 91.0785 9.491 93.84 9.19608C96.4406 8.92127 99.0412 9.69205 101.347 10.8449C106.099 13.231 109.96 17.3733 113.304 21.4217C116.83 25.6913 119.853 30.3629 122.259 35.3497C122.259 35.3631 122.259 35.3631 122.273 35.3698C124.089 35.3564 125.905 35.3967 127.722 35.4905C128.975 35.5508 130.423 35.4905 131.616 35.9328C133.017 36.4556 133.546 37.642 133.681 39.0496C134.163 44.3648 133.171 49.9146 131.167 54.8544C132.239 55.1292 133.305 55.4376 134.364 55.766C136.315 56.3692 138.232 57.0596 140.108 57.8371C141.925 57.7365 143.748 57.2539 145.491 56.6373C147.361 55.9737 149.217 55.0823 150.806 53.8758C152.267 52.7632 153.373 51.2417 154.318 49.6867C155.451 47.8367 156.335 45.8527 157.066 43.8218C157.401 42.8902 157.602 41.6838 158.299 40.9465C159.278 39.9143 160.612 40.2628 161.57 41.1073C163.152 42.4948 164.218 44.4117 164.955 46.3689C166.47 50.3905 166.651 54.9415 166.041 59.1642C165.471 63.112 164.043 66.9392 161.905 70.2973C162.817 70.3241 163.722 70.2638 164.62 70.0895C169.104 69.1981 172.851 66.2154 175.525 62.6026C176.919 60.7192 178.092 58.6749 179.131 56.5837C180.056 54.7338 181.155 52.6091 183.126 51.6707C184.171 51.168 185.311 51.1211 186.357 51.6573C187.342 52.16 187.938 53.1185 188.361 54.1037C189.332 56.3759 189.956 58.7955 190.291 61.2353C190.968 66.1617 190.465 71.2691 188.669 75.9141C187.094 79.996 184.627 83.716 181.464 86.7388C179.895 88.2402 178.146 89.5875 176.282 90.7135C175.378 91.2565 174.432 91.7323 173.487 92.1948C172.991 92.4361 171.711 93.0192 171.731 93.6359C171.731 93.7364 171.986 93.9844 172.18 94.105C172.596 94.3799 173.072 94.5206 173.548 94.668C174.707 95.0166 175.9 95.2043 177.107 95.2713C179.654 95.4053 182.187 95.1171 184.721 94.9093C186.96 94.7216 190.043 94.1453 191.477 96.3772C192.67 98.2272 192.087 100.828 191.135 102.644C189.038 106.646 184.399 108.951 180.344 110.439C175.719 112.142 170.692 112.779 165.786 112.309C165.652 112.296 165.531 112.263 165.411 112.222C165.129 112.504 164.841 112.785 164.539 113.053C164.164 113.389 163.789 113.704 163.393 114.012C163.628 114.153 163.836 114.374 163.936 114.716C164.231 115.654 164.412 116.613 164.526 117.584C164.968 121.479 163.842 125.48 161.899 128.838C159.868 132.357 156.858 135.186 153.554 137.498C151.717 138.778 149.773 139.911 147.783 140.943C150.075 144.636 152.213 148.43 154.097 152.351C157.381 159.188 159.848 166.38 161.289 173.826C162.797 181.621 163.293 189.564 163.373 197.487H185.07C192.262 197.487 198.113 191.635 198.113 184.443L198.093 184.436ZM187.623 103.187C188.776 101.954 189.768 100.231 189.574 98.4752C189.473 97.5569 188.944 97.2486 188.066 97.2285C186.873 97.195 185.666 97.329 184.473 97.4295C182.06 97.6306 179.64 97.892 177.207 97.7781C175.116 97.6708 172.549 97.3827 170.746 96.1561C170.84 97.9457 170.786 99.7353 170.545 101.498C170.129 104.554 169.044 107.41 167.328 109.87C167.991 109.903 168.662 109.923 169.325 109.917C173.957 109.856 178.588 108.744 182.717 106.652C184.52 105.741 186.249 104.668 187.63 103.187H187.623ZM187.027 72.7973C188.287 68.3334 188.387 63.5611 187.315 59.0502C187.04 57.8974 186.692 56.7579 186.263 55.6453C186.015 54.9817 185.7 53.9495 184.909 53.7752C184.406 53.6613 183.722 54.1909 183.26 54.6802C182.616 55.3504 182.127 56.1614 181.712 56.9993C179.707 61.0543 177.375 65.0156 173.943 68.0318C170.518 71.0413 166.054 73.052 161.429 72.7973C161.201 72.7839 161.014 72.7169 160.846 72.6231C164.821 77.3283 167.924 82.8044 169.54 88.7563C169.774 89.6344 169.982 90.5258 170.156 91.4307C170.465 91.109 170.82 90.8275 171.175 90.5862C171.999 90.0298 172.945 89.6679 173.809 89.1987C174.721 88.7028 175.605 88.1598 176.457 87.57C178.126 86.4171 179.647 85.0498 181.021 83.5551C183.816 80.4987 185.901 76.7988 187.027 72.804V72.7973ZM163.722 57.3545C164.057 53.5474 163.742 49.2912 161.979 45.8393C161.57 45.035 161.088 44.2642 160.484 43.6007C160.324 43.4264 160.156 43.2588 159.982 43.0913C159.921 43.2521 159.854 43.4063 159.834 43.4666C159.15 45.4841 158.36 47.4748 157.374 49.3649C156.416 51.2015 155.256 52.9844 153.842 54.5059C152.736 55.699 151.335 56.6373 149.914 57.4081C148.125 58.3733 146.181 59.1776 144.17 59.7071C148.808 62.0263 153.132 64.9485 156.945 68.5278C157.663 69.198 158.36 69.8951 159.037 70.6123C158.99 70.3375 159.037 70.0493 159.191 69.8214C161.724 66.1349 163.313 61.8252 163.715 57.3679L163.722 57.3545ZM158.654 197.051C159.378 197.051 160.096 197.037 160.819 197.017C160.766 192.714 160.598 188.418 160.196 184.135C159.512 176.889 158.092 169.724 155.712 162.841C155.082 164.624 154.499 166.413 153.969 168.223C151.241 177.6 149.894 187.339 149.975 197.111C150.149 197.111 150.316 197.111 150.491 197.111C153.212 197.098 155.933 197.084 158.661 197.051H158.654ZM160.022 71.678C160.122 71.792 160.223 71.9127 160.33 72.0333C160.283 71.9261 160.25 71.8187 160.23 71.7048C160.163 71.7048 160.096 71.6915 160.022 71.678ZM154.211 159.623C154.258 159.503 154.318 159.395 154.385 159.295C152.146 153.691 149.318 148.343 146.181 143.188C144.82 146.774 143.493 150.367 142.273 154C137.602 167.861 134.29 182.479 136.033 197.165C136.951 197.165 137.876 197.165 138.795 197.151C141.683 197.138 144.566 197.131 147.454 197.118C147.428 194.356 147.515 191.602 147.716 188.854C148.453 178.853 150.631 168.973 154.217 159.61L154.211 159.623ZM143.574 142.961C143.305 143.088 143.031 143.215 142.763 143.336C138.909 145.052 134.967 146.553 130.939 147.8C122.842 150.313 114.444 151.842 105.985 152.398C97.5667 152.941 89.0878 152.478 80.7766 151.024C79.1746 150.742 77.5392 150.427 75.897 150.045C77.6933 152.505 79.4227 155.005 81.0648 157.566C88.9337 169.771 95.0666 183.096 99.249 196.991C99.2758 197.078 99.2826 197.158 99.296 197.239C102.614 197.239 105.925 197.225 109.236 197.218C114.363 197.205 119.491 197.198 124.619 197.185C127.581 197.185 130.544 197.171 133.506 197.165C133.024 193.076 132.91 188.954 133.131 184.845C133.908 170.361 138.459 156.426 143.58 142.954L143.574 142.961ZM131.227 41.7575C131.241 40.9934 131.214 40.2292 131.167 39.4651C131.147 39.1166 131.187 38.5603 130.852 38.3526C130.537 38.1448 130.007 38.1648 129.646 38.138C128.962 38.0844 128.271 38.0442 127.588 38.0107C126.18 37.937 124.766 37.9034 123.352 37.8967C120.617 37.8833 117.882 37.9839 115.148 38.1716C109.658 38.567 104.216 39.3579 98.8201 40.4102C88.3573 42.4478 78.1089 45.4104 67.8941 48.4333C69.5631 51.4629 71.2387 54.4858 72.9077 57.5154C74.6571 56.6172 76.4735 55.8263 78.3703 55.1762C87.2379 52.1332 96.8763 51.7176 106.173 51.8383C113.713 51.9321 121.307 52.5889 128.68 54.2646C129.766 51.6171 130.537 48.8421 130.926 46.0002C131.12 44.5993 131.214 43.1851 131.221 41.7709L131.227 41.7575ZM119.008 35.4368C119.163 35.4368 119.317 35.4234 119.471 35.4234C117.071 30.6914 114.136 26.2408 110.677 22.2125C107.487 18.506 103.874 14.6788 99.3228 12.6747C97.2986 11.7833 94.9995 11.3476 92.8279 11.9307C90.4753 12.5541 88.6723 14.2901 87.0972 16.0663C80.9308 23.0638 78.109 32.9636 79.6372 42.1596C79.6506 42.2467 79.6572 42.3339 79.6572 42.4143C81.3463 41.9518 83.0354 41.496 84.7244 41.0537C95.9446 38.1447 107.406 35.8591 119.008 35.4368ZM93.6523 197.245C94.6644 197.245 95.6765 197.245 96.6886 197.245C95.5492 193.498 94.269 189.792 92.8547 186.139C87.7741 173.102 80.857 160.776 72.4384 149.603C70.0188 152.539 67.9343 155.742 66.1313 159.087C67.6327 161.741 69.0469 164.436 70.3741 167.184C75.0324 176.782 78.6183 186.89 81.0514 197.285C85.254 197.272 89.4498 197.265 93.6523 197.252V197.245ZM66.7479 197.319C70.6555 197.306 74.5633 197.285 78.4642 197.279C77.861 194.732 77.184 192.198 76.4333 189.685C73.5511 179.999 69.6166 170.656 64.7438 161.808C63.3832 164.637 62.2103 167.546 61.2049 170.522C59.985 174.128 59.0868 177.834 58.0479 181.501C57.3106 184.108 56.513 186.695 55.9031 189.336C55.2797 191.997 54.8709 194.698 54.5491 197.406C55.5881 197.386 56.627 197.386 57.6659 197.373C60.6955 197.346 63.7183 197.332 66.7479 197.319Z" fill="white"/>
<path d="M160.833 197.018C160.109 197.031 159.392 197.044 158.668 197.051C155.94 197.085 153.219 197.098 150.498 197.111C150.323 197.111 150.156 197.111 149.981 197.111C149.908 187.339 151.248 177.6 153.976 168.223C154.506 166.413 155.089 164.617 155.719 162.841C158.098 169.724 159.526 176.89 160.203 184.135C160.605 188.418 160.773 192.721 160.826 197.018H160.833Z" fill="#F9F8F4"/>
<path d="M155.578 77.6911C158.34 79.9096 159.472 84.1189 157.435 87.182C155.511 90.0709 152.032 92.0146 148.52 91.5253C145.088 91.0494 142.193 88.2008 142.119 84.6685C142.059 81.4982 144.09 78.0597 147.093 76.8667C148.192 76.3036 149.412 76.0154 150.632 76.002C150.685 75.9886 150.725 75.9685 150.772 75.9484C151.094 75.8345 151.422 75.8948 151.697 76.0557C153.078 76.2299 154.425 76.7728 155.571 77.6911H155.578ZM154.13 80.3386C154.13 80.2716 154.13 80.2046 154.117 80.1443C154.077 79.9968 154.043 79.8695 153.99 79.7287C153.976 79.6952 153.976 79.6684 153.969 79.6349C153.735 79.4405 153.48 79.2595 153.219 79.112C152.569 78.7434 151.858 78.5423 151.134 78.4887C151.121 78.5021 151.101 78.5021 151.087 78.5088C151.04 78.5222 151 78.5423 150.953 78.5625H150.94C150.705 78.6764 150.477 78.7903 150.256 78.931C150.209 78.9579 150.169 78.9847 150.122 79.0182C150.035 79.0986 149.948 79.1858 149.867 79.2729L149.854 79.2863L149.794 79.3802C149.767 79.4204 149.747 79.4672 149.72 79.5075C149.707 79.5611 149.687 79.6214 149.666 79.6817C149.666 79.6683 149.666 79.655 149.666 79.6416C149.653 79.6617 149.653 79.7085 149.646 79.7555C149.646 79.7421 149.646 79.722 149.66 79.6884C149.66 79.7287 149.646 79.7555 149.646 79.7689C149.646 79.8359 149.646 79.903 149.66 79.9633C149.687 80.0303 149.72 80.1375 149.733 80.171C149.747 80.2045 149.747 80.2247 149.754 80.2381C149.767 80.2716 149.787 80.2984 149.8 80.3252C149.847 80.4124 149.901 80.4928 149.955 80.5732C149.975 80.5933 150.109 80.7542 150.136 80.7877C150.182 80.8279 150.223 80.8682 150.27 80.9017C150.27 80.9017 150.283 80.9017 150.283 80.9151C150.404 80.9955 150.524 81.0692 150.652 81.143C150.705 81.1698 150.766 81.1966 150.819 81.2234C150.833 81.2234 150.833 81.2234 150.853 81.2368C150.987 81.2837 151.128 81.3306 151.268 81.3708C151.409 81.411 151.55 81.4446 151.697 81.4714C151.731 81.4848 151.972 81.5048 151.999 81.5183C152.274 81.5451 152.555 81.5652 152.83 81.5585C152.904 81.5585 152.977 81.5585 153.044 81.5451C153.058 81.5451 153.078 81.5451 153.098 81.5317C153.192 81.5049 153.272 81.4781 153.36 81.4512C153.386 81.4311 153.567 81.344 153.601 81.3172C153.621 81.3038 153.634 81.3038 153.641 81.2904C153.675 81.2636 153.701 81.2368 153.735 81.21C153.775 81.1697 153.902 80.9955 153.909 80.9955C153.943 80.9419 153.976 80.8816 154.003 80.8279C154.003 80.7944 154.083 80.5799 154.097 80.5397C154.097 80.5196 154.097 80.5061 154.11 80.4994C154.11 80.4458 154.11 80.3922 154.124 80.3453L154.13 80.3386ZM148.158 88.8711C148.064 88.8376 147.984 88.8041 147.897 88.7638C147.863 88.7504 147.837 88.7303 147.803 88.7169C147.729 88.7035 147.669 88.6834 147.602 88.67C147.783 88.7437 147.971 88.8108 148.158 88.8644V88.8711Z" fill="white"/>
<path d="M154.391 159.287C154.324 159.388 154.264 159.495 154.217 159.616C150.631 168.979 148.453 178.852 147.715 188.859C147.514 191.607 147.427 194.362 147.454 197.124C144.565 197.137 141.683 197.144 138.794 197.157C137.876 197.157 136.951 197.157 136.033 197.171C134.29 182.485 137.608 167.86 142.273 154.006C143.493 150.373 144.82 146.78 146.18 143.194C149.317 148.349 152.152 153.697 154.384 159.301L154.391 159.287Z" fill="#F9F8F4"/>
<path d="M131.174 39.4662C131.227 40.2303 131.247 40.9944 131.234 41.7585C131.234 43.1728 131.14 44.587 130.939 45.9878C130.55 48.823 129.779 51.598 128.694 54.2522C121.327 52.5766 113.727 51.9197 106.186 51.8259C96.8897 51.7119 87.2513 52.1208 78.3837 55.1638C76.4868 55.8139 74.6771 56.6048 72.921 57.503C71.2521 54.4734 69.5764 51.4505 67.9075 48.4209C78.1223 45.4047 88.3705 42.4422 98.8334 40.3979C104.229 39.3455 109.672 38.5547 115.161 38.1592C117.889 37.9648 120.63 37.8643 123.365 37.8844C124.779 37.8978 126.194 37.9313 127.601 37.9983C128.285 38.0319 128.975 38.072 129.659 38.1256C130.021 38.1592 130.55 38.1391 130.865 38.3402C131.2 38.5547 131.16 39.1042 131.18 39.4528L131.174 39.4662Z" fill="#F9F8F4"/>
<path d="M119.478 35.4228C119.324 35.4228 119.169 35.4362 119.015 35.4362C107.413 35.8584 95.9514 38.144 84.7312 41.053C83.0422 41.4954 81.3531 41.9445 79.664 42.4136C79.664 42.3332 79.664 42.2461 79.6439 42.1589C78.1157 32.9629 80.9375 23.0632 87.1039 16.0656C88.6723 14.2894 90.4821 12.5534 92.8347 11.9301C95.0064 11.3469 97.3054 11.7893 99.3296 12.674C103.881 14.6781 107.493 18.5053 110.684 22.2119C114.142 26.2335 117.078 30.6907 119.478 35.4228Z" fill="#F9F8F4"/>
<path d="M96.695 197.245C95.6829 197.245 94.6708 197.245 93.6587 197.245C89.4561 197.258 85.2603 197.265 81.0578 197.278C78.6247 186.889 75.0388 176.775 70.3804 167.177C69.0533 164.429 67.6324 161.734 66.1377 159.08C67.934 155.735 70.0252 152.531 72.4448 149.596C80.8633 160.769 87.7805 173.095 92.8611 186.132C94.2821 189.785 95.5555 193.491 96.695 197.238V197.245Z" fill="#F9F8F4"/>
<path d="M80.2604 95.445C80.3409 95.4986 80.4146 95.5522 80.5017 95.5992C80.6023 95.6662 80.7162 95.7265 80.8167 95.7801C80.8167 95.7801 80.9173 95.8338 80.9843 95.8673C81.0379 95.8874 81.1921 95.9477 81.1921 95.9477C81.3061 95.9879 81.4267 96.0282 81.5407 96.0617C81.6881 96.1019 81.8355 96.1354 81.9897 96.1622C81.9562 96.1622 81.916 96.1622 81.916 96.1622C81.9294 96.1622 81.9696 96.1622 82.0501 96.1756C82.2981 96.1957 82.5461 96.1957 82.7941 96.189H82.8812C82.9951 96.1689 83.1091 96.1488 83.223 96.1153C83.3437 96.0818 83.4643 96.0415 83.5916 96.008C83.6319 95.9946 83.6587 95.988 83.6788 95.9813C83.6989 95.9678 83.719 95.9544 83.7592 95.9343C83.8731 95.8673 83.9737 95.807 84.0876 95.74C84.1278 95.7132 84.1546 95.6997 84.1681 95.693C84.1815 95.6796 84.2016 95.6528 84.2351 95.6193C84.3089 95.5456 84.3826 95.4719 84.4496 95.3914C84.463 95.3713 84.4831 95.3444 84.4898 95.3377C84.5368 95.2573 84.5837 95.1836 84.6239 95.1032C84.6239 95.0831 84.7043 94.9155 84.7177 94.8954C84.7445 94.8016 84.7646 94.701 84.7847 94.6072C84.7847 94.6072 84.7847 94.6027 84.7847 94.5938C84.7847 94.5938 84.7847 94.5603 84.7713 94.5402C84.7713 94.4731 84.7713 94.4128 84.7713 94.3525C84.7713 94.3391 84.7713 94.319 84.7579 94.2989C84.7579 94.2855 84.6842 94.0911 84.6842 94.0643C84.6104 93.9101 84.5233 93.7694 84.4228 93.6353C84.3959 93.6085 84.282 93.4812 84.282 93.4745L84.0876 93.2801C84.0206 93.2197 83.9536 93.1594 83.8799 93.0991L83.8396 93.0589C83.8396 93.0589 83.8061 93.0455 83.7793 93.0254C83.585 92.9114 83.404 92.7908 83.2029 92.6902C83.1761 92.6768 83.0085 92.6165 83.0018 92.6098C82.9281 92.583 82.8544 92.5562 82.7874 92.5361C82.6399 92.4892 82.4924 92.4623 82.3382 92.4288C82.2846 92.4154 82.1774 92.402 82.1506 92.3953C82.0568 92.3953 81.9629 92.3953 81.8758 92.3953C81.6948 92.3953 81.5205 92.4221 81.3329 92.4557C81.2122 92.4892 81.0849 92.5226 80.9643 92.5696C80.9173 92.5964 80.8101 92.6433 80.79 92.6567C80.6961 92.7103 80.6157 92.7639 80.5286 92.8243C80.4951 92.8511 80.4147 92.9181 80.3945 92.9382C80.3342 92.9919 80.2739 93.0589 80.2203 93.1259C80.2203 93.1393 80.1063 93.3069 80.0594 93.3806C80.0594 93.394 79.9656 93.6353 79.9656 93.6353C79.9321 93.7292 79.9119 93.8162 79.8985 93.9101C79.8851 93.9637 79.8784 94.0039 79.8717 94.0241V94.138C79.8717 94.3927 79.8583 94.6407 79.8717 94.882C79.8717 94.9289 79.8717 94.9356 79.8717 94.9423C79.8717 94.9691 79.8851 94.9825 79.8851 95.016C79.8985 95.0697 79.9119 95.1098 79.9186 95.1635C79.9923 95.2372 80.0728 95.311 80.1532 95.378C80.1666 95.3914 80.1867 95.4048 80.2069 95.4182C80.2203 95.4316 80.2403 95.4383 80.2604 95.4517V95.445ZM86.8089 90.9006C89.9391 93.3873 91.2394 98.1328 88.927 101.591C86.7017 104.909 82.6801 107.088 78.6451 106.431C74.905 105.821 71.795 102.624 71.728 98.7762C71.661 95.2305 73.9398 91.3564 77.3046 90.0159C80.3073 88.4743 84.0676 88.7155 86.8089 90.9073V90.9006ZM86.5207 100.707C86.4604 100.76 86.4001 100.821 86.3331 100.881C86.3197 100.914 86.3196 100.941 86.3062 100.975C86.38 100.888 86.4537 100.8 86.5207 100.713V100.707Z" fill="white"/>
<path d="M78.4706 197.284C74.5697 197.297 70.6621 197.311 66.7544 197.324C63.7248 197.337 60.702 197.358 57.6724 197.378C56.6335 197.391 55.5946 197.391 54.5557 197.411C54.8774 194.703 55.2863 192.002 55.9096 189.341C56.5195 186.7 57.3171 184.113 58.0544 181.506C59.0933 177.839 59.9915 174.14 61.2113 170.527C62.2167 167.551 63.3897 164.642 64.7503 161.813C69.6232 170.661 73.5577 180.004 76.4398 189.69C77.1838 192.197 77.8607 194.73 78.4706 197.284Z" fill="#F9F8F4"/>
<path d="M80.9172 109.278C87.5138 109.278 92.8614 104.17 92.8614 97.8698C92.8614 91.5694 87.5138 86.4619 80.9172 86.4619C74.3207 86.4619 68.9731 91.5694 68.9731 97.8698C68.9731 104.17 74.3207 109.278 80.9172 109.278Z" fill="white"/>
<path d="M150.169 94.6792C156.151 94.6792 161 90.0459 161 84.3304C161 78.6148 156.151 73.9814 150.169 73.9814C144.187 73.9814 139.337 78.6148 139.337 84.3304C139.337 90.0459 144.187 94.6792 150.169 94.6792Z" fill="white"/>
<path d="M150.638 76.086C150.692 76.0726 150.732 76.0525 150.779 76.0324C151.1 75.9185 151.429 75.9787 151.704 76.1396C153.084 76.3139 154.432 76.8568 155.578 77.7751C158.339 79.9937 159.472 84.2029 157.434 87.266C155.511 90.1549 152.032 92.0986 148.52 91.6093C145.088 91.1334 142.193 88.2848 142.119 84.7526C142.059 81.5822 144.09 78.1437 147.092 76.9507C148.192 76.3877 149.411 76.0994 150.631 76.086H150.638ZM154.13 80.4293C154.13 80.3623 154.13 80.2953 154.117 80.235C154.077 80.0875 154.043 79.9602 153.989 79.8194C153.976 79.7859 153.976 79.7591 153.969 79.7256C153.735 79.5312 153.48 79.3502 153.219 79.2027C152.568 78.8341 151.858 78.633 151.134 78.5794C151.121 78.5928 151.101 78.5928 151.087 78.5995C151.04 78.6129 151 78.633 150.953 78.6531H150.94C150.705 78.767 150.477 78.881 150.256 79.0218C150.209 79.0486 150.169 79.0754 150.122 79.1089C150.035 79.1893 149.948 79.2765 149.867 79.3636L149.854 79.377L149.793 79.4709C149.767 79.5111 149.747 79.558 149.72 79.5982C149.706 79.6585 149.686 79.7188 149.666 79.7792C149.666 79.7658 149.666 79.7457 149.666 79.7323C149.653 79.7457 149.653 79.7926 149.646 79.8462C149.646 79.8328 149.646 79.8127 149.659 79.7792C149.659 79.8194 149.646 79.8462 149.646 79.8596C149.646 79.9266 149.646 79.9937 149.659 80.054C149.686 80.121 149.72 80.2282 149.733 80.2617C149.747 80.2952 149.747 80.3153 149.753 80.3287C149.767 80.3623 149.787 80.3891 149.8 80.4159C149.847 80.503 149.901 80.5834 149.954 80.6639C149.974 80.684 150.109 80.8449 150.135 80.8784C150.182 80.9186 150.222 80.9589 150.269 80.9924L150.283 81.0057C150.403 81.0862 150.524 81.1599 150.651 81.2337C150.705 81.2605 150.765 81.2873 150.819 81.3141C150.832 81.3141 150.832 81.3141 150.853 81.3275C150.987 81.3744 151.127 81.4213 151.268 81.4615C151.409 81.5017 151.55 81.5353 151.697 81.5621C151.737 81.5755 151.972 81.5956 151.999 81.609C152.273 81.6358 152.555 81.6626 152.83 81.6492C152.904 81.6492 152.977 81.6492 153.044 81.6358C153.058 81.6358 153.078 81.6358 153.098 81.6224C153.192 81.5956 153.272 81.5688 153.359 81.542C153.386 81.5219 153.567 81.4348 153.601 81.4079C153.621 81.3945 153.634 81.3945 153.641 81.3811C153.674 81.3543 153.701 81.3275 153.735 81.3007C153.775 81.2605 153.902 81.0861 153.909 81.0861C153.942 81.0325 153.976 80.9722 154.003 80.9186C154.003 80.9052 154.083 80.6706 154.097 80.6304C154.097 80.6103 154.097 80.5969 154.11 80.5902C154.11 80.5365 154.11 80.4829 154.123 80.436L154.13 80.4293ZM148.158 88.9617C148.064 88.9282 147.984 88.8948 147.897 88.8613C147.863 88.8479 147.836 88.8277 147.803 88.8076C147.729 88.7942 147.669 88.7741 147.602 88.7607C147.783 88.8344 147.97 88.9015 148.158 88.9551V88.9617Z" fill="#202020"/>
<path d="M81.5404 96.1476C81.6879 96.1878 81.8353 96.2213 81.9895 96.2481C81.9559 96.2481 81.9157 96.2481 81.9157 96.2481C81.9291 96.2481 81.9694 96.2481 82.0498 96.2615C82.2978 96.2816 82.5458 96.2816 82.7938 96.2749H82.881C82.9949 96.2615 83.1089 96.2347 83.2228 96.2012C83.3434 96.1677 83.464 96.1275 83.5914 96.0939C83.6316 96.0805 83.6584 96.0739 83.6785 96.0672C83.6986 96.0538 83.7187 96.0403 83.759 96.0202C83.8729 95.9532 83.9734 95.8929 84.0874 95.8259C84.1276 95.7991 84.1544 95.7856 84.1678 95.7789C84.1812 95.7655 84.2014 95.7387 84.2349 95.7052C84.3086 95.6315 84.3823 95.5578 84.4494 95.4774C84.4628 95.4572 84.4829 95.4304 84.4896 95.4237C84.5365 95.3433 84.5834 95.2695 84.6236 95.1891C84.6236 95.169 84.7041 95.0015 84.7175 94.9814C84.7443 94.8875 84.7644 94.787 84.7845 94.6931C84.7845 94.6931 84.7845 94.6886 84.7845 94.6797C84.7845 94.6797 84.7845 94.6462 84.7711 94.6261C84.7711 94.5591 84.7711 94.4987 84.7711 94.4384C84.7711 94.425 84.7711 94.4049 84.7576 94.3848C84.7576 94.3714 84.6839 94.1771 84.6839 94.1502C84.6102 94.0028 84.5231 93.8553 84.4225 93.7213C84.3957 93.7012 84.2818 93.5671 84.2818 93.5604L84.0874 93.366C84.0204 93.3057 83.9534 93.2453 83.8796 93.185L83.8394 93.1449C83.8394 93.1449 83.8059 93.1314 83.7791 93.1113C83.5847 92.9974 83.4037 92.8767 83.2027 92.7762C83.1759 92.7628 83.0083 92.7024 83.0016 92.6957C82.9278 92.6689 82.8541 92.6421 82.7871 92.622C82.6397 92.5751 82.4922 92.5483 82.338 92.5148C82.2844 92.5014 82.1772 92.4879 82.1504 92.4812C82.0566 92.4812 81.9627 92.4812 81.8756 92.4812C81.6946 92.4812 81.5203 92.5081 81.3326 92.5416C81.212 92.5751 81.0847 92.6086 80.964 92.6555C80.9171 92.6823 80.8098 92.7292 80.7897 92.7426C80.6959 92.7962 80.6155 92.8499 80.5283 92.9102C80.4948 92.937 80.4144 93.0041 80.3943 93.0242C80.334 93.0778 80.2737 93.1448 80.22 93.2119C80.22 93.2253 80.1061 93.3928 80.0592 93.4666C80.0592 93.48 79.9653 93.7213 79.9653 93.7213C79.9318 93.8151 79.9116 93.9022 79.8982 93.996C79.8848 94.0496 79.8782 94.0899 79.8715 94.11V94.224C79.8715 94.4787 79.8581 94.7267 79.8715 94.9679C79.8715 95.0149 79.8715 95.0215 79.8715 95.0283C79.8715 95.0551 79.8849 95.0685 79.8849 95.102C79.8983 95.1556 79.9117 95.1958 79.9184 95.2494C79.9921 95.3231 80.0725 95.3969 80.1529 95.4639C80.1663 95.4639 80.1865 95.484 80.2066 95.4974C80.3004 95.5644 80.4009 95.6315 80.5015 95.6918C80.602 95.7588 80.716 95.8192 80.8165 95.8728C80.8165 95.8728 80.917 95.9264 80.9841 95.9599C81.0377 95.98 81.1919 96.0404 81.1919 96.0404C81.3058 96.0806 81.4265 96.1208 81.5404 96.1543V96.1476ZM86.8087 90.9865C89.9388 93.4799 91.2392 98.2187 88.9267 101.677C86.7015 104.995 82.6798 107.173 78.6448 106.517C74.9048 105.907 71.7948 102.709 71.7278 98.8621C71.6607 95.3164 73.9396 91.4424 77.3043 90.1018C80.3071 88.5602 84.0673 88.8015 86.8087 90.9932V90.9865ZM86.5204 100.793C86.4601 100.846 86.3999 100.906 86.3328 100.967C86.3194 101 86.3194 101.027 86.306 101.061C86.3797 100.973 86.4534 100.886 86.5204 100.799V100.793Z" fill="#202020"/>
<path d="M74.7646 43.6884C88.4513 41.6173 101.83 37.8907 115.55 36.0072C119.411 35.4777 123.298 35.1225 127.193 34.975C128.815 34.9147 128.821 32.3945 127.193 32.4481C113.144 32.9642 99.4571 36.396 85.7368 39.1575C81.8694 39.935 77.9952 40.6588 74.0943 41.2487C73.4173 41.3492 73.0486 42.2004 73.2162 42.8037C73.4173 43.5275 74.0943 43.789 74.7713 43.6817L74.7646 43.6884Z" fill="#202020"/>
<path d="M149.291 195.428C150.343 183.873 151.945 171.982 157.595 161.66C159.056 158.992 160.766 156.465 162.756 154.173C163.205 153.657 163.259 152.893 162.756 152.39C162.3 151.934 161.422 151.874 160.973 152.39C153.138 161.405 149.659 173.108 147.977 184.724C147.461 188.283 147.085 191.855 146.764 195.435C146.703 196.112 147.387 196.695 148.024 196.695C148.761 196.695 149.224 196.112 149.284 195.435L149.291 195.428Z" fill="#202020"/>
<path d="M83.1495 191.594C79.5368 180.273 74.597 168.953 66.3862 160.172C64.114 157.746 61.5871 155.568 58.8592 153.664C58.2962 153.275 57.4583 153.563 57.1298 154.12C56.7612 154.75 57.0226 155.454 57.5857 155.849C67.0029 162.398 73.1626 172.572 77.4053 183.028C78.6319 186.058 79.7245 189.148 80.7165 192.264C81.2058 193.806 83.6455 193.149 83.1495 191.594Z" fill="#202020"/>
</svg>
