<svg width="201" height="200" viewBox="0 0 201 200" fill="none" xmlns="http://www.w3.org/2000/svg">
<path d="M182.867 2.7207H18.4066C9.98607 2.7207 3.15991 9.54686 3.15991 17.9674V182.427C3.15991 190.848 9.98607 197.674 18.4066 197.674H182.867C191.287 197.674 198.113 190.848 198.113 182.427V17.9674C198.113 9.54686 191.287 2.7207 182.867 2.7207Z" fill="#252525"/>
<path d="M24.3331 57.9133C24.3331 57.9133 24.1131 57.9666 24.0731 57.98C23.9265 58.0266 23.9398 58.0134 23.7798 58.1134C23.6531 58.1934 23.3931 58.46 23.2531 58.7C22.4265 60.0534 22.6065 62.0467 22.7131 63.5667C22.8198 65.1533 23.1198 66.7133 23.5531 68.2333C24.4465 71.32 25.9732 74.2467 27.9798 76.76C30.0265 79.3133 32.5198 81.4867 35.3865 83.0867C36.7798 83.86 38.2398 84.4867 39.7598 84.9467C41.3865 85.4334 43.4465 85.48 44.7065 86.7467C46.1265 88.1667 45.7265 90.1666 44.5131 91.5533C43.2198 93.0333 41.3465 93.6733 39.4931 94.0933C35.2465 95.0533 30.7331 94.8933 26.5798 93.56C22.7865 92.34 19.3798 90.2133 15.6932 88.7333C14.7598 88.36 13.8131 88.0267 12.8398 87.7667C12.0331 87.5467 11.0798 87.26 10.2398 87.4666C8.89979 87.7866 8.96646 89.6066 9.12646 90.7266C10.0665 97.22 14.1398 103.273 19.2332 107.267C21.7998 109.287 24.7665 110.84 27.8998 111.767C31.9398 112.96 36.2065 113.027 40.2732 114.093C42.1132 114.573 44.2932 115.22 45.2132 117.053C46.0532 118.727 45.7198 120.833 44.6464 122.32C43.4598 123.953 41.6265 124.847 39.7598 125.46C37.7065 126.133 35.5732 126.613 33.4398 126.927C31.2665 127.247 29.0731 127.433 26.8798 127.413C24.8131 127.4 22.7865 127.153 20.7332 126.947C19.3665 126.807 17.6798 126.627 16.4531 127.333C15.1731 128.067 15.1131 129.507 15.5798 130.773C16.1865 132.407 17.4932 133.673 18.8132 134.753C20.2332 135.927 21.8531 136.867 23.5131 137.653C27.0465 139.333 30.9398 140.247 34.7798 140.873C43.4131 142.273 52.3398 141.773 60.7798 139.527C61.1332 139.433 61.4331 139.487 61.6798 139.62C61.8665 139.673 62.0331 139.773 62.1598 139.927C62.7065 140.607 63.2932 141.247 63.9398 141.833C66.5132 144.193 69.7998 145.647 73.0998 146.667C76.7798 147.8 80.5998 148.5 84.4065 149.053C92.4131 150.213 100.586 150.38 108.646 149.653C116.673 148.927 124.626 147.253 132.273 144.707C136.106 143.427 139.86 141.933 143.5 140.207C146.993 138.553 150.466 136.727 153.526 134.36C156.52 132.047 159.06 129.193 160.62 125.727C162.087 122.487 162.533 118.773 161.473 115.353V115.34C160.6 115.913 159.7 116.44 158.786 116.92C154.32 119.273 149.433 120.92 144.62 122.393C134.18 125.58 123.353 127.413 112.473 128.227C101.353 129.06 89.8865 129.207 78.9532 126.747C77.3665 126.387 78.0465 123.953 79.6265 124.313C80.9332 124.607 82.2465 124.867 83.5665 125.08C88.9464 125.973 94.4198 126.213 99.8665 126.193C105.173 126.173 110.486 125.92 115.773 125.42C126.246 124.427 136.646 122.4 146.64 119.093C154.74 116.413 164.853 112.92 167.473 103.8C168.706 99.5333 168.34 94.92 167.533 90.6067C166.846 86.94 165.693 83.3667 163.926 80.0667C160.32 73.3 154.453 68.2934 147.733 64.7667C147.686 64.7467 147.653 64.7134 147.62 64.6934C141.773 67.4867 135.573 69.48 129.233 70.8133C116.753 73.4267 103.913 73.6734 91.2065 73.4333C87.5198 73.36 83.8398 73.1333 80.1598 72.8C76.4865 72.4666 72.8198 72.0333 69.1598 71.56C69.0598 71.56 68.9598 71.5467 68.8465 71.52C65.8598 70.76 62.8665 69.8934 59.9398 68.8734C59.0598 69.44 58.1598 69.9733 57.1531 70.3C56.1131 70.64 55.0065 70.8267 53.9465 71.0667C43.2465 73.4667 33.0798 66.6733 26.2265 59.0133C25.7598 58.9333 25.3931 58.5667 25.1998 58.1067C25.1998 58.1067 25.0465 58 25.0465 57.9933C24.7331 57.8667 24.6331 57.86 24.3065 57.9L24.3331 57.9133ZM200.627 15.5667V184.433C200.627 193.02 193.646 200 185.06 200H52.8331C52.8331 200 52.7865 200 52.7798 200C52.7798 200 52.7798 200 52.7932 200H16.1932C7.60649 200 0.626465 193.02 0.626465 184.433V15.5667C0.626465 6.97998 7.60649 0 16.1932 0H185.06C193.646 0 200.627 6.97998 200.627 15.5667ZM198.1 184.433V15.5667C198.1 8.37332 192.253 2.52669 185.06 2.52669H16.1932C8.99982 2.52669 3.15312 8.37332 3.15312 15.5667V184.433C3.15312 191.627 8.99982 197.473 16.1932 197.473H52.0265C52.4132 194.233 52.8998 191 53.6798 187.827C54.3798 185.013 55.2465 182.233 56.0198 179.44C57.0732 175.633 58.0531 171.827 59.3931 168.107C61.9598 161.007 65.4665 154.26 70.2065 148.367C66.5998 147.013 63.2731 145.08 60.7465 142.14C58.8265 142.627 56.8932 143.04 54.9398 143.347C46.0998 144.74 36.8332 144.44 28.1932 142.04C24.3265 140.967 20.5998 139.347 17.4198 136.86C14.6531 134.693 11.4065 130.787 13.3132 127.073C15.1332 123.527 19.6598 124.34 22.8798 124.673C27.2998 125.133 31.7931 124.873 36.1198 123.853C37.9931 123.407 40.1398 122.953 41.6998 121.767C42.7331 120.987 43.7398 119.267 42.8531 118.02C42.3798 117.347 41.4531 117.08 40.7131 116.847C39.6398 116.507 38.5398 116.253 37.4331 116.047C35.2531 115.64 33.0398 115.4 30.8531 115.02C23.6598 113.78 17.1532 109.96 12.6065 104.227C10.3932 101.433 8.65314 98.2933 7.55314 94.9C6.59981 91.9667 5.25982 86.7867 9.01982 85.2134C10.9398 84.4134 13.2731 85.18 15.1398 85.84C17.1131 86.5333 19.0065 87.44 20.8865 88.36C24.6998 90.22 28.4998 91.9267 32.8065 92.1533C34.9798 92.2667 37.1465 92.0733 39.2531 91.5533C40.5865 91.2266 42.6264 90.6067 43.0664 89.1533C43.1198 88.96 43.1598 88.8667 42.9798 88.6134C42.8398 88.4267 42.6198 88.3133 42.4065 88.2266C41.6065 87.9 40.6865 87.82 39.8465 87.6C38.1598 87.1534 36.5131 86.5066 34.9531 85.72C28.7131 82.56 23.8531 76.8333 21.5331 70.26C20.3665 66.9667 19.7398 63.1867 20.2732 59.7067C20.5532 57.8867 21.5531 56.04 23.4465 55.52C24.7065 55.18 25.9665 55.46 26.8331 56.28C27.0731 56.32 27.2998 56.4334 27.4665 56.62C29.3731 58.8267 31.4665 60.8734 33.7465 62.6934C37.5731 65.74 42.1531 68.2333 47.0531 68.8933C49.4798 69.2133 51.7998 68.9667 54.1665 68.4267C54.9931 68.24 55.8331 68.0933 56.6331 67.82C56.6664 67.8067 56.7864 67.76 56.8131 67.7467C56.8331 67.7333 56.8465 67.7333 56.8665 67.72C56.0665 67.4 55.2731 67.0666 54.4865 66.72C50.8331 65.0733 47.2531 62.8667 44.7531 59.68C43.4065 57.9667 42.2065 55.92 41.8398 53.74C41.4398 51.38 42.1198 49.16 43.7798 47.4467C47.2398 43.8934 52.7331 44.1533 57.3064 44.0733C61.9331 44 66.5998 44.2666 70.9398 45.9666C71.8065 43.1733 72.9065 40.46 74.3331 37.86C76.3531 34.1734 78.9998 30.7467 82.2732 28.0867C85.9132 25.1333 90.1932 23.32 94.6932 22.1067C99.3132 20.8534 104.086 19.9466 108.846 19.4666C113.506 19 118.266 19.06 122.833 20.1533C127.106 21.1733 131.046 23.18 134.42 25.9867C137.533 28.5733 140.1 31.8134 142.173 35.28C144.3 38.82 145.94 42.66 147.213 46.58C148.107 49.3333 148.867 52.18 149.28 55.0667C150.786 53.2 152.193 51.26 153.553 49.28C154.44 47.98 155.3 46.6666 156.086 45.3C156.433 44.6933 156.773 44.0734 157.073 43.44C157.333 42.9067 157.373 42.7534 157.606 42.12C157.986 41.0734 158.72 40.1667 159.947 40.2867C161.013 40.3867 161.866 41.3267 162.513 42.1067C163.833 43.6867 164.726 45.5467 165.306 47.5067C167.566 55.06 166.066 63.6667 161.867 70.2734C162.773 70.3 163.686 70.24 164.58 70.0667C169.066 69.1733 172.813 66.2 175.486 62.58C176.88 60.7 178.053 58.66 179.093 56.56C180.02 54.7066 181.12 52.58 183.086 51.6466C184.133 51.1533 185.273 51.0933 186.32 51.6333C187.306 52.14 187.9 53.1 188.326 54.08C189.293 56.3533 189.92 58.7667 190.253 61.2134C190.926 66.14 190.426 71.2466 188.633 75.8866C187.06 79.9733 184.593 83.6867 181.426 86.7134C179.86 88.22 178.113 89.56 176.246 90.6934C175.34 91.2467 174.4 91.7133 173.453 92.18C172.96 92.42 171.68 93 171.7 93.62C171.7 93.7134 171.96 93.96 172.146 94.0867C172.56 94.3533 173.04 94.5 173.513 94.64C174.673 94.9866 175.866 95.1733 177.073 95.24C179.62 95.3733 182.153 95.0867 184.686 94.8734C186.926 94.6867 190.013 94.1067 191.447 96.34C192.64 98.1867 192.06 100.793 191.106 102.607C189.006 106.613 184.366 108.913 180.313 110.407C175.693 112.107 170.66 112.747 165.76 112.273C165.626 112.26 165.5 112.227 165.373 112.18C164.74 112.82 164.066 113.413 163.36 113.973C163.6 114.113 163.8 114.34 163.9 114.68C164.193 115.62 164.373 116.58 164.493 117.56C164.94 121.453 163.807 125.453 161.867 128.807C159.84 132.327 156.826 135.153 153.52 137.467C151.68 138.753 149.74 139.88 147.753 140.913C150.046 144.607 152.186 148.4 154.066 152.32C157.353 159.16 159.813 166.353 161.26 173.8C162.766 181.587 163.266 189.533 163.346 197.453H185.047C192.24 197.453 198.086 191.607 198.086 184.413L198.1 184.433ZM187.633 103.187C188.786 101.953 189.78 100.227 189.58 98.48C189.48 97.56 188.946 97.2533 188.073 97.2333C186.88 97.2 185.673 97.3334 184.48 97.4333C182.066 97.6334 179.646 97.9 177.22 97.78C175.126 97.6734 172.553 97.38 170.746 96.1467C170.946 100.107 170.486 104.1 168.68 107.7C168.3 108.467 167.86 109.187 167.367 109.873C168.02 109.907 168.673 109.927 169.326 109.913C173.953 109.853 178.587 108.74 182.713 106.653C184.513 105.74 186.247 104.667 187.627 103.18L187.633 103.187ZM187.04 72.8C188.3 68.34 188.4 63.5666 187.326 59.0533C187.046 57.9 186.7 56.76 186.28 55.6533C186.033 54.9933 185.713 53.96 184.926 53.7867C184.426 53.6734 183.74 54.2 183.273 54.6934C182.626 55.3667 182.14 56.18 181.726 57.0067C179.72 61.06 177.393 65.0267 173.96 68.04C170.68 70.92 166.453 72.8867 162.033 72.82C164.206 75.4 166.033 78.2667 167.386 81.4133C168.766 84.6133 169.68 87.9467 170.226 91.3734C170.52 91.08 170.853 90.82 171.193 90.5933C172.02 90.04 172.96 89.6734 173.826 89.2067C174.74 88.7134 175.626 88.1667 176.473 87.5733C178.146 86.42 179.66 85.0533 181.033 83.56C183.827 80.4933 185.913 76.8 187.04 72.8066V72.8ZM163.64 58.2934C164.1 54.6867 163.873 50.8667 162.666 47.4133C162.106 45.8067 161.246 44.2667 160 43.08C159.946 43.2267 159.88 43.3667 159.833 43.4867C159.6 44.0667 159.346 44.64 159.053 45.1934C157.733 47.78 156.06 50.2 154.367 52.5467C152.867 54.62 151.313 56.6667 149.64 58.6C149.673 59.56 149.66 60.52 149.593 61.4867C149.58 61.6867 149.52 61.8667 149.44 62.04C149.706 62.3134 149.866 62.6867 149.84 63.0467C150.493 63.4 151.146 63.7667 151.78 64.1533C154.46 65.7733 156.96 67.6733 159.207 69.8133C161.56 66.38 163.1 62.42 163.633 58.2934H163.64ZM158.673 197.047C159.393 197.047 160.12 197.033 160.84 197.013C160.786 192.713 160.62 188.413 160.213 184.127C159.52 176.76 158.066 169.473 155.606 162.473C153.6 156.773 150.946 151.333 147.933 146.107C148.066 153.08 146.113 160.107 142.52 166.067C138.62 172.527 132.72 177.653 125.846 180.753C118.653 183.993 110.606 185.093 102.826 183.673C95.1665 182.273 88.1064 178.113 83.2998 171.967C78.4798 165.807 76.0398 157.993 76.5398 150.187C75.2732 149.907 74.0065 149.587 72.7531 149.213C72.7198 149.26 72.6931 149.307 72.6598 149.347C69.9265 152.62 67.6198 156.233 65.6598 160.013C63.9065 163.393 62.4531 166.92 61.2331 170.527C60.0131 174.14 59.1131 177.84 58.0731 181.507C57.3331 184.107 56.5398 186.7 55.9265 189.333C55.3065 191.993 54.8998 194.693 54.5731 197.407C55.6131 197.387 56.6532 197.387 57.6932 197.373C60.7198 197.347 63.7465 197.333 66.7732 197.32C70.8865 197.307 74.9998 197.287 79.1198 197.28C83.9732 197.267 88.8265 197.253 93.6731 197.247C98.8665 197.233 104.06 197.227 109.253 197.213C114.38 197.2 119.506 197.193 124.633 197.18C129.36 197.167 134.08 197.16 138.806 197.147C142.706 197.133 146.606 197.12 150.506 197.1C153.226 197.087 155.953 197.073 158.68 197.04L158.673 197.047ZM147.073 61.4933C147.16 60.28 147.166 59.0734 147.086 57.8667C146.8 53.3467 145.48 48.86 143.9 44.64C142.526 40.98 140.76 37.4533 138.533 34.24C136.387 31.1533 133.74 28.3533 130.606 26.2533C127.14 23.9333 123.146 22.5467 119.013 22.02C114.56 21.4534 110 21.76 105.573 22.44C101.066 23.1334 96.4931 24.0467 92.1865 25.5467C88.1932 26.9334 84.6131 29.0933 81.6665 32.1333C78.8998 34.98 76.7731 38.3867 75.1531 41.9933C71.3398 50.4867 70.6665 59.9933 69.9998 69.1533C72.9998 69.5333 76.0132 69.8533 79.0265 70.1533C83.7265 70.62 88.4064 70.8933 93.1331 70.9666C99.4464 71.06 105.766 71.0067 112.066 70.5867C124.153 69.7733 136.32 67.5067 147.246 62.12C147.133 61.9267 147.066 61.7133 147.08 61.4867L147.073 61.4933ZM141.62 162.5C144.767 156.327 146.093 149.133 145.12 142.253C144.34 142.62 143.56 142.98 142.78 143.333C141.286 144 139.773 144.627 138.246 145.22C138.22 145.867 138.18 146.507 138.133 147.153H142.586C143.293 147.153 143.82 147.727 143.846 148.413C143.88 149.093 143.246 149.673 142.586 149.673H137.853C137.706 150.68 137.52 151.687 137.286 152.68C138.893 153.287 140.353 154.113 141.707 155.173C141.967 155.373 142.066 155.76 142.073 156.067C142.086 156.407 141.927 156.72 141.707 156.96C141.493 157.193 141.126 157.327 140.813 157.327C140.473 157.327 140.226 157.193 139.973 156.993C139.94 156.973 139.92 156.953 139.893 156.933C139.833 156.887 139.773 156.84 139.713 156.8C139.6 156.713 139.473 156.627 139.353 156.547C139.093 156.367 138.82 156.2 138.547 156.04C138.04 155.74 137.52 155.48 136.98 155.247C136.853 155.193 136.733 155.153 136.606 155.1C136.08 156.713 135.413 158.273 134.573 159.747C134.353 160.14 134.106 160.527 133.86 160.9C133.993 161 134.106 161.127 134.22 161.28C135.166 162.52 136.113 163.76 137.06 165C137.26 165.267 137.26 165.667 137.186 165.973C137.113 166.293 136.873 166.553 136.606 166.727C136.34 166.9 135.933 166.94 135.633 166.86C135.293 166.767 135.087 166.553 134.88 166.28C134.027 165.16 133.173 164.047 132.32 162.927C131.713 163.62 131.053 164.273 130.34 164.86C129.6 165.467 128.813 165.993 128 166.473C128.9 168.6 129.8 170.74 130.693 172.867C130.966 173.52 130.393 174.233 129.813 174.42C129.7 174.46 129.58 174.473 129.473 174.473C128.92 174.473 128.473 174.04 128.26 173.533C127.433 171.56 126.6 169.58 125.766 167.607C124.906 167.993 124.026 168.327 123.133 168.633C122.18 168.96 121.213 169.247 120.233 169.493C120.72 171.853 121.2 174.213 121.68 176.567C121.82 177.26 121.48 177.893 120.8 178.113C120.186 178.313 119.38 177.88 119.253 177.233C118.76 174.833 118.266 172.427 117.773 170.013C116.313 170.273 114.833 170.433 113.36 170.487C112.706 173.2 112.333 175.96 112.253 178.747C112.233 179.433 111.693 180.007 110.993 180.007C110.293 180.007 109.713 179.433 109.733 178.747C109.813 175.967 110.166 173.187 110.773 170.473C109.6 170.42 108.42 170.3 107.253 170.1C106.573 169.987 105.893 169.833 105.226 169.653C104.153 172.313 103.08 174.973 102 177.633C101.733 178.293 101.18 178.68 100.446 178.513C99.8332 178.373 99.3131 177.573 99.5665 176.967C100.653 174.273 101.74 171.58 102.826 168.893C101.266 168.307 99.7864 167.553 98.3931 166.64C96.1198 168.813 93.8398 170.98 91.5665 173.153C91.1198 173.58 90.4798 173.62 89.9798 173.307C89.9064 173.26 89.8465 173.213 89.7798 173.153C89.2932 172.7 89.3065 171.82 89.7798 171.367C91.9732 169.28 94.1531 167.2 96.3398 165.12C95.7065 164.593 95.0998 164.02 94.5265 163.413C94.0198 162.88 93.5398 162.313 93.0998 161.72C90.5798 163.333 88.0664 164.947 85.5531 166.553C85.0064 166.9 84.3198 166.693 83.9265 166.233C83.8931 166.187 83.8531 166.14 83.8265 166.1C83.4465 165.513 83.7265 164.733 84.2798 164.373C86.7465 162.793 89.2198 161.207 91.6865 159.627C90.8798 158.24 90.2331 156.76 89.7998 155.213C87.1131 156.14 84.3798 156.927 81.6065 157.54C80.9332 157.687 80.2398 157.34 80.0531 156.66L80.0198 156.507C79.9465 155.907 80.3198 155.247 80.9332 155.107C83.7598 154.473 86.5465 153.68 89.2798 152.727C89.2532 152.527 89.2332 152.327 89.2132 152.133C86.3998 151.867 83.5864 151.5 80.7998 151.013C80.2131 150.913 79.6198 150.8 79.0265 150.687C78.9998 151.2 78.9865 151.713 78.9865 152.233C78.9865 153.7 79.0998 155.173 79.3265 156.62C79.8665 160.173 81.0598 163.613 82.8265 166.733C83.9598 168.733 85.3198 170.6 86.9065 172.287C87.5465 172.967 88.2131 173.613 88.9131 174.227C93.7798 178.507 99.9332 181.06 106.433 181.633C113.573 182.26 120.827 180.733 127.127 177.32C128.1 176.793 129.047 176.227 129.96 175.613C134.893 172.313 138.926 167.827 141.64 162.493L141.62 162.5ZM133.233 156.86C134.766 153.54 135.446 149.847 135.673 146.193C134.113 146.767 132.547 147.307 130.96 147.8C122.867 150.313 114.466 151.847 106.006 152.4C101.266 152.707 96.5065 152.68 91.7665 152.353C92.2731 156.467 94.5332 160.193 97.6265 162.933C97.9998 163.267 98.3865 163.58 98.7798 163.88C98.9132 163.94 99.0465 164.02 99.1665 164.127C99.1998 164.153 99.2198 164.187 99.2465 164.22C106.44 169.307 116.426 168.82 124.32 165.52C126.4 164.653 128.32 163.473 129.893 161.853C131.293 160.407 132.38 158.693 133.226 156.867L133.233 156.86ZM67.7398 65.6267C68.1931 59.8667 68.8331 54.02 70.2998 48.4133C65.7798 46.5 60.7131 46.5266 55.8931 46.6466C52.1931 46.74 47.0598 46.5467 44.8732 50.2067C43.8598 51.9134 44.3198 53.8733 45.1464 55.56C45.9264 57.1533 46.9998 58.5534 48.2798 59.7734C50.9065 62.28 54.2532 63.98 57.6065 65.3066C60.8398 66.5866 64.1598 67.64 67.5198 68.5533C67.5932 67.58 67.6598 66.6 67.7398 65.62V65.6267Z" fill="white"/>
<path d="M160.84 197.013C160.12 197.027 159.393 197.04 158.673 197.047C155.946 197.08 153.22 197.1 150.5 197.107C146.6 197.127 142.699 197.14 138.799 197.153C134.073 197.167 129.353 197.18 124.626 197.187C119.5 197.2 114.373 197.207 109.246 197.22C104.053 197.233 98.8595 197.24 93.6662 197.253C88.8128 197.267 83.9595 197.273 79.1129 197.287C74.9929 197.3 70.8795 197.313 66.7662 197.327C63.7395 197.34 60.7129 197.36 57.6862 197.38C56.6462 197.393 55.6062 197.393 54.5662 197.413C54.8862 194.7 55.2995 192 55.9195 189.34C56.5328 186.707 57.3262 184.113 58.0662 181.513C59.1062 177.847 60.0062 174.147 61.2262 170.533C62.4462 166.927 63.8995 163.4 65.6528 160.02C67.6128 156.233 69.9195 152.627 72.6528 149.353C72.6862 149.313 72.7195 149.267 72.7462 149.22C73.9995 149.593 75.2662 149.913 76.5329 150.193C76.0329 157.993 78.4729 165.813 83.2929 171.973C88.0996 178.12 95.1595 182.287 102.819 183.68C110.599 185.1 118.646 184 125.84 180.76C132.713 177.66 138.613 172.533 142.513 166.073C146.113 160.113 148.066 153.087 147.926 146.113C150.94 151.34 153.593 156.78 155.6 162.48C158.06 169.473 159.513 176.76 160.206 184.133C160.613 188.42 160.78 192.72 160.833 197.02L160.84 197.013Z" fill="white"/>
<path d="M155.586 77.6925C158.346 79.9059 159.48 84.1125 157.447 87.1725C155.527 90.0658 152.04 91.9992 148.533 91.5192C145.1 91.0459 142.206 88.1992 142.133 84.6592C142.073 81.4925 144.107 78.0525 147.107 76.8592C148.207 76.2992 149.42 76.0058 150.646 75.9992C150.7 75.9858 150.74 75.9659 150.787 75.9459C151.107 75.8325 151.44 75.8925 151.713 76.0591C153.093 76.2325 154.446 76.7725 155.586 77.6925ZM154.14 80.3392C154.14 80.2725 154.14 80.2058 154.127 80.1458V80.1325C154.087 79.9991 154.053 79.8591 154 79.7258C153.986 79.6925 153.986 79.6658 153.98 79.6325C153.74 79.4325 153.493 79.2592 153.226 79.1059C152.573 78.7392 151.866 78.5325 151.14 78.4925L151.093 78.5058C151.047 78.5192 151.007 78.5391 150.96 78.5591H150.947C150.713 78.6725 150.48 78.7858 150.267 78.9258C150.22 78.9525 150.18 78.9792 150.133 79.0125C150.046 79.0925 149.96 79.1792 149.873 79.2659L149.86 79.2792L149.8 79.3725C149.773 79.4125 149.753 79.4592 149.726 79.4992C149.713 79.5592 149.693 79.6192 149.673 79.6792C149.673 79.6659 149.673 79.6458 149.673 79.6325C149.66 79.6458 149.66 79.6925 149.653 79.7458C149.653 79.7325 149.653 79.7125 149.666 79.6792C149.666 79.7192 149.653 79.7458 149.653 79.7592C149.653 79.8258 149.653 79.8925 149.666 79.9525C149.693 80.0259 149.726 80.1258 149.74 80.1592C149.753 80.1925 149.753 80.2125 149.76 80.2258C149.773 80.2592 149.793 80.2858 149.806 80.3125C149.853 80.3992 149.907 80.4791 149.96 80.5591C149.98 80.5791 150.113 80.7392 150.14 80.7725C150.186 80.8125 150.227 80.8525 150.273 80.8925C150.273 80.8925 150.287 80.8925 150.287 80.9058C150.407 80.9792 150.526 81.0592 150.653 81.1259C150.706 81.1592 150.766 81.1792 150.82 81.2059C150.833 81.2059 150.833 81.2058 150.853 81.2191C150.987 81.2658 151.127 81.3125 151.267 81.3525C151.407 81.3925 151.547 81.4259 151.693 81.4525C151.727 81.4659 151.973 81.4858 151.993 81.4992C152.273 81.5258 152.546 81.5525 152.826 81.5392C152.9 81.5392 152.973 81.5392 153.047 81.5259C153.06 81.5259 153.08 81.5259 153.1 81.5125C153.193 81.4925 153.273 81.4592 153.36 81.4325C153.387 81.4125 153.567 81.3258 153.6 81.3058C153.62 81.2925 153.633 81.2859 153.64 81.2725L153.733 81.1992C153.773 81.1592 153.9 80.9792 153.906 80.9792C153.94 80.9258 153.973 80.8658 154 80.8125C154 80.7792 154.08 80.5659 154.093 80.5259C154.093 80.5059 154.093 80.4992 154.107 80.4858C154.107 80.4325 154.107 80.3792 154.12 80.3325L154.14 80.3392ZM148.166 88.8659C148.073 88.8325 147.993 88.8059 147.906 88.7659C147.873 88.7525 147.846 88.7326 147.813 88.7126C147.74 88.6992 147.68 88.6792 147.613 88.6658C147.793 88.7392 147.98 88.8059 148.166 88.8659Z" fill="white"/>
<path d="M147.08 57.8545C147.16 59.0612 147.153 60.2745 147.067 61.4812C147.053 61.7078 147.12 61.9212 147.233 62.1146C136.3 67.5012 124.14 69.7678 112.053 70.5812C105.753 71.0012 99.4335 71.0546 93.1202 70.9612C88.3935 70.8879 83.7135 70.6145 79.0135 70.1478C76.0002 69.8478 72.9868 69.5278 69.9868 69.1478C70.6535 59.9878 71.3268 50.4812 75.1401 41.9878C76.7601 38.3812 78.8868 34.9746 81.6535 32.1279C84.6002 29.0879 88.1868 26.9279 92.1735 25.5412C96.4868 24.0412 101.053 23.1279 105.56 22.4345C109.987 21.7545 114.547 21.4479 119 22.0145C123.133 22.5412 127.127 23.9278 130.594 26.2478C133.727 28.3478 136.38 31.1478 138.52 34.2345C140.747 37.4412 142.513 40.9745 143.887 44.6345C145.467 48.8545 146.787 53.3479 147.073 57.8612L147.08 57.8545ZM131.887 59.6745C132.507 59.3945 132.653 58.4879 132.333 57.9479C132.32 57.9212 132.3 57.9012 132.287 57.8812C132.074 55.2012 131.86 52.5212 131.653 49.8345C131.613 49.3145 131.287 48.8078 130.794 48.6412C130.454 48.3812 129.98 48.3079 129.493 48.6079C127.673 49.7279 125.534 50.0678 123.44 50.3012C120.927 50.5812 118.4 50.7812 115.874 50.9012C110.774 51.1412 105.667 51.0545 100.58 50.6412C99.9535 50.5878 99.4202 51.1612 99.3335 51.7545C99.2335 51.8812 99.1601 52.0346 99.1335 52.2012C98.6068 55.7079 98.6002 59.2145 99.0935 62.7212C99.1868 63.3945 100.053 63.7679 100.647 63.6012C100.7 63.5879 100.747 63.5612 100.8 63.5412C108.867 64.9746 117.22 64.5412 125.08 62.2212C127.407 61.5278 129.673 60.6679 131.887 59.6745ZM109.78 67.6345V67.5079C109.78 67.3345 109.747 67.1679 109.674 67.0212C109.62 66.8679 109.533 66.7279 109.413 66.6145C109.3 66.4945 109.16 66.4079 109.007 66.3545C108.86 66.2812 108.7 66.2412 108.52 66.2478L108.187 66.2946C107.967 66.3546 107.787 66.4612 107.627 66.6145L107.427 66.8746C107.314 67.0746 107.254 67.2812 107.254 67.5079V67.6345C107.254 67.8078 107.287 67.9746 107.367 68.1212C107.42 68.2746 107.5 68.4145 107.627 68.5279C107.74 68.6479 107.88 68.7412 108.034 68.7879C108.187 68.8612 108.347 68.9012 108.52 68.8945C108.634 68.8812 108.74 68.8612 108.86 68.8479C109.074 68.7879 109.26 68.6812 109.413 68.5279L109.614 68.2679C109.727 68.0679 109.787 67.8612 109.787 67.6345H109.78Z" fill="white"/>
<path d="M132.333 57.9539C132.653 58.4939 132.507 59.4006 131.887 59.6806C129.673 60.6739 127.407 61.5405 125.08 62.2272C117.22 64.5472 108.867 64.9806 100.8 63.5473C100.747 63.5673 100.707 63.5939 100.647 63.6072C100.053 63.7672 99.1866 63.4005 99.0933 62.7272C98.6 59.2139 98.6066 55.7139 99.1333 52.2072C99.1599 52.0339 99.2333 51.8872 99.3333 51.7605C99.42 51.1672 99.9533 50.6005 100.58 50.6472C105.667 51.0605 110.773 51.1539 115.873 50.9072C118.4 50.7872 120.927 50.5872 123.44 50.3072C125.533 50.0672 127.673 49.7339 129.493 48.6139C129.98 48.3139 130.453 48.3939 130.793 48.6472C131.287 48.8205 131.613 49.3205 131.653 49.8405C131.867 52.5272 132.08 55.2072 132.287 57.8872C132.3 57.9072 132.32 57.9272 132.333 57.9539ZM129.76 57.8606C129.6 55.7539 129.433 53.6539 129.267 51.5473C127.62 52.2273 125.847 52.5339 124.067 52.7539C121.513 53.0672 118.94 53.2739 116.367 53.4072C111.42 53.6672 106.46 53.6072 101.52 53.2405C101.16 55.8339 101.12 58.5006 101.407 61.1072C103.373 61.4539 105.36 61.6938 107.353 61.8005C114.993 62.2072 122.727 60.8739 129.76 57.8672V57.8606Z" fill="white"/>
<path d="M109.78 67.5129V67.6396C109.78 67.8662 109.726 68.0796 109.606 68.2729L109.406 68.533C109.253 68.6863 109.066 68.7929 108.853 68.8529C108.74 68.8663 108.626 68.8862 108.513 68.8996C108.34 68.8996 108.18 68.8663 108.026 68.793C107.873 68.7396 107.733 68.653 107.62 68.533C107.5 68.4196 107.413 68.2796 107.36 68.1263C107.28 67.9796 107.246 67.8196 107.246 67.6396V67.5129C107.246 67.2863 107.306 67.073 107.42 66.8796L107.62 66.6196C107.78 66.4663 107.96 66.3596 108.18 66.2996L108.513 66.2529C108.686 66.2529 108.853 66.2863 109 66.3596C109.153 66.413 109.293 66.4996 109.406 66.6196C109.526 66.733 109.62 66.873 109.666 67.0263C109.74 67.173 109.78 67.3396 109.773 67.5129H109.78Z" fill="white"/>
<path d="M81.9265 96.1533C81.9265 96.1533 81.9798 96.1534 82.0598 96.1667C82.3065 96.1867 82.5531 96.1867 82.8065 96.18H82.8931C83.0065 96.1667 83.1198 96.14 83.2332 96.1067C83.3532 96.0734 83.4732 96.04 83.5999 96C83.6399 95.9867 83.6665 95.98 83.6865 95.9733C83.7065 95.96 83.7265 95.9467 83.7665 95.9267C83.8799 95.86 83.9865 95.8 84.0932 95.7333C84.1332 95.7067 84.1598 95.6934 84.1732 95.6867C84.1865 95.6734 84.2065 95.6534 84.2398 95.6134C84.3132 95.54 84.3865 95.4667 84.4599 95.3867C84.4732 95.3667 84.4932 95.34 84.4998 95.3334C84.5465 95.2534 84.5931 95.18 84.6331 95.0934C84.6331 95.0734 84.7131 94.9067 84.7265 94.8867C84.7531 94.7933 84.7732 94.6934 84.7932 94.6C84.7932 94.6 84.7932 94.5956 84.7932 94.5867C84.7932 94.5867 84.7932 94.5534 84.7799 94.5334C84.7799 94.4667 84.7799 94.4067 84.7799 94.3467C84.7799 94.3334 84.7799 94.3134 84.7665 94.2934C84.7665 94.2801 84.6932 94.0867 84.6932 94.0667C84.6199 93.9133 84.5332 93.7667 84.4332 93.6333C84.4065 93.6133 84.2932 93.48 84.2932 93.4733L84.0932 93.2734C84.0265 93.2134 83.9598 93.1534 83.8865 93.0934L83.8465 93.0533C83.8465 93.0533 83.8132 93.04 83.7865 93.02C83.5932 92.9067 83.4132 92.78 83.2132 92.6867C83.1866 92.6734 83.0132 92.6067 83.0132 92.6C82.9399 92.5734 82.8665 92.5467 82.7932 92.5267C82.6465 92.48 82.4932 92.4534 82.3465 92.42C82.2932 92.42 82.1865 92.3933 82.1598 92.3867C82.0665 92.3867 81.9732 92.3867 81.8799 92.3867C81.6999 92.3867 81.5198 92.4134 81.3398 92.4467C81.2198 92.48 81.0931 92.52 80.9731 92.56C80.9198 92.5867 80.8198 92.6333 80.7998 92.6467C80.7065 92.7 80.6265 92.7533 80.5399 92.8133C80.5065 92.84 80.4265 92.9067 80.4065 92.9267C80.3465 92.9867 80.2865 93.0467 80.2332 93.1134C80.2332 93.1267 80.1198 93.2934 80.0732 93.3734C80.0732 93.3867 79.9798 93.6333 79.9798 93.6333C79.9465 93.7267 79.9265 93.82 79.9132 93.9133C79.8998 93.9733 79.8931 94.0067 79.8865 94.0267V94.14C79.8865 94.3933 79.8731 94.64 79.8865 94.8867C79.8865 94.9333 79.8865 94.9467 79.8865 94.9534C79.8865 94.9734 79.8998 94.9867 79.8998 95.0267C79.9132 95.0734 79.9265 95.12 79.9332 95.1667C80.0065 95.24 80.0865 95.3133 80.1665 95.3867C80.1798 95.3867 80.1998 95.4067 80.2198 95.42C80.3131 95.4867 80.4132 95.5534 80.5132 95.6134C80.6132 95.68 80.7265 95.7401 80.8332 95.7934C80.8332 95.7934 80.9332 95.8467 80.9998 95.8801C81.0532 95.9001 81.2065 95.9601 81.2065 95.9601C81.3199 96.0001 81.4398 96.04 81.5531 96.0733C81.6998 96.1133 81.8532 96.1467 81.9998 96.1734C81.9665 96.1734 81.9265 96.1734 81.9265 96.1734V96.1533ZM86.8198 90.8933C89.9465 93.3867 91.2532 98.1267 88.9332 101.58C86.7065 104.9 82.6865 107.073 78.6532 106.42C74.9132 105.807 71.8065 102.613 71.7398 98.7667C71.6732 95.22 73.9532 91.3467 77.3198 90.0067C80.3198 88.4667 84.0798 88.7067 86.8265 90.8933H86.8198ZM86.5332 100.7C86.4732 100.753 86.4132 100.813 86.3465 100.873C86.3332 100.907 86.3332 100.933 86.3198 100.967C86.3932 100.88 86.4665 100.793 86.5332 100.707V100.7Z" fill="white"/>
<path d="M80.927 110.388C87.525 110.388 92.8737 105.278 92.8737 98.9749C92.8737 92.6714 87.525 87.5615 80.927 87.5615C74.3291 87.5615 68.9803 92.6714 68.9803 98.9749C68.9803 105.278 74.3291 110.388 80.927 110.388Z" fill="white"/>
<path d="M150.181 95.7881C156.164 95.7881 161.014 91.1557 161.014 85.4414C161.014 79.7271 156.164 75.0947 150.181 75.0947C144.198 75.0947 139.347 79.7271 139.347 85.4414C139.347 91.1557 144.198 95.7881 150.181 95.7881Z" fill="white"/>
<path d="M150.647 77.188C150.701 77.1747 150.741 77.1546 150.787 77.1346C151.107 77.0213 151.441 77.0813 151.714 77.2413C153.094 77.4146 154.447 77.9547 155.587 78.8747C158.347 81.0947 159.481 85.3013 157.447 88.3613C155.527 91.2547 152.041 93.188 148.534 92.708C145.101 92.2347 142.207 89.3813 142.134 85.848C142.074 82.6813 144.107 79.2414 147.107 78.048C148.207 77.488 149.421 77.1947 150.647 77.188ZM154.141 81.528C154.141 81.4613 154.141 81.3946 154.127 81.328C154.087 81.1813 154.054 81.048 154.001 80.9146C153.987 80.8813 153.987 80.8546 153.981 80.8213C153.741 80.6213 153.494 80.448 153.227 80.2947C152.574 79.928 151.867 79.7213 151.141 79.6747C151.127 79.688 151.107 79.688 151.094 79.6947C151.047 79.708 151.007 79.728 150.961 79.748H150.947C150.714 79.8613 150.481 79.9747 150.267 80.1147C150.221 80.1413 150.181 80.168 150.134 80.2013C150.047 80.2813 149.961 80.368 149.874 80.4547L149.861 80.4679L149.801 80.5613C149.774 80.6013 149.754 80.648 149.727 80.688C149.714 80.748 149.694 80.808 149.674 80.868C149.674 80.8547 149.674 80.8346 149.674 80.8213C149.661 80.8346 149.661 80.8813 149.654 80.9347C149.654 80.9213 149.654 80.9013 149.667 80.868C149.667 80.908 149.654 80.9347 149.654 80.948C149.654 81.0147 149.654 81.0813 149.667 81.1413C149.694 81.208 149.727 81.3147 149.741 81.348C149.754 81.3813 149.754 81.4013 149.761 81.4146C149.774 81.448 149.794 81.4746 149.807 81.5013C149.854 81.588 149.907 81.668 149.961 81.748C149.981 81.768 150.114 81.928 150.141 81.9614C150.187 82.0014 150.227 82.0413 150.274 82.0746L150.287 82.088C150.407 82.168 150.527 82.2413 150.654 82.3146C150.707 82.3413 150.767 82.368 150.821 82.3946C150.834 82.3946 150.834 82.3946 150.854 82.408C150.987 82.4546 151.127 82.5014 151.267 82.5414C151.407 82.5814 151.547 82.6146 151.694 82.6413C151.734 82.6546 151.974 82.6747 151.994 82.688C152.274 82.7147 152.547 82.7413 152.827 82.728C152.901 82.728 152.974 82.728 153.047 82.7147C153.061 82.7147 153.081 82.7147 153.101 82.7013C153.194 82.6747 153.274 82.648 153.361 82.6213C153.387 82.6013 153.567 82.5146 153.601 82.488C153.621 82.4746 153.634 82.4747 153.641 82.4614C153.674 82.4347 153.701 82.408 153.734 82.3814C153.774 82.3414 153.901 82.168 153.907 82.168C153.941 82.1146 153.974 82.0546 154.001 82.0013C154.001 81.988 154.081 81.7547 154.094 81.7147C154.094 81.6947 154.094 81.6813 154.107 81.6747C154.107 81.6213 154.107 81.568 154.121 81.5213L154.141 81.528ZM148.167 90.0546C148.074 90.0213 147.994 89.988 147.907 89.9547C147.874 89.9413 147.847 89.9213 147.814 89.9013C147.741 89.888 147.681 89.868 147.614 89.8547C147.794 89.928 147.981 89.9946 148.167 90.0546Z" fill="#202020"/>
<path d="M81.5539 97.2564C81.7005 97.2964 81.8539 97.3298 82.0006 97.3565C81.9672 97.3565 81.9272 97.3565 81.9272 97.3565C81.9406 97.3565 81.9805 97.3565 82.0605 97.3698C82.3072 97.3898 82.5539 97.3898 82.8072 97.3832H82.8939C83.0072 97.3698 83.1206 97.3431 83.2339 97.3098C83.3539 97.2764 83.4739 97.2365 83.6006 97.2031C83.6406 97.1898 83.6673 97.1831 83.6873 97.1765C83.7073 97.1631 83.7273 97.1498 83.7673 97.1298C83.8806 97.0632 83.9872 97.0031 84.0939 96.9365C84.1339 96.9098 84.1606 96.8964 84.1739 96.8897C84.1872 96.8764 84.2072 96.8498 84.2406 96.8164C84.3139 96.7431 84.3873 96.6698 84.4606 96.5898C84.4739 96.5698 84.4939 96.5431 84.5006 96.5365C84.5472 96.4565 84.5939 96.3832 84.6339 96.2965C84.6339 96.2765 84.7139 96.1098 84.7272 96.0898C84.7539 95.9964 84.7739 95.8964 84.7939 95.8031C84.7939 95.8031 84.7939 95.7987 84.7939 95.7898C84.7939 95.7898 84.7939 95.7564 84.7806 95.7364C84.7806 95.6698 84.7806 95.6098 84.7806 95.5498C84.7806 95.5365 84.7806 95.5164 84.7673 95.4964C84.7673 95.4831 84.6939 95.2898 84.6939 95.2631C84.6206 95.1165 84.5339 94.9631 84.4339 94.8364C84.4073 94.8164 84.2939 94.6831 84.2939 94.6765L84.0939 94.4764C84.0272 94.4164 83.9605 94.3565 83.8872 94.2965L83.8472 94.2564C83.8472 94.2564 83.8139 94.2431 83.7873 94.2231C83.5939 94.1097 83.4139 93.9832 83.2139 93.8832C83.1873 93.8698 83.0139 93.8097 83.0139 93.8031C82.9406 93.7764 82.8673 93.7498 82.7939 93.7298C82.6473 93.6831 82.4939 93.6565 82.3472 93.6231C82.2939 93.6098 82.1872 93.5964 82.1606 93.5898C82.0672 93.5898 81.9739 93.5898 81.8806 93.5898C81.7006 93.5898 81.5206 93.6164 81.3406 93.6498C81.2206 93.6831 81.0939 93.7165 80.9739 93.7631C80.9272 93.7898 80.8205 93.8365 80.8005 93.8498C80.7072 93.9031 80.6273 93.9565 80.5406 94.0165C80.5073 94.0431 80.4272 94.1098 80.4072 94.1298C80.3472 94.1832 80.2872 94.2498 80.2339 94.3164C80.2339 94.3298 80.1206 94.4964 80.0739 94.5764C80.0739 94.5898 79.9806 94.8364 79.9806 94.8364C79.9472 94.9298 79.9272 95.0165 79.9139 95.1165C79.9006 95.1698 79.8939 95.2098 79.8872 95.2298V95.3431C79.8872 95.5965 79.8739 95.8431 79.8872 96.0898C79.8872 96.1364 79.8872 96.1431 79.8872 96.1498C79.8872 96.1764 79.9006 96.1897 79.9006 96.2231C79.9139 96.2764 79.9273 96.3165 79.9339 96.3698C80.0073 96.4431 80.0872 96.5164 80.1672 96.5898C80.1806 96.5898 80.2005 96.6098 80.2205 96.6231C80.3139 96.6898 80.4139 96.7564 80.5139 96.8164C80.6139 96.8831 80.7272 96.9431 80.8339 96.9964C80.8339 96.9964 80.9339 97.0498 81.0006 97.0831C81.0539 97.1031 81.2073 97.1631 81.2073 97.1631C81.3206 97.2031 81.4405 97.2431 81.5539 97.2765V97.2564ZM86.8206 92.0965C89.9472 94.5898 91.2539 99.3298 88.9339 102.783C86.7073 106.103 82.6872 108.276 78.6539 107.623C74.9139 107.01 71.8072 103.816 71.7406 99.9697C71.6739 96.4231 73.9539 92.5498 77.3206 91.2098C80.3206 89.6698 84.0806 89.9098 86.8272 92.0965H86.8206ZM86.5339 101.903C86.4739 101.956 86.4139 102.016 86.3472 102.076C86.3339 102.11 86.3339 102.136 86.3206 102.17C86.3939 102.083 86.4673 101.996 86.5339 101.91V101.903Z" fill="#202020"/>
</svg>
