<svg width="202" height="200" viewBox="0 0 202 200" fill="none" xmlns="http://www.w3.org/2000/svg">
<path d="M183.264 3.00488H18.2093C9.75842 3.00488 2.90759 9.85571 2.90759 18.3066V182.672C2.90759 191.123 9.75842 197.973 18.2093 197.973H183.264C191.714 197.973 198.565 191.123 198.565 182.672V18.3066C198.565 9.85571 191.714 3.00488 183.264 3.00488Z" fill="#252525"/>
<path d="M151.449 81.5326C151.462 81.8739 151.295 82.1816 151.074 82.4292C150.86 82.6634 150.492 82.7972 150.184 82.7972C149.876 82.7972 149.488 82.6634 149.288 82.4292C148.712 81.7534 148.284 80.9773 148.09 80.1075C147.896 79.231 147.903 78.3278 148.13 77.4647C148.311 76.7822 149.027 76.4276 149.689 76.5815C150.358 76.7354 150.74 77.4981 150.572 78.1337C150.539 78.2475 150.525 78.3612 150.505 78.475C150.479 78.7292 150.479 78.9835 150.505 79.2444C150.552 79.4987 150.619 79.7529 150.713 80.0005C150.833 80.2547 150.974 80.5023 151.154 80.7364C151.328 80.9706 151.435 81.2182 151.455 81.5259L151.449 81.5326Z" fill="white"/>
<path d="M145.902 54.8857C145.902 54.8857 145.889 54.9058 145.889 54.9125V54.8991C145.889 54.8991 145.902 54.8991 145.902 54.8857Z" fill="white"/>
<path d="M145.521 53.1178C145.521 53.1178 145.534 53.1178 145.534 53.1312C145.481 53.1312 145.434 53.0777 145.434 53.0576C145.447 53.071 145.488 53.0978 145.521 53.1178Z" fill="white"/>
<path d="M114.656 86.9812C114.656 86.9812 114.636 86.9812 114.623 86.9812C114.556 86.9946 114.476 87.0147 114.449 87.0213C114.315 87.0481 114.188 87.0749 114.061 87.1083C113.372 87.2823 112.716 86.8942 112.502 86.2251C112.294 85.5895 112.743 84.8402 113.385 84.6729C116.015 84.0105 118.758 84.6729 120.845 86.379C121.394 86.8273 121.273 87.7038 120.845 88.1655C120.357 88.7007 119.567 88.587 119.059 88.1655C119.032 88.1454 119.019 88.132 119.005 88.1253C118.979 88.1053 118.952 88.0785 118.925 88.0584C118.818 87.9848 118.704 87.9112 118.597 87.8443C118.376 87.7038 118.142 87.5767 117.901 87.4629C117.848 87.4362 117.801 87.4094 117.747 87.3893C117.627 87.3425 117.507 87.2957 117.379 87.2555C117.145 87.1819 116.911 87.115 116.664 87.0615C116.55 87.0347 116.443 87.0147 116.322 86.9946C116.289 86.9946 116.249 86.9812 116.209 86.9812C116.195 86.9812 116.188 86.9812 116.168 86.9812C115.907 86.9611 115.647 86.9411 115.379 86.9411C115.138 86.9411 114.877 86.9411 114.643 86.9812H114.656Z" fill="white"/>
<path d="M185.538 0H16.0682C7.45051 0 0.445312 6.97846 0.445312 15.5627V184.437C0.445312 193.022 7.45721 200 16.0682 200H185.538C194.156 200 201.161 193.022 201.161 184.437V15.5694C201.161 6.98515 194.149 0.00669075 185.538 0.00669075V0ZM156.306 114.171C155.684 114.766 155.028 115.329 154.339 115.837C149.127 119.657 142.544 121.009 136.227 121.671C132.039 122.113 127.824 122.287 123.615 122.22C121.983 122.193 121.983 124.716 123.615 124.742C127.583 124.809 131.544 124.649 135.485 124.267C138.957 123.926 142.436 123.438 145.809 122.508C147.468 122.053 149.107 121.477 150.679 120.775C151.128 126.783 150.9 132.852 149.917 138.806C149.408 141.837 148.773 144.908 147.508 147.725C146.197 150.649 144.491 153.392 142.898 156.169C141.065 159.38 139.232 162.592 137.398 165.797C136.589 167.209 138.777 168.48 139.58 167.068C140.904 164.753 142.229 162.438 143.554 160.123C144.383 161.414 145.22 162.712 146.049 164.004C146.792 165.168 147.602 166.305 148.204 167.55C148.311 167.764 148.411 167.978 148.505 168.192C148.559 168.313 148.619 168.44 148.666 168.56C148.692 168.614 148.699 168.634 148.699 168.634C148.699 168.647 148.712 168.667 148.746 168.754C148.967 169.283 149.174 169.818 149.368 170.36C149.796 171.551 150.191 172.762 150.559 173.986C152.218 179.486 153.449 185.113 154.587 190.733C154.955 192.587 155.309 194.44 155.644 196.3L153.396 196.333C150.372 196.367 147.354 196.38 144.33 196.387C139.988 196.407 135.645 196.42 131.303 196.434C127.683 196.447 124.07 196.447 120.451 196.454C120.417 196.327 120.377 196.2 120.297 196.066C116.416 189.81 113.606 182.985 111.204 176.047C108.762 169.008 106.715 161.843 104.299 154.791C101.924 147.852 99.1874 140.967 95.3871 134.665C93.4802 131.513 91.3124 128.449 88.8234 125.719C88.1477 124.977 87.3314 124.308 86.3078 124.127C85.7591 124.033 85.2372 124.073 84.7354 124.234C78.6134 122.708 72.1568 123.217 65.9143 123.438C58.7151 123.692 51.5024 123.953 44.3032 124.207C40.6433 124.341 36.9768 124.468 33.3103 124.602C31.7179 120.828 30.4868 116.847 29.7976 112.819C29.0817 108.611 29.2891 104.403 30.2526 100.248C32.2933 91.4626 37.1976 83.6545 42.8848 76.7563C46.1231 72.8222 49.629 69.1222 53.1417 65.4222C53.5699 66.0846 54.0182 66.7269 54.4865 67.3558C56.4402 70.0053 58.6281 72.6549 61.6055 74.2005C64.5561 75.7259 67.9149 76.2278 71.2 76.2947C74.3179 76.3616 77.4692 76.0672 80.5068 75.3379C86.582 73.886 91.948 70.4804 95.4339 65.2616C98.7191 60.3506 99.9703 54.2955 99.6692 48.4544C99.6491 48.0731 99.6223 47.6984 99.5956 47.3237C112.074 51.1174 124.111 56.2492 135.478 62.6321C141.46 65.9909 147.254 69.6909 152.814 73.7053C155.47 75.6256 158.133 77.586 160.602 79.7337C162.957 81.7811 165.178 84.1228 166.45 87.0132C167.487 89.3751 167.694 92.1785 166.858 94.634C166.47 95.7848 165.794 96.8152 164.884 97.6248C163.726 98.6552 162.214 99.2105 160.769 99.6922C153.904 101.98 146.759 103.479 139.586 104.409C124.706 106.343 109.658 105.955 94.6979 105.399C86.9099 105.105 79.1285 104.771 71.3405 104.71C67.4866 104.677 63.6395 104.71 59.7856 104.837C56.9153 104.931 53.9312 105.145 51.3285 106.47C50.0572 107.119 49.0068 108.062 48.2106 109.233C47.294 110.585 49.4885 111.849 50.3985 110.511C51.8503 108.363 54.7006 107.748 57.1294 107.514C60.7491 107.166 64.4424 107.226 68.0755 107.219C75.9505 107.206 83.8188 107.514 91.6871 107.808C106.935 108.39 122.264 108.946 137.459 107.199C144.892 106.343 152.279 104.958 159.444 102.77C160.12 102.563 160.803 102.348 161.472 102.121C161.699 106.276 159.919 110.264 157.129 113.321C156.681 113.435 156.407 113.77 156.306 114.171ZM31.6643 138.612C31.39 140.419 31.1291 142.326 31.1625 144.212C31.1358 142.332 31.39 140.419 31.6643 138.612ZM72.8861 68.3929C78.145 70.2128 84.3942 68.239 87.9336 64.0305C90.262 61.2672 91.0649 57.8683 91.6537 54.4025C93.3732 54.5497 95.0793 54.7638 96.7788 55.0314C96.4442 56.945 95.909 58.8117 95.1195 60.5915C92.858 65.6831 88.7298 69.7243 83.5177 71.7583C80.8615 72.7954 78.0447 73.4043 75.2078 73.6384C72.2906 73.886 69.253 73.8793 66.3894 73.237C64.8973 72.8958 63.4521 72.3873 62.1341 71.5911C60.8561 70.8216 59.7655 69.7912 58.7753 68.6873C56.7614 66.4392 54.9482 63.9034 53.6502 61.1736C56.8283 59.6681 60.1201 58.3902 63.4789 57.3598C64.362 62.3645 68.0152 66.7068 72.8794 68.3862L72.8861 68.3929ZM70.9391 56.9918C71.0327 56.9651 71.1198 56.9383 71.2134 56.9182C71.2134 56.9918 71.2134 57.0654 71.2268 57.1323C71.1331 57.0788 71.0394 57.032 70.9458 56.9918H70.9391ZM83.3237 55.3927C83.3705 55.5333 83.4106 55.6738 83.4374 55.821C83.4508 55.8879 83.4642 55.9548 83.4775 56.015C83.4909 56.1689 83.5043 56.3294 83.4976 56.4833C83.4976 56.6038 83.4842 56.7309 83.4775 56.8513C83.4775 56.8513 83.4775 56.8558 83.4775 56.8647C83.4642 56.9182 83.4575 56.9785 83.4441 57.0253C83.3571 57.4067 83.2969 57.5271 83.1765 57.7613C83.0293 58.0423 82.8553 58.3099 82.668 58.5709C82.6546 58.5709 82.6546 58.5842 82.6546 58.5842C82.6546 58.5976 82.6412 58.5976 82.6278 58.6177C82.5877 58.6712 82.5475 58.718 82.5074 58.7716C82.3736 58.9188 82.2397 59.0593 82.0926 59.1931L82.0524 59.2332C82.0524 59.2332 82.0524 59.2332 82.0391 59.2332C81.9855 59.2734 81.932 59.3068 81.8784 59.3403C81.8383 59.3671 81.8182 59.3804 81.7982 59.3938C81.7246 59.4273 81.6577 59.4473 81.5841 59.4674C81.5038 59.4942 81.4168 59.5143 81.3365 59.5343C81.3365 59.5343 81.3031 59.5343 81.2696 59.5477C81.2228 59.5477 81.1559 59.5611 81.1425 59.5678C81.0488 59.5678 80.9551 59.5812 80.8615 59.5812C80.7344 59.5812 80.6005 59.5678 80.4734 59.5678H80.46C80.3931 59.5544 80.3262 59.541 80.266 59.5343C80.1389 59.5009 80.0117 59.4741 79.8913 59.4406C79.8177 59.4139 79.7508 59.3871 79.6772 59.3671C79.6571 59.3537 79.6437 59.3537 79.6237 59.3537C79.3761 59.2265 79.1353 59.0994 78.9078 58.9455C78.9078 58.9455 78.8877 58.9322 78.8743 58.9188C78.8408 58.892 78.7807 58.8452 78.774 58.8385C78.6468 58.7314 78.5264 58.6177 78.4126 58.4973C78.3792 58.4571 78.3391 58.4103 78.3056 58.3701C78.3056 58.3701 78.3011 58.3701 78.2922 58.3701C78.2253 58.2564 78.1517 58.156 78.0848 58.049C78.0179 57.9352 77.9644 57.8282 77.9108 57.7077C77.8974 57.6743 77.8306 57.4803 77.8172 57.42C77.7704 57.2662 77.7436 57.1056 77.7034 56.945C77.7034 56.8647 77.6901 56.7844 77.6901 56.7041C77.6901 56.5369 77.6901 56.3629 77.6901 56.2023C77.6901 56.1488 77.7034 56.0886 77.7034 56.0351C77.7034 56.0217 77.7168 56.0016 77.7168 55.9815C77.7503 55.8143 77.7904 55.647 77.8372 55.4864C77.864 55.4128 77.8908 55.3459 77.9108 55.2723C77.9108 55.2589 77.9108 55.2589 77.9108 55.2455C77.9108 55.2389 77.9242 55.2255 77.9242 55.2121C77.9911 55.0783 78.058 54.9445 78.1383 54.8106C78.1785 54.7504 78.2253 54.6902 78.2655 54.6233C78.2788 54.6032 78.2788 54.5899 78.2855 54.5832C78.2989 54.5698 78.319 54.5497 78.3391 54.5229C78.3524 54.5029 78.3658 54.4828 78.3792 54.4627C79.7441 54.3356 81.109 54.2486 82.4739 54.2018C82.5275 54.2553 82.5944 54.3088 82.6479 54.3624C82.6814 54.4025 82.7215 54.4427 82.7616 54.4828C82.775 54.4962 82.8085 54.5363 82.8353 54.5765C82.862 54.6099 82.8955 54.6568 82.9088 54.6701C82.9423 54.717 82.9691 54.7638 83.0025 54.8106C83.0895 54.9512 83.1564 55.105 83.2434 55.2522V55.2656C83.2635 55.3191 83.2835 55.366 83.3036 55.4195L83.3237 55.3927ZM61.5586 55.3325C58.5478 56.3094 55.6173 57.4936 52.7536 58.8318C52.1715 56.8714 51.9775 54.8441 52.1448 52.7633C52.1582 52.5425 52.1849 52.3217 52.205 52.0942C52.2183 51.9805 52.2384 51.86 52.2518 51.7463C52.2518 51.7195 52.2518 51.7061 52.2518 51.6928C52.2518 51.666 52.2652 51.6325 52.2652 51.579C52.3522 51.0371 52.4458 50.4951 52.5663 49.9532C52.8339 48.7622 53.2019 47.598 53.6635 46.4673C53.6635 46.4539 53.6769 46.4472 53.6769 46.4338C53.6769 46.4338 53.6769 46.4294 53.6769 46.4204C53.7104 46.3468 53.7372 46.2799 53.7706 46.2063C53.8442 46.0525 53.9111 45.8919 53.9914 45.738C54.1453 45.4168 54.2992 45.1091 54.4664 44.7946C54.801 44.179 55.169 43.5836 55.5637 43.0082C56.3399 41.8841 57.3301 40.7534 58.5545 39.6695C59.2704 39.0339 59.6384 38.7528 60.4011 38.2243C61.1973 37.6823 62.027 37.1872 62.8901 36.7389C64.7769 35.7621 66.7105 35.0662 68.8181 34.5176C73.495 33.2999 78.6067 32.7245 83.3371 33.8084C87.9537 34.8655 92.209 37.4147 94.8987 41.3555C95.5945 42.3859 96.2167 43.4832 96.6985 44.634C97.1401 47.2166 97.294 49.8929 97.0866 52.5358C85.2238 50.6758 72.9664 51.6125 61.552 55.3191L61.5586 55.3325ZM145.929 53.7535C145.956 53.8405 145.976 53.9275 145.996 54.0145C145.996 54.0546 146.009 54.1081 146.009 54.1349C146.009 54.2352 146.009 54.3423 146.009 54.4427C146.009 54.456 146.009 54.4761 146.009 54.5096C146.009 54.5096 146.009 54.5229 146.009 54.5296C145.983 54.6233 145.956 54.7237 145.929 54.824C145.929 54.8374 145.916 54.8709 145.902 54.8909C145.902 54.8909 145.909 54.8909 145.909 54.8776C145.909 54.8909 145.902 54.8976 145.896 54.9043V54.9177C145.842 55.0248 145.782 55.1117 145.715 55.2121C145.681 55.2522 145.655 55.2857 145.621 55.3191C145.548 55.3994 145.467 55.473 145.38 55.5533C145.36 55.5667 145.28 55.6336 145.253 55.647C145.146 55.7206 145.032 55.7875 144.919 55.8477C144.865 55.8745 144.818 55.9012 144.765 55.9213C144.738 55.9347 144.691 55.9481 144.664 55.9615C144.611 55.9748 144.557 55.9949 144.504 56.015C144.377 56.0551 144.25 56.0886 144.123 56.1087C144.123 56.1087 144.123 56.1087 144.116 56.1087C144.116 56.1087 144.102 56.1087 144.062 56.122C144.036 56.122 144.002 56.122 143.982 56.1354C143.868 56.1488 143.755 56.1488 143.641 56.1488C143.574 56.1488 143.507 56.1488 143.447 56.1488C143.433 56.1488 143.407 56.1488 143.373 56.1488C143.34 56.1488 143.3 56.1354 143.279 56.1354C143.199 56.1153 143.119 56.0886 143.039 56.0685C143.039 56.0685 143.039 56.0685 143.039 56.0551C142.998 56.0217 142.952 56.0016 142.905 55.9815C142.878 55.9615 142.851 55.9347 142.831 55.9146C142.798 55.8812 142.778 55.8544 142.744 55.821C142.677 55.7139 142.61 55.6068 142.55 55.4931C142.55 55.4797 142.537 55.4797 142.537 55.4663C142.537 55.453 142.523 55.4329 142.523 55.4061C142.483 55.2991 142.45 55.192 142.43 55.0783C142.403 54.9846 142.39 54.8909 142.37 54.7973C142.37 54.7237 142.356 54.6568 142.356 54.5832C142.356 54.4627 142.356 54.3356 142.356 54.2152C142.356 54.1616 142.356 54.1081 142.363 54.0546C142.396 54.0011 142.436 53.7067 142.443 53.6598C142.457 53.6063 142.477 53.5595 142.49 53.506C142.503 53.4792 142.51 53.4524 142.517 53.4324C142.517 53.419 142.53 53.4123 142.53 53.3989C142.557 53.3387 142.584 53.2852 142.624 53.2249C142.651 53.1781 142.677 53.1313 142.704 53.0911C142.738 53.0577 142.764 53.0175 142.798 52.9841C142.798 52.9841 142.811 52.9707 142.818 52.9707C142.905 52.9305 143.079 52.8034 143.119 52.7834C143.159 52.77 143.193 52.7365 143.226 52.7098C143.795 52.7098 144.363 52.7098 144.925 52.7298C144.999 52.8034 145.079 52.8636 145.186 52.9105C145.28 52.9506 145.367 52.9975 145.454 53.0443C145.454 53.0309 145.467 53.0443 145.528 53.0978L145.541 53.1112C145.541 53.1112 145.554 53.1112 145.554 53.1246C145.608 53.1781 145.661 53.2383 145.715 53.2919C145.742 53.3186 145.762 53.3588 145.782 53.3855C145.822 53.4524 145.855 53.5193 145.889 53.5862C145.902 53.6331 145.942 53.7134 145.949 53.7401L145.929 53.7535ZM145.896 53.6398C145.896 53.6398 145.902 53.6531 145.909 53.6598C145.922 53.6866 145.929 53.7 145.936 53.7134C145.922 53.7 145.902 53.6665 145.896 53.6398ZM146.986 63.5956C148.96 62.9065 150.74 61.7155 152.158 60.1833C153.623 58.611 154.721 56.7309 155.423 54.7103C155.718 54.8106 156.005 54.9244 156.293 55.0314C154.366 59.802 150.613 63.7562 145.956 65.9842C144.986 65.3687 144.022 64.7598 143.045 64.1576C144.383 64.1978 145.722 64.0305 146.993 63.5956H146.986ZM129.657 51.8935C127.616 52.3418 125.589 52.8503 123.555 53.3387C123.381 53.3788 123.247 53.4524 123.127 53.5327C119.594 51.9202 116.015 50.4215 112.395 49.0432C113.68 48.7488 114.951 48.334 116.169 47.7987C118.979 46.5743 121.287 44.6675 123.475 42.5599C125.669 40.4657 127.837 38.5254 130.621 37.2474C133.123 36.0966 135.9 35.4677 138.636 35.2402C143.755 34.8053 149.93 35.3004 153.911 38.9201C157.705 42.3658 158.307 47.9125 157.076 52.6629C148.311 49.1837 138.69 49.9264 129.65 51.9002L129.657 51.8935ZM132.086 57.9218C130.286 56.9785 128.48 56.0685 126.653 55.192C128.178 54.8307 129.711 54.4828 131.25 54.1683C131.216 55.5332 131.517 56.7911 132.093 57.9218H132.086ZM198.619 184.437C198.619 191.63 192.744 197.478 185.525 197.478H159.498C162.335 187.602 165.473 177.82 168.918 168.145C171.407 161.167 174.05 154.235 176.854 147.371C182.18 148.448 187.372 150.167 192.269 152.529C192.885 152.823 193.634 152.696 194.002 152.081C194.216 151.72 194.216 151.224 194.015 150.836C194.149 141.918 192.517 132.985 189.191 124.696C188.91 123.986 188.288 123.645 187.599 123.839C183.779 122.173 179.938 120.561 176.064 119.002C172.197 117.443 168.31 115.81 164.335 114.532C162.99 114.097 161.612 113.743 160.214 113.522C160.749 112.826 161.237 112.097 161.686 111.321C163.425 108.29 164.349 104.75 163.927 101.265C163.927 101.224 163.914 101.191 163.907 101.151C165.499 100.395 166.931 99.3911 168.015 97.879C169.668 95.5707 170.136 92.5398 169.775 89.7698C168.912 83.1527 163.492 78.6632 158.514 74.8361C155.216 72.3003 151.83 69.8715 148.364 67.5699C152.921 65.0542 156.527 60.9728 158.541 56.1956C160.722 51.0036 161.01 44.527 157.832 39.6494C154.54 34.5979 148.358 32.8315 142.617 32.6174C136.455 32.3899 130.079 33.7749 125.161 37.6422C122.337 39.8501 120.096 42.7271 116.978 44.5537C114.014 46.2866 110.622 47.143 107.19 47.0561C107.116 47.0561 107.049 47.0561 106.975 47.0694C105.798 46.6613 104.614 46.2599 103.423 45.8718C102.038 45.4235 100.639 44.9953 99.241 44.5805C99.2276 44.5069 99.2142 44.4266 99.2008 44.3463C99.2008 44.2192 99.1875 44.0921 99.1406 43.9649C99.1139 43.8111 99.0469 43.6772 98.96 43.5568C96.7855 38.6458 92.9651 34.7852 87.9804 32.6709C85.5584 31.6473 83.0092 31.0518 80.3864 30.8176C77.6365 30.5834 74.8732 30.8511 72.1501 31.2726C64.1078 32.5037 56.1325 36.2639 52.1849 43.6973C49.8298 48.1467 48.7927 53.7468 50.0506 58.6846C50.4453 60.2435 51.0609 61.7356 51.8102 63.1607C51.7567 63.2075 51.6965 63.2544 51.6363 63.3146C45.0392 70.2596 38.3551 77.305 33.511 85.6216C28.9747 93.4029 25.8902 102.563 27.0812 111.649C27.7034 116.446 29.1285 121.109 30.9886 125.572C30.915 125.833 30.9217 126.121 31.0087 126.382C30.3664 130.45 29.704 134.518 29.1152 138.599C28.5264 142.633 28.232 146.775 30.0118 150.569C30.3061 151.184 31.1893 151.338 31.7446 151.017C31.758 151.017 31.7647 151.004 31.7781 150.997C34.3474 151.418 36.9032 151.92 39.4591 152.456C38.6562 164.271 38.0942 176.134 36.2475 187.85C35.739 191.081 35.1168 194.299 34.3473 197.478H16.0549C8.83553 197.478 2.96104 191.63 2.96104 184.437V15.5694C2.96104 8.37682 8.83553 2.5291 16.0549 2.5291H185.525C192.744 2.5291 198.619 8.37682 198.619 15.5694V184.444V184.437Z" fill="white"/>
<path d="M52.9412 60.9002C52.9412 60.9002 70.9059 50.7436 96.7857 54.4637C95.9025 68.7083 81.6579 74.4289 70.946 74.4356C60.2341 74.4423 55.4435 65.6573 52.9479 60.9002H52.9412Z" fill="#F9F8F4"/>
<mask id="mask0_8378_53389" style="mask-type:luminance" maskUnits="userSpaceOnUse" x="52" y="53" width="45" height="22">
<path d="M52.941 60.9012C52.941 60.9012 70.9057 50.7446 96.7856 54.4647C95.9024 68.7093 81.6578 74.4299 70.9459 74.4366C60.234 74.4433 55.4434 65.6583 52.9477 60.9012H52.941Z" fill="white"/>
</mask>
<g mask="url(#mask0_8378_53389)">
<path d="M62.5485 55.5889C62.5485 55.5889 64.6293 70.1547 78.3453 68.4352C94.1288 66.4547 91.767 52.5647 91.767 52.5647C91.767 52.5647 71.6613 51.1195 62.5485 55.5889Z" fill="#252525"/>
<path d="M79.4493 59.5781C81.0974 59.5781 82.4334 58.2481 82.4334 56.6074C82.4334 54.9667 81.0974 53.6367 79.4493 53.6367C77.8012 53.6367 76.4652 54.9667 76.4652 56.6074C76.4652 58.2481 77.8012 59.5781 79.4493 59.5781Z" fill="#F9F8F4"/>
</g>
<path d="M125.576 54.7174C125.576 54.7174 141.627 49.6792 156.775 53.6C155.37 61.0134 146.016 66.5935 146.016 66.5935C146.016 66.5935 129.088 57.0725 125.576 54.7174Z" fill="#F9F8F4"/>
<mask id="mask1_8378_53389" style="mask-type:luminance" maskUnits="userSpaceOnUse" x="125" y="52" width="32" height="15">
<path d="M125.576 54.7174C125.576 54.7174 141.627 49.6792 156.775 53.6C155.37 61.0134 146.016 66.5935 146.016 66.5935C146.016 66.5935 129.088 57.0725 125.576 54.7174Z" fill="white"/>
</mask>
<g mask="url(#mask1_8378_53389)">
<path d="M136.382 51.082C136.382 51.082 132.655 60.7234 143.775 61.7538C153.925 62.6972 154.621 51.2225 154.621 51.2225L136.382 51.082Z" fill="#252525"/>
<path d="M144.224 56.5616C145.606 56.5616 146.726 55.4443 146.726 54.066C146.726 52.6877 145.606 51.5703 144.224 51.5703C142.842 51.5703 141.721 52.6877 141.721 54.066C141.721 55.4443 142.842 56.5616 144.224 56.5616Z" fill="#F9F8F4"/>
</g>
<path d="M30.9552 152.651C41.9548 153.42 52.8674 155.247 63.5258 158.09C66.5634 158.9 69.581 159.796 72.5784 160.766C73.2207 160.974 73.9701 160.519 74.1374 159.883C76.2918 151.62 76.2784 142.828 79.3896 134.806C80.2326 132.638 81.3701 130.584 82.7684 128.724C83.1766 128.176 82.8554 127.313 82.3135 126.998C81.6645 126.623 80.9954 126.905 80.5806 127.453C75.2815 134.499 74.5187 143.544 73.1605 151.955C72.7658 154.39 72.3175 156.819 71.6952 159.214L73.2542 158.331C62.549 154.852 51.5293 152.423 40.3557 151.031C37.2312 150.643 34.0999 150.342 30.9552 150.121C30.2728 150.075 29.6907 150.737 29.6907 151.386C29.6907 152.109 30.2728 152.597 30.9552 152.651Z" fill="#252525"/>
<path d="M184.28 129.941C178.439 138.445 175.315 148.414 172.933 158.343C172.25 161.18 171.628 164.023 171.006 166.874C170.658 168.459 173.1 169.135 173.448 167.543C175.596 157.714 177.757 147.711 182.179 138.605C183.424 136.043 184.849 133.567 186.468 131.212C186.856 130.65 186.575 129.814 186.013 129.486C185.384 129.118 184.668 129.372 184.28 129.941Z" fill="#252525"/>
</svg>
