<svg width="202" height="200" viewBox="0 0 202 200" fill="none" xmlns="http://www.w3.org/2000/svg">
<path d="M183.689 2.65039H18.6346C10.1837 2.65039 3.33276 9.50122 3.33276 17.9521V182.317C3.33276 190.768 10.1837 197.619 18.6346 197.619H183.689C192.14 197.619 198.991 190.768 198.991 182.317V17.9521C198.991 9.50122 192.14 2.65039 183.689 2.65039Z" fill="#252525"/>
<path d="M64.3388 54.3155C64.3388 54.3155 64.3254 54.3155 64.3188 54.3155C64.3054 54.3155 64.3187 54.3155 64.3856 54.3155C64.4793 54.3155 64.573 54.3155 64.6667 54.3155C64.7068 54.3155 64.9277 54.2888 64.8674 54.3022C65.0548 54.2754 65.2354 54.2754 65.4093 54.3155C66.801 53.9342 68.2061 53.5929 69.6179 53.2919C68.4269 52.4488 67.4501 51.298 66.8613 49.9732C65.7038 47.3572 65.9513 44.2326 67.5771 41.864C67.9652 41.302 68.6879 41.0478 69.3168 41.4158C69.8721 41.7369 70.1598 42.58 69.765 43.142C68.6276 44.7946 68.2931 47.0025 69.1161 48.8425C69.9189 50.6356 71.5448 51.8533 73.445 52.2414C73.639 52.2815 73.7996 52.3752 73.9334 52.5023C74.8567 52.3618 75.78 52.2347 76.71 52.1277C75.4856 51.1174 74.5557 49.7792 74.0739 48.2269C73.251 45.5239 74.007 42.58 75.8269 40.4724C76.2752 39.9505 77.165 40.0174 77.62 40.4724C78.1285 40.9809 78.0683 41.7436 77.62 42.2588C75.0842 45.196 76.3822 49.8996 79.9885 51.1776C80.3097 51.2913 80.5706 51.4987 80.7379 51.7664C86.3314 51.4117 91.9649 51.6727 97.5116 52.5425C97.719 49.8996 97.5651 47.2233 97.1235 44.6407C96.6418 43.4899 96.0263 42.3926 95.3238 41.3622C92.6341 37.4214 88.3787 34.8722 83.7621 33.8151C79.0318 32.7379 73.9133 33.3133 69.2431 34.5243C67.1289 35.0729 65.1952 35.7688 63.3151 36.7456C62.452 37.1872 61.6224 37.6823 60.8262 38.231C60.0635 38.7528 59.6955 39.0406 58.9795 39.6762C57.7618 40.7601 56.7649 41.8908 55.9888 43.0149C55.594 43.5903 55.226 44.1857 54.8915 44.8013C54.7242 45.1158 54.5704 45.4302 54.4165 45.7447C54.3429 45.8986 54.2692 46.0591 54.1956 46.213L54.102 46.4271C54.102 46.4271 54.102 46.4271 54.102 46.4405C54.102 46.4539 54.0886 46.4539 54.0886 46.474C53.6337 47.6047 53.2657 48.7689 52.9914 49.9599C52.8709 50.5018 52.7705 51.0371 52.6902 51.5857C52.6902 51.6392 52.6768 51.6727 52.6768 51.6995C52.6768 51.7128 52.6768 51.7329 52.6768 51.753L52.63 52.1009C52.61 52.3217 52.5832 52.5425 52.5698 52.77C52.4026 54.8508 52.5965 56.8781 53.1786 58.8385C55.7947 57.6141 58.4844 56.5235 61.2276 55.6002C60.4783 55.0181 59.8494 54.262 59.4078 53.3922C58.0763 50.7494 58.558 47.7318 59.1602 44.9686C59.3074 44.2995 60.0902 43.9114 60.7191 44.0854C61.4016 44.2727 61.7495 44.9752 61.6024 45.6376C61.1741 47.6181 60.7191 49.9933 61.4685 51.8533C61.7763 52.6027 62.3249 53.3052 62.9137 53.7267C63.3018 54.0011 63.5494 54.1282 63.9575 54.2419C64.0512 54.2687 64.1381 54.2888 64.2385 54.3088C64.2719 54.3088 64.292 54.3222 64.3255 54.3222C64.3255 54.3222 64.3389 54.3222 64.3455 54.3222L64.3388 54.3155ZM146.361 53.7067C146.361 53.7067 146.347 53.6799 146.334 53.6531C146.334 53.6531 146.321 53.6398 146.321 53.6331C146.334 53.6598 146.347 53.6866 146.361 53.7067ZM148.676 42.6402C148.435 42.0313 148.522 41.3422 149.158 40.9675C149.693 40.653 150.623 40.7935 150.89 41.4225C152.235 44.5738 151.399 48.2002 149.111 50.5353C150.181 50.6691 151.245 50.8497 152.309 51.0772C154.57 49.0098 155.34 45.845 154.289 43.0149C154.049 42.3659 154.557 41.6299 155.173 41.4626C155.795 41.2886 156.363 41.6165 156.644 42.1517C156.678 42.212 156.705 42.2789 156.731 42.3458C157.889 45.4771 157.186 49.2038 155.099 51.8065C155.909 52.0541 156.711 52.3351 157.508 52.6562C158.404 49.1904 158.331 45.2964 156.745 42.1049C156.163 40.9207 155.367 39.8434 154.343 38.9067C150.362 35.287 144.186 34.7919 139.068 35.2268C136.325 35.461 133.555 36.0832 131.052 37.234C128.269 38.5187 126.101 40.4523 123.907 42.5465C121.712 44.6541 119.41 46.561 116.6 47.7854C115.383 48.3206 114.111 48.7355 112.827 49.0298C116.446 50.4148 120.033 51.9136 123.559 53.5193C123.679 53.4324 123.82 53.3654 123.987 53.3253C126.021 52.8436 128.048 52.3284 130.089 51.8801C135.007 50.8029 140.092 50.1004 145.13 50.2342C145.257 50.1338 145.404 50.0535 145.558 49.9933C145.611 49.9665 145.638 49.9599 145.652 49.9599C145.665 49.9599 145.678 49.9465 145.705 49.9331C145.812 49.8796 145.919 49.8327 146.026 49.7792C146.2 49.6855 146.367 49.5852 146.535 49.4714C146.615 49.4179 146.702 49.3577 146.782 49.2975C146.802 49.2707 146.856 49.2306 146.889 49.2038C147.057 49.0633 147.211 48.9161 147.364 48.7622C147.485 48.6284 147.605 48.5013 147.712 48.3608C147.746 48.3273 147.839 48.2002 147.846 48.1868C147.906 48.1065 147.96 48.0262 148.013 47.9393C148.234 47.6114 148.422 47.2568 148.582 46.8955C148.602 46.842 148.656 46.7015 148.656 46.7015C148.689 46.6078 148.723 46.5141 148.749 46.4204C148.816 46.213 148.877 45.9989 148.923 45.7848L148.984 45.4971C148.984 45.457 148.997 45.4101 149.004 45.3767C149.03 45.176 149.044 44.9752 149.05 44.7678C149.05 44.5537 149.05 44.3329 149.037 44.1188C149.024 44.0252 149.017 43.9248 149.004 43.8244V43.8044C149.004 43.8044 148.99 43.7709 148.99 43.7508C148.943 43.5367 148.903 43.3293 148.843 43.1219C148.816 43.0282 148.79 42.9279 148.749 42.8409C148.749 42.8275 148.689 42.6803 148.676 42.6335V42.6402ZM145.959 53.1313L145.946 53.1179L145.933 53.1045C145.872 53.051 145.852 53.0376 145.859 53.051C145.772 52.9975 145.685 52.9573 145.591 52.9172C145.491 52.8703 145.411 52.8101 145.33 52.7432C144.762 52.7231 144.193 52.7098 143.631 52.7164C143.598 52.7432 143.564 52.77 143.524 52.79C143.484 52.8101 143.31 52.9372 143.223 52.9774C143.223 52.9774 143.209 52.9908 143.203 52.9975C143.169 53.0309 143.143 53.0644 143.109 53.0911C143.082 53.1447 143.056 53.1848 143.029 53.2316C142.995 53.2852 142.962 53.3454 142.935 53.4056C142.935 53.419 142.922 53.419 142.922 53.439C142.922 53.4658 142.908 53.4926 142.895 53.5193L142.848 53.6732C142.835 53.7201 142.795 54.0145 142.768 54.068C142.768 54.1215 142.768 54.1817 142.754 54.2286C142.754 54.349 142.754 54.4761 142.754 54.5965L142.768 54.8107C142.788 54.9043 142.801 54.998 142.828 55.0917C142.855 55.2054 142.882 55.3125 142.922 55.4195C142.922 55.453 142.935 55.4663 142.935 55.4797C142.935 55.4931 142.949 55.4931 142.949 55.5065C143.002 55.6202 143.076 55.7273 143.143 55.8343C143.176 55.8678 143.196 55.8946 143.23 55.928C143.25 55.9481 143.276 55.9748 143.303 55.9949C143.35 56.015 143.397 56.0484 143.437 56.0685C143.437 56.0685 143.437 56.0685 143.437 56.0819C143.517 56.102 143.597 56.1287 143.678 56.1488C143.691 56.1488 143.731 56.1622 143.771 56.1622C143.805 56.1622 143.832 56.1622 143.845 56.1622C143.912 56.1622 143.979 56.1622 144.046 56.1622C144.16 56.1622 144.28 56.1622 144.387 56.1488C144.407 56.1488 144.441 56.1354 144.467 56.1354C144.481 56.1354 144.494 56.1354 144.501 56.1354C144.501 56.1354 144.505 56.1354 144.514 56.1354H144.528L144.541 56.122C144.668 56.0953 144.795 56.0685 144.922 56.0284C144.976 56.015 145.029 55.9949 145.083 55.9748C145.11 55.9615 145.156 55.9414 145.183 55.9347L145.337 55.8611C145.451 55.8009 145.565 55.734 145.672 55.6604C145.698 55.647 145.779 55.5801 145.799 55.5667C145.886 55.4931 145.959 55.4128 146.04 55.3325C146.073 55.2991 146.1 55.2656 146.133 55.2322C146.194 55.1251 146.26 55.0381 146.307 54.9311V54.9177C146.307 54.9177 146.307 54.9177 146.307 54.9043C146.307 54.9043 146.321 54.8909 146.321 54.8776C146.321 54.8776 146.321 54.8776 146.307 54.8909C146.321 54.8642 146.327 54.8441 146.334 54.824C146.368 54.7304 146.388 54.63 146.414 54.5296C146.414 54.5296 146.414 54.5163 146.414 54.5096C146.414 54.4761 146.414 54.456 146.414 54.4427C146.414 54.3423 146.414 54.2352 146.414 54.1349C146.414 54.1081 146.401 54.0546 146.401 54.0145C146.381 53.9275 146.361 53.8405 146.334 53.7535C146.321 53.7267 146.28 53.6398 146.274 53.5996C146.24 53.526 146.207 53.4658 146.167 53.3989C146.147 53.3654 146.127 53.332 146.1 53.3052C146.046 53.2517 145.993 53.1915 145.939 53.138L145.959 53.1313ZM201.586 15.5627V184.437C201.586 193.022 194.574 200 185.963 200H16.4933C7.87556 200 0.870361 193.022 0.870361 184.437V15.5627C0.870361 6.97846 7.88226 0 16.4933 0H185.963C194.581 0 201.586 6.97846 201.586 15.5627ZM199.05 184.437V15.5627C199.05 8.37013 193.176 2.52241 185.957 2.52241H16.4866C9.26723 2.52241 3.39279 8.37013 3.39279 15.5627V184.437C3.39279 191.63 9.26723 197.478 16.4866 197.478H34.7791C35.6622 193.831 36.2912 190.124 36.8399 186.418C38.0576 178.242 38.8672 170.012 39.5898 161.782C39.6634 160.959 39.7235 160.13 39.7971 159.307C38.7333 159.488 37.6628 159.615 36.5789 159.661C32.0827 159.835 27.5263 158.685 23.6122 156.49C19.5175 154.188 16.3059 150.703 14.0578 146.608C11.6759 142.279 10.2039 137.441 9.19362 132.624C8.16324 127.7 7.66145 122.648 7.7016 117.617C7.77519 107.54 9.96313 97.5378 13.9508 88.2845C17.5973 79.8408 22.8161 72.0929 29.0786 65.362C35.3144 58.6578 42.6273 52.9439 50.596 48.4344C50.6562 48.4009 50.7098 48.3808 50.77 48.3608C51.2249 46.7282 51.8539 45.1559 52.6166 43.704C56.5642 36.2706 64.5329 32.5104 72.5752 31.2793C75.2983 30.8578 78.0616 30.5901 80.8115 30.8243C82.5912 30.9782 84.3375 31.3127 86.0303 31.8212C86.2712 31.5536 86.6191 31.3863 87.0004 31.3462C89.9711 31.005 92.9552 30.8243 95.9326 30.7842C106.417 30.6637 116.928 32.4033 126.81 35.8959C127.065 35.9896 127.279 36.1368 127.446 36.3308C132.056 33.4672 137.629 32.4167 143.035 32.6174C148.776 32.8315 154.958 34.5979 158.25 39.6494C160.612 43.2758 161.054 47.7921 160.231 52.0005C160.331 52.0541 160.425 52.1143 160.512 52.1879C161.341 52.8837 162.131 53.6264 162.887 54.4025C165.978 57.5739 168.554 61.2338 171.177 64.7866C173.833 68.3929 176.442 72.0527 178.624 75.9735C180.885 80.0147 182.551 84.3236 183.836 88.7662C185.087 93.1152 186.151 97.5378 186.88 102.001C188.285 110.665 188.258 119.724 184.431 127.807C181.347 134.317 176.054 139.596 169.966 143.369C163.73 147.243 156.631 149.585 149.365 150.529C148.147 152.957 146.735 155.299 145.377 157.648C146.642 159.621 147.913 161.595 149.184 163.569C149.907 164.7 150.609 165.797 151.151 167.015C153.373 171.999 154.644 177.425 155.862 182.711C156.966 187.502 157.936 192.326 158.792 197.17C158.819 197.263 158.826 197.371 158.826 197.478H185.95C193.169 197.478 199.044 191.63 199.044 184.437H199.05ZM183.247 124.134C186.191 115.984 185.455 107.112 183.715 98.7823C182.805 94.3998 181.701 90.0174 180.256 85.7888C178.838 81.6607 176.891 77.7867 174.569 74.0934C172.267 70.4269 169.671 66.9544 167.082 63.4819C164.767 60.3774 162.399 57.2929 159.528 54.6768C159.354 55.192 159.167 55.7005 158.966 56.1889C156.952 60.9661 153.346 65.0542 148.79 67.5699C152.262 69.8715 155.641 72.2936 158.939 74.8361C163.917 78.6699 169.337 83.1527 170.2 89.7698C170.561 92.5331 170.086 95.5707 168.44 97.879C167.356 99.3912 165.925 100.388 164.332 101.144C164.332 101.178 164.346 101.218 164.352 101.258C164.78 104.744 163.85 108.283 162.111 111.314C160.057 114.894 157.026 117.59 153.527 119.557C153.54 119.611 153.553 119.671 153.56 119.724C153.881 123.391 153.948 127.071 153.754 130.737C153.573 134.036 153.179 137.314 152.597 140.559C152.142 143.055 151.526 145.484 150.603 147.826C150.964 147.765 151.319 147.705 151.68 147.638C158.565 146.394 165.222 143.758 170.929 139.71C176.402 135.836 180.965 130.476 183.254 124.127L183.247 124.134ZM167.283 94.634C168.119 92.1785 167.912 89.3751 166.875 87.0133C165.61 84.1228 163.382 81.7811 161.027 79.7337C158.558 77.586 155.888 75.6256 153.239 73.7053C147.679 69.6909 141.885 65.9909 135.903 62.6321C124.536 56.2492 112.499 51.1174 100.021 47.3237C100.054 47.6984 100.074 48.0731 100.094 48.4544C100.395 54.2955 99.1441 60.3506 95.859 65.2616C92.3731 70.4804 87.0072 73.886 80.932 75.3379C77.901 76.0672 74.7497 76.3549 71.6251 76.2947C68.3399 76.2211 64.9812 75.726 62.0306 74.2005C59.0465 72.6549 56.8653 70.0054 54.9116 67.3558C54.4432 66.7269 53.995 66.0846 53.5667 65.4222C48.6022 70.6544 43.6109 75.9133 39.4292 81.8011C35.8095 86.9062 32.7919 92.493 31.1125 98.5414C29.5469 104.188 29.3195 110.09 30.5706 115.824C32.4307 124.368 37.0205 132.049 42.8214 138.579C43.3165 138.706 43.7514 139.134 43.7916 139.649C45.3639 141.349 47.0165 142.975 48.7226 144.507C49.9404 145.598 48.1405 147.371 46.9362 146.287C45.7787 145.25 44.6613 144.179 43.5707 143.068C43.3767 145.818 43.1826 148.568 42.9752 151.318C42.828 153.212 42.6809 155.105 42.527 156.999C43.2228 157.594 43.932 158.183 44.6479 158.758C50.7432 163.622 57.6481 167.456 64.7738 170.608C71.9529 173.779 79.4265 176.248 86.9536 178.462C95.2836 180.918 103.767 183.34 112.452 184.083C115.617 184.357 118.808 184.384 121.96 184.096C122.388 183.695 123.077 183.554 123.592 183.922C127.453 183.434 131.233 182.437 134.799 180.777C140.727 178.028 145.866 173.652 148.703 167.717C148.676 167.664 148.656 167.61 148.629 167.557C148.02 166.312 147.217 165.181 146.475 164.01C145.645 162.719 144.809 161.421 143.979 160.13C142.654 162.445 141.336 164.767 140.005 167.075C139.202 168.487 137.014 167.215 137.823 165.804C139.657 162.592 141.49 159.38 143.323 156.176C144.916 153.399 146.622 150.656 147.933 147.732C149.198 144.915 149.84 141.844 150.342 138.813C151.332 132.865 151.56 126.796 151.105 120.781C149.532 121.484 147.893 122.059 146.234 122.514C142.868 123.438 139.382 123.933 135.91 124.274C131.962 124.655 128.001 124.816 124.034 124.749C122.401 124.722 122.401 122.2 124.034 122.227C128.242 122.294 132.457 122.113 136.646 121.678C142.962 121.016 149.546 119.664 154.758 115.844C159.073 112.679 162.184 107.54 161.883 102.128C161.214 102.355 160.539 102.569 159.856 102.777C152.697 104.971 145.31 106.35 137.87 107.206C122.676 108.959 107.347 108.397 92.0988 107.815C84.2305 107.514 76.3621 107.213 68.4871 107.226C64.854 107.226 61.1607 107.173 57.541 107.52C55.1123 107.755 52.2621 108.37 50.8102 110.518C49.9002 111.856 47.7056 110.591 48.6223 109.24C49.4185 108.062 50.4689 107.119 51.7402 106.477C54.3429 105.152 57.327 104.944 60.1973 104.844C64.0445 104.71 67.8983 104.684 71.7522 104.717C79.5402 104.784 87.3283 105.118 95.1096 105.406C110.07 105.961 125.118 106.35 139.998 104.416C147.17 103.486 154.316 101.987 161.181 99.6989C162.633 99.2172 164.145 98.6618 165.296 97.6315C166.206 96.8219 166.881 95.7915 167.269 94.6407L167.283 94.634ZM156.718 55.0248C156.43 54.911 156.143 54.804 155.848 54.7036C155.152 56.7309 154.048 58.6043 152.583 60.1766C151.165 61.7088 149.385 62.8998 147.411 63.5889C146.147 64.0238 144.802 64.1911 143.464 64.1509C144.441 64.7531 145.411 65.362 146.374 65.9775C151.031 63.7495 154.785 59.7953 156.711 55.0248H156.718ZM153.828 196.32L156.076 196.287C155.741 194.427 155.387 192.573 155.019 190.72C154.149 186.384 153.205 182.042 152.068 177.767C151.907 178.663 151.693 179.56 151.426 180.436C150.489 183.547 148.943 186.445 146.869 188.947C145.819 190.211 144.561 191.362 143.049 192.058C141.51 192.767 139.871 193.095 138.191 193.236C136.559 193.376 134.906 193.356 133.267 193.309C131.461 193.256 129.667 193.042 128.001 192.292C125.927 191.356 124.429 189.643 123.164 187.789C119.825 191.991 115.169 194.902 110.043 196.467C112.031 196.467 114.018 196.454 115.998 196.454C121.244 196.441 126.489 196.434 131.728 196.42C136.077 196.407 140.413 196.394 144.755 196.374C147.779 196.36 150.797 196.347 153.821 196.32H153.828ZM145.765 186.264C148.91 181.902 150.415 176.375 149.807 171.029C146.187 177.104 140.219 181.4 133.702 183.962C130.939 185.046 128.068 185.782 125.165 186.237C126.402 188.077 127.894 189.763 130.109 190.379C131.568 190.78 133.093 190.78 134.592 190.794C136.024 190.807 137.476 190.82 138.894 190.633C140.299 190.452 141.677 190.044 142.862 189.268C144.019 188.499 144.962 187.381 145.772 186.257L145.765 186.264ZM132.518 57.9152C131.942 56.7844 131.641 55.5266 131.675 54.1616C130.142 54.4828 128.604 54.8307 127.078 55.1853C128.905 56.0618 130.718 56.9718 132.511 57.9152H132.518ZM117.41 44.547C120.367 42.8074 122.548 40.1445 125.165 37.9834C122.742 37.1604 120.287 36.4312 117.798 35.8156C108.806 33.601 99.4921 32.8583 90.2655 33.5541C94.3536 35.7755 97.5049 39.2613 99.3984 43.5501C99.4921 43.6705 99.5523 43.8044 99.5791 43.9582C99.6326 44.0787 99.646 44.2125 99.6393 44.3396C99.6527 44.4199 99.666 44.5002 99.6794 44.5738C101.078 44.9953 102.469 45.4235 103.861 45.8651C105.052 46.2532 106.23 46.6546 107.414 47.0628C107.488 47.0494 107.548 47.0494 107.628 47.0494C111.06 47.1364 114.453 46.2799 117.417 44.547H117.41ZM120.816 186.712C117.109 186.94 113.362 186.772 109.675 186.311C100.87 185.213 92.2727 182.724 83.7955 180.155C76.0142 177.793 68.3198 175.09 60.96 171.631C56.8318 169.691 52.8307 167.483 49.0237 164.981C52.3289 168.165 55.6743 171.297 59.1267 174.321C64.1515 178.71 69.3837 182.905 75.004 186.518C80.3499 189.957 86.1038 192.874 92.3195 194.36C102.168 196.722 114.111 194.848 120.809 186.712H120.816ZM95.5579 60.5781C96.3407 58.7983 96.8827 56.9316 97.2172 55.0181C95.5178 54.7437 93.8116 54.5363 92.0921 54.3891C91.4966 57.8549 90.7004 61.2605 88.3721 64.0171C84.8327 68.2189 78.5835 70.1927 73.3246 68.3862C68.4604 66.7068 64.8072 62.3645 63.924 57.3598C60.5653 58.3902 57.2801 59.6681 54.0953 61.1736C55.4 63.8967 57.2132 66.4392 59.2204 68.6806C60.2106 69.7913 61.3012 70.8149 62.5792 71.5911C63.8973 72.3873 65.3424 72.8958 66.8345 73.237C69.6981 73.8793 72.7358 73.886 75.6529 73.6384C78.4898 73.4043 81.3066 72.7887 83.9628 71.7583C89.1749 69.7177 93.3098 65.6831 95.5646 60.5915L95.5579 60.5781ZM81.3936 196.507C84.4914 196.507 87.5758 196.494 90.6736 196.494C84.1903 194.775 78.0147 191.57 72.4413 187.856C61.328 180.43 51.6197 171.136 42.1189 161.789C41.6974 166.627 41.2357 171.457 40.6804 176.288C39.9042 183.099 39.0745 189.977 37.5624 196.681C38.827 196.648 40.0983 196.655 41.3695 196.648C44.7149 196.621 48.067 196.608 51.419 196.594C56.0156 196.581 60.6254 196.561 65.222 196.554C70.608 196.541 76.0075 196.534 81.3936 196.521V196.507ZM83.9294 56.47C83.9294 56.3161 83.916 56.1555 83.9093 56.0016C83.8959 55.9414 83.8826 55.8745 83.8692 55.8076C83.8357 55.6604 83.7956 55.5199 83.7554 55.3794C83.7354 55.3258 83.7153 55.2723 83.6952 55.2255V55.2121C83.6149 55.0649 83.5413 54.911 83.4543 54.7705C83.4208 54.717 83.3941 54.6768 83.3607 54.63C83.3473 54.6166 83.3138 54.5698 83.287 54.5363C83.2536 54.5029 83.2201 54.4627 83.2134 54.4494C83.18 54.4025 83.1399 54.3624 83.0997 54.3222C83.0462 54.2687 82.9793 54.2152 82.9258 54.1616C81.5609 54.2152 80.1893 54.2955 78.831 54.4226C78.8177 54.4427 78.8042 54.4627 78.7909 54.4828C78.7641 54.5163 78.7507 54.5296 78.7374 54.543L78.7173 54.5832C78.6771 54.6501 78.6303 54.7103 78.5902 54.7705C78.5166 54.9043 78.4429 55.0314 78.376 55.172C78.376 55.1853 78.3626 55.1987 78.3626 55.2054C78.3626 55.2121 78.3626 55.2188 78.3626 55.2322C78.3426 55.3058 78.3091 55.3727 78.2891 55.4463C78.2355 55.6068 78.2021 55.7741 78.1687 55.9414C78.1687 55.9682 78.1553 55.9815 78.1553 55.9949L78.1419 56.1622C78.1285 56.3295 78.1285 56.5034 78.1419 56.664C78.1419 56.7443 78.1553 56.8246 78.1553 56.9115C78.1887 57.0654 78.2221 57.226 78.269 57.3799C78.2823 57.4401 78.3559 57.6341 78.3626 57.6676C78.4162 57.7813 78.4697 57.9018 78.5366 58.0088C78.6035 58.1226 78.6772 58.2229 78.7441 58.33C78.7441 58.33 78.7485 58.33 78.7575 58.33C78.7909 58.3701 78.831 58.417 78.8644 58.4571C78.9782 58.5775 79.0986 58.6913 79.2258 58.7983C79.2392 58.8117 79.2927 58.8519 79.3261 58.8786C79.3395 58.892 79.3596 58.9054 79.3596 58.9054C79.5937 59.0593 79.828 59.1931 80.0755 59.3135C80.0755 59.3135 80.1089 59.3269 80.129 59.3336C80.2026 59.3537 80.2696 59.3804 80.3432 59.4072C80.4636 59.4407 80.5907 59.4741 80.7178 59.5009C80.778 59.5143 80.8449 59.5276 80.9119 59.5343H80.9253C81.0524 59.5343 81.1862 59.5477 81.3133 59.5477C81.407 59.5477 81.494 59.5477 81.5943 59.5343C81.6077 59.5343 81.6746 59.5209 81.7214 59.5143C81.7549 59.5143 81.7816 59.5009 81.7883 59.5009C81.8686 59.4808 81.9556 59.4607 82.0359 59.434C82.1095 59.4139 82.1764 59.3938 82.25 59.3604C82.2701 59.347 82.2902 59.3336 82.3303 59.3068C82.3838 59.2734 82.444 59.2399 82.4909 59.1998H82.5043L82.5444 59.1596C82.6916 59.0258 82.8254 58.8853 82.9592 58.7381L83.0797 58.5842C83.0797 58.5842 83.0998 58.5642 83.1064 58.5508C83.1064 58.5508 83.1064 58.5374 83.1198 58.5374C83.3071 58.2832 83.4811 58.0155 83.6283 57.7278C83.7487 57.4936 83.8089 57.3665 83.8959 56.9918C83.9093 56.9383 83.916 56.8781 83.9294 56.8313C83.9294 56.8313 83.9294 56.8268 83.9294 56.8179C83.9428 56.6974 83.9495 56.5703 83.9495 56.4499L83.9294 56.47ZM71.6519 57.119C71.6519 57.0454 71.6519 56.9718 71.6385 56.9049L71.3641 56.9785C71.4578 57.0253 71.5515 57.0721 71.6452 57.119H71.6519ZM52.0814 63.3079C52.1349 63.2477 52.1952 63.2009 52.2554 63.154C51.506 61.7289 50.8905 60.2369 50.4957 58.6779C49.9136 56.4097 49.8266 54.0078 50.121 51.6392C49.7865 51.84 49.4452 52.0273 49.1107 52.2347C41.597 56.8446 34.7858 62.5786 29.005 69.2158C23.2175 75.8665 18.4671 83.4872 15.2689 91.7035C11.7495 100.736 10.0033 110.444 10.2709 120.139C10.4047 124.916 11.0336 129.667 12.1911 134.31C13.3219 138.86 14.8675 143.39 17.4635 147.33C22.147 154.429 30.9052 158.357 39.3489 156.831C39.5697 156.791 39.7972 156.798 40.0113 156.851C40.4596 151.425 40.8476 145.992 41.229 140.553C38.5125 137.522 36.057 134.263 33.9628 130.777C30.9386 125.733 28.6571 120.153 27.7271 114.332C26.7368 108.082 27.3256 101.753 29.3195 95.7514C33.5748 82.9386 42.9619 72.9091 52.0747 63.3079H52.0814Z" fill="white"/>
<path d="M183.722 98.7833C185.462 107.113 186.191 115.985 183.254 124.135C180.965 130.477 176.402 135.837 170.929 139.717C165.222 143.765 158.565 146.401 151.68 147.646C151.319 147.713 150.964 147.773 150.603 147.833C151.526 145.485 152.142 143.056 152.597 140.567C153.185 137.322 153.573 134.044 153.754 130.745C153.955 127.079 153.881 123.399 153.56 119.732C153.56 119.679 153.54 119.618 153.527 119.565C157.026 117.598 160.063 114.901 162.111 111.322C163.85 108.291 164.774 104.751 164.352 101.266C164.352 101.225 164.339 101.192 164.332 101.152C165.925 100.396 167.356 99.3922 168.44 97.8868C170.093 95.5718 170.561 92.5409 170.2 89.7776C169.337 83.1604 163.917 78.6709 158.939 74.8438C155.641 72.308 152.255 69.8793 148.79 67.5777C153.346 65.0619 156.952 60.9739 158.966 56.1967C159.167 55.7083 159.354 55.1998 159.528 54.6846C162.392 57.3007 164.767 60.3851 167.082 63.4896C169.671 66.9554 172.261 70.4346 174.569 74.1011C176.891 77.7944 178.838 81.6684 180.256 85.7966C181.708 90.0318 182.805 94.4143 183.715 98.79L183.722 98.7833Z" fill="white"/>
<path d="M156.076 196.293L153.828 196.327C150.803 196.36 147.786 196.374 144.762 196.38C140.419 196.4 136.077 196.414 131.735 196.427C126.489 196.441 121.244 196.454 116.005 196.461C114.018 196.461 112.031 196.461 110.05 196.474C115.168 194.908 119.832 192.005 123.171 187.796C124.435 189.65 125.934 191.362 128.008 192.299C129.667 193.048 131.461 193.263 133.274 193.316C134.913 193.37 136.566 193.39 138.198 193.242C139.877 193.102 141.517 192.781 143.056 192.065C144.568 191.362 145.826 190.218 146.876 188.954C148.95 186.458 150.496 183.554 151.432 180.443C151.7 179.567 151.914 178.67 152.075 177.773C153.212 182.056 154.156 186.391 155.025 190.727C155.393 192.58 155.748 194.433 156.082 196.293H156.076Z" fill="white"/>
<path d="M151.874 81.5268C151.887 81.868 151.72 82.1758 151.499 82.4233C151.285 82.6575 150.917 82.7913 150.609 82.7913C150.302 82.7913 149.914 82.6575 149.713 82.4233C149.137 81.7476 148.709 80.9714 148.515 80.1016C148.321 79.2252 148.328 78.3219 148.555 77.4588C148.736 76.7763 149.452 76.4217 150.114 76.5756C150.783 76.7295 151.165 77.4923 150.997 78.1279C150.964 78.2416 150.951 78.3554 150.931 78.4691C150.904 78.7234 150.904 78.9776 150.931 79.2385C150.977 79.4995 151.044 79.747 151.138 79.9946C151.258 80.2488 151.399 80.4964 151.58 80.7306C151.754 80.9648 151.861 81.2123 151.881 81.5201L151.874 81.5268Z" fill="white"/>
<path d="M146.327 54.877C146.327 54.877 146.314 54.897 146.314 54.9037V54.8903C146.314 54.8903 146.327 54.8903 146.327 54.877Z" fill="white"/>
<path d="M145.946 53.11L145.96 53.1234C145.906 53.1234 145.859 53.0699 145.859 53.0498C145.873 53.0632 145.913 53.0899 145.946 53.11Z" fill="white"/>
<path d="M125.164 37.9908C122.548 40.1519 120.367 42.8149 117.41 44.5545C114.446 46.294 111.053 47.1438 107.621 47.0568C107.548 47.0568 107.481 47.0568 107.407 47.0702C106.229 46.662 105.045 46.2606 103.854 45.8725C102.469 45.4309 101.071 44.996 99.6725 44.5812C99.6591 44.5076 99.6457 44.4273 99.6323 44.347C99.6323 44.2199 99.6189 44.0928 99.5721 43.9657C99.5453 43.8118 99.4784 43.678 99.3914 43.5575C97.498 39.2754 94.3466 35.7829 90.2585 33.5615C99.4851 32.8657 108.805 33.6084 117.791 35.823C120.28 36.4319 122.735 37.1679 125.158 37.9908H125.164Z" fill="white"/>
<path d="M121.277 86.3771C121.826 86.8254 121.705 87.7018 121.277 88.1635C120.789 88.6988 119.999 88.585 119.491 88.1635C119.464 88.1434 119.45 88.1301 119.437 88.1234C119.41 88.1033 119.384 88.0832 119.357 88.0631C119.25 87.9829 119.136 87.9093 119.029 87.8424C118.808 87.7085 118.574 87.5747 118.333 87.461C118.28 87.4342 118.233 87.4074 118.179 87.3874C118.059 87.3405 117.938 87.2937 117.811 87.2536C117.577 87.1733 117.343 87.1064 117.095 87.0528C116.982 87.0261 116.874 87.006 116.754 86.9859C116.721 86.9859 116.68 86.9726 116.64 86.9726C116.627 86.9726 116.62 86.9726 116.6 86.9726C116.339 86.9525 116.078 86.9324 115.811 86.9324C115.59 86.9324 115.342 86.9324 115.122 86.9659C115.122 86.9659 115.126 86.9659 115.135 86.9659C115.135 86.9659 115.122 86.9659 115.108 86.9659C115.088 86.9659 115.068 86.9659 115.048 86.9792C114.981 86.9926 114.901 87.0127 114.874 87.0194C114.74 87.0462 114.613 87.0729 114.486 87.1064C113.797 87.2803 113.141 86.8923 112.927 86.2232C112.72 85.5876 113.168 84.8382 113.81 84.6709C116.44 84.0085 119.183 84.6843 121.27 86.3771H121.277Z" fill="white"/>
<path d="M115.108 86.9727C115.108 86.9727 115.068 86.9727 115.048 86.986C115.068 86.986 115.088 86.986 115.108 86.9727Z" fill="white"/>
<path d="M90.6669 196.502C87.5691 196.502 84.4846 196.515 81.3868 196.515C76.0007 196.528 70.6014 196.535 65.2153 196.548C60.6188 196.562 56.0088 196.575 51.4123 196.588C48.0602 196.602 44.7081 196.622 41.3627 196.642C40.0982 196.655 38.8269 196.642 37.5557 196.675C39.0678 189.971 39.9041 183.1 40.6736 176.282C41.2289 171.458 41.6906 166.627 42.1121 161.783C51.6063 171.13 61.3212 180.43 72.4346 187.85C78.008 191.57 84.1835 194.769 90.6669 196.488V196.502Z" fill="white"/>
<path d="M52.2484 63.1662C52.1949 63.213 52.1347 63.2598 52.0745 63.32C42.955 72.928 33.5745 82.9507 29.3192 95.7635C27.3254 101.765 26.7299 108.095 27.7268 114.344C28.6568 120.171 30.9383 125.745 33.9625 130.79C36.0567 134.275 38.5122 137.541 41.2287 140.565C40.8473 145.998 40.4593 151.437 40.011 156.863C39.7969 156.81 39.5694 156.803 39.3486 156.843C30.9049 158.362 22.14 154.435 17.4632 147.343C14.8672 143.408 13.3216 138.872 12.1909 134.322C11.0334 129.686 10.4111 124.928 10.2706 120.151C10.003 110.456 11.7493 100.748 15.2686 91.7156C18.4668 83.506 23.2239 75.8786 29.0048 69.228C34.7923 62.5841 41.5967 56.8501 49.1104 52.2468C49.4383 52.0394 49.7862 51.8521 50.1207 51.6514C49.8263 54.0199 49.9134 56.4219 50.4954 58.69C50.8902 60.249 51.5058 61.741 52.2551 63.1662H52.2484Z" fill="white"/>
<path d="M54.082 61.3258C54.082 61.3258 71.3308 51.4569 97.2039 55.177C96.3207 69.4216 82.3572 74.3326 71.6453 74.3326C60.9267 74.3326 56.5844 66.0829 54.082 61.3258Z" fill="#F9F8F4"/>
<mask id="mask0_8378_53330" style="mask-type:luminance" maskUnits="userSpaceOnUse" x="54" y="54" width="44" height="21">
<path d="M54.082 61.3229C54.082 61.3229 71.3308 51.454 97.2039 55.1741C96.3207 69.4187 82.3572 74.3297 71.6453 74.3297C60.9267 74.3297 56.5844 66.08 54.082 61.3229Z" fill="white"/>
</mask>
<g mask="url(#mask0_8378_53330)">
<path d="M62.9736 56.2911C62.9736 56.2911 65.0544 70.8568 78.7705 69.1373C94.554 67.1568 92.1922 53.2668 92.1922 53.2668C92.1922 53.2668 72.0864 51.8216 62.9736 56.2911Z" fill="#252525"/>
<path d="M79.8744 60.2803C81.5225 60.2803 82.8586 58.9502 82.8586 57.3096C82.8586 55.6689 81.5225 54.3389 79.8744 54.3389C78.2264 54.3389 76.8904 55.6689 76.8904 57.3096C76.8904 58.9502 78.2264 60.2803 79.8744 60.2803Z" fill="#F9F8F4"/>
</g>
<path d="M127.085 55.3391C127.085 55.3391 142.052 50.388 157.2 54.3154C155.795 61.7288 146.374 66.1313 146.374 66.1313C146.374 66.1313 130.591 57.6943 127.078 55.3391H127.085Z" fill="#F9F8F4"/>
<mask id="mask1_8378_53330" style="mask-type:luminance" maskUnits="userSpaceOnUse" x="127" y="52" width="31" height="15">
<path d="M127.084 55.3381C127.084 55.3381 142.052 50.387 157.199 54.3145C155.794 61.7278 146.374 66.1303 146.374 66.1303C146.374 66.1303 130.59 57.6933 127.078 55.3381H127.084Z" fill="white"/>
</mask>
<g mask="url(#mask1_8378_53330)">
<path d="M136.807 51.79C136.807 51.79 133.08 61.4314 144.2 62.4618C154.35 63.4052 155.046 51.9305 155.046 51.9305L136.807 51.79Z" fill="#252525"/>
<path d="M144.649 57.2696C146.031 57.2696 147.151 56.1523 147.151 54.774C147.151 53.3957 146.031 52.2783 144.649 52.2783C143.267 52.2783 142.146 53.3957 142.146 54.774C142.146 56.1523 143.267 57.2696 144.649 57.2696Z" fill="#F9F8F4"/>
</g>
<path d="M154.938 68.3732C158.136 65.9712 160.01 62.4452 161.167 58.685C162.479 54.4364 162.894 49.9669 164.426 45.7785C164.66 45.1362 164.165 44.3935 163.543 44.2263C162.84 44.0322 162.218 44.4671 161.984 45.1094C160.518 49.1105 160.07 53.3658 158.899 57.4472C157.962 60.7056 156.45 64.0978 153.66 66.192C153.118 66.6001 152.831 67.2826 153.205 67.9182C153.52 68.4535 154.39 68.7813 154.938 68.3732Z" fill="#252525"/>
</svg>
