<svg width="200" height="200" viewBox="0 0 200 200" fill="none" xmlns="http://www.w3.org/2000/svg">
<rect x="1" y="1" width="198" height="198" rx="9" fill="#252525" stroke="#F9F8F4" stroke-width="2" stroke-linejoin="round"/>
<path d="M53.4671 198.999C28.7706 161.318 23.3918 128.935 46.8363 104.45C18.1002 77.2637 62.7983 45.2668 76.7952 85.2048C86.5195 83.7636 97.2993 84.4478 108.719 86.4057C118.546 47.4285 170.115 78.7049 133.278 106.859C156.598 132.501 147.012 164.498 124.434 198.999" stroke="#F9F8F4" stroke-width="2" stroke-miterlimit="10"/>
<path d="M57.1502 91.6986C59.5903 91.6986 61.5684 88.9514 61.5684 85.5627C61.5684 82.1739 59.5903 79.4268 57.1502 79.4268C54.7102 79.4268 52.7321 82.1739 52.7321 85.5627C52.7321 88.9514 54.7102 91.6986 57.1502 91.6986Z" fill="#F9F8F4"/>
<path d="M126.654 93.9691C129.094 93.9691 131.072 91.2219 131.072 87.8332C131.072 84.4444 129.094 81.6973 126.654 81.6973C124.214 81.6973 122.236 84.4444 122.236 87.8332C122.236 91.2219 124.214 93.9691 126.654 93.9691Z" fill="#F9F8F4"/>
<path d="M31.9805 145.355C22.2562 139.503 12.6776 141.942 12.0298 156.958C11.775 162.919 13.1652 168.836 15.8001 174.215C19.3957 181.559 24.6511 189.966 30.867 198.992" stroke="#F9F8F4" stroke-width="2" stroke-miterlimit="10"/>
<path d="M146.547 145.517C155.914 140.429 164.86 143.21 165.486 157.701C165.748 163.67 164.35 169.573 161.708 174.959C158.214 182.099 153.148 190.251 147.151 199" stroke="#F9F8F4" stroke-width="2" stroke-miterlimit="10"/>
<path d="M116.896 171.648C118.734 166.623 115.164 160.699 108.924 158.417C102.683 156.134 96.1344 158.357 94.2966 163.382C92.4587 168.407 96.0279 174.331 102.268 176.613C108.509 178.896 115.058 176.673 116.896 171.648Z" stroke="#F9F8F4" stroke-width="2" stroke-miterlimit="10"/>
<path d="M75.4196 188.352C77.6065 188.352 79.3792 186.615 79.3792 184.472C79.3792 182.33 77.6065 180.593 75.4196 180.593C73.2328 180.593 71.4601 182.33 71.4601 184.472C71.4601 186.615 73.2328 188.352 75.4196 188.352Z" stroke="#F9F8F4" stroke-width="2" stroke-miterlimit="10"/>
<path d="M34.6812 160.241C39.98 158.261 44.7474 158.007 48.5906 160.671C51.0435 162.374 52.5647 165.052 53.1179 167.942C54.5882 175.665 51.029 181.298 45.7374 186.226" stroke="#F9F8F4" stroke-width="2" stroke-miterlimit="10"/>
<path d="M74.5025 131.366C93.9584 128.011 112.417 124.998 114.557 131.09C114.739 131.599 114.681 132.153 114.397 132.611C111.056 137.983 91.44 133.928 74.5025 131.417C74.4734 131.417 74.4734 131.374 74.5025 131.366Z" stroke="#F9F8F4" stroke-width="2" stroke-miterlimit="10"/>
<path d="M114.564 131.09C126.086 127.13 136.713 122.283 145.135 115.273C154.823 102.66 162.975 88.7573 169.817 73.7705C166.709 66.7976 165.74 61.5133 169.758 60.174C170.195 60.0284 170.661 59.9629 171.112 60.0212C173.885 60.3996 174.264 64.1627 174.417 68.2388C181.361 66.0115 187.045 65.2618 187.613 70.466C188.319 77.9339 180.727 74.5566 169.809 73.7705" stroke="#F9F8F4" stroke-width="2" stroke-miterlimit="10"/>
</svg>
