<svg width="319" height="193" viewBox="0 0 319 193" fill="none" xmlns="http://www.w3.org/2000/svg">
<mask id="mask0_6533_73412" style="mask-type:alpha" maskUnits="userSpaceOnUse" x="0" y="0" width="319" height="193">
<rect x="0.5" y="0.5" width="318" height="192" rx="14.5" fill="#D9D9D9" stroke="#F9F8F4"/>
</mask>
<g mask="url(#mask0_6533_73412)">
<g filter="url(#filter0_i_6533_73412)">
<path d="M35 108.833C1 112.833 -29.8333 160.833 -41 184.333V205.833H356C360.5 128.5 359.9 -24.0669 321.5 -15.6669C273.5 -5.16691 285.5 23.8331 213 77.3331C140.5 130.833 77.5 103.833 35 108.833Z" fill="#DCB8FF"/>
</g>
<g filter="url(#filter1_i_6533_73412)">
<path d="M41 135C11 135 -22.8333 170 -36 187.5V213L384 215C389.333 157.833 392.8 43.4002 364 43.0002C328 42.5002 297.5 128 231 148C164.5 168 78.5 135 41 135Z" fill="#FF5B23"/>
</g>
<path d="M215.541 94.3553L271.202 68.7653C278.123 65.5831 286.326 68.6188 289.509 75.5407L334.58 173.574C337.762 180.495 334.726 188.698 327.804 191.881L272.144 217.471C265.222 220.653 257.019 217.617 253.837 210.695L208.766 112.662C205.584 105.74 208.619 97.5376 215.541 94.3553Z" fill="white" stroke="black" stroke-width="2.12101" stroke-linecap="round" stroke-linejoin="round"/>
<path d="M218.094 99.9083L273.754 74.3183C277.64 72.5321 282.244 74.2362 284.03 78.1214L329.101 176.155C330.888 180.04 329.183 184.644 325.298 186.43L269.638 212.02C265.752 213.807 261.148 212.102 259.362 208.217L214.291 110.184C212.505 106.299 214.209 101.695 218.094 99.9085L218.094 99.9083Z" fill="#FF5B23" stroke="black" stroke-width="2.12101" stroke-linecap="round" stroke-linejoin="round"/>
<path d="M297.064 119.724L282.665 88.4051C281.006 84.7954 276.734 83.2145 273.124 84.8741L226.515 106.303C222.905 107.962 221.324 112.234 222.984 115.844L237.383 147.163C239.042 150.773 243.314 152.354 246.924 150.694L293.533 129.265C297.143 127.606 298.724 123.334 297.064 119.724Z" fill="white" stroke="black" stroke-width="2.12101" stroke-linecap="round" stroke-linejoin="round"/>
<path d="M312.801 149.686L315.768 156.139C316.023 156.693 315.78 157.35 315.226 157.605L308.773 160.571C308.218 160.826 307.562 160.583 307.307 160.029L304.34 153.576C304.085 153.022 304.329 152.365 304.883 152.11L311.336 149.143C311.89 148.888 312.547 149.131 312.801 149.686L312.801 149.686Z" fill="#DCB8FF" stroke="black" stroke-width="2.12101" stroke-linecap="round" stroke-linejoin="round"/>
<path d="M291.282 159.579L294.249 166.032C294.503 166.586 294.26 167.243 293.706 167.497L287.253 170.464C286.699 170.719 286.042 170.476 285.787 169.922L282.821 163.469C282.566 162.914 282.809 162.257 283.363 162.003L289.816 159.036C290.37 158.781 291.027 159.024 291.282 159.578L291.282 159.579Z" fill="#DCB8FF" stroke="black" stroke-width="2.12101" stroke-linecap="round" stroke-linejoin="round"/>
<path d="M302.961 176.274L309.414 173.307C309.968 173.052 310.211 172.396 309.956 171.842L306.99 165.388C306.735 164.834 306.078 164.591 305.524 164.846L299.071 167.813C298.516 168.068 298.273 168.724 298.528 169.279L301.495 175.732C301.75 176.286 302.406 176.529 302.961 176.274Z" fill="#DCB8FF" stroke="black" stroke-width="2.12101" stroke-linecap="round" stroke-linejoin="round"/>
<path d="M293.066 154.759L299.519 151.792C300.074 151.537 300.317 150.881 300.062 150.326L297.095 143.873C296.84 143.318 296.184 143.075 295.629 143.33L289.176 146.297C288.622 146.552 288.379 147.208 288.634 147.763L291.6 154.216C291.855 154.771 292.512 155.013 293.066 154.759Z" fill="#DCB8FF" stroke="black" stroke-width="2.12101" stroke-linecap="round" stroke-linejoin="round"/>
<path d="M263.858 172.142C267.58 170.431 269.21 166.026 267.499 162.304C265.787 158.582 261.383 156.952 257.661 158.663C253.939 160.375 252.309 164.779 254.02 168.501C255.731 172.223 260.136 173.853 263.858 172.142Z" fill="#ECEDE7" stroke="black" stroke-width="2.12101" stroke-linecap="round" stroke-linejoin="round"/>
<path d="M273.057 192.148C276.779 190.436 278.409 186.032 276.698 182.31C274.987 178.588 270.582 176.958 266.86 178.669C263.138 180.38 261.508 184.785 263.219 188.507C264.931 192.229 269.335 193.859 273.057 192.148Z" fill="#ECEDE7" stroke="black" stroke-width="2.12101" stroke-linecap="round" stroke-linejoin="round"/>
<mask id="mask1_6533_73412" style="mask-type:luminance" maskUnits="userSpaceOnUse" x="225" y="87" width="70" height="61">
<path d="M274.639 88.162L228.029 109.591C226.233 110.417 225.447 112.542 226.273 114.338L240.672 145.657C241.497 147.453 243.623 148.24 245.419 147.414L292.028 125.985C293.824 125.16 294.611 123.034 293.785 121.238L279.386 89.919C278.561 88.1229 276.435 87.3363 274.639 88.162Z" fill="white"/>
</mask>
<g mask="url(#mask1_6533_73412)">
<path d="M274.639 88.1601L228.029 109.589C226.233 110.415 225.447 112.54 226.273 114.336L240.672 145.655C241.497 147.451 243.623 148.238 245.419 147.412L292.028 125.983C293.824 125.158 294.611 123.032 293.785 121.236L279.386 89.917C278.561 88.1209 276.435 87.3343 274.639 88.1601Z" fill="#DCB8FF" stroke="black" stroke-width="2.12101" stroke-linecap="round" stroke-linejoin="round"/>
<path d="M285.415 92.8216C285.536 92.7656 285.59 92.6214 285.534 92.4993C285.478 92.3773 285.333 92.3239 285.212 92.3799L278.285 95.5642L273.136 84.3628L280.062 81.1785C280.184 81.1225 280.237 80.9783 280.181 80.8562C280.125 80.7342 279.98 80.6808 279.859 80.7368L272.932 83.9211L270.551 78.7406C270.495 78.6188 270.35 78.5652 270.228 78.6213C270.106 78.6774 270.053 78.8217 270.109 78.9435L272.491 84.1241L261.289 89.274L258.908 84.0935C258.852 83.9717 258.708 83.918 258.585 83.9741C258.463 84.0302 258.41 84.1747 258.466 84.2965L260.848 89.477L249.647 94.6269L247.265 89.4463C247.209 89.3245 247.064 89.2709 246.942 89.327C246.82 89.3831 246.767 89.5275 246.823 89.6493L249.205 94.8298L238.003 99.9798L235.622 94.7992C235.566 94.6774 235.422 94.6237 235.3 94.6798C235.177 94.736 235.124 94.8804 235.18 95.0022L237.562 100.183L226.361 105.333L223.979 100.152C223.923 100.03 223.779 99.9766 223.656 100.033C223.534 100.089 223.481 100.233 223.537 100.355L225.919 105.536L218.993 108.72C218.871 108.776 218.818 108.92 218.874 109.042C218.93 109.164 219.074 109.218 219.196 109.161L226.122 105.977L231.272 117.179L224.346 120.363C224.224 120.419 224.171 120.563 224.227 120.685C224.283 120.807 224.427 120.861 224.549 120.805L231.475 117.62L236.625 128.822L229.699 132.006C229.577 132.062 229.524 132.206 229.58 132.328C229.636 132.45 229.78 132.504 229.902 132.448L236.828 129.263L241.978 140.465L235.052 143.649C234.93 143.705 234.877 143.85 234.933 143.971C234.989 144.093 235.133 144.147 235.255 144.091L242.181 140.906L247.331 152.108L240.405 155.292C240.283 155.348 240.229 155.492 240.286 155.615C240.342 155.737 240.486 155.79 240.608 155.734L247.534 152.55L251.521 161.221C251.577 161.343 251.721 161.396 251.843 161.34C251.965 161.284 252.018 161.14 251.962 161.018L247.975 152.347L259.177 147.197L263.163 155.868C263.219 155.99 263.364 156.044 263.486 155.988C263.608 155.931 263.661 155.787 263.605 155.665L259.618 146.994L270.82 141.844L274.807 150.515C274.863 150.637 275.007 150.691 275.129 150.635C275.25 150.579 275.304 150.434 275.248 150.312L271.261 141.641L282.463 136.491L286.449 145.162C286.505 145.284 286.65 145.338 286.772 145.282C286.894 145.226 286.947 145.081 286.891 144.96L282.904 136.288L294.106 131.138L298.092 139.81C298.148 139.931 298.293 139.985 298.415 139.929C298.537 139.873 298.59 139.728 298.534 139.607L294.547 130.935L301.473 127.751C301.595 127.695 301.649 127.551 301.592 127.429C301.536 127.307 301.392 127.253 301.27 127.309L294.344 130.494L289.194 119.292L296.121 116.108C296.242 116.052 296.296 115.908 296.24 115.786C296.183 115.663 296.039 115.61 295.917 115.666L288.991 118.85L283.841 107.649L290.768 104.465C290.889 104.409 290.943 104.264 290.887 104.142C290.831 104.02 290.686 103.967 290.565 104.023L283.638 107.207L278.488 96.0059L285.415 92.8216ZM272.694 84.5659L277.844 95.7673L266.643 100.917L261.493 89.7159L272.694 84.5659ZM261.051 89.9188L266.201 101.12L255 106.27L249.85 95.0687L261.051 89.9188ZM260.114 118.558L265.264 129.759L254.062 134.909L248.913 123.708L260.114 118.558ZM248.71 123.266L243.56 112.064L254.761 106.914L259.911 118.116L248.71 123.266ZM260.556 118.355L271.757 113.205L276.907 124.406L265.706 129.556L260.556 118.355ZM260.353 117.913L255.203 106.712L266.404 101.562L271.554 112.763L260.353 117.913ZM249.409 95.2716L254.558 106.473L243.357 111.623L238.207 100.422L249.409 95.2716ZM226.564 105.774L237.765 100.625L242.915 111.826L231.714 116.976L226.564 105.774ZM231.917 117.417L243.118 112.267L248.268 123.469L237.067 128.619L231.917 117.417ZM237.27 129.06L248.471 123.91L253.621 135.112L242.42 140.262L237.27 129.06ZM247.772 151.905L242.623 140.703L253.824 135.553L258.974 146.755L247.772 151.905ZM259.415 146.552L254.265 135.35L265.467 130.2L270.617 141.402L259.415 146.552ZM271.058 141.199L265.908 129.997L277.11 124.848L282.26 136.049L271.058 141.199ZM293.903 130.696L282.701 135.846L277.551 124.645L288.753 119.495L293.903 130.696ZM288.55 119.053L277.348 124.203L272.199 113.002L283.4 107.852L288.55 119.053ZM283.197 107.41L271.996 112.56L266.846 101.359L278.047 96.209L283.197 107.41Z" fill="white"/>
</g>
<path d="M258.014 113.3C256.231 111.327 253.199 110.601 250.716 111.551C248.233 112.501 246.46 115.067 246.45 117.726C246.439 120.5 248.207 123.055 250.496 124.623C252.785 126.191 255.541 126.916 258.268 127.428C260.995 127.94 263.773 128.271 266.399 129.169L266.506 129.098C269.172 124.074 271.919 118.662 271.324 113.005C271.079 110.683 270.237 108.387 268.703 106.627C267.168 104.868 264.904 103.695 262.569 103.72C260.235 103.745 257.897 105.07 256.895 107.178C255.892 109.287 256.433 112.088 258.296 113.495" fill="#FF5B23"/>
<path d="M258.014 113.3C256.231 111.327 253.199 110.601 250.716 111.551C248.233 112.501 246.46 115.067 246.45 117.726C246.439 120.5 248.207 123.055 250.496 124.623C252.785 126.191 255.541 126.916 258.268 127.428C260.995 127.94 263.773 128.271 266.399 129.169L266.506 129.098C269.172 124.074 271.919 118.662 271.324 113.005C271.079 110.683 270.237 108.387 268.703 106.627C267.168 104.868 264.904 103.695 262.569 103.72C260.235 103.745 257.897 105.07 256.895 107.178C255.892 109.287 256.433 112.088 258.296 113.495" stroke="black" stroke-width="2.12101" stroke-linecap="round" stroke-linejoin="round"/>
<path d="M274.635 88.1581L228.026 109.587C226.229 110.413 225.443 112.538 226.269 114.334L240.668 145.653C241.493 147.449 243.619 148.236 245.415 147.41L292.024 125.982C293.821 125.156 294.607 123.03 293.781 121.234L279.382 89.9151C278.557 88.119 276.431 87.3324 274.635 88.1581Z" stroke="black" stroke-width="2.12101" stroke-linecap="round" stroke-linejoin="round"/>
<path d="M208.12 140.48L208.234 140.595C209.483 141.844 211.15 142.534 212.916 142.534C214.682 142.534 216.347 141.844 217.596 140.595L217.596 140.595C218.845 139.346 219.535 137.681 219.535 135.915C219.535 134.148 218.845 132.482 217.596 131.234L217.481 131.119H222.441C226.092 131.119 229.061 128.15 229.061 124.499C229.061 120.848 226.092 117.88 222.441 117.88H217.481L217.596 117.765L217.596 117.765C220.177 115.183 220.177 110.985 217.596 108.404L217.596 108.404C216.347 107.155 214.681 106.465 212.915 106.465C211.149 106.465 209.483 107.155 208.234 108.404L208.234 108.404L208.12 108.518V103.559C208.12 99.9082 205.151 96.9395 201.5 96.9395C197.849 96.9395 194.88 99.9082 194.88 103.559V108.518L194.766 108.404L194.766 108.404C193.517 107.155 191.851 106.465 190.085 106.465C188.319 106.465 186.653 107.155 185.404 108.404L185.404 108.404C182.822 110.986 182.822 115.184 185.404 117.765L185.404 117.765L185.519 117.88H180.559C176.908 117.88 173.939 120.849 173.939 124.5C173.939 128.151 176.908 131.119 180.559 131.119H185.519L185.405 131.233C184.155 132.482 183.465 134.149 183.465 135.915C183.465 137.681 184.155 139.346 185.404 140.595C186.652 141.844 188.318 142.534 190.085 142.534C191.851 142.534 193.517 141.844 194.765 140.595L194.766 140.595L194.88 140.48V145.44C194.88 149.083 197.836 152.046 201.476 152.059C201.484 152.059 201.492 152.059 201.5 152.059C205.151 152.059 208.12 149.091 208.12 145.44V140.48Z" fill="white" stroke="black" stroke-width="2.12101" stroke-linecap="round" stroke-linejoin="round"/>
<path d="M214.412 114.581L214.412 114.581C215.239 113.754 215.239 112.413 214.412 111.585C213.585 110.758 212.243 110.758 211.416 111.586L203.617 119.384V103.558C203.617 102.388 202.669 101.439 201.499 101.439C200.329 101.439 199.38 102.388 199.38 103.558V119.384L191.581 111.585C190.754 110.758 189.413 110.758 188.585 111.585L189.335 112.335L188.585 111.585C187.758 112.413 187.758 113.754 188.585 114.581L196.384 122.38H180.558C179.388 122.38 178.439 123.328 178.439 124.498C178.439 125.669 179.388 126.617 180.558 126.617H196.384L188.585 134.416L188.585 134.416C187.758 135.243 187.758 136.584 188.585 137.411L188.585 137.412C189.413 138.239 190.754 138.239 191.581 137.412L191.581 137.412L199.38 129.613V145.439C199.38 146.609 200.329 147.557 201.499 147.557C202.669 147.557 203.617 146.609 203.617 145.439V129.613L211.416 137.412C212.243 138.239 213.585 138.239 214.412 137.412L214.412 137.411C215.239 136.584 215.239 135.243 214.412 134.416L214.412 134.416L206.613 126.617H222.439C223.609 126.617 224.558 125.669 224.558 124.498C224.558 123.328 223.609 122.38 222.439 122.38H206.613L214.412 114.581Z" fill="#F56423" stroke="black" stroke-width="2.12101" stroke-linecap="round" stroke-linejoin="round"/>
<path d="M294.649 33.9963H297.644C299.848 33.9963 301.64 32.204 301.64 29.9997C301.64 27.7953 299.848 26.0029 297.644 26.0029H294.649L294.718 25.9334L294.718 25.9334C296.277 24.3747 296.277 21.8402 294.718 20.2815L294.718 20.2814C293.964 19.5274 292.959 19.1108 291.892 19.1108C290.826 19.1108 289.82 19.5276 289.066 20.2814L289.066 20.2815L288.997 20.3508V17.3565C288.997 15.1521 287.204 13.3597 285 13.3597C282.796 13.3597 281.003 15.1521 281.003 17.3565V20.3507L280.934 20.2816L280.934 20.2816C280.18 19.5275 279.174 19.111 278.108 19.111C277.041 19.111 276.036 19.5275 275.282 20.2816L275.282 20.2816C273.723 21.8403 273.723 24.375 275.282 25.9337L275.282 25.9337L275.351 26.003H272.356C270.152 26.003 268.36 27.7954 268.36 29.9998C268.36 32.2042 270.152 33.9964 272.356 33.9964H275.351L275.282 34.0653C275.282 34.0654 275.282 34.0654 275.282 34.0654C274.528 34.8195 274.111 35.8256 274.111 36.8919C274.111 37.9582 274.528 38.9638 275.281 39.7177C276.035 40.4719 277.041 40.8885 278.108 40.8885C279.174 40.8885 280.18 40.4718 280.934 39.7179L280.934 39.7178L281.003 39.6486V42.6429C281.003 44.8425 282.788 46.6318 284.986 46.6395C284.991 46.6395 284.995 46.6395 285 46.6395V45.9999L294.649 33.9963ZM294.649 33.9963L294.718 34.0657C294.718 34.0657 294.718 34.0657 294.718 34.0657C295.472 34.8195 295.889 35.8254 295.889 36.8919C295.889 37.9582 295.472 38.9638 294.719 39.7178L294.719 39.7179C293.965 40.4719 292.959 40.8885 291.892 40.8885C290.826 40.8885 289.82 40.4719 289.066 39.7177C289.066 39.7177 289.066 39.7177 289.066 39.7177L288.997 39.6486L294.649 33.9963Z" fill="white" stroke="black" stroke-width="1.28061" stroke-linecap="round" stroke-linejoin="round"/>
<path d="M292.798 24.0111L292.798 24.0109C293.297 23.5115 293.297 22.7018 292.798 22.2023C292.298 21.7027 291.488 21.7027 290.989 22.2023C290.989 22.2023 290.989 22.2024 290.989 22.2024L286.28 26.9111V17.3556C286.28 16.6491 285.707 16.0765 285.001 16.0765C284.295 16.0765 283.722 16.649 283.722 17.3556V26.9111L279.013 22.2023C278.514 21.7027 277.704 21.7027 277.204 22.2023C276.705 22.7017 276.705 23.5116 277.204 24.0111L281.913 28.7198H272.358C271.651 28.7198 271.078 29.2923 271.078 29.9989C271.078 30.7053 271.651 31.278 272.358 31.278H281.913L277.204 35.9866L277.204 35.9867C276.705 36.4862 276.705 37.2958 277.204 37.7954L277.204 37.7955C277.704 38.295 278.514 38.2948 279.013 37.7956L279.013 37.7955L283.722 33.0867V42.6422C283.722 43.3487 284.295 43.9213 285.001 43.9213C285.707 43.9213 286.28 43.3487 286.28 42.6422V33.0867L290.989 37.7955C291.488 38.2949 292.298 38.2949 292.798 37.7955L292.798 37.7954C293.297 37.2958 293.297 36.4862 292.798 35.9867L292.798 35.9866L288.089 31.278H297.644C298.351 31.278 298.923 30.7053 298.923 29.9989C298.923 29.2924 298.351 28.7198 297.644 28.7198H288.089L292.798 24.0111Z" fill="#F56423" stroke="black" stroke-width="1.28061" stroke-linecap="round" stroke-linejoin="round"/>
</g>
<defs>
<filter id="filter0_i_6533_73412" x="-41" y="-16" width="398.91" height="225.834" filterUnits="userSpaceOnUse" color-interpolation-filters="sRGB">
<feFlood flood-opacity="0" result="BackgroundImageFix"/>
<feBlend mode="normal" in="SourceGraphic" in2="BackgroundImageFix" result="shape"/>
<feColorMatrix in="SourceAlpha" type="matrix" values="0 0 0 0 0 0 0 0 0 0 0 0 0 0 0 0 0 0 127 0" result="hardAlpha"/>
<feOffset dy="4"/>
<feGaussianBlur stdDeviation="2"/>
<feComposite in2="hardAlpha" operator="arithmetic" k2="-1" k3="1"/>
<feColorMatrix type="matrix" values="0 0 0 0 0 0 0 0 0 0 0 0 0 0 0 0 0 0 0.25 0"/>
<feBlend mode="normal" in2="shape" result="effect1_innerShadow_6533_73412"/>
</filter>
<filter id="filter1_i_6533_73412" x="-36" y="42.998" width="423.617" height="176.002" filterUnits="userSpaceOnUse" color-interpolation-filters="sRGB">
<feFlood flood-opacity="0" result="BackgroundImageFix"/>
<feBlend mode="normal" in="SourceGraphic" in2="BackgroundImageFix" result="shape"/>
<feColorMatrix in="SourceAlpha" type="matrix" values="0 0 0 0 0 0 0 0 0 0 0 0 0 0 0 0 0 0 127 0" result="hardAlpha"/>
<feOffset dy="4"/>
<feGaussianBlur stdDeviation="2"/>
<feComposite in2="hardAlpha" operator="arithmetic" k2="-1" k3="1"/>
<feColorMatrix type="matrix" values="0 0 0 0 0 0 0 0 0 0 0 0 0 0 0 0 0 0 0.25 0"/>
<feBlend mode="normal" in2="shape" result="effect1_innerShadow_6533_73412"/>
</filter>
</defs>
</svg>
