<svg width="159" height="159" viewBox="0 0 159 24" fill="none" xmlns="http://www.w3.org/2000/svg">
<path d="M0.176 9.432C0.176 6.952 1 4.888 2.648 3.24C4.296 1.592 6.36 0.767999 8.84 0.767999C10.104 0.767999 11.424 0.999999 12.8 1.464C13.536 1.704 14.136 2.064 14.6 2.544C15.064 3.008 15.296 3.536 15.296 4.128V6.192H13.064V4.872C13.064 4.392 12.816 4 12.32 3.696C11.472 3.12 10.344 2.832 8.936 2.832C7.096 2.832 5.592 3.44 4.424 4.656C3.24 5.888 2.648 7.448 2.648 9.336C2.648 11.352 3.256 13 4.472 14.28C5.704 15.56 7.24 16.2 9.08 16.2C9.592 16.2 10.144 16.152 10.736 16.056C11.328 15.944 11.904 15.728 12.464 15.408C13.024 15.088 13.304 14.688 13.304 14.208V12.888H15.536V14.952C15.536 15.528 15.312 16.048 14.864 16.512C14.416 16.976 13.824 17.328 13.088 17.568C11.664 18.048 10.28 18.288 8.936 18.288C6.392 18.288 4.296 17.44 2.648 15.744C1 14.048 0.176 11.944 0.176 9.432ZM24.3714 18.288C22.5314 18.288 20.9794 17.68 19.7154 16.464C18.4514 15.248 17.8194 13.728 17.8194 11.904C17.8194 10.08 18.4514 8.568 19.7154 7.368C20.9794 6.168 22.5314 5.568 24.3714 5.568C26.2114 5.568 27.7634 6.168 29.0274 7.368C30.2914 8.568 30.9234 10.08 30.9234 11.904C30.9234 13.712 30.2834 15.232 29.0034 16.464C27.7394 17.68 26.1954 18.288 24.3714 18.288ZM20.1954 11.904C20.1954 13.152 20.5954 14.2 21.3954 15.048C22.2114 15.864 23.2034 16.272 24.3714 16.272C25.5234 16.272 26.5074 15.856 27.3234 15.024C28.1394 14.192 28.5474 13.152 28.5474 11.904C28.5474 10.656 28.1394 9.624 27.3234 8.808C26.5074 7.992 25.5234 7.584 24.3714 7.584C23.2034 7.584 22.2114 7.992 21.3954 8.808C20.5954 9.64 20.1954 10.672 20.1954 11.904ZM39.0851 18H32.9411V16.2H34.8371V8.16C34.8371 7.824 34.6611 7.656 34.3091 7.656H32.8211V5.856H35.5571C36.5811 5.856 37.0931 6.304 37.0931 7.2V7.824L37.0211 8.52H37.0691C37.3731 7.768 37.9411 7.088 38.7731 6.48C39.6051 5.872 40.4771 5.568 41.3891 5.568C43.3411 5.568 44.5251 6.52 44.9411 8.424H44.9891C45.3411 7.608 45.9171 6.928 46.7171 6.384C47.5171 5.84 48.3891 5.568 49.3331 5.568C51.9731 5.568 53.2931 7.12 53.2931 10.224V16.2H55.2131V18H50.9651V10.728C50.9651 9.704 50.8051 8.944 50.4851 8.448C50.1811 7.936 49.6291 7.68 48.8291 7.68C47.7411 7.68 46.8691 8.152 46.2131 9.096C45.5731 10.024 45.2531 11.128 45.2531 12.408V16.2H47.1491V18H42.9251V10.728C42.9251 9.688 42.7731 8.92 42.4691 8.424C42.1651 7.928 41.6131 7.68 40.8131 7.68C39.7251 7.68 38.8451 8.168 38.1731 9.144C37.5011 10.12 37.1651 11.24 37.1651 12.504V16.2H39.0851V18ZM61.2371 3.432H58.7891V1.056H61.2371V3.432ZM63.0851 18H56.9411V16.2H58.8371V7.656H56.8211V5.856H61.1651V16.2H63.0851V18ZM71.1476 18H65.0036V16.2H66.8996V8.184C66.8996 7.832 66.7236 7.656 66.3716 7.656H64.8836V5.856H67.6196C68.6436 5.856 69.1556 6.304 69.1556 7.2V7.824L69.0836 8.52H69.1316C69.3396 8.024 69.7636 7.456 70.4036 6.816C71.2996 5.984 72.4516 5.568 73.8596 5.568C75.2356 5.568 76.2516 5.952 76.9076 6.72C77.5636 7.472 77.8916 8.64 77.8916 10.224V16.2H79.8116V18H75.5636V10.752C75.5636 9.712 75.3956 8.944 75.0596 8.448C74.7396 7.952 74.1476 7.704 73.2836 7.704C72.0996 7.704 71.1236 8.168 70.3556 9.096C69.6036 10.024 69.2276 11.112 69.2276 12.36V16.2H71.1476V18ZM82.5344 22.032L83.3024 20.256C84.2944 20.8 85.4064 21.072 86.6384 21.072C87.8224 21.072 88.7584 20.784 89.4464 20.208C90.1344 19.632 90.4784 18.768 90.4784 17.616V16.656L90.5504 15.888H90.5024C89.7184 17.2 88.5024 17.856 86.8544 17.856C85.1904 17.856 83.8704 17.272 82.8944 16.104C81.9184 14.936 81.4304 13.448 81.4304 11.64C81.4304 9.864 81.9024 8.408 82.8464 7.272C83.8064 6.136 85.1104 5.568 86.7584 5.568C87.6384 5.568 88.4304 5.744 89.1344 6.096C89.8544 6.432 90.3744 6.92 90.6944 7.56H90.7424C90.7104 7.4 90.6944 7.24 90.6944 7.08C90.6944 6.264 91.1584 5.856 92.0864 5.856H94.6784V7.656H93.3344C92.9824 7.656 92.8064 7.816 92.8064 8.136V17.496C92.8064 18.456 92.6304 19.304 92.2784 20.04C91.9424 20.776 91.4784 21.352 90.8864 21.768C90.2944 22.2 89.6464 22.52 88.9424 22.728C88.2384 22.936 87.4864 23.04 86.6864 23.04C85.2624 23.04 83.8784 22.704 82.5344 22.032ZM87.3104 15.84C88.3024 15.84 89.0864 15.504 89.6624 14.832C90.2384 14.144 90.5264 13.088 90.5264 11.664C90.5264 8.944 89.3824 7.584 87.0944 7.584C86.0544 7.584 85.2464 7.944 84.6704 8.664C84.0944 9.368 83.8064 10.344 83.8064 11.592C83.8064 12.872 84.1184 13.904 84.7424 14.688C85.3824 15.456 86.2384 15.84 87.3104 15.84ZM102.382 15.384V14.088H104.422V14.88C104.422 15.344 104.694 15.712 105.238 15.984C105.782 16.256 106.438 16.392 107.206 16.392C107.926 16.392 108.51 16.256 108.958 15.984C109.422 15.696 109.654 15.312 109.654 14.832C109.654 14.336 109.462 13.96 109.078 13.704C108.71 13.432 108.006 13.112 106.966 12.744L106.63 12.624C105.67 12.288 104.822 11.872 104.086 11.376C103.254 10.8 102.838 9.984 102.838 8.928C102.838 7.824 103.286 6.992 104.182 6.432C105.062 5.856 106.11 5.568 107.326 5.568C108.318 5.568 109.27 5.776 110.182 6.192C111.078 6.608 111.526 7.216 111.526 8.016V9.48H109.486V8.688C109.486 8.32 109.278 8.024 108.862 7.8C108.446 7.56 107.942 7.44 107.35 7.44C106.726 7.44 106.206 7.576 105.79 7.848C105.39 8.104 105.19 8.456 105.19 8.904C105.19 9.432 105.478 9.872 106.054 10.224C106.55 10.512 107.198 10.784 107.998 11.04C109.086 11.392 109.974 11.792 110.662 12.24C111.558 12.816 112.006 13.64 112.006 14.712C112.006 15.816 111.55 16.696 110.638 17.352C109.726 17.976 108.558 18.288 107.134 18.288C105.934 18.288 104.838 18.032 103.846 17.52C102.87 16.992 102.382 16.28 102.382 15.384ZM120.489 18.288C118.649 18.288 117.097 17.68 115.833 16.464C114.569 15.248 113.937 13.728 113.937 11.904C113.937 10.08 114.569 8.568 115.833 7.368C117.097 6.168 118.649 5.568 120.489 5.568C122.329 5.568 123.881 6.168 125.145 7.368C126.409 8.568 127.041 10.08 127.041 11.904C127.041 13.712 126.401 15.232 125.121 16.464C123.857 17.68 122.313 18.288 120.489 18.288ZM116.313 11.904C116.313 13.152 116.713 14.2 117.513 15.048C118.329 15.864 119.321 16.272 120.489 16.272C121.641 16.272 122.625 15.856 123.441 15.024C124.257 14.192 124.665 13.152 124.665 11.904C124.665 10.656 124.257 9.624 123.441 8.808C122.625 7.992 121.641 7.584 120.489 7.584C119.321 7.584 118.329 7.992 117.513 8.808C116.713 9.64 116.313 10.672 116.313 11.904ZM135.512 18.288C133.672 18.288 132.12 17.68 130.856 16.464C129.592 15.248 128.96 13.728 128.96 11.904C128.96 10.08 129.592 8.568 130.856 7.368C132.12 6.168 133.672 5.568 135.512 5.568C137.352 5.568 138.904 6.168 140.168 7.368C141.432 8.568 142.064 10.08 142.064 11.904C142.064 13.712 141.424 15.232 140.144 16.464C138.88 17.68 137.336 18.288 135.512 18.288ZM131.336 11.904C131.336 13.152 131.736 14.2 132.536 15.048C133.352 15.864 134.344 16.272 135.512 16.272C136.664 16.272 137.648 15.856 138.464 15.024C139.28 14.192 139.688 13.152 139.688 11.904C139.688 10.656 139.28 9.624 138.464 8.808C137.648 7.992 136.664 7.584 135.512 7.584C134.344 7.584 133.352 7.992 132.536 8.808C131.736 9.64 131.336 10.672 131.336 11.904ZM150.226 18H144.082V16.2H145.978V8.184C145.978 7.832 145.802 7.656 145.45 7.656H143.962V5.856H146.698C147.722 5.856 148.234 6.304 148.234 7.2V7.824L148.162 8.52H148.21C148.418 8.024 148.842 7.456 149.482 6.816C150.378 5.984 151.53 5.568 152.938 5.568C154.314 5.568 155.33 5.952 155.986 6.72C156.642 7.472 156.97 8.64 156.97 10.224V16.2H158.89V18H154.642V10.752C154.642 9.712 154.474 8.944 154.138 8.448C153.818 7.952 153.226 7.704 152.362 7.704C151.178 7.704 150.202 8.168 149.434 9.096C148.682 10.024 148.306 11.112 148.306 12.36V16.2H150.226V18Z" fill="url(#paint0_linear_2952_2197)"/>
<defs>
<linearGradient id="paint0_linear_2952_2197" x1="5.11043" y1="11" x2="169.069" y2="15.6671" gradientUnits="userSpaceOnUse">
<stop stop-color="#D2FF00"/>
<stop offset="1" stop-color="#56EBFF"/>
</linearGradient>
</defs>
</svg>
