<svg width="266" height="117" viewBox="0 0 266 117" fill="none" xmlns="http://www.w3.org/2000/svg">
<path d="M64.4457 110.94H10.0508L22.0954 57.3308H52.4011L64.4457 110.94Z" fill="#252525"/>
<path d="M64.4457 110.94H10.0508L22.0954 57.3308H52.4011L64.4457 110.94Z" stroke="#DCB8FF" stroke-width="0.388535" stroke-miterlimit="10"/>
<mask id="mask0_4614_12787" style="mask-type:luminance" maskUnits="userSpaceOnUse" x="10" y="57" width="55" height="54">
<path d="M64.4457 110.94H10.0508L22.0954 57.3308H52.4011L64.4457 110.94Z" fill="white"/>
</mask>
<g mask="url(#mask0_4614_12787)">
<g opacity="0.3">
<path d="M20.1529 55.3879C20.2467 64.1091 25.0876 72.0493 32.586 75.2002C41.8393 79.0881 53.6029 75.0104 59.3949 65.4883C62.5431 80.9505 65.5717 96.6431 68.7198 112.105C45.6666 112.139 22.6137 112.072 -0.439453 112.105C6.39878 93.1996 13.315 74.2939 20.1529 55.3879Z" fill="#DCB8FF"/>
</g>
<path d="M14.3247 60.8266C17.4952 61.0137 16.1684 74.2116 26.7578 84.912C36.4371 94.6925 50.2059 96.2934 53.5667 96.5663C60.0654 97.0937 65.1832 95.9581 68.7196 95.0124C69.4634 100.954 70.3069 106.941 71.0508 112.882H0.337402C7.20686 71.2613 11.46 60.6573 14.3247 60.8266Z" fill="#DCB8FF"/>
<g opacity="0.3">
<path d="M27.5348 53.8341L15.4902 119.486L24.8151 119.098L30.2546 53.0571L27.5348 53.8341Z" fill="white"/>
</g>
<g opacity="0.5">
<path d="M23.6499 57.7188L11.2168 112.882H15.1021L24.0385 58.4957L23.6499 57.7188Z" fill="white"/>
</g>
</g>
<path d="M37.4454 59.6624C45.8141 59.6624 52.4014 58.6187 52.4014 57.3312C52.4014 56.0437 45.8141 55 37.4454 55C29.0767 55 22.0957 56.0437 22.0957 57.3312C22.0957 58.6187 29.0767 59.6624 37.4454 59.6624Z" fill="#DCB8FF" stroke="#DCB8FF" stroke-width="0.388535" stroke-miterlimit="10"/>
<path d="M69.4968 110.94C69.4968 113.728 67.255 115.991 64.4459 115.991C64.2537 115.991 63.8548 116.012 63.6688 115.991H10.828C10.642 116.012 10.2431 115.991 10.051 115.991C7.24489 115.991 5 113.728 5 110.94C5 108.292 7.05461 106.102 9.66242 105.89C9.80272 105.878 9.9076 105.89 10.051 105.89H64.4459C67.255 105.89 69.4968 108.149 69.4968 110.94Z" fill="#252525"/>
<path d="M69.4968 110.94C69.4968 113.728 67.255 115.991 64.4459 115.991C64.2537 115.991 63.8548 116.012 63.6688 115.991H10.828C10.642 116.012 10.2431 115.991 10.051 115.991C7.24489 115.991 5 113.728 5 110.94C5 108.292 7.05461 106.102 9.66242 105.89C9.80272 105.878 9.9076 105.89 10.051 105.89H64.4459C67.255 105.89 69.4968 108.149 69.4968 110.94Z" stroke="#DCB8FF" stroke-width="0.388535" stroke-miterlimit="10"/>
<path d="M252.109 85.9404H197.714L209.758 32.3308H240.064L252.109 85.9404Z" fill="#252525"/>
<path d="M252.109 85.9404H197.714L209.758 32.3308H240.064L252.109 85.9404Z" stroke="#DCB8FF" stroke-width="0.388535" stroke-miterlimit="10"/>
<mask id="mask1_4614_12787" style="mask-type:luminance" maskUnits="userSpaceOnUse" x="197" y="32" width="56" height="54">
<path d="M252.11 85.9399H197.715L209.759 32.3303H240.065L252.11 85.9399Z" fill="white"/>
</mask>
<g mask="url(#mask1_4614_12787)">
<g opacity="0.3">
<path d="M207.816 30.3879C207.91 39.1091 212.751 47.0493 220.25 50.2002C229.503 54.0881 241.267 50.0104 247.059 40.4883C250.207 55.9505 253.235 71.6431 256.383 87.1053C233.33 87.139 210.277 87.0716 187.224 87.1053C194.062 68.1996 200.979 49.2939 207.816 30.3879Z" fill="#DCB8FF"/>
</g>
<path d="M201.988 35.8266C205.159 36.0137 203.832 49.2116 214.421 59.912C224.101 69.6925 237.87 71.2934 241.23 71.5663C247.729 72.0937 252.847 70.9581 256.383 70.0124C257.127 75.9538 257.97 81.9408 258.714 87.8822H188.001C194.87 46.2613 199.124 35.6573 201.988 35.8266Z" fill="#DCB8FF"/>
<g opacity="0.3">
<path d="M215.199 28.8341L203.154 94.4863L212.479 94.0979L217.919 28.0571L215.199 28.8341Z" fill="white"/>
</g>
<g opacity="0.5">
<path d="M211.313 32.7188L198.88 87.8822H202.766L211.702 33.4957L211.313 32.7188Z" fill="white"/>
</g>
</g>
<path d="M225.108 34.6624C233.477 34.6624 240.064 33.6187 240.064 32.3312C240.064 31.0437 233.477 30 225.108 30C216.739 30 209.758 31.0437 209.758 32.3312C209.758 33.6187 216.739 34.6624 225.108 34.6624Z" fill="#DCB8FF" stroke="#DCB8FF" stroke-width="0.388535" stroke-miterlimit="10"/>
<path d="M257.159 85.9403C257.159 88.7283 254.917 90.9905 252.108 90.9905C251.916 90.9905 251.517 91.0117 251.331 90.9905H198.49C198.304 91.0117 197.905 90.9905 197.713 90.9905C194.907 90.9905 192.662 88.7283 192.662 85.9403C192.662 83.2918 194.717 81.1023 197.325 80.8902C197.465 80.878 197.57 80.8902 197.713 80.8902H252.108C254.917 80.8902 257.159 83.1493 257.159 85.9403Z" fill="#252525"/>
<path d="M257.159 85.9403C257.159 88.7283 254.917 90.9905 252.108 90.9905C251.916 90.9905 251.517 91.0117 251.331 90.9905H198.49C198.304 91.0117 197.905 90.9905 197.713 90.9905C194.907 90.9905 192.662 88.7283 192.662 85.9403C192.662 83.2918 194.717 81.1023 197.325 80.8902C197.465 80.878 197.57 80.8902 197.713 80.8902H252.108C254.917 80.8902 257.159 83.1493 257.159 85.9403Z" stroke="#DCB8FF" stroke-width="0.388535" stroke-miterlimit="10"/>
<path d="M158.083 56.9404H103.688L115.733 3.33081H146.039L158.083 56.9404Z" fill="#252525"/>
<path d="M158.083 56.9404H103.688L115.733 3.33081H146.039L158.083 56.9404Z" stroke="#DCB8FF" stroke-width="0.388535" stroke-miterlimit="10"/>
<mask id="mask2_4614_12787" style="mask-type:luminance" maskUnits="userSpaceOnUse" x="103" y="3" width="56" height="54">
<path d="M158.084 56.9399H103.689L115.734 3.33032H146.04L158.084 56.9399Z" fill="white"/>
</mask>
<g mask="url(#mask2_4614_12787)">
<g opacity="0.3">
<path d="M113.791 1.38794C113.885 10.1091 118.726 18.0493 126.224 21.2002C135.478 25.0881 147.241 21.0104 153.033 11.4883C156.181 26.9505 159.21 42.6431 162.358 58.1053C139.305 58.139 116.252 58.0716 93.1987 58.1053C100.037 39.1996 106.953 20.2939 113.791 1.38794Z" fill="#DCB8FF"/>
</g>
<path d="M107.963 6.82657C111.134 7.01372 109.807 20.2116 120.396 30.912C130.076 40.6925 143.845 42.2934 147.205 42.5663C153.704 43.0937 158.822 41.9581 162.358 41.0124C163.102 46.9538 163.946 52.9408 164.689 58.8822H93.9761C100.846 17.2613 105.099 6.65734 107.963 6.82657Z" fill="#DCB8FF"/>
<g opacity="0.3">
<path d="M121.173 -0.165921L109.129 65.4863L118.454 65.0979L123.893 -0.942871L121.173 -0.165921Z" fill="white"/>
</g>
<g opacity="0.5">
<path d="M117.288 3.71875L104.855 58.8822H108.74L117.677 4.4957L117.288 3.71875Z" fill="white"/>
</g>
</g>
<path d="M131.083 5.66242C139.451 5.66242 146.039 4.6187 146.039 3.33121C146.039 2.04372 139.451 1 131.083 1C122.714 1 115.733 2.04372 115.733 3.33121C115.733 4.6187 122.714 5.66242 131.083 5.66242Z" fill="#DCB8FF" stroke="#DCB8FF" stroke-width="0.388535" stroke-miterlimit="10"/>
<path d="M163.134 56.9403C163.134 59.7283 160.892 61.9905 158.083 61.9905C157.89 61.9905 157.492 62.0117 157.306 61.9905H104.465C104.279 62.0117 103.88 61.9905 103.688 61.9905C100.882 61.9905 98.6367 59.7283 98.6367 56.9403C98.6367 54.2918 100.691 52.1023 103.299 51.8902C103.439 51.878 103.544 51.8902 103.688 51.8902H158.083C160.892 51.8902 163.134 54.1493 163.134 56.9403Z" fill="#252525"/>
<path d="M163.134 56.9403C163.134 59.7283 160.892 61.9905 158.083 61.9905C157.89 61.9905 157.492 62.0117 157.306 61.9905H104.465C104.279 62.0117 103.88 61.9905 103.688 61.9905C100.882 61.9905 98.6367 59.7283 98.6367 56.9403C98.6367 54.2918 100.691 52.1023 103.299 51.8902C103.439 51.878 103.544 51.8902 103.688 51.8902H158.083C160.892 51.8902 163.134 54.1493 163.134 56.9403Z" stroke="#DCB8FF" stroke-width="0.388535" stroke-miterlimit="10"/>
<path d="M131.501 96C136.747 96 141 91.7467 141 86.5C141 81.2533 136.747 77 131.501 77C126.254 77 122.001 81.2533 122.001 86.5C122.001 91.7467 126.254 96 131.501 96Z" fill="#252525" stroke="#DCB8FF" stroke-width="0.351852" stroke-miterlimit="10"/>
<mask id="mask3_4614_12787" style="mask-type:luminance" maskUnits="userSpaceOnUse" x="122" y="77" width="19" height="19">
<path d="M131.5 96C136.746 96 140.999 91.7467 140.999 86.5C140.999 81.2533 136.746 77 131.5 77C126.253 77 122 81.2533 122 86.5C122 91.7467 126.253 96 131.5 96Z" fill="white"/>
</mask>
<g mask="url(#mask3_4614_12787)">
<path d="M123.621 76.5104C123.558 77.1969 122.968 85.0171 128.761 89.7278C134.046 94.0251 142.387 93.8989 148.526 88.9322C148.118 89.8641 144.59 97.5913 136.41 99.396C129.9 100.832 120.712 98.4581 118.421 91.3188C116.836 86.3824 118.974 80.4918 123.622 76.5104H123.621Z" fill="#DCB8FF"/>
<path opacity="0.5" d="M128.884 72.7778C128.66 73.4233 125.595 82.6341 130.352 88.1981C135.351 94.0443 147.822 94.5039 157.061 85.4445C149.565 99.3635 136.547 107.077 125.029 104.904C117.619 103.506 107.423 97.3729 107.59 88.9325C107.742 81.2571 116.437 73.0934 128.884 72.7778Z" fill="#DCB8FF"/>
</g>
<line y1="115.5" x2="266" y2="115.5" stroke="white"/>
</svg>
