<svg width="412" height="412" viewBox="0 0 412 412" fill="none" xmlns="http://www.w3.org/2000/svg">
<path d="M205.855 411.711C319.546 411.711 411.711 319.546 411.711 205.855C411.711 92.1646 319.546 0 205.855 0C92.1646 0 0 92.1646 0 205.855C0 319.546 92.1646 411.711 205.855 411.711Z" fill="#F9F8F4"/>
<path d="M376.245 321.408C396.297 289.646 407.899 252.014 407.899 211.675C407.899 97.9847 315.734 5.81986 202.043 5.81986C131.188 5.81986 68.6882 41.6222 31.6533 96.1231C68.1164 38.3628 132.503 0 205.855 0C319.546 0 411.711 92.1648 411.711 205.855C411.711 248.691 398.629 288.464 376.245 321.408Z" fill="white"/>
<path d="M325.954 85.7745C329.405 89.2251 332.689 92.7964 335.798 96.4802C305.22 70.6473 266.894 56.5722 226.397 56.5722C181.03 56.5722 138.377 74.237 106.295 106.319C74.2126 138.402 56.5478 181.054 56.5478 226.421C56.5478 266.918 70.6235 305.245 96.4558 335.822C92.772 332.713 89.2 329.429 85.75 325.979C53.6677 293.896 35.9985 251.248 36.0029 205.876C35.9985 160.505 53.6677 117.857 85.75 85.7745C117.832 53.6922 160.481 36.0229 205.852 36.0273C251.224 36.0229 293.872 53.6922 325.954 85.7745Z" fill="#EFEFEF"/>
<path d="M325.699 325.952C322.248 329.402 318.677 332.686 314.993 335.795C340.826 305.218 354.901 266.892 354.901 226.395C354.901 181.028 337.236 138.375 305.154 106.293C273.072 74.2108 230.419 56.5454 185.052 56.5454C144.555 56.5454 106.229 70.6211 75.6514 96.4534C78.7602 92.7696 82.0443 89.1976 85.495 85.7476C117.577 53.6653 160.226 35.996 205.597 36.0005C250.968 35.996 293.617 53.6653 325.699 85.7476C357.781 117.83 375.451 160.478 375.446 205.85C375.451 251.221 357.781 293.869 325.699 325.952Z" fill="#E2E2E2"/>
<path d="M375.705 205.855C375.705 207.799 375.673 209.744 375.61 211.675C374.167 168.484 356.67 128.088 325.957 97.3808C293.877 65.3017 251.226 47.6324 205.855 47.6324C160.484 47.6324 117.833 65.3017 85.7538 97.3808C55.0407 128.088 37.5429 168.484 36.1007 211.675C36.0372 209.744 36.0054 207.799 36.0054 205.855C36.0054 160.484 53.6683 117.833 85.7538 85.7538C117.833 53.6683 160.484 36.0054 205.855 36.0054C251.226 36.0054 293.877 53.6683 325.957 85.7538C358.042 117.833 375.705 160.484 375.705 205.855Z" fill="#848483"/>
<path d="M366.234 259.708C358.083 284.976 343.997 308.122 324.676 327.437C292.597 359.522 249.945 377.185 204.574 377.185C159.204 377.185 116.552 359.522 84.473 327.437C52.3875 295.358 34.7246 252.706 34.7246 207.335C34.7246 187.544 38.0857 168.267 44.5346 150.166C39.0959 166.927 36.2749 184.621 36.2749 202.748C36.2749 248.119 53.9441 290.77 86.0233 322.85C118.102 354.935 160.76 372.598 206.131 372.598C251.502 372.598 294.153 354.935 326.232 322.85C344.372 304.71 357.905 283.191 366.234 259.708Z" fill="white"/>
<path d="M315.187 206.078L289.245 238.959L257.844 309.529L266.947 280.054C272.441 262.326 277.941 244.603 283.436 226.875L265.195 189.422L255.869 186.743L252.498 226.875L247.568 244.866L239.626 261.214L241.815 235.207V213.635L238.982 189.672L231.311 184.125L219.661 181.721H192.047L180.401 184.125L172.726 189.672L169.897 213.635V235.207L172.087 261.214L164.14 244.866L159.211 226.875L155.839 186.743L146.514 189.422L128.278 226.875C133.772 244.603 139.267 262.326 144.762 280.054C147.796 289.879 150.83 299.704 153.869 309.529L122.464 238.959L96.5264 206.078L97.2577 169.664L109.434 157.365L121.124 136.905L122.188 125.688L129.648 132.277L132.389 144.659C137.021 145.329 141.654 145.995 146.286 146.664C151.684 152.063 157.087 157.461 162.485 162.864C160.27 156.669 158.054 150.469 155.839 144.273L146.942 134.164L122.629 120.967L133.592 108.774L141.85 104.71H150.992L162.082 111.821C166.167 110.805 170.256 109.789 174.341 108.774C184.709 108.748 195.073 108.725 205.44 108.699H206.272C216.64 108.725 227.004 108.748 237.367 108.774C241.456 109.789 245.542 110.805 249.631 111.821L260.721 104.71H269.863L278.121 108.774L289.08 120.967L264.771 134.164L255.87 144.273C253.659 150.469 251.443 156.669 249.228 162.864C254.627 157.461 260.025 152.063 265.428 146.664C270.06 145.995 274.692 145.329 279.324 144.659L282.061 132.277L289.525 125.688L290.585 136.905L302.28 157.365L314.456 169.664L315.187 206.078Z" fill="#252525"/>
<path d="M247.428 311.504V323.107L231.311 331.583L206.271 336.605L205.855 336.689L205.439 336.605L180.4 331.583L164.283 323.107V311.504L169.896 308.448V284.503L174.34 301.745L183.254 310.655L185.277 319.258L205.439 317.997L205.855 317.971L206.271 317.997L226.434 319.258L228.456 310.655L237.366 301.745L241.814 284.503V308.448L247.428 311.504Z" fill="#252525"/>
<path d="M214.617 235.489L205.855 270.911V270.922L205.851 270.911L197.094 235.489L205.855 222.364L214.617 235.489Z" fill="#252525"/>
</svg>
