<svg width="219" height="47" viewBox="0 0 219 47" fill="none" xmlns="http://www.w3.org/2000/svg">
<path d="M6.81836 5.67136L7.45712 8.53931L9.78655 11.8331L12.3039 8.17604L10.3752 6.05947C9.95616 5.8292 9.53678 5.59972 9.11691 5.37123C8.6444 5.11394 8.17119 4.85775 7.69739 4.60254C7.40438 4.95878 7.11147 5.31502 6.81846 5.67127L6.81836 5.67136Z" fill="#212121"/>
<path d="M9.11523 5.36914C9.33729 5.48818 9.56054 5.60911 9.78487 5.73211C9.98288 5.84057 10.179 5.94912 10.3735 6.05778C10.1445 7.93596 9.91549 9.81405 9.68651 11.6922C9.57508 11.5347 9.46376 11.3773 9.35233 11.2197" fill="#9AFF01"/>
<path d="M38.3311 5.67166L37.6924 8.53961L35.363 11.8334L32.8457 8.17634C33.4886 7.47078 34.1314 6.76532 34.7744 6.05977C35.1931 5.8296 35.6123 5.60041 36.0318 5.37202C36.5046 5.11454 36.9781 4.85804 37.4523 4.60254C37.7452 4.95888 38.0382 5.31532 38.3311 5.67166Z" fill="#212121"/>
<path d="M36.0366 5.37109C35.8149 5.49004 35.5919 5.61086 35.3679 5.73367C35.17 5.84212 34.9737 5.95068 34.7793 6.05933C35.0083 7.93752 35.2373 9.81561 35.4662 11.6938C35.5777 11.5363 35.689 11.3788 35.8004 11.2213" fill="#9AFF01"/>
<path d="M5.37109 3.34473L6.81447 5.67099L7.6934 4.60226L5.37109 3.34473Z" fill="#5C9011"/>
<path d="M39.7755 3.34473L38.3322 5.67099L37.4531 4.60226L39.7755 3.34473Z" fill="#5C9011"/>
<path d="M31.8669 1.46094L33.3572 2.35016L35.3611 5.73159L34.7725 6.05715L32.8437 8.17373L31.1655 5.30578L30.2763 4.29128L29.1367 3.86547L31.8669 1.46094Z" fill="#88D803"/>
<path d="M13.2774 1.46094L11.7871 2.35016L9.7832 5.73159L10.3719 6.05715L12.3005 8.17373L13.9787 5.30578L14.868 4.29128L16.0076 3.86547L13.2774 1.46094Z" fill="#88D803"/>
<path d="M31.8682 1.46135L29.1381 3.86599H16.0037C15.0936 3.06444 14.1835 2.2629 13.2734 1.46135C14.2837 1.25256 15.2939 1.04376 16.3043 0.834961H28.8377L31.8683 1.46135H31.8682Z" fill="#9AFF01"/>
<path d="M32.8475 8.17319L30.0548 9.75154L27.6375 8.13598L26.7233 6.37011L23.9932 7.18412H21.1535L18.423 6.37011L17.5088 8.13598L15.0919 9.75154L12.2988 8.17319L13.9773 5.30534L14.8666 4.29084L16.0061 3.86523H29.1406L30.28 4.29084L31.1694 5.30534L32.8475 8.17319Z" fill="#72B601"/>
<path d="M17.5059 8.13697L20.2173 7.80517L21.1503 7.18521L18.4201 6.37109L17.5059 8.13697Z" fill="#5C9011"/>
<path d="M38.5961 25.1249L33.5882 37.2478L29.4924 40.6225H26.4229L22.5744 39.1947L18.7259 40.6225H15.6564L11.5606 37.2478L6.55273 25.1249L10.3213 21.6238H12.9014L19.2133 17.8916H25.9356L32.2475 21.6238H34.8276L38.5961 25.1249Z" fill="#486C15"/>
<path d="M25.131 12.7469C24.2778 12.797 23.4247 12.8472 22.5715 12.8974L20.0117 12.7469L20.2184 7.80619L21.1517 7.18652H23.9912L24.9245 7.80619C24.9933 9.45311 25.0621 11.1 25.1309 12.7469H25.131Z" fill="#9AFF01"/>
<path d="M15.0918 9.75312V12.596L15.3923 14.3995L17.4361 14.2304C18.2953 13.7357 19.1544 13.241 20.0137 12.7463C20.0826 11.0994 20.1514 9.45259 20.2203 7.80566L17.5089 8.13756L15.0918 9.75312Z" fill="#88D803"/>
<path d="M13.2768 1.46218L11.2041 0H9.41939L7.62531 0.835981L5.37109 3.34393L9.78256 5.73283" fill="#9AFF01"/>
<path d="M12.2988 8.1748L12.7121 10.3791L15.0917 9.75286L12.2988 8.1748Z" fill="#5C9011"/>
<path d="M12.3005 8.1748L9.7832 11.8318L10.6224 12.4705L12.7138 10.3791L12.3005 8.1748Z" fill="#72B601"/>
<path d="M5.37253 3.34473L5.0625 6.62285L7.45457 8.53893L6.8159 5.67099L5.37253 3.34473Z" fill="#88D803"/>
<path d="M5.05688 6.62207L2.65234 10.8301L5.82082 13.6354H7.21096L8.12521 13.936L9.77837 11.832L7.44895 8.53816L5.05688 6.62207Z" fill="#5C9011"/>
<path d="M13.2699 16.5606L10.6211 12.4715L12.7125 10.3801L15.0921 9.75391V12.5968L15.3927 14.4002L13.2699 16.5606Z" fill="#9AFF01"/>
<path d="M10.6209 12.4707L10.3203 17.424L13.2697 16.5598L10.6209 12.4707Z" fill="#72B601"/>
<path d="M9.78011 11.832L8.12695 13.936L8.83459 16.5598L10.3186 17.4239L10.6193 12.4707L9.78011 11.832Z" fill="#88D803"/>
<path d="M2.65517 10.8301V12.8965L0.150391 13.3599L2.65517 10.8301Z" fill="#88D803"/>
<path d="M8.8356 16.5597L0 20.8492L2.65509 12.8965V10.8301L5.82357 13.6354H7.2137L8.12796 13.936L8.8356 16.5597Z" fill="#72B601"/>
<path d="M0 20.8492L0.150314 13.3599L2.65509 12.8965L0 20.8492Z" fill="#88D803"/>
<path d="M42.4922 10.8301V12.8965L44.997 13.3599L42.4922 10.8301Z" fill="#88D803"/>
<path d="M45.1473 20.8492L44.997 13.3599L42.4922 12.8965L45.1473 20.8492Z" fill="#88D803"/>
<path d="M29.4905 40.6246H26.421L22.5727 39.1967L18.7241 40.6246H15.6546C14.9778 40.0778 14.2949 39.5154 13.6067 38.9371C12.8712 38.3191 12.1548 37.704 11.457 37.0928C12.5556 39.7228 13.6543 42.3528 14.7529 44.9828C17.3598 44.745 19.9658 44.5068 22.5727 44.2689C25.1793 44.5068 27.7856 44.745 30.3922 44.9828C31.4632 42.3968 32.5342 39.8107 33.6051 37.2247C32.2336 38.358 30.862 39.4913 29.4905 40.6246Z" fill="#35461A"/>
<path d="M30.3951 44.9824L22.5755 45.8215L14.7559 44.9824L22.5755 44.2686L30.3951 44.9824Z" fill="#9AFF01"/>
<path d="M27.6425 8.13697L24.9311 7.80517L23.998 7.18521L26.7282 6.37109L27.6425 8.13697Z" fill="#5C9011"/>
<path d="M30.0543 9.75312V12.596L29.7538 14.3995L27.71 14.2304C26.8508 13.7357 25.9916 13.2409 25.1324 12.7462C25.0635 11.0994 24.9947 9.45249 24.9258 7.80566L27.6372 8.13756L30.0543 9.75312Z" fill="#88D803"/>
<path d="M31.8711 1.46218L33.9437 0H35.7284L37.5225 0.835981L39.7768 3.34393L35.3652 5.73283" fill="#9AFF01"/>
<path d="M32.8475 8.1748L32.4343 10.3791L30.0547 9.75286L32.8475 8.1748Z" fill="#5C9011"/>
<path d="M32.8449 8.1748L35.3622 11.8318L34.5231 12.4705L32.4316 10.3791L32.8449 8.1748Z" fill="#72B601"/>
<path d="M39.7755 3.34473L40.0854 6.62285L37.6934 8.53893L38.3321 5.67099L39.7755 3.34473Z" fill="#88D803"/>
<path d="M40.0887 6.62207L42.4932 10.8301L39.3247 13.6354H37.9346L37.0203 13.936L35.3672 11.832L37.6966 8.53816L40.0887 6.62207Z" fill="#5C9011"/>
<path d="M20.0163 12.7471C19.925 13.2742 19.8336 13.8016 19.7422 14.3291C19.8335 13.8019 19.9247 13.2745 20.016 12.7474L20.0163 12.7471Z" fill="#33646B"/>
<path d="M38.5943 25.128L34.8256 21.627H32.2456L25.9338 17.8946H19.2115L12.8997 21.627H10.3197C9.06338 22.794 7.80713 23.961 6.55078 25.128C7.80713 22.5602 9.06338 19.9927 10.3194 17.4249C11.3029 17.1369 12.2859 16.8487 13.269 16.5606L15.3916 14.4003L17.4355 14.2313L20.0129 12.7477C19.9215 13.2748 19.8304 13.8022 19.7391 14.3294C19.8304 13.8019 19.9218 13.2745 20.0132 12.7474L20.0129 12.7477V12.7471L22.5728 12.9035L25.1321 12.7471C25.9914 13.2419 26.8507 13.7365 27.7098 14.2313L29.7536 14.4003L31.8762 16.5606L29.4716 17.4999L28.5638 16.83L29.4716 17.5002L31.8762 16.5606C32.8594 16.8487 33.8427 17.1369 34.8258 17.4249C36.0819 19.9927 37.3381 22.5602 38.5945 25.128H38.5943Z" fill="#33646B"/>
<path d="M20.0163 12.7471C19.925 13.2742 19.8336 13.8016 19.7422 14.3291C19.8335 13.8019 19.9247 13.2745 20.016 12.7474L20.0163 12.7471Z" fill="#2A4347"/>
<path d="M17.4375 14.2311L20.0151 12.7471C19.846 13.724 19.6769 14.701 19.5078 15.6779C18.8176 15.1956 18.1276 14.7134 17.4375 14.2311Z" fill="#5C9011"/>
<path d="M15.3904 14.3984L13.2676 16.5588L15.6722 17.4981L17.2502 16.3334L15.3904 14.3984Z" fill="#5C9011"/>
<path d="M38.5943 25.1277L34.8256 21.6267H32.2455L25.9337 17.8944H19.2114L12.8996 21.6267H10.3195C9.06328 22.7937 7.80703 23.9607 6.55078 25.1277C7.80703 22.5601 9.06318 19.9923 10.3194 17.4247C11.3026 17.1367 12.2858 16.8486 13.2689 16.5604L15.6735 17.5L17.2514 16.3352L15.3916 14.4003L17.4355 14.2312C18.1255 14.7135 18.8155 15.1956 19.5057 15.6779C19.6747 14.701 19.8439 13.724 20.013 12.7471L22.5728 12.9034L25.1322 12.7471C25.3011 13.724 25.4703 14.701 25.6392 15.6781L25.6394 15.6778L27.7099 14.2313L29.7535 14.4004L27.8938 16.3352V16.3354L29.4717 17.5002L31.8763 16.5606C32.8595 16.8487 33.8426 17.1368 34.8257 17.4249C36.082 19.9926 37.3381 22.5603 38.5944 25.128L38.5943 25.1277Z" fill="#35461A"/>
<path d="M27.7124 14.2312C26.8531 13.7365 25.994 13.2418 25.1348 12.7471L25.642 15.6777C26.3321 15.1955 27.0223 14.7133 27.7124 14.2312Z" fill="#5C9011"/>
<path d="M29.7524 14.3984L31.8752 16.5588L29.4705 17.4981L27.8926 16.3334L29.7524 14.3984Z" fill="#5C9011"/>
<path d="M31.8767 16.5606L34.5255 12.4715L32.434 10.3801L30.0544 9.75391V12.5968L29.7539 14.4002L31.8767 16.5606Z" fill="#9AFF01"/>
<path d="M34.5277 12.4707L34.8283 17.424L31.8789 16.5598L34.5277 12.4707Z" fill="#72B601"/>
<path d="M12.1992 16.8727C12.4678 19.5486 12.7364 22.2245 13.005 24.9005L13.9067 28.8268L15.5411 32.1894L14.9775 26.9482L15.0526 23.0407L15.6726 17.4989L13.2679 16.5596C12.9117 16.664 12.5555 16.7683 12.1992 16.8727Z" fill="#F5F9FC"/>
<path d="M35.3626 11.832L37.0157 13.936L36.3081 16.5598L34.8241 17.4239L34.5234 12.4707L35.3626 11.832Z" fill="#88D803"/>
<path d="M36.3066 16.5597L45.1422 20.8492L42.4871 12.8965V10.8301L39.3187 13.6354H37.9285L37.0143 13.936L36.3066 16.5597Z" fill="#72B601"/>
<path d="M45.1476 20.8489L39.8124 27.6118L33.3534 42.127C32.3671 43.0788 31.3808 44.0307 30.3945 44.9825C33.1287 38.3639 35.8625 31.7453 38.5967 25.1269L34.8278 17.4236L36.312 16.5596L45.1476 20.8489Z" fill="#5C9011"/>
<path d="M0 20.8489L5.33522 27.6118L11.7942 42.127C12.7805 43.0788 13.7668 44.0307 14.7531 44.9825C12.0189 38.3639 9.28505 31.7453 6.5509 25.1269L10.3198 17.4236L8.8356 16.5596L0 20.8489Z" fill="#5C9011"/>
<path d="M30.3951 44.9834L22.5755 46.9996L14.7559 44.9834L22.5755 45.8224L30.3951 44.9834Z" fill="#35461A"/>
<path d="M15.6727 17.4992L14.2522 18.4169L13.4784 21.0566L13.7288 25.4486L14.3432 28.6573L15.5411 32.1895L13.9109 28.8392L13.005 24.9006C12.7365 22.2246 12.4679 19.5487 12.1992 16.8728L13.268 16.5596L15.6727 17.4992Z" fill="#E0E0E0"/>
<path d="M32.948 16.8727C32.6794 19.5486 32.4108 22.2245 32.1422 24.9005L31.2405 28.8268L29.6061 32.1894L30.1697 26.9482L30.0946 23.0407L29.4746 17.4989L31.8792 16.5596C32.2355 16.664 32.5917 16.7683 32.948 16.8727Z" fill="#F5F9FC"/>
<path d="M29.4746 17.4992L30.8951 18.4169L31.6689 21.0566L31.4185 25.4486L30.8041 28.6573L29.6062 32.1895L31.2364 28.8392L32.1423 24.9006C32.4108 22.2246 32.6794 19.5487 32.9481 16.8728L31.8792 16.5596L29.4746 17.4992Z" fill="#E0E0E0"/>
<path d="M97.242 33.8291V39.0891H55.0449V33.8291L69.8018 13.2176H61.1548V18.88H55.8729V7.95898H79.9097V12.6351L64.7096 33.8291H97.242Z" fill="#F9F8F4"/>
<path d="M83.9395 39.0892V34.0985H87.4307V12.9496H83.9395V7.95898H94.3236V27.6196L101.761 21.5658H97.1883V17.4256H110.28V21.8121H108.11L101.774 27.2192L107.549 34.0985H110.549V39.0892H103.902L94.3236 27.6196L94.3237 34.3447H96.9422V39.0893H83.9395L83.9395 39.0892Z" fill="#F9F8F4"/>
<path d="M113.211 39.0892V33.83H117.374V13.2182H113.211V7.95898H126.287L137.739 27.3706V13.2182H133.688V7.95898H147.653V13.2182H143.289V39.313H136.352L122.924 16.2395V33.83H126.84V39.0892H113.211Z" fill="#F9F8F4"/>
<path d="M161.417 39.5827C158.224 39.5827 155.527 38.5721 153.326 36.5503C151.125 34.5288 150.025 31.7575 150.025 28.2362C150.025 24.7148 151.125 21.9439 153.326 19.9221C155.527 17.9006 158.224 16.8896 161.417 16.8896C164.61 16.8896 167.325 17.9006 169.518 19.9221C171.711 21.9439 172.808 24.7152 172.808 28.2362C172.808 31.7128 171.722 34.4728 169.552 36.5167C167.381 38.5609 164.669 39.5828 161.417 39.5828L161.417 39.5827ZM161.394 34.2115C162.677 34.2115 163.718 33.7192 164.516 32.7345C165.314 31.7498 165.714 30.2056 165.714 28.1019C165.714 26.2521 165.325 24.8086 164.55 23.7714C163.774 22.7346 162.722 22.216 161.394 22.216C158.544 22.216 157.12 24.2749 157.12 28.3928C157.12 30.079 157.474 31.47 158.183 32.5667C158.891 33.6633 159.962 34.2116 161.394 34.2116L161.394 34.2115Z" fill="#F9F8F4"/>
<path d="M176.48 22.4174V17.4268H186.686V34.0997H189.908V39.0903H176.48V34.0997H179.77V22.4174H176.48Z" fill="#F9F8F4"/>
<path d="M178.838 11.2153C178.838 10.1739 179.207 9.28156 179.946 8.5377C180.684 7.79395 181.576 7.42188 182.62 7.42188C183.679 7.42188 184.574 7.79395 185.306 8.5377C186.036 9.28146 186.402 10.1738 186.402 11.2153C186.402 12.2567 186.033 13.1455 185.294 13.8819C184.556 14.6184 183.664 14.9863 182.62 14.9863C181.591 14.9863 180.703 14.6145 179.957 13.8707C179.211 13.127 178.838 12.2419 178.838 11.2153Z" fill="#9AFF01"/>
<path d="M186.799 11.2153C186.799 10.1739 187.14 9.28156 187.821 8.5377C188.503 7.79395 189.325 7.42188 190.289 7.42188C191.266 7.42188 192.092 7.79395 192.767 8.5377C193.441 9.28146 193.779 10.1738 193.779 11.2153C193.779 12.2567 193.438 13.1455 192.756 13.8819C192.075 14.6184 191.252 14.9863 190.289 14.9863C189.339 14.9863 188.52 14.6145 187.831 13.8707C187.143 13.127 186.799 12.2419 186.799 11.2153Z" fill="#88D803"/>
<path d="M194.18 11.2153C194.18 10.1739 194.45 9.28156 194.992 8.5377C195.533 7.79395 196.186 7.42188 196.951 7.42188C197.728 7.42188 198.384 7.79395 198.92 8.5377C199.455 9.28146 199.723 10.1738 199.723 11.2153C199.723 12.2567 199.453 13.1455 198.911 13.8819C198.37 14.6184 197.717 14.9863 196.951 14.9863C196.197 14.9863 195.546 14.6145 195 13.8707C194.453 13.127 194.18 12.2419 194.18 11.2153Z" fill="#5C9011"/>
<path d="M200.121 11.2153C200.121 10.1739 200.325 9.28156 200.732 8.5377C201.139 7.79395 201.63 7.42188 202.206 7.42188C202.79 7.42188 203.283 7.79395 203.686 8.5377C204.089 9.28146 204.29 10.1738 204.29 11.2153C204.29 12.2567 204.087 13.1455 203.68 13.8819C203.273 14.6184 202.781 14.9863 202.206 14.9863C201.638 14.9863 201.149 14.6145 200.738 13.8707C200.327 13.127 200.121 12.2419 200.121 11.2153Z" fill="#35461A"/>
<path d="M215.058 34.0982V7.42188H204.849V14.9858H208.143V19.8365C206.501 17.8708 204.419 16.8887 201.899 16.8887C199.273 16.8887 197.049 17.9732 195.23 20.1449C193.41 22.3152 192.5 24.9819 192.5 28.1453C192.5 31.2636 193.387 33.9195 195.163 36.113C196.937 38.3051 199.176 39.4018 201.877 39.4018C204.129 39.4018 206.219 38.4388 208.143 36.5099V39.0894H218.617V34.0982H215.058ZM206.901 32.6099C206.028 33.5129 205.017 33.9645 203.868 33.9645C202.481 33.9645 201.421 33.4079 200.69 32.2962C199.959 31.1858 199.593 29.8162 199.593 28.1902C199.593 26.4741 199.963 25.091 200.702 24.0379C201.44 22.9862 202.488 22.461 203.846 22.461C204.98 22.461 205.991 22.9016 206.879 23.7815C207.765 24.6613 208.21 26.1386 208.21 28.2121C208.21 30.2418 207.774 31.7069 206.901 32.6099Z" fill="#F9F8F4"/>
</svg>
