<svg width="67" height="66" viewBox="0 0 67 66" fill="none" xmlns="http://www.w3.org/2000/svg">
<path d="M7.92 7.19691V58.6034L0.717773 65.8003V0L7.92 7.19691Z" fill="#C2EB03"/>
<path d="M66.5667 0L59.3644 7.19691H7.92L0.717773 0H66.5667Z" fill="#D2FF00"/>
<path d="M66.5665 0V65.8003L59.3643 58.6034V7.19691L66.5665 0Z" fill="#93B00D"/>
<path d="M66.5667 65.7999H0.717773L7.92 58.603H59.3644L66.5667 65.7999Z" fill="#748814"/>
<path d="M59.3644 7.19678H7.91992V58.6033H59.3644V7.19678Z" fill="#B3D707"/>
<path opacity="0.3" d="M32.0371 7.19678L7.91992 31.2962V7.48465L8.20801 7.19678H32.0371Z" fill="white"/>
<path opacity="0.2" d="M45.32 7.19678L7.91992 44.5693V32.6636L33.4055 7.19678H45.32Z" fill="white"/>
<path opacity="0.1" d="M52.0181 7.19678L7.91992 51.2624V46.3891L47.1412 7.19678H52.0181Z" fill="white"/>
<path opacity="0.3" d="M59.3649 46.6562V58.562L59.3237 58.6031H47.4092L59.3649 46.6562Z" fill="white"/>
<path opacity="0.1" d="M59.364 39.0176V43.8909L44.6406 58.6035H39.7637L59.364 39.0176Z" fill="white"/>
</svg>
