<svg width="24" height="24" viewBox="0 0 24 24" fill="none" xmlns="http://www.w3.org/2000/svg">
<path d="M20.348 1.68678C18.8445 0.983196 17.2166 0.472532 15.5209 0.177481C15.5061 0.177004 15.4913 0.179805 15.4776 0.185687C15.4639 0.191569 15.4517 0.200389 15.4418 0.211526C15.2383 0.586013 15.0009 1.07398 14.8427 1.44847C13.0441 1.17611 11.215 1.17611 9.41642 1.44847C9.25815 1.06263 9.02075 0.586013 8.80596 0.211526C8.79466 0.18883 8.76075 0.177481 8.72683 0.177481C7.03113 0.472532 5.41457 0.983196 3.89974 1.68678C3.88844 1.68678 3.87713 1.69813 3.86583 1.70947C0.790962 6.32815 -0.0568871 10.822 0.361385 15.2705C0.361385 15.2931 0.37269 15.3158 0.395299 15.3272C2.43014 16.8251 4.38584 17.733 6.31894 18.3344C6.35285 18.3458 6.38677 18.3344 6.39807 18.3117C6.85026 17.6876 7.25723 17.0294 7.60767 16.3372C7.63028 16.2918 7.60767 16.2464 7.56245 16.235C6.91809 15.9854 6.30764 15.6903 5.70849 15.3499C5.66327 15.3272 5.66327 15.2591 5.69718 15.2251C5.82153 15.1343 5.94589 15.0321 6.07024 14.9414C6.09285 14.9187 6.12676 14.9187 6.14937 14.93C10.0382 16.7117 14.2322 16.7117 18.0758 14.93C18.0984 14.9187 18.1323 14.9187 18.1549 14.9414C18.2793 15.0435 18.4036 15.1343 18.528 15.2364C18.5732 15.2705 18.5732 15.3385 18.5167 15.3612C17.9288 15.713 17.3071 15.9967 16.6627 16.2464C16.6175 16.2577 16.6062 16.3145 16.6175 16.3485C16.9792 17.0408 17.3862 17.6989 17.8271 18.3231C17.861 18.3344 17.8949 18.3458 17.9288 18.3344C19.8732 17.733 21.8289 16.8251 23.8638 15.3272C23.8864 15.3158 23.8977 15.2931 23.8977 15.2705C24.3951 10.1298 23.0724 5.66996 20.3932 1.70947C20.3819 1.69813 20.3706 1.68678 20.348 1.68678ZM8.19551 12.5583C7.03113 12.5583 6.05893 11.4802 6.05893 10.1525C6.05893 8.82473 7.00852 7.74666 8.19551 7.74666C9.39381 7.74666 10.3434 8.83608 10.3321 10.1525C10.3321 11.4802 9.3825 12.5583 8.19551 12.5583ZM16.0749 12.5583C14.9105 12.5583 13.9383 11.4802 13.9383 10.1525C13.9383 8.82473 14.8879 7.74666 16.0749 7.74666C17.2732 7.74666 18.2227 8.83608 18.2114 10.1525C18.2114 11.4802 17.2732 12.5583 16.0749 12.5583Z" fill="#D2FF00"/>
</svg>
