<svg width="24" height="24" viewBox="0 0 24 24" fill="none" xmlns="http://www.w3.org/2000/svg">
<path d="M20.0863 1.97294C18.5828 1.05325 16.9549 0.385742 15.2592 6.8232e-05C15.2443 -0.000555675 15.2296 0.00310538 15.2159 0.0107941C15.2022 0.0184827 15.19 0.0300123 15.1801 0.0445694C14.9766 0.534079 14.7392 1.17192 14.5809 1.66143C12.7824 1.30543 10.9533 1.30543 9.1547 1.66143C8.99643 1.15709 8.75903 0.534079 8.54425 0.0445694C8.53294 0.0149022 8.49903 6.8232e-05 8.46511 6.8232e-05C6.76941 0.385742 5.15285 1.05325 3.63802 1.97294C3.62672 1.97294 3.61542 1.98777 3.60411 2.00261C0.529244 8.03989 -0.318606 13.914 0.0996665 19.7288C0.0996665 19.7584 0.110971 19.7881 0.13358 19.8029C2.16842 21.761 4.12412 22.9477 6.05722 23.7339C6.09114 23.7487 6.12505 23.7339 6.13635 23.7042C6.58854 22.8883 6.99551 22.028 7.34595 21.1231C7.36856 21.0638 7.34595 21.0045 7.30073 20.9896C6.65637 20.6633 6.04592 20.2776 5.44677 19.8326C5.40155 19.8029 5.40155 19.7139 5.43546 19.6694C5.55982 19.5508 5.68417 19.4173 5.80852 19.2986C5.83113 19.2689 5.86504 19.2689 5.88765 19.2838C9.77645 21.6126 13.9705 21.6126 17.8141 19.2838C17.8367 19.2689 17.8706 19.2689 17.8932 19.2986C18.0175 19.4321 18.1419 19.5508 18.2662 19.6843C18.3115 19.7288 18.3115 19.8178 18.2549 19.8474C17.6671 20.3073 17.0453 20.6781 16.401 21.0045C16.3558 21.0193 16.3445 21.0935 16.3558 21.138C16.7175 22.0428 17.1245 22.9032 17.5654 23.719C17.5993 23.7339 17.6332 23.7487 17.6671 23.7339C19.6115 22.9477 21.5672 21.761 23.602 19.8029C23.6247 19.7881 23.636 19.7584 23.636 19.7288C24.1334 13.0091 22.8107 7.17954 20.1315 2.00261C20.1202 1.98777 20.1089 1.97294 20.0863 1.97294ZM7.93379 16.1835C6.76942 16.1835 5.79721 14.7744 5.79721 13.0388C5.79721 11.3033 6.74681 9.89409 7.93379 9.89409C9.13209 9.89409 10.0817 11.3181 10.0704 13.0388C10.0704 14.7744 9.12078 16.1835 7.93379 16.1835ZM15.8131 16.1835C14.6488 16.1835 13.6766 14.7744 13.6766 13.0388C13.6766 11.3033 14.6262 9.89409 15.8131 9.89409C17.0114 9.89409 17.961 11.3181 17.9497 13.0388C17.9497 14.7744 17.0114 16.1835 15.8131 16.1835Z" fill="#F9F8F4"/>
</svg>
