<svg width="24" height="24" viewBox="0 0 24 24" fill="none" xmlns="http://www.w3.org/2000/svg">
<path fill-rule="evenodd" clip-rule="evenodd" d="M11.8483 0.794444C9.03504 0.794824 6.31368 1.79993 4.17102 3.62996C2.02836 5.46 0.604184 7.99558 0.153246 10.7831C-0.297692 13.5707 0.254028 16.4284 1.70971 18.845C3.1654 21.2616 5.43009 23.0795 8.09866 23.9735C8.69116 24.084 8.94508 23.7186 8.94508 23.4042V21.382C5.65251 22.0957 4.95845 19.7846 4.95845 19.7846C4.72691 19.0563 4.2396 18.4373 3.58725 18.0428C2.5123 17.3121 3.67189 17.3206 3.67189 17.3206C4.04737 17.3738 4.40575 17.5125 4.71968 17.726C5.03361 17.9395 5.29477 18.2223 5.48323 18.5526C5.81108 19.1429 6.35905 19.5783 7.00664 19.7631C7.65423 19.948 8.34844 19.8671 8.93662 19.5382C8.98441 18.9353 9.24917 18.3705 9.68147 17.9493C7.05757 17.6434 4.28978 16.6238 4.28978 12.0696C4.27059 10.8868 4.70725 9.74219 5.50862 8.87482C5.1459 7.85029 5.18831 6.72513 5.62712 5.73104C5.62712 5.73104 6.61743 5.40816 8.88583 6.94607C10.8254 6.41498 12.8712 6.41498 14.8108 6.94607C17.0707 5.40816 18.061 5.73104 18.061 5.73104C18.4998 6.72513 18.5422 7.85029 18.1795 8.87482C18.9809 9.74219 19.4175 10.8868 19.3984 12.0696C19.3984 16.6408 16.6306 17.6434 13.9897 17.9408C14.2726 18.2287 14.4908 18.574 14.6295 18.9536C14.7682 19.3332 14.8242 19.7383 14.7938 20.1415V23.4042C14.7938 23.7951 15.0054 24.0924 15.6403 23.9735C18.3123 23.0784 20.5794 21.257 22.0348 18.8359C23.4903 16.4149 24.039 13.5525 23.5825 10.7621C23.126 7.97172 21.6942 5.43584 19.5438 3.60921C17.3935 1.78258 14.6652 0.784675 11.8483 0.794444Z" fill="#D2FF00"/>
</svg>
