<svg width="25" height="24" viewBox="0 0 25 24" fill="none" xmlns="http://www.w3.org/2000/svg">
<path d="M8.60861 5.95761C10.1826 5.95761 11.6921 6.58528 12.8051 7.70255C13.9181 8.81981 14.5434 10.3351 14.5434 11.9152C14.5434 13.4953 13.9181 15.0106 12.8051 16.1279C11.6921 17.2451 10.1826 17.8728 8.60861 17.8728C7.03461 17.8728 5.52507 17.2451 4.41209 16.1279C3.2991 15.0106 2.67383 13.4953 2.67383 11.9152C2.67383 10.3351 3.2991 8.81981 4.41209 7.70255C5.52507 6.58528 7.03461 5.95761 8.60861 5.95761ZM17.5108 6.95054C18.9945 6.95054 19.9836 9.17372 19.9836 11.9152C19.9836 14.6567 18.9945 16.8799 17.5108 16.8799C16.0271 16.8799 15.038 14.6567 15.038 11.9152C15.038 9.17372 16.0271 6.95054 17.5108 6.95054ZM21.4673 7.44701C21.8432 7.44701 22.1716 8.26816 22.3377 9.67713L22.3842 10.117L22.403 10.3503L22.4327 10.8408L22.4426 11.098L22.4545 11.6352L22.4564 11.9152L22.4545 12.1952L22.4426 12.7324L22.4327 12.9905L22.403 13.4801L22.3832 13.7134L22.3387 14.1533C22.1716 15.5632 21.8442 16.3834 21.4673 16.3834C21.0914 16.3834 20.763 15.5622 20.5969 14.1533L20.5504 13.7134C20.5436 13.6357 20.5373 13.5579 20.5316 13.4801L20.5019 12.9896C20.4981 12.9039 20.4948 12.8181 20.492 12.7324L20.4802 12.1952V11.6352L20.492 11.098L20.5019 10.8399L20.5316 10.3503L20.5514 10.117L20.5959 9.67713C20.763 8.26717 21.0904 7.44701 21.4673 7.44701Z" fill="#fff"/>
</svg>
