<svg width="24" height="24" viewBox="0 0 24 24" fill="none" xmlns="http://www.w3.org/2000/svg">
<g clip-path="url(#clip0_2941_12194)">
<path d="M23.4211 16.583L20.1301 13.292C20.0384 13.1943 19.928 13.1161 19.8054 13.0619C19.6829 13.0077 19.5507 12.9788 19.4167 12.9767C19.2827 12.9746 19.1497 12.9995 19.0255 13.0498C18.9013 13.1001 18.7885 13.1749 18.6938 13.2697C18.5991 13.3645 18.5244 13.4773 18.4741 13.6016C18.4239 13.7258 18.3991 13.8588 18.4013 13.9928C18.4035 14.1268 18.4325 14.259 18.4868 14.3815C18.5411 14.504 18.6194 14.6144 18.7171 14.706L21.0071 17C19.7623 17.0028 18.5294 16.7566 17.3812 16.2757C16.2329 15.7948 15.1925 15.0891 14.3211 14.2C14.2244 14.1109 14.1107 14.0421 13.9868 13.9978C13.863 13.9535 13.7315 13.9345 13.6002 13.9419C13.4689 13.9494 13.3404 13.9832 13.2224 14.0413C13.1043 14.0993 12.9992 14.1805 12.9131 14.28L12.9001 14.3C12.732 14.4956 12.6459 14.7486 12.6599 15.0061C12.6739 15.2636 12.7868 15.5058 12.9751 15.682C14.0249 16.7437 15.2768 17.5843 16.6568 18.1542C18.0369 18.7241 19.5171 19.0117 21.0101 19L18.7171 21.293C18.6126 21.3829 18.5279 21.4934 18.4681 21.6176C18.4083 21.7418 18.3749 21.877 18.3699 22.0147C18.3649 22.1524 18.3884 22.2897 18.4389 22.4179C18.4894 22.5461 18.566 22.6625 18.6636 22.7598C18.7613 22.857 18.878 22.933 19.0064 22.983C19.1348 23.033 19.2722 23.0559 19.4099 23.0503C19.5476 23.0447 19.6827 23.0107 19.8066 22.9504C19.9306 22.8901 20.0407 22.8049 20.1301 22.7L23.4211 19.409C23.7954 19.034 24.0057 18.5259 24.0057 17.996C24.0057 17.4662 23.7954 16.958 23.4211 16.583Z" fill="#212121"/>
<path d="M21.0071 7.00033L18.7171 9.29033C18.6976 9.31665 18.6796 9.34402 18.6631 9.37233C18.5017 9.56908 18.4221 9.82032 18.4408 10.0741C18.4594 10.3279 18.5749 10.5648 18.7633 10.7358C18.9516 10.9069 19.1986 10.999 19.453 10.9932C19.7074 10.9873 19.9498 10.8839 20.1301 10.7043L21.8361 9.00033L23.4221 7.41533C23.6902 7.14508 23.8757 6.80392 23.9566 6.43193C24.0376 6.05993 24.0107 5.67256 23.8791 5.31533C23.7819 5.04187 23.6255 4.79328 23.4211 4.58733L20.1301 1.30033C20.0388 1.20114 19.9284 1.12143 19.8055 1.06599C19.6826 1.01056 19.5498 0.980546 19.415 0.977754C19.2802 0.974961 19.1463 0.999449 19.0212 1.04975C18.8961 1.10004 18.7825 1.17511 18.6872 1.27043C18.5919 1.36576 18.5168 1.47937 18.4665 1.60445C18.4162 1.72952 18.3917 1.86347 18.3945 1.99825C18.3973 2.13303 18.4273 2.26586 18.4827 2.38874C18.5382 2.51162 18.6179 2.62203 18.7171 2.71333L21.0101 5.00533C16.0771 5.01733 13.3731 7.67933 10.9211 10.4793C8.66909 7.93733 6.0001 5.40033 1.4871 5.04633L1.0061 5.00033C0.740886 5.00033 0.486533 5.10568 0.298996 5.29322C0.11146 5.48076 0.00610352 5.73511 0.00610352 6.00033C0.0112237 6.26394 0.118224 6.51533 0.304662 6.70177C0.4911 6.88821 0.742489 6.99521 1.0061 7.00033C1.0781 7.00033 1.2931 7.03333 1.2931 7.03333C5.1891 7.32833 7.4251 9.52233 9.60009 12.0003C7.4381 14.4663 5.2171 16.7003 1.3531 16.9603L0.953102 16.9813C0.689875 16.9978 0.443961 17.1181 0.269459 17.3159C0.0949567 17.5136 0.00616009 17.7726 0.0226035 18.0358C0.0390469 18.2991 0.159383 18.545 0.35714 18.7195C0.554897 18.894 0.813875 18.9828 1.0771 18.9663C1.2331 18.9593 1.4871 18.9533 1.6121 18.9433C6.6321 18.5563 9.35509 15.3433 11.7831 12.5343C14.2351 9.70033 16.5511 7.01833 21.0071 7.00033Z" fill="#212121"/>
</g>
<defs>
<clipPath id="clip0_2941_12194">
<rect width="24" height="24" fill="white" transform="translate(0 0.000976562)"/>
</clipPath>
</defs>
</svg>
