<svg width="209" height="177" viewBox="0 0 209 177" fill="none" xmlns="http://www.w3.org/2000/svg">
<path d="M136.5 66.5234C136.5 102.705 107.615 132.023 72 132.023C36.3848 132.023 7.5 102.705 7.5 66.5234C7.5 30.3416 36.3848 1.02344 72 1.02344C107.615 1.02344 136.5 30.3416 136.5 66.5234Z" stroke="#F9F8F4"/>
<path d="M127.5 83.0234C127.5 108.434 107.124 129.023 82 129.023C56.8761 129.023 36.5 108.434 36.5 83.0234C36.5 57.6132 56.8761 37.0234 82 37.0234C107.124 37.0234 127.5 57.6132 127.5 83.0234Z" stroke="#F9F8F4"/>
<path d="M198.5 81.5234C198.5 108.876 176.995 131.023 150.5 131.023C124.005 131.023 102.5 108.876 102.5 81.5234C102.5 54.1709 124.005 32.0234 150.5 32.0234C176.995 32.0234 198.5 54.1709 198.5 81.5234Z" stroke="#F9F8F4"/>
<path d="M65.3117 120.968L65.339 129.134C65.356 134.404 68.7872 139.665 75.6537 143.709C89.6152 151.932 112.492 152.014 126.752 143.889C133.999 139.759 137.625 134.306 137.607 128.861L137.58 120.694L65.3117 120.971L65.3117 120.968Z" fill="#9AFF01" stroke="#212121" stroke-width="0.63268"/>
<path d="M127.264 106.109L126.348 105.587C133.533 109.818 136.817 115.433 136.231 120.938C135.719 125.754 132.243 130.487 125.827 134.146C122.965 135.777 119.742 137.065 116.31 138.012C103.259 141.612 87.2 140.256 76.5363 133.972C63.0683 126.038 63.3027 113.253 77.0572 105.413L76.1656 105.929C61.9053 114.055 61.6634 127.311 75.6251 135.536C86.68 142.049 103.325 143.454 116.857 139.722C120.414 138.741 123.755 137.405 126.724 135.713C133.377 131.922 136.978 127.015 137.509 122.021C138.117 116.312 134.711 110.496 127.264 106.109Z" fill="#9AFF01" stroke="#212121" stroke-width="0.63268"/>
<path d="M126.331 101.627C126.187 101.542 126.04 101.456 125.893 101.374L119.363 97.6587C119.471 97.7208 119.578 97.7829 119.683 97.845L83.4943 97.718L77.037 101.453C63.2824 109.293 63.048 122.079 76.5162 130.014C87.1721 136.292 103.213 137.651 116.259 134.061C119.701 133.114 122.935 131.821 125.805 130.185C132.239 126.518 135.715 121.768 136.214 116.937C136.781 111.442 133.495 105.845 126.326 101.622L126.331 101.627Z" fill="#9AFF01" stroke="#212121" stroke-width="0.63268"/>
<path d="M125.811 130.19C112.057 138.029 89.9894 137.952 76.5218 130.019C69.8996 126.117 66.5899 121.042 66.574 115.961L66.5881 119.917C66.6041 125.001 69.9137 130.073 76.5359 133.975C90.0036 141.908 112.071 141.985 125.825 134.146C132.815 130.162 136.314 124.901 136.297 119.65L136.282 115.694C136.299 120.945 132.803 126.206 125.811 130.19Z" fill="#9AFF01" stroke="#212121" stroke-width="0.63268"/>
<path d="M119.286 114.567C109.187 120.322 92.9847 120.264 83.0985 114.44C78.2355 111.575 75.8055 107.85 75.7927 104.119L75.8087 108.362C75.8214 112.094 78.2515 115.819 83.1118 118.684C92.998 124.508 109.2 124.566 119.3 118.811C124.433 115.885 127.001 112.025 126.988 108.168L126.972 103.924C126.985 107.781 124.419 111.644 119.286 114.567Z" fill="#9AFF01" stroke="#212121" stroke-width="0.63268"/>
<path d="M119.541 93.5299C116.871 87.8652 116.166 79.1931 115.851 73.23C115.786 71.6208 115.737 69.9695 115.731 68.1871C115.739 70.3673 114.285 72.552 111.383 74.2071C105.671 77.4617 96.5102 77.4307 90.9192 74.1357C88.1697 72.5154 86.796 70.407 86.7881 68.2974C86.7937 69.6139 86.754 70.8025 86.7249 72.025C86.5528 79.2581 85.9816 86.7032 83.3044 93.3404C83.2527 93.4533 83.1852 93.5296 83.1232 93.6557C78.2562 96.5513 75.7759 100.355 75.7888 104.111C75.8015 107.843 78.2319 111.57 83.0955 114.436C92.9828 120.262 109.187 120.317 119.287 114.563C124.421 111.636 126.99 107.774 126.977 103.916C126.961 99.3858 123.509 95.8306 119.541 93.5299Z" fill="#9AFF01" stroke="#212121" stroke-width="0.63268"/>
<path d="M77.7631 62.0735L77.7677 63.6564C77.7811 67.0785 80.0078 70.4964 84.469 73.1225C93.5384 78.4653 108.398 78.5162 117.661 73.2379C122.369 70.5564 124.725 67.0113 124.711 63.4767L124.706 61.8939L77.7631 62.0735Z" fill="#9AFF01" stroke="#212121" stroke-width="0.63268"/>
<path d="M118.007 52.4203C115.728 51.0772 113.084 50.0688 110.254 49.3966L106.094 48.4061C107.626 48.7702 109.056 49.3155 110.29 50.0428L92.3234 49.9784C93.5044 49.3059 94.8512 48.7945 96.2853 48.4395L92.1344 49.4615C89.483 50.115 86.9929 51.0605 84.8134 52.3023C75.5507 57.582 75.3923 66.1931 84.4622 71.5374C91.1425 75.4737 100.965 76.5367 109.378 74.7171C112.388 74.0639 115.215 73.0455 117.656 71.6528C122.497 68.8938 124.85 65.2248 124.701 61.5907C124.566 58.2679 122.34 54.9721 118.007 52.4203Z" fill="#F9F8F4" stroke="#212121" stroke-width="0.63268"/>
<path d="M119.75 93.6777C121.679 95.5831 123.091 97.9395 123.101 100.75C123.115 104.264 120.934 107.78 116.576 110.444C108.001 115.682 94.2392 115.624 85.8369 110.315C81.7053 107.705 79.6409 104.309 79.6276 100.909C79.6177 98.4835 80.7276 96.0477 82.8202 93.8906C78.1838 96.758 75.7815 100.453 75.7938 104.117C75.8066 107.848 78.2367 111.574 83.0998 114.439C92.9862 120.264 109.189 120.319 119.288 114.566C124.421 111.641 126.99 107.779 126.977 103.922C126.962 99.4735 123.628 95.9837 119.752 93.6803L119.75 93.6777Z" fill="#F9F8F4" stroke="#212121" stroke-width="0.63268"/>
<path d="M110.02 53.7683C105.019 56.6173 96.9992 56.591 92.1046 53.7103C89.6967 52.2931 88.495 50.4492 88.489 48.6024L88.5127 55.5425C88.5187 57.3893 89.7204 59.2333 92.1283 60.6504C97.0229 63.5311 105.045 63.5574 110.044 60.7084C112.586 59.2601 113.857 57.3469 113.851 55.4399L113.829 48.4998C113.836 50.4094 112.56 52.32 110.02 53.7683Z" fill="#9AFF01" stroke="#212121" stroke-width="0.63268"/>
<path d="M85.9337 45.9237L85.9421 48.6094C85.9503 50.8269 87.3922 53.0399 90.2831 54.7408C96.1594 58.1996 105.793 58.2306 111.795 54.8109C114.846 53.0719 116.373 50.7786 116.367 48.4852L116.358 45.7995L85.9337 45.9237Z" fill="#9AFF01" stroke="#212121" stroke-width="0.63268"/>
<path d="M112.017 39.6594C106.14 36.1993 96.5055 36.1683 90.503 39.5893C84.4978 43.0103 84.3955 48.5884 90.2722 52.0486C96.149 55.5087 105.783 55.5396 111.786 52.1187C117.791 48.6977 117.893 43.1221 112.017 39.6594Z" fill="#F9F8F4" stroke="#212121" stroke-width="0.63268"/>
<path d="M81.1709 27.0154L88.2623 47.3976C88.747 48.7888 89.9089 50.1152 91.7524 51.2014C96.8284 54.1885 105.147 54.218 110.331 51.2628C112.3 50.1426 113.531 48.7528 114.028 47.2948L120.99 26.8557L81.1709 27.0154Z" fill="#9AFF01" stroke="#212121" stroke-width="0.63268"/>
<path d="M80.7618 22.3133L80.7684 24.7032C80.7785 27.6605 82.7063 30.6152 86.5634 32.8847C94.4063 37.5012 107.26 37.5415 115.273 32.9788C119.345 30.6604 121.383 27.5975 121.373 24.5383L121.366 22.1483L80.7618 22.3133Z" fill="#9AFF01" stroke="#212121" stroke-width="0.63268"/>
<path d="M115.568 13.9577C107.725 9.33901 94.8695 9.29869 86.8565 13.8635C78.8435 18.4284 78.7055 25.8746 86.549 30.4907C94.3925 35.1093 107.248 35.1497 115.261 30.5848C123.274 26.02 123.412 18.5737 115.568 13.9577Z" fill="#9AFF01" stroke="#212121" stroke-width="0.63268"/>
<path d="M113.892 18.7715L112.254 14.3881C113.06 16.5433 111.993 18.8891 109.065 20.5571C104.536 23.1385 97.27 23.115 92.8375 20.5033C90.0463 18.8587 89.0435 16.5819 89.8131 14.4761L88.2017 18.8713C87.3189 21.2812 88.4676 23.8892 91.6632 25.7691C96.739 28.7557 105.057 28.7852 110.241 25.8305C113.591 23.9215 114.813 21.2372 113.89 18.7689L113.892 18.7715Z" fill="#9AFF01" stroke="#212121" stroke-width="0.63268"/>
<path d="M109.236 11.1547C104.803 8.54538 97.5369 8.5218 93.0076 11.1008C88.4783 13.6824 88.4017 17.8896 92.8342 20.4989C97.2667 23.1082 104.533 23.1317 109.062 20.5527C113.592 17.9711 113.668 13.764 109.236 11.1547Z" fill="#F9F8F4" stroke="#212121" stroke-width="0.63268"/>
<path d="M100.597 9.23998C97.8527 9.30785 95.125 9.89118 93.0081 11.0986C92.0878 11.6228 91.4795 12.2471 90.9287 12.8788C91.0477 15.1836 94.0071 17.3467 97.9973 17.8201C102.249 18.3259 105.933 16.7313 106.227 14.2615C106.483 12.1112 104.024 10.0809 100.597 9.23998Z" fill="#9AFF01" stroke="#212121" stroke-width="0.63268"/>
<path d="M107.302 6.4099C104.034 0.814374 95.8192 1.85289 93.9873 8.09204C92.3193 13.77 98.2875 19.6722 104.471 16.5034C106.61 15.4082 108.288 12.9523 108.296 10.0652C108.299 9.3375 108.172 7.89612 107.302 6.4099Z" fill="#9AFF01" stroke="#212121" stroke-width="0.63268"/>
<path d="M100.734 115.545L96.6002 121.982C93.9322 126.136 93.9822 132.049 97.381 138.784C104.292 152.477 122.43 164.38 137.897 165.369C145.759 165.871 151.415 163.458 154.172 159.165L158.306 152.728L100.734 115.545Z" fill="#9AFF01" stroke="#212121" stroke-width="0.597856"/>
<path d="M157.616 135.85L157.153 134.964C160.712 142.015 160.465 148.135 157.196 152.164C154.338 155.689 149.164 157.614 142.199 157.172C139.093 156.973 135.873 156.32 132.662 155.287C120.449 151.361 108.372 141.979 103.092 131.511C96.4221 118.292 103.118 108.351 118.046 109.304L117.074 109.249C101.598 108.259 94.6568 118.567 101.572 132.27C107.046 143.121 119.566 152.847 132.226 156.917C135.554 157.986 138.891 158.665 142.113 158.871C149.334 159.333 154.697 157.333 157.66 153.68C161.05 149.502 161.304 143.159 157.616 135.85Z" fill="#F9F8F4" stroke="#212121" stroke-width="0.597856"/>
<path d="M159.202 131.802C159.131 131.66 159.057 131.517 158.982 131.375L155.681 125.069C155.735 125.173 155.789 125.278 155.841 125.381L127.122 106.536L120.084 106.131C105.152 105.178 98.4549 115.122 105.126 128.345C110.404 138.807 122.47 148.186 134.675 152.117C137.895 153.155 141.125 153.812 144.241 154.011C151.226 154.457 156.409 152.519 159.266 148.973C162.515 144.942 162.751 138.834 159.201 131.795L159.202 131.802Z" fill="#9AFF01" stroke="#212121" stroke-width="0.597856"/>
<path d="M144.16 154.058C129.245 153.106 111.753 141.631 105.089 128.427C101.813 121.934 101.766 116.231 104.338 112.228L102.336 115.346C99.763 119.351 99.8118 125.051 103.088 131.545C109.751 144.749 127.244 156.224 142.158 157.176C149.738 157.658 155.194 155.332 157.852 151.194L159.853 148.076C157.195 152.214 151.741 154.542 144.16 154.058Z" fill="#9AFF01" stroke="#212121" stroke-width="0.597856"/>
<path d="M147.015 138.313C136.062 137.614 123.218 129.185 118.326 119.49C115.919 114.721 115.884 110.534 117.774 107.595L115.625 110.939C113.737 113.88 113.773 118.067 116.179 122.836C121.071 132.531 133.915 140.959 144.868 141.658C150.435 142.014 154.442 140.305 156.393 137.265L158.542 133.92C156.59 136.96 152.584 138.669 147.018 138.312L147.015 138.313Z" fill="#9AFF01" stroke="#212121" stroke-width="0.597856"/>
<path d="M158.083 121.811C158.846 115.958 162.708 108.754 165.499 103.888C166.268 102.586 167.071 101.258 167.976 99.8492C166.87 101.573 164.597 102.541 161.44 102.34C155.23 101.944 147.945 97.1643 145.171 91.6648C143.806 88.9603 143.787 86.5848 144.857 84.9172C144.19 85.9583 143.552 86.8749 142.905 87.8239C139.078 93.4382 134.825 99.0127 129.306 102.857C129.207 102.919 129.115 102.945 129.001 103.012C123.646 102.77 119.729 104.482 117.823 107.451C115.929 110.4 115.965 114.6 118.376 119.382C123.282 129.107 136.166 137.56 147.15 138.263C152.733 138.62 156.751 136.905 158.707 133.858C161.007 130.278 160.071 125.684 158.083 121.811Z" fill="#9AFF01" stroke="#212121" stroke-width="0.597856"/>
<path d="M141.003 75.294L140.202 76.5407C138.47 79.2366 138.502 83.0765 140.71 87.4482C145.196 96.3389 156.974 104.064 167.016 104.705C172.12 105.032 175.795 103.463 177.583 100.679L178.385 99.4318L141.006 75.2953L141.003 75.294Z" fill="#9AFF01" stroke="#212121" stroke-width="0.597856"/>
<path d="M177.951 88.4753C176.822 86.2369 175.233 84.0735 173.324 82.0782L170.519 79.1428C171.553 80.2235 172.412 81.3934 173.023 82.6053L158.763 73.2488C160.045 73.3311 161.377 73.6263 162.699 74.0898L158.876 72.7439C156.434 71.8848 153.972 71.3392 151.606 71.1878C141.549 70.5458 137.037 77.2436 141.53 86.15C144.839 92.7101 152.112 98.636 159.731 101.562C162.458 102.607 165.225 103.27 167.874 103.44C173.13 103.775 176.871 102.106 178.604 99.1677C180.188 96.4813 180.093 92.7318 177.949 88.4794L177.951 88.4753Z" fill="#F9F8F4" stroke="#212121" stroke-width="0.597856"/>
<path d="M157.23 68.9168L153.074 75.3896C152.136 76.8519 152.154 78.9344 153.348 81.3057C155.781 86.1286 162.166 90.318 167.611 90.664C170.377 90.8412 172.369 89.9909 173.339 88.4789L177.495 82.0061L157.228 68.9154L157.23 68.9168Z" fill="#9AFF01" stroke="#212121" stroke-width="0.597856"/>
<path d="M154.965 64.9062L156.783 72.7481C156.936 73.4021 157.188 74.0938 157.552 74.81C159.978 79.6203 166.352 83.8012 171.787 84.1462C172.683 84.2032 173.497 84.1526 174.22 84.0056L182.091 82.4223L154.965 64.9062Z" fill="#9AFF01" stroke="#212121" stroke-width="0.597856"/>
<path d="M188.315 75.7834L188.568 69.5147L164.034 53.6647L158.448 56.4891C154.625 58.4227 153.539 62.7748 156.197 68.0439C159.978 75.5413 169.908 82.0562 178.375 82.597C184.464 82.9873 188.137 80.1795 188.315 75.7834Z" fill="#9AFF01" stroke="#212121" stroke-width="0.597856"/>
<path d="M187.417 64.7254C184.309 58.5657 176.151 53.2112 169.196 52.7675C162.241 52.3237 159.12 56.9572 162.228 63.117C165.336 69.2767 173.494 74.6311 180.449 75.0749C187.406 75.52 190.523 70.8838 187.417 64.7254Z" fill="#F9F8F4" stroke="#212121" stroke-width="0.597856"/>
<path d="M182.029 61.588C180.677 58.9092 177.13 56.5823 174.105 56.3872C171.079 56.1942 169.724 58.208 171.075 60.8868C172.427 63.5657 175.974 65.8925 178.999 66.0876C182.025 66.2807 183.38 64.2668 182.029 61.588Z" fill="#9AFF01" stroke="#212121" stroke-width="0.597856"/>
<path d="M183.855 64.4979C183.671 64.1316 183.462 63.7703 183.23 63.4141L181.629 60.9513C181.768 61.1663 181.896 61.3857 182.008 61.6086C182.668 62.9191 182.681 64.0709 182.167 64.8811C181.632 65.7299 180.521 66.2063 178.976 66.1068C178.263 66.0604 177.522 65.8967 176.786 65.6371C174.4 64.7965 172.085 62.9542 171.053 60.9062C169.701 58.2275 171.06 56.2129 174.082 56.4067C174.285 56.4205 174.49 56.4412 174.697 56.4721L171.799 56.0285C171.458 55.976 171.119 55.9392 170.784 55.9161C165.794 55.5967 163.555 58.9213 165.786 63.3394C167.49 66.7169 171.31 69.7557 175.246 71.1453C176.458 71.5732 177.682 71.843 178.857 71.9178C181.406 72.082 183.235 71.2935 184.121 69.8944C184.968 68.5539 184.945 66.6587 183.855 64.4979Z" fill="#9AFF01" stroke="#212121" stroke-width="0.597856"/>
<path d="M183.879 60.7403C183.985 59.4102 183.26 56.6509 179.872 54.7529C177.978 53.6917 175.11 53.2569 173.295 54.8119C171.665 56.2078 171.886 58.6113 172.945 60.2635C174.4 62.5309 176.653 63.9161 179.291 64.1656C181.101 64.2626 182.539 63.6502 183.335 62.4394C183.802 61.7298 183.86 60.9876 183.879 60.7403Z" fill="#F9F8F4" stroke="#212121" stroke-width="0.597856"/>
<path d="M158.07 122.074C158.633 124.573 158.555 127.159 157.13 129.377C155.352 132.149 151.826 133.791 147.004 133.633C137.519 133.32 126.61 126.151 122.637 117.622C120.683 113.428 120.772 109.685 122.494 107.001C123.722 105.086 125.845 103.743 128.606 103.126C123.459 102.984 119.667 104.65 117.81 107.541C115.919 110.486 115.952 114.678 118.358 119.451C123.248 129.155 136.099 137.584 147.058 138.282C152.629 138.635 156.64 136.922 158.593 133.88C160.848 130.369 159.978 125.894 158.07 122.074Z" fill="#F9F8F4" stroke="#212121" stroke-width="0.597856"/>
<path d="M44.8041 150.628L45.7115 151.996C47.8666 155.247 52.1485 157.085 58.0807 156.753C70.1443 156.077 84.461 146.69 90.06 135.781C92.9055 130.237 92.9502 125.369 90.7228 122.01L89.8155 120.642L44.8041 150.628Z" fill="#9AFF01" stroke="#212121" stroke-width="0.520509"/>
<path d="M75.7754 114.781C71.3095 114.999 66.666 116.444 62.3153 118.686L45.366 134.658C42.4576 140.096 41.7356 145.8 44.7124 150.596C46.8708 153.852 51.1593 155.693 57.1004 155.36C69.1804 154.684 83.5193 145.278 89.1279 134.352C91.9776 128.799 92.0223 123.922 89.7026 120.424C86.7537 116.372 82.068 114.473 75.7754 114.781Z" fill="#9AFF01" stroke="#212121" stroke-width="0.520509"/>
<path d="M75.1817 114.943C63.9621 115.571 50.6433 124.306 45.4372 134.455C40.2299 144.602 45.1039 152.32 56.3248 151.693C61.5741 151.399 67.2837 149.33 72.4052 146.172C78.2304 142.581 83.2975 137.581 86.0693 132.181C86.5176 131.307 86.8923 130.451 87.193 129.616C90.3891 120.766 85.4356 114.37 75.1817 114.943ZM85.5581 129.26C85.2737 130.046 84.9231 130.852 84.5007 131.676C81.8925 136.76 77.1208 141.467 71.6361 144.847C66.8143 147.82 61.4394 149.768 56.4975 150.043C45.9333 150.634 41.3432 143.369 46.2467 133.814C51.1483 124.261 63.6874 116.036 74.2504 115.444C83.9026 114.904 88.5671 120.924 85.5587 129.257L85.5581 129.26Z" fill="#F9F8F4" stroke="#212121" stroke-width="0.520509"/>
<path d="M72.6084 109.141L39.7524 133.39C36.8874 143.501 43.0099 151.282 54.9881 150.691C63.1001 150.293 77.9609 144.614 85.6434 130.602C85.7774 130.34 86.4318 128.875 86.5539 128.579C86.5061 128.923 85.7792 130.339 85.6434 130.602C86.7559 128.299 90.1427 121.291 85.9975 114.871C84.1791 112.055 80.3771 108.967 72.6054 109.14L72.6084 109.141Z" fill="#9AFF01"/>
<path d="M85.6434 130.602C77.9609 144.614 63.1001 150.293 54.9881 150.691C43.0099 151.282 36.8874 143.501 39.7524 133.39L72.6084 109.141L72.6054 109.14C80.3771 108.967 84.1791 112.055 85.9975 114.871C90.1427 121.291 86.7559 128.299 85.6434 130.602ZM85.6434 130.602C85.7774 130.34 86.4318 128.875 86.5539 128.579C86.5061 128.923 85.7792 130.339 85.6434 130.602Z" stroke="#212121" stroke-width="0.520509"/>
<path d="M71.8144 109.087C70.8504 109.14 69.8701 109.252 68.883 109.419L62.4271 110.507C63.0416 110.404 63.6512 110.333 64.2499 110.299L45.2964 122.731C45.5213 122.289 45.7729 121.852 46.0455 121.42L42.5456 126.967C42.1079 127.662 41.7043 128.365 41.3412 129.074C36.0107 139.473 41.0072 147.385 52.5071 146.745C57.3503 146.475 62.5744 144.732 67.3963 142.028C74.0237 138.312 79.8951 132.778 82.9815 126.759C83.6379 125.477 84.1391 124.235 84.4879 123.04C86.9813 114.54 81.8972 108.526 71.8156 109.088L71.8144 109.087Z" fill="#9AFF01" stroke="#212121" stroke-width="0.520509"/>
<path d="M44.378 130.076L44.9102 130.874C46.1856 132.801 48.72 133.89 52.2342 133.695C59.3772 133.297 67.8519 127.741 71.1637 121.282C72.8466 117.999 72.8729 115.115 71.5542 113.127L71.022 112.329L44.3792 130.078L44.378 130.076Z" fill="#9AFF01" stroke="#212121" stroke-width="0.520509"/>
<path d="M62.1005 108.454C61.996 108.465 44.4498 119.973 44.4498 119.973C43.0945 122.578 42.0116 126.378 44.337 130.059C45.6157 131.988 48.1549 133.077 51.6715 132.883C58.823 132.485 67.3077 126.921 70.6252 120.452C72.3101 117.165 72.3364 114.276 70.9924 112.25C69.0752 109.523 66.0862 108.247 62.1034 108.455L62.1005 108.454Z" fill="#9AFF01" stroke="#212121" stroke-width="0.520509"/>
<path d="M61.9861 108.458L60.668 108.67C65.8078 108.384 68.3994 111.448 67.1285 115.782C66.9503 116.391 66.6955 117.025 66.3608 117.679C64.7873 120.747 61.7937 123.57 58.4145 125.464C55.9554 126.842 53.2941 127.73 50.826 127.868C44.9641 128.193 42.4167 124.16 45.1344 118.86L44.443 119.965C41.3731 125.951 44.2509 130.506 50.87 130.137C53.6562 129.981 56.6634 128.978 59.4405 127.423C63.2556 125.282 66.6378 122.096 68.4132 118.631C68.7912 117.893 69.0796 117.178 69.2821 116.488C70.7162 111.596 67.7901 108.136 61.9861 108.458Z" fill="#F9F8F4" stroke="#212121" stroke-width="0.520509"/>
<path d="M65.5973 109.835L57.045 103.462L41.6155 113.743L44.1638 124.117C44.7644 126.564 47.1355 128.062 50.7994 127.858C56.6656 127.531 63.6266 122.965 66.3487 117.66C68.0914 114.26 67.6704 111.381 65.5985 109.837L65.5973 109.835Z" fill="#9AFF01" stroke="#212121" stroke-width="0.520509"/>
<path d="M57.9032 94.1373C54.7545 92.4121 50.6836 92.7057 46.7288 94.206C48.4577 93.5722 50.2029 93.1772 51.8693 93.0848C58.5418 92.7103 61.4416 97.3004 58.3443 103.336C55.2469 109.372 47.3277 114.567 40.6539 114.94C34.2088 115.301 31.3382 111.016 33.9359 105.287C32.7607 107.686 32.2556 110.159 32.976 112.467C36.0297 122.267 53.6877 118.014 60.3602 105.872C61.0177 104.505 63.0174 100.345 60.5423 96.5285C60.1088 95.8588 59.2986 94.9011 57.9032 94.1373Z" fill="#97FF00" stroke="#212121" stroke-width="0.520509"/>
<path d="M51.8591 93.0762C45.1879 93.4505 37.2692 98.643 34.1725 104.677C31.0758 110.712 33.9749 115.301 40.6461 114.927C43.5489 114.764 46.6876 113.69 49.5633 112.03C53.2961 109.875 56.5843 106.734 58.3327 103.325C58.6925 102.626 58.971 101.945 59.1701 101.289C60.7049 96.294 57.7554 92.7476 51.8591 93.0762Z" fill="#F9F8F4" stroke="#212121" stroke-width="0.520509"/>
<path d="M51.8362 93.0626C45.1704 93.4347 37.2605 98.6233 34.1667 104.651C32.9369 107.049 32.6883 109.198 33.2147 110.917C33.4532 110.917 33.6617 110.957 33.9122 110.944C36.8122 110.782 39.9479 109.708 42.8207 108.05C46.55 105.898 49.835 102.76 51.5829 99.3567C51.9423 98.6582 52.2206 97.978 52.4195 97.3227C52.9096 95.7267 52.8971 94.303 52.5182 93.0811C52.2857 93.0827 52.0789 93.049 51.8362 93.0626Z" fill="#97FF00" stroke="#212121" stroke-width="0.520509"/>
<path d="M50.8582 84.4996C50.0694 83.2935 48.286 81.0448 45.2108 79.5435C33.6393 73.887 21.0246 84.6935 24.7605 97.0612C28.1585 108.31 44.5799 111.491 51.475 99.4014C53.8597 95.2199 53.9932 89.2941 50.8576 84.5026L50.8582 84.4996Z" fill="#9AFF01" stroke="#212121" stroke-width="0.520509"/>
<circle cx="165" cy="34.5234" r="4" fill="#9AFF01"/>
<circle cx="7.5" cy="71.0234" r="7.5" fill="#F9F8F4"/>
<circle cx="176.5" cy="40.0234" r="3.5" fill="#F9F8F4"/>
<circle cx="39.5" cy="9.02344" r="5" stroke="#F9F8F4"/>
<circle cx="165" cy="34.5234" r="5.5" stroke="#97FF00"/>
</svg>
