<svg width="161" height="117" viewBox="0 0 161 117" fill="none" xmlns="http://www.w3.org/2000/svg">
<path d="M1.176 99.4528C1.176 96.9728 2 94.9088 3.648 93.2608C5.296 91.6128 7.36 90.7888 9.84 90.7888C11.104 90.7888 12.424 91.0208 13.8 91.4848C14.536 91.7248 15.136 92.0848 15.6 92.5648C16.064 93.0288 16.296 93.5568 16.296 94.1488V96.2128H14.064V94.8928C14.064 94.4128 13.816 94.0208 13.32 93.7168C12.472 93.1408 11.344 92.8528 9.936 92.8528C8.096 92.8528 6.592 93.4608 5.424 94.6768C4.24 95.9088 3.648 97.4688 3.648 99.3568C3.648 101.373 4.256 103.021 5.472 104.301C6.704 105.581 8.24 106.221 10.08 106.221C10.592 106.221 11.144 106.173 11.736 106.077C12.328 105.965 12.904 105.749 13.464 105.429C14.024 105.109 14.304 104.709 14.304 104.229V102.909H16.536V104.973C16.536 105.549 16.312 106.069 15.864 106.533C15.416 106.997 14.824 107.349 14.088 107.589C12.664 108.069 11.28 108.309 9.936 108.309C7.392 108.309 5.296 107.461 3.648 105.765C2 104.069 1.176 101.965 1.176 99.4528ZM25.3714 108.309C23.5314 108.309 21.9794 107.701 20.7154 106.485C19.4514 105.269 18.8194 103.749 18.8194 101.925C18.8194 100.101 19.4514 98.5888 20.7154 97.3888C21.9794 96.1888 23.5314 95.5888 25.3714 95.5888C27.2114 95.5888 28.7634 96.1888 30.0274 97.3888C31.2914 98.5888 31.9234 100.101 31.9234 101.925C31.9234 103.733 31.2834 105.253 30.0034 106.485C28.7394 107.701 27.1954 108.309 25.3714 108.309ZM21.1954 101.925C21.1954 103.173 21.5954 104.221 22.3954 105.069C23.2114 105.885 24.2034 106.293 25.3714 106.293C26.5234 106.293 27.5074 105.877 28.3234 105.045C29.1394 104.213 29.5474 103.173 29.5474 101.925C29.5474 100.677 29.1394 99.6448 28.3234 98.8288C27.5074 98.0128 26.5234 97.6048 25.3714 97.6048C24.2034 97.6048 23.2114 98.0128 22.3954 98.8288C21.5954 99.6608 21.1954 100.693 21.1954 101.925ZM40.0851 108.021H33.9411V106.221H35.8371V98.1808C35.8371 97.8448 35.6611 97.6768 35.3091 97.6768H33.8211V95.8768H36.5571C37.5811 95.8768 38.0931 96.3248 38.0931 97.2208V97.8448L38.0211 98.5408H38.0691C38.3731 97.7888 38.9411 97.1088 39.7731 96.5008C40.6051 95.8928 41.4771 95.5888 42.3891 95.5888C44.3411 95.5888 45.5251 96.5408 45.9411 98.4448H45.9891C46.3411 97.6288 46.9171 96.9488 47.7171 96.4048C48.5171 95.8608 49.3891 95.5888 50.3331 95.5888C52.9731 95.5888 54.2931 97.1408 54.2931 100.245V106.221H56.2131V108.021H51.9651V100.749C51.9651 99.7248 51.8051 98.9648 51.4851 98.4688C51.1811 97.9568 50.6291 97.7008 49.8291 97.7008C48.7411 97.7008 47.8691 98.1728 47.2131 99.1168C46.5731 100.045 46.2531 101.149 46.2531 102.429V106.221H48.1491V108.021H43.9251V100.749C43.9251 99.7088 43.7731 98.9408 43.4691 98.4448C43.1651 97.9488 42.6131 97.7008 41.8131 97.7008C40.7251 97.7008 39.8451 98.1888 39.1731 99.1648C38.5011 100.141 38.1651 101.261 38.1651 102.525V106.221H40.0851V108.021ZM62.2371 93.4528H59.7891V91.0768H62.2371V93.4528ZM64.0851 108.021H57.9411V106.221H59.8371V97.6768H57.8211V95.8768H62.1651V106.221H64.0851V108.021ZM72.1476 108.021H66.0036V106.221H67.8996V98.2048C67.8996 97.8528 67.7236 97.6768 67.3716 97.6768H65.8836V95.8768H68.6196C69.6436 95.8768 70.1556 96.3248 70.1556 97.2208V97.8448L70.0836 98.5408H70.1316C70.3396 98.0448 70.7636 97.4768 71.4036 96.8368C72.2996 96.0048 73.4516 95.5888 74.8596 95.5888C76.2356 95.5888 77.2516 95.9728 77.9076 96.7408C78.5636 97.4928 78.8916 98.6608 78.8916 100.245V106.221H80.8116V108.021H76.5636V100.773C76.5636 99.7328 76.3956 98.9648 76.0596 98.4688C75.7396 97.9728 75.1476 97.7248 74.2836 97.7248C73.0996 97.7248 72.1236 98.1888 71.3556 99.1168C70.6036 100.045 70.2276 101.133 70.2276 102.381V106.221H72.1476V108.021ZM83.5344 112.053L84.3024 110.277C85.2944 110.821 86.4064 111.093 87.6384 111.093C88.8224 111.093 89.7584 110.805 90.4464 110.229C91.1344 109.653 91.4784 108.789 91.4784 107.637V106.677L91.5504 105.909H91.5024C90.7184 107.221 89.5024 107.877 87.8544 107.877C86.1904 107.877 84.8704 107.293 83.8944 106.125C82.9184 104.957 82.4304 103.469 82.4304 101.661C82.4304 99.8848 82.9024 98.4288 83.8464 97.2928C84.8064 96.1568 86.1104 95.5888 87.7584 95.5888C88.6384 95.5888 89.4304 95.7648 90.1344 96.1168C90.8544 96.4528 91.3744 96.9408 91.6944 97.5808H91.7424C91.7104 97.4208 91.6944 97.2608 91.6944 97.1008C91.6944 96.2848 92.1584 95.8768 93.0864 95.8768H95.6784V97.6768H94.3344C93.9824 97.6768 93.8064 97.8368 93.8064 98.1568V107.517C93.8064 108.477 93.6304 109.325 93.2784 110.061C92.9424 110.797 92.4784 111.373 91.8864 111.789C91.2944 112.221 90.6464 112.541 89.9424 112.749C89.2384 112.957 88.4864 113.061 87.6864 113.061C86.2624 113.061 84.8784 112.725 83.5344 112.053ZM88.3104 105.861C89.3024 105.861 90.0864 105.525 90.6624 104.853C91.2384 104.165 91.5264 103.109 91.5264 101.685C91.5264 98.9648 90.3824 97.6048 88.0944 97.6048C87.0544 97.6048 86.2464 97.9648 85.6704 98.6848C85.0944 99.3888 84.8064 100.365 84.8064 101.613C84.8064 102.893 85.1184 103.925 85.7424 104.709C86.3824 105.477 87.2384 105.861 88.3104 105.861ZM103.382 105.405V104.109H105.422V104.901C105.422 105.365 105.694 105.733 106.238 106.005C106.782 106.277 107.438 106.413 108.206 106.413C108.926 106.413 109.51 106.277 109.958 106.005C110.422 105.717 110.654 105.333 110.654 104.853C110.654 104.357 110.462 103.981 110.078 103.725C109.71 103.453 109.006 103.133 107.966 102.765L107.63 102.645C106.67 102.309 105.822 101.893 105.086 101.397C104.254 100.821 103.838 100.005 103.838 98.9488C103.838 97.8448 104.286 97.0128 105.182 96.4528C106.062 95.8768 107.11 95.5888 108.326 95.5888C109.318 95.5888 110.27 95.7968 111.182 96.2128C112.078 96.6288 112.526 97.2368 112.526 98.0368V99.5008H110.486V98.7088C110.486 98.3408 110.278 98.0448 109.862 97.8208C109.446 97.5808 108.942 97.4608 108.35 97.4608C107.726 97.4608 107.206 97.5968 106.79 97.8688C106.39 98.1248 106.19 98.4768 106.19 98.9248C106.19 99.4528 106.478 99.8928 107.054 100.245C107.55 100.533 108.198 100.805 108.998 101.061C110.086 101.413 110.974 101.813 111.662 102.261C112.558 102.837 113.006 103.661 113.006 104.733C113.006 105.837 112.55 106.717 111.638 107.373C110.726 107.997 109.558 108.309 108.134 108.309C106.934 108.309 105.838 108.053 104.846 107.541C103.87 107.013 103.382 106.301 103.382 105.405ZM121.489 108.309C119.649 108.309 118.097 107.701 116.833 106.485C115.569 105.269 114.937 103.749 114.937 101.925C114.937 100.101 115.569 98.5888 116.833 97.3888C118.097 96.1888 119.649 95.5888 121.489 95.5888C123.329 95.5888 124.881 96.1888 126.145 97.3888C127.409 98.5888 128.041 100.101 128.041 101.925C128.041 103.733 127.401 105.253 126.121 106.485C124.857 107.701 123.313 108.309 121.489 108.309ZM117.313 101.925C117.313 103.173 117.713 104.221 118.513 105.069C119.329 105.885 120.321 106.293 121.489 106.293C122.641 106.293 123.625 105.877 124.441 105.045C125.257 104.213 125.665 103.173 125.665 101.925C125.665 100.677 125.257 99.6448 124.441 98.8288C123.625 98.0128 122.641 97.6048 121.489 97.6048C120.321 97.6048 119.329 98.0128 118.513 98.8288C117.713 99.6608 117.313 100.693 117.313 101.925ZM136.512 108.309C134.672 108.309 133.12 107.701 131.856 106.485C130.592 105.269 129.96 103.749 129.96 101.925C129.96 100.101 130.592 98.5888 131.856 97.3888C133.12 96.1888 134.672 95.5888 136.512 95.5888C138.352 95.5888 139.904 96.1888 141.168 97.3888C142.432 98.5888 143.064 100.101 143.064 101.925C143.064 103.733 142.424 105.253 141.144 106.485C139.88 107.701 138.336 108.309 136.512 108.309ZM132.336 101.925C132.336 103.173 132.736 104.221 133.536 105.069C134.352 105.885 135.344 106.293 136.512 106.293C137.664 106.293 138.648 105.877 139.464 105.045C140.28 104.213 140.688 103.173 140.688 101.925C140.688 100.677 140.28 99.6448 139.464 98.8288C138.648 98.0128 137.664 97.6048 136.512 97.6048C135.344 97.6048 134.352 98.0128 133.536 98.8288C132.736 99.6608 132.336 100.693 132.336 101.925ZM151.226 108.021H145.082V106.221H146.978V98.2048C146.978 97.8528 146.802 97.6768 146.45 97.6768H144.962V95.8768H147.698C148.722 95.8768 149.234 96.3248 149.234 97.2208V97.8448L149.162 98.5408H149.21C149.418 98.0448 149.842 97.4768 150.482 96.8368C151.378 96.0048 152.53 95.5888 153.938 95.5888C155.314 95.5888 156.33 95.9728 156.986 96.7408C157.642 97.4928 157.97 98.6608 157.97 100.245V106.221H159.89V108.021H155.642V100.773C155.642 99.7328 155.474 98.9648 155.138 98.4688C154.818 97.9728 154.226 97.7248 153.362 97.7248C152.178 97.7248 151.202 98.1888 150.434 99.1168C149.682 100.045 149.306 101.133 149.306 102.381V106.221H151.226V108.021Z" fill="#F9F8F4"/>
<g clip-path="url(#clip0_2473_257)">
<path d="M29.7516 56.1922C24.5964 47.2632 27.6547 35.8459 36.5831 30.6911C45.5115 25.5363 56.9281 28.596 62.0834 37.5254C67.158 46.3147 64.2734 57.5153 55.6661 62.7799C68.7369 54.936 73.1511 38.0288 65.4989 24.7748C57.7661 11.3811 40.6409 6.79145 27.2487 14.5235C13.8565 22.2555 9.26867 39.3811 17.0015 52.7748C24.6537 66.0288 41.5032 70.6594 54.8313 63.2619C45.9684 68.0837 34.8261 64.9815 29.7516 56.1922Z" fill="#F9F8F4"/>
</g>
<g clip-path="url(#clip1_2473_257)">
<path d="M109.001 56.1922C103.845 47.2632 106.904 35.8459 115.832 30.6911C124.761 25.5363 136.177 28.596 141.332 37.5254C146.407 46.3147 143.522 57.5153 134.915 62.7799C147.986 54.936 152.4 38.0288 144.748 24.7748C137.015 11.3811 119.89 6.79145 106.498 14.5235C93.1055 22.2555 88.5177 39.3811 96.2505 52.7748C103.903 66.0288 120.752 70.6594 134.08 63.2619C125.217 68.0837 114.075 64.9815 109.001 56.1922Z" fill="#F9F8F4"/>
</g>
<defs>
<clipPath id="clip0_2473_257">
<rect width="56" height="56" fill="white" transform="translate(31 77.0209) rotate(-120)"/>
</clipPath>
<clipPath id="clip1_2473_257">
<rect width="56" height="56" fill="white" transform="translate(110.249 77.0209) rotate(-120)"/>
</clipPath>
</defs>
</svg>
