<svg width="17" height="16" viewBox="0 0 17 16" fill="none" xmlns="http://www.w3.org/2000/svg">
<path fill-rule="evenodd" clip-rule="evenodd" d="M10.8564 0C11.0302 0 11.1969 0.0690503 11.3198 0.191961C11.4427 0.314871 11.5118 0.481574 11.5118 0.655395V1.52926C11.5118 1.93484 11.3507 2.32381 11.0639 2.6106C10.7771 2.89739 10.3881 3.05851 9.98255 3.05851H9.10868C9.05074 3.05851 8.99518 3.08153 8.95421 3.1225C8.91324 3.16347 8.89022 3.21904 8.89022 3.27698V4.15084H9.25899C11.4786 4.15084 12.5875 4.15084 13.4404 4.68739C13.6563 4.82284 13.8564 4.98188 14.0373 5.16102C14.7538 5.86885 15.0072 6.94981 15.5115 9.11087L16.4054 12.9323C16.5456 13.53 16.4607 14.1584 16.1669 14.6975C15.8732 15.2366 15.3911 15.6486 14.8128 15.8549C14.2346 16.0611 13.6006 16.0471 13.032 15.8156C12.4634 15.584 12 15.1511 11.7303 14.5996L11.6254 14.3846C11.395 13.9142 11.0372 13.518 10.5928 13.2408C10.1484 12.9637 9.63507 12.8168 9.11131 12.8169H7.35922C6.8356 12.817 6.3225 12.9639 5.87823 13.2411C5.43396 13.5182 5.07633 13.9144 4.84599 14.3846L4.74113 14.5996C4.47144 15.1511 4.00804 15.584 3.43943 15.8156C2.87082 16.0471 2.23683 16.0611 1.65856 15.8549C1.08028 15.6486 0.598231 15.2366 0.304463 14.6975C0.0106952 14.1584 -0.0742044 13.53 0.0659776 12.9323L0.959063 9.10999C1.46415 6.94981 1.7167 5.86972 2.43239 5.16102C2.61376 4.98181 2.81419 4.82299 3.03011 4.68739C3.883 4.15084 4.9928 4.15084 7.21241 4.15084H7.58118V3.27698C7.58118 2.43283 8.26541 1.74772 9.11043 1.74772H9.98429C10.0422 1.74772 10.0978 1.7247 10.1388 1.68373C10.1797 1.64276 10.2028 1.5872 10.2028 1.52926V0.655395C10.2028 0.481574 10.2718 0.314871 10.3947 0.191961C10.5176 0.0690503 10.6843 0 10.8582 0M11.7303 7.64628C11.7303 7.87804 11.6382 8.10031 11.4743 8.26419C11.3104 8.42807 11.0882 8.52014 10.8564 8.52014C10.6246 8.52014 10.4024 8.42807 10.2385 8.26419C10.0746 8.10031 9.98255 7.87804 9.98255 7.64628C9.98255 7.41452 10.0746 7.19225 10.2385 7.02837C10.4024 6.86449 10.6246 6.77242 10.8564 6.77242C11.0882 6.77242 11.3104 6.86449 11.4743 7.02837C11.6382 7.19225 11.7303 7.41452 11.7303 7.64628ZM5.17631 6.99088C5.35014 6.99088 5.51684 7.05993 5.63975 7.18284C5.76266 7.30576 5.83171 7.47246 5.83171 7.64628V8.30167H6.4871C6.66093 8.30167 6.82763 8.37072 6.95054 8.49364C7.07345 8.61655 7.1425 8.78325 7.1425 8.95707C7.1425 9.13089 7.07345 9.29759 6.95054 9.4205C6.82763 9.54341 6.66093 9.61246 6.4871 9.61246H5.83171V10.2679C5.83171 10.4417 5.76266 10.6084 5.63975 10.7313C5.51684 10.8542 5.35014 10.9233 5.17631 10.9233C5.00249 10.9233 4.83579 10.8542 4.71288 10.7313C4.58997 10.6084 4.52092 10.4417 4.52092 10.2679V9.61246H3.86552C3.6917 9.61246 3.525 9.54341 3.40209 9.4205C3.27918 9.29759 3.21013 9.13089 3.21013 8.95707C3.21013 8.78325 3.27918 8.61655 3.40209 8.49364C3.525 8.37072 3.6917 8.30167 3.86552 8.30167H4.52092V7.64628C4.52092 7.47246 4.58997 7.30576 4.71288 7.18284C4.83579 7.05993 5.00249 6.99088 5.17631 6.99088ZM12.6041 10.7048C12.8359 10.7048 13.0582 10.6127 13.222 10.4488C13.3859 10.285 13.478 10.0627 13.478 9.83093C13.478 9.59917 13.3859 9.3769 13.222 9.21302C13.0582 9.04914 12.8359 8.95707 12.6041 8.95707C12.3724 8.95707 12.1501 9.04914 11.9862 9.21302C11.8223 9.3769 11.7303 9.59917 11.7303 9.83093C11.7303 10.0627 11.8223 10.285 11.9862 10.4488C12.1501 10.6127 12.3724 10.7048 12.6041 10.7048Z" fill="#D2FF00"/>
</svg>
