<svg width="17" height="16" viewBox="0 0 17 16" fill="none" xmlns="http://www.w3.org/2000/svg">
<path d="M8.5 0C8.36739 0 8.24021 0.0526785 8.14645 0.146447C8.05268 0.240215 8 0.367392 8 0.5V3.1C8 4.477 8.927 5.636 10.19 5.99C9.97 8.73 9.178 10.775 8.529 12.036C8.713 12.252 8.886 12.413 9.021 12.526C9.54 12.96 10 13.667 10 14.549C10.0007 15.0711 9.83383 15.5797 9.524 16H15C15.3978 16 15.7794 15.842 16.0607 15.5607C16.342 15.2794 16.5 14.8978 16.5 14.5V14.193C16.5 13.845 16.381 13.524 16.198 13.261C15.658 12.484 14.129 9.971 13.809 5.989C14.4394 5.81246 14.9947 5.43457 15.3903 4.91295C15.7859 4.39134 16 3.75465 16 3.1V0.5C16 0.367392 15.9473 0.240215 15.8536 0.146447C15.7598 0.0526785 15.6326 0 15.5 0H14.75C14.5511 0 14.3603 0.0790175 14.2197 0.21967C14.079 0.360322 14 0.551088 14 0.75V1.5C14.0001 1.56566 13.9873 1.6307 13.9623 1.69142C13.9373 1.75213 13.9006 1.80732 13.8543 1.85385C13.7607 1.9478 13.6336 2.00073 13.501 2.001C13.3684 2.00127 13.2411 1.94884 13.1472 1.85526C13.0532 1.76168 13.0003 1.63461 13 1.502V1.5L12.996 0.746C12.9949 0.547782 12.9155 0.358042 12.7749 0.218254C12.6344 0.0784655 12.4442 -2.81909e-06 12.246 0H11.754C11.5558 -2.81909e-06 11.3656 0.0784655 11.2251 0.218254C11.0845 0.358042 11.0051 0.547782 11.004 0.746L11 1.503C10.9996 1.63561 10.9465 1.76263 10.8525 1.85611C10.7584 1.9496 10.6311 2.0019 10.4985 2.0015C10.3659 2.0011 10.2389 1.94804 10.1454 1.85399C10.0519 1.75994 9.9996 1.63261 10 1.5V0.75C10 0.551088 9.92098 0.360322 9.78033 0.21967C9.63968 0.0790175 9.44891 0 9.25 0H8.5ZM4.5 3C3.92088 3.00001 3.35414 3.16765 2.86819 3.48266C2.38224 3.79768 1.99786 4.24662 1.76144 4.77529C1.52502 5.30395 1.44667 5.88975 1.53585 6.46196C1.62503 7.03418 1.87792 7.56835 2.264 8H2C1.73478 8 1.48043 8.10536 1.29289 8.29289C1.10536 8.48043 1 8.73478 1 9C1 9.26522 1.10536 9.51957 1.29289 9.70711C1.48043 9.89464 1.73478 10 2 10H2.52C2.148 11.798 1.167 12.836 0.62 13.293C0.274 13.583 0 14.029 0 14.549C0 15.35 0.65 16 1.451 16H7.55C8.35 16 9 15.35 9 14.549C9 14.029 8.726 13.583 8.38 13.293C7.833 12.836 6.852 11.798 6.48 10H7C7.26522 10 7.51957 9.89464 7.70711 9.70711C7.89464 9.51957 8 9.26522 8 9C8 8.73478 7.89464 8.48043 7.70711 8.29289C7.51957 8.10536 7.26522 8 7 8H6.736C7.12208 7.56835 7.37497 7.03418 7.46415 6.46196C7.55333 5.88975 7.47498 5.30395 7.23856 4.77529C7.00214 4.24662 6.61776 3.79768 6.13181 3.48266C5.64586 3.16765 5.07912 3.00001 4.5 3Z" fill="#FF5B23"/>
</svg>
