<svg width="25" height="24" viewBox="0 0 25 24" fill="none" xmlns="http://www.w3.org/2000/svg">
<path d="M12.434 0C18.9962 0 24.3036 5.32779 24.3036 11.9152C24.3036 18.5026 18.9962 23.8304 12.434 23.8304C5.87184 23.8304 0.564453 18.5026 0.564453 11.9152C0.564453 5.32779 5.87184 0 12.434 0ZM10.2636 18.1962C15.5201 18.1962 18.4027 13.8216 18.4027 10.0258V9.6513C18.9623 9.24277 19.454 8.73212 19.8271 8.15339C19.3184 8.37467 18.7588 8.52786 18.1823 8.61297C18.7758 8.25552 19.2336 7.6938 19.4371 7.02996C18.8775 7.35337 18.2671 7.59167 17.6227 7.72784C17.0971 7.16613 16.351 6.8257 15.5371 6.8257C13.9601 6.8257 12.6714 8.11934 12.6714 9.70236C12.6714 9.92364 12.6884 10.1449 12.7562 10.3492C10.3823 10.23 8.26271 9.08958 6.85532 7.35337C6.61793 7.77891 6.46532 8.27254 6.46532 8.80021C6.46532 9.78747 6.97402 10.6726 7.73706 11.1832C7.26228 11.1832 6.82141 11.0471 6.44837 10.8258V10.8598C6.44837 12.2556 7.43184 13.4131 8.7375 13.6854C8.50011 13.7535 8.24576 13.7876 7.99141 13.7876C7.80489 13.7876 7.63532 13.7705 7.4488 13.7365C7.80489 14.877 8.87315 15.711 10.111 15.728C9.1275 16.494 7.88967 16.9536 6.55011 16.9536C6.31271 16.9536 6.09228 16.9536 5.87184 16.9196C7.12663 17.7366 8.63576 18.2132 10.2466 18.2132" fill="#fff"/>
</svg>
