<svg width="1493" height="296" viewBox="0 0 1493 296" fill="none" xmlns="http://www.w3.org/2000/svg">
<mask id="mask0_5881_32004" style="mask-type:alpha" maskUnits="userSpaceOnUse" x="0" y="0" width="1493" height="296">
<rect width="1493" height="296" rx="10" fill="#212121"/>
</mask>
<g mask="url(#mask0_5881_32004)">
<line x1="1313.17" y1="-482" x2="1313.17" y2="61.3196" stroke="url(#paint0_linear_5881_32004)" stroke-width="2"/>
<line x1="1013.92" y1="-350.415" x2="1013.92" y2="98.4609" stroke="url(#paint1_linear_5881_32004)" stroke-width="2"/>
<line x1="223" y1="-340" x2="223" y2="108.875" stroke="url(#paint2_linear_5881_32004)" stroke-width="2"/>
<line x1="315" y1="-334" x2="315" y2="114.875" stroke="url(#paint3_linear_5881_32004)" stroke-width="2"/>
<line x1="336" y1="-334" x2="336" y2="114.875" stroke="url(#paint4_linear_5881_32004)" stroke-width="2"/>
<line x1="553" y1="-334" x2="553" y2="114.875" stroke="url(#paint5_linear_5881_32004)" stroke-width="2"/>
<line x1="766" y1="-334" x2="766" y2="114.875" stroke="url(#paint6_linear_5881_32004)" stroke-width="2"/>
<line x1="861" y1="-334" x2="861" y2="114.875" stroke="url(#paint7_linear_5881_32004)" stroke-width="2"/>
<rect width="371.658" height="394.791" transform="matrix(0.866041 0.499972 -0.866041 0.499972 1334.13 -85.6528)" fill="#181818"/>
<path d="M1614.85 75.4646L1614.79 98.5023L1314.96 272.894L1315.02 249.858L1614.85 75.4646Z" fill="#9BBC00"/>
<path d="M1315.02 249.858L1314.95 272.894L1012.92 98.5125L1012.98 75.4766L1315.02 249.858Z" fill="#617600"/>
<path d="M1614.85 75.4645L1315.02 249.858L1012.98 75.4763L1312.81 -98.9172L1614.85 75.4645Z" fill="#D2FF00"/>
<path d="M1312.88 -85.4226L1037.93 74.5141L1314.88 234.415L1589.84 74.4769L1312.88 -85.4226Z" fill="#F9F8F4"/>
<mask id="mask1_5881_32004" style="mask-type:luminance" maskUnits="userSpaceOnUse" x="1037" y="-86" width="553" height="321">
<path d="M1312.88 -85.424L1037.93 74.5128L1314.88 234.414L1589.84 74.4755L1312.88 -85.424Z" fill="white"/>
</mask>
<g mask="url(#mask1_5881_32004)">
<path d="M1550.86 51.6445L1511.54 74.4974L1551.14 97.3639L1590.47 74.5093L1550.86 51.6445ZM1432.86 120.219L1472.73 143.238L1512.06 120.385L1472.19 97.3656L1432.86 120.219H1432.86ZM1354.19 165.94L1394.45 189.188L1433.78 166.333L1393.52 143.085L1354.19 165.94ZM1314.61 143.087L1275.26 165.953L1314.84 188.806L1354.19 165.94L1314.61 143.087ZM1235.42 97.3673L1196.07 120.234L1235.65 143.087L1275 120.22L1235.42 97.3673ZM1156.23 51.6478L1116.88 74.5144L1156.46 97.3673L1195.81 74.5008L1156.23 51.6478ZM1274.49 28.7796L1234.9 5.92669L1195.56 28.7932L1235.14 51.6461L1274.49 28.7796ZM1353.16 -16.9398L1313.58 -39.7928L1274.23 -16.9263L1313.81 5.92669L1353.16 -16.9398ZM1392.77 5.92669L1432.09 -16.928L1392.49 -39.7945L1353.16 -16.9398L1392.77 5.92669ZM1471.96 51.6461L1511.28 28.7915L1471.67 5.925L1432.35 28.7796L1471.95 51.6461H1471.96ZM1432.61 74.5127L1472.19 97.3656L1511.54 74.4974L1471.96 51.6461L1432.61 74.5127ZM1353.93 120.234L1393.52 143.087L1432.86 120.219L1393.28 97.3673L1353.93 120.234ZM1314.33 97.3673L1275 120.22L1314.61 143.087L1353.93 120.232L1314.33 97.3673ZM1235.14 51.6461L1195.81 74.5008L1235.42 97.3673L1274.74 74.5144L1235.14 51.6461ZM1353.42 28.7932L1313.81 5.92669L1274.49 28.7796L1314.09 51.6461L1353.42 28.7932ZM1393 51.6461L1432.35 28.7796L1392.77 5.92669L1353.42 28.7932L1393 51.6461ZM1353.68 74.5008L1393.28 97.3673L1432.61 74.5127L1393 51.6461L1353.68 74.5008ZM1314.09 51.6478L1274.74 74.5144L1314.33 97.3673L1353.68 74.5008L1314.09 51.6478ZM1310.31 -87.2375L1270.99 -64.3846L1313.58 -39.7928L1352.9 -62.6457L1310.31 -87.2375ZM1231.64 -41.5181L1192.31 -18.6651L1234.91 5.92669L1274.23 -16.928L1231.64 -41.5181ZM1152.96 4.20306L1113.64 27.056L1156.23 51.6478L1195.56 28.7932L1152.96 4.20306ZM1031.17 74.9635L1073.76 99.5553L1116.88 74.5127L1074.28 49.9208L1031.17 74.9635ZM1113.35 122.408L1152.95 145.275L1196.07 120.232L1156.46 97.3673L1113.35 122.408ZM1192.53 168.128L1232.14 190.994L1275.26 165.952L1235.65 143.085L1192.53 168.128ZM1271.72 213.847L1311.33 236.714L1354.45 211.671L1314.84 188.806L1271.72 213.847Z" fill="#D2FF00"/>
</g>
<path fill-rule="evenodd" clip-rule="evenodd" d="M1370.34 278.35C1370.34 282.38 1372.91 286.411 1378.03 289.486C1388.28 295.636 1404.9 295.636 1415.15 289.486C1420.28 286.411 1422.84 282.38 1422.84 278.35V270.476C1422.84 266.445 1420.28 262.415 1415.15 259.34C1404.9 253.19 1388.28 253.19 1378.03 259.34C1372.91 262.415 1370.34 266.445 1370.34 270.476V278.35Z" fill="#181818"/>
<circle cx="13.9624" cy="13.9624" r="13.9624" transform="matrix(0.866041 -0.499972 0.866041 0.499972 1372.41 270.262)" fill="#181818"/>
<circle cx="19.9462" cy="19.9462" r="18.9462" transform="matrix(0.866041 -0.499972 0.866041 0.499972 1362.04 269.945)" stroke="#181818" stroke-width="2"/>
<path fill-rule="evenodd" clip-rule="evenodd" d="M1427.65 259.756C1427.65 263.787 1430.21 267.817 1435.33 270.892C1445.58 277.042 1462.2 277.042 1472.45 270.892C1477.58 267.817 1480.14 263.787 1480.14 259.756V251.882C1480.14 247.852 1477.58 243.821 1472.45 240.746C1462.2 234.596 1445.58 234.596 1435.33 240.746C1430.21 243.821 1427.65 247.852 1427.65 251.882V259.756Z" fill="#181818"/>
<circle cx="13.9624" cy="13.9624" r="13.9624" transform="matrix(0.866041 -0.499972 0.866041 0.499972 1429.71 251.668)" fill="#181818"/>
<circle cx="19.9462" cy="19.9462" r="18.9462" transform="matrix(0.866041 -0.499972 0.866041 0.499972 1419.34 251.351)" stroke="#181818" stroke-width="2"/>
<path fill-rule="evenodd" clip-rule="evenodd" d="M1427.65 254.983C1427.65 259.013 1430.21 263.044 1435.33 266.119C1445.58 272.269 1462.2 272.269 1472.45 266.119C1477.58 263.044 1480.14 259.013 1480.14 254.983V247.109C1480.14 243.078 1477.58 239.048 1472.45 235.973C1462.2 229.823 1445.58 229.823 1435.33 235.973C1430.21 239.048 1427.65 243.078 1427.65 247.109V254.983Z" fill="#C6C6C6"/>
<circle cx="13.9624" cy="13.9624" r="13.9624" transform="matrix(0.866041 -0.499972 0.866041 0.499972 1429.71 246.894)" fill="white"/>
<circle cx="19.9462" cy="19.9462" r="18.9462" transform="matrix(0.866041 -0.499972 0.866041 0.499972 1419.34 246.578)" stroke="white" stroke-width="2"/>
<path fill-rule="evenodd" clip-rule="evenodd" d="M1427.65 235.35C1427.65 239.38 1430.21 243.411 1435.33 246.486C1445.58 252.636 1462.2 252.636 1472.45 246.486C1477.58 243.411 1480.14 239.38 1480.14 235.35V227.476C1480.14 223.445 1477.58 219.415 1472.45 216.34C1462.2 210.19 1445.58 210.19 1435.33 216.34C1430.21 219.415 1427.65 223.445 1427.65 227.476V235.35Z" fill="#C6C6C6"/>
<circle cx="13.9624" cy="13.9624" r="13.9624" transform="matrix(0.866041 -0.499972 0.866041 0.499972 1429.71 227.261)" fill="white"/>
<circle cx="19.9462" cy="19.9462" r="18.9462" transform="matrix(0.866041 -0.499972 0.866041 0.499972 1419.34 226.945)" stroke="white" stroke-width="2"/>
<path fill-rule="evenodd" clip-rule="evenodd" d="M1370.34 272.491C1370.34 276.522 1372.91 280.552 1378.03 283.627C1388.28 289.778 1404.9 289.778 1415.15 283.627C1420.28 280.552 1422.84 276.522 1422.84 272.491V264.617C1422.84 260.587 1420.28 256.556 1415.15 253.481C1404.9 247.331 1388.28 247.331 1378.03 253.481C1372.91 256.556 1370.34 260.587 1370.34 264.617V272.491Z" fill="#C6C6C6"/>
<circle cx="13.9624" cy="13.9624" r="13.9624" transform="matrix(0.866041 -0.499972 0.866041 0.499972 1372.41 264.403)" fill="white"/>
<circle cx="19.9462" cy="19.9462" r="18.9462" transform="matrix(0.866041 -0.499972 0.866041 0.499972 1362.04 264.086)" stroke="white" stroke-width="2"/>
<path fill-rule="evenodd" clip-rule="evenodd" d="M1127.99 27.7341C1127.99 31.7645 1130.55 35.7949 1135.68 38.87C1145.93 45.0202 1162.55 45.0202 1172.8 38.87C1177.92 35.7949 1180.49 31.7645 1180.49 27.7341V19.8598C1180.49 15.8294 1177.92 11.7991 1172.8 8.72396C1162.55 2.57378 1145.93 2.57378 1135.68 8.72396C1130.55 11.7991 1127.99 15.8294 1127.99 19.8598V27.7341Z" fill="#C6C6C6"/>
<circle cx="13.9624" cy="13.9624" r="13.9624" transform="matrix(0.866041 -0.499972 0.866041 0.499972 1130.05 19.6448)" fill="white"/>
<circle cx="19.9462" cy="19.9462" r="18.9462" transform="matrix(0.866041 -0.499972 0.866041 0.499972 1119.69 19.3284)" stroke="white" stroke-width="2"/>
<path fill-rule="evenodd" clip-rule="evenodd" d="M1043.25 71.7983C1043.25 75.8287 1045.81 79.8591 1050.94 82.9342C1061.19 89.0844 1077.81 89.0844 1088.06 82.9342C1093.18 79.8591 1095.75 75.8287 1095.75 71.7983V63.9241C1095.75 59.8937 1093.18 55.8633 1088.06 52.7882C1077.81 46.638 1061.19 46.638 1050.94 52.7882C1045.81 55.8633 1043.25 59.8937 1043.25 63.9241V71.7983Z" fill="#C6C6C6"/>
<circle cx="13.9624" cy="13.9624" r="13.9624" transform="matrix(0.866041 -0.499972 0.866041 0.499972 1045.31 63.7097)" fill="white"/>
<circle cx="19.9462" cy="19.9462" r="18.9462" transform="matrix(0.866041 -0.499972 0.866041 0.499972 1034.95 63.3933)" stroke="white" stroke-width="2"/>
<path fill-rule="evenodd" clip-rule="evenodd" d="M1207.65 27.7341C1207.65 31.7645 1210.21 35.7949 1215.34 38.87C1225.59 45.0202 1242.2 45.0202 1252.45 38.87C1257.58 35.7949 1260.14 31.7645 1260.14 27.7341V19.8598C1260.14 15.8294 1257.58 11.7991 1252.45 8.72396C1242.2 2.57378 1225.59 2.57378 1215.34 8.72396C1210.21 11.7991 1207.65 15.8294 1207.65 19.8598V27.7341Z" fill="#C6C6C6"/>
<circle cx="13.9624" cy="13.9624" r="13.9624" transform="matrix(0.866041 -0.499972 0.866041 0.499972 1209.71 19.6448)" fill="white"/>
<circle cx="19.9462" cy="19.9462" r="18.9462" transform="matrix(0.866041 -0.499972 0.866041 0.499972 1199.35 19.3284)" stroke="white" stroke-width="2"/>
<path fill-rule="evenodd" clip-rule="evenodd" d="M1287.3 27.7341C1287.3 31.7645 1289.87 35.7949 1294.99 38.87C1305.24 45.0202 1321.86 45.0202 1332.11 38.87C1337.24 35.7949 1339.8 31.7645 1339.8 27.7341V19.8598C1339.8 15.8294 1337.24 11.7991 1332.11 8.72396C1321.86 2.57378 1305.24 2.57378 1294.99 8.72396C1289.87 11.7991 1287.3 15.8294 1287.3 19.8598V27.7341Z" fill="#C6C6C6"/>
<circle cx="13.9624" cy="13.9624" r="13.9624" transform="matrix(0.866041 -0.499972 0.866041 0.499972 1289.37 19.6448)" fill="white"/>
<circle cx="19.9462" cy="19.9462" r="18.9462" transform="matrix(0.866041 -0.499972 0.866041 0.499972 1279 19.3284)" stroke="white" stroke-width="2"/>
<path fill-rule="evenodd" clip-rule="evenodd" d="M1446.62 24.343C1446.62 28.3734 1449.18 32.4038 1454.31 35.4789C1464.56 41.6291 1481.18 41.6291 1491.43 35.4789C1496.55 32.4038 1499.11 28.3734 1499.11 24.343V16.4687C1499.11 12.4383 1496.55 8.40794 1491.43 5.33285C1481.18 -0.817331 1464.56 -0.817331 1454.31 5.33285C1449.18 8.40794 1446.62 12.4383 1446.62 16.4687V24.343Z" fill="#C6C6C6"/>
<circle cx="13.9624" cy="13.9624" r="13.9624" transform="matrix(0.866041 -0.499972 0.866041 0.499972 1448.68 16.2549)" fill="white"/>
<circle cx="19.9462" cy="19.9462" r="18.9462" transform="matrix(0.866041 -0.499972 0.866041 0.499972 1438.32 15.9379)" stroke="white" stroke-width="2"/>
<path fill-rule="evenodd" clip-rule="evenodd" d="M1327.98 187.046C1327.98 191.077 1330.54 195.107 1335.67 198.182C1345.92 204.332 1362.54 204.332 1372.79 198.182C1377.91 195.107 1380.48 191.077 1380.48 187.046V179.172C1380.48 175.142 1377.91 171.111 1372.79 168.036C1362.54 161.886 1345.92 161.886 1335.67 168.036C1330.54 171.111 1327.98 175.142 1327.98 179.172V187.046Z" fill="#494949"/>
<circle cx="13.9624" cy="13.9624" r="13.9624" transform="matrix(0.866041 -0.499972 0.866041 0.499972 1330.04 178.958)" fill="#212121"/>
<circle cx="19.9462" cy="19.9462" r="18.9462" transform="matrix(0.866041 -0.499972 0.866041 0.499972 1319.68 178.641)" stroke="#212121" stroke-width="2"/>
<path fill-rule="evenodd" clip-rule="evenodd" d="M1405.94 141.286C1405.94 145.317 1408.5 149.347 1413.63 152.422C1423.88 158.572 1440.5 158.572 1450.75 152.422C1455.87 149.347 1458.44 145.317 1458.44 141.286V133.412C1458.44 129.382 1455.87 125.351 1450.75 122.276C1440.5 116.126 1423.88 116.126 1413.63 122.276C1408.5 125.351 1405.94 129.382 1405.94 133.412V141.286Z" fill="#494949"/>
<circle cx="13.9624" cy="13.9624" r="13.9624" transform="matrix(0.866041 -0.499972 0.866041 0.499972 1408 133.197)" fill="#212121"/>
<circle cx="19.9462" cy="19.9462" r="18.9462" transform="matrix(0.866041 -0.499972 0.866041 0.499972 1397.64 132.881)" stroke="#212121" stroke-width="2"/>
<path fill-rule="evenodd" clip-rule="evenodd" d="M1327.98 95.526C1327.98 99.5564 1330.54 103.587 1335.67 106.662C1345.92 112.812 1362.54 112.812 1372.79 106.662C1377.91 103.587 1380.48 99.5564 1380.48 95.526V87.6517C1380.48 83.6213 1377.91 79.5909 1372.79 76.5158C1362.54 70.3657 1345.92 70.3657 1335.67 76.5158C1330.54 79.5909 1327.98 83.6213 1327.98 87.6517V95.526Z" fill="#494949"/>
<circle cx="13.9624" cy="13.9624" r="13.9624" transform="matrix(0.866041 -0.499972 0.866041 0.499972 1330.04 87.4379)" fill="#212121"/>
<circle cx="19.9462" cy="19.9462" r="18.9462" transform="matrix(0.866041 -0.499972 0.866041 0.499972 1319.68 87.1208)" stroke="#212121" stroke-width="2"/>
<path fill-rule="evenodd" clip-rule="evenodd" d="M1078.89 187.327C1078.89 191.357 1081.45 195.387 1086.58 198.463C1096.83 204.613 1113.45 204.613 1123.7 198.463C1128.82 195.387 1131.39 191.357 1131.39 187.327V179.452C1131.39 175.422 1128.82 171.392 1123.7 168.316C1113.45 162.166 1096.83 162.166 1086.58 168.316C1081.45 171.392 1078.89 175.422 1078.89 179.452V187.327Z" fill="#181818"/>
<circle cx="13.9624" cy="13.9624" r="13.9624" transform="matrix(0.866041 -0.499972 0.866041 0.499972 1080.95 179.239)" fill="#181818"/>
<circle cx="19.9462" cy="19.9462" r="18.9462" transform="matrix(0.866041 -0.499972 0.866041 0.499972 1070.59 178.922)" stroke="#181818" stroke-width="2"/>
<path fill-rule="evenodd" clip-rule="evenodd" d="M1030.61 160.267C1030.61 164.298 1033.17 168.328 1038.3 171.403C1048.55 177.554 1065.16 177.554 1075.41 171.403C1080.54 168.328 1083.1 164.298 1083.1 160.267V152.393C1083.1 148.363 1080.54 144.332 1075.41 141.257C1065.16 135.107 1048.55 135.107 1038.3 141.257C1033.17 144.332 1030.61 148.363 1030.61 152.393V160.267Z" fill="#181818"/>
<circle cx="13.9624" cy="13.9624" r="13.9624" transform="matrix(0.866041 -0.499972 0.866041 0.499972 1032.67 152.179)" fill="#181818"/>
<circle cx="19.9462" cy="19.9462" r="18.9462" transform="matrix(0.866041 -0.499972 0.866041 0.499972 1022.31 151.862)" stroke="#181818" stroke-width="2"/>
<path fill-rule="evenodd" clip-rule="evenodd" d="M1078.89 184.143C1078.89 188.173 1081.45 192.204 1086.58 195.279C1096.83 201.429 1113.45 201.429 1123.7 195.279C1128.82 192.204 1131.39 188.173 1131.39 184.143V176.269C1131.39 172.238 1128.82 168.208 1123.7 165.133C1113.45 158.982 1096.83 158.982 1086.58 165.133C1081.45 168.208 1078.89 172.238 1078.89 176.269V184.143Z" fill="#494949"/>
<circle cx="13.9624" cy="13.9624" r="13.9624" transform="matrix(0.866041 -0.499972 0.866041 0.499972 1080.95 176.055)" fill="#212121"/>
<circle cx="19.9462" cy="19.9462" r="18.9462" transform="matrix(0.866041 -0.499972 0.866041 0.499972 1070.59 175.737)" stroke="#212121" stroke-width="2"/>
<path fill-rule="evenodd" clip-rule="evenodd" d="M1030.61 157.614C1030.61 161.645 1033.17 165.675 1038.3 168.75C1048.55 174.901 1065.16 174.901 1075.41 168.75C1080.54 165.675 1083.1 161.645 1083.1 157.614V149.74C1083.1 145.71 1080.54 141.679 1075.41 138.604C1065.16 132.454 1048.55 132.454 1038.3 138.604C1033.17 141.679 1030.61 145.71 1030.61 149.74V157.614Z" fill="#494949"/>
<circle cx="13.9624" cy="13.9624" r="13.9624" transform="matrix(0.866041 -0.499972 0.866041 0.499972 1032.67 149.525)" fill="#212121"/>
<circle cx="19.9462" cy="19.9462" r="18.9462" transform="matrix(0.866041 -0.499972 0.866041 0.499972 1022.31 149.208)" stroke="#212121" stroke-width="2"/>
<path fill-rule="evenodd" clip-rule="evenodd" d="M1025.3 206.958C1025.3 210.989 1027.86 215.019 1032.99 218.094C1043.24 224.245 1059.86 224.245 1070.11 218.094C1075.23 215.019 1077.8 210.989 1077.8 206.958V199.084C1077.8 195.054 1075.23 191.023 1070.11 187.948C1059.86 181.798 1043.24 181.798 1032.99 187.948C1027.86 191.023 1025.3 195.054 1025.3 199.084V206.958Z" fill="#181818"/>
<circle cx="13.9624" cy="13.9624" r="13.9624" transform="matrix(0.866041 -0.499972 0.866041 0.499972 1027.36 198.87)" fill="#181818"/>
<circle cx="19.9462" cy="19.9462" r="18.9462" transform="matrix(0.866041 -0.499972 0.866041 0.499972 1017 198.553)" stroke="#181818" stroke-width="2"/>
<path fill-rule="evenodd" clip-rule="evenodd" d="M1028.48 137.982C1028.48 142.013 1031.05 146.043 1036.17 149.118C1046.42 155.268 1063.04 155.268 1073.29 149.118C1078.42 146.043 1080.98 142.013 1080.98 137.982V130.108C1080.98 126.077 1078.42 122.047 1073.29 118.972C1063.04 112.822 1046.42 112.822 1036.17 118.972C1031.05 122.047 1028.48 126.077 1028.48 130.108V137.982Z" fill="#494949"/>
<circle cx="13.9624" cy="13.9624" r="13.9624" transform="matrix(0.866041 -0.499972 0.866041 0.499972 1030.55 129.894)" fill="#212121"/>
<circle cx="19.9462" cy="19.9462" r="18.9462" transform="matrix(0.866041 -0.499972 0.866041 0.499972 1020.18 129.577)" stroke="#212121" stroke-width="2"/>
<path fill-rule="evenodd" clip-rule="evenodd" d="M1028.48 118.35C1028.48 122.381 1031.05 126.411 1036.17 129.486C1046.42 135.636 1063.04 135.636 1073.29 129.486C1078.42 126.411 1080.98 122.381 1080.98 118.35V110.476C1080.98 106.446 1078.42 102.415 1073.29 99.3402C1063.04 93.19 1046.42 93.19 1036.17 99.3402C1031.05 102.415 1028.48 106.446 1028.48 110.476V118.35Z" fill="#494949"/>
<circle cx="13.9624" cy="13.9624" r="13.9624" transform="matrix(0.866041 -0.499972 0.866041 0.499972 1030.55 110.262)" fill="#212121"/>
<circle cx="19.9462" cy="19.9462" r="18.9462" transform="matrix(0.866041 -0.499972 0.866041 0.499972 1020.18 109.945)" stroke="#212121" stroke-width="2"/>
<path fill-rule="evenodd" clip-rule="evenodd" d="M1078.89 165.043C1078.89 169.073 1081.45 173.103 1086.58 176.178C1096.83 182.329 1113.45 182.329 1123.7 176.178C1128.82 173.103 1131.39 169.073 1131.39 165.043V157.168C1131.39 153.138 1128.82 149.108 1123.7 146.032C1113.45 139.882 1096.83 139.882 1086.58 146.032C1081.45 149.108 1078.89 153.138 1078.89 157.168V165.043Z" fill="#494949"/>
<circle cx="13.9624" cy="13.9624" r="13.9624" transform="matrix(0.866041 -0.499972 0.866041 0.499972 1080.95 156.953)" fill="#212121"/>
<circle cx="19.9462" cy="19.9462" r="18.9462" transform="matrix(0.866041 -0.499972 0.866041 0.499972 1070.59 156.637)" stroke="#212121" stroke-width="2"/>
<path fill-rule="evenodd" clip-rule="evenodd" d="M1025.3 204.305C1025.3 208.336 1027.86 212.366 1032.99 215.441C1043.24 221.591 1059.86 221.591 1070.11 215.441C1075.23 212.366 1077.8 208.336 1077.8 204.305V196.431C1077.8 192.401 1075.23 188.37 1070.11 185.295C1059.86 179.145 1043.24 179.145 1032.99 185.295C1027.86 188.37 1025.3 192.401 1025.3 196.431V204.305Z" fill="#494949"/>
<circle cx="13.9624" cy="13.9624" r="13.9624" transform="matrix(0.866041 -0.499972 0.866041 0.499972 1027.36 196.217)" fill="#212121"/>
<circle cx="19.9462" cy="19.9462" r="18.9462" transform="matrix(0.866041 -0.499972 0.866041 0.499972 1017 195.9)" stroke="#212121" stroke-width="2"/>
<path fill-rule="evenodd" clip-rule="evenodd" d="M1170.36 95.526C1170.36 99.5564 1172.92 103.587 1178.05 106.662C1188.3 112.812 1204.92 112.812 1215.17 106.662C1220.29 103.587 1222.86 99.5564 1222.86 95.526V87.6517C1222.86 83.6213 1220.29 79.5909 1215.17 76.5158C1204.92 70.3657 1188.3 70.3657 1178.05 76.5158C1172.92 79.5909 1170.36 83.6213 1170.36 87.6517V95.526Z" fill="#494949"/>
<circle cx="13.9624" cy="13.9624" r="13.9624" transform="matrix(0.866041 -0.499972 0.866041 0.499972 1172.42 87.4379)" fill="#212121"/>
<circle cx="19.9462" cy="19.9462" r="18.9462" transform="matrix(0.866041 -0.499972 0.866041 0.499972 1162.06 87.1208)" stroke="#212121" stroke-width="2"/>
<path fill-rule="evenodd" clip-rule="evenodd" d="M1404.25 49.7659C1404.25 53.7963 1406.81 57.8267 1411.93 60.9017C1422.18 67.0519 1438.8 67.0519 1449.05 60.9017C1454.18 57.8267 1456.74 53.7963 1456.74 49.7659V41.8916C1456.74 37.8612 1454.18 33.8308 1449.05 30.7557C1438.8 24.6055 1422.18 24.6055 1411.93 30.7557C1406.81 33.8308 1404.25 37.8612 1404.25 41.8916V49.7659Z" fill="#494949"/>
<circle cx="13.9624" cy="13.9624" r="13.9624" transform="matrix(0.866041 -0.499972 0.866041 0.499972 1406.31 41.6772)" fill="#212121"/>
<circle cx="19.9462" cy="19.9462" r="18.9462" transform="matrix(0.866041 -0.499972 0.866041 0.499972 1395.94 41.3602)" stroke="#212121" stroke-width="2"/>
<path fill-rule="evenodd" clip-rule="evenodd" d="M1485.6 95.526C1485.6 99.5564 1488.16 103.587 1493.29 106.662C1503.54 112.812 1520.16 112.812 1530.41 106.662C1535.53 103.587 1538.09 99.5564 1538.09 95.526V87.6517C1538.09 83.6213 1535.53 79.5909 1530.41 76.5158C1520.16 70.3657 1503.54 70.3657 1493.29 76.5158C1488.16 79.5909 1485.6 83.6213 1485.6 87.6517V95.526Z" fill="#494949"/>
<circle cx="13.9624" cy="13.9624" r="13.9624" transform="matrix(0.866041 -0.499972 0.866041 0.499972 1487.66 87.4379)" fill="#212121"/>
<circle cx="19.9462" cy="19.9462" r="18.9462" transform="matrix(0.866041 -0.499972 0.866041 0.499972 1477.3 87.1208)" stroke="#212121" stroke-width="2"/>
<path fill-rule="evenodd" clip-rule="evenodd" d="M57.9786 104.872C62.7258 109.692 70.5378 111.494 80.2894 109.135C99.7926 104.417 119.669 84.8419 124.684 65.413C127.191 55.6986 125.509 47.86 120.761 43.0397L111.487 33.6223C106.739 28.8021 98.9274 27.0001 89.1758 29.3591C69.6726 34.0771 49.7967 53.6519 44.7817 73.0808C42.2741 82.7953 43.9566 90.6338 48.7038 95.4541L57.9786 104.872Z" fill="#494949"/>
<circle cx="23.4372" cy="23.4372" r="23.4372" transform="matrix(0.266213 -0.963914 0.967865 -0.251471 50.9224 92.7667)" fill="#212121"/>
<path d="M88.1185 32.5935C105.481 28.0824 115.685 38.4431 110.909 55.735C106.134 73.0268 88.1871 90.7016 70.8244 95.2128C53.4617 99.724 43.2579 89.3632 48.0335 72.0714C52.8092 54.7796 70.7558 37.1047 88.1185 32.5935Z" stroke="#212121" stroke-width="2"/>
<path d="M94.8701 64.6711L89.029 68.5741L79.8326 76.9592L83.1216 73.4556C85.1025 71.3484 87.0838 69.2416 89.0647 67.1344L89.143 62.6723L88.0451 62.3503L84.8083 67.1237L82.8869 69.2624L80.6645 71.2047L82.7628 68.1113L84.2534 65.5448L85.5193 62.6929L84.8473 62.0303L83.4105 61.7403L79.6113 61.7308L77.8429 62.0128L76.4036 62.6701L74.3587 65.52L72.8681 68.0865L71.3723 71.1814L71.4087 69.2337L71.9735 67.0916L74.2827 62.3158L72.8145 62.6313L67.7177 67.0809C67.2487 69.1919 66.7801 71.3025 66.3111 73.4135C66.0497 74.5835 65.7883 75.7534 65.5275 76.9233L66.0828 68.5166L64.7863 64.5957L67.403 60.2636L69.9281 58.8046L72.9501 56.3744L73.8716 55.0403L74.4427 55.8268L73.9643 57.3008C74.5553 57.3821 75.1467 57.4629 75.7376 57.5442C76.1074 58.1883 76.4777 58.8324 76.8471 59.4771C76.9703 58.7392 77.0939 58.0009 77.2172 57.263L76.6917 56.0572L74.2584 54.4788L76.6093 53.0318L78.0262 52.5513L79.284 52.5544L80.3185 53.4042C80.9507 53.2847 81.5835 53.1653 82.2157 53.0459C83.6439 53.0463 85.0714 53.0473 86.4996 53.0477L86.614 53.048C88.0386 53.0547 89.463 53.0609 90.887 53.0676C91.3794 53.1899 91.8713 53.3121 92.3637 53.4344L94.3808 52.5923L95.6386 52.5954L96.494 53.0817L97.1593 54.5362L92.903 56.0978L90.9797 57.2975C90.2474 58.0338 89.5142 58.7707 88.7813 59.507C89.8974 58.866 91.0132 58.2257 92.1295 57.5853C92.8131 57.5072 93.4965 57.4296 94.18 57.3515L95.412 55.8793L96.8943 55.0979L96.2651 56.4329L96.4603 58.8711L97.2857 60.3385L94.8701 64.6711Z" fill="#F9F8F4"/>
<path d="M78.262 77.1938L77.4601 78.5744L74.6568 79.5774L70.8644 80.1663L70.8015 80.176L70.75 80.166L67.6517 79.5598L66.0198 78.5457L66.8216 77.1651L67.8052 76.8035L69.4599 73.9543L68.8798 76.0074L69.4907 77.0706L69.1745 78.095L72.0358 77.9519L72.095 77.9489L72.1503 77.9522L74.8374 78.1092L75.7103 77.0862L77.5519 76.0292L79.3556 73.9791L77.7009 76.8282L78.262 77.1938Z" fill="#F9F8F4"/>
<path d="M78.9959 68.1381L75.3426 72.3497L75.3418 72.3511L75.3421 72.3497L76.5847 68.1321L78.6973 66.5735L78.9959 68.1381Z" fill="#F9F8F4"/>
<path fill-rule="evenodd" clip-rule="evenodd" d="M1230.28 205.97C1226.1 210.502 1219.04 212.375 1210.09 210.517C1192.18 206.8 1173.5 189.563 1168.35 172.016C1165.78 163.243 1167.08 156.053 1171.26 151.521L1179.42 142.668C1183.6 138.136 1190.67 136.263 1199.62 138.121C1217.52 141.838 1236.21 159.075 1241.35 176.622C1243.93 185.395 1242.63 192.585 1238.45 197.117L1230.28 205.97Z" fill="#C6C6C6"/>
<circle cx="21.3582" cy="21.3582" r="21.3582" transform="matrix(-0.297547 -0.954707 -0.97556 -0.219732 1236.35 194.736)" fill="white"/>
<path d="M1200.71 141.12C1184.81 137.538 1175.85 147.25 1180.7 162.81C1185.55 178.371 1202.37 193.889 1218.27 197.47C1234.17 201.051 1243.13 191.34 1238.28 175.78C1233.43 160.219 1216.61 144.701 1200.71 141.12Z" stroke="white" stroke-width="2"/>
<path d="M1195.49 170.456L1200.93 173.837L1209.55 181.201L1206.45 178.108C1204.58 176.247 1202.72 174.387 1200.85 172.527L1200.65 168.465L1201.64 168.139L1204.73 172.391L1206.54 174.282L1208.62 175.984L1206.62 173.229L1205.18 170.936L1203.95 168.376L1204.54 167.753L1205.84 167.446L1209.3 167.324L1210.92 167.528L1212.25 168.084L1214.2 170.619L1215.63 172.912L1217.08 175.687L1216.99 173.914L1216.42 171.98L1214.17 167.698L1215.52 167.942L1220.29 171.843C1220.78 173.752 1221.27 175.66 1221.76 177.569C1222.03 178.627 1222.31 179.685 1222.58 180.743L1221.82 173.102L1222.89 169.492L1220.38 165.625L1218.03 164.371L1215.21 162.247L1214.33 161.06L1213.83 161.793L1214.31 163.121C1213.77 163.213 1213.24 163.304 1212.7 163.396C1212.39 163.993 1212.07 164.591 1211.75 165.189C1211.62 164.521 1211.48 163.852 1211.35 163.184L1211.79 162.07L1213.96 160.56L1211.77 159.312L1210.47 158.916L1209.32 158.957L1208.41 159.761C1207.83 159.671 1207.25 159.581 1206.67 159.491C1205.37 159.534 1204.07 159.578 1202.77 159.621L1202.66 159.624C1201.37 159.673 1200.07 159.721 1198.77 159.769C1198.33 159.895 1197.88 160.021 1197.44 160.147L1195.58 159.44L1194.43 159.481L1193.67 159.949L1193.1 161.293L1197.03 162.589L1198.81 163.625C1199.5 164.273 1200.19 164.923 1200.88 165.572C1199.85 165.021 1198.81 164.471 1197.77 163.921C1197.15 163.87 1196.52 163.82 1195.9 163.769L1194.73 162.465L1193.36 161.797L1193.97 162.994L1193.87 165.221L1193.16 166.582L1195.49 170.456Z" fill="#252525"/>
<path d="M1210.99 181.367L1211.76 182.601L1214.34 183.431L1217.82 183.854L1217.87 183.861L1217.92 183.851L1220.72 183.206L1222.18 182.234L1221.41 181.001L1220.5 180.701L1218.91 178.155L1219.5 180.007L1218.97 180.994L1219.29 181.918L1216.68 181.872L1216.63 181.871L1216.58 181.876L1214.14 182.099L1213.31 181.193L1211.6 180.285L1209.9 178.472L1211.49 181.018L1210.99 181.367Z" fill="#252525"/>
<path d="M1210.05 173.142L1213.5 176.869L1213.5 176.871L1213.5 176.869L1212.25 173.065L1210.28 171.708L1210.05 173.142Z" fill="#252525"/>
<path fill-rule="evenodd" clip-rule="evenodd" d="M440.281 267.971C436.1 272.503 429.039 274.376 420.087 272.518C402.183 268.801 383.497 251.564 378.351 234.017C375.778 225.243 377.077 218.054 381.258 213.522L389.425 204.669C393.605 200.137 400.667 198.264 409.619 200.122C427.523 203.839 446.209 221.076 451.355 238.623C453.928 247.396 452.629 254.586 448.448 259.118L440.281 267.971Z" fill="#C6C6C6"/>
<circle cx="21.3582" cy="21.3582" r="21.3582" transform="matrix(-0.297547 -0.954707 -0.97556 -0.219732 446.353 256.737)" fill="white"/>
<path d="M410.711 203.121C394.81 199.539 385.852 209.251 390.702 224.811C395.551 240.372 412.373 255.89 428.273 259.471C444.174 263.052 453.132 253.341 448.283 237.781C443.433 222.22 426.612 206.702 410.711 203.121Z" stroke="white" stroke-width="2"/>
<path d="M405.489 232.458L410.926 235.839L419.551 243.202L416.452 240.109C414.585 238.249 412.717 236.389 410.85 234.528L410.646 230.467L411.637 230.141L414.727 234.392L416.54 236.283L418.622 237.986L416.619 235.231L415.185 232.937L413.947 230.378L414.54 229.754L415.84 229.447L419.3 229.325L420.919 229.53L422.249 230.085L424.197 232.62L425.631 234.914L427.085 237.688L426.994 235.915L426.416 233.981L424.171 229.7L425.517 229.943L430.292 233.844C430.782 235.753 431.271 237.662 431.761 239.57C432.034 240.628 432.307 241.686 432.58 242.744L431.824 235.103L432.888 231.494L430.376 227.626L428.032 226.372L425.208 224.249L424.328 223.061L423.832 223.794L424.311 225.123C423.775 225.214 423.239 225.305 422.703 225.397C422.386 225.995 422.068 226.592 421.75 227.19C421.616 226.522 421.482 225.853 421.347 225.185L421.79 224.071L423.959 222.561L421.775 221.313L420.47 220.917L419.325 220.958L418.408 221.762C417.829 221.672 417.249 221.583 416.669 221.493C415.368 221.536 414.068 221.579 412.768 221.622L412.663 221.625C411.366 221.674 410.069 221.722 408.772 221.77C408.327 221.896 407.883 222.022 407.438 222.148L405.576 221.441L404.43 221.482L403.666 221.95L403.103 223.295L407.026 224.59L408.813 225.626C409.502 226.275 410.192 226.924 410.881 227.573C409.846 227.022 408.811 226.472 407.775 225.922C407.15 225.871 406.525 225.821 405.9 225.77L404.734 224.466L403.361 223.798L403.974 224.996L403.869 227.222L403.16 228.583L405.489 232.458Z" fill="#252525"/>
<path d="M420.99 243.368L421.761 244.602L424.344 245.432L427.816 245.856L427.874 245.863L427.92 245.852L430.724 245.208L432.18 244.235L431.409 243.002L430.502 242.702L428.91 240.156L429.5 242.009L428.975 242.995L429.293 243.919L426.683 243.874L426.629 243.873L426.579 243.877L424.136 244.1L423.311 243.195L421.602 242.287L419.898 240.473L421.49 243.019L420.99 243.368Z" fill="#252525"/>
<path d="M420.051 235.143L423.504 238.871L423.505 238.872L423.504 238.871L422.247 235.066L420.276 233.709L420.051 235.143Z" fill="#252525"/>
<path fill-rule="evenodd" clip-rule="evenodd" d="M601.345 54.8412C600.669 60.9693 603.889 67.5275 611.165 73.0632C625.718 84.1347 650.987 86.9239 667.604 79.2931C675.913 75.4777 680.486 69.7797 681.162 63.6516L682.484 51.6791C683.16 45.551 679.941 38.9928 672.664 33.4571C658.111 22.3856 632.842 19.5964 616.225 27.2272C607.916 31.0426 603.343 36.7406 602.667 42.8687L601.345 54.8412Z" fill="#C6C6C6"/>
<circle cx="21.3582" cy="21.3582" r="21.3582" transform="matrix(0.915668 -0.401936 0.805958 0.591973 605.838 42.8879)" fill="white"/>
<path d="M669.685 34.6005C682.821 44.249 681.371 57.3813 666.447 63.9325C651.523 70.4836 628.775 67.9726 615.639 58.3241C602.502 48.6756 603.952 35.5433 618.876 28.9922C633.801 22.441 656.548 24.952 669.685 34.6005Z" stroke="white" stroke-width="2"/>
<path d="M650.973 57.7912L644.854 55.9076L633.638 54.2305L638.006 54.54C640.635 54.728 643.264 54.9167 645.892 55.1047L649.091 52.5934L648.687 51.6322L643.452 52.09L640.835 51.9622L638.184 51.5085L641.577 51.2123L644.248 50.7896L646.992 50.044L647.074 49.1879L646.453 48.0055L644.274 45.3146L643.058 44.2269L641.765 43.5877L638.574 43.7816L635.903 44.2043L632.855 44.9272L634.253 43.8326L636.092 42.9997L640.796 41.8848L639.728 41.0285L633.651 39.9854C631.889 40.8682 630.128 41.751 628.366 42.6337C627.389 43.1219 626.412 43.6101 625.435 44.0987L631.696 39.6556L633.722 36.4839L638.289 35.8417L640.773 36.7872L644.229 37.5254L645.702 37.4093L645.474 38.2654L644.157 38.7751C644.44 39.2396 644.723 39.7041 645.005 40.1685C644.763 40.8004 644.52 41.4326 644.277 42.0645C644.87 41.7272 645.462 41.3899 646.055 41.0526L646.605 39.9875L646.321 37.3598L648.696 38.1891L649.851 38.9142L650.572 39.805L650.566 41.025C651.014 41.4032 651.463 41.7818 651.911 42.1599C652.732 43.1697 653.552 44.1792 654.374 45.1889L654.439 45.27C655.254 46.2808 656.069 47.2911 656.883 48.3015C657.08 48.7199 657.277 49.1378 657.473 49.5562L659.229 50.4976L659.95 51.3884L660.099 52.2727L659.453 53.5796L655.901 51.4694L653.947 50.8001C653.005 50.706 652.063 50.6116 651.121 50.5171C652.216 50.9373 653.31 51.3576 654.405 51.7783C654.853 52.2166 655.301 52.6549 655.749 53.0931L657.499 53.1172L658.904 53.7155L657.598 54.0385L655.987 55.579L655.425 57.0064L650.973 57.7912Z" fill="#252525"/>
<path d="M632.568 53.2543L631.131 53.4817L628.81 52.0772L626.212 49.7354L626.169 49.6965L626.147 49.6543L624.793 47.1157L624.571 45.3789L626.008 45.1516L626.829 45.6387L629.795 45.1695L628.01 45.9404L627.61 46.9838L626.704 47.3495L628.451 49.2897L628.487 49.3297L628.517 49.3707L629.951 51.3603L631.177 51.3889L632.983 52.0826L635.469 52.1782L632.504 52.6475L632.568 53.2543Z" fill="#252525"/>
<path d="M639.391 48.5655L634.313 48.4058L634.311 48.406L634.312 48.4054L638.008 46.8578L640.325 47.4545L639.391 48.5655Z" fill="#252525"/>
<path d="M1314.82 -176.383L1314.82 272.492" stroke="url(#paint8_linear_5881_32004)" stroke-width="2" stroke-linecap="round"/>
</g>
<path d="M168.25 206C130.75 206 110.5 179 110.5 150.5C110.5 122 130.75 95 168.25 95C204.25 95 217.75 118.25 221.5 134L202 136.25C199 126.5 190.75 113 168.25 113C145.75 113 130 129.5 130 150.5C130 171.5 145 188 168.25 188C187 188 198.25 177.5 202.75 172.25L219.25 182.75C214.75 188 201.25 206 168.25 206ZM232.041 203V98H251.541V128H307.041V98H326.541V203H307.041V146H251.541V203H232.041ZM344.541 203V98H434.541V116H364.041V133.25H417.291V151.25H364.041V185H434.541V203H344.541ZM498.279 206C460.779 206 440.529 179 440.529 150.5C440.529 122 460.779 95 498.279 95C534.279 95 547.779 118.25 551.529 134L532.029 136.25C529.029 126.5 520.779 113 498.279 113C475.779 113 460.029 129.5 460.029 150.5C460.029 171.5 475.029 188 498.279 188C517.029 188 528.279 177.5 532.779 172.25L549.279 182.75C544.779 188 531.279 206 498.279 206ZM562.07 203.15V98.15H581.57V146.75L633.32 98H659.57L613.82 141.5L658.07 203H635.57L600.32 154.25L581.57 172.25V203.15H562.07ZM670.029 203V98H760.029V116H689.529V133.25H742.779V151.25H689.529V185H760.029V203H670.029ZM775.059 203V98H872.559V132.5C872.559 146.45 863.709 158.15 848.409 163.1L872.559 203H850.059L827.709 166.25L794.559 169.25V203H775.059ZM794.559 151.25L835.809 147.5C844.059 146.75 853.059 143 853.059 131.75V116H794.559V151.25ZM934.023 206C901.023 206 887.523 188 883.023 182.75L899.523 172.25C904.023 177.5 915.273 188 934.023 188C947.523 188 959.523 184.25 959.523 174.5C959.523 153.5 886.023 167 886.023 128C886.023 111.5 901.023 95 929.523 95C955.023 95 970.773 108.5 976.773 123.5L957.273 127.25C953.523 119.75 943.773 113 928.773 113C913.023 113 905.523 120.5 905.523 128C905.523 148.25 979.023 134 979.023 174.5C979.023 197 959.523 206 934.023 206Z" fill="url(#paint9_linear_5881_32004)"/>
<path d="M158.25 206C120.75 206 100.5 179 100.5 150.5C100.5 122 120.75 95 158.25 95C194.25 95 207.75 118.25 211.5 134L192 136.25C189 126.5 180.75 113 158.25 113C135.75 113 120 129.5 120 150.5C120 171.5 135 188 158.25 188C177 188 188.25 177.5 192.75 172.25L209.25 182.75C204.75 188 191.25 206 158.25 206ZM222.041 203V98H241.541V128H297.041V98H316.541V203H297.041V146H241.541V203H222.041ZM334.541 203V98H424.541V116H354.041V133.25H407.291V151.25H354.041V185H424.541V203H334.541ZM488.279 206C450.779 206 430.529 179 430.529 150.5C430.529 122 450.779 95 488.279 95C524.279 95 537.779 118.25 541.529 134L522.029 136.25C519.029 126.5 510.779 113 488.279 113C465.779 113 450.029 129.5 450.029 150.5C450.029 171.5 465.029 188 488.279 188C507.029 188 518.279 177.5 522.779 172.25L539.279 182.75C534.779 188 521.279 206 488.279 206ZM552.07 203.15V98.15H571.57V146.75L623.32 98H649.57L603.82 141.5L648.07 203H625.57L590.32 154.25L571.57 172.25V203.15H552.07ZM660.029 203V98H750.029V116H679.529V133.25H732.779V151.25H679.529V185H750.029V203H660.029ZM765.059 203V98H862.559V132.5C862.559 146.45 853.709 158.15 838.409 163.1L862.559 203H840.059L817.709 166.25L784.559 169.25V203H765.059ZM784.559 151.25L825.809 147.5C834.059 146.75 843.059 143 843.059 131.75V116H784.559V151.25ZM924.023 206C891.023 206 877.523 188 873.023 182.75L889.523 172.25C894.023 177.5 905.273 188 924.023 188C937.523 188 949.523 184.25 949.523 174.5C949.523 153.5 876.023 167 876.023 128C876.023 111.5 891.023 95 919.523 95C945.023 95 960.773 108.5 966.773 123.5L947.273 127.25C943.523 119.75 933.773 113 918.773 113C903.023 113 895.523 120.5 895.523 128C895.523 148.25 969.023 134 969.023 174.5C969.023 197 949.523 206 924.023 206Z" fill="#D2FF00"/>
<defs>
<linearGradient id="paint0_linear_5881_32004" x1="1312.15" y1="61.3199" x2="1312.16" y2="-472.715" gradientUnits="userSpaceOnUse">
<stop offset="0.035" stop-color="#D2FF00"/>
<stop offset="0.555" stop-color="#9AFF01" stop-opacity="0"/>
</linearGradient>
<linearGradient id="paint1_linear_5881_32004" x1="1012.9" y1="98.4611" x2="1012.91" y2="-342.743" gradientUnits="userSpaceOnUse">
<stop offset="0.035" stop-color="#D2FF00"/>
<stop offset="0.555" stop-color="#9AFF01" stop-opacity="0"/>
</linearGradient>
<linearGradient id="paint2_linear_5881_32004" x1="221.987" y1="108.876" x2="221.99" y2="-332.329" gradientUnits="userSpaceOnUse">
<stop offset="0.035" stop-color="#D2FF00"/>
<stop offset="0.555" stop-color="#9AFF01" stop-opacity="0"/>
</linearGradient>
<linearGradient id="paint3_linear_5881_32004" x1="313.987" y1="114.876" x2="313.99" y2="-326.329" gradientUnits="userSpaceOnUse">
<stop offset="0.035" stop-color="#D2FF00"/>
<stop offset="0.555" stop-color="#9AFF01" stop-opacity="0"/>
</linearGradient>
<linearGradient id="paint4_linear_5881_32004" x1="334.987" y1="114.876" x2="334.99" y2="-326.329" gradientUnits="userSpaceOnUse">
<stop offset="0.035" stop-color="#D2FF00"/>
<stop offset="0.555" stop-color="#9AFF01" stop-opacity="0"/>
</linearGradient>
<linearGradient id="paint5_linear_5881_32004" x1="551.987" y1="114.876" x2="551.99" y2="-326.329" gradientUnits="userSpaceOnUse">
<stop offset="0.035" stop-color="#D2FF00"/>
<stop offset="0.555" stop-color="#9AFF01" stop-opacity="0"/>
</linearGradient>
<linearGradient id="paint6_linear_5881_32004" x1="764.987" y1="114.876" x2="764.99" y2="-326.329" gradientUnits="userSpaceOnUse">
<stop offset="0.035" stop-color="#D2FF00"/>
<stop offset="0.555" stop-color="#9AFF01" stop-opacity="0"/>
</linearGradient>
<linearGradient id="paint7_linear_5881_32004" x1="859.987" y1="114.876" x2="859.99" y2="-326.329" gradientUnits="userSpaceOnUse">
<stop offset="0.035" stop-color="#D2FF00"/>
<stop offset="0.555" stop-color="#9AFF01" stop-opacity="0"/>
</linearGradient>
<linearGradient id="paint8_linear_5881_32004" x1="1313.82" y1="272.493" x2="1313.83" y2="-168.712" gradientUnits="userSpaceOnUse">
<stop offset="0.035" stop-color="#D2FF00"/>
<stop offset="0.555" stop-color="#9AFF01" stop-opacity="0"/>
</linearGradient>
<linearGradient id="paint9_linear_5881_32004" x1="565" y1="100.5" x2="565" y2="203" gradientUnits="userSpaceOnUse">
<stop stop-color="#D2FF00"/>
<stop offset="1" stop-color="#212121"/>
</linearGradient>
</defs>
</svg>
