<svg width="280" height="200" viewBox="0 0 280 200" fill="none" xmlns="http://www.w3.org/2000/svg">
<rect width="280" height="200" rx="10" fill="#212121"/>
<mask id="mask0_5875_31641" style="mask-type:alpha" maskUnits="userSpaceOnUse" x="1" y="1" width="278" height="198">
<rect x="1" y="1" width="278" height="198" rx="10" fill="#212121"/>
</mask>
<g mask="url(#mask0_5875_31641)">
<line x1="216.465" y1="-170" x2="216.465" y2="41.3633" stroke="url(#paint0_linear_5875_31641)" stroke-width="2"/>
<rect width="144.583" height="153.582" transform="matrix(0.866041 0.499972 -0.866041 0.499972 224.009 -15.8123)" fill="#181818"/>
<path d="M333.216 46.8662L333.19 55.8284L216.55 123.671L216.576 114.709L333.216 46.8662Z" fill="#9BBC00"/>
<path d="M216.575 114.709L216.549 123.671L99.0498 55.8325L99.0749 46.871L216.575 114.709Z" fill="#617600"/>
<path d="M333.215 46.8662L216.574 114.709L99.0742 46.8708L215.715 -20.9722L333.215 46.8662Z" fill="#D2FF00"/>
<path d="M215.743 -15.7223L108.779 46.4966L216.521 108.702L323.486 46.4821L215.743 -15.7223Z" fill="#F9F8F4"/>
<mask id="mask1_5875_31641" style="mask-type:luminance" maskUnits="userSpaceOnUse" x="108" y="-16" width="216" height="125">
<path d="M215.744 -15.7229L108.779 46.496L216.522 108.701L323.486 46.4815L215.744 -15.7229Z" fill="white"/>
</mask>
<g mask="url(#mask1_5875_31641)">
<path d="M308.324 37.5998L293.025 46.4901L308.433 55.3857L323.732 46.4947L308.324 37.5998ZM262.419 64.2767L277.929 73.2316L293.228 64.3413L277.717 55.3864L262.418 64.2767H262.419ZM231.813 82.0632L247.477 91.1071L262.776 82.2162L247.112 73.1722L231.813 82.0632ZM216.414 73.1729L201.107 82.0685L216.505 90.9588L231.813 82.0632L216.414 73.1729ZM185.608 55.387L170.301 64.2826L185.699 73.1729L201.007 64.2773L185.608 55.387ZM154.802 37.6011L139.494 46.4967L154.893 55.387L170.2 46.4914L154.802 37.6011ZM200.807 28.7049L185.408 19.8146L170.101 28.7102L185.499 37.6005L200.807 28.7049ZM231.413 10.919L216.014 2.02872L200.707 10.9243L216.105 19.8146L231.413 10.919ZM246.82 19.8146L262.119 10.9236L246.711 2.02806L231.413 10.919L246.82 19.8146ZM277.626 37.6005L292.925 28.7095L277.517 19.8139L262.218 28.7049L277.626 37.6005H277.626ZM262.319 46.4961L277.717 55.3864L293.025 46.4901L277.626 37.6005L262.319 46.4961ZM231.713 64.2826L247.112 73.1729L262.419 64.2767L247.021 55.387L231.713 64.2826ZM216.305 55.387L201.007 64.2773L216.414 73.1729L231.713 64.2819L216.305 55.387ZM185.499 37.6005L170.2 46.4914L185.608 55.387L200.907 46.4967L185.499 37.6005ZM231.513 28.7102L216.105 19.8146L200.806 28.7049L216.214 37.6005L231.513 28.7102ZM246.911 37.6005L262.219 28.7049L246.82 19.8146L231.513 28.7102L246.911 37.6005ZM231.613 46.4914L247.021 55.387L262.319 46.4961L246.911 37.6005L231.613 46.4914ZM216.215 37.6011L200.907 46.4967L216.305 55.387L231.613 46.4914L216.215 37.6011ZM214.743 -16.4283L199.445 -7.53804L216.015 2.02872L231.313 -6.86158L214.743 -16.4283ZM184.137 1.35753L168.839 10.2478L185.409 19.8146L200.707 10.9236L184.137 1.35753ZM153.531 19.1441L138.233 28.0344L154.802 37.6011L170.101 28.7102L153.531 19.1441ZM106.15 46.6714L122.72 56.2382L139.494 46.4961L122.924 36.9293L106.15 46.6714ZM138.119 65.1285L153.527 74.0241L170.301 64.2819L154.893 55.387L138.119 65.1285ZM168.925 82.9144L184.333 91.81L201.107 82.0678L185.699 73.1722L168.925 82.9144ZM199.731 100.7L215.139 109.596L231.913 99.8537L216.505 90.9588L199.731 100.7Z" fill="#D2FF00"/>
</g>
<path fill-rule="evenodd" clip-rule="evenodd" d="M238.097 125.793C238.097 127.361 239.094 128.929 241.087 130.125C245.075 132.518 251.54 132.518 255.528 130.125C257.522 128.929 258.518 127.361 258.518 125.793V122.73C258.518 121.162 257.522 119.594 255.528 118.398C251.54 116.005 245.075 116.005 241.087 118.398C239.094 119.594 238.097 121.162 238.097 122.73V125.793Z" fill="#181818"/>
<circle cx="5.43166" cy="5.43166" r="5.43166" transform="matrix(0.866041 -0.499972 0.866041 0.499972 238.899 122.647)" fill="#181818"/>
<circle cx="7.75952" cy="7.75952" r="6.75952" transform="matrix(0.866041 -0.499972 0.866041 0.499972 234.867 122.523)" stroke="#181818" stroke-width="2"/>
<path fill-rule="evenodd" clip-rule="evenodd" d="M260.389 118.56C260.389 120.128 261.386 121.695 263.38 122.892C267.367 125.284 273.833 125.284 277.82 122.892C279.814 121.695 280.811 120.128 280.811 118.56V115.496C280.811 113.928 279.814 112.361 277.82 111.164C273.833 108.772 267.367 108.772 263.38 111.164C261.386 112.361 260.389 113.928 260.389 115.496V118.56Z" fill="#181818"/>
<circle cx="5.43166" cy="5.43166" r="5.43166" transform="matrix(0.866041 -0.499972 0.866041 0.499972 261.191 115.413)" fill="#181818"/>
<circle cx="7.75952" cy="7.75952" r="6.75952" transform="matrix(0.866041 -0.499972 0.866041 0.499972 257.16 115.29)" stroke="#181818" stroke-width="2"/>
<path fill-rule="evenodd" clip-rule="evenodd" d="M260.389 116.703C260.389 118.271 261.386 119.839 263.38 121.035C267.367 123.427 273.833 123.427 277.82 121.035C279.814 119.839 280.811 118.271 280.811 116.703V113.639C280.811 112.072 279.814 110.504 277.82 109.307C273.833 106.915 267.367 106.915 263.38 109.307C261.386 110.504 260.389 112.072 260.389 113.639V116.703Z" fill="#C6C6C6"/>
<circle cx="5.43166" cy="5.43166" r="5.43166" transform="matrix(0.866041 -0.499972 0.866041 0.499972 261.191 113.556)" fill="white"/>
<circle cx="7.75952" cy="7.75952" r="6.75952" transform="matrix(0.866041 -0.499972 0.866041 0.499972 257.16 113.433)" stroke="white" stroke-width="2"/>
<path fill-rule="evenodd" clip-rule="evenodd" d="M260.389 109.065C260.389 110.633 261.386 112.201 263.38 113.397C267.367 115.79 273.833 115.79 277.82 113.397C279.814 112.201 280.811 110.633 280.811 109.065V106.002C280.811 104.434 279.814 102.866 277.82 101.67C273.833 99.2772 267.367 99.2772 263.38 101.67C261.386 102.866 260.389 104.434 260.389 106.002V109.065Z" fill="#C6C6C6"/>
<circle cx="5.43166" cy="5.43166" r="5.43166" transform="matrix(0.866041 -0.499972 0.866041 0.499972 261.191 105.918)" fill="white"/>
<circle cx="7.75952" cy="7.75952" r="6.75952" transform="matrix(0.866041 -0.499972 0.866041 0.499972 257.16 105.795)" stroke="white" stroke-width="2"/>
<path fill-rule="evenodd" clip-rule="evenodd" d="M238.097 123.514C238.097 125.082 239.094 126.65 241.087 127.846C245.075 130.239 251.54 130.239 255.528 127.846C257.522 126.65 258.518 125.082 258.518 123.514V120.451C258.518 118.883 257.522 117.315 255.528 116.119C251.54 113.726 245.075 113.726 241.087 116.119C239.094 117.315 238.097 118.883 238.097 120.451V123.514Z" fill="#C6C6C6"/>
<circle cx="5.43166" cy="5.43166" r="5.43166" transform="matrix(0.866041 -0.499972 0.866041 0.499972 238.899 120.367)" fill="white"/>
<circle cx="7.75952" cy="7.75952" r="6.75952" transform="matrix(0.866041 -0.499972 0.866041 0.499972 234.867 120.244)" stroke="white" stroke-width="2"/>
<path fill-rule="evenodd" clip-rule="evenodd" d="M174.146 10.4957C174.146 12.0636 175.143 13.6315 177.137 14.8278C181.124 17.2204 187.589 17.2204 191.577 14.8278C193.571 13.6315 194.568 12.0636 194.568 10.4957V7.43243C194.568 5.86452 193.571 4.2966 191.577 3.10033C187.589 0.707769 181.124 0.707769 177.137 3.10033C175.143 4.2966 174.146 5.86452 174.146 7.43243V10.4957Z" fill="#C6C6C6"/>
<circle cx="5.43166" cy="5.43166" r="5.43166" transform="matrix(0.866041 -0.499972 0.866041 0.499972 174.948 7.34924)" fill="white"/>
<circle cx="7.75952" cy="7.75952" r="6.75952" transform="matrix(0.866041 -0.499972 0.866041 0.499972 170.917 7.22595)" stroke="white" stroke-width="2"/>
<path fill-rule="evenodd" clip-rule="evenodd" d="M143.817 28.2981C143.817 29.866 144.814 31.4339 146.808 32.6302C150.795 35.0227 157.26 35.0227 161.248 32.6302C163.242 31.4339 164.239 29.866 164.239 28.2981V25.2348C164.239 23.6669 163.242 22.099 161.248 20.9027C157.26 18.5101 150.795 18.5101 146.808 20.9027C144.814 22.099 143.817 23.6669 143.817 25.2348V28.2981Z" fill="#C6C6C6"/>
<circle cx="5.43166" cy="5.43166" r="5.43166" transform="matrix(0.866041 -0.499972 0.866041 0.499972 144.619 25.1512)" fill="white"/>
<circle cx="7.75952" cy="7.75952" r="6.75952" transform="matrix(0.866041 -0.499972 0.866041 0.499972 140.587 25.0281)" stroke="white" stroke-width="2"/>
<path fill-rule="evenodd" clip-rule="evenodd" d="M110.851 45.4397C110.851 47.0076 111.847 48.5755 113.841 49.7718C117.829 52.1643 124.294 52.1643 128.282 49.7718C130.275 48.5755 131.272 47.0076 131.272 45.4397V42.3764C131.272 40.8085 130.275 39.2406 128.282 38.0443C124.294 35.6517 117.829 35.6517 113.841 38.0443C111.847 39.2406 110.851 40.8085 110.851 42.3764V45.4397Z" fill="#C6C6C6"/>
<circle cx="5.43166" cy="5.43166" r="5.43166" transform="matrix(0.866041 -0.499972 0.866041 0.499972 111.653 42.2928)" fill="white"/>
<circle cx="7.75952" cy="7.75952" r="6.75952" transform="matrix(0.866041 -0.499972 0.866041 0.499972 107.621 42.1697)" stroke="white" stroke-width="2"/>
<path fill-rule="evenodd" clip-rule="evenodd" d="M174.805 28.2981C174.805 29.866 175.802 31.4339 177.795 32.6302C181.783 35.0227 188.248 35.0227 192.236 32.6302C194.23 31.4339 195.226 29.866 195.226 28.2981V25.2348C195.226 23.6669 194.23 22.099 192.236 20.9027C188.248 18.5101 181.783 18.5101 177.795 20.9027C175.802 22.099 174.805 23.6669 174.805 25.2348V28.2981Z" fill="#C6C6C6"/>
<circle cx="5.43166" cy="5.43166" r="5.43166" transform="matrix(0.866041 -0.499972 0.866041 0.499972 175.607 25.1512)" fill="white"/>
<circle cx="7.75952" cy="7.75952" r="6.75952" transform="matrix(0.866041 -0.499972 0.866041 0.499972 171.575 25.0281)" stroke="white" stroke-width="2"/>
<path fill-rule="evenodd" clip-rule="evenodd" d="M205.793 28.2981C205.793 29.866 206.79 31.4339 208.784 32.6302C212.771 35.0227 219.236 35.0227 223.224 32.6302C225.218 31.4339 226.215 29.866 226.215 28.2981V25.2348C226.215 23.6669 225.218 22.099 223.224 20.9027C219.236 18.5101 212.771 18.5101 208.784 20.9027C206.79 22.099 205.793 23.6669 205.793 25.2348V28.2981Z" fill="#C6C6C6"/>
<circle cx="5.43166" cy="5.43166" r="5.43166" transform="matrix(0.866041 -0.499972 0.866041 0.499972 206.595 25.1512)" fill="white"/>
<circle cx="7.75952" cy="7.75952" r="6.75952" transform="matrix(0.866041 -0.499972 0.866041 0.499972 202.563 25.0281)" stroke="white" stroke-width="2"/>
<path fill-rule="evenodd" clip-rule="evenodd" d="M267.77 26.9787C267.77 28.5466 268.766 30.1146 270.76 31.3108C274.748 33.7034 281.213 33.7034 285.201 31.3108C287.194 30.1146 288.191 28.5466 288.191 26.9787V23.9155C288.191 22.3475 287.194 20.7796 285.201 19.5834C281.213 17.1908 274.748 17.1908 270.76 19.5834C268.766 20.7796 267.77 22.3475 267.77 23.9155V26.9787Z" fill="#C6C6C6"/>
<circle cx="5.43166" cy="5.43166" r="5.43166" transform="matrix(0.866041 -0.499972 0.866041 0.499972 268.572 23.8325)" fill="white"/>
<circle cx="7.75952" cy="7.75952" r="6.75952" transform="matrix(0.866041 -0.499972 0.866041 0.499972 264.54 23.709)" stroke="white" stroke-width="2"/>
<path fill-rule="evenodd" clip-rule="evenodd" d="M221.617 90.2738C221.617 91.8417 222.614 93.4096 224.608 94.6059C228.595 96.9984 235.061 96.9984 239.048 94.6059C241.042 93.4096 242.039 91.8417 242.039 90.2738V87.2105C242.039 85.6426 241.042 84.0747 239.048 82.8784C235.061 80.4858 228.595 80.4858 224.608 82.8784C222.614 84.0747 221.617 85.6426 221.617 87.2105V90.2738Z" fill="#494949"/>
<circle cx="5.43166" cy="5.43166" r="5.43166" transform="matrix(0.866041 -0.499972 0.866041 0.499972 222.419 87.1271)" fill="#212121"/>
<circle cx="7.75952" cy="7.75952" r="6.75952" transform="matrix(0.866041 -0.499972 0.866041 0.499972 218.388 87.0038)" stroke="#212121" stroke-width="2"/>
<path fill-rule="evenodd" clip-rule="evenodd" d="M251.945 72.4724C251.945 74.0403 252.942 75.6082 254.936 76.8045C258.924 79.197 265.389 79.197 269.376 76.8045C271.37 75.6082 272.367 74.0403 272.367 72.4724V69.4091C272.367 67.8412 271.37 66.2733 269.376 65.077C265.389 62.6845 258.924 62.6845 254.936 65.077C252.942 66.2733 251.945 67.8412 251.945 69.4091V72.4724Z" fill="#494949"/>
<circle cx="5.43166" cy="5.43166" r="5.43166" transform="matrix(0.866041 -0.499972 0.866041 0.499972 252.748 69.3256)" fill="#212121"/>
<circle cx="7.75952" cy="7.75952" r="6.75952" transform="matrix(0.866041 -0.499972 0.866041 0.499972 248.716 69.2024)" stroke="#212121" stroke-width="2"/>
<path fill-rule="evenodd" clip-rule="evenodd" d="M221.617 54.6703C221.617 56.2382 222.614 57.8061 224.608 59.0024C228.595 61.3949 235.061 61.3949 239.048 59.0024C241.042 57.8061 242.039 56.2382 242.039 54.6703V51.607C242.039 50.0391 241.042 48.4712 239.048 47.2749C235.061 44.8823 228.595 44.8823 224.608 47.2749C222.614 48.4712 221.617 50.0391 221.617 51.607V54.6703Z" fill="#494949"/>
<circle cx="5.43166" cy="5.43166" r="5.43166" transform="matrix(0.866041 -0.499972 0.866041 0.499972 222.419 51.5238)" fill="#212121"/>
<circle cx="7.75952" cy="7.75952" r="6.75952" transform="matrix(0.866041 -0.499972 0.866041 0.499972 218.388 51.4005)" stroke="#212121" stroke-width="2"/>
<path fill-rule="evenodd" clip-rule="evenodd" d="M124.715 90.383C124.715 91.9509 125.712 93.5189 127.706 94.7151C131.694 97.1077 138.159 97.1077 142.146 94.7151C144.14 93.5189 145.137 91.9509 145.137 90.383V87.3198C145.137 85.7518 144.14 84.1839 142.146 82.9877C138.159 80.5951 131.694 80.5951 127.706 82.9877C125.712 84.1839 124.715 85.7518 124.715 87.3198V90.383Z" fill="#181818"/>
<circle cx="5.43166" cy="5.43166" r="5.43166" transform="matrix(0.866041 -0.499972 0.866041 0.499972 125.518 87.2366)" fill="#181818"/>
<circle cx="7.75952" cy="7.75952" r="6.75952" transform="matrix(0.866041 -0.499972 0.866041 0.499972 121.486 87.1132)" stroke="#181818" stroke-width="2"/>
<path fill-rule="evenodd" clip-rule="evenodd" d="M105.932 79.8562C105.932 81.4241 106.929 82.992 108.923 84.1883C112.91 86.5808 119.376 86.5808 123.363 84.1883C125.357 82.992 126.354 81.4241 126.354 79.8562V76.7929C126.354 75.225 125.357 73.6571 123.363 72.4608C119.376 70.0682 112.91 70.0682 108.923 72.4608C106.929 73.6571 105.932 75.225 105.932 76.7929V79.8562Z" fill="#181818"/>
<circle cx="5.43166" cy="5.43166" r="5.43166" transform="matrix(0.866041 -0.499972 0.866041 0.499972 106.734 76.7095)" fill="#181818"/>
<circle cx="7.75952" cy="7.75952" r="6.75952" transform="matrix(0.866041 -0.499972 0.866041 0.499972 102.703 76.5863)" stroke="#181818" stroke-width="2"/>
<path fill-rule="evenodd" clip-rule="evenodd" d="M124.716 89.1444C124.716 90.7123 125.713 92.2802 127.707 93.4765C131.694 95.869 138.159 95.869 142.147 93.4765C144.141 92.2802 145.138 90.7123 145.138 89.1444V86.0811C145.138 84.5132 144.141 82.9453 142.147 81.749C138.159 79.3565 131.694 79.3565 127.707 81.749C125.713 82.9453 124.716 84.5132 124.716 86.0811V89.1444Z" fill="#494949"/>
<circle cx="5.43166" cy="5.43166" r="5.43166" transform="matrix(0.866041 -0.499972 0.866041 0.499972 125.518 85.9979)" fill="#212121"/>
<circle cx="7.75952" cy="7.75952" r="6.75952" transform="matrix(0.866041 -0.499972 0.866041 0.499972 121.486 85.8745)" stroke="#212121" stroke-width="2"/>
<path fill-rule="evenodd" clip-rule="evenodd" d="M105.932 78.8243C105.932 80.3922 106.929 81.9601 108.923 83.1564C112.91 85.549 119.376 85.549 123.363 83.1564C125.357 81.9601 126.354 80.3922 126.354 78.8243V75.761C126.354 74.1931 125.357 72.6252 123.363 71.4289C119.376 69.0364 112.91 69.0364 108.923 71.4289C106.929 72.6252 105.932 74.1931 105.932 75.761V78.8243Z" fill="#494949"/>
<circle cx="5.43166" cy="5.43166" r="5.43166" transform="matrix(0.866041 -0.499972 0.866041 0.499972 106.734 75.6775)" fill="#212121"/>
<circle cx="7.75952" cy="7.75952" r="6.75952" transform="matrix(0.866041 -0.499972 0.866041 0.499972 102.703 75.554)" stroke="#212121" stroke-width="2"/>
<path fill-rule="evenodd" clip-rule="evenodd" d="M103.868 98.0201C103.868 99.588 104.865 101.156 106.859 102.352C110.846 104.745 117.312 104.745 121.299 102.352C123.293 101.156 124.29 99.588 124.29 98.0201V94.9568C124.29 93.3889 123.293 91.821 121.299 90.6247C117.312 88.2322 110.846 88.2322 106.859 90.6247C104.865 91.821 103.868 93.3889 103.868 94.9568V98.0201Z" fill="#181818"/>
<circle cx="5.43166" cy="5.43166" r="5.43166" transform="matrix(0.866041 -0.499972 0.866041 0.499972 104.67 94.8738)" fill="#181818"/>
<circle cx="7.75952" cy="7.75952" r="6.75952" transform="matrix(0.866041 -0.499972 0.866041 0.499972 100.639 94.7504)" stroke="#181818" stroke-width="2"/>
<path fill-rule="evenodd" clip-rule="evenodd" d="M105.107 71.187C105.107 72.7549 106.104 74.3228 108.098 75.5191C112.085 77.9116 118.55 77.9116 122.538 75.5191C124.532 74.3228 125.529 72.7549 125.529 71.187V68.1237C125.529 66.5558 124.532 64.9879 122.538 63.7916C118.55 61.3991 112.085 61.3991 108.098 63.7916C106.104 64.9879 105.107 66.5558 105.107 68.1237V71.187Z" fill="#494949"/>
<circle cx="5.43166" cy="5.43166" r="5.43166" transform="matrix(0.866041 -0.499972 0.866041 0.499972 105.909 68.0405)" fill="#212121"/>
<circle cx="7.75952" cy="7.75952" r="6.75952" transform="matrix(0.866041 -0.499972 0.866041 0.499972 101.877 67.9172)" stroke="#212121" stroke-width="2"/>
<path fill-rule="evenodd" clip-rule="evenodd" d="M105.107 63.5498C105.107 65.1177 106.104 66.6856 108.098 67.8819C112.085 70.2744 118.55 70.2744 122.538 67.8819C124.532 66.6856 125.529 65.1177 125.529 63.5498V60.4865C125.529 58.9186 124.532 57.3507 122.538 56.1544C118.55 53.7618 112.085 53.7618 108.098 56.1544C106.104 57.3507 105.107 58.9186 105.107 60.4865V63.5498Z" fill="#494949"/>
<circle cx="5.43166" cy="5.43166" r="5.43166" transform="matrix(0.866041 -0.499972 0.866041 0.499972 105.909 60.4033)" fill="#212121"/>
<circle cx="7.75952" cy="7.75952" r="6.75952" transform="matrix(0.866041 -0.499972 0.866041 0.499972 101.877 60.28)" stroke="#212121" stroke-width="2"/>
<path fill-rule="evenodd" clip-rule="evenodd" d="M124.715 81.7138C124.715 83.2817 125.712 84.8497 127.706 86.0459C131.694 88.4385 138.159 88.4385 142.146 86.0459C144.14 84.8497 145.137 83.2817 145.137 81.7138V78.6506C145.137 77.0827 144.14 75.5147 142.146 74.3185C138.159 71.9259 131.694 71.9259 127.706 74.3185C125.712 75.5147 124.715 77.0827 124.715 78.6506V81.7138Z" fill="#494949"/>
<circle cx="5.43166" cy="5.43166" r="5.43166" transform="matrix(0.866041 -0.499972 0.866041 0.499972 125.518 78.5668)" fill="#212121"/>
<circle cx="7.75952" cy="7.75952" r="6.75952" transform="matrix(0.866041 -0.499972 0.866041 0.499972 121.486 78.4436)" stroke="#212121" stroke-width="2"/>
<path fill-rule="evenodd" clip-rule="evenodd" d="M103.868 96.9882C103.868 98.5562 104.865 100.124 106.859 101.32C110.846 103.713 117.312 103.713 121.299 101.32C123.293 100.124 124.29 98.5562 124.29 96.9882V93.925C124.29 92.3571 123.293 90.7892 121.299 89.5929C117.312 87.2003 110.846 87.2003 106.859 89.5929C104.865 90.7892 103.868 92.3571 103.868 93.925V96.9882Z" fill="#494949"/>
<circle cx="5.43166" cy="5.43166" r="5.43166" transform="matrix(0.866041 -0.499972 0.866041 0.499972 104.67 93.8418)" fill="#212121"/>
<circle cx="7.75952" cy="7.75952" r="6.75952" transform="matrix(0.866041 -0.499972 0.866041 0.499972 100.639 93.7185)" stroke="#212121" stroke-width="2"/>
<path fill-rule="evenodd" clip-rule="evenodd" d="M160.3 54.6703C160.3 56.2382 161.297 57.8061 163.29 59.0024C167.278 61.3949 173.743 61.3949 177.731 59.0024C179.725 57.8061 180.722 56.2382 180.722 54.6703V51.607C180.722 50.0391 179.725 48.4712 177.731 47.2749C173.743 44.8823 167.278 44.8823 163.29 47.2749C161.297 48.4712 160.3 50.0391 160.3 51.607V54.6703Z" fill="#494949"/>
<circle cx="5.43166" cy="5.43166" r="5.43166" transform="matrix(0.866041 -0.499972 0.866041 0.499972 161.102 51.5238)" fill="#212121"/>
<circle cx="7.75952" cy="7.75952" r="6.75952" transform="matrix(0.866041 -0.499972 0.866041 0.499972 157.07 51.4005)" stroke="#212121" stroke-width="2"/>
<path fill-rule="evenodd" clip-rule="evenodd" d="M251.286 36.8687C251.286 38.4367 252.283 40.0046 254.277 41.2008C258.264 43.5934 264.73 43.5934 268.717 41.2008C270.711 40.0046 271.708 38.4367 271.708 36.8687V33.8055C271.708 32.2376 270.711 30.6697 268.717 29.4734C264.73 27.0808 258.264 27.0808 254.277 29.4734C252.283 30.6697 251.286 32.2376 251.286 33.8055V36.8687Z" fill="#494949"/>
<circle cx="5.43166" cy="5.43166" r="5.43166" transform="matrix(0.866041 -0.499972 0.866041 0.499972 252.088 33.7219)" fill="#212121"/>
<circle cx="7.75952" cy="7.75952" r="6.75952" transform="matrix(0.866041 -0.499972 0.866041 0.499972 248.057 33.5986)" stroke="#212121" stroke-width="2"/>
<path fill-rule="evenodd" clip-rule="evenodd" d="M183.609 97.6358C181.983 99.3987 179.236 100.128 175.753 99.4046C168.788 97.9587 161.519 91.2529 159.517 84.4269C158.516 81.0138 159.022 78.217 160.648 76.4541L163.825 73.0099C165.452 71.247 168.199 70.5181 171.681 71.241C178.646 72.687 185.915 79.3927 187.917 86.2188C188.918 89.6318 188.413 92.4287 186.787 94.1916L183.609 97.6358Z" fill="#C6C6C6"/>
<circle cx="8.30882" cy="8.30882" r="8.30882" transform="matrix(-0.297547 -0.954707 -0.97556 -0.219732 185.972 93.2656)" fill="white"/>
<path d="M172.288 72.991C166.432 71.6719 163.132 75.2487 164.918 80.98C166.704 86.7113 172.9 92.4268 178.757 93.7458C184.613 95.0649 187.913 91.4881 186.126 85.7569C184.34 80.0256 178.145 74.3101 172.288 72.991Z" stroke="white" stroke-width="2"/>
<path d="M170.075 83.8202L172.19 85.1356L175.546 88.0001L174.34 86.7968C173.613 86.0731 172.887 85.3495 172.161 84.6258L172.081 83.0457L172.467 82.9189L173.669 84.5728L174.374 85.3083L175.184 85.9708L174.405 84.899L173.847 84.0069L173.365 83.0111L173.596 82.7685L174.102 82.6491L175.448 82.6018L176.078 82.6812L176.595 82.8975L177.353 83.8836L177.911 84.7757L178.476 85.855L178.441 85.1653L178.216 84.4128L177.342 82.7474L177.866 82.8422L179.724 84.3598C179.914 85.1023 180.105 85.8447 180.295 86.5873C180.402 86.9988 180.508 87.4103 180.614 87.8218L180.32 84.8496L180.734 83.4453L179.756 81.9406L178.845 81.4529L177.746 80.6268L177.404 80.1647L177.211 80.45L177.397 80.9668C177.189 81.0024 176.98 81.0379 176.772 81.0735C176.648 81.306 176.524 81.5385 176.401 81.7712C176.349 81.5112 176.296 81.251 176.244 80.991L176.416 80.5577L177.26 79.9702L176.411 79.4848L175.903 79.3309L175.457 79.3466L175.101 79.6596C174.875 79.6246 174.65 79.5897 174.424 79.5546C173.918 79.5713 173.412 79.5882 172.906 79.6049L172.866 79.6063C172.361 79.6252 171.857 79.6439 171.352 79.6627C171.179 79.7118 171.006 79.7607 170.833 79.8098L170.109 79.5347L169.663 79.5504L169.366 79.7326L169.147 80.2557L170.673 80.7597L171.368 81.1626C171.636 81.415 171.905 81.6676 172.173 81.92C171.77 81.7058 171.367 81.4918 170.964 81.2778C170.721 81.2581 170.478 81.2385 170.235 81.2187L169.781 80.7114L169.247 80.4517L169.485 80.9174L169.445 81.7836L169.169 82.313L170.075 83.8202Z" fill="#252525"/>
<path d="M176.105 88.0649L176.405 88.5448L177.41 88.8677L178.761 89.0325L178.783 89.0352L178.801 89.031L179.892 88.7804L180.458 88.4022L180.158 87.9223L179.806 87.8055L179.186 86.8152L179.416 87.5359L179.211 87.9197L179.335 88.279L178.32 88.2614L178.299 88.2611L178.279 88.2629L177.329 88.3496L177.008 87.9972L176.343 87.644L175.68 86.9385L176.3 87.9289L176.105 88.0649Z" fill="#252525"/>
<path d="M175.74 84.8651L177.083 86.3151L177.084 86.3156L177.083 86.3151L176.594 84.8351L175.828 84.3073L175.74 84.8651Z" fill="#252525"/>
</g>
<mask id="path-92-outside-1_5875_31641" maskUnits="userSpaceOnUse" x="11.6558" y="132.305" width="258" height="30" fill="black">
<rect fill="white" x="11.6558" y="132.305" width="258" height="30"/>
<path d="M27.1635 161.053C17.8215 161.053 12.7768 154.326 12.7768 147.226C12.7768 140.127 17.8215 133.4 27.1635 133.4C36.1319 133.4 39.495 139.192 40.4292 143.116L35.5714 143.676C34.824 141.248 32.7688 137.884 27.1635 137.884C21.5583 137.884 17.6347 141.995 17.6347 147.226C17.6347 152.458 21.3715 156.568 27.1635 156.568C31.8346 156.568 34.6372 153.953 35.7582 152.645L39.8687 155.261C38.7477 156.568 35.3845 161.053 27.1635 161.053ZM48.6604 160.305V134.148H53.5183V141.621H67.3445V134.148H72.2024V160.305H67.3445V146.105H53.5183V160.305H48.6604ZM82.2918 160.305V134.148H104.713V138.632H87.1496V142.929H100.415V147.413H87.1496V155.821H104.713V160.305H82.2918ZM126.196 161.053C116.854 161.053 111.81 154.326 111.81 147.226C111.81 140.127 116.854 133.4 126.196 133.4C135.165 133.4 138.528 139.192 139.462 143.116L134.604 143.676C133.857 141.248 131.802 137.884 126.196 137.884C120.591 137.884 116.668 141.995 116.668 147.226C116.668 152.458 120.404 156.568 126.196 156.568C130.867 156.568 133.67 153.953 134.791 152.645L138.902 155.261C137.781 156.568 134.417 161.053 126.196 161.053ZM147.693 160.343V134.185H152.551V146.292L165.443 134.148H171.983L160.585 144.984L171.609 160.305H166.004L157.222 148.161L152.551 152.645V160.343H147.693ZM180.193 160.305V134.148H202.614V138.632H185.051V142.929H198.317V147.413H185.051V155.821H202.614V160.305H180.193ZM211.964 160.305V134.148H236.253V142.742C236.253 146.218 234.048 149.132 230.237 150.365L236.253 160.305H230.648L225.08 151.15L216.821 151.897V160.305H211.964ZM216.821 147.413L227.098 146.479C229.153 146.292 231.395 145.358 231.395 142.555V138.632H216.821V147.413ZM257.17 161.053C248.949 161.053 245.586 156.568 244.465 155.261L248.576 152.645C249.697 153.953 252.499 156.568 257.17 156.568C260.533 156.568 263.523 155.634 263.523 153.205C263.523 147.974 245.212 151.337 245.212 141.621C245.212 137.511 248.949 133.4 256.049 133.4C262.402 133.4 266.325 136.763 267.82 140.5L262.962 141.434C262.028 139.566 259.599 137.884 255.862 137.884C251.939 137.884 250.07 139.753 250.07 141.621C250.07 146.666 268.381 143.116 268.381 153.205C268.381 158.811 263.523 161.053 257.17 161.053Z"/>
</mask>
<path d="M27.1635 161.053C17.8215 161.053 12.7768 154.326 12.7768 147.226C12.7768 140.127 17.8215 133.4 27.1635 133.4C36.1319 133.4 39.495 139.192 40.4292 143.116L35.5714 143.676C34.824 141.248 32.7688 137.884 27.1635 137.884C21.5583 137.884 17.6347 141.995 17.6347 147.226C17.6347 152.458 21.3715 156.568 27.1635 156.568C31.8346 156.568 34.6372 153.953 35.7582 152.645L39.8687 155.261C38.7477 156.568 35.3845 161.053 27.1635 161.053ZM48.6604 160.305V134.148H53.5183V141.621H67.3445V134.148H72.2024V160.305H67.3445V146.105H53.5183V160.305H48.6604ZM82.2918 160.305V134.148H104.713V138.632H87.1496V142.929H100.415V147.413H87.1496V155.821H104.713V160.305H82.2918ZM126.196 161.053C116.854 161.053 111.81 154.326 111.81 147.226C111.81 140.127 116.854 133.4 126.196 133.4C135.165 133.4 138.528 139.192 139.462 143.116L134.604 143.676C133.857 141.248 131.802 137.884 126.196 137.884C120.591 137.884 116.668 141.995 116.668 147.226C116.668 152.458 120.404 156.568 126.196 156.568C130.867 156.568 133.67 153.953 134.791 152.645L138.902 155.261C137.781 156.568 134.417 161.053 126.196 161.053ZM147.693 160.343V134.185H152.551V146.292L165.443 134.148H171.983L160.585 144.984L171.609 160.305H166.004L157.222 148.161L152.551 152.645V160.343H147.693ZM180.193 160.305V134.148H202.614V138.632H185.051V142.929H198.317V147.413H185.051V155.821H202.614V160.305H180.193ZM211.964 160.305V134.148H236.253V142.742C236.253 146.218 234.048 149.132 230.237 150.365L236.253 160.305H230.648L225.08 151.15L216.821 151.897V160.305H211.964ZM216.821 147.413L227.098 146.479C229.153 146.292 231.395 145.358 231.395 142.555V138.632H216.821V147.413ZM257.17 161.053C248.949 161.053 245.586 156.568 244.465 155.261L248.576 152.645C249.697 153.953 252.499 156.568 257.17 156.568C260.533 156.568 263.523 155.634 263.523 153.205C263.523 147.974 245.212 151.337 245.212 141.621C245.212 137.511 248.949 133.4 256.049 133.4C262.402 133.4 266.325 136.763 267.82 140.5L262.962 141.434C262.028 139.566 259.599 137.884 255.862 137.884C251.939 137.884 250.07 139.753 250.07 141.621C250.07 146.666 268.381 143.116 268.381 153.205C268.381 158.811 263.523 161.053 257.17 161.053Z" fill="url(#paint1_linear_5875_31641)"/>
<path d="M40.4292 143.116L40.4631 143.41L40.7939 143.371L40.7168 143.047L40.4292 143.116ZM35.5714 143.676L35.2889 143.763L35.3611 143.998L35.6053 143.97L35.5714 143.676ZM35.7582 152.645L35.9169 152.395L35.7006 152.258L35.5338 152.452L35.7582 152.645ZM39.8687 155.261L40.0931 155.453L40.3149 155.194L40.0274 155.011L39.8687 155.261ZM27.1635 160.757C22.568 160.757 19.0509 159.105 16.6817 156.599C14.3091 154.09 13.0724 150.708 13.0724 147.226H12.4812C12.4812 150.845 13.7669 154.376 16.2521 157.005C18.7408 159.637 22.4171 161.348 27.1635 161.348V160.757ZM13.0724 147.226C13.0724 143.745 14.3091 140.363 16.6817 137.854C19.0509 135.348 22.568 133.696 27.1635 133.696V133.105C22.4171 133.105 18.7408 134.816 16.2521 137.448C13.7669 140.076 12.4812 143.608 12.4812 147.226H13.0724ZM27.1635 133.696C31.5782 133.696 34.5875 135.119 36.6076 137.003C38.6337 138.892 39.6845 141.264 40.1417 143.184L40.7168 143.047C40.2397 141.044 39.1419 138.558 37.0108 136.571C34.8737 134.578 31.7173 133.105 27.1635 133.105V133.696ZM40.3953 142.822L35.5375 143.383L35.6053 143.97L40.4631 143.41L40.3953 142.822ZM35.8539 143.59C35.4699 142.341 34.7457 140.839 33.3838 139.647C32.0166 138.451 30.0302 137.589 27.1635 137.589V138.18C29.9021 138.18 31.7459 139 32.9945 140.092C34.2484 141.189 34.9255 142.583 35.2889 143.763L35.8539 143.59ZM27.1635 137.589C21.3951 137.589 17.3391 141.832 17.3391 147.226H17.9302C17.9302 142.158 21.7216 138.18 27.1635 138.18V137.589ZM17.3391 147.226C17.3391 152.617 21.2044 156.864 27.1635 156.864V156.273C21.5386 156.273 17.9302 152.299 17.9302 147.226H17.3391ZM27.1635 156.864C31.956 156.864 34.8332 154.178 35.9826 152.837L35.5338 152.452C34.4411 153.727 31.7132 156.273 27.1635 156.273V156.864ZM35.5995 152.894L39.71 155.51L40.0274 155.011L35.9169 152.395L35.5995 152.894ZM39.6443 155.068C39.0793 155.727 37.9852 157.141 36.0194 158.398C34.0572 159.653 31.2162 160.757 27.1635 160.757V161.348C31.3318 161.348 34.2829 160.21 36.3379 158.896C38.3891 157.584 39.5371 156.102 40.0931 155.453L39.6443 155.068ZM48.6604 160.305H48.3649V160.601H48.6604V160.305ZM48.6604 134.148V133.852H48.3649V134.148H48.6604ZM53.5183 134.148H53.8139V133.852H53.5183V134.148ZM53.5183 141.621H53.2227V141.917H53.5183V141.621ZM67.3445 141.621V141.917H67.6401V141.621H67.3445ZM67.3445 134.148V133.852H67.0489V134.148H67.3445ZM72.2024 134.148H72.4979V133.852H72.2024V134.148ZM72.2024 160.305V160.601H72.4979V160.305H72.2024ZM67.3445 160.305H67.0489V160.601H67.3445V160.305ZM67.3445 146.105H67.6401V145.81H67.3445V146.105ZM53.5183 146.105V145.81H53.2227V146.105H53.5183ZM53.5183 160.305V160.601H53.8139V160.305H53.5183ZM48.956 160.305V134.148H48.3649V160.305H48.956ZM48.6604 134.443H53.5183V133.852H48.6604V134.443ZM53.2227 134.148V141.621H53.8139V134.148H53.2227ZM53.5183 141.917H67.3445V141.326H53.5183V141.917ZM67.6401 141.621V134.148H67.0489V141.621H67.6401ZM67.3445 134.443H72.2024V133.852H67.3445V134.443ZM71.9068 134.148V160.305H72.4979V134.148H71.9068ZM72.2024 160.01H67.3445V160.601H72.2024V160.01ZM67.6401 160.305V146.105H67.0489V160.305H67.6401ZM67.3445 145.81H53.5183V146.401H67.3445V145.81ZM53.2227 146.105V160.305H53.8139V146.105H53.2227ZM53.5183 160.01H48.6604V160.601H53.5183V160.01ZM82.2918 160.305H81.9962V160.601H82.2918V160.305ZM82.2918 134.148V133.852H81.9962V134.148H82.2918ZM104.713 134.148H105.008V133.852H104.713V134.148ZM104.713 138.632V138.927H105.008V138.632H104.713ZM87.1496 138.632V138.336H86.854V138.632H87.1496ZM87.1496 142.929H86.854V143.225H87.1496V142.929ZM100.415 142.929H100.711V142.634H100.415V142.929ZM100.415 147.413V147.709H100.711V147.413H100.415ZM87.1496 147.413V147.118H86.854V147.413H87.1496ZM87.1496 155.821H86.854V156.117H87.1496V155.821ZM104.713 155.821H105.008V155.526H104.713V155.821ZM104.713 160.305V160.601H105.008V160.305H104.713ZM82.5873 160.305V134.148H81.9962V160.305H82.5873ZM82.2918 134.443H104.713V133.852H82.2918V134.443ZM104.417 134.148V138.632H105.008V134.148H104.417ZM104.713 138.336H87.1496V138.927H104.713V138.336ZM86.854 138.632V142.929H87.4452V138.632H86.854ZM87.1496 143.225H100.415V142.634H87.1496V143.225ZM100.12 142.929V147.413H100.711V142.929H100.12ZM100.415 147.118H87.1496V147.709H100.415V147.118ZM86.854 147.413V155.821H87.4452V147.413H86.854ZM87.1496 156.117H104.713V155.526H87.1496V156.117ZM104.417 155.821V160.305H105.008V155.821H104.417ZM104.713 160.01H82.2918V160.601H104.713V160.01ZM139.462 143.116L139.496 143.41L139.827 143.371L139.75 143.047L139.462 143.116ZM134.604 143.676L134.322 143.763L134.394 143.998L134.638 143.97L134.604 143.676ZM134.791 152.645L134.95 152.395L134.733 152.258L134.567 152.452L134.791 152.645ZM138.902 155.261L139.126 155.453L139.348 155.194L139.06 155.011L138.902 155.261ZM126.196 160.757C121.601 160.757 118.084 159.105 115.715 156.599C113.342 154.09 112.105 150.708 112.105 147.226H111.514C111.514 150.845 112.8 154.376 115.285 157.005C117.774 159.637 121.45 161.348 126.196 161.348V160.757ZM112.105 147.226C112.105 143.745 113.342 140.363 115.715 137.854C118.084 135.348 121.601 133.696 126.196 133.696V133.105C121.45 133.105 117.774 134.816 115.285 137.448C112.8 140.076 111.514 143.608 111.514 147.226H112.105ZM126.196 133.696C130.611 133.696 133.62 135.119 135.64 137.003C137.667 138.892 138.717 141.264 139.175 143.184L139.75 143.047C139.273 141.044 138.175 138.558 136.044 136.571C133.907 134.578 130.75 133.105 126.196 133.105V133.696ZM139.428 142.822L134.57 143.383L134.638 143.97L139.496 143.41L139.428 142.822ZM134.887 143.59C134.503 142.341 133.779 140.839 132.417 139.647C131.049 138.451 129.063 137.589 126.196 137.589V138.18C128.935 138.18 130.779 139 132.027 140.092C133.281 141.189 133.958 142.583 134.322 143.763L134.887 143.59ZM126.196 137.589C120.428 137.589 116.372 141.832 116.372 147.226H116.963C116.963 142.158 120.754 138.18 126.196 138.18V137.589ZM116.372 147.226C116.372 152.617 120.237 156.864 126.196 156.864V156.273C120.571 156.273 116.963 152.299 116.963 147.226H116.372ZM126.196 156.864C130.989 156.864 133.866 154.178 135.015 152.837L134.567 152.452C133.474 153.727 130.746 156.273 126.196 156.273V156.864ZM134.632 152.894L138.743 155.51L139.06 155.011L134.95 152.395L134.632 152.894ZM138.677 155.068C138.112 155.727 137.018 157.141 135.052 158.398C133.09 159.653 130.249 160.757 126.196 160.757V161.348C130.365 161.348 133.316 160.21 135.371 158.896C137.422 157.584 138.57 156.102 139.126 155.453L138.677 155.068ZM147.693 160.343H147.398V160.638H147.693V160.343ZM147.693 134.185V133.889H147.398V134.185H147.693ZM152.551 134.185H152.847V133.889H152.551V134.185ZM152.551 146.292H152.256V146.977L152.754 146.507L152.551 146.292ZM165.443 134.148V133.852H165.326L165.24 133.932L165.443 134.148ZM171.983 134.148L172.186 134.362L172.722 133.852H171.983V134.148ZM160.585 144.984L160.382 144.77L160.195 144.948L160.345 145.157L160.585 144.984ZM171.609 160.305V160.601H172.186L171.849 160.133L171.609 160.305ZM166.004 160.305L165.764 160.478L165.853 160.601H166.004V160.305ZM157.222 148.161L157.462 147.987L157.263 147.712L157.017 147.947L157.222 148.161ZM152.551 152.645L152.346 152.432L152.256 152.519V152.645H152.551ZM152.551 160.343V160.638H152.847V160.343H152.551ZM147.989 160.343V134.185H147.398V160.343H147.989ZM147.693 134.481H152.551V133.889H147.693V134.481ZM152.256 134.185V146.292H152.847V134.185H152.256ZM152.754 146.507L165.646 134.363L165.24 133.932L152.348 146.077L152.754 146.507ZM165.443 134.443H171.983V133.852H165.443V134.443ZM171.779 133.933L160.382 144.77L160.789 145.199L172.186 134.362L171.779 133.933ZM160.345 145.157L171.369 160.478L171.849 160.133L160.825 144.812L160.345 145.157ZM171.609 160.01H166.004V160.601H171.609V160.01ZM166.243 160.132L157.462 147.987L156.983 148.334L165.764 160.478L166.243 160.132ZM157.017 147.947L152.346 152.432L152.756 152.858L157.427 148.374L157.017 147.947ZM152.256 152.645V160.343H152.847V152.645H152.256ZM152.551 160.047H147.693V160.638H152.551V160.047ZM180.193 160.305H179.898V160.601H180.193V160.305ZM180.193 134.148V133.852H179.898V134.148H180.193ZM202.614 134.148H202.91V133.852H202.614V134.148ZM202.614 138.632V138.927H202.91V138.632H202.614ZM185.051 138.632V138.336H184.756V138.632H185.051ZM185.051 142.929H184.756V143.225H185.051V142.929ZM198.317 142.929H198.612V142.634H198.317V142.929ZM198.317 147.413V147.709H198.612V147.413H198.317ZM185.051 147.413V147.118H184.756V147.413H185.051ZM185.051 155.821H184.756V156.117H185.051V155.821ZM202.614 155.821H202.91V155.526H202.614V155.821ZM202.614 160.305V160.601H202.91V160.305H202.614ZM180.489 160.305V134.148H179.898V160.305H180.489ZM180.193 134.443H202.614V133.852H180.193V134.443ZM202.319 134.148V138.632H202.91V134.148H202.319ZM202.614 138.336H185.051V138.927H202.614V138.336ZM184.756 138.632V142.929H185.347V138.632H184.756ZM185.051 143.225H198.317V142.634H185.051V143.225ZM198.021 142.929V147.413H198.612V142.929H198.021ZM198.317 147.118H185.051V147.709H198.317V147.118ZM184.756 147.413V155.821H185.347V147.413H184.756ZM185.051 156.117H202.614V155.526H185.051V156.117ZM202.319 155.821V160.305H202.91V155.821H202.319ZM202.614 160.01H180.193V160.601H202.614V160.01ZM211.964 160.305H211.668V160.601H211.964V160.305ZM211.964 134.148V133.852H211.668V134.148H211.964ZM236.253 134.148H236.548V133.852H236.253V134.148ZM230.237 150.365L230.146 150.084L229.79 150.199L229.984 150.518L230.237 150.365ZM236.253 160.305V160.601H236.777L236.506 160.152L236.253 160.305ZM230.648 160.305L230.395 160.459L230.481 160.601H230.648V160.305ZM225.08 151.15L225.332 150.997L225.237 150.839L225.053 150.856L225.08 151.15ZM216.821 151.897L216.795 151.603L216.526 151.627V151.897H216.821ZM216.821 160.305V160.601H217.117V160.305H216.821ZM216.821 147.413H216.526V147.737L216.848 147.708L216.821 147.413ZM227.098 146.479L227.124 146.773L227.124 146.773L227.098 146.479ZM231.395 138.632H231.691V138.336H231.395V138.632ZM216.821 138.632V138.336H216.526V138.632H216.821ZM212.259 160.305V134.148H211.668V160.305H212.259ZM211.964 134.443H236.253V133.852H211.964V134.443ZM235.957 134.148V142.742H236.548V134.148H235.957ZM235.957 142.742C235.957 146.073 233.851 148.885 230.146 150.084L230.328 150.647C234.245 149.379 236.548 146.362 236.548 142.742H235.957ZM229.984 150.518L236 160.458L236.506 160.152L230.489 150.212L229.984 150.518ZM236.253 160.01H230.648V160.601H236.253V160.01ZM230.9 160.152L225.332 150.997L224.827 151.304L230.395 160.459L230.9 160.152ZM225.053 150.856L216.795 151.603L216.848 152.192L225.106 151.444L225.053 150.856ZM216.526 151.897V160.305H217.117V151.897H216.526ZM216.821 160.01H211.964V160.601H216.821V160.01ZM216.848 147.708L227.124 146.773L227.071 146.185L216.795 147.119L216.848 147.708ZM227.124 146.773C228.18 146.678 229.315 146.388 230.193 145.735C231.087 145.072 231.691 144.049 231.691 142.555H231.099C231.099 143.864 230.582 144.71 229.841 145.261C229.084 145.823 228.071 146.094 227.071 146.185L227.124 146.773ZM231.691 142.555V138.632H231.099V142.555H231.691ZM231.395 138.336H216.821V138.927H231.395V138.336ZM216.526 138.632V147.413H217.117V138.632H216.526ZM244.465 155.261L244.306 155.011L244.019 155.194L244.241 155.453L244.465 155.261ZM248.576 152.645L248.8 152.452L248.633 152.258L248.417 152.395L248.576 152.645ZM267.82 140.5L267.876 140.79L268.228 140.723L268.095 140.39L267.82 140.5ZM262.962 141.434L262.698 141.567L262.798 141.767L263.018 141.725L262.962 141.434ZM257.17 160.757C253.118 160.757 250.277 159.653 248.314 158.398C246.349 157.141 245.255 155.727 244.69 155.068L244.241 155.453C244.797 156.102 245.945 157.584 247.996 158.896C250.051 160.21 253.002 161.348 257.17 161.348V160.757ZM244.624 155.51L248.734 152.894L248.417 152.395L244.306 155.011L244.624 155.51ZM248.351 152.837C249.501 154.178 252.378 156.864 257.17 156.864V156.273C252.621 156.273 249.893 153.727 248.8 152.452L248.351 152.837ZM257.17 156.864C258.872 156.864 260.508 156.629 261.731 156.066C262.963 155.5 263.818 154.574 263.818 153.205H263.227C263.227 154.265 262.588 155.022 261.484 155.529C260.372 156.041 258.832 156.273 257.17 156.273V156.864ZM263.818 153.205C263.818 152.45 263.482 151.853 262.928 151.379C262.384 150.915 261.627 150.565 260.755 150.274C259.02 149.696 256.693 149.314 254.432 148.806C252.146 148.293 249.904 147.648 248.236 146.548C246.587 145.46 245.508 143.934 245.508 141.621H244.917C244.917 144.167 246.126 145.864 247.911 147.041C249.676 148.206 252.012 148.869 254.303 149.383C256.62 149.903 258.87 150.269 260.568 150.835C261.414 151.117 262.086 151.438 262.544 151.829C262.992 152.211 263.227 152.653 263.227 153.205H263.818ZM245.508 141.621C245.508 137.718 249.064 133.696 256.049 133.696V133.105C248.834 133.105 244.917 137.303 244.917 141.621H245.508ZM256.049 133.696C262.284 133.696 266.097 136.988 267.546 140.61L268.095 140.39C266.554 136.538 262.519 133.105 256.049 133.105V133.696ZM267.764 140.21L262.907 141.144L263.018 141.725L267.876 140.79L267.764 140.21ZM263.227 141.302C262.232 139.313 259.686 137.589 255.862 137.589V138.18C259.512 138.18 261.824 139.819 262.698 141.567L263.227 141.302ZM255.862 137.589C251.867 137.589 249.775 139.511 249.775 141.621H250.366C250.366 139.995 252.01 138.18 255.862 138.18V137.589ZM249.775 141.621C249.775 142.358 250.116 142.934 250.671 143.383C251.215 143.824 251.973 144.152 252.843 144.423C254.575 144.962 256.905 145.315 259.162 145.81C261.447 146.312 263.688 146.962 265.354 148.093C267.001 149.211 268.085 150.794 268.085 153.205H268.676C268.676 150.572 267.472 148.816 265.686 147.604C263.919 146.405 261.581 145.736 259.289 145.233C256.969 144.724 254.721 144.388 253.019 143.858C252.173 143.595 251.5 143.294 251.043 142.924C250.597 142.563 250.366 142.145 250.366 141.621H249.775ZM268.085 153.205C268.085 155.905 266.924 157.773 265.001 158.981C263.059 160.2 260.32 160.757 257.17 160.757V161.348C260.374 161.348 263.24 160.784 265.315 159.481C267.409 158.167 268.676 156.111 268.676 153.205H268.085Z" fill="#D2FF00" mask="url(#path-92-outside-1_5875_31641)"/>
<mask id="path-94-outside-2_5875_31641" maskUnits="userSpaceOnUse" x="7.22217" y="132" width="258" height="30" fill="black">
<rect fill="white" x="7.22217" y="132" width="258" height="30"/>
<path d="M22.7299 160.747C13.3879 160.747 8.34321 154.021 8.34321 146.921C8.34321 139.821 13.3879 133.095 22.7299 133.095C31.6983 133.095 35.0614 138.887 35.9956 142.811L31.1378 143.371C30.3904 140.942 28.3352 137.579 22.7299 137.579C17.1247 137.579 13.2011 141.69 13.2011 146.921C13.2011 152.153 16.9379 156.263 22.7299 156.263C27.401 156.263 30.2036 153.647 31.3246 152.34L35.4351 154.955C34.3141 156.263 30.9509 160.747 22.7299 160.747ZM44.2268 160V133.842H49.0847V141.316H62.9109V133.842H67.7688V160H62.9109V145.8H49.0847V160H44.2268ZM77.8582 160V133.842H100.279V138.326H82.716V142.624H95.9817V147.108H82.716V155.516H100.279V160H77.8582ZM121.763 160.747C112.421 160.747 107.376 154.021 107.376 146.921C107.376 139.821 112.421 133.095 121.763 133.095C130.731 133.095 134.094 138.887 135.029 142.811L130.171 143.371C129.423 140.942 127.368 137.579 121.763 137.579C116.158 137.579 112.234 141.69 112.234 146.921C112.234 152.153 115.971 156.263 121.763 156.263C126.434 156.263 129.236 153.647 130.357 152.34L134.468 154.955C133.347 156.263 129.984 160.747 121.763 160.747ZM143.26 160.037V133.88H148.118V145.987L161.01 133.842H167.549L156.152 144.679L167.175 160H161.57L152.789 147.855L148.118 152.34V160.037H143.26ZM175.76 160V133.842H198.181V138.326H180.618V142.624H193.883V147.108H180.618V155.516H198.181V160H175.76ZM207.53 160V133.842H231.819V142.437C231.819 145.912 229.615 148.827 225.803 150.06L231.819 160H226.214L220.646 150.845L212.388 151.592V160H207.53ZM212.388 147.108L222.664 146.174C224.719 145.987 226.961 145.053 226.961 142.25V138.326H212.388V147.108ZM252.737 160.747C244.516 160.747 241.153 156.263 240.032 154.955L244.142 152.34C245.263 153.647 248.066 156.263 252.737 156.263C256.1 156.263 259.089 155.329 259.089 152.9C259.089 147.669 240.779 151.032 240.779 141.316C240.779 137.205 244.516 133.095 251.616 133.095C257.968 133.095 261.892 136.458 263.387 140.195L258.529 141.129C257.595 139.261 255.166 137.579 251.429 137.579C247.505 137.579 245.637 139.448 245.637 141.316C245.637 146.361 263.947 142.811 263.947 152.9C263.947 158.505 259.089 160.747 252.737 160.747Z"/>
</mask>
<path d="M22.7299 160.747C13.3879 160.747 8.34321 154.021 8.34321 146.921C8.34321 139.821 13.3879 133.095 22.7299 133.095C31.6983 133.095 35.0614 138.887 35.9956 142.811L31.1378 143.371C30.3904 140.942 28.3352 137.579 22.7299 137.579C17.1247 137.579 13.2011 141.69 13.2011 146.921C13.2011 152.153 16.9379 156.263 22.7299 156.263C27.401 156.263 30.2036 153.647 31.3246 152.34L35.4351 154.955C34.3141 156.263 30.9509 160.747 22.7299 160.747ZM44.2268 160V133.842H49.0847V141.316H62.9109V133.842H67.7688V160H62.9109V145.8H49.0847V160H44.2268ZM77.8582 160V133.842H100.279V138.326H82.716V142.624H95.9817V147.108H82.716V155.516H100.279V160H77.8582ZM121.763 160.747C112.421 160.747 107.376 154.021 107.376 146.921C107.376 139.821 112.421 133.095 121.763 133.095C130.731 133.095 134.094 138.887 135.029 142.811L130.171 143.371C129.423 140.942 127.368 137.579 121.763 137.579C116.158 137.579 112.234 141.69 112.234 146.921C112.234 152.153 115.971 156.263 121.763 156.263C126.434 156.263 129.236 153.647 130.357 152.34L134.468 154.955C133.347 156.263 129.984 160.747 121.763 160.747ZM143.26 160.037V133.88H148.118V145.987L161.01 133.842H167.549L156.152 144.679L167.175 160H161.57L152.789 147.855L148.118 152.34V160.037H143.26ZM175.76 160V133.842H198.181V138.326H180.618V142.624H193.883V147.108H180.618V155.516H198.181V160H175.76ZM207.53 160V133.842H231.819V142.437C231.819 145.912 229.615 148.827 225.803 150.06L231.819 160H226.214L220.646 150.845L212.388 151.592V160H207.53ZM212.388 147.108L222.664 146.174C224.719 145.987 226.961 145.053 226.961 142.25V138.326H212.388V147.108ZM252.737 160.747C244.516 160.747 241.153 156.263 240.032 154.955L244.142 152.34C245.263 153.647 248.066 156.263 252.737 156.263C256.1 156.263 259.089 155.329 259.089 152.9C259.089 147.669 240.779 151.032 240.779 141.316C240.779 137.205 244.516 133.095 251.616 133.095C257.968 133.095 261.892 136.458 263.387 140.195L258.529 141.129C257.595 139.261 255.166 137.579 251.429 137.579C247.505 137.579 245.637 139.448 245.637 141.316C245.637 146.361 263.947 142.811 263.947 152.9C263.947 158.505 259.089 160.747 252.737 160.747Z" fill="#D2FF00"/>
<path d="M35.9956 142.811L36.0295 143.104L36.3603 143.066L36.2832 142.742L35.9956 142.811ZM31.1378 143.371L30.8553 143.458L30.9275 143.693L31.1717 143.665L31.1378 143.371ZM31.3246 152.34L31.4833 152.09L31.267 151.953L31.1002 152.147L31.3246 152.34ZM35.4351 154.955L35.6595 155.148L35.8813 154.889L35.5938 154.706L35.4351 154.955ZM22.7299 160.452C18.1344 160.452 14.6173 158.8 12.2481 156.294C9.87551 153.784 8.63878 150.402 8.63878 146.921H8.04764C8.04764 150.54 9.33327 154.071 11.8185 156.7C14.3072 159.332 17.9835 161.043 22.7299 161.043V160.452ZM8.63878 146.921C8.63878 143.44 9.87551 140.058 12.2481 137.549C14.6173 135.043 18.1344 133.391 22.7299 133.391V132.799C17.9835 132.799 14.3072 134.51 11.8185 137.143C9.33327 139.771 8.04764 143.302 8.04764 146.921H8.63878ZM22.7299 133.391C27.1446 133.391 30.1539 134.814 32.174 136.698C34.2001 138.587 35.251 140.959 35.7081 142.879L36.2832 142.742C35.8061 140.739 34.7083 138.253 32.5772 136.265C30.4401 134.272 27.2837 132.799 22.7299 132.799V133.391ZM35.9618 142.517L31.1039 143.078L31.1717 143.665L36.0295 143.104L35.9618 142.517ZM31.4203 143.284C31.0363 142.036 30.3121 140.533 28.9502 139.342C27.583 138.146 25.5966 137.284 22.7299 137.284V137.875C25.4685 137.875 27.3123 138.694 28.5609 139.787C29.8148 140.884 30.4919 142.277 30.8553 143.458L31.4203 143.284ZM22.7299 137.284C16.9615 137.284 12.9055 141.526 12.9055 146.921H13.4966C13.4966 141.853 17.288 137.875 22.7299 137.875V137.284ZM12.9055 146.921C12.9055 152.312 16.7708 156.559 22.7299 156.559V155.968C17.105 155.968 13.4966 151.993 13.4966 146.921H12.9055ZM22.7299 156.559C27.5224 156.559 30.3996 153.873 31.549 152.532L31.1002 152.147C30.0075 153.422 27.2796 155.968 22.7299 155.968V156.559ZM31.1659 152.589L35.2764 155.205L35.5938 154.706L31.4833 152.09L31.1659 152.589ZM35.2107 154.763C34.6457 155.422 33.5516 156.836 31.5858 158.093C29.6236 159.348 26.7826 160.452 22.7299 160.452V161.043C26.8983 161.043 29.8493 159.905 31.9043 158.591C33.9555 157.279 35.1035 155.796 35.6595 155.148L35.2107 154.763ZM44.2268 160H43.9313V160.296H44.2268V160ZM44.2268 133.842V133.547H43.9313V133.842H44.2268ZM49.0847 133.842H49.3803V133.547H49.0847V133.842ZM49.0847 141.316H48.7891V141.612H49.0847V141.316ZM62.9109 141.316V141.612H63.2065V141.316H62.9109ZM62.9109 133.842V133.547H62.6153V133.842H62.9109ZM67.7688 133.842H68.0643V133.547H67.7688V133.842ZM67.7688 160V160.296H68.0643V160H67.7688ZM62.9109 160H62.6153V160.296H62.9109V160ZM62.9109 145.8H63.2065V145.505H62.9109V145.8ZM49.0847 145.8V145.505H48.7891V145.8H49.0847ZM49.0847 160V160.296H49.3803V160H49.0847ZM44.5224 160V133.842H43.9313V160H44.5224ZM44.2268 134.138H49.0847V133.547H44.2268V134.138ZM48.7891 133.842V141.316H49.3803V133.842H48.7891ZM49.0847 141.612H62.9109V141.02H49.0847V141.612ZM63.2065 141.316V133.842H62.6153V141.316H63.2065ZM62.9109 134.138H67.7688V133.547H62.9109V134.138ZM67.4732 133.842V160H68.0643V133.842H67.4732ZM67.7688 159.704H62.9109V160.296H67.7688V159.704ZM63.2065 160V145.8H62.6153V160H63.2065ZM62.9109 145.505H49.0847V146.096H62.9109V145.505ZM48.7891 145.8V160H49.3803V145.8H48.7891ZM49.0847 159.704H44.2268V160.296H49.0847V159.704ZM77.8582 160H77.5626V160.296H77.8582V160ZM77.8582 133.842V133.547H77.5626V133.842H77.8582ZM100.279 133.842H100.575V133.547H100.279V133.842ZM100.279 138.326V138.622H100.575V138.326H100.279ZM82.716 138.326V138.031H82.4205V138.326H82.716ZM82.716 142.624H82.4205V142.919H82.716V142.624ZM95.9817 142.624H96.2773V142.328H95.9817V142.624ZM95.9817 147.108V147.404H96.2773V147.108H95.9817ZM82.716 147.108V146.812H82.4205V147.108H82.716ZM82.716 155.516H82.4205V155.811H82.716V155.516ZM100.279 155.516H100.575V155.22H100.279V155.516ZM100.279 160V160.296H100.575V160H100.279ZM78.1537 160V133.842H77.5626V160H78.1537ZM77.8582 134.138H100.279V133.547H77.8582V134.138ZM99.9835 133.842V138.326H100.575V133.842H99.9835ZM100.279 138.031H82.716V138.622H100.279V138.031ZM82.4205 138.326V142.624H83.0116V138.326H82.4205ZM82.716 142.919H95.9817V142.328H82.716V142.919ZM95.6861 142.624V147.108H96.2773V142.624H95.6861ZM95.9817 146.812H82.716V147.404H95.9817V146.812ZM82.4205 147.108V155.516H83.0116V147.108H82.4205ZM82.716 155.811H100.279V155.22H82.716V155.811ZM99.9835 155.516V160H100.575V155.516H99.9835ZM100.279 159.704H77.8582V160.296H100.279V159.704ZM135.029 142.811L135.062 143.104L135.393 143.066L135.316 142.742L135.029 142.811ZM130.171 143.371L129.888 143.458L129.96 143.693L130.205 143.665L130.171 143.371ZM130.357 152.34L130.516 152.09L130.3 151.953L130.133 152.147L130.357 152.34ZM134.468 154.955L134.692 155.148L134.914 154.889L134.627 154.706L134.468 154.955ZM121.763 160.452C117.167 160.452 113.65 158.8 111.281 156.294C108.908 153.784 107.672 150.402 107.672 146.921H107.081C107.081 150.54 108.366 154.071 110.851 156.7C113.34 159.332 117.016 161.043 121.763 161.043V160.452ZM107.672 146.921C107.672 143.44 108.908 140.058 111.281 137.549C113.65 135.043 117.167 133.391 121.763 133.391V132.799C117.016 132.799 113.34 134.51 110.851 137.143C108.366 139.771 107.081 143.302 107.081 146.921H107.672ZM121.763 133.391C126.177 133.391 129.187 134.814 131.207 136.698C133.233 138.587 134.284 140.959 134.741 142.879L135.316 142.742C134.839 140.739 133.741 138.253 131.61 136.265C129.473 134.272 126.317 132.799 121.763 132.799V133.391ZM134.995 142.517L130.137 143.078L130.205 143.665L135.062 143.104L134.995 142.517ZM130.453 143.284C130.069 142.036 129.345 140.533 127.983 139.342C126.616 138.146 124.629 137.284 121.763 137.284V137.875C124.501 137.875 126.345 138.694 127.594 139.787C128.848 140.884 129.525 142.277 129.888 143.458L130.453 143.284ZM121.763 137.284C115.994 137.284 111.938 141.526 111.938 146.921H112.53C112.53 141.853 116.321 137.875 121.763 137.875V137.284ZM111.938 146.921C111.938 152.312 115.804 156.559 121.763 156.559V155.968C116.138 155.968 112.53 151.993 112.53 146.921H111.938ZM121.763 156.559C126.555 156.559 129.433 153.873 130.582 152.532L130.133 152.147C129.04 153.422 126.312 155.968 121.763 155.968V156.559ZM130.199 152.589L134.309 155.205L134.627 154.706L130.516 152.09L130.199 152.589ZM134.244 154.763C133.679 155.422 132.584 156.836 130.619 158.093C128.656 159.348 125.815 160.452 121.763 160.452V161.043C125.931 161.043 128.882 159.905 130.937 158.591C132.988 157.279 134.136 155.796 134.692 155.148L134.244 154.763ZM143.26 160.037H142.964V160.333H143.26V160.037ZM143.26 133.88V133.584H142.964V133.88H143.26ZM148.118 133.88H148.413V133.584H148.118V133.88ZM148.118 145.987H147.822V146.671L148.32 146.202L148.118 145.987ZM161.01 133.842V133.547H160.892L160.807 133.627L161.01 133.842ZM167.549 133.842L167.753 134.057L168.289 133.547H167.549V133.842ZM156.152 144.679L155.948 144.465L155.761 144.642L155.912 144.852L156.152 144.679ZM167.175 160V160.296H167.752L167.415 159.827L167.175 160ZM161.57 160L161.331 160.173L161.419 160.296H161.57V160ZM152.789 147.855L153.028 147.682L152.829 147.407L152.584 147.642L152.789 147.855ZM148.118 152.34L147.913 152.126L147.822 152.214V152.34H148.118ZM148.118 160.037V160.333H148.413V160.037H148.118ZM143.555 160.037V133.88H142.964V160.037H143.555ZM143.26 134.175H148.118V133.584H143.26V134.175ZM147.822 133.88V145.987H148.413V133.88H147.822ZM148.32 146.202L161.212 134.057L160.807 133.627L147.915 145.772L148.32 146.202ZM161.01 134.138H167.549V133.547H161.01V134.138ZM167.345 133.628L155.948 144.465L156.355 144.893L167.753 134.057L167.345 133.628ZM155.912 144.852L166.935 160.173L167.415 159.827L156.392 144.506L155.912 144.852ZM167.175 159.704H161.57V160.296H167.175V159.704ZM161.81 159.827L153.028 147.682L152.549 148.029L161.331 160.173L161.81 159.827ZM152.584 147.642L147.913 152.126L148.322 152.553L152.993 148.069L152.584 147.642ZM147.822 152.34V160.037H148.413V152.34H147.822ZM148.118 159.742H143.26V160.333H148.118V159.742ZM175.76 160H175.464V160.296H175.76V160ZM175.76 133.842V133.547H175.464V133.842H175.76ZM198.181 133.842H198.476V133.547H198.181V133.842ZM198.181 138.326V138.622H198.476V138.326H198.181ZM180.618 138.326V138.031H180.322V138.326H180.618ZM180.618 142.624H180.322V142.919H180.618V142.624ZM193.883 142.624H194.179V142.328H193.883V142.624ZM193.883 147.108V147.404H194.179V147.108H193.883ZM180.618 147.108V146.812H180.322V147.108H180.618ZM180.618 155.516H180.322V155.811H180.618V155.516ZM198.181 155.516H198.476V155.22H198.181V155.516ZM198.181 160V160.296H198.476V160H198.181ZM176.055 160V133.842H175.464V160H176.055ZM175.76 134.138H198.181V133.547H175.76V134.138ZM197.885 133.842V138.326H198.476V133.842H197.885ZM198.181 138.031H180.618V138.622H198.181V138.031ZM180.322 138.326V142.624H180.913V138.326H180.322ZM180.618 142.919H193.883V142.328H180.618V142.919ZM193.588 142.624V147.108H194.179V142.624H193.588ZM193.883 146.812H180.618V147.404H193.883V146.812ZM180.322 147.108V155.516H180.913V147.108H180.322ZM180.618 155.811H198.181V155.22H180.618V155.811ZM197.885 155.516V160H198.476V155.516H197.885ZM198.181 159.704H175.76V160.296H198.181V159.704ZM207.53 160H207.234V160.296H207.53V160ZM207.53 133.842V133.547H207.234V133.842H207.53ZM231.819 133.842H232.115V133.547H231.819V133.842ZM225.803 150.06L225.712 149.779L225.357 149.894L225.55 150.213L225.803 150.06ZM231.819 160V160.296H232.344L232.072 159.847L231.819 160ZM226.214 160L225.962 160.154L226.048 160.296H226.214V160ZM220.646 150.845L220.899 150.691L220.803 150.534L220.62 150.55L220.646 150.845ZM212.388 151.592L212.361 151.298L212.092 151.322V151.592H212.388ZM212.388 160V160.296H212.683V160H212.388ZM212.388 147.108H212.092V147.432L212.415 147.402L212.388 147.108ZM222.664 146.174L222.691 146.468L222.691 146.468L222.664 146.174ZM226.961 138.326H227.257V138.031H226.961V138.326ZM212.388 138.326V138.031H212.092V138.326H212.388ZM207.826 160V133.842H207.234V160H207.826ZM207.53 134.138H231.819V133.547H207.53V134.138ZM231.524 133.842V142.437H232.115V133.842H231.524ZM231.524 142.437C231.524 145.768 229.418 148.58 225.712 149.779L225.894 150.341C229.812 149.074 232.115 146.056 232.115 142.437H231.524ZM225.55 150.213L231.566 160.153L232.072 159.847L226.056 149.907L225.55 150.213ZM231.819 159.704H226.214V160.296H231.819V159.704ZM226.467 159.846L220.899 150.691L220.394 150.998L225.962 160.154L226.467 159.846ZM220.62 150.55L212.361 151.298L212.414 151.887L220.673 151.139L220.62 150.55ZM212.092 151.592V160H212.683V151.592H212.092ZM212.388 159.704H207.53V160.296H212.388V159.704ZM212.415 147.402L222.691 146.468L222.637 145.879L212.361 146.814L212.415 147.402ZM222.691 146.468C223.746 146.372 224.881 146.083 225.76 145.43C226.653 144.767 227.257 143.744 227.257 142.25H226.666C226.666 143.559 226.149 144.405 225.407 144.956C224.651 145.518 223.637 145.789 222.637 145.879L222.691 146.468ZM227.257 142.25V138.326H226.666V142.25H227.257ZM226.961 138.031H212.388V138.622H226.961V138.031ZM212.092 138.326V147.108H212.683V138.326H212.092ZM240.032 154.955L239.873 154.706L239.585 154.889L239.807 155.148L240.032 154.955ZM244.142 152.34L244.366 152.147L244.2 151.953L243.983 152.09L244.142 152.34ZM263.387 140.195L263.442 140.485L263.794 140.418L263.661 140.085L263.387 140.195ZM258.529 141.129L258.264 141.261L258.365 141.462L258.585 141.419L258.529 141.129ZM252.737 160.452C248.684 160.452 245.843 159.348 243.881 158.093C241.915 156.836 240.821 155.422 240.256 154.763L239.807 155.148C240.363 155.796 241.511 157.279 243.562 158.591C245.617 159.905 248.568 161.043 252.737 161.043V160.452ZM240.19 155.205L244.301 152.589L243.983 152.09L239.873 154.706L240.19 155.205ZM243.918 152.532C245.067 153.873 247.944 156.559 252.737 156.559V155.968C248.187 155.968 245.459 153.422 244.366 152.147L243.918 152.532ZM252.737 156.559C254.438 156.559 256.075 156.323 257.298 155.761C258.529 155.194 259.385 154.269 259.385 152.9H258.794C258.794 153.96 258.154 154.716 257.051 155.224C255.938 155.736 254.398 155.968 252.737 155.968V156.559ZM259.385 152.9C259.385 152.144 259.048 151.547 258.494 151.074C257.951 150.61 257.193 150.259 256.322 149.969C254.587 149.39 252.26 149.009 249.999 148.501C247.712 147.988 245.47 147.343 243.803 146.242C242.154 145.154 241.074 143.628 241.074 141.316H240.483C240.483 143.861 241.693 145.558 243.477 146.736C245.243 147.901 247.578 148.564 249.869 149.078C252.186 149.598 254.437 149.964 256.135 150.53C256.98 150.811 257.653 151.133 258.111 151.524C258.558 151.906 258.794 152.348 258.794 152.9H259.385ZM241.074 141.316C241.074 137.413 244.631 133.391 251.616 133.391V132.799C244.401 132.799 240.483 136.998 240.483 141.316H241.074ZM251.616 133.391C257.851 133.391 261.664 136.683 263.112 140.305L263.661 140.085C262.12 136.233 258.086 132.799 251.616 132.799V133.391ZM263.331 139.905L258.473 140.839L258.585 141.419L263.442 140.485L263.331 139.905ZM258.793 140.997C257.799 139.008 255.253 137.284 251.429 137.284V137.875C255.078 137.875 257.39 139.513 258.264 141.261L258.793 140.997ZM251.429 137.284C247.434 137.284 245.341 139.206 245.341 141.316H245.932C245.932 139.69 247.576 137.875 251.429 137.875V137.284ZM245.341 141.316C245.341 142.053 245.682 142.628 246.237 143.078C246.782 143.519 247.54 143.847 248.41 144.118C250.141 144.656 252.471 145.01 254.729 145.505C257.014 146.006 259.254 146.657 260.92 147.788C262.567 148.905 263.652 150.489 263.652 152.9H264.243C264.243 150.266 263.038 148.51 261.252 147.298C259.485 146.099 257.148 145.43 254.855 144.928C252.535 144.418 250.287 144.083 248.586 143.553C247.739 143.29 247.066 142.989 246.61 142.619C246.163 142.257 245.932 141.84 245.932 141.316H245.341ZM263.652 152.9C263.652 155.6 262.49 157.468 260.567 158.675C258.625 159.895 255.886 160.452 252.737 160.452V161.043C255.94 161.043 258.806 160.479 260.881 159.176C262.975 157.861 264.243 155.805 264.243 152.9H263.652Z" fill="#D2FF00" mask="url(#path-94-outside-2_5875_31641)"/>
<path fill-rule="evenodd" clip-rule="evenodd" d="M218.176 182.459C219.656 184.063 222.157 184.726 225.326 184.068C231.665 182.752 238.281 176.649 240.103 170.437C241.014 167.33 240.554 164.785 239.074 163.18L236.182 160.046C234.702 158.441 232.202 157.778 229.032 158.436C222.693 159.752 216.077 165.855 214.255 172.067C213.344 175.174 213.804 177.719 215.284 179.324L218.176 182.459Z" fill="#C6C6C6"/>
<circle cx="7.56217" cy="7.56217" r="7.56217" transform="matrix(0.297547 -0.954707 0.97556 -0.219732 216.026 178.481)" fill="white"/>
<path d="M228.454 160.114C233.735 158.924 236.711 162.15 235.1 167.319C233.489 172.488 227.902 177.643 222.62 178.832C217.338 180.022 214.362 176.796 215.973 171.627C217.584 166.458 223.172 161.304 228.454 160.114Z" stroke="white" stroke-width="2"/>
<path d="M230.494 169.884L228.569 171.082L225.515 173.689L226.613 172.594C227.274 171.935 227.935 171.276 228.596 170.618L228.668 169.18L228.318 169.064L227.224 170.569L226.581 171.239L225.844 171.842L226.553 170.866L227.061 170.054L227.5 169.148L227.29 168.927L226.829 168.819L225.604 168.775L225.031 168.848L224.56 169.045L223.871 169.942L223.363 170.754L222.848 171.736L222.88 171.109L223.085 170.424L223.88 168.908L223.403 168.994L221.713 170.375C221.539 171.051 221.366 171.727 221.192 172.403C221.096 172.777 220.999 173.152 220.903 173.526L221.17 170.821L220.793 169.543L221.683 168.174L222.513 167.73L223.513 166.978L223.824 166.557L224 166.817L223.83 167.287C224.02 167.32 224.21 167.352 224.399 167.385C224.512 167.596 224.624 167.808 224.737 168.02C224.784 167.783 224.832 167.546 224.879 167.309L224.723 166.915L223.955 166.38L224.728 165.939L225.19 165.799L225.596 165.813L225.92 166.098C226.125 166.066 226.331 166.034 226.536 166.002C226.996 166.017 227.457 166.033 227.917 166.048L227.954 166.049C228.413 166.066 228.873 166.083 229.332 166.101C229.489 166.145 229.647 166.19 229.804 166.234L230.464 165.984L230.869 165.998L231.14 166.164L231.339 166.64L229.95 167.099L229.317 167.466C229.073 167.695 228.829 167.925 228.585 168.155C228.952 167.96 229.318 167.765 229.685 167.57C229.906 167.553 230.127 167.535 230.349 167.517L230.762 167.055L231.248 166.819L231.031 167.242L231.068 168.031L231.319 168.513L230.494 169.884Z" fill="#252525"/>
<path d="M225.006 173.747L224.733 174.184L223.818 174.478L222.589 174.628L222.569 174.631L222.552 174.627L221.56 174.399L221.044 174.054L221.317 173.618L221.638 173.511L222.202 172.61L221.993 173.266L222.179 173.615L222.066 173.942L222.99 173.926L223.009 173.926L223.027 173.928L223.892 174.007L224.184 173.686L224.789 173.364L225.393 172.722L224.829 173.624L225.006 173.747Z" fill="#252525"/>
<path d="M225.339 170.835L224.116 172.155L224.116 172.155L224.116 172.155L224.561 170.808L225.259 170.328L225.339 170.835Z" fill="#252525"/>
<path fill-rule="evenodd" clip-rule="evenodd" d="M33.5594 134.562C32.1532 136.075 29.7854 136.693 26.7891 136.059C20.7966 134.791 14.5597 128.993 12.8587 123.108C12.0082 120.166 12.4527 117.759 13.8589 116.247L16.6062 113.292C18.0124 111.779 20.3802 111.161 23.3765 111.795C29.369 113.063 35.6059 118.861 37.3069 124.746C38.1574 127.688 37.7129 130.095 36.3067 131.607L33.5594 134.562Z" fill="#494949"/>
<circle cx="7.15446" cy="7.15446" r="7.15446" transform="matrix(-0.293853 -0.955851 -0.974703 -0.223504 35.606 130.807)" fill="#212121"/>
<path d="M23.9315 113.437C18.9679 112.298 16.1571 115.322 17.6536 120.189C19.15 125.057 24.3869 129.926 29.3505 131.064C34.3141 132.202 37.1248 129.179 35.6284 124.311C34.132 119.443 28.8951 114.575 23.9315 113.437Z" stroke="#212121" stroke-width="2"/>
<path d="M21.949 122.62L23.7657 123.76L26.6455 126.238L25.6111 125.197C24.9882 124.572 24.3651 123.946 23.7421 123.321L23.679 121.96L24.0112 121.852L25.0408 123.28L25.6459 123.916L26.3411 124.489L25.6736 123.564L25.1963 122.794L24.7849 121.934L24.9841 121.726L25.42 121.625L26.5792 121.589L27.1213 121.659L27.5662 121.847L28.2152 122.699L28.6926 123.469L29.1762 124.4L29.148 123.806L28.9568 123.158L28.2103 121.721L28.661 121.804L30.2553 123.117C30.417 123.757 30.5785 124.397 30.7402 125.037C30.8302 125.392 30.9203 125.746 31.0102 126.101L30.7668 123.541L31.128 122.333L30.2914 121.034L29.5082 120.611L28.5647 119.896L28.2718 119.497L28.1044 119.742L28.2634 120.188C28.0837 120.218 27.904 120.247 27.7244 120.277C27.6172 120.477 27.5099 120.677 27.4028 120.877C27.3587 120.653 27.3146 120.429 27.2705 120.205L27.4202 119.832L28.1488 119.329L27.4187 118.908L26.9822 118.774L26.5984 118.786L26.2902 119.054C26.0963 119.024 25.9021 118.993 25.7082 118.962C25.2724 118.974 24.8368 118.987 24.401 119L24.3661 119.001C23.9315 119.016 23.4969 119.03 23.0625 119.045C22.9133 119.086 22.7643 119.128 22.6151 119.17L21.9922 118.93L21.6084 118.942L21.3517 119.098L21.1615 119.548L22.474 119.987L23.0713 120.336C23.3013 120.554 23.5315 120.773 23.7616 120.991C23.4154 120.805 23.0693 120.62 22.723 120.434C22.5138 120.416 22.3046 120.399 22.0953 120.381L21.7064 119.942L21.2473 119.717L21.451 120.119L21.4129 120.864L21.1739 121.319L21.949 122.62Z" fill="#F9F8F4"/>
<path d="M27.127 126.296L27.3838 126.71L28.248 126.991L29.4104 127.138L29.4297 127.14L29.4453 127.137L30.3854 126.924L30.8744 126.601L30.6176 126.186L30.3143 126.085L29.7844 125.23L29.9794 125.851L29.8023 126.181L29.9078 126.491L29.0335 126.472L29.0154 126.472L28.9986 126.473L28.18 126.545L27.9047 126.24L27.3334 125.934L26.7651 125.324L27.295 126.179L27.127 126.296Z" fill="#F9F8F4"/>
<path d="M26.8233 123.539L27.9751 124.792L27.9754 124.792L27.9753 124.792L27.559 123.516L26.9007 123.059L26.8233 123.539Z" fill="#F9F8F4"/>
<defs>
<linearGradient id="paint0_linear_5875_31641" x1="215.452" y1="41.3634" x2="215.453" y2="-166.388" gradientUnits="userSpaceOnUse">
<stop offset="0.035" stop-color="#D2FF00"/>
<stop offset="0.555" stop-color="#9AFF01" stop-opacity="0"/>
</linearGradient>
<linearGradient id="paint1_linear_5875_31641" x1="162.491" y1="135.536" x2="162.909" y2="160.582" gradientUnits="userSpaceOnUse">
<stop stop-color="#D2FF00"/>
<stop offset="1" stop-color="#252525"/>
</linearGradient>
</defs>
</svg>
