<svg width="1500" height="300" viewBox="0 0 1500 300" fill="none" xmlns="http://www.w3.org/2000/svg">
<rect width="1500" height="300" rx="20" fill="#212121"/>
<mask id="mask0_3437_9137" style="mask-type:alpha" maskUnits="userSpaceOnUse" x="0" y="0" width="1500" height="300">
<rect x="1" y="1" width="1498" height="298" rx="19" fill="#212121" stroke="#D2FF00" stroke-width="2"/>
</mask>
<g mask="url(#mask0_3437_9137)">
<g opacity="0.3">
<line x1="1.5" y1="-128" x2="1.49998" y2="428.504" stroke="#D2FF00"/>
<line x1="95.1875" y1="-128" x2="95.1875" y2="428.504" stroke="#D2FF00"/>
<line x1="188.875" y1="-128" x2="188.875" y2="428.504" stroke="#D2FF00"/>
<line x1="282.562" y1="-128" x2="282.562" y2="428.504" stroke="#D2FF00"/>
<line x1="376.25" y1="-128" x2="376.25" y2="428.504" stroke="#D2FF00"/>
<line x1="469.938" y1="-128" x2="469.937" y2="428.504" stroke="#D2FF00"/>
<line x1="563.625" y1="-128" x2="563.625" y2="428.504" stroke="#D2FF00"/>
<line x1="657.312" y1="-128" x2="657.312" y2="428.504" stroke="#D2FF00"/>
<line x1="751" y1="-128" x2="751" y2="428.504" stroke="#D2FF00"/>
<line x1="844.688" y1="-128" x2="844.688" y2="428.504" stroke="#D2FF00"/>
<line x1="938.375" y1="-128" x2="938.375" y2="428.504" stroke="#D2FF00"/>
<line x1="1032.06" y1="-128" x2="1032.06" y2="428.504" stroke="#D2FF00"/>
<line x1="1125.75" y1="-128" x2="1125.75" y2="428.504" stroke="#D2FF00"/>
<line x1="1219.44" y1="-128" x2="1219.44" y2="428.504" stroke="#D2FF00"/>
<line x1="1313.12" y1="-128" x2="1313.12" y2="428.504" stroke="#D2FF00"/>
<line x1="1406.81" y1="-128" x2="1406.81" y2="428.504" stroke="#D2FF00"/>
<line x1="1" y1="57.0013" x2="1500" y2="57.0013" stroke="#D2FF00"/>
<line x1="1" y1="149.752" x2="1500" y2="149.752" stroke="#D2FF00"/>
<line x1="1" y1="242.503" x2="1500" y2="242.503" stroke="#D2FF00"/>
</g>
<path d="M6 295.422C28.8333 234.255 108.2 96.6218 243 35.4218C411.5 -41.0782 574 115.922 696.5 200.422C855 277.5 976.4 189.7 1088 50.5C1126 -23 1114.6 -6.1 1161 -122.5" stroke="#D2FF00" stroke-dasharray="2 2"/>
<path d="M112.833 180.163C131.838 172.228 140.88 150.413 133.03 131.439C125.179 112.464 103.409 103.515 84.4037 111.45C65.3987 119.385 56.3563 141.2 64.2068 160.174C72.0572 179.149 93.8279 188.098 112.833 180.163Z" fill="#D2FF00"/>
<path d="M113.02 180.61C93.7986 188.635 71.7025 179.552 63.7622 160.36C55.8219 141.169 65.0001 119.029 84.2211 111.004C103.442 102.978 125.538 112.061 133.478 131.252C141.418 150.442 132.241 172.584 113.02 180.61ZM84.5899 111.895C65.8619 119.714 56.9188 141.289 64.6549 159.988C72.391 178.686 93.9223 187.537 112.65 179.717C131.378 171.898 140.321 150.323 132.585 131.624C124.849 112.926 103.319 104.075 84.5899 111.895Z" fill="#212121"/>
<path d="M124.486 173.321C124.317 173.391 124.113 173.362 123.971 173.227C123.777 173.045 123.767 172.736 123.949 172.543C128.302 167.872 128.611 159.934 124.795 150.762C117.983 134.387 100.116 119.436 84.9645 117.434C78.3383 116.556 72.9923 118.333 70.2969 122.306C70.1466 122.525 69.849 122.584 69.6264 122.431C69.4076 122.28 69.3492 121.978 69.4984 121.757C72.4053 117.472 78.0859 115.545 85.0875 116.471C100.542 118.515 118.755 133.731 125.686 150.39C129.655 159.93 129.278 168.244 124.654 173.206C124.607 173.257 124.549 173.297 124.488 173.322L124.486 173.321Z" fill="#212121"/>
<path d="M108.726 182C108.243 182.201 107.738 182.377 107.214 182.525C106.959 182.596 106.692 182.446 106.62 182.188C106.547 181.932 106.681 181.666 106.953 181.593C110.093 180.704 112.476 178.756 113.822 175.958C115.848 171.742 115.479 165.853 112.782 159.371C106.764 144.906 90.9805 131.698 77.6008 129.929C69.8601 128.903 64.4552 131.848 62.776 137.998C62.7062 138.257 62.4381 138.407 62.1847 138.337C61.9263 138.266 61.776 137.998 61.8463 137.74C63.6403 131.17 69.5786 127.893 77.7244 128.968C91.4105 130.777 107.537 144.251 113.674 159.002C116.479 165.744 116.839 171.915 114.693 176.381C113.449 178.97 111.405 180.888 108.73 182.001L108.726 182Z" fill="#212121"/>
<path d="M135.893 148.989C135.843 149.01 135.786 149.023 135.727 149.025C135.461 149.036 135.235 148.828 135.226 148.561C135.098 145.618 134.321 142.411 132.914 139.028C126.896 124.563 111.112 111.355 97.7303 109.585C95.7 109.317 93.8021 109.323 92.0881 109.605C91.8258 109.649 91.5767 109.469 91.5325 109.206C91.4897 108.942 91.6606 108.694 91.9288 108.65C93.7353 108.354 95.7269 108.345 97.852 108.624C111.539 110.435 127.666 123.907 133.803 138.657C135.254 142.146 136.057 145.464 136.188 148.522C136.196 148.73 136.074 148.914 135.893 148.989Z" fill="#212121"/>
<path d="M94.9814 181.152C93.286 181.858 91.2286 182.075 88.9182 181.77C79.8709 180.573 69.2146 171.674 65.1614 161.932C62.9904 156.714 63.0481 152.008 65.3206 149.025C67.2162 146.532 70.4975 145.453 74.5537 145.99C83.5996 147.188 94.2559 156.086 98.3086 165.827C100.48 171.047 100.422 175.752 98.1499 178.736C97.3329 179.808 96.2613 180.62 94.9814 181.152ZM68.864 147.506C67.7368 147.975 66.7974 148.682 66.0879 149.615C64.0299 152.317 64.0165 156.672 66.0509 161.562C69.9854 171.019 80.2982 179.653 89.0399 180.809C92.7391 181.3 95.7034 180.35 97.3832 178.147C99.4411 175.445 99.454 171.089 97.4196 166.199C93.4857 156.743 83.1723 148.108 74.432 146.951C72.2961 146.669 70.4041 146.865 68.864 147.506Z" fill="#212121"/>
<path d="M1074.65 38.3272C1068.38 44.9669 1068.72 55.4568 1075.4 61.7572C1082.07 68.0575 1092.57 67.7823 1098.83 61.1426C1105.09 54.5029 1104.76 44.0129 1098.08 37.7126C1091.4 31.4123 1080.91 31.6874 1074.65 38.3272Z" fill="#D2FF00"/>
<path d="M1074.49 38.1789C1080.82 31.4637 1091.47 31.1845 1098.23 37.5568C1104.98 43.9292 1105.32 54.5756 1098.99 61.2908C1092.65 68.0059 1082 68.2852 1075.25 61.9133C1068.49 55.5413 1068.15 44.8941 1074.49 38.1789ZM1098.67 60.9948C1104.84 54.4519 1104.51 44.0772 1097.93 37.8687C1091.35 31.6602 1080.97 31.9323 1074.8 38.4753C1068.63 45.0182 1068.96 55.3929 1075.54 61.6014C1082.12 67.8099 1092.5 67.5382 1098.67 60.9948Z" fill="#212121"/>
<path d="M1071.23 43.2477C1071.28 43.1885 1071.37 43.1635 1071.45 43.1926C1071.56 43.2314 1071.62 43.3551 1071.59 43.4664C1070.66 46.1558 1071.98 49.4389 1075.2 52.474C1080.94 57.8929 1090.92 60.7253 1097.44 58.7876C1100.29 57.9409 1102.15 56.2478 1102.52 54.1432C1102.54 54.0268 1102.65 53.9485 1102.77 53.9704C1102.89 53.9922 1102.96 54.1041 1102.94 54.2213C1102.54 56.491 1100.58 58.306 1097.57 59.2011C1090.91 61.1772 1080.75 58.2998 1074.9 52.7869C1071.56 49.63 1070.2 46.1818 1071.18 43.3252C1071.19 43.2959 1071.21 43.2691 1071.23 43.2477L1071.23 43.2477Z" fill="#212121"/>
<path d="M1076.06 36.8574C1076.22 36.6879 1076.39 36.5248 1076.58 36.3696C1076.67 36.2941 1076.8 36.3068 1076.88 36.3983C1076.95 36.4894 1076.95 36.6216 1076.85 36.7009C1075.74 37.6327 1075.12 38.8571 1075.08 40.2391C1075.02 42.3208 1076.24 44.6477 1078.52 46.7926C1083.59 51.5797 1092.41 54.0817 1098.17 52.3709C1101.5 51.3819 1103.16 49.2031 1102.73 46.3982C1102.71 46.2802 1102.79 46.1709 1102.91 46.1533C1103.02 46.1351 1103.13 46.2167 1103.15 46.3342C1103.61 49.3308 1101.8 51.7413 1098.29 52.7839C1092.4 54.5341 1083.4 51.9862 1078.22 47.1046C1075.86 44.8736 1074.59 42.4304 1074.65 40.2251C1074.69 38.9472 1075.17 37.7962 1076.05 36.8579L1076.06 36.8574Z" fill="#212121"/>
<path d="M1071.01 55.2104C1071.02 55.1927 1071.05 55.1771 1071.07 55.1656C1071.17 55.1129 1071.3 55.1566 1071.36 55.2633C1071.94 56.4362 1072.84 57.599 1074.03 58.7183C1079.1 63.5053 1087.92 66.0074 1093.68 64.2965C1094.55 64.0367 1095.32 63.6898 1095.97 63.2636C1096.07 63.1983 1096.2 63.2261 1096.27 63.3251C1096.33 63.4246 1096.31 63.5565 1096.21 63.6232C1095.52 64.0716 1094.72 64.4368 1093.8 64.7095C1087.91 66.4593 1078.91 63.9118 1073.73 59.0307C1072.51 57.8761 1071.58 56.6733 1070.97 55.4537C1070.93 55.3708 1070.95 55.2737 1071.01 55.2104Z" fill="#212121"/>
<path d="M1081.8 34.7056C1082.36 34.1109 1083.15 33.6489 1084.15 33.3532C1088.04 32.1968 1093.99 33.8785 1097.41 37.1026C1099.24 38.8294 1100.07 40.7526 1099.69 42.378C1099.37 43.7357 1098.23 44.7701 1096.49 45.2887C1092.59 46.4447 1086.64 44.763 1083.23 41.5394C1081.4 39.8121 1080.57 37.8889 1080.95 36.2635C1081.09 35.6792 1081.37 35.1545 1081.8 34.7056ZM1098.52 43.6393C1098.9 43.2439 1099.15 42.7859 1099.27 42.2775C1099.62 40.8055 1098.83 39.0328 1097.12 37.4146C1093.8 34.285 1088.04 32.6482 1084.27 33.7662C1082.68 34.2385 1081.65 35.163 1081.37 36.3636C1081.02 37.8355 1081.81 39.6087 1083.52 41.2269C1086.84 44.356 1092.6 45.9933 1096.36 44.8758C1097.28 44.6025 1098.01 44.1794 1098.52 43.6393Z" fill="#212121"/>
<path d="M1067.41 250.251C1067.41 234.304 1054.42 221.376 1038.39 221.376C1022.37 221.376 1009.38 234.304 1009.38 250.251C1009.38 266.199 1022.37 279.127 1038.39 279.127C1054.42 279.127 1067.41 266.199 1067.41 250.251Z" fill="#D2FF00"/>
<path d="M1067.79 250.25C1067.79 266.379 1054.6 279.5 1038.39 279.5C1022.18 279.5 1009 266.379 1009 250.25C1009 234.121 1022.19 221 1038.39 221C1054.6 221 1067.79 234.121 1067.79 250.25ZM1009.75 250.25C1009.75 265.965 1022.6 278.751 1038.39 278.751C1054.19 278.751 1067.04 265.965 1067.04 250.25C1067.04 234.535 1054.19 221.749 1038.39 221.749C1022.6 221.749 1009.75 234.534 1009.75 250.25Z" fill="#212121"/>
<path d="M1065.87 239.9C1065.87 240.042 1065.79 240.18 1065.65 240.241C1065.46 240.326 1065.24 240.241 1065.15 240.053C1063.1 235.533 1057.49 232.94 1049.77 232.94C1035.98 232.94 1019.91 241.301 1013.95 251.579C1011.34 256.074 1011.02 260.442 1013.06 263.563C1013.18 263.737 1013.13 263.968 1012.95 264.082C1012.78 264.194 1012.55 264.146 1012.43 263.973C1010.22 260.606 1010.54 255.953 1013.29 251.203C1019.38 240.72 1035.74 232.19 1049.77 232.19C1057.8 232.19 1063.66 234.944 1065.84 239.745C1065.86 239.794 1065.87 239.848 1065.87 239.899L1065.87 239.9Z" fill="#212121"/>
<path d="M1067.39 253.805C1067.39 254.212 1067.37 254.627 1067.32 255.047C1067.29 255.252 1067.11 255.398 1066.9 255.374C1066.69 255.349 1066.54 255.174 1066.57 254.957C1066.87 252.437 1066.19 250.145 1064.58 248.342C1062.16 245.629 1057.82 244.135 1052.36 244.135C1040.18 244.135 1025.99 251.521 1020.72 260.597C1017.67 265.848 1018.17 270.607 1022.08 273.649C1022.25 273.777 1022.28 274.014 1022.15 274.175C1022.02 274.339 1021.79 274.367 1021.62 274.24C1017.44 270.989 1016.86 265.748 1020.07 260.222C1025.45 250.937 1039.94 243.385 1052.36 243.385C1058.04 243.385 1062.58 244.969 1065.14 247.844C1066.63 249.51 1067.4 251.55 1067.4 253.803L1067.39 253.805Z" fill="#212121"/>
<path d="M1051.81 224.444C1051.81 224.487 1051.8 224.532 1051.79 224.574C1051.72 224.769 1051.5 224.868 1051.3 224.795C1049.15 224.008 1046.62 223.608 1043.77 223.608C1031.59 223.608 1017.39 230.994 1012.13 240.071C1011.33 241.449 1010.77 242.813 1010.46 244.127C1010.41 244.329 1010.21 244.454 1010 244.407C1009.8 244.359 1009.67 244.162 1009.72 243.956C1010.05 242.571 1010.64 241.139 1011.47 239.697C1016.86 230.412 1031.35 222.859 1043.77 222.859C1046.71 222.859 1049.33 223.274 1051.56 224.093C1051.72 224.149 1051.81 224.292 1051.81 224.444Z" fill="#212121"/>
<path d="M1062.68 263.419C1062.68 264.846 1062.22 266.388 1061.31 267.956C1057.75 274.093 1048.18 279.085 1039.98 279.085C1035.58 279.085 1032.22 277.638 1030.76 275.116C1029.54 273.01 1029.74 270.333 1031.34 267.581C1034.9 261.445 1044.47 256.453 1052.67 256.453C1057.07 256.453 1060.43 257.9 1061.89 260.422C1062.42 261.329 1062.68 262.341 1062.68 263.419ZM1030.73 272.118C1030.73 273.067 1030.95 273.953 1031.41 274.741C1032.74 277.025 1035.86 278.336 1039.98 278.336C1047.94 278.336 1057.22 273.511 1060.66 267.581C1062.12 265.072 1062.32 262.661 1061.24 260.797C1059.92 258.513 1056.79 257.202 1052.67 257.202C1044.71 257.202 1035.43 262.027 1031.99 267.956C1031.15 269.405 1030.73 270.821 1030.73 272.118Z" fill="#212121"/>
<path d="M1426.8 173.917C1442.1 169.202 1450.74 152.993 1446.09 137.713C1441.45 122.433 1425.28 113.869 1409.98 118.584C1394.69 123.3 1386.05 139.509 1390.69 154.788C1395.34 170.068 1411.51 178.632 1426.8 173.917Z" fill="#D2FF00"/>
<path d="M1426.91 174.276C1411.44 179.045 1395.03 170.353 1390.34 154.898C1385.64 139.444 1394.4 122.994 1409.87 118.225C1425.35 113.456 1441.76 122.148 1446.45 137.601C1451.15 153.055 1442.39 169.507 1426.91 174.276ZM1410.09 118.942C1395.02 123.589 1386.48 139.62 1391.05 154.677C1395.63 169.734 1411.62 178.204 1426.7 173.557C1441.77 168.911 1450.31 152.88 1445.73 137.823C1441.16 122.766 1425.17 114.296 1410.09 118.942Z" fill="#212121"/>
<path d="M1436.34 169.488C1436.2 169.53 1436.05 169.492 1435.95 169.377C1435.81 169.221 1435.83 168.981 1435.98 168.846C1439.7 165.559 1440.54 159.439 1438.28 152.054C1434.24 138.87 1421.54 125.955 1409.96 123.265C1404.9 122.087 1400.63 123.06 1398.24 125.932C1398.11 126.09 1397.88 126.114 1397.72 125.978C1397.56 125.844 1397.54 125.607 1397.67 125.447C1400.24 122.35 1404.78 121.286 1410.13 122.53C1421.94 125.275 1434.88 138.42 1438.99 151.834C1441.35 159.514 1440.43 165.92 1436.48 169.412C1436.44 169.448 1436.39 169.474 1436.34 169.489L1436.34 169.488Z" fill="#212121"/>
<path d="M1423.49 175.019C1423.1 175.138 1422.7 175.236 1422.28 175.311C1422.08 175.347 1421.88 175.211 1421.85 175.006C1421.81 174.802 1421.93 174.607 1422.15 174.57C1424.65 174.119 1426.64 172.791 1427.89 170.727C1429.77 167.617 1429.93 163.032 1428.33 157.813C1424.76 146.166 1413.54 134.757 1403.32 132.381C1397.41 131.005 1393.01 132.877 1391.24 137.51C1391.17 137.705 1390.95 137.8 1390.76 137.727C1390.57 137.653 1390.47 137.434 1390.54 137.24C1392.43 132.291 1397.27 130.202 1403.49 131.647C1413.95 134.077 1425.41 145.717 1429.05 157.594C1430.71 163.022 1430.53 167.825 1428.53 171.12C1427.37 173.029 1425.65 174.36 1423.49 175.02L1423.49 175.019Z" fill="#212121"/>
<path d="M1447 151.519C1446.96 151.531 1446.91 151.537 1446.87 151.534C1446.66 151.522 1446.5 151.344 1446.51 151.137C1446.64 148.85 1446.28 146.31 1445.44 143.586C1441.87 131.939 1430.65 120.531 1420.43 118.154C1418.88 117.794 1417.41 117.655 1416.06 117.745C1415.86 117.759 1415.68 117.601 1415.66 117.394C1415.65 117.186 1415.8 117.007 1416.01 116.993C1417.43 116.9 1418.97 117.043 1420.6 117.419C1431.05 119.85 1442.52 131.49 1446.16 143.366C1447.02 146.175 1447.39 148.803 1447.26 151.18C1447.25 151.341 1447.14 151.474 1447 151.519Z" fill="#212121"/>
<path d="M1412.92 173.328C1411.55 173.747 1409.94 173.76 1408.18 173.35C1401.27 171.742 1393.69 164.054 1391.29 156.21C1390 152.009 1390.4 148.372 1392.38 146.234C1394.04 144.448 1396.66 143.86 1399.76 144.58C1406.67 146.188 1414.24 153.876 1416.65 161.719C1417.93 165.922 1417.54 169.559 1415.55 171.696C1414.84 172.465 1413.95 173.013 1412.92 173.328ZM1395.24 145.325C1394.33 145.603 1393.55 146.079 1392.93 146.749C1391.14 148.684 1390.8 152.053 1392 155.991C1394.34 163.605 1401.67 171.063 1408.35 172.615C1411.17 173.273 1413.54 172.761 1415 171.183C1416.8 169.247 1417.14 165.877 1415.93 161.94C1413.6 154.327 1406.27 146.868 1399.59 145.315C1397.96 144.936 1396.48 144.945 1395.24 145.325Z" fill="#212121"/>
<path d="M365.398 36.9183C377.558 41.0956 390.756 34.6385 394.876 22.4961C398.997 10.3537 392.48 -2.87608 380.321 -7.05334C368.161 -11.2306 354.963 -4.77355 350.842 7.36889C346.722 19.5113 353.238 32.7411 365.398 36.9183Z" fill="#D2FF00"/>
<path d="M365.301 37.2046C353.003 32.9798 346.389 19.5523 350.557 7.27101C354.725 -5.01031 368.12 -11.563 380.418 -7.33829C392.716 -3.11355 399.33 10.314 395.162 22.5944C390.995 34.8749 377.599 41.4293 365.301 37.2046ZM380.224 -6.76794C368.242 -10.8843 355.189 -4.49827 351.128 7.46723C347.068 19.4327 353.513 32.517 365.495 36.6334C377.478 40.7498 390.53 34.3637 394.591 22.3982C398.652 10.4327 392.208 -2.65126 380.224 -6.76794Z" fill="#212121"/>
<path d="M373.589 38.4994C373.481 38.4625 373.398 38.3645 373.388 38.2426C373.372 38.0771 373.495 37.9284 373.66 37.9132C377.628 37.5273 381.054 33.9404 383.06 28.0716C386.641 17.5934 384.461 3.21153 378.199 -3.98873C375.462 -7.13845 372.226 -8.51708 369.322 -7.77223C369.161 -7.73186 368.997 -7.82697 368.957 -7.99063C368.917 -8.152 369.014 -8.3171 369.176 -8.35918C372.307 -9.16253 375.762 -7.71582 378.655 -4.38806C385.041 2.95698 387.273 17.6055 383.63 28.2656C381.544 34.37 377.93 38.1047 373.716 38.515C373.673 38.5193 373.629 38.5139 373.59 38.5005L373.589 38.4994Z" fill="#212121"/>
<path d="M362.627 36.0466C362.317 35.9409 362.009 35.8144 361.702 35.6668C361.553 35.5949 361.491 35.4143 361.563 35.2636C361.635 35.1138 361.808 35.0449 361.965 35.1226C363.802 36.0051 365.722 36.0787 367.509 35.3258C370.2 34.1907 372.461 31.2823 373.879 27.1347C377.043 17.8782 375.117 5.17358 369.588 -1.18521C366.39 -4.86503 362.643 -5.72119 359.315 -3.53763C359.175 -3.44523 358.988 -3.48629 358.899 -3.62373C358.807 -3.76374 358.847 -3.95114 358.987 -4.04269C362.542 -6.37545 366.675 -5.4539 370.043 -1.58368C375.699 4.92046 377.675 17.8912 374.449 27.3304C372.974 31.6444 370.592 34.6813 367.741 35.8839C366.09 36.5808 364.34 36.6332 362.628 36.0481L362.627 36.0466Z" fill="#212121"/>
<path d="M388.986 31.8295C388.953 31.8185 388.921 31.8009 388.893 31.7779C388.764 31.6727 388.745 31.4821 388.85 31.3533C390.007 29.9236 390.969 28.1015 391.709 25.9372C394.873 16.6807 392.947 3.97609 387.417 -2.38383C386.578 -3.34859 385.688 -4.13057 384.769 -4.70683C384.628 -4.79495 384.586 -4.982 384.674 -5.12349C384.763 -5.26468 384.946 -5.31005 385.089 -5.21991C386.057 -4.6117 386.993 -3.79237 387.872 -2.78345C393.527 3.72155 395.504 16.6925 392.279 26.1309C391.516 28.3635 390.52 30.2476 389.317 31.7329C389.235 31.8336 389.101 31.869 388.986 31.8295Z" fill="#212121"/>
<path d="M356.547 29.9679C355.462 29.5971 354.41 28.8483 353.454 27.7505C349.716 23.4503 348.408 14.8814 350.539 8.64726C351.68 5.30819 353.652 3.13032 355.949 2.67379C357.866 2.2908 359.848 3.14247 361.524 5.07026C365.261 9.37022 366.569 17.9391 364.439 24.1724C363.297 27.5123 361.325 29.6902 359.029 30.1467C358.203 30.3108 357.366 30.2478 356.547 29.9679ZM358.235 3.4275C357.514 3.18098 356.782 3.12347 356.064 3.2671C353.984 3.68047 352.178 5.71276 351.108 8.8418C349.04 14.8933 350.296 23.1966 353.909 27.3509C355.437 29.1098 357.217 29.8907 358.913 29.5542C360.993 29.1409 362.8 27.1077 363.869 23.9787C365.937 17.9281 364.681 9.62391 361.069 5.46988C360.187 4.45495 359.221 3.76433 358.235 3.4275Z" fill="#212121"/>
<path d="M157.5 376.5C188.333 338.334 272.1 259.1 360.5 247.5C471 233 597 284.5 719.5 340.5C842 396.5 1034.5 283.5 1078.5 209C1122.5 134.5 1237 4.5 1545.5 -9" stroke="#D2FF00" stroke-dasharray="2 2"/>
</g>
</svg>
