<svg width="280" height="200" viewBox="0 0 280 200" fill="none" xmlns="http://www.w3.org/2000/svg">
<mask id="mask0_5087_52786" style="mask-type:alpha" maskUnits="userSpaceOnUse" x="0" y="0" width="280" height="200">
<rect x="0.5" y="0.5" width="279" height="199" rx="9.5" fill="#212121" stroke="#D2FF00"/>
</mask>
<g mask="url(#mask0_5087_52786)">
<path d="M214 68.0682C231.71 68.0682 246.068 53.7109 246.068 36.0002C246.068 18.2896 231.71 3.93225 214 3.93225C196.289 3.93225 181.932 18.2896 181.932 36.0002C181.932 53.7109 196.289 68.0682 214 68.0682Z" fill="#B3D707"/>
<path d="M223.665 59.3345C236.553 53.9964 242.673 39.2218 237.335 26.3345C231.996 13.4472 217.222 7.32736 204.335 12.6655C191.447 18.0036 185.327 32.7782 190.665 45.6655C196.004 58.5528 210.778 64.6726 223.665 59.3345Z" fill="#D2FF00"/>
<path d="M213.998 14.1499C201.949 14.1499 192.148 23.9508 192.148 35.9992C192.148 48.0476 201.949 57.8519 213.998 57.8519C226.046 57.8519 235.85 48.0476 235.85 35.9992C235.85 23.9508 226.05 14.1499 213.998 14.1499ZM213.998 54.4464C203.829 54.4464 195.554 46.1712 195.554 35.9992C195.554 25.8271 203.829 17.5553 213.998 17.5553C224.166 17.5553 232.445 25.8271 232.445 35.9992C232.445 46.1712 224.17 54.4464 213.998 54.4464Z" fill="url(#paint0_radial_5087_52786)"/>
<path d="M221.059 53.0425C230.471 49.1438 234.94 38.3534 231.042 28.9413C227.143 19.5292 216.353 15.0597 206.941 18.9583C197.528 22.8569 193.059 33.6473 196.958 43.0594C200.856 52.4715 211.647 56.9411 221.059 53.0425Z" fill="#D2FF00"/>
<path d="M140 214.068C157.71 214.068 172.068 199.711 172.068 182C172.068 164.29 157.71 149.932 140 149.932C122.289 149.932 107.932 164.29 107.932 182C107.932 199.711 122.289 214.068 140 214.068Z" fill="#B3D707"/>
<path d="M149.665 205.335C162.553 199.996 168.673 185.222 163.335 172.335C157.996 159.447 143.222 153.327 130.335 158.665C117.447 164.004 111.327 178.778 116.665 191.665C122.004 204.553 136.778 210.673 149.665 205.335Z" fill="#D2FF00"/>
<path d="M139.998 160.15C127.949 160.15 118.148 169.951 118.148 181.999C118.148 194.048 127.949 203.852 139.998 203.852C152.046 203.852 161.85 194.048 161.85 181.999C161.85 169.951 152.05 160.15 139.998 160.15ZM139.998 200.446C129.829 200.446 121.554 192.171 121.554 181.999C121.554 171.827 129.829 163.555 139.998 163.555C150.166 163.555 158.445 171.827 158.445 181.999C158.445 192.171 150.17 200.446 139.998 200.446Z" fill="url(#paint1_radial_5087_52786)"/>
<path d="M147.059 199.042C156.471 195.144 160.94 184.353 157.042 174.941C153.143 165.529 142.353 161.06 132.941 164.958C123.528 168.857 119.059 179.647 122.958 189.059C126.856 198.472 137.647 202.941 147.059 199.042Z" fill="#D2FF00"/>
<path d="M64.9996 69.0682C82.7103 69.0682 97.0676 54.7109 97.0676 37.0002C97.0676 19.2896 82.7103 4.93225 64.9996 4.93225C47.289 4.93225 32.9316 19.2896 32.9316 37.0002C32.9316 54.7109 47.289 69.0682 64.9996 69.0682Z" fill="#49B5C4"/>
<path d="M74.6655 60.3345C87.5528 54.9964 93.6726 40.2218 88.3345 27.3345C82.9964 14.4472 68.2218 8.32736 55.3345 13.6655C42.4472 19.0036 36.3274 33.7782 41.6655 46.6655C47.0036 59.5528 61.7782 65.6726 74.6655 60.3345Z" fill="#56EBFF"/>
<path d="M64.9977 15.1499C52.9493 15.1499 43.1484 24.9507 43.1484 36.9992C43.1484 49.0476 52.9493 58.8519 64.9977 58.8519C77.0462 58.8519 86.8504 49.0476 86.8504 36.9992C86.8504 24.9507 77.0496 15.1499 64.9977 15.1499ZM64.9977 55.4464C54.8291 55.4464 46.5539 47.1712 46.5539 36.9992C46.5539 26.8271 54.8291 18.5553 64.9977 18.5553C75.1664 18.5553 83.445 26.8271 83.445 36.9992C83.445 47.1712 75.1698 55.4464 64.9977 55.4464Z" fill="url(#paint2_radial_5087_52786)"/>
<path d="M72.0587 54.0425C81.4708 50.1438 85.9403 39.3534 82.0417 29.9413C78.1431 20.5292 67.3526 16.0596 57.9405 19.9583C48.5284 23.8569 44.0589 34.6473 47.9575 44.0594C51.8561 53.4715 62.6466 57.9411 72.0587 54.0425Z" fill="#56EBFF"/>
<path d="M-9.00037 141.068C8.71029 141.068 23.0676 126.711 23.0676 109C23.0676 91.2896 8.71029 76.9323 -9.00037 76.9323C-26.711 76.9323 -41.0684 91.2896 -41.0684 109C-41.0684 126.711 -26.711 141.068 -9.00037 141.068Z" fill="#49B5C4"/>
<path d="M0.665479 132.335C13.5528 126.996 19.6726 112.222 14.3345 99.3345C8.99643 86.4472 -5.77817 80.3274 -18.6655 85.6655C-31.5528 91.0036 -37.6726 105.778 -32.3345 118.665C-26.9964 131.553 -12.2218 137.673 0.665479 132.335Z" fill="#56EBFF"/>
<path d="M-9.00227 87.1499C-21.0507 87.1499 -30.8516 96.9507 -30.8516 108.999C-30.8516 121.048 -21.0507 130.852 -9.00227 130.852C3.04617 130.852 12.8504 121.048 12.8504 108.999C12.8504 96.9507 3.04957 87.1499 -9.00227 87.1499ZM-9.00227 127.446C-19.1709 127.446 -27.4461 119.171 -27.4461 108.999C-27.4461 98.8271 -19.1709 90.5553 -9.00227 90.5553C1.16637 90.5553 9.44498 98.8271 9.44498 108.999C9.44498 119.171 1.16977 127.446 -9.00227 127.446Z" fill="url(#paint3_radial_5087_52786)"/>
<path d="M-1.94133 126.042C7.47077 122.144 11.9403 111.353 8.0417 101.941C4.14309 92.5292 -6.64737 88.0596 -16.0595 91.9583C-25.4716 95.8569 -29.9411 106.647 -26.0425 116.059C-22.1439 125.472 -11.3534 129.941 -1.94133 126.042Z" fill="#56EBFF"/>
<g opacity="0.3">
<line x1="28.5" y1="2.15002e-08" x2="28.5" y2="200" stroke="#D2FF00"/>
<line x1="102.5" y1="2.15002e-08" x2="102.5" y2="200" stroke="#D2FF00"/>
<line x1="176.5" y1="2.15002e-08" x2="176.5" y2="200" stroke="#D2FF00"/>
<line x1="250.5" y1="2.15002e-08" x2="250.5" y2="200" stroke="#D2FF00"/>
<line y1="72.5" x2="280" y2="72.5" stroke="#D2FF00"/>
<line y1="145.5" x2="280" y2="145.5" stroke="#D2FF00"/>
</g>
</g>
<mask id="path-25-outside-1_5087_52786" maskUnits="userSpaceOnUse" x="25.041" y="81.4166" width="242" height="58" fill="black">
<rect fill="white" x="25.041" y="81.4166" width="242" height="58"/>
<path d="M44.5493 107.527L55.8366 102.555H45.8918L44.5493 107.527ZM44.5493 107.527L39.2289 127.417L26.6239 137.361L38.6073 92.6099H68.4416L64.4388 107.527L55.9858 111.256L62.8476 127.417H51.6598L44.5493 107.527ZM87.5902 110.013L75.4576 127.417H65.5128L94.2532 85.1514L100.319 127.417H90.3747L87.5902 110.013ZM120.661 112.499L116.659 127.417L104.054 137.361L118.697 82.6652L131.277 110.013L135.927 92.6099H145.871L133.888 137.361L120.661 112.499ZM159.277 117.472H169.222L173.224 102.555H153.335L155.995 92.6099H185.829L176.506 127.417H146.672L152.664 105.041H162.608L159.277 117.472ZM209.453 102.555H193.293L195.953 92.6099H225.787L223.127 102.555L202.964 117.472H219.124L216.464 127.417H186.63L189.29 117.472L209.453 102.555ZM245.856 92.6099L239.193 117.472H249.138L255.801 92.6099H265.745L256.422 127.417H226.588L235.911 92.6099H245.856Z"/>
</mask>
<path d="M44.5493 107.527L55.8366 102.555H45.8918L44.5493 107.527ZM44.5493 107.527L39.2289 127.417L26.6239 137.361L38.6073 92.6099H68.4416L64.4388 107.527L55.9858 111.256L62.8476 127.417H51.6598L44.5493 107.527ZM87.5902 110.013L75.4576 127.417H65.5128L94.2532 85.1514L100.319 127.417H90.3747L87.5902 110.013ZM120.661 112.499L116.659 127.417L104.054 137.361L118.697 82.6652L131.277 110.013L135.927 92.6099H145.871L133.888 137.361L120.661 112.499ZM159.277 117.472H169.222L173.224 102.555H153.335L155.995 92.6099H185.829L176.506 127.417H146.672L152.664 105.041H162.608L159.277 117.472ZM209.453 102.555H193.293L195.953 92.6099H225.787L223.127 102.555L202.964 117.472H219.124L216.464 127.417H186.63L189.29 117.472L209.453 102.555ZM245.856 92.6099L239.193 117.472H249.138L255.801 92.6099H265.745L256.422 127.417H226.588L235.911 92.6099H245.856Z" fill="url(#paint4_linear_5087_52786)"/>
<path d="M44.5493 107.527L44.1605 107.422L43.941 108.235L44.7117 107.896L44.5493 107.527ZM55.8366 102.555L55.999 102.923L55.8366 102.152V102.555ZM45.8918 102.555V102.152H45.5834L45.503 102.45L45.8918 102.555ZM44.5493 107.527L44.9285 107.391L44.4939 106.176L44.1602 107.423L44.5493 107.527ZM39.2289 127.417L39.4783 127.733L39.5833 127.65L39.6179 127.521L39.2289 127.417ZM26.6239 137.361L26.2349 137.257L25.9211 138.429L26.8733 137.678L26.6239 137.361ZM38.6073 92.6099V92.2072H38.2982L38.2183 92.5058L38.6073 92.6099ZM68.4416 92.6099L68.8305 92.7143L68.9666 92.2072H68.4416V92.6099ZM64.4388 107.527L64.6014 107.896L64.7778 107.818L64.8278 107.631L64.4388 107.527ZM55.9858 111.256L55.8232 110.888L55.4598 111.048L55.6151 111.414L55.9858 111.256ZM62.8476 127.417V127.819H63.4562L63.2183 127.259L62.8476 127.417ZM51.6598 127.417L51.2806 127.552L51.3761 127.819H51.6598V127.417ZM44.7117 107.896L55.999 102.923L55.6742 102.186L44.3869 107.159L44.7117 107.896ZM55.8366 102.152H45.8918V102.957H55.8366V102.152ZM45.503 102.45L44.1605 107.422L44.9381 107.632L46.2807 102.66L45.503 102.45ZM44.1602 107.423L38.8398 127.312L39.6179 127.521L44.9384 107.631L44.1602 107.423ZM38.9794 127.1L26.3744 137.045L26.8733 137.678L39.4783 127.733L38.9794 127.1ZM27.0129 137.465L38.9963 92.7141L38.2183 92.5058L26.2349 137.257L27.0129 137.465ZM38.6073 93.0127H68.4416V92.2072H38.6073V93.0127ZM68.0526 92.5056L64.0498 107.423L64.8278 107.631L68.8305 92.7143L68.0526 92.5056ZM64.2762 107.159L55.8232 110.888L56.1483 111.625L64.6014 107.896L64.2762 107.159ZM55.6151 111.414L62.4769 127.574L63.2183 127.259L56.3565 111.099L55.6151 111.414ZM62.8476 127.014H51.6598V127.819H62.8476V127.014ZM52.039 127.281L44.9285 107.391L44.1701 107.663L51.2806 127.552L52.039 127.281ZM87.5902 110.013L87.9879 109.95L87.8303 108.965L87.2598 109.783L87.5902 110.013ZM75.4576 127.417V127.819H75.6678L75.788 127.647L75.4576 127.417ZM65.5128 127.417L65.1798 127.19L64.7519 127.819H65.5128V127.417ZM94.2532 85.1514L94.6518 85.0942L94.5042 84.0659L93.9201 84.9249L94.2532 85.1514ZM100.319 127.417V127.819H100.784L100.718 127.359L100.319 127.417ZM90.3747 127.417L89.977 127.48L90.0313 127.819H90.3747V127.417ZM87.2598 109.783L75.1272 127.186L75.788 127.647L87.9206 110.244L87.2598 109.783ZM75.4576 127.014H65.5128V127.819H75.4576V127.014ZM65.8459 127.643L94.5862 85.3778L93.9201 84.9249L65.1798 127.19L65.8459 127.643ZM93.8545 85.2086L99.9208 127.474L100.718 127.359L94.6518 85.0942L93.8545 85.2086ZM100.319 127.014H90.3747V127.819H100.319V127.014ZM90.7724 127.353L87.9879 109.95L87.1925 110.077L89.977 127.48L90.7724 127.353ZM120.661 112.499L121.017 112.31L120.537 111.408L120.272 112.395L120.661 112.499ZM116.659 127.417L116.908 127.733L117.013 127.65L117.048 127.521L116.659 127.417ZM104.054 137.361L103.665 137.257L103.351 138.429L104.303 137.678L104.054 137.361ZM118.697 82.6652L119.063 82.4969L118.597 81.4831L118.308 82.561L118.697 82.6652ZM131.277 110.013L130.912 110.182L131.378 111.196L131.667 110.117L131.277 110.013ZM135.927 92.6099V92.2072H135.617L135.538 92.506L135.927 92.6099ZM145.871 92.6099L146.26 92.7141L146.396 92.2072H145.871V92.6099ZM133.888 137.361L133.532 137.55L134.013 138.453L134.277 137.465L133.888 137.361ZM120.272 112.395L116.27 127.312L117.048 127.521L121.05 112.604L120.272 112.395ZM116.409 127.1L103.804 137.045L104.303 137.678L116.908 127.733L116.409 127.1ZM104.443 137.465L119.086 82.7693L118.308 82.561L103.665 137.257L104.443 137.465ZM118.331 82.8335L130.912 110.182L131.643 109.845L119.063 82.4969L118.331 82.8335ZM131.667 110.117L136.316 92.7139L135.538 92.506L130.888 109.909L131.667 110.117ZM135.927 93.0127H145.871V92.2072H135.927V93.0127ZM145.482 92.5058L133.499 137.257L134.277 137.465L146.26 92.7141L145.482 92.5058ZM134.244 137.172L121.017 112.31L120.306 112.689L133.532 137.55L134.244 137.172ZM159.277 117.472L158.888 117.368L158.752 117.875H159.277V117.472ZM169.222 117.472V117.875H169.531L169.611 117.576L169.222 117.472ZM173.224 102.555L173.613 102.659L173.749 102.152H173.224V102.555ZM153.335 102.555L152.946 102.451L152.81 102.957H153.335V102.555ZM155.995 92.6099V92.2072H155.686L155.606 92.5059L155.995 92.6099ZM185.829 92.6099L186.218 92.7141L186.354 92.2072H185.829V92.6099ZM176.506 127.417V127.819H176.815L176.895 127.521L176.506 127.417ZM146.672 127.417L146.283 127.312L146.147 127.819H146.672V127.417ZM152.664 105.041V104.638H152.355L152.275 104.937L152.664 105.041ZM162.608 105.041L162.997 105.145L163.133 104.638H162.608V105.041ZM159.277 117.875H169.222V117.069H159.277V117.875ZM169.611 117.576L173.613 102.659L172.835 102.45L168.833 117.367L169.611 117.576ZM173.224 102.152H153.335V102.957H173.224V102.152ZM153.724 102.659L156.384 92.714L155.606 92.5059L152.946 102.451L153.724 102.659ZM155.995 93.0127H185.829V92.2072H155.995V93.0127ZM185.44 92.5057L176.117 127.312L176.895 127.521L186.218 92.7141L185.44 92.5057ZM176.506 127.014H146.672V127.819H176.506V127.014ZM147.061 127.521L153.053 105.145L152.275 104.937L146.283 127.312L147.061 127.521ZM152.664 105.444H162.608V104.638H152.664V105.444ZM162.219 104.937L158.888 117.368L159.666 117.576L162.997 105.145L162.219 104.937ZM209.453 102.555L209.693 102.878L210.675 102.152H209.453V102.555ZM193.293 102.555L192.904 102.451L192.768 102.957H193.293V102.555ZM195.953 92.6099V92.2072H195.644L195.564 92.5059L195.953 92.6099ZM225.787 92.6099L226.176 92.714L226.312 92.2072H225.787V92.6099ZM223.127 102.555L223.367 102.878L223.48 102.795L223.516 102.659L223.127 102.555ZM202.964 117.472L202.725 117.148L201.743 117.875H202.964V117.472ZM219.124 117.472L219.513 117.576L219.649 117.069H219.124V117.472ZM216.464 127.417V127.819H216.773L216.853 127.521L216.464 127.417ZM186.63 127.417L186.241 127.312L186.105 127.819H186.63V127.417ZM189.29 117.472L189.051 117.148L188.937 117.232L188.901 117.368L189.29 117.472ZM209.453 102.152H193.293V102.957H209.453V102.152ZM193.682 102.659L196.342 92.714L195.564 92.5059L192.904 102.451L193.682 102.659ZM195.953 93.0127H225.787V92.2072H195.953V93.0127ZM225.398 92.5059L222.738 102.451L223.516 102.659L226.176 92.714L225.398 92.5059ZM222.888 102.231L202.725 117.148L203.204 117.796L223.367 102.878L222.888 102.231ZM202.964 117.875H219.124V117.069H202.964V117.875ZM218.735 117.368L216.075 127.312L216.853 127.521L219.513 117.576L218.735 117.368ZM216.464 127.014H186.63V127.819H216.464V127.014ZM187.019 127.521L189.679 117.576L188.901 117.368L186.241 127.312L187.019 127.521ZM189.53 117.796L209.693 102.878L209.214 102.231L189.051 117.148L189.53 117.796ZM245.856 92.6099L246.245 92.7142L246.381 92.2072H245.856V92.6099ZM239.193 117.472L238.804 117.368L238.668 117.875H239.193V117.472ZM249.138 117.472V117.875H249.447L249.527 117.576L249.138 117.472ZM255.801 92.6099V92.2072H255.492L255.412 92.5057L255.801 92.6099ZM265.745 92.6099L266.134 92.7141L266.27 92.2072H265.745V92.6099ZM256.422 127.417V127.819H256.731L256.811 127.521L256.422 127.417ZM226.588 127.417L226.199 127.312L226.063 127.819H226.588V127.417ZM235.911 92.6099V92.2072H235.602L235.522 92.5057L235.911 92.6099ZM245.467 92.5057L238.804 117.368L239.582 117.576L246.245 92.7142L245.467 92.5057ZM239.193 117.875H249.138V117.069H239.193V117.875ZM249.527 117.576L256.19 92.7142L255.412 92.5057L248.749 117.368L249.527 117.576ZM255.801 93.0127H265.745V92.2072H255.801V93.0127ZM265.356 92.5057L256.033 127.312L256.811 127.521L266.134 92.7141L265.356 92.5057ZM256.422 127.014H226.588V127.819H256.422V127.014ZM226.977 127.521L236.3 92.7141L235.522 92.5057L226.199 127.312L226.977 127.521ZM235.911 93.0127H245.856V92.2072H235.911V93.0127Z" fill="#D2FF00" mask="url(#path-25-outside-1_5087_52786)"/>
<mask id="path-27-outside-2_5087_52786" maskUnits="userSpaceOnUse" x="19" y="79" width="242" height="58" fill="black">
<rect fill="white" x="19" y="79" width="242" height="58"/>
<path d="M38.5083 105.11L49.7956 100.138H39.8508L38.5083 105.11ZM38.5083 105.11L33.1878 125L20.5829 134.945L32.5663 90.1934H62.4005L58.3978 105.11L49.9447 108.84L56.8066 125H45.6188L38.5083 105.11ZM81.5492 107.597L69.4166 125H59.4718L88.2121 82.7348L94.2784 125H84.3337L81.5492 107.597ZM114.62 110.083L110.618 125L98.0127 134.945L112.656 80.2486L125.236 107.597L129.886 90.1934H139.83L127.847 134.945L114.62 110.083ZM153.236 115.055H163.181L167.183 100.138H147.294L149.954 90.1934H179.788L170.465 125H140.631L146.623 102.624H156.567L153.236 115.055ZM203.412 100.138H187.252L189.912 90.1934H219.746L217.086 100.138L196.923 115.055H213.083L210.423 125H180.589L183.249 115.055L203.412 100.138ZM239.815 90.1934L233.152 115.055H243.097L249.76 90.1934H259.704L250.381 125H220.547L229.87 90.1934H239.815Z"/>
</mask>
<path d="M38.5083 105.11L49.7956 100.138H39.8508L38.5083 105.11ZM38.5083 105.11L33.1878 125L20.5829 134.945L32.5663 90.1934H62.4005L58.3978 105.11L49.9447 108.84L56.8066 125H45.6188L38.5083 105.11ZM81.5492 107.597L69.4166 125H59.4718L88.2121 82.7348L94.2784 125H84.3337L81.5492 107.597ZM114.62 110.083L110.618 125L98.0127 134.945L112.656 80.2486L125.236 107.597L129.886 90.1934H139.83L127.847 134.945L114.62 110.083ZM153.236 115.055H163.181L167.183 100.138H147.294L149.954 90.1934H179.788L170.465 125H140.631L146.623 102.624H156.567L153.236 115.055ZM203.412 100.138H187.252L189.912 90.1934H219.746L217.086 100.138L196.923 115.055H213.083L210.423 125H180.589L183.249 115.055L203.412 100.138ZM239.815 90.1934L233.152 115.055H243.097L249.76 90.1934H259.704L250.381 125H220.547L229.87 90.1934H239.815Z" fill="#D2FF00"/>
<path d="M38.5083 105.11L38.1195 105.006L37.8999 105.819L38.6706 105.479L38.5083 105.11ZM49.7956 100.138L49.9579 100.507L49.7956 99.7354V100.138ZM39.8508 100.138V99.7354H39.5424L39.462 100.033L39.8508 100.138ZM38.5083 105.11L38.8875 104.975L38.4529 103.759L38.1192 105.006L38.5083 105.11ZM33.1878 125L33.4373 125.316L33.5423 125.233L33.5769 125.104L33.1878 125ZM20.5829 134.945L20.1938 134.841L19.8801 136.012L20.8323 135.261L20.5829 134.945ZM32.5663 90.1934V89.7906H32.2572L32.1773 90.0892L32.5663 90.1934ZM62.4005 90.1934L62.7895 90.2978L62.9256 89.7906H62.4005V90.1934ZM58.3978 105.11L58.5603 105.479L58.7368 105.401L58.7868 105.215L58.3978 105.11ZM49.9447 108.84L49.7822 108.471L49.4188 108.632L49.574 108.997L49.9447 108.84ZM56.8066 125V125.403H57.4152L57.1773 124.843L56.8066 125ZM45.6188 125L45.2395 125.136L45.3351 125.403H45.6188V125ZM38.6706 105.479L49.9579 100.507L49.6332 99.7696L38.3459 104.742L38.6706 105.479ZM49.7956 99.7354H39.8508V100.541H49.7956V99.7354ZM39.462 100.033L38.1195 105.006L38.8971 105.215L40.2396 100.243L39.462 100.033ZM38.1192 105.006L32.7988 124.896L33.5769 125.104L38.8973 105.215L38.1192 105.006ZM32.9384 124.684L20.3334 134.629L20.8323 135.261L33.4373 125.316L32.9384 124.684ZM20.9719 135.049L32.9553 90.2975L32.1773 90.0892L20.1938 134.841L20.9719 135.049ZM32.5663 90.5961H62.4005V89.7906H32.5663V90.5961ZM62.0116 90.089L58.0088 105.006L58.7868 105.215L62.7895 90.2978L62.0116 90.089ZM58.2352 104.742L49.7822 108.471L50.1073 109.208L58.5603 105.479L58.2352 104.742ZM49.574 108.997L56.4359 125.157L57.1773 124.843L50.3155 108.682L49.574 108.997ZM56.8066 124.597H45.6188V125.403H56.8066V124.597ZM45.998 124.864L38.8875 104.975L38.129 105.246L45.2395 125.136L45.998 124.864ZM81.5492 107.597L81.9468 107.533L81.7893 106.548L81.2188 107.366L81.5492 107.597ZM69.4166 125V125.403H69.6268L69.747 125.23L69.4166 125ZM59.4718 125L59.1388 124.774L58.7109 125.403H59.4718V125ZM88.2122 82.7348L88.6108 82.6776L88.4632 81.6494L87.8791 82.5083L88.2122 82.7348ZM94.2785 125V125.403H94.7431L94.6771 124.943L94.2785 125ZM84.3337 125L83.936 125.064L83.9903 125.403H84.3337V125ZM81.2188 107.366L69.0862 124.77L69.747 125.23L81.8795 107.827L81.2188 107.366ZM69.4166 124.597H59.4718V125.403H69.4166V124.597ZM59.8049 125.226L88.5452 82.9613L87.8791 82.5083L59.1388 124.774L59.8049 125.226ZM87.8135 82.792L93.8798 125.057L94.6771 124.943L88.6108 82.6776L87.8135 82.792ZM94.2785 124.597H84.3337V125.403H94.2785V124.597ZM84.7314 124.936L81.9468 107.533L81.1515 107.66L83.936 125.064L84.7314 124.936ZM114.62 110.083L114.976 109.894L114.496 108.992L114.231 109.978L114.62 110.083ZM110.618 125L110.867 125.316L110.972 125.233L111.007 125.104L110.618 125ZM98.0127 134.945L97.6237 134.841L97.31 136.012L98.2622 135.261L98.0127 134.945ZM112.656 80.2486L113.022 80.0803L112.556 79.0665L112.267 80.1445L112.656 80.2486ZM125.236 107.597L124.871 107.765L125.337 108.78L125.626 107.701L125.236 107.597ZM129.886 90.1934V89.7906H129.576L129.497 90.0894L129.886 90.1934ZM139.83 90.1934L140.219 90.2975L140.355 89.7906H139.83V90.1934ZM127.847 134.945L127.491 135.134L127.972 136.036L128.236 135.049L127.847 134.945ZM114.231 109.978L110.229 124.896L111.007 125.104L115.009 110.187L114.231 109.978ZM110.368 124.684L97.7632 134.629L98.2622 135.261L110.867 125.316L110.368 124.684ZM98.4017 135.049L113.045 80.3528L112.267 80.1445L97.6237 134.841L98.4017 135.049ZM112.29 80.4169L124.871 107.765L125.602 107.428L113.022 80.0803L112.29 80.4169ZM125.626 107.701L130.275 90.2973L129.497 90.0894L124.847 107.493L125.626 107.701ZM129.886 90.5961H139.83V89.7906H129.886V90.5961ZM139.441 90.0892L127.458 134.841L128.236 135.049L140.219 90.2975L139.441 90.0892ZM128.203 134.756L114.976 109.894L114.265 110.272L127.491 135.134L128.203 134.756ZM153.236 115.055L152.847 114.951L152.711 115.458H153.236V115.055ZM163.181 115.055V115.458H163.49L163.57 115.16L163.181 115.055ZM167.183 100.138L167.572 100.243L167.708 99.7354H167.183V100.138ZM147.294 100.138L146.905 100.034L146.769 100.541H147.294V100.138ZM149.954 90.1934V89.7906H149.645L149.565 90.0893L149.954 90.1934ZM179.788 90.1934L180.177 90.2976L180.313 89.7906H179.788V90.1934ZM170.465 125V125.403H170.774L170.854 125.104L170.465 125ZM140.631 125L140.242 124.896L140.106 125.403H140.631V125ZM146.623 102.624V102.222H146.314L146.234 102.52L146.623 102.624ZM156.567 102.624L156.956 102.729L157.092 102.222H156.567V102.624ZM153.236 115.458H163.181V114.653H153.236V115.458ZM163.57 115.16L167.572 100.243L166.794 100.034L162.792 114.951L163.57 115.16ZM167.183 99.7354H147.294V100.541H167.183V99.7354ZM147.683 100.242L150.343 90.2974L149.565 90.0893L146.905 100.034L147.683 100.242ZM149.954 90.5961H179.788V89.7906H149.954V90.5961ZM179.399 90.0892L170.076 124.896L170.854 125.104L180.177 90.2976L179.399 90.0892ZM170.465 124.597H140.631V125.403H170.465V124.597ZM141.02 125.104L147.012 102.728L146.234 102.52L140.242 124.896L141.02 125.104ZM146.623 103.027H156.567V102.222H146.623V103.027ZM156.178 102.52L152.847 114.951L153.625 115.16L156.956 102.729L156.178 102.52ZM203.412 100.138L203.652 100.462L204.634 99.7354H203.412V100.138ZM187.252 100.138L186.863 100.034L186.727 100.541H187.252V100.138ZM189.912 90.1934V89.7906H189.603L189.523 90.0893L189.912 90.1934ZM219.746 90.1934L220.135 90.2974L220.271 89.7906H219.746V90.1934ZM217.086 100.138L217.326 100.462L217.439 100.378L217.475 100.242L217.086 100.138ZM196.923 115.055L196.684 114.731L195.702 115.458H196.923V115.055ZM213.083 115.055L213.472 115.159L213.608 114.653H213.083V115.055ZM210.423 125V125.403H210.732L210.812 125.104L210.423 125ZM180.589 125L180.2 124.896L180.064 125.403H180.589V125ZM183.249 115.055L183.01 114.731L182.896 114.815L182.86 114.951L183.249 115.055ZM203.412 99.7354H187.252V100.541H203.412V99.7354ZM187.641 100.242L190.301 90.2974L189.523 90.0893L186.863 100.034L187.641 100.242ZM189.912 90.5961H219.746V89.7906H189.912V90.5961ZM219.357 90.0893L216.697 100.034L217.475 100.242L220.135 90.2974L219.357 90.0893ZM216.847 99.8144L196.684 114.731L197.163 115.379L217.326 100.462L216.847 99.8144ZM196.923 115.458H213.083V114.653H196.923V115.458ZM212.694 114.951L210.034 124.896L210.812 125.104L213.472 115.159L212.694 114.951ZM210.423 124.597H180.589V125.403H210.423V124.597ZM180.978 125.104L183.638 115.159L182.86 114.951L180.2 124.896L180.978 125.104ZM183.489 115.379L203.652 100.462L203.173 99.8144L183.01 114.731L183.489 115.379ZM239.815 90.1934L240.204 90.2976L240.34 89.7906H239.815V90.1934ZM233.152 115.055L232.763 114.951L232.627 115.458H233.152V115.055ZM243.097 115.055V115.458H243.406L243.486 115.16L243.097 115.055ZM249.76 90.1934V89.7906H249.451L249.371 90.0891L249.76 90.1934ZM259.704 90.1934L260.093 90.2976L260.229 89.7906H259.704V90.1934ZM250.381 125V125.403H250.69L250.77 125.104L250.381 125ZM220.547 125L220.158 124.896L220.022 125.403H220.547V125ZM229.87 90.1934V89.7906H229.561L229.481 90.0892L229.87 90.1934ZM239.426 90.0891L232.763 114.951L233.541 115.16L240.204 90.2976L239.426 90.0891ZM233.152 115.458H243.097V114.653H233.152V115.458ZM243.486 115.16L250.149 90.2976L249.371 90.0891L242.708 114.951L243.486 115.16ZM249.76 90.5961H259.704V89.7906H249.76V90.5961ZM259.315 90.0892L249.992 124.896L250.77 125.104L260.093 90.2976L259.315 90.0892ZM250.381 124.597H220.547V125.403H250.381V124.597ZM220.936 125.104L230.259 90.2976L229.481 90.0892L220.158 124.896L220.936 125.104ZM229.87 90.5961H239.815V89.7906H229.87V90.5961Z" fill="#D2FF00" mask="url(#path-27-outside-2_5087_52786)"/>
<defs>
<radialGradient id="paint0_radial_5087_52786" cx="0" cy="0" r="1" gradientUnits="userSpaceOnUse" gradientTransform="translate(213.999 36.0009) scale(21.851 21.851)">
<stop stop-color="#748814"/>
<stop offset="0.451" stop-color="#758913"/>
<stop offset="0.613" stop-color="#7A9012"/>
<stop offset="0.729" stop-color="#849C10"/>
<stop offset="0.822" stop-color="#91AD0D"/>
<stop offset="0.902" stop-color="#A2C309"/>
<stop offset="0.972" stop-color="#B7DD05"/>
<stop offset="1" stop-color="#C2EB03"/>
</radialGradient>
<radialGradient id="paint1_radial_5087_52786" cx="0" cy="0" r="1" gradientUnits="userSpaceOnUse" gradientTransform="translate(139.999 182.001) scale(21.851 21.851)">
<stop stop-color="#748814"/>
<stop offset="0.451" stop-color="#758913"/>
<stop offset="0.613" stop-color="#7A9012"/>
<stop offset="0.729" stop-color="#849C10"/>
<stop offset="0.822" stop-color="#91AD0D"/>
<stop offset="0.902" stop-color="#A2C309"/>
<stop offset="0.972" stop-color="#B7DD05"/>
<stop offset="1" stop-color="#C2EB03"/>
</radialGradient>
<radialGradient id="paint2_radial_5087_52786" cx="0" cy="0" r="1" gradientUnits="userSpaceOnUse" gradientTransform="translate(64.9994 37.0012) scale(21.851 21.851)">
<stop stop-color="#40919C"/>
<stop offset="0.472" stop-color="#40929D"/>
<stop offset="0.641" stop-color="#4198A4"/>
<stop offset="0.762" stop-color="#44A3B0"/>
<stop offset="0.86" stop-color="#48B3C1"/>
<stop offset="0.943" stop-color="#4DC6D7"/>
<stop offset="1" stop-color="#52D9EB"/>
</radialGradient>
<radialGradient id="paint3_radial_5087_52786" cx="0" cy="0" r="1" gradientUnits="userSpaceOnUse" gradientTransform="translate(-9.00057 109.001) scale(21.851 21.851)">
<stop stop-color="#40919C"/>
<stop offset="0.472" stop-color="#40929D"/>
<stop offset="0.641" stop-color="#4198A4"/>
<stop offset="0.762" stop-color="#44A3B0"/>
<stop offset="0.86" stop-color="#48B3C1"/>
<stop offset="0.943" stop-color="#4DC6D7"/>
<stop offset="1" stop-color="#52D9EB"/>
</radialGradient>
<linearGradient id="paint4_linear_5087_52786" x1="162.507" y1="87.4545" x2="163.612" y2="125.919" gradientUnits="userSpaceOnUse">
<stop stop-color="#D2FF00"/>
<stop offset="1" stop-color="#252525"/>
</linearGradient>
</defs>
</svg>
