<svg width="1500" height="300" viewBox="0 0 1500 300" fill="none" xmlns="http://www.w3.org/2000/svg">
<mask id="mask0_4222_18447" style="mask-type:alpha" maskUnits="userSpaceOnUse" x="0" y="0" width="1500" height="300">
<rect x="1" y="1" width="1498" height="298" rx="19" fill="#212121" stroke="#D2FF00" stroke-width="2"/>
</mask>
<g mask="url(#mask0_4222_18447)">
<g opacity="0.3">
<line x1="1.5" y1="-128" x2="1.49998" y2="428.504" stroke="#D2FF00"/>
<line x1="95.1875" y1="-128" x2="95.1875" y2="428.504" stroke="#D2FF00"/>
<line x1="188.875" y1="-128" x2="188.875" y2="428.504" stroke="#D2FF00"/>
<line x1="282.562" y1="-128" x2="282.562" y2="428.504" stroke="#D2FF00"/>
<line x1="376.25" y1="-128" x2="376.25" y2="428.504" stroke="#D2FF00"/>
<line x1="469.938" y1="-128" x2="469.937" y2="428.504" stroke="#D2FF00"/>
<line x1="563.625" y1="-128" x2="563.625" y2="428.504" stroke="#D2FF00"/>
<line x1="657.312" y1="-128" x2="657.312" y2="428.504" stroke="#D2FF00"/>
<line x1="751" y1="-128" x2="751" y2="428.504" stroke="#D2FF00"/>
<line x1="844.688" y1="-128" x2="844.688" y2="428.504" stroke="#D2FF00"/>
<line x1="938.375" y1="-128" x2="938.375" y2="428.504" stroke="#D2FF00"/>
<line x1="1032.06" y1="-128" x2="1032.06" y2="428.504" stroke="#D2FF00"/>
<line x1="1125.75" y1="-128" x2="1125.75" y2="428.504" stroke="#D2FF00"/>
<line x1="1219.44" y1="-128" x2="1219.44" y2="428.504" stroke="#D2FF00"/>
<line x1="1313.12" y1="-128" x2="1313.12" y2="428.504" stroke="#D2FF00"/>
<line x1="1406.81" y1="-128" x2="1406.81" y2="428.504" stroke="#D2FF00"/>
<line x1="1" y1="57.0013" x2="1500" y2="57.0013" stroke="#D2FF00"/>
<line x1="1" y1="149.752" x2="1500" y2="149.752" stroke="#D2FF00"/>
<line x1="1" y1="242.503" x2="1500" y2="242.503" stroke="#D2FF00"/>
</g>
<path d="M1359 230.068C1376.71 230.068 1391.07 215.711 1391.07 198C1391.07 180.29 1376.71 165.932 1359 165.932C1341.29 165.932 1326.93 180.29 1326.93 198C1326.93 215.711 1341.29 230.068 1359 230.068Z" fill="#49B5C4"/>
<path d="M1368.67 221.335C1381.55 215.996 1387.67 201.222 1382.33 188.335C1377 175.447 1362.22 169.327 1349.33 174.665C1336.45 180.004 1330.33 194.778 1335.67 207.665C1341 220.553 1355.78 226.673 1368.67 221.335Z" fill="#56EBFF"/>
<path d="M1359 176.15C1346.95 176.15 1337.15 185.951 1337.15 197.999C1337.15 210.048 1346.95 219.852 1359 219.852C1371.05 219.852 1380.85 210.048 1380.85 197.999C1380.85 185.951 1371.05 176.15 1359 176.15ZM1359 216.446C1348.83 216.446 1340.55 208.171 1340.55 197.999C1340.55 187.827 1348.83 179.555 1359 179.555C1369.17 179.555 1377.44 187.827 1377.44 197.999C1377.44 208.171 1369.17 216.446 1359 216.446Z" fill="url(#paint0_radial_4222_18447)"/>
<path d="M1366.06 215.042C1375.47 211.144 1379.94 200.353 1376.04 190.941C1372.14 181.529 1361.35 177.06 1351.94 180.958C1342.53 184.857 1338.06 195.647 1341.96 205.059C1345.86 214.472 1356.65 218.941 1366.06 215.042Z" fill="#56EBFF"/>
<path d="M1266 321.068C1283.71 321.068 1298.07 306.711 1298.07 289C1298.07 271.29 1283.71 256.932 1266 256.932C1248.29 256.932 1233.93 271.29 1233.93 289C1233.93 306.711 1248.29 321.068 1266 321.068Z" fill="#49B5C4"/>
<path d="M1275.67 312.335C1288.55 306.996 1294.67 292.222 1289.33 279.335C1284 266.447 1269.22 260.327 1256.33 265.665C1243.45 271.004 1237.33 285.778 1242.67 298.665C1248 311.553 1262.78 317.673 1275.67 312.335Z" fill="#56EBFF"/>
<path d="M1266 267.15C1253.95 267.15 1244.15 276.951 1244.15 288.999C1244.15 301.048 1253.95 310.852 1266 310.852C1278.05 310.852 1287.85 301.048 1287.85 288.999C1287.85 276.951 1278.05 267.15 1266 267.15ZM1266 307.446C1255.83 307.446 1247.55 299.171 1247.55 288.999C1247.55 278.827 1255.83 270.555 1266 270.555C1276.17 270.555 1284.44 278.827 1284.44 288.999C1284.44 299.171 1276.17 307.446 1266 307.446Z" fill="url(#paint1_radial_4222_18447)"/>
<path d="M1273.06 306.042C1282.47 302.144 1286.94 291.353 1283.04 281.941C1279.14 272.529 1268.35 268.06 1258.94 271.958C1249.53 275.857 1245.06 286.647 1248.96 296.059C1252.86 305.472 1263.65 309.941 1273.06 306.042Z" fill="#56EBFF"/>
<path d="M1452 228.068C1469.71 228.068 1484.07 213.711 1484.07 196C1484.07 178.29 1469.71 163.932 1452 163.932C1434.29 163.932 1419.93 178.29 1419.93 196C1419.93 213.711 1434.29 228.068 1452 228.068Z" fill="#49B5C4"/>
<path d="M1461.67 219.335C1474.55 213.996 1480.67 199.222 1475.33 186.335C1470 173.447 1455.22 167.327 1442.33 172.665C1429.45 178.004 1423.33 192.778 1428.67 205.665C1434 218.553 1448.78 224.673 1461.67 219.335Z" fill="#56EBFF"/>
<path d="M1452 174.15C1439.95 174.15 1430.15 183.951 1430.15 195.999C1430.15 208.048 1439.95 217.852 1452 217.852C1464.05 217.852 1473.85 208.048 1473.85 195.999C1473.85 183.951 1464.05 174.15 1452 174.15ZM1452 214.446C1441.83 214.446 1433.55 206.171 1433.55 195.999C1433.55 185.827 1441.83 177.555 1452 177.555C1462.17 177.555 1470.44 185.827 1470.44 195.999C1470.44 206.171 1462.17 214.446 1452 214.446Z" fill="url(#paint2_radial_4222_18447)"/>
<path d="M1459.06 213.042C1468.47 209.144 1472.94 198.353 1469.04 188.941C1465.14 179.529 1454.35 175.06 1444.94 178.958C1435.53 182.857 1431.06 193.647 1434.96 203.059C1438.86 212.472 1449.65 216.941 1459.06 213.042Z" fill="#56EBFF"/>
<path d="M142 136.068C159.71 136.068 174.068 121.711 174.068 104C174.068 86.2896 159.71 71.9323 142 71.9323C124.289 71.9323 109.932 86.2896 109.932 104C109.932 121.711 124.289 136.068 142 136.068Z" fill="#49B5C4"/>
<path d="M151.665 127.335C164.553 121.996 170.673 107.222 165.335 94.3345C159.996 81.4472 145.222 75.3274 132.335 80.6655C119.447 86.0036 113.327 100.778 118.665 113.665C124.004 126.553 138.778 132.673 151.665 127.335Z" fill="#56EBFF"/>
<path d="M141.998 82.1499C129.949 82.1499 120.148 91.9507 120.148 103.999C120.148 116.048 129.949 125.852 141.998 125.852C154.046 125.852 163.85 116.048 163.85 103.999C163.85 91.9507 154.05 82.1499 141.998 82.1499ZM141.998 122.446C131.829 122.446 123.554 114.171 123.554 103.999C123.554 93.8271 131.829 85.5553 141.998 85.5553C152.166 85.5553 160.445 93.8271 160.445 103.999C160.445 114.171 152.17 122.446 141.998 122.446Z" fill="url(#paint3_radial_4222_18447)"/>
<path d="M149.059 121.042C158.471 117.144 162.94 106.353 159.042 96.9413C155.143 87.5292 144.353 83.0596 134.941 86.9583C125.528 90.8569 121.059 101.647 124.958 111.059C128.856 120.472 139.647 124.941 149.059 121.042Z" fill="#56EBFF"/>
<path d="M235 228.068C252.71 228.068 267.068 213.711 267.068 196C267.068 178.29 252.71 163.932 235 163.932C217.289 163.932 202.932 178.29 202.932 196C202.932 213.711 217.289 228.068 235 228.068Z" fill="#49B5C4"/>
<path d="M244.665 219.335C257.553 213.996 263.673 199.222 258.335 186.335C252.996 173.447 238.222 167.327 225.335 172.665C212.447 178.004 206.327 192.778 211.665 205.665C217.004 218.553 231.778 224.673 244.665 219.335Z" fill="#56EBFF"/>
<path d="M234.998 174.15C222.949 174.15 213.148 183.951 213.148 195.999C213.148 208.048 222.949 217.852 234.998 217.852C247.046 217.852 256.85 208.048 256.85 195.999C256.85 183.951 247.05 174.15 234.998 174.15ZM234.998 214.446C224.829 214.446 216.554 206.171 216.554 195.999C216.554 185.827 224.829 177.555 234.998 177.555C245.166 177.555 253.445 185.827 253.445 195.999C253.445 206.171 245.17 214.446 234.998 214.446Z" fill="url(#paint4_radial_4222_18447)"/>
<path d="M242.059 213.042C251.471 209.144 255.94 198.353 252.042 188.941C248.143 179.529 237.353 175.06 227.941 178.958C218.528 182.857 214.059 193.647 217.958 203.059C221.856 212.472 232.647 216.941 242.059 213.042Z" fill="#56EBFF"/>
<path d="M143 228.068C160.71 228.068 175.068 213.711 175.068 196C175.068 178.29 160.71 163.932 143 163.932C125.289 163.932 110.932 178.29 110.932 196C110.932 213.711 125.289 228.068 143 228.068Z" fill="#49B5C4"/>
<path d="M152.665 219.335C165.553 213.996 171.673 199.222 166.335 186.335C160.996 173.447 146.222 167.327 133.335 172.665C120.447 178.004 114.327 192.778 119.665 205.665C125.004 218.553 139.778 224.673 152.665 219.335Z" fill="#56EBFF"/>
<path d="M142.998 174.15C130.949 174.15 121.148 183.951 121.148 195.999C121.148 208.048 130.949 217.852 142.998 217.852C155.046 217.852 164.85 208.048 164.85 195.999C164.85 183.951 155.05 174.15 142.998 174.15ZM142.998 214.446C132.829 214.446 124.554 206.171 124.554 195.999C124.554 185.827 132.829 177.555 142.998 177.555C153.166 177.555 161.445 185.827 161.445 195.999C161.445 206.171 153.17 214.446 142.998 214.446Z" fill="url(#paint5_radial_4222_18447)"/>
<path d="M150.059 213.042C159.471 209.144 163.94 198.353 160.042 188.941C156.143 179.529 145.353 175.06 135.941 178.958C126.528 182.857 122.059 193.647 125.958 203.059C129.856 212.472 140.647 216.941 150.059 213.042Z" fill="#56EBFF"/>
<path d="M1266 229.068C1283.71 229.068 1298.07 214.711 1298.07 197C1298.07 179.29 1283.71 164.932 1266 164.932C1248.29 164.932 1233.93 179.29 1233.93 197C1233.93 214.711 1248.29 229.068 1266 229.068Z" fill="#B3D707"/>
<path d="M1275.67 220.335C1288.55 214.996 1294.67 200.222 1289.33 187.335C1284 174.447 1269.22 168.327 1256.33 173.665C1243.45 179.004 1237.33 193.778 1242.67 206.665C1248 219.553 1262.78 225.673 1275.67 220.335Z" fill="#D2FF00"/>
<path d="M1266 175.15C1253.95 175.15 1244.15 184.951 1244.15 196.999C1244.15 209.048 1253.95 218.852 1266 218.852C1278.05 218.852 1287.85 209.048 1287.85 196.999C1287.85 184.951 1278.05 175.15 1266 175.15ZM1266 215.446C1255.83 215.446 1247.55 207.171 1247.55 196.999C1247.55 186.827 1255.83 178.555 1266 178.555C1276.17 178.555 1284.44 186.827 1284.44 196.999C1284.44 207.171 1276.17 215.446 1266 215.446Z" fill="url(#paint6_radial_4222_18447)"/>
<path d="M1273.06 214.042C1282.47 210.144 1286.94 199.353 1283.04 189.941C1279.14 180.529 1268.35 176.06 1258.94 179.958C1249.53 183.857 1245.06 194.647 1248.96 204.059C1252.86 213.472 1263.65 217.941 1273.06 214.042Z" fill="#D2FF00"/>
<path d="M46.9996 228.068C64.7103 228.068 79.0676 213.711 79.0676 196C79.0676 178.29 64.7103 163.932 46.9996 163.932C29.289 163.932 14.9316 178.29 14.9316 196C14.9316 213.711 29.289 228.068 46.9996 228.068Z" fill="#B3D707"/>
<path d="M56.6655 219.335C69.5528 213.996 75.6726 199.222 70.3345 186.335C64.9964 173.447 50.2218 167.327 37.3345 172.665C24.4472 178.004 18.3274 192.778 23.6655 205.665C29.0036 218.553 43.7782 224.673 56.6655 219.335Z" fill="#D2FF00"/>
<path d="M46.9977 174.15C34.9493 174.15 25.1484 183.951 25.1484 195.999C25.1484 208.048 34.9493 217.852 46.9977 217.852C59.0462 217.852 68.8504 208.048 68.8504 195.999C68.8504 183.951 59.0496 174.15 46.9977 174.15ZM46.9977 214.446C36.8291 214.446 28.5539 206.171 28.5539 195.999C28.5539 185.827 36.8291 177.555 46.9977 177.555C57.1664 177.555 65.445 185.827 65.445 195.999C65.445 206.171 57.1698 214.446 46.9977 214.446Z" fill="url(#paint7_radial_4222_18447)"/>
<path d="M54.0587 213.042C63.4708 209.144 67.9403 198.353 64.0417 188.941C60.1431 179.529 49.3526 175.06 39.9405 178.958C30.5284 182.857 26.0589 193.647 29.9575 203.059C33.8561 212.472 44.6466 216.941 54.0587 213.042Z" fill="#D2FF00"/>
<path d="M234 45.0682C251.71 45.0682 266.068 30.7109 266.068 13.0002C266.068 -4.71042 251.71 -19.0677 234 -19.0677C216.289 -19.0677 201.932 -4.71042 201.932 13.0002C201.932 30.7109 216.289 45.0682 234 45.0682Z" fill="#B3D707"/>
<path d="M243.665 36.3345C256.553 30.9964 262.673 16.2218 257.335 3.3345C251.996 -9.5528 237.222 -15.6726 224.335 -10.3345C211.447 -4.99645 205.327 9.77815 210.665 22.6655C216.004 35.5528 230.778 41.6726 243.665 36.3345Z" fill="#D2FF00"/>
<path d="M233.998 -8.8501C221.949 -8.8501 212.148 0.950752 212.148 12.9992C212.148 25.0476 221.949 34.8519 233.998 34.8519C246.046 34.8519 255.85 25.0476 255.85 12.9992C255.85 0.950752 246.05 -8.8501 233.998 -8.8501ZM233.998 31.4464C223.829 31.4464 215.554 23.1712 215.554 12.9992C215.554 2.82715 223.829 -5.44466 233.998 -5.44466C244.166 -5.44466 252.445 2.82715 252.445 12.9992C252.445 23.1712 244.17 31.4464 233.998 31.4464Z" fill="url(#paint8_radial_4222_18447)"/>
<path d="M241.059 30.0425C250.471 26.1438 254.94 15.3534 251.042 5.9413C247.143 -3.47079 236.353 -7.94035 226.941 -4.04173C217.528 -0.143118 213.059 10.6473 216.958 20.0594C220.856 29.4715 231.647 33.9411 241.059 30.0425Z" fill="#D2FF00"/>
<path d="M1359 136.068C1376.71 136.068 1391.07 121.711 1391.07 104C1391.07 86.2896 1376.71 71.9323 1359 71.9323C1341.29 71.9323 1326.93 86.2896 1326.93 104C1326.93 121.711 1341.29 136.068 1359 136.068Z" fill="#B3D707"/>
<path d="M1368.67 127.335C1381.55 121.996 1387.67 107.222 1382.33 94.3345C1377 81.4472 1362.22 75.3274 1349.33 80.6655C1336.45 86.0036 1330.33 100.778 1335.67 113.665C1341 126.553 1355.78 132.673 1368.67 127.335Z" fill="#D2FF00"/>
<path d="M1359 82.1499C1346.95 82.1499 1337.15 91.9508 1337.15 103.999C1337.15 116.048 1346.95 125.852 1359 125.852C1371.05 125.852 1380.85 116.048 1380.85 103.999C1380.85 91.9508 1371.05 82.1499 1359 82.1499ZM1359 122.446C1348.83 122.446 1340.55 114.171 1340.55 103.999C1340.55 93.8271 1348.83 85.5553 1359 85.5553C1369.17 85.5553 1377.44 93.8271 1377.44 103.999C1377.44 114.171 1369.17 122.446 1359 122.446Z" fill="url(#paint9_radial_4222_18447)"/>
<path d="M1366.06 121.042C1375.47 117.144 1379.94 106.353 1376.04 96.9413C1372.14 87.5292 1361.35 83.0597 1351.94 86.9583C1342.53 90.8569 1338.06 101.647 1341.96 111.059C1345.86 120.472 1356.65 124.941 1366.06 121.042Z" fill="#D2FF00"/>
</g>
<mask id="path-62-outside-1_4222_18447" maskUnits="userSpaceOnUse" x="361.562" y="54.2252" width="819" height="195" fill="black">
<rect fill="white" x="361.562" y="54.2252" width="819" height="195"/>
<path d="M425.754 143.525L464.174 126.6H430.324L425.754 143.525ZM425.754 143.525L407.644 211.225L364.739 245.075L405.528 92.7496H507.079L493.454 143.525L464.681 156.219L488.038 211.225H449.957L425.754 143.525ZM572.257 151.987L530.96 211.225H497.11L594.937 67.362L615.585 211.225H581.735L572.257 151.987ZM684.826 160.45L671.201 211.225L628.296 245.075L678.14 58.8995L720.961 151.987L736.786 92.7496H770.636L729.847 245.075L684.826 160.45ZM816.266 177.375H850.116L863.741 126.6H796.041L805.095 92.7496H906.646L874.911 211.225H773.361L793.756 135.062H827.606L816.266 177.375ZM987.057 126.6H932.05L941.105 92.7496H1042.66L1033.6 126.6L964.97 177.375H1019.98L1010.92 211.225H909.371L918.426 177.375L987.057 126.6ZM1110.97 92.7496L1088.29 177.375H1122.14L1144.82 92.7496H1178.67L1146.93 211.225H1045.38L1077.12 92.7496H1110.97Z"/>
</mask>
<path d="M425.754 143.525L464.174 126.6H430.324L425.754 143.525ZM425.754 143.525L407.644 211.225L364.739 245.075L405.528 92.7496H507.079L493.454 143.525L464.681 156.219L488.038 211.225H449.957L425.754 143.525ZM572.257 151.987L530.96 211.225H497.11L594.937 67.362L615.585 211.225H581.735L572.257 151.987ZM684.826 160.45L671.201 211.225L628.296 245.075L678.14 58.8995L720.961 151.987L736.786 92.7496H770.636L729.847 245.075L684.826 160.45ZM816.266 177.375H850.116L863.741 126.6H796.041L805.095 92.7496H906.646L874.911 211.225H773.361L793.756 135.062H827.606L816.266 177.375ZM987.057 126.6H932.05L941.105 92.7496H1042.66L1033.6 126.6L964.97 177.375H1019.98L1010.92 211.225H909.371L918.426 177.375L987.057 126.6ZM1110.97 92.7496L1088.29 177.375H1122.14L1144.82 92.7496H1178.67L1146.93 211.225H1045.38L1077.12 92.7496H1110.97Z" fill="url(#paint10_linear_4222_18447)"/>
<path d="M425.754 143.525L424.43 143.168L423.683 145.935L426.306 144.779L425.754 143.525ZM464.174 126.6L464.726 127.854L464.174 125.229V126.6ZM430.324 126.6V125.229H429.274L429 126.242L430.324 126.6ZM425.754 143.525L427.045 143.063L425.565 138.925L424.429 143.171L425.754 143.525ZM407.644 211.225L408.493 212.301L408.851 212.019L408.968 211.579L407.644 211.225ZM364.739 245.075L363.415 244.721L362.347 248.709L365.588 246.152L364.739 245.075ZM405.528 92.7496V91.3788H404.476L404.204 92.395L405.528 92.7496ZM507.079 92.7496L508.403 93.1049L508.866 91.3788H507.079V92.7496ZM493.454 143.525L494.007 144.779L494.608 144.514L494.778 143.88L493.454 143.525ZM464.681 156.219L464.128 154.964L462.891 155.51L463.42 156.754L464.681 156.219ZM488.038 211.225V212.596H490.109L489.3 210.689L488.038 211.225ZM449.957 211.225L448.666 211.687L448.991 212.596H449.957V211.225ZM426.306 144.779L464.726 127.854L463.621 125.345L425.201 142.27L426.306 144.779ZM464.174 125.229H430.324V127.971H464.174V125.229ZM429 126.242L424.43 143.168L427.077 143.882L431.647 126.957L429 126.242ZM424.429 143.171L406.32 210.871L408.968 211.579L427.078 143.879L424.429 143.171ZM406.795 210.149L363.89 243.999L365.588 246.152L408.493 212.301L406.795 210.149ZM366.063 245.43L406.852 93.1042L404.204 92.395L363.415 244.721L366.063 245.43ZM405.528 94.1205H507.079V91.3788H405.528V94.1205ZM505.755 92.3943L492.13 143.17L494.778 143.88L508.403 93.1049L505.755 92.3943ZM492.901 142.271L464.128 154.964L465.235 157.473L494.007 144.779L492.901 142.271ZM463.42 156.754L486.776 211.761L489.3 210.689L465.943 155.683L463.42 156.754ZM488.038 209.854H449.957V212.596H488.038V209.854ZM451.247 210.764L427.045 143.063L424.463 143.986L448.666 211.687L451.247 210.764ZM572.257 151.987L573.611 151.771L573.074 148.418L571.133 151.203L572.257 151.987ZM530.96 211.225V212.596H531.675L532.085 212.009L530.96 211.225ZM497.11 211.225L495.976 210.454L494.52 212.596H497.11V211.225ZM594.937 67.362L596.294 67.1673L595.791 63.6673L593.803 66.5912L594.937 67.362ZM615.585 211.225V212.596H617.167L616.942 211.03L615.585 211.225ZM581.735 211.225L580.382 211.442L580.566 212.596H581.735V211.225ZM571.133 151.203L529.835 210.441L532.085 212.009L573.382 152.771L571.133 151.203ZM530.96 209.854H497.11V212.596H530.96V209.854ZM498.243 211.996L596.07 68.1329L593.803 66.5912L495.976 210.454L498.243 211.996ZM593.58 67.5568L614.228 211.42L616.942 211.03L596.294 67.1673L593.58 67.5568ZM615.585 209.854H581.735V212.596H615.585V209.854ZM583.089 211.009L573.611 151.771L570.904 152.204L580.382 211.442L583.089 211.009ZM684.826 160.45L686.036 159.806L684.403 156.736L683.502 160.095L684.826 160.45ZM671.201 211.225L672.05 212.301L672.407 212.02L672.525 211.58L671.201 211.225ZM628.296 245.075L626.972 244.721L625.904 248.709L629.145 246.152L628.296 245.075ZM678.14 58.8995L679.386 58.3266L677.799 54.8759L676.816 58.5449L678.14 58.8995ZM720.961 151.987L719.716 152.56L721.304 156.014L722.285 152.341L720.961 151.987ZM736.786 92.7496V91.3788H735.733L735.461 92.3958L736.786 92.7496ZM770.636 92.7496L771.96 93.1042L772.422 91.3788H770.636V92.7496ZM729.847 245.075L728.636 245.719L730.271 248.791L731.171 245.43L729.847 245.075ZM683.502 160.095L669.877 210.87L672.525 211.58L686.15 160.805L683.502 160.095ZM670.352 210.149L627.447 243.999L629.145 246.152L672.05 212.301L670.352 210.149ZM629.62 245.43L679.465 59.254L676.816 58.5449L626.972 244.721L629.62 245.43ZM676.895 59.4724L719.716 152.56L722.206 151.415L679.386 58.3266L676.895 59.4724ZM722.285 152.341L738.11 93.1034L735.461 92.3958L719.637 151.634L722.285 152.341ZM736.786 94.1205H770.636V91.3788H736.786V94.1205ZM769.312 92.395L728.522 244.721L731.171 245.43L771.96 93.1042L769.312 92.395ZM731.057 244.431L686.036 159.806L683.616 161.094L728.636 245.719L731.057 244.431ZM816.266 177.375L814.942 177.02L814.479 178.746H816.266V177.375ZM850.116 177.375V178.746H851.168L851.44 177.73L850.116 177.375ZM863.741 126.6L865.065 126.955L865.528 125.229H863.741V126.6ZM796.041 126.6L794.716 126.246L794.255 127.971H796.041V126.6ZM805.095 92.7496V91.3788H804.043L803.771 92.3954L805.095 92.7496ZM906.646 92.7496L907.97 93.1043L908.432 91.3788H906.646V92.7496ZM874.911 211.225V212.596H875.963L876.236 211.58L874.911 211.225ZM773.361 211.225L772.037 210.871L771.575 212.596H773.361V211.225ZM793.756 135.062V133.691H792.704L792.431 134.708L793.756 135.062ZM827.606 135.062L828.93 135.417L829.392 133.691H827.606V135.062ZM816.266 178.746H850.116V176.004H816.266V178.746ZM851.44 177.73L865.065 126.955L862.417 126.244L848.792 177.02L851.44 177.73ZM863.741 125.229H796.041V127.971H863.741V125.229ZM797.365 126.954L806.42 93.1039L803.771 92.3954L794.716 126.246L797.365 126.954ZM805.095 94.1205H906.646V91.3788H805.095V94.1205ZM905.322 92.3949L873.587 210.87L876.236 211.58L907.97 93.1043L905.322 92.3949ZM874.911 209.854H773.361V212.596H874.911V209.854ZM774.685 211.58L795.08 135.417L792.431 134.708L772.037 210.871L774.685 211.58ZM793.756 136.433H827.606V133.691H793.756V136.433ZM826.282 134.707L814.942 177.02L817.59 177.73L828.93 135.417L826.282 134.707ZM987.057 126.6L987.872 127.702L991.215 125.229H987.057V126.6ZM932.05 126.6L930.726 126.246L930.265 127.971H932.05V126.6ZM941.105 92.7496V91.3788H940.053L939.781 92.3954L941.105 92.7496ZM1042.66 92.7496L1043.98 93.1039L1044.44 91.3788H1042.66V92.7496ZM1033.6 126.6L1034.42 127.702L1034.8 127.417L1034.93 126.954L1033.6 126.6ZM964.97 177.375L964.154 176.273L960.812 178.746H964.97V177.375ZM1019.98 177.375L1021.3 177.729L1021.76 176.004H1019.98V177.375ZM1010.92 211.225V212.596H1011.97L1012.25 211.579L1010.92 211.225ZM909.371 211.225L908.047 210.871L907.585 212.596H909.371V211.225ZM918.426 177.375L917.61 176.273L917.225 176.558L917.102 177.021L918.426 177.375ZM987.057 125.229H932.05V127.971H987.057V125.229ZM933.375 126.954L942.43 93.1039L939.781 92.3954L930.726 126.246L933.375 126.954ZM941.105 94.1205H1042.66V91.3788H941.105V94.1205ZM1041.33 92.3954L1032.28 126.246L1034.93 126.954L1043.98 93.1039L1041.33 92.3954ZM1032.79 125.498L964.154 176.273L965.785 178.477L1034.42 127.702L1032.79 125.498ZM964.97 178.746H1019.98V176.004H964.97V178.746ZM1018.65 177.021L1009.6 210.871L1012.25 211.579L1021.3 177.729L1018.65 177.021ZM1010.92 209.854H909.371V212.596H1010.92V209.854ZM910.695 211.579L919.75 177.729L917.102 177.021L908.047 210.871L910.695 211.579ZM919.241 178.477L987.872 127.702L986.242 125.498L917.61 176.273L919.241 178.477ZM1110.97 92.7496L1112.29 93.1045L1112.75 91.3788H1110.97V92.7496ZM1088.29 177.375L1086.96 177.02L1086.5 178.746H1088.29V177.375ZM1122.14 177.375V178.746H1123.19L1123.46 177.73L1122.14 177.375ZM1144.82 92.7496V91.3788H1143.76L1143.49 92.3948L1144.82 92.7496ZM1178.67 92.7496L1179.99 93.1043L1180.45 91.3788H1178.67V92.7496ZM1146.93 211.225V212.596H1147.98L1148.26 211.58L1146.93 211.225ZM1045.38 211.225L1044.06 210.87L1043.59 212.596H1045.38V211.225ZM1077.12 92.7496V91.3788H1076.06L1075.79 92.3949L1077.12 92.7496ZM1109.64 92.3948L1086.96 177.02L1089.61 177.73L1112.29 93.1045L1109.64 92.3948ZM1088.29 178.746H1122.14V176.004H1088.29V178.746ZM1123.46 177.73L1146.14 93.1045L1143.49 92.3948L1120.81 177.02L1123.46 177.73ZM1144.82 94.1205H1178.67V91.3788H1144.82V94.1205ZM1177.34 92.3949L1145.61 210.87L1148.26 211.58L1179.99 93.1043L1177.34 92.3949ZM1146.93 209.854H1045.38V212.596H1146.93V209.854ZM1046.7 211.58L1078.44 93.1043L1075.79 92.3949L1044.06 210.87L1046.7 211.58ZM1077.12 94.1205H1110.97V91.3788H1077.12V94.1205Z" fill="#D2FF00" mask="url(#path-62-outside-1_4222_18447)"/>
<mask id="path-64-outside-2_4222_18447" maskUnits="userSpaceOnUse" x="341" y="46" width="819" height="195" fill="black">
<rect fill="white" x="341" y="46" width="819" height="195"/>
<path d="M405.191 135.3L443.611 118.375H409.761L405.191 135.3ZM405.191 135.3L387.081 203L344.176 236.85L384.966 84.5245H486.516L472.892 135.3L444.119 147.994L467.476 203H429.394L405.191 135.3ZM551.695 143.762L510.398 203H476.547L574.374 59.1369L595.023 203H561.173L551.695 143.762ZM664.263 152.225L650.639 203L607.734 236.85L657.578 50.6743L700.398 143.762L716.223 84.5245H750.074L709.284 236.85L664.263 152.225ZM795.704 169.15H829.554L843.178 118.375H775.478L784.533 84.5245H886.083L854.349 203H752.798L773.193 126.837H807.043L795.704 169.15ZM966.494 118.375H911.488L920.543 84.5245H1022.09L1013.04 118.375L944.407 169.15H999.414L990.359 203H888.808L897.863 169.15L966.494 118.375ZM1090.4 84.5245L1067.72 169.15H1101.57L1124.25 84.5245H1158.1L1126.37 203H1024.82L1056.55 84.5245H1090.4Z"/>
</mask>
<path d="M405.191 135.3L443.611 118.375H409.761L405.191 135.3ZM405.191 135.3L387.081 203L344.176 236.85L384.966 84.5245H486.516L472.892 135.3L444.119 147.994L467.476 203H429.394L405.191 135.3ZM551.695 143.762L510.398 203H476.547L574.374 59.1369L595.023 203H561.173L551.695 143.762ZM664.263 152.225L650.639 203L607.734 236.85L657.578 50.6743L700.398 143.762L716.223 84.5245H750.074L709.284 236.85L664.263 152.225ZM795.704 169.15H829.554L843.178 118.375H775.478L784.533 84.5245H886.083L854.349 203H752.798L773.193 126.837H807.043L795.704 169.15ZM966.494 118.375H911.488L920.543 84.5245H1022.09L1013.04 118.375L944.407 169.15H999.414L990.359 203H888.808L897.863 169.15L966.494 118.375ZM1090.4 84.5245L1067.72 169.15H1101.57L1124.25 84.5245H1158.1L1126.37 203H1024.82L1056.55 84.5245H1090.4Z" fill="#D2FF00"/>
<path d="M405.191 135.3L403.868 134.942L403.121 137.71L405.744 136.554L405.191 135.3ZM443.611 118.375L444.164 119.629L443.611 117.004V118.375ZM409.761 118.375V117.004H408.711L408.438 118.017L409.761 118.375ZM405.191 135.3L406.482 134.838L405.003 130.7L403.867 134.945L405.191 135.3ZM387.081 203L387.931 204.076L388.288 203.794L388.406 203.354L387.081 203ZM344.176 236.85L342.852 236.496L341.784 240.484L345.025 237.926L344.176 236.85ZM384.966 84.5245V83.1536H383.914L383.642 84.1699L384.966 84.5245ZM486.516 84.5245L487.84 84.8797L488.303 83.1536H486.516V84.5245ZM472.892 135.3L473.445 136.554L474.045 136.289L474.216 135.655L472.892 135.3ZM444.119 147.994L443.566 146.739L442.329 147.285L442.857 148.529L444.119 147.994ZM467.476 203V204.371H469.547L468.737 202.464L467.476 203ZM429.394 203L428.103 203.461L428.428 204.371H429.394V203ZM405.744 136.554L444.164 119.629L443.059 117.12L404.639 134.045L405.744 136.554ZM443.611 117.004H409.761V119.745H443.611V117.004ZM408.438 118.017L403.868 134.942L406.515 135.657L411.084 118.732L408.438 118.017ZM403.867 134.945L385.757 202.646L388.406 203.354L406.516 135.654L403.867 134.945ZM386.232 201.924L343.327 235.774L345.025 237.926L387.931 204.076L386.232 201.924ZM345.501 237.205L386.29 84.8791L383.642 84.1699L342.852 236.496L345.501 237.205ZM384.966 85.8953H486.516V83.1536H384.966V85.8953ZM485.192 84.1692L471.568 134.944L474.216 135.655L487.84 84.8797L485.192 84.1692ZM472.338 134.045L443.566 146.739L444.672 149.248L473.445 136.554L472.338 134.045ZM442.857 148.529L466.214 203.536L468.737 202.464L445.381 147.458L442.857 148.529ZM467.476 201.629H429.394V204.371H467.476V201.629ZM430.685 202.539L406.482 134.838L403.9 135.761L428.103 203.461L430.685 202.539ZM551.695 143.762L553.048 143.546L552.512 140.193L550.57 142.978L551.695 143.762ZM510.398 203V204.371H511.113L511.522 203.784L510.398 203ZM476.547 203L475.414 202.229L473.957 204.371H476.547V203ZM574.374 59.1369L575.731 58.9421L575.229 55.4422L573.241 58.366L574.374 59.1369ZM595.023 203V204.371H596.605L596.38 202.805L595.023 203ZM561.173 203L559.819 203.217L560.004 204.371H561.173V203ZM550.57 142.978L509.273 202.216L511.522 203.784L552.819 144.546L550.57 142.978ZM510.398 201.629H476.547V204.371H510.398V201.629ZM477.681 203.771L575.508 59.9077L573.241 58.366L475.414 202.229L477.681 203.771ZM573.017 59.3316L593.666 203.195L596.38 202.805L575.731 58.9421L573.017 59.3316ZM595.023 201.629H561.173V204.371H595.023V201.629ZM562.526 202.783L553.048 143.546L550.341 143.979L559.819 203.217L562.526 202.783ZM664.263 152.225L665.474 151.581L663.841 148.511L662.939 151.869L664.263 152.225ZM650.639 203L651.488 204.076L651.845 203.795L651.963 203.355L650.639 203ZM607.734 236.85L606.409 236.496L605.342 240.483L608.583 237.926L607.734 236.85ZM657.578 50.6743L658.823 50.1014L657.236 46.6507L656.254 50.3198L657.578 50.6743ZM700.398 143.762L699.153 144.335L700.742 147.789L701.723 144.116L700.398 143.762ZM716.223 84.5245V83.1536H715.171L714.899 84.1707L716.223 84.5245ZM750.074 84.5245L751.398 84.8791L751.86 83.1536H750.074V84.5245ZM709.284 236.85L708.074 237.494L709.708 240.566L710.608 237.205L709.284 236.85ZM662.939 151.869L649.315 202.645L651.963 203.355L665.587 152.58L662.939 151.869ZM649.79 201.924L606.885 235.774L608.583 237.926L651.488 204.076L649.79 201.924ZM609.058 237.205L658.902 51.0288L656.254 50.3198L606.409 236.496L609.058 237.205ZM656.333 51.2472L699.153 144.335L701.644 143.189L658.823 50.1014L656.333 51.2472ZM701.723 144.116L717.548 84.8783L714.899 84.1707L699.074 143.408L701.723 144.116ZM716.223 85.8953H750.074V83.1536H716.223V85.8953ZM748.749 84.1699L707.96 236.496L710.608 237.205L751.398 84.8791L748.749 84.1699ZM710.494 236.206L665.474 151.581L663.053 152.869L708.074 237.494L710.494 236.206ZM795.704 169.15L794.379 168.795L793.917 170.521H795.704V169.15ZM829.554 169.15V170.521H830.605L830.878 169.505L829.554 169.15ZM843.178 118.375L844.502 118.73L844.966 117.004H843.178V118.375ZM775.478 118.375L774.154 118.02L773.692 119.745H775.478V118.375ZM784.533 84.5245V83.1536H783.481L783.209 84.1702L784.533 84.5245ZM886.083 84.5245L887.408 84.8792L887.87 83.1536H886.083V84.5245ZM854.349 203V204.371H855.401L855.673 203.355L854.349 203ZM752.798 203L751.474 202.645L751.012 204.371H752.798V203ZM773.193 126.837V125.466H772.141L771.869 126.483L773.193 126.837ZM807.043 126.837L808.367 127.192L808.83 125.466H807.043V126.837ZM795.704 170.521H829.554V167.779H795.704V170.521ZM830.878 169.505L844.502 118.73L841.854 118.019L828.23 168.795L830.878 169.505ZM843.178 117.004H775.478V119.745H843.178V117.004ZM776.802 118.729L785.857 84.8787L783.209 84.1702L774.154 118.02L776.802 118.729ZM784.533 85.8953H886.083V83.1536H784.533V85.8953ZM884.759 84.1698L853.025 202.645L855.673 203.355L887.408 84.8792L884.759 84.1698ZM854.349 201.629H752.798V204.371H854.349V201.629ZM754.123 203.355L774.517 127.192L771.869 126.483L751.474 202.645L754.123 203.355ZM773.193 128.208H807.043V125.466H773.193V128.208ZM805.719 126.482L794.379 168.795L797.028 169.505L808.367 127.192L805.719 126.482ZM966.494 118.375L967.31 119.477L970.652 117.004H966.494V118.375ZM911.488 118.375L910.164 118.02L909.702 119.745H911.488V118.375ZM920.543 84.5245V83.1536H919.491L919.219 84.1702L920.543 84.5245ZM1022.09 84.5245L1023.42 84.8787L1023.88 83.1536H1022.09V84.5245ZM1013.04 118.375L1013.85 119.477L1014.24 119.192L1014.36 118.729L1013.04 118.375ZM944.407 169.15L943.592 168.048L940.249 170.521H944.407V169.15ZM999.414 169.15L1000.74 169.504L1001.2 167.779H999.414V169.15ZM990.359 203V204.371H991.411L991.683 203.354L990.359 203ZM888.808 203L887.484 202.646L887.023 204.371H888.808V203ZM897.863 169.15L897.048 168.048L896.663 168.333L896.539 168.796L897.863 169.15ZM966.494 117.004H911.488V119.745H966.494V117.004ZM912.812 118.729L921.867 84.8787L919.219 84.1702L910.164 118.02L912.812 118.729ZM920.543 85.8953H1022.09V83.1536H920.543V85.8953ZM1020.77 84.1702L1011.71 118.02L1014.36 118.729L1023.42 84.8787L1020.77 84.1702ZM1012.22 117.273L943.592 168.048L945.223 170.252L1013.85 119.477L1012.22 117.273ZM944.407 170.521H999.414V167.779H944.407V170.521ZM998.089 168.796L989.034 202.646L991.683 203.354L1000.74 169.504L998.089 168.796ZM990.359 201.629H888.808V204.371H990.359V201.629ZM890.133 203.354L899.188 169.504L896.539 168.796L887.484 202.646L890.133 203.354ZM898.679 170.252L967.31 119.477L965.679 117.273L897.048 168.048L898.679 170.252ZM1090.4 84.5245L1091.73 84.8793L1092.19 83.1536H1090.4V84.5245ZM1067.72 169.15L1066.4 168.795L1065.94 170.521H1067.72V169.15ZM1101.57 169.15V170.521H1102.63L1102.9 169.505L1101.57 169.15ZM1124.25 84.5245V83.1536H1123.2L1122.93 84.1696L1124.25 84.5245ZM1158.1 84.5245L1159.43 84.8792L1159.89 83.1536H1158.1V84.5245ZM1126.37 203V204.371H1127.42L1127.69 203.355L1126.37 203ZM1024.82 203L1023.49 202.645L1023.03 204.371H1024.82V203ZM1056.55 84.5245V83.1536H1055.5L1055.23 84.1698L1056.55 84.5245ZM1089.08 84.1696L1066.4 168.795L1069.05 169.505L1091.73 84.8793L1089.08 84.1696ZM1067.72 170.521H1101.57V167.779H1067.72V170.521ZM1102.9 169.505L1125.58 84.8793L1122.93 84.1696L1100.25 168.795L1102.9 169.505ZM1124.25 85.8953H1158.1V83.1536H1124.25V85.8953ZM1156.78 84.1698L1125.04 202.645L1127.69 203.355L1159.43 84.8792L1156.78 84.1698ZM1126.37 201.629H1024.82V204.371H1126.37V201.629ZM1026.14 203.355L1057.88 84.8792L1055.23 84.1698L1023.49 202.645L1026.14 203.355ZM1056.55 85.8953H1090.4V83.1536H1056.55V85.8953Z" fill="#D2FF00" mask="url(#path-64-outside-2_4222_18447)"/>
<defs>
<radialGradient id="paint0_radial_4222_18447" cx="0" cy="0" r="1" gradientUnits="userSpaceOnUse" gradientTransform="translate(1359 198.001) scale(21.851 21.851)">
<stop stop-color="#40919C"/>
<stop offset="0.472" stop-color="#40929D"/>
<stop offset="0.641" stop-color="#4198A4"/>
<stop offset="0.762" stop-color="#44A3B0"/>
<stop offset="0.86" stop-color="#48B3C1"/>
<stop offset="0.943" stop-color="#4DC6D7"/>
<stop offset="1" stop-color="#52D9EB"/>
</radialGradient>
<radialGradient id="paint1_radial_4222_18447" cx="0" cy="0" r="1" gradientUnits="userSpaceOnUse" gradientTransform="translate(1266 289.001) scale(21.851 21.851)">
<stop stop-color="#40919C"/>
<stop offset="0.472" stop-color="#40929D"/>
<stop offset="0.641" stop-color="#4198A4"/>
<stop offset="0.762" stop-color="#44A3B0"/>
<stop offset="0.86" stop-color="#48B3C1"/>
<stop offset="0.943" stop-color="#4DC6D7"/>
<stop offset="1" stop-color="#52D9EB"/>
</radialGradient>
<radialGradient id="paint2_radial_4222_18447" cx="0" cy="0" r="1" gradientUnits="userSpaceOnUse" gradientTransform="translate(1452 196.001) scale(21.851 21.851)">
<stop stop-color="#40919C"/>
<stop offset="0.472" stop-color="#40929D"/>
<stop offset="0.641" stop-color="#4198A4"/>
<stop offset="0.762" stop-color="#44A3B0"/>
<stop offset="0.86" stop-color="#48B3C1"/>
<stop offset="0.943" stop-color="#4DC6D7"/>
<stop offset="1" stop-color="#52D9EB"/>
</radialGradient>
<radialGradient id="paint3_radial_4222_18447" cx="0" cy="0" r="1" gradientUnits="userSpaceOnUse" gradientTransform="translate(141.999 104.001) scale(21.851 21.851)">
<stop stop-color="#40919C"/>
<stop offset="0.472" stop-color="#40929D"/>
<stop offset="0.641" stop-color="#4198A4"/>
<stop offset="0.762" stop-color="#44A3B0"/>
<stop offset="0.86" stop-color="#48B3C1"/>
<stop offset="0.943" stop-color="#4DC6D7"/>
<stop offset="1" stop-color="#52D9EB"/>
</radialGradient>
<radialGradient id="paint4_radial_4222_18447" cx="0" cy="0" r="1" gradientUnits="userSpaceOnUse" gradientTransform="translate(234.999 196.001) scale(21.851 21.851)">
<stop stop-color="#40919C"/>
<stop offset="0.472" stop-color="#40929D"/>
<stop offset="0.641" stop-color="#4198A4"/>
<stop offset="0.762" stop-color="#44A3B0"/>
<stop offset="0.86" stop-color="#48B3C1"/>
<stop offset="0.943" stop-color="#4DC6D7"/>
<stop offset="1" stop-color="#52D9EB"/>
</radialGradient>
<radialGradient id="paint5_radial_4222_18447" cx="0" cy="0" r="1" gradientUnits="userSpaceOnUse" gradientTransform="translate(142.999 196.001) scale(21.851 21.851)">
<stop stop-color="#40919C"/>
<stop offset="0.472" stop-color="#40929D"/>
<stop offset="0.641" stop-color="#4198A4"/>
<stop offset="0.762" stop-color="#44A3B0"/>
<stop offset="0.86" stop-color="#48B3C1"/>
<stop offset="0.943" stop-color="#4DC6D7"/>
<stop offset="1" stop-color="#52D9EB"/>
</radialGradient>
<radialGradient id="paint6_radial_4222_18447" cx="0" cy="0" r="1" gradientUnits="userSpaceOnUse" gradientTransform="translate(1266 197.001) scale(21.851 21.851)">
<stop stop-color="#748814"/>
<stop offset="0.451" stop-color="#758913"/>
<stop offset="0.613" stop-color="#7A9012"/>
<stop offset="0.729" stop-color="#849C10"/>
<stop offset="0.822" stop-color="#91AD0D"/>
<stop offset="0.902" stop-color="#A2C309"/>
<stop offset="0.972" stop-color="#B7DD05"/>
<stop offset="1" stop-color="#C2EB03"/>
</radialGradient>
<radialGradient id="paint7_radial_4222_18447" cx="0" cy="0" r="1" gradientUnits="userSpaceOnUse" gradientTransform="translate(46.9994 196.001) scale(21.851 21.851)">
<stop stop-color="#748814"/>
<stop offset="0.451" stop-color="#758913"/>
<stop offset="0.613" stop-color="#7A9012"/>
<stop offset="0.729" stop-color="#849C10"/>
<stop offset="0.822" stop-color="#91AD0D"/>
<stop offset="0.902" stop-color="#A2C309"/>
<stop offset="0.972" stop-color="#B7DD05"/>
<stop offset="1" stop-color="#C2EB03"/>
</radialGradient>
<radialGradient id="paint8_radial_4222_18447" cx="0" cy="0" r="1" gradientUnits="userSpaceOnUse" gradientTransform="translate(233.999 13.0009) scale(21.851 21.851)">
<stop stop-color="#748814"/>
<stop offset="0.451" stop-color="#758913"/>
<stop offset="0.613" stop-color="#7A9012"/>
<stop offset="0.729" stop-color="#849C10"/>
<stop offset="0.822" stop-color="#91AD0D"/>
<stop offset="0.902" stop-color="#A2C309"/>
<stop offset="0.972" stop-color="#B7DD05"/>
<stop offset="1" stop-color="#C2EB03"/>
</radialGradient>
<radialGradient id="paint9_radial_4222_18447" cx="0" cy="0" r="1" gradientUnits="userSpaceOnUse" gradientTransform="translate(1359 104.001) scale(21.851 21.851)">
<stop stop-color="#748814"/>
<stop offset="0.451" stop-color="#758913"/>
<stop offset="0.613" stop-color="#7A9012"/>
<stop offset="0.729" stop-color="#849C10"/>
<stop offset="0.822" stop-color="#91AD0D"/>
<stop offset="0.902" stop-color="#A2C309"/>
<stop offset="0.972" stop-color="#B7DD05"/>
<stop offset="1" stop-color="#C2EB03"/>
</radialGradient>
<linearGradient id="paint10_linear_4222_18447" x1="826.745" y1="73.7838" x2="830.569" y2="205.659" gradientUnits="userSpaceOnUse">
<stop stop-color="#D2FF00"/>
<stop offset="1" stop-color="#252525"/>
</linearGradient>
</defs>
</svg>
