<svg width="201" height="200" viewBox="0 0 201 200" fill="none" xmlns="http://www.w3.org/2000/svg">
<path d="M183.004 2.99902H18.5435C10.1239 2.99902 3.29858 9.82439 3.29858 18.2439V182.705C3.29858 191.124 10.1239 197.95 18.5435 197.95H183.004C191.424 197.95 198.249 191.124 198.249 182.705V18.2439C198.249 9.82439 191.424 2.99902 183.004 2.99902Z" fill="#252525"/>
<path d="M174.158 143.408C175.998 144.168 177.311 145.801 177.858 147.681C169.119 147.481 160.453 145.834 152.208 142.968C154.787 140.248 158.887 139.382 162.4 140.735C163.306 141.082 164.199 141.602 164.946 142.235C165.859 143.015 166.666 144.088 168.019 143.848C168.506 143.761 168.932 143.501 169.392 143.335C169.912 143.148 170.452 143.015 170.999 142.961C172.072 142.861 173.165 143.001 174.165 143.415L174.158 143.408Z" fill="white"/>
<path d="M148.721 122.55H148.708H148.695H148.661C148.661 122.55 148.628 122.55 148.615 122.55H148.668C148.615 122.563 148.555 122.563 148.521 122.576C148.381 122.61 148.255 122.65 148.115 122.696C148.062 122.716 148.022 122.743 147.975 122.769C147.908 122.803 147.848 122.843 147.788 122.883C147.742 122.916 147.715 122.936 147.702 122.936L147.722 122.916C147.722 122.916 147.762 122.883 147.795 122.863C147.768 122.883 147.748 122.896 147.722 122.916C147.182 123.303 146.542 123.349 146.008 122.863C145.548 122.443 145.482 121.49 146.008 121.083C146.702 120.543 147.435 120.183 148.308 120.07C149.061 119.97 149.855 120.017 150.561 120.29C151.361 120.596 152.041 121.07 152.581 121.736C152.861 122.076 153.114 122.43 153.374 122.776C153.374 122.776 153.374 122.79 153.388 122.79C153.441 122.856 153.488 122.923 153.541 122.983C153.668 123.129 153.801 123.269 153.947 123.396C154.474 123.863 154.394 124.703 153.947 125.183C153.468 125.709 152.661 125.622 152.168 125.183C151.641 124.709 151.221 124.109 150.808 123.536C150.808 123.523 150.795 123.523 150.795 123.523C150.741 123.456 150.688 123.396 150.641 123.329C150.541 123.223 150.441 123.116 150.335 123.016C150.335 123.016 150.281 122.969 150.241 122.936C150.208 122.916 150.188 122.896 150.168 122.883C150.061 122.816 149.948 122.763 149.835 122.696C149.768 122.676 149.708 122.656 149.648 122.636C149.528 122.603 149.401 122.576 149.281 122.55L149.081 122.536C148.955 122.536 148.828 122.536 148.701 122.55H148.721Z" fill="white"/>
<path d="M128.771 173.425C128.844 175.531 127.864 177.571 126.451 179.077C123.905 181.784 119.825 183.037 116.225 182.017C112.806 181.051 110.113 177.798 109.78 174.245C109.566 172.005 110.306 169.938 111.619 168.132C112.299 167.199 113.152 166.372 114.039 165.632C114.326 165.392 114.632 165.159 114.959 164.946C115.199 164.959 115.432 164.912 115.632 164.772C115.992 164.526 116.372 164.333 116.765 164.173C116.899 164.153 117.025 164.133 117.159 164.126C117.479 164.113 117.732 163.993 117.925 163.826C119.038 163.619 120.198 163.699 121.325 164.039C123.265 164.632 124.898 166.026 126.131 167.605C127.371 169.212 128.697 171.338 128.777 173.418L128.771 173.425Z" fill="white"/>
<path d="M112.159 97.3465C112.252 97.3998 112.345 97.4598 112.439 97.5065C112.452 97.5198 112.452 97.5198 112.465 97.5198C112.479 97.5198 112.492 97.5198 112.518 97.5331C112.632 97.5665 112.745 97.6065 112.858 97.6265C112.898 97.6265 112.925 97.6398 112.945 97.6464C112.958 97.6464 112.965 97.6464 112.985 97.6464C113.092 97.6464 113.192 97.6598 113.298 97.6598C113.338 97.6598 113.538 97.6331 113.585 97.6331C113.765 97.5865 113.952 97.5331 114.138 97.4865C114.138 97.4865 114.143 97.4865 114.152 97.4865L114.272 97.4265C114.372 97.3732 114.465 97.3265 114.558 97.2665C114.592 97.2532 114.798 97.0999 114.818 97.0932C114.872 97.0399 114.932 96.9932 114.992 96.9399C115.178 96.7666 115.351 96.5733 115.518 96.3866C115.531 96.3666 115.545 96.3533 115.552 96.3466C115.565 96.3333 115.571 96.3133 115.585 96.2933C115.651 96.1866 115.718 96.0866 115.785 95.9866C114.452 95.3001 113.092 94.6801 111.699 94.1135L111.685 94.1269C111.685 94.1269 111.539 94.3469 111.512 94.3869C111.499 94.4002 111.445 94.5268 111.419 94.5601C111.385 94.6535 111.352 94.7468 111.332 94.8401C111.319 94.8735 111.285 95.0934 111.279 95.1134C111.265 95.2134 111.265 95.3134 111.265 95.4201C111.265 95.4601 111.305 95.7733 111.299 95.7733C111.319 95.88 111.339 95.98 111.372 96.0867C111.385 96.12 111.479 96.4 111.479 96.4266C111.525 96.5199 111.572 96.6266 111.625 96.7199C111.665 96.7932 111.705 96.8599 111.752 96.9332C111.785 96.9865 111.805 97.0132 111.819 97.0265C111.819 97.0265 111.819 97.0265 111.832 97.0399C111.832 97.0532 111.845 97.0599 111.859 97.0732C111.912 97.1332 111.972 97.1932 112.032 97.2465C112.065 97.2798 112.159 97.3398 112.185 97.3598C112.185 97.3598 112.172 97.3598 112.165 97.3598L112.159 97.3465ZM128.203 99.6196C129.836 99.5996 129.83 102.126 128.203 102.146C126.004 102.173 124.137 101.153 122.357 99.9862C120.391 101.239 118.358 102.419 116.125 103.126C114.178 103.739 112.099 103.919 110.099 103.466C108.239 103.053 106.559 102.093 105.099 100.899C102.006 98.353 100.3 94.5668 99.0601 90.8406C97.1403 90.6006 95.2072 90.474 93.2674 90.4673C91.6343 90.4673 91.6409 87.9409 93.2674 87.9409C94.3406 87.9409 95.4205 87.9942 96.4937 88.0676C95.6538 87.3477 94.9272 86.5011 94.3273 85.5612C92.0742 82.0283 92.1142 77.4022 94.294 73.8426C95.1405 72.4627 97.3203 73.7293 96.4671 75.1224C94.6939 78.0154 94.7339 81.6217 96.607 84.4547C98.0335 86.5944 100.2 87.6276 102.533 88.3009C99.5733 84.6413 98.2202 79.6219 101.033 75.5624C101.42 75.0024 102.126 74.7425 102.76 75.1158C103.313 75.4357 103.6 76.2823 103.206 76.8422C99.8267 81.7217 104.259 88.0276 108.846 90.1607C109.019 90.2473 109.152 90.3806 109.252 90.534C111.485 91.2672 113.678 92.1404 115.798 93.1603C117.998 94.2202 120.131 95.4334 122.151 96.8065C123.964 98.0331 125.89 99.6462 128.197 99.6196H128.203ZM104.179 93.4069C104.179 93.4069 104.193 93.3736 104.193 93.367L104.146 93.3536C104.146 93.3536 104.166 93.387 104.179 93.4069Z" fill="white"/>
<path d="M107.28 174.997C107.36 177.104 106.38 179.144 104.96 180.65C102.413 183.363 98.3406 184.61 94.741 183.59C91.3214 182.623 88.6218 179.37 88.2951 175.824C88.0818 173.577 88.8218 171.511 90.1349 169.705C90.8149 168.771 91.6614 167.945 92.5547 167.205C92.8413 166.965 93.1479 166.732 93.4745 166.518C93.7145 166.532 93.9478 166.485 94.1478 166.345C94.5077 166.098 94.8877 165.905 95.2743 165.745C95.4076 165.725 95.541 165.705 95.6743 165.698C95.9942 165.685 96.2475 165.572 96.4408 165.405C97.554 165.192 98.7139 165.272 99.8338 165.612C101.78 166.205 103.407 167.598 104.64 169.178C105.886 170.784 107.206 172.911 107.286 174.991L107.28 174.997Z" fill="white"/>
<path d="M83.7422 174.997C83.8222 177.104 82.8357 179.144 81.4225 180.65C78.8761 183.363 74.8033 184.61 71.197 183.59C67.7774 182.623 65.0844 179.37 64.7511 175.824C64.5445 173.577 65.2777 171.511 66.5909 169.705C67.2708 168.771 68.1174 167.945 69.0106 167.205C69.2973 166.965 69.6039 166.732 69.9305 166.518C70.1705 166.532 70.4038 166.485 70.6037 166.345C70.9637 166.098 71.3437 165.905 71.7303 165.745C71.8636 165.725 71.9903 165.705 72.1303 165.698C72.4502 165.685 72.7035 165.572 72.8968 165.405C74.0034 165.192 75.1699 165.272 76.2898 165.612C78.2362 166.205 79.8627 167.598 81.0959 169.178C82.3424 170.784 83.6622 172.911 83.7422 174.991V174.997Z" fill="white"/>
<path d="M62.0913 173.425C62.1713 175.531 61.1913 177.571 59.7715 179.077C57.2251 181.784 53.1523 183.037 49.5527 182.017C46.1331 181.051 43.4401 177.798 43.1068 174.245C42.8935 172.005 43.6334 169.938 44.9466 168.132C45.6265 167.199 46.4731 166.372 47.3663 165.632C47.6529 165.392 47.9596 165.159 48.2862 164.946C48.5262 164.959 48.7595 164.912 48.9595 164.772C49.3194 164.526 49.6994 164.333 50.0927 164.173C50.226 164.153 50.3526 164.133 50.4859 164.126C50.8059 164.113 51.0592 163.993 51.2525 163.826C52.3657 163.619 53.5256 163.699 54.6455 164.039C56.5919 164.632 58.225 166.026 59.4582 167.605C60.6981 169.212 62.0246 171.338 62.1046 173.418L62.0913 173.425Z" fill="white"/>
<path d="M40.1206 169.592C40.2006 171.698 39.2208 173.731 37.8009 175.244C35.2546 177.951 31.1817 179.204 27.5754 178.184C24.1558 177.218 21.4628 173.971 21.1295 170.418C20.9229 168.179 21.6562 166.106 22.9693 164.306C23.6493 163.372 24.4958 162.546 25.3891 161.799C25.6757 161.559 25.9823 161.333 26.3089 161.113C26.5489 161.133 26.7822 161.079 26.9822 160.939C27.3422 160.693 27.7221 160.5 28.1087 160.34C28.242 160.32 28.3687 160.3 28.5087 160.293C28.8286 160.28 29.0819 160.16 29.2752 159.993C30.3884 159.78 31.5483 159.866 32.6682 160.206C34.6146 160.799 36.2411 162.193 37.4743 163.772C38.7208 165.372 40.0407 167.505 40.1206 169.585V169.592Z" fill="white"/>
<path d="M93.2683 90.8242C95.2081 90.8309 97.1412 90.9575 99.0677 91.1975C100.301 94.9237 102.007 98.71 105.107 101.256C106.567 102.456 108.253 103.416 110.106 103.829C112.106 104.276 114.186 104.103 116.132 103.483C118.365 102.776 120.405 101.596 122.365 100.343C124.138 101.51 126.011 102.53 128.211 102.503C129.831 102.483 129.837 99.9631 128.211 99.9765C125.905 100.003 123.978 98.3967 122.158 97.1635C120.132 95.7903 118.005 94.5705 115.806 93.5106C111.333 91.3575 106.567 89.8243 101.667 89.0111C98.8877 88.5512 96.0813 88.3045 93.2683 88.2979C91.6418 88.2979 91.6418 90.8175 93.2683 90.8242ZM115.792 96.3369C115.726 96.4436 115.659 96.5435 115.592 96.6435C115.579 96.6702 115.566 96.6835 115.559 96.6969C115.546 96.7102 115.539 96.7169 115.519 96.7368C115.352 96.9302 115.186 97.1168 114.992 97.2901C114.932 97.3435 114.872 97.3901 114.812 97.4434C114.799 97.4434 114.586 97.5968 114.553 97.6168C114.459 97.6767 114.366 97.7301 114.266 97.7767C114.226 97.7967 114.186 97.8167 114.139 97.8367C114.139 97.8367 114.139 97.8367 114.126 97.8367C113.939 97.8834 113.759 97.9367 113.579 97.9834C113.533 97.9834 113.339 98.0101 113.293 98.0101C113.186 98.0101 113.086 98.0034 112.979 98.0034C112.959 98.0034 112.953 98.0034 112.939 98.0034C112.919 98.0034 112.893 97.99 112.853 97.9834C112.733 97.9567 112.619 97.9167 112.506 97.8901C112.486 97.8901 112.473 97.8834 112.459 97.8767C112.453 97.8767 112.446 97.8701 112.433 97.8634C112.313 97.7967 112.199 97.7234 112.079 97.6567C112.299 97.7767 112.079 97.6568 112.019 97.5968C111.959 97.5368 111.906 97.4834 111.846 97.4168C111.76 97.3101 111.74 97.2901 111.793 97.3501C111.846 97.4101 111.826 97.3834 111.753 97.2768C111.706 97.2101 111.666 97.1368 111.626 97.0635C111.573 96.9701 111.526 96.8702 111.48 96.7702C111.48 96.7502 111.38 96.4702 111.373 96.4369C111.346 96.3302 111.32 96.2236 111.3 96.1169C111.313 96.1703 111.273 95.8169 111.266 95.7703C111.266 95.6703 111.266 95.5637 111.28 95.4637C111.286 95.4437 111.32 95.2304 111.326 95.1904C111.353 95.097 111.386 95.0037 111.42 94.9104C111.44 94.8704 111.5 94.7504 111.506 94.7304C111.526 94.6904 111.693 94.4704 111.68 94.4771L111.693 94.4638C113.079 95.0237 114.446 95.6503 115.779 96.3302L115.792 96.3369ZM104.2 93.7239C104.2 93.7239 104.187 93.7506 104.18 93.7639C104.174 93.7439 104.16 93.7305 104.154 93.7105C104.167 93.7105 104.187 93.7172 104.2 93.7239Z" fill="white"/>
<mask id="mask0_8378_53291" style="mask-type:luminance" maskUnits="userSpaceOnUse" x="92" y="88" width="38" height="17">
<path d="M93.2682 90.8271C95.208 90.8338 97.1411 90.9605 99.0675 91.2004C100.301 94.9267 102.007 98.7129 105.107 101.259C106.567 102.459 108.253 103.419 110.106 103.832C112.106 104.279 114.186 104.106 116.132 103.486C118.365 102.779 120.405 101.599 122.365 100.346C124.138 101.513 126.011 102.532 128.211 102.506C129.831 102.486 129.837 99.9661 128.211 99.9794C125.904 100.006 123.978 98.3996 122.158 97.1664C120.132 95.7932 118.005 94.5734 115.806 93.5135C111.333 91.3604 106.567 89.8273 101.667 89.014C98.8876 88.5541 96.0812 88.3074 93.2682 88.3008C91.6417 88.3008 91.6417 90.8205 93.2682 90.8271ZM115.792 96.3398C115.726 96.4465 115.659 96.5465 115.592 96.6464C115.579 96.6731 115.566 96.6865 115.559 96.6998C115.546 96.7131 115.539 96.7198 115.519 96.7398C115.352 96.9331 115.186 97.1197 114.992 97.2931C114.932 97.3464 114.872 97.393 114.812 97.4464C114.799 97.4464 114.586 97.5997 114.552 97.6197C114.459 97.6797 114.366 97.733 114.266 97.7797C114.226 97.7997 114.186 97.8197 114.139 97.8397C114.139 97.8397 114.139 97.8397 114.126 97.8397C113.939 97.8863 113.759 97.9396 113.579 97.9863C113.533 97.9863 113.339 98.013 113.293 98.013C113.186 98.013 113.086 98.0063 112.979 98.0063C112.959 98.0063 112.953 98.0063 112.939 98.0063C112.919 98.0063 112.893 97.993 112.853 97.9863C112.733 97.9596 112.619 97.9197 112.506 97.893C112.486 97.893 112.473 97.8863 112.459 97.8797C112.453 97.8797 112.446 97.873 112.433 97.8663C112.313 97.7997 112.199 97.7263 112.079 97.6597C112.299 97.7797 112.079 97.6597 112.019 97.5997C111.959 97.5397 111.906 97.4864 111.846 97.4197C111.759 97.3131 111.739 97.2931 111.793 97.3531C111.846 97.4131 111.826 97.3864 111.753 97.2797C111.706 97.2131 111.666 97.1397 111.626 97.0664C111.573 96.9731 111.526 96.8731 111.479 96.7731C111.479 96.7531 111.379 96.4731 111.373 96.4398C111.346 96.3332 111.319 96.2265 111.299 96.1199C111.313 96.1732 111.273 95.8199 111.266 95.7732C111.266 95.6732 111.266 95.5666 111.279 95.4666C111.286 95.4466 111.319 95.2333 111.326 95.1933C111.353 95.1 111.386 95.0067 111.419 94.9133C111.439 94.8733 111.499 94.7533 111.506 94.7333C111.526 94.6933 111.693 94.4734 111.679 94.48L111.693 94.4667C113.079 95.0267 114.446 95.6532 115.779 96.3332L115.792 96.3398ZM104.2 93.7268C104.2 93.7268 104.187 93.7535 104.18 93.7668C104.174 93.7468 104.16 93.7335 104.154 93.7135C104.167 93.7135 104.187 93.7202 104.2 93.7268Z" fill="white"/>
</mask>
<g mask="url(#mask0_8378_53291)">
<path d="M101.754 91.8525C101.754 91.8525 108.86 93.2523 111.693 94.4789C114.526 95.7054 115.792 96.332 115.792 96.332L120.625 98.9383C120.625 98.9383 115.479 104.644 108.873 101.431C102.267 98.2185 101.761 91.8525 101.761 91.8525H101.754Z" fill="#252525"/>
</g>
<path d="M111.713 94.2158L115.792 96.3289C115.792 96.3289 114.652 98.7286 112.446 97.862C110.24 96.9955 111.719 94.2158 111.719 94.2158H111.713Z" fill="#F9F8F4"/>
<path d="M185.251 0H16.3906C7.81156 0 0.825684 6.97921 0.825684 15.5649V184.425C0.825684 193.011 7.81156 199.99 16.3906 199.99H29.469C29.5823 200.003 29.689 200.003 29.7956 199.99H185.251C193.837 199.99 200.816 193.011 200.816 184.425V15.5649C200.816 6.97921 193.837 0 185.251 0ZM27.5759 178.186C24.1563 177.219 21.4633 173.973 21.13 170.42C20.9234 168.18 21.6566 166.107 22.9698 164.307C23.6497 163.374 24.4963 162.548 25.3895 161.801C25.6761 161.561 25.9828 161.335 26.3094 161.115C26.5494 161.135 26.7827 161.081 26.9827 160.941C27.3426 160.695 27.7225 160.501 28.1092 160.341C28.2425 160.321 28.3692 160.301 28.5091 160.295C28.8291 160.281 29.0824 160.161 29.2757 159.995C30.3889 159.781 31.5488 159.868 32.6686 160.208C34.6151 160.801 36.2416 162.194 37.4748 163.774C38.7213 165.374 40.0411 167.5 40.1211 169.587C40.2011 171.693 39.2212 173.726 37.8014 175.24C35.255 177.946 31.1821 179.199 27.5759 178.179V178.186ZM84.8826 48.821C84.8159 48.7476 84.7359 48.6743 84.6426 48.6076C82.6762 47.2678 80.6164 46.0613 78.4966 44.9947C78.47 45.1014 78.4367 45.2014 78.39 45.3081C76.5702 49.1943 74.2838 53.3004 70.2842 55.2802C69.671 55.5802 68.9244 55.4469 68.5578 54.8269C68.2312 54.267 68.3978 53.4005 69.0111 53.1005C70.7309 52.2473 72.1307 50.9207 73.2173 49.4076C74.4171 47.7344 75.3503 45.888 76.2169 44.0349C76.2369 44.0015 76.2569 43.9682 76.2769 43.9415C76.2502 43.9282 76.2235 43.9149 76.1902 43.9015C76.2702 43.8482 76.3569 43.7949 76.4369 43.7416C76.5368 43.6482 76.6502 43.5749 76.7768 43.5216C83.0161 39.5421 89.5287 35.6692 96.8212 34.0894C100.981 33.1828 105.167 33.3295 109.333 34.1027C113.626 34.896 117.965 35.8558 122.138 37.1357C124.151 37.7489 126.131 38.4822 128.011 39.4287C129.931 40.3953 131.717 41.5818 133.444 42.8617C137.05 45.5413 140.469 48.4877 143.956 51.314C147.502 54.1937 151.101 57.0134 154.574 59.9663C156.121 61.2929 157.641 62.6993 158.887 64.3192C159.994 65.7457 160.9 67.3388 161.634 68.9853C164.533 75.4978 164.533 83.0037 164.227 90.0162C163.633 89.2363 163.04 88.463 162.447 87.6765C162.034 87.1365 161.354 86.8565 160.72 87.2298C160.187 87.5364 159.854 88.4097 160.267 88.9563C161.947 91.156 163.627 93.3558 165.306 95.5555C166.893 97.6353 168.406 99.8083 170.119 101.781C171.746 103.641 173.726 104.708 176.039 105.474C177.938 106.108 180.018 106.588 181.511 108.007C182.764 109.194 183.558 110.814 183.811 112.507C184.091 114.44 183.551 116.12 182.571 117.76C181.931 118.833 181.331 119.926 181.085 121.159C180.831 122.399 180.831 123.646 180.985 124.892C181.285 127.318 182.045 129.665 182.325 132.098C182.878 136.991 182.138 141.997 180.138 146.49C178.598 142.023 173.646 139.37 169.013 140.804C168.746 140.884 168.486 140.99 168.233 141.097C168.079 141.164 167.826 141.23 167.68 141.337C167.646 141.31 167.606 141.283 167.593 141.27C167.52 141.177 167.406 141.084 167.32 141.004C167.08 140.764 166.833 140.544 166.573 140.33C165.586 139.53 164.527 138.904 163.347 138.424C161.074 137.497 158.514 137.311 156.121 137.911C153.561 138.544 151.361 140.044 149.708 142.07C146.235 140.744 142.849 139.21 139.563 137.477C136.457 135.831 133.43 134.011 130.524 132.031C127.698 130.111 124.965 128.052 122.118 126.165C119.239 124.266 116.246 122.546 113.006 121.333C109.873 120.159 106.587 119.666 103.247 119.499C96.5212 119.159 88.8954 120.193 83.0961 116C82.5428 115.6 81.6896 115.906 81.3696 116.453C80.9963 117.086 81.2696 117.78 81.8229 118.18C87.1956 122.066 94.1148 121.806 100.434 121.932C103.594 121.992 106.773 122.132 109.84 122.959C113.133 123.846 116.166 125.405 119.052 127.192C121.952 128.998 124.705 131.031 127.498 132.998C130.417 135.044 133.424 136.977 136.543 138.71C142.789 142.183 149.442 144.97 156.321 146.93C158.121 147.443 159.927 147.896 161.754 148.289C159.061 149.356 156.114 149.609 153.188 149.549C151.128 149.503 149.075 149.309 147.029 149.083C144.682 148.823 142.329 148.569 140.023 148.049C136.903 147.343 134.057 146.01 131.257 144.55C131.017 144.07 130.457 143.737 129.931 143.843C129.177 143.443 128.431 143.037 127.678 142.637C123.598 140.477 119.332 138.764 114.799 137.844C110.113 136.891 105.4 136.797 100.647 137.204C96.2345 137.577 91.8617 138.064 87.4356 137.717C79.9698 137.124 72.6907 134.644 66.2981 130.771C60.4387 127.225 55.2993 122.459 51.4398 116.8C55.0727 117.986 59.2455 117.333 62.1919 114.667C64.1316 112.913 65.3915 110.427 65.7381 107.841C66.1114 105.108 65.3648 102.401 63.8783 100.102C60.952 95.5888 55.9326 92.6692 51.2598 90.2628C46.7137 87.9231 41.9609 86.0166 37.4014 83.6969C32.9219 81.4238 28.5425 78.6841 25.2895 74.8179C30.7555 74.7779 36.1349 76.0978 41.601 76.2645C46.8937 76.4244 52.3463 75.4245 56.4392 71.845C58.2123 70.2985 59.5855 68.3454 60.5321 66.1989C61.1253 67.3321 61.6586 68.4787 62.1185 69.6652C62.3718 70.2985 62.9651 70.7384 63.6717 70.5451C63.805 70.5118 63.9383 70.4385 64.0583 70.3518C66.2247 70.7184 68.4845 70.3318 70.5509 69.6585C72.5573 69.0053 74.4704 68.0521 76.1902 66.8255C79.7031 64.3258 82.4362 60.8996 84.0893 56.9267C85.0092 54.7136 85.5225 52.3672 85.6358 49.9742C85.6691 49.3543 85.3158 48.9743 84.8625 48.8276L84.8826 48.821ZM177.858 147.683C169.119 147.483 160.454 145.836 152.208 142.97C154.788 140.25 158.887 139.384 162.4 140.737C163.307 141.084 164.2 141.603 164.947 142.237C165.86 143.017 166.666 144.09 168.02 143.85C168.506 143.763 168.933 143.503 169.393 143.337C169.913 143.15 170.453 143.017 170.999 142.963C172.072 142.863 173.166 143.003 174.165 143.417C176.005 144.177 177.318 145.81 177.865 147.689L177.858 147.683ZM48.9268 91.8893C52.4263 93.6024 55.8993 95.5288 58.8056 98.1019C60.6121 99.715 62.2652 101.655 62.9785 104.008C63.6451 106.221 63.3584 108.587 62.2318 110.6C60.972 112.84 58.8523 114.4 56.2992 114.787C53.7862 115.167 51.0865 114.393 49.2134 112.674C49.0201 112.494 48.8134 112.4 48.6001 112.36C47.6736 111.794 46.2004 112.887 46.8603 114.093C50.5865 120.959 56.0126 126.812 62.4252 131.245C68.7844 135.644 76.1836 138.657 83.836 139.81C88.0622 140.444 92.2484 140.464 96.5012 140.09C101.414 139.664 106.267 139.157 111.186 139.77C115.746 140.344 120.212 141.71 124.331 143.737C125.265 144.197 126.184 144.683 127.104 145.17C121.885 148.463 119.279 155.082 119.132 161.188C117.972 161.188 116.812 161.395 115.752 161.841C113.633 162.434 111.799 164.048 110.393 165.667C109.366 166.854 108.52 168.18 107.96 169.627C107.853 169.447 107.74 169.267 107.633 169.087C106.087 166.647 103.967 164.521 101.241 163.441C99.0409 162.574 96.4546 162.494 94.2615 163.414C92.1484 164.008 90.3152 165.621 88.9087 167.24C87.4422 168.927 86.3491 170.9 85.9291 173.08C85.5625 171.68 84.9025 170.353 84.1026 169.087C82.5495 166.647 80.4297 164.521 77.7101 163.441C75.5103 162.574 72.9173 162.494 70.7309 163.414C68.6178 164.008 66.7847 165.621 65.3715 167.24C64.7116 168.007 64.125 168.827 63.6384 169.7C63.3051 168.954 62.8984 168.227 62.4518 167.52C60.9053 165.081 58.7856 162.954 56.0593 161.874C53.8595 161.008 51.2731 160.928 49.0867 161.848C46.967 162.441 45.1339 164.054 43.7274 165.674C43.2008 166.287 42.7208 166.934 42.3075 167.614C41.9342 166.241 41.281 164.934 40.4877 163.681C38.9412 161.241 36.8215 159.108 34.0952 158.035C33.1153 157.648 32.062 157.422 30.9955 157.362C31.6888 147.183 32.782 137.011 34.6551 126.979C36.3149 118.086 38.4613 108.974 42.5408 100.842C44.234 97.4553 46.1804 94.389 48.9534 91.8826L48.9268 91.8893ZM121.318 164.048C123.258 164.641 124.891 166.034 126.124 167.614C127.364 169.22 128.691 171.347 128.771 173.426C128.844 175.533 127.864 177.573 126.451 179.079C123.905 181.785 119.825 183.039 116.226 182.019C112.806 181.052 110.113 177.799 109.78 174.246C109.566 172.007 110.306 169.94 111.619 168.134C112.299 167.2 113.153 166.374 114.039 165.634C114.326 165.394 114.632 165.161 114.959 164.947C115.199 164.961 115.432 164.914 115.632 164.767C115.992 164.521 116.372 164.327 116.765 164.168C116.899 164.148 117.025 164.128 117.159 164.121C117.479 164.108 117.732 163.988 117.925 163.821C119.039 163.614 120.198 163.694 121.325 164.034L121.318 164.048ZM107.28 175C107.36 177.106 106.38 179.146 104.96 180.652C102.414 183.365 98.341 184.612 94.7414 183.592C91.3218 182.625 88.6221 179.372 88.2955 175.826C88.0822 173.58 88.8221 171.513 90.1353 169.707C90.8152 168.774 91.6618 167.947 92.555 167.207C92.8416 166.967 93.1483 166.734 93.4749 166.521C93.7149 166.534 93.9481 166.487 94.1481 166.341C94.5081 166.094 94.888 165.901 95.2747 165.741C95.408 165.721 95.5413 165.701 95.6746 165.694C95.9946 165.681 96.2479 165.567 96.4412 165.401C97.5544 165.187 98.7143 165.267 99.8341 165.607C101.781 166.201 103.407 167.594 104.64 169.174C105.887 170.78 107.207 172.906 107.287 174.986L107.28 175ZM83.7427 175C83.8227 177.106 82.8361 179.146 81.423 180.652C78.8766 183.365 74.8037 184.612 71.1975 183.592C67.7779 182.625 65.0849 179.372 64.7516 175.826C64.5449 173.58 65.2782 171.513 66.5914 169.707C67.2713 168.774 68.1179 167.947 69.0111 167.207C69.2977 166.967 69.6043 166.734 69.931 166.521C70.171 166.534 70.4042 166.487 70.6042 166.341C70.9642 166.094 71.3441 165.901 71.7307 165.741C71.8641 165.721 71.9907 165.701 72.1307 165.694C72.4507 165.681 72.704 165.567 72.8973 165.401C74.0038 165.187 75.1703 165.267 76.2902 165.607C78.2367 166.201 79.8632 167.594 81.0963 169.174C82.3429 170.78 83.6627 172.906 83.7427 174.986V175ZM62.0919 173.433C62.1719 175.54 61.192 177.579 59.7721 179.086C57.2258 181.792 53.1529 183.045 49.5534 182.025C46.1338 181.059 43.4407 177.806 43.1074 174.253C42.8941 172.013 43.634 169.947 44.9472 168.14C45.6271 167.207 46.4737 166.381 47.3669 165.641C47.6536 165.401 47.9602 165.167 48.2868 164.954C48.5268 164.967 48.7601 164.921 48.9601 164.774C49.32 164.527 49.7 164.334 50.0933 164.174C50.2266 164.154 50.3532 164.134 50.4866 164.128C50.8065 164.114 51.0598 163.994 51.2531 163.828C52.3663 163.621 53.5262 163.701 54.6461 164.041C56.5925 164.634 58.2257 166.027 59.4589 167.607C60.6987 169.214 62.0252 171.34 62.1052 173.42L62.0919 173.433ZM118.912 196.884C116.606 196.917 114.306 196.93 112.006 196.944C108.713 196.964 105.413 196.977 102.127 196.99C98.1543 197.004 94.1881 197.017 90.2219 197.024C85.8958 197.037 81.5763 197.044 77.2501 197.057C72.8973 197.07 68.5311 197.07 64.1716 197.09C60.0988 197.09 56.0192 197.11 51.9464 197.124C48.4668 197.137 44.9939 197.15 41.521 197.17C38.9679 197.184 36.4149 197.197 33.8618 197.224C32.8019 197.237 31.7288 197.237 30.6689 197.27C30.3756 195.291 30.1823 193.331 30.0556 191.158C29.8557 187.791 29.8223 184.412 29.849 181.046C32.9886 181.119 36.1482 180.012 38.6079 177.979C39.4278 177.306 40.1544 176.486 40.781 175.593C41.5009 179.072 43.894 182.279 47.0803 183.785C51.5198 185.878 56.8591 184.905 60.5787 181.819C61.5053 181.052 62.3318 180.112 62.9984 179.072C64.065 181.785 66.1381 184.132 68.7311 185.358C73.1706 187.451 78.5099 186.478 82.2295 183.392C84.0426 181.885 85.4825 179.732 86.0224 177.413C86.7956 180.799 89.1554 183.892 92.2683 185.358C96.7078 187.451 102.047 186.478 105.767 183.392C107.08 182.305 108.187 180.879 108.913 179.299C110.073 181.232 111.759 182.845 113.766 183.792C115.772 184.738 117.952 185.052 120.092 184.832C120.205 188.845 120.265 192.871 120.552 196.877C120.012 196.89 119.465 196.897 118.925 196.91L118.912 196.884ZM198.296 184.432C198.296 191.624 192.45 197.47 185.257 197.47H123.118C122.771 193.097 122.725 188.691 122.591 184.305C124.285 183.792 125.878 182.945 127.258 181.799C129.184 180.192 130.711 177.859 131.15 175.366C131.657 172.507 130.651 169.913 129.131 167.52C127.584 165.081 125.464 162.954 122.738 161.874C122.385 161.734 122.018 161.614 121.652 161.521C121.652 160.281 121.725 159.181 122.018 157.942C122.418 156.248 122.851 154.562 123.611 152.989C124.931 150.276 126.991 147.823 129.771 146.59C132.004 147.776 134.257 148.903 136.657 149.716C139.036 150.516 141.509 150.922 143.982 151.242C146.195 151.522 148.415 151.769 150.635 151.936C154.828 152.242 159.201 152.149 163.127 150.469C164.047 150.082 164.913 149.609 165.733 149.043C170.479 149.843 175.292 150.256 180.105 150.229C180.638 150.229 180.991 149.949 181.171 149.576C181.391 149.483 181.591 149.309 181.731 149.023C184.004 144.543 185.171 139.537 185.031 134.511C184.958 131.918 184.438 129.425 183.898 126.899C183.411 124.632 183.018 122.206 184.158 120.073C184.731 118.993 185.417 118.006 185.851 116.853C186.211 115.906 186.377 114.867 186.411 113.86C186.471 111.86 185.904 109.801 184.844 108.114C183.658 106.221 181.958 104.968 179.911 104.128C177.852 103.288 175.572 102.915 173.699 101.655C172.639 100.942 171.799 99.9017 171.026 98.9018C170.093 97.7019 169.179 96.4821 168.253 95.2755C167.7 94.5556 167.153 93.829 166.6 93.1091C167.026 85.6033 167.313 77.7509 164.913 70.5185C163.667 66.7456 161.66 63.3193 158.867 60.4796C157.347 58.9398 155.661 57.58 153.988 56.2134C152.108 54.6936 150.235 53.1671 148.362 51.6473C144.696 48.6676 141.036 45.6613 137.343 42.7017C135.61 41.3218 133.857 39.962 131.984 38.7755C130.404 37.7689 128.744 36.9357 127.024 36.2091C127.024 36.1158 127.011 36.0225 126.984 35.9292C126.411 33.5894 125.451 31.3297 124.125 29.3166C123.891 28.9633 123.638 28.6233 123.391 28.2767C120.338 28.8433 117.259 29.2633 114.166 29.5232C113.486 29.5832 112.906 28.8966 112.906 28.2634C112.906 27.5435 113.486 27.0568 114.166 27.0035C116.659 26.7902 119.145 26.4702 121.612 26.0436C120.945 25.2771 120.252 24.5238 119.545 23.7972C118.679 22.904 117.779 22.0374 116.852 21.2042C114.706 21.9774 112.466 22.484 110.173 22.704C109.493 22.7707 108.913 22.0707 108.913 21.4442C108.913 20.7176 109.5 20.251 110.173 20.1843C111.686 20.0377 113.179 19.731 114.632 19.2978C112.886 17.8713 111.053 16.5447 109.153 15.3315C107.127 14.0384 105.007 12.8852 102.834 11.852C102.427 11.4453 101.821 11.292 101.281 11.6053C101.061 11.7387 100.874 11.9586 100.767 12.2119C100.507 12.7319 100.634 13.5051 101.154 13.825C104.48 18.8378 105.547 25.1371 103.967 30.9497C102.507 30.8964 101.047 30.9297 99.5742 31.0964C91.0618 32.0763 83.4227 36.3491 76.2902 40.8486C75.3837 41.4152 74.4904 41.9884 73.5972 42.5684C73.5172 42.6217 73.4439 42.675 73.3772 42.735C70.2176 41.5218 66.9446 40.5886 63.6184 39.9487C62.3518 42.735 60.5654 45.288 58.3523 47.4145C57.1791 48.541 55.3993 46.7612 56.5658 45.628C58.4123 43.8482 59.9121 41.7751 61.032 39.5021C57.0658 38.9221 53.0463 38.7555 49.0534 39.0221C45.7338 39.2488 42.4342 39.762 39.2012 40.5753C38.6679 40.3753 37.9747 40.6752 37.6947 41.1485C37.4414 41.5818 37.4948 42.0284 37.7214 42.4017C37.8614 42.7883 38.168 43.1016 38.5813 43.195C46.0004 48.7143 53.3662 54.7803 58.4523 62.5927C58.6723 62.926 58.8656 63.2593 59.0722 63.5993C58.8722 63.7592 58.7189 63.9792 58.6323 64.2325C57.1125 68.5853 53.4729 71.7583 49.0734 72.9781C44.0206 74.3846 38.6946 73.5914 33.5885 72.9315C30.3289 72.5116 27.056 72.1383 23.763 72.3316C23.1031 72.3716 22.7165 72.8182 22.5898 73.3181C22.1165 73.6781 21.8499 74.458 22.2365 74.9713C28.1625 82.9437 37.5681 86.5366 46.2604 90.6094C46.3337 90.6427 46.4071 90.6828 46.4804 90.7094C44.2806 92.8825 42.5208 95.5022 41.0543 98.2085C39.0146 101.968 37.4681 105.994 36.1749 110.06C33.0486 119.893 31.3221 130.151 30.0556 140.37C29.349 146.09 28.8291 151.829 28.4425 157.582C27.9825 157.688 27.5359 157.828 27.1026 158.008C24.9896 158.602 23.1564 160.215 21.7432 161.834C20.0368 163.801 18.8302 166.154 18.6103 168.774C18.2236 173.293 21.0167 177.999 25.1029 179.926C25.8228 180.266 26.5693 180.519 27.3226 180.699C27.2693 186.298 27.3693 191.924 28.1692 197.464H16.3972C9.20474 197.464 3.35875 191.611 3.35875 184.425V15.5649C3.35875 8.37238 9.2114 2.5264 16.3972 2.5264H185.257C192.45 2.5264 198.296 8.37238 198.296 15.5649V184.425V184.432Z" fill="white"/>
</svg>
