<svg width="201" height="200" viewBox="0 0 201 200" fill="none" xmlns="http://www.w3.org/2000/svg">
<path d="M182.967 2.52246H17.9241C9.47378 2.52246 2.62341 9.37283 2.62341 17.8232V182.177C2.62341 190.628 9.47378 197.478 17.9241 197.478H182.967C191.418 197.478 198.268 190.628 198.268 182.177V17.8232C198.268 9.37283 191.418 2.52246 182.967 2.52246Z" fill="#252525"/>
<path d="M113.782 87.1072C113.909 87.0737 114.037 87.047 114.17 87.0202C114.237 87.0068 114.665 86.9131 114.324 86.9867C114.572 86.9332 114.859 86.9399 115.114 86.9332C115.381 86.9332 115.642 86.9533 115.903 86.9734C115.923 86.9734 115.93 86.9734 115.943 86.9734C115.983 86.9734 116.017 86.9867 116.057 86.9934C116.171 87.0135 116.285 87.0336 116.398 87.0603C116.639 87.1139 116.88 87.1808 117.114 87.2543C117.235 87.2945 117.355 87.3413 117.482 87.3882C117.536 87.4082 117.589 87.435 117.636 87.4617C117.877 87.5755 118.104 87.7026 118.325 87.8431C118.439 87.91 118.546 87.9836 118.653 88.0639C118.68 88.084 118.706 88.104 118.74 88.1241C118.753 88.1375 118.767 88.1442 118.793 88.1642C119.308 88.579 120.091 88.6995 120.586 88.1642C121.015 87.7026 121.135 86.8262 120.586 86.3779C118.499 84.6786 115.756 84.0096 113.127 84.6719C112.484 84.8325 112.036 85.5885 112.244 86.224C112.458 86.8864 113.113 87.2811 113.802 87.1072H113.782Z" fill="white"/>
<path d="M149.001 82.425C149.201 82.6592 149.603 82.793 149.897 82.793C150.192 82.793 150.58 82.6525 150.794 82.425C151.014 82.1842 151.182 81.8697 151.162 81.5352C151.148 81.2275 151.041 80.9799 150.861 80.7391C150.687 80.5116 150.546 80.2641 150.419 80.0032C150.325 79.7556 150.258 79.5081 150.212 79.2471C150.192 78.9929 150.185 78.732 150.212 78.4778C150.232 78.364 150.252 78.2503 150.278 78.1366C150.446 77.501 150.064 76.7383 149.395 76.5844C148.733 76.4305 148.017 76.7851 147.836 77.4675C147.602 78.3306 147.602 79.2338 147.796 80.1035C147.99 80.9732 148.425 81.7493 148.994 82.425H149.001Z" fill="white"/>
<path d="M145.247 53.1359C145.247 53.1359 145.234 53.1226 145.227 53.1159C145.187 53.0891 145.14 53.0557 145.14 53.0557C145.14 53.0757 145.194 53.1293 145.247 53.1359Z" fill="white"/>
<path d="M185.248 0H15.783C7.16587 0 0.161133 6.98468 0.161133 15.5683V184.432C0.161133 193.015 7.17256 200 15.783 200H185.248C193.866 200 200.87 193.015 200.87 184.432V15.5683C200.87 6.98468 193.859 0 185.248 0ZM42.8787 143.072C43.9692 144.176 45.0932 145.253 46.244 146.29C47.4549 147.374 49.2479 145.594 48.037 144.504C46.331 142.972 44.6785 141.346 43.0995 139.647C43.0527 139.132 42.6245 138.703 42.1294 138.576C36.3289 132.047 31.7327 124.366 29.8728 115.816C28.6217 110.082 28.8491 104.181 30.4147 98.5348C32.0939 92.4868 35.1113 86.9004 38.7308 81.7957C42.9122 75.9015 47.8965 70.6429 52.8674 65.4111C53.2956 66.0735 53.7438 66.7157 54.2054 67.3446C56.1657 69.994 58.3467 72.6433 61.3239 74.1888C64.2744 75.7142 67.6329 76.2093 70.9178 76.2829C74.0355 76.3498 77.1866 76.0554 80.2174 75.3328C86.2921 73.881 91.6577 70.4757 95.1501 65.2572C98.435 60.3466 99.6862 54.2918 99.3851 48.4512C99.365 48.0765 99.3382 47.6952 99.3047 47.3205C111.782 51.1072 123.825 56.2454 135.185 62.6279C141.166 65.9865 146.96 69.6862 152.519 73.7071C155.175 75.6272 157.838 77.5875 160.314 79.7351C162.669 81.7823 164.89 84.1172 166.161 87.0074C167.198 89.3691 167.405 92.179 166.569 94.6277C166.174 95.7784 165.505 96.8087 164.595 97.6182C163.438 98.6486 161.926 99.2038 160.481 99.6856C153.617 101.974 146.471 103.472 139.299 104.402C124.42 106.336 109.374 105.948 94.4142 105.392C86.6266 105.105 78.8458 104.77 71.0516 104.697C67.198 104.663 63.351 104.697 59.4974 104.824C56.6273 104.924 53.6435 105.131 51.0409 106.456C49.7698 107.098 48.7127 108.048 47.9165 109.226C47 110.577 49.1944 111.842 50.1043 110.497C51.5561 108.35 54.4128 107.734 56.8347 107.5C60.4541 107.152 64.1472 107.212 67.78 107.205C75.6545 107.192 83.5223 107.5 91.3901 107.794C106.637 108.376 121.965 108.932 137.165 107.179C144.605 106.322 151.984 104.937 159.15 102.75C159.825 102.542 160.501 102.335 161.177 102.107C161.471 107.52 158.36 112.658 154.052 115.816C148.84 119.636 142.25 120.987 135.941 121.65C131.753 122.091 127.538 122.265 123.33 122.205C121.697 122.178 121.697 124.701 123.33 124.727C127.29 124.788 131.258 124.634 135.205 124.246C138.677 123.904 142.156 123.416 145.528 122.493C147.187 122.038 148.826 121.462 150.399 120.76C150.847 126.768 150.626 132.836 149.636 138.784C149.134 141.814 148.492 144.885 147.227 147.702C145.916 150.626 144.21 153.369 142.624 156.145C140.791 159.356 138.958 162.568 137.118 165.772C136.309 167.184 138.497 168.462 139.306 167.044C140.631 164.729 141.955 162.414 143.273 160.099C144.103 161.39 144.939 162.688 145.769 163.979C146.518 165.144 147.321 166.281 147.93 167.525C148.037 167.739 148.137 167.953 148.231 168.168C148.284 168.288 148.338 168.408 148.392 168.535C148.418 168.602 148.425 168.609 148.425 168.609C148.425 168.616 148.438 168.643 148.472 168.73C148.686 169.258 148.893 169.793 149.094 170.335C149.529 171.533 149.917 172.744 150.285 173.961C151.937 179.461 153.182 185.087 154.312 190.707C154.687 192.56 155.035 194.414 155.376 196.273C154.627 196.287 153.878 196.294 153.122 196.307C150.098 196.34 147.08 196.354 144.056 196.367C139.714 196.387 135.372 196.401 131.03 196.407C125.785 196.421 120.54 196.434 115.295 196.441C109.554 196.454 103.807 196.461 98.067 196.468C92.2732 196.474 86.4795 196.488 80.6923 196.494C75.2999 196.501 69.9075 196.514 64.5151 196.528C59.9122 196.541 55.3161 196.548 50.7131 196.568C47.3613 196.581 44.0161 196.595 40.6642 196.621C39.3998 196.635 38.1286 196.621 36.8641 196.655C38.3761 189.951 39.2058 183.08 39.9818 176.269C40.9252 167.967 41.641 159.644 42.2766 151.308C42.484 148.558 42.6847 145.809 42.8787 143.059V143.072ZM51.8705 52.7598C51.8906 52.539 51.9107 52.3115 51.9374 52.0907C51.9508 51.977 51.9641 51.8566 51.9775 51.7428C51.9775 51.7161 51.9775 51.7027 51.9775 51.6893C51.9775 51.6625 51.9842 51.6291 51.9976 51.5756C52.0846 51.0336 52.1783 50.4917 52.2987 49.9498C52.5663 48.7589 52.9342 47.5948 53.3959 46.4575C53.3959 46.4441 53.4026 46.4374 53.4093 46.4307C53.4093 46.4307 53.4093 46.4307 53.4093 46.4173C53.4427 46.3437 53.4695 46.2768 53.5029 46.2032C53.5698 46.0427 53.6435 45.8888 53.7171 45.7349C53.8709 45.4205 54.0315 45.106 54.1987 44.7916C54.5333 44.1761 54.9012 43.5806 55.296 42.9986C56.072 41.8746 57.0622 40.744 58.2865 39.6601C59.0024 39.0246 59.3703 38.7436 60.133 38.215C60.9292 37.6664 61.7588 37.178 62.6151 36.7298C64.5018 35.753 66.4353 35.0572 68.5494 34.5086C73.2192 33.291 78.3374 32.7223 83.0674 33.7994C87.677 34.8498 91.9387 37.4055 94.6215 41.3394C95.324 42.3697 95.9396 43.4736 96.4212 44.6176C96.8628 47.2001 97.0167 49.8762 96.8026 52.5189C84.9407 50.659 72.684 51.5956 61.2637 55.3088C58.2597 56.2855 55.3227 57.463 52.466 58.8078C51.8839 56.8475 51.6899 54.8204 51.8571 52.7397L51.8705 52.7598ZM53.3825 61.1828C56.5604 59.6775 59.8453 58.3997 63.2106 57.3694C64.087 62.3737 67.7466 66.7157 72.6038 68.395C77.8624 70.2081 84.1111 68.2411 87.657 64.0329C89.9852 61.2698 90.788 57.8711 91.3767 54.3989C93.0895 54.5461 94.8022 54.7602 96.5015 55.0345C96.1737 56.9479 95.6318 58.8145 94.8423 60.5874C92.5877 65.6787 88.4531 69.7197 83.2414 71.7535C80.592 72.7905 77.7687 73.3993 74.932 73.6402C72.015 73.8877 68.9843 73.881 66.1141 73.2388C64.6155 72.9043 63.1771 72.3891 61.8591 71.5996C60.5813 70.8236 59.4974 69.8 58.5006 68.6894C56.4868 66.4481 54.6805 63.8991 53.3758 61.1828H53.3825ZM70.9446 57.1285C70.8509 57.075 70.7572 57.0282 70.6636 56.988L70.9379 56.9144C70.9379 56.988 70.9379 57.0616 70.9379 57.1285H70.9446ZM82.2177 54.1714C82.278 54.2249 82.3382 54.2784 82.3984 54.332C82.4385 54.3721 82.4719 54.4123 82.5121 54.4524C82.5255 54.4658 82.5589 54.5059 82.5857 54.5394C82.6124 54.5728 82.6459 54.6197 82.6526 54.633C82.6861 54.6799 82.7128 54.7267 82.7462 54.7735C82.8332 54.914 82.9069 55.0679 82.9871 55.2151C83.0005 55.2686 83.0273 55.3221 83.0406 55.3757C83.0875 55.5162 83.1276 55.6633 83.1611 55.8038C83.1745 55.8707 83.1878 55.931 83.2012 55.9979C83.2146 56.1517 83.228 56.3056 83.2213 56.4662C83.2213 56.5933 83.2079 56.7137 83.2012 56.8341C83.2012 56.8341 83.2012 56.8408 83.2012 56.8475C83.1878 56.9011 83.1811 56.9546 83.1677 57.0081C83.0807 57.3827 83.0206 57.5099 82.9002 57.744C82.753 58.025 82.579 58.2926 82.3917 58.5536C82.3917 58.5602 82.385 58.5669 82.3783 58.5736C82.3783 58.5803 82.3649 58.587 82.3515 58.6004C82.3114 58.6472 82.2713 58.7007 82.2244 58.7476C82.0973 58.8948 81.9568 59.0353 81.8163 59.1758C81.7963 59.1958 81.7829 59.2092 81.7762 59.2159C81.7762 59.2159 81.7761 59.2159 81.7628 59.2226C81.7092 59.2627 81.6557 59.2962 81.5955 59.3296C81.5554 59.3564 81.5353 59.3698 81.5152 59.3765C81.4483 59.4032 81.3748 59.43 81.3012 59.4501C81.2209 59.4768 81.1339 59.4902 81.0536 59.5103C81.0536 59.5103 81.0202 59.517 80.9868 59.5236C80.9466 59.5236 80.873 59.537 80.8596 59.537C80.7659 59.5437 80.6722 59.5504 80.5853 59.5504C80.4582 59.5504 80.3244 59.537 80.1973 59.537C80.1906 59.537 80.1906 59.537 80.1839 59.537C80.117 59.5236 80.05 59.517 79.9898 59.5036C79.8627 59.4768 79.7356 59.4434 79.6152 59.4099C79.5416 59.3898 79.4747 59.3631 79.4078 59.343C79.3877 59.3363 79.3677 59.3296 79.3543 59.3296C79.1067 59.2025 78.8659 59.0754 78.6318 58.9215C78.6318 58.9215 78.6116 58.9081 78.5983 58.8948C78.5648 58.868 78.5113 58.8212 78.4979 58.8145C78.3708 58.7074 78.2571 58.5937 78.1434 58.4666C78.1032 58.4264 78.0698 58.3796 78.0363 58.3395C78.0363 58.3395 78.0363 58.3395 78.0296 58.3328C77.9627 58.2257 77.8824 58.1254 77.8222 58.0116C77.7553 57.9046 77.7017 57.7909 77.6482 57.6704C77.6482 57.637 77.568 57.443 77.5546 57.3827C77.5078 57.2289 77.481 57.0683 77.4476 56.9077C77.4476 56.8275 77.4342 56.7472 77.4275 56.6669C77.4208 56.4996 77.4275 56.3257 77.4275 56.1584C77.4275 56.1049 77.4342 56.0514 77.4409 55.9912C77.4409 55.9778 77.4409 55.9577 77.4543 55.931C77.4944 55.7637 77.5278 55.6031 77.5813 55.4426C77.6014 55.369 77.6348 55.3021 77.6549 55.2285C77.6549 55.2151 77.6549 55.2151 77.6549 55.2017C77.6549 55.1883 77.6683 55.1816 77.675 55.1616C77.7419 55.0278 77.8089 54.894 77.8891 54.7668C77.9293 54.6999 77.9694 54.6397 78.0095 54.5795C78.0229 54.5594 78.0296 54.5527 78.0363 54.5394C78.0497 54.526 78.063 54.5126 78.0898 54.4792C78.1032 54.4591 78.1166 54.439 78.13 54.4189C79.4881 54.2918 80.8529 54.2049 82.2244 54.158L82.2177 54.1714ZM142.765 64.16C144.103 64.2002 145.441 64.0329 146.712 63.598C148.686 62.9156 150.466 61.7181 151.877 60.1927C153.342 58.6138 154.44 56.7405 155.142 54.7133C155.436 54.8204 155.724 54.9274 156.012 55.0411C154.085 59.8113 150.332 63.7586 145.675 65.9932C144.712 65.3777 143.742 64.7689 142.765 64.1667V64.16ZM145.615 53.6362C145.615 53.6362 145.622 53.6496 145.628 53.6562C145.695 53.7901 145.649 53.7098 145.615 53.6362ZM144.618 52.733C144.692 52.8066 144.779 52.8668 144.879 52.9136C144.973 52.9538 145.06 53.0006 145.147 53.0474C145.147 53.0341 145.167 53.0407 145.227 53.101C145.227 53.101 145.234 53.1076 145.24 53.1143C145.26 53.1277 145.274 53.1344 145.281 53.1344C145.274 53.1344 145.267 53.1344 145.26 53.1344C145.314 53.1879 145.368 53.2481 145.421 53.3017C145.441 53.3351 145.468 53.3619 145.488 53.3953C145.528 53.4622 145.562 53.5291 145.595 53.596C145.602 53.6429 145.648 53.7232 145.655 53.7499C145.682 53.8369 145.702 53.9239 145.722 54.0175C145.722 54.0577 145.735 54.1112 145.735 54.138C145.735 54.2383 145.735 54.3453 145.735 54.4457C145.735 54.4524 145.735 54.4792 145.735 54.5126C145.735 54.5193 145.735 54.526 145.735 54.5327C145.709 54.633 145.682 54.7334 145.655 54.8271C145.642 54.8806 145.575 54.9876 145.642 54.8739C145.628 54.894 145.615 54.914 145.615 54.9274C145.562 55.0278 145.495 55.1214 145.441 55.2218C145.408 55.2552 145.381 55.2887 145.347 55.3221C145.274 55.4024 145.194 55.476 145.113 55.5496C145.087 55.5697 145.006 55.6366 144.986 55.65C144.879 55.7236 144.765 55.7905 144.652 55.8507C144.598 55.8774 144.551 55.9042 144.498 55.931C144.451 55.951 144.31 55.9912 144.417 55.9644H144.404C144.351 55.9845 144.297 56.0046 144.237 56.0179C144.11 56.0581 143.983 56.0848 143.856 56.1116C143.849 56.1116 143.822 56.1183 143.789 56.125C143.929 56.0915 143.769 56.125 143.722 56.125C143.608 56.1317 143.488 56.1384 143.374 56.1384C143.307 56.1384 143.247 56.1384 143.18 56.1384C143.166 56.1384 143.133 56.1384 143.106 56.1384C143.073 56.1384 143.033 56.125 143.019 56.125C142.939 56.1049 142.859 56.0781 142.778 56.0581C142.778 56.0581 142.778 56.0581 142.772 56.0514C142.732 56.0246 142.685 55.9979 142.645 55.9778C142.618 55.9577 142.598 55.931 142.571 55.9109C142.544 55.8841 142.517 55.8507 142.491 55.8239C142.424 55.7169 142.357 55.6098 142.297 55.4961C142.29 55.4827 142.29 55.476 142.283 55.4693C142.283 55.4559 142.277 55.4359 142.263 55.4091C142.223 55.3021 142.196 55.195 142.17 55.0813C142.149 54.9876 142.129 54.894 142.109 54.7936C142.109 54.72 142.096 54.6531 142.096 54.5795C142.096 54.4591 142.096 54.3387 142.096 54.2115C142.096 54.158 142.096 54.1045 142.103 54.051C142.136 53.9975 142.17 53.7031 142.183 53.6629C142.196 53.6094 142.21 53.5559 142.23 53.5091C142.236 53.4823 142.25 53.4555 142.257 53.4355C142.257 53.4221 142.263 53.4154 142.27 53.402C142.297 53.3418 142.33 53.2883 142.364 53.2281C142.39 53.1812 142.424 53.1411 142.444 53.0943C142.477 53.0608 142.504 53.0274 142.538 52.9939C142.544 52.9872 142.551 52.9805 142.558 52.9738C142.638 52.9337 142.812 52.8133 142.852 52.7932C142.892 52.7731 142.926 52.7464 142.959 52.7196C143.528 52.7196 144.09 52.7196 144.658 52.7397L144.618 52.733ZM131.806 57.9247C130.013 56.9813 128.2 56.0781 126.374 55.195C127.899 54.8337 129.431 54.4858 130.963 54.1714C130.93 55.5362 131.231 56.8007 131.8 57.9247H131.806ZM156.795 52.6594C148.037 49.1804 138.41 49.9231 129.378 51.8967C127.337 52.345 125.31 52.8534 123.276 53.3418C123.102 53.382 122.962 53.4488 122.841 53.5358C119.315 51.9235 115.736 50.4315 112.11 49.0466C113.401 48.7456 114.659 48.3375 115.883 47.8022C118.693 46.5779 121.001 44.6645 123.196 42.5637C125.384 40.4697 127.558 38.5295 130.341 37.2516C132.843 36.1009 135.62 35.472 138.363 35.2378C143.481 34.8097 149.656 35.298 153.637 38.9175C157.43 42.363 158.039 47.9093 156.801 52.6594H156.795ZM198.335 184.432C198.335 191.624 192.461 197.478 185.242 197.478H158.119C158.119 197.371 158.113 197.264 158.086 197.17C157.236 192.326 156.266 187.503 155.162 182.712C153.945 177.42 152.673 171.994 150.452 167.017C149.904 165.792 149.208 164.695 148.485 163.571C147.214 161.598 145.95 159.624 144.678 157.65C146.184 155.048 147.749 152.459 149.054 149.756C150.459 146.832 151.302 143.748 151.884 140.563C152.473 137.319 152.861 134.034 153.041 130.742C153.242 127.069 153.175 123.389 152.847 119.73C152.847 119.67 152.827 119.616 152.821 119.556C156.32 117.589 159.357 114.893 161.404 111.313C163.144 108.283 164.067 104.743 163.639 101.251C163.639 101.211 163.625 101.177 163.619 101.137C165.211 100.381 166.649 99.3845 167.727 97.8725C169.379 95.5643 169.847 92.5336 169.493 89.7638C168.636 83.1471 163.211 78.6579 158.233 74.8311C154.935 72.2954 151.549 69.8736 148.084 67.5654C152.633 65.0498 156.246 60.9688 158.253 56.1852C160.434 50.9935 160.722 44.5173 157.551 39.6401C154.259 34.5822 148.077 32.8159 142.337 32.6086C136.175 32.3811 129.793 33.7727 124.882 37.6263C122.065 39.8341 119.817 42.7109 116.7 44.5441C113.736 46.2835 110.344 47.1332 106.912 47.0462C106.838 47.0462 106.771 47.0529 106.704 47.0596C105.527 46.6515 104.343 46.2501 103.152 45.8687C101.76 45.4205 100.368 44.9923 98.9702 44.5775C98.9568 44.4972 98.9435 44.4169 98.9301 44.3367C98.9301 44.2095 98.9234 44.0824 98.8699 43.962C98.8432 43.8081 98.7762 43.6743 98.6893 43.5539C96.5149 38.6432 92.6947 34.7762 87.7038 32.6688C85.2819 31.6451 82.7329 31.043 80.117 30.8155C77.3673 30.5747 74.5974 30.849 71.8812 31.2705C63.8394 32.5015 55.8646 36.2615 51.924 43.6944C49.5623 48.1434 48.5254 53.7432 49.7899 58.6807C50.1913 60.2395 50.8001 61.7314 51.5494 63.1632C51.4892 63.21 51.4357 63.2568 51.3755 63.3104C42.2566 72.9109 32.8701 82.9464 28.615 95.7516C26.6213 101.753 26.0259 108.082 27.0227 114.331C27.9527 120.151 30.234 125.731 33.2581 130.782C35.3454 134.268 37.8075 137.526 40.5238 140.557C40.0287 147.635 39.5135 154.707 38.8913 161.772C38.1688 170.001 37.3526 178.23 36.1416 186.405C35.593 190.112 34.9641 193.818 34.081 197.464H15.7897C8.57084 197.464 2.69674 191.61 2.69674 184.418V15.5683C2.69674 8.37626 8.57084 2.52225 15.7897 2.52225H185.255C192.474 2.52225 198.348 8.37626 198.348 15.5683V184.432H198.335Z" fill="white"/>
<path d="M53.376 61.1828C53.376 61.1828 70.6236 51.3146 96.495 55.0344C95.6118 69.278 81.6492 74.1887 70.938 74.1887C60.2202 74.1887 55.8782 65.9396 53.376 61.1828Z" fill="#F9F8F4"/>
<mask id="mask0_8378_53365" style="mask-type:luminance" maskUnits="userSpaceOnUse" x="53" y="54" width="44" height="21">
<path d="M53.376 61.1828C53.376 61.1828 70.6236 51.3146 96.495 55.0344C95.6118 69.278 81.6492 74.1887 70.938 74.1887C60.2202 74.1887 55.8782 65.9396 53.376 61.1828Z" fill="white"/>
</mask>
<g mask="url(#mask0_8378_53365)">
<path d="M62.2675 56.16C62.2675 56.16 64.3481 70.7248 78.0633 69.0054C93.8457 67.025 91.484 53.136 91.484 53.136C91.484 53.136 71.3797 51.6909 62.2675 56.16Z" fill="#252525"/>
<path d="M79.1672 60.1402C80.8151 60.1402 82.1511 58.8103 82.1511 57.1697C82.1511 55.5292 80.8151 54.1992 79.1672 54.1992C77.5193 54.1992 76.1833 55.5292 76.1833 57.1697C76.1833 58.8103 77.5193 60.1402 79.1672 60.1402Z" fill="#F9F8F4"/>
</g>
<path d="M126.374 55.1944C126.374 55.1944 141.34 50.2436 156.487 54.1708C155.082 61.5837 145.662 65.9859 145.662 65.9859C145.662 65.9859 129.879 57.5494 126.367 55.1944H126.374Z" fill="#F9F8F4"/>
<mask id="mask1_8378_53365" style="mask-type:luminance" maskUnits="userSpaceOnUse" x="126" y="52" width="31" height="14">
<path d="M126.374 55.1944C126.374 55.1944 141.34 50.2436 156.487 54.1708C155.082 61.5837 145.662 65.9859 145.662 65.9859C145.662 65.9859 129.879 57.5494 126.367 55.1944H126.374Z" fill="white"/>
</mask>
<g mask="url(#mask1_8378_53365)">
<path d="M136.095 51.6484C136.095 51.6484 132.368 61.2892 143.487 62.3195C153.636 63.2628 154.332 51.7889 154.332 51.7889L136.095 51.6484Z" fill="#252525"/>
<path d="M143.936 57.1365C145.317 57.1365 146.438 56.0192 146.438 54.641C146.438 53.2628 145.317 52.1455 143.936 52.1455C142.554 52.1455 141.433 53.2628 141.433 54.641C141.433 56.0192 142.554 57.1365 143.936 57.1365Z" fill="#F9F8F4"/>
</g>
</svg>
