<svg width="201" height="200" viewBox="0 0 201 200" fill="none" xmlns="http://www.w3.org/2000/svg">
<path d="M183.021 2.64551H18.6816C10.2683 2.64551 3.448 9.46583 3.448 17.8791V182.219C3.448 190.632 10.2683 197.452 18.6816 197.452H183.021C191.434 197.452 198.255 190.632 198.255 182.219V17.8791C198.255 9.46583 191.434 2.64551 183.021 2.64551Z" fill="#252525"/>
<path d="M148.757 122.465C148.757 122.465 148.757 122.465 148.743 122.465H148.71C148.577 122.465 148.65 122.478 148.723 122.465C148.67 122.478 148.61 122.478 148.577 122.491C148.437 122.525 148.31 122.565 148.171 122.611C148.117 122.631 148.077 122.658 148.031 122.684C147.964 122.718 147.904 122.758 147.844 122.798C147.798 122.831 147.771 122.851 147.758 122.851L147.778 122.831C147.778 122.831 147.817 122.798 147.851 122.778C147.824 122.798 147.804 122.811 147.778 122.831C147.238 123.217 146.599 123.264 146.066 122.778C145.606 122.358 145.539 121.406 146.066 120.999C146.758 120.46 147.491 120.1 148.364 119.987C149.116 119.887 149.909 119.933 150.615 120.207C151.414 120.513 152.094 120.986 152.633 121.652C152.913 121.992 153.166 122.345 153.426 122.691C153.426 122.691 153.426 122.704 153.439 122.704C153.493 122.771 153.539 122.838 153.593 122.898C153.719 123.044 153.852 123.184 153.999 123.317C154.525 123.784 154.445 124.616 153.999 125.096C153.519 125.622 152.713 125.535 152.22 125.096C151.694 124.623 151.275 124.023 150.862 123.45L150.848 123.437C150.795 123.371 150.742 123.311 150.695 123.251C150.595 123.137 150.495 123.031 150.389 122.931C150.389 122.931 150.335 122.884 150.295 122.851C150.262 122.831 150.242 122.811 150.222 122.798C150.116 122.731 150.002 122.678 149.889 122.618C149.822 122.591 149.763 122.571 149.703 122.551C149.583 122.518 149.456 122.491 149.336 122.465L149.136 122.451C149.003 122.451 148.877 122.451 148.75 122.465H148.757Z" fill="white"/>
<path d="M112.228 97.2776C112.321 97.3308 112.414 97.3908 112.507 97.4374C112.521 97.4507 112.521 97.4507 112.534 97.4574C112.547 97.4574 112.561 97.4574 112.587 97.4707C112.7 97.4974 112.814 97.5373 112.927 97.564C112.967 97.564 112.994 97.5773 113.014 97.5839C113.027 97.5839 113.034 97.5839 113.053 97.5839C113.16 97.5839 113.26 97.5973 113.367 97.5973C113.407 97.5973 113.606 97.5706 113.653 97.5706C113.833 97.524 114.019 97.4707 114.206 97.4241C114.206 97.4241 114.21 97.4241 114.219 97.4241L114.339 97.3641C114.439 97.3108 114.532 97.2642 114.625 97.2109C114.659 97.1909 114.865 97.0377 114.885 97.0377C114.945 96.9844 114.999 96.9378 115.058 96.8845C115.245 96.7114 115.418 96.5182 115.585 96.3317C115.598 96.3117 115.611 96.2984 115.618 96.2917C115.631 96.2784 115.638 96.2584 115.651 96.2384C115.718 96.1318 115.784 96.0319 115.851 95.932C114.519 95.246 113.16 94.6265 111.768 94.0603L111.755 94.0736C111.755 94.0736 111.608 94.2934 111.581 94.3334C111.568 94.3467 111.515 94.4733 111.488 94.5132C111.455 94.6065 111.422 94.6931 111.402 94.793C111.388 94.8263 111.355 95.0461 111.348 95.0661C111.335 95.166 111.335 95.2726 111.335 95.3725C111.335 95.4125 111.375 95.7255 111.368 95.7255C111.388 95.8321 111.408 95.932 111.442 96.0386C111.455 96.0719 111.548 96.3517 111.548 96.3783C111.595 96.4716 111.641 96.5781 111.695 96.6714C111.735 96.7447 111.775 96.8113 111.821 96.8845C111.855 96.9245 111.875 96.9578 111.881 96.9778V96.9911C111.881 96.9911 111.894 97.0178 111.908 97.0244C111.961 97.0911 112.021 97.1443 112.081 97.1976C112.114 97.2309 112.208 97.2909 112.234 97.3109C112.234 97.3109 112.221 97.3109 112.214 97.3109L112.228 97.2776ZM128.26 99.5489C129.892 99.529 129.886 102.053 128.26 102.073C126.062 102.1 124.197 101.081 122.419 99.9153C120.454 101.168 118.422 102.347 116.191 103.053C114.246 103.665 112.168 103.845 110.169 103.392C108.311 102.979 106.632 102.02 105.174 100.828C102.083 98.2833 100.378 94.4999 99.1387 90.7765C97.2204 90.5367 95.2887 90.4101 93.3504 90.4034C91.7184 90.4034 91.7251 87.8789 93.3504 87.8789C96.1613 87.8922 98.9656 88.1387 101.743 88.5983C106.632 89.4109 111.402 90.943 115.871 93.0945C118.069 94.1535 120.201 95.3658 122.219 96.738C124.031 97.9636 125.956 99.5756 128.26 99.5489ZM104.254 93.3409C104.254 93.3409 104.268 93.3076 104.268 93.3009L104.221 93.2876C104.221 93.2876 104.241 93.3209 104.254 93.3409Z" fill="white"/>
<path d="M93.3515 90.6641C95.2899 90.6708 97.2215 90.7974 99.1466 91.0372C100.379 94.7606 102.084 98.5441 105.181 101.089C106.64 102.288 108.325 103.247 110.177 103.66C112.175 104.106 114.254 103.933 116.199 103.313C118.43 102.607 120.468 101.428 122.427 100.176C124.198 101.342 126.07 102.361 128.268 102.334C129.887 102.314 129.894 99.7964 128.268 99.8097C125.964 99.8363 124.039 98.231 122.22 96.9987C120.195 95.6266 118.07 94.4076 115.872 93.3485C111.403 91.197 106.64 89.665 101.744 88.8524C98.9667 88.3928 96.1625 88.1463 93.3515 88.1396C91.7262 88.1396 91.7262 90.6575 93.3515 90.6641ZM115.859 96.1728C115.792 96.2793 115.726 96.3793 115.659 96.4792C115.646 96.5058 115.632 96.5191 115.626 96.5325C115.612 96.5458 115.606 96.5524 115.586 96.5724C115.419 96.7656 115.253 96.9521 115.06 97.1253C115 97.1786 114.94 97.2252 114.88 97.2785C114.866 97.2785 114.653 97.4317 114.62 97.4517C114.527 97.5116 114.433 97.5649 114.334 97.6116C114.294 97.6315 114.254 97.6515 114.207 97.6715C114.207 97.6715 114.207 97.6715 114.194 97.6715C114.007 97.7181 113.827 97.7714 113.647 97.8181C113.601 97.8181 113.408 97.8447 113.361 97.8447C113.255 97.8447 113.155 97.838 113.048 97.838C113.028 97.838 113.021 97.838 113.008 97.838C112.988 97.838 112.961 97.8247 112.921 97.8181C112.802 97.7914 112.688 97.7514 112.575 97.7248C112.555 97.7248 112.542 97.7181 112.528 97.7115C112.522 97.7115 112.515 97.7048 112.502 97.6981C112.382 97.6315 112.269 97.5582 112.149 97.4916C112.369 97.6115 112.149 97.4917 112.089 97.4317C112.029 97.3718 111.976 97.3185 111.916 97.2518C111.829 97.1453 111.809 97.1253 111.862 97.1853C111.916 97.2452 111.896 97.2186 111.822 97.112C111.776 97.0454 111.736 96.9721 111.696 96.8988C111.643 96.8056 111.596 96.7057 111.549 96.6058C111.549 96.5858 111.449 96.306 111.443 96.2727C111.416 96.1661 111.389 96.0595 111.369 95.953C111.383 96.0062 111.343 95.6532 111.336 95.6066C111.336 95.5067 111.336 95.4001 111.349 95.3002C111.356 95.2802 111.389 95.0671 111.396 95.0271C111.423 94.9339 111.456 94.8406 111.489 94.7473C111.509 94.7074 111.569 94.5875 111.576 94.5675C111.596 94.5275 111.762 94.3077 111.749 94.3144L111.762 94.301C113.148 94.8606 114.513 95.4867 115.846 96.1661L115.859 96.1728ZM104.276 93.5617C104.276 93.5617 104.262 93.5883 104.256 93.6016C104.249 93.5817 104.236 93.5683 104.229 93.5484C104.242 93.5484 104.262 93.555 104.276 93.5617Z" fill="white"/>
<mask id="mask0_8378_53275" style="mask-type:luminance" maskUnits="userSpaceOnUse" x="92" y="88" width="38" height="16">
<path d="M93.3523 90.6622C95.2906 90.6688 97.2223 90.7954 99.1473 91.0352C100.38 94.7587 102.085 98.5421 105.182 101.087C106.641 102.286 108.326 103.245 110.178 103.658C112.176 104.104 114.254 103.931 116.199 103.311C118.431 102.605 120.469 101.426 122.427 100.174C124.199 101.34 126.071 102.359 128.269 102.332C129.888 102.312 129.894 99.7944 128.269 99.8077C125.964 99.8344 124.039 98.2291 122.221 96.9968C120.196 95.6246 118.071 94.4057 115.873 93.3466C111.403 91.1951 106.641 89.6631 101.745 88.8504C98.9675 88.3908 96.1632 88.1444 93.3523 88.1377C91.727 88.1377 91.727 90.6555 93.3523 90.6622ZM115.86 96.1708C115.793 96.2774 115.726 96.3773 115.66 96.4772C115.647 96.5039 115.633 96.5172 115.627 96.5305C115.613 96.5438 115.607 96.5505 115.587 96.5705C115.42 96.7636 115.254 96.9501 115.06 97.1233C115 97.1766 114.94 97.2233 114.881 97.2766C114.867 97.2766 114.654 97.4297 114.621 97.4497C114.527 97.5097 114.434 97.563 114.334 97.6096C114.294 97.6296 114.254 97.6496 114.208 97.6695C114.208 97.6695 114.208 97.6695 114.194 97.6695C114.008 97.7162 113.828 97.7695 113.648 97.8161C113.602 97.8161 113.408 97.8427 113.362 97.8427C113.255 97.8427 113.155 97.8361 113.049 97.8361C113.029 97.8361 113.022 97.8361 113.009 97.8361C112.989 97.8361 112.962 97.8228 112.922 97.8161C112.802 97.7895 112.689 97.7495 112.576 97.7228C112.556 97.7228 112.543 97.7162 112.529 97.7095C112.523 97.7095 112.516 97.7028 112.503 97.6962C112.383 97.6296 112.269 97.5563 112.15 97.4897C112.369 97.6096 112.15 97.4897 112.09 97.4298C112.03 97.3698 111.976 97.3165 111.916 97.2499C111.83 97.1433 111.81 97.1234 111.863 97.1833C111.916 97.2432 111.896 97.2166 111.823 97.11C111.776 97.0434 111.737 96.9702 111.697 96.8969C111.643 96.8036 111.597 96.7037 111.55 96.6038C111.55 96.5838 111.45 96.3041 111.443 96.2708C111.417 96.1642 111.39 96.0576 111.37 95.951C111.383 96.0043 111.344 95.6513 111.337 95.6047C111.337 95.5047 111.337 95.3981 111.35 95.2982C111.357 95.2783 111.39 95.0651 111.397 95.0252C111.423 94.9319 111.457 94.8386 111.49 94.7454C111.51 94.7054 111.57 94.5855 111.577 94.5655C111.597 94.5256 111.763 94.3058 111.75 94.3124L111.763 94.2991C113.149 94.8586 114.514 95.4847 115.846 96.1642L115.86 96.1708ZM104.276 93.5597C104.276 93.5597 104.263 93.5864 104.256 93.5997C104.25 93.5797 104.236 93.5664 104.23 93.5464C104.243 93.5464 104.263 93.5531 104.276 93.5597Z" fill="white"/>
</mask>
<g mask="url(#mask0_8378_53275)">
<path d="M101.831 91.6973C101.831 91.6973 108.932 93.0961 111.763 94.3217C114.594 95.5473 115.859 96.1734 115.859 96.1734L120.689 98.7779C120.689 98.7779 115.546 104.48 108.945 101.269C102.344 98.0585 101.838 91.6973 101.838 91.6973H101.831Z" fill="#252525"/>
</g>
<path d="M111.782 94.0596L115.858 96.1711C115.858 96.1711 114.719 98.569 112.515 97.7031C110.31 96.8372 111.789 94.0596 111.789 94.0596H111.782Z" fill="#F9F8F4"/>
<path d="M185.266 0H16.5299C7.95724 0 0.976562 6.97406 0.976562 15.5534V184.296C0.976562 192.875 7.95724 199.849 16.5299 199.849H124.284C124.564 200.002 124.877 200.049 125.184 199.942C125.27 199.916 125.343 199.882 125.423 199.849H185.272C193.852 199.849 200.826 192.875 200.826 184.296V15.5534C200.826 6.97406 193.852 0 185.272 0H185.266ZM110.236 181.811C105.107 183.843 99.5522 184.589 94.0569 184.456C83.9256 184.216 74.1872 181.212 64.5288 178.414C54.5574 175.517 44.2662 172.799 33.7951 173.964C33.1157 174.038 32.5362 173.332 32.5362 172.706C32.5362 171.973 33.1224 171.52 33.7951 171.447C39.5968 170.801 45.4518 171.34 51.1736 172.432C61.2783 174.371 70.9367 178.074 80.9881 180.246C90.4067 182.277 100.431 183.003 109.57 179.387C110.203 179.133 110.949 179.666 111.116 180.266C111.315 180.978 110.869 181.565 110.236 181.818V181.811ZM121.753 196.565C121.813 196.559 121.846 196.552 121.88 196.545C121.853 196.545 121.813 196.552 121.753 196.565ZM122.926 148.013C122.013 147.82 121.08 147.727 120.148 147.674C117.916 147.547 115.672 147.554 113.434 147.5C108.651 147.387 103.875 147.281 99.0926 147.167C89.5807 146.941 80.0156 146.681 70.5504 147.88C69.3381 148.033 68.1324 148.207 66.9268 148.406C66.7536 148.433 66.6071 148.513 66.4738 148.62C60.3857 146.721 54.2976 144.823 48.2095 142.924C43.7266 141.526 39.2571 139.98 34.721 138.748C34.1015 138.581 33.4687 138.442 32.8293 138.322C33.7951 130.855 35.0607 123.408 36.9658 116.121C38.591 109.899 40.6493 103.651 43.9864 98.116C45.4119 95.7447 46.9838 93.6665 49.0421 91.8148C52.5458 93.5267 56.0161 95.4583 58.9136 98.0294C60.7188 99.6414 62.3707 101.58 63.0834 103.931C63.7495 106.143 63.4631 108.507 62.3374 110.519C61.0785 112.757 58.9603 114.316 56.4091 114.702C53.8979 115.082 51.2003 114.309 49.3285 112.59C49.1354 112.417 48.9289 112.317 48.7157 112.277C47.7898 111.711 46.3178 112.804 46.9772 114.009C50.7007 120.87 56.1227 126.718 62.5305 131.148C68.8851 135.551 76.2788 138.555 83.9256 139.707C88.1486 140.34 92.3317 140.36 96.5814 139.987C101.491 139.561 106.34 139.054 111.256 139.667C115.812 140.24 120.274 141.606 124.391 143.63C124.471 143.67 124.551 143.71 124.631 143.75C123.538 144.883 122.879 146.461 122.912 148.013H122.926ZM114.892 137.729C110.21 136.776 105.5 136.683 100.751 137.089C96.3416 137.469 91.972 137.949 87.5492 137.602C80.0889 137.009 72.8151 134.532 66.4272 130.662C60.5722 127.118 55.4366 122.355 51.5799 116.7C55.2102 117.886 59.3799 117.233 62.3241 114.569C64.2624 112.817 65.5213 110.332 65.8677 107.748C66.2407 105.017 65.4947 102.312 64.0093 100.014C61.0851 95.505 56.0694 92.5875 51.4001 90.1828C46.8573 87.8448 42.108 85.9398 37.5519 83.6218C33.0757 81.3504 28.6995 78.6128 25.4489 74.7494C30.9109 74.7094 36.2863 76.0283 41.7483 76.1948C46.6375 76.348 51.6665 75.5021 55.6298 72.5379C63.2566 76.035 70.8168 79.6718 78.2904 83.4686C80.2754 84.4744 82.247 85.4935 84.212 86.5126C83.0064 88.7174 82.1871 91.1021 82.0605 93.56C81.9073 96.3975 82.9065 99.1552 84.1454 101.666C85.1712 103.751 86.4834 105.69 87.9754 107.475C90.9263 110.992 94.7363 113.863 98.9327 115.728C108.038 119.764 119.129 119.145 127.069 112.81C130.919 109.739 133.723 105.203 134.656 100.361C134.795 99.6347 134.889 98.9021 134.935 98.176C138.206 96.1378 141.923 95.0653 145.686 94.346C147.724 93.9596 149.776 93.6665 151.827 93.3801C153.986 93.0804 156.157 92.8139 158.342 92.7873C160.174 92.7606 162.032 92.9205 163.791 93.4201C164.31 94.0995 164.83 94.7789 165.343 95.4583C166.928 97.5365 168.44 99.708 170.152 101.68C171.777 103.538 173.755 104.604 176.067 105.37C177.965 106.003 180.043 106.482 181.535 107.901C182.788 109.087 183.58 110.705 183.833 112.397C184.113 114.329 183.574 116.007 182.594 117.653C181.955 118.718 181.356 119.811 181.109 121.05C180.856 122.282 180.856 123.534 181.009 124.78C181.309 127.205 182.068 129.549 182.348 131.98C182.954 137.316 182.022 142.785 179.59 147.58C165.676 147.567 151.901 143.85 139.618 137.356C136.514 135.711 133.49 133.892 130.586 131.914C127.761 129.995 125.03 127.937 122.186 126.052C119.309 124.154 116.318 122.435 113.081 121.223C109.95 120.051 106.666 119.558 103.329 119.391C96.6081 119.051 88.9879 120.084 83.1929 115.894C82.64 115.495 81.7874 115.801 81.4677 116.347C81.0947 116.98 81.3678 117.673 81.9206 118.072C87.2894 121.956 94.2034 121.696 100.518 121.822C103.675 121.882 106.853 122.022 109.917 122.848C113.207 123.734 116.238 125.293 119.122 127.078C122.02 128.883 124.771 130.915 127.562 132.88C130.479 134.925 133.483 136.856 136.601 138.588C142.842 142.058 149.489 144.843 156.364 146.801C158.162 147.314 159.967 147.767 161.792 148.16C159.101 149.226 156.157 149.479 153.233 149.419C151.175 149.372 149.123 149.179 147.078 148.953C144.734 148.693 142.382 148.44 140.078 147.92C135.621 146.914 131.731 144.63 127.741 142.511C123.665 140.353 119.402 138.641 114.872 137.722L114.892 137.729ZM84.9847 48.7783C84.9181 48.705 84.8381 48.6317 84.7449 48.5651C83.6991 47.8524 82.62 47.1863 81.5276 46.5535C78.6634 50.63 75.3662 54.3868 71.6494 57.7106C70.4438 58.7897 68.652 57.0112 69.8643 55.9255C73.4013 52.7615 76.5785 49.2112 79.3095 45.3279C78.317 44.8083 77.3112 44.3088 76.2921 43.8492C82.7066 39.7393 89.3942 35.6761 96.9145 34.0442C101.071 33.1383 105.254 33.2849 109.417 34.0575C113.707 34.8502 118.043 35.8094 122.213 37.0883C124.224 37.7011 126.203 38.4338 128.081 39.3796C129.999 40.3455 131.785 41.5311 133.51 42.8101C137.113 45.4878 140.53 48.4319 144.014 51.2562C147.558 54.1337 151.155 56.9513 154.625 59.9021C156.17 61.2276 157.689 62.6331 158.935 64.2517C160.04 65.6772 160.946 67.2691 161.679 68.9144C164.577 75.4221 164.577 82.9224 164.27 89.9297C163.677 89.1504 163.085 88.3777 162.492 87.5917C162.079 87.0522 161.399 86.7724 160.766 87.1454C160.234 87.4585 159.901 88.3244 160.314 88.8706C160.72 89.4035 161.126 89.9364 161.533 90.4693C158.662 90.1296 155.731 90.356 152.827 90.729C148.404 91.3086 143.901 91.8814 139.645 93.2535C138.013 93.7798 136.427 94.4392 134.922 95.2585C134.662 91.988 133.563 88.804 131.765 85.9664C128.96 81.5369 124.764 78.1931 120.101 75.8817C117.677 74.6894 115.132 73.7303 112.541 72.9643C109.783 72.1516 106.973 72.0583 104.142 72.5246C103.515 72.6245 102.896 72.7578 102.283 72.9043C102.177 72.9043 102.063 72.9176 101.943 72.9443C101.317 73.1041 100.698 73.284 100.085 73.4971C100.058 73.4971 100.032 73.5104 99.9985 73.5238C99.9652 73.5238 99.9452 73.5437 99.9119 73.5571C95.9753 74.8959 92.345 77.114 89.3343 79.9849C87.9755 81.2838 86.6699 82.7625 85.5442 84.3745C78.1239 80.5044 70.617 76.781 63.0435 73.2107C61.2517 72.3714 59.4598 71.5454 57.668 70.7195C58.927 69.3806 59.9328 67.822 60.6721 66.1434C61.265 67.2758 61.7979 68.4215 62.2575 69.6071C62.5106 70.2399 63.1034 70.6795 63.8095 70.4864C63.9427 70.4531 64.0759 70.3798 64.1958 70.2932C66.3606 70.6596 68.6187 70.2799 70.6836 69.6004C72.6885 68.9477 74.6002 67.9951 76.3188 66.7695C79.8291 64.2717 82.5601 60.8479 84.212 56.878C85.1312 54.6666 85.6441 52.3219 85.7574 49.9306C85.7907 49.3112 85.4376 48.9315 84.9847 48.7849V48.7783ZM132.431 98.116C132.084 102.033 130.353 105.803 127.741 108.72C121.607 115.574 111.362 117.273 102.836 114.549C94.8762 112.004 87.6291 105.55 85.1179 97.4367C84.3386 94.9255 84.4651 92.4809 85.3843 90.023C86.1903 87.8515 87.5092 85.7999 88.9879 84.0281C91.7789 80.6777 95.4024 77.9733 99.4723 76.3813C99.9119 76.2015 100.358 76.0549 100.811 75.9017C103.296 75.1757 105.827 74.6161 108.431 74.7627C110.909 74.9026 113.354 75.7885 115.658 76.6811C120.128 78.3929 124.371 80.9241 127.555 84.541C130.512 87.8915 132.511 92.2144 132.491 96.7239C132.491 96.7972 132.491 96.8638 132.491 96.9371C132.278 97.2901 132.231 97.7164 132.431 98.116ZM167.141 92.301C167.148 92.2677 167.168 92.2411 167.174 92.2078C167.9 89.5167 168.939 86.7991 170.531 84.4944C171.71 82.7892 174.055 80.9774 176.213 82.0964C177.965 83.0023 178.371 85.4069 178.525 87.1787C178.764 89.983 178.738 92.9005 177.845 95.5916C177.079 97.9096 175.454 100.168 173.143 101.127C172.357 100.461 171.691 99.6414 171.064 98.8354C170.132 97.6365 169.219 96.4175 168.293 95.2119C167.887 94.6857 167.487 94.1461 167.081 93.6199C167.094 93.5999 167.114 93.5866 167.121 93.56C167.328 93.2203 167.334 92.7074 167.148 92.321L167.141 92.301ZM198.314 184.289C198.314 191.476 192.473 197.318 185.286 197.318H127.235C127.335 196.825 127.388 196.312 127.422 195.806C127.495 194.76 127.548 193.708 127.602 192.662C127.735 189.884 127.841 187.1 127.948 184.316C128.188 177.994 128.394 171.666 128.647 165.345C128.747 162.947 128.847 160.543 129 158.151C129.107 156.419 129.28 154.668 128.84 152.969C128.368 151.137 127.102 149.625 125.397 148.813C125.363 148.799 125.33 148.786 125.297 148.773C125.41 148.593 125.477 148.38 125.463 148.153C125.45 147.953 125.463 147.754 125.477 147.56C125.53 147.241 125.617 146.928 125.73 146.615C125.743 146.595 125.756 146.568 125.763 146.548C125.803 146.455 125.856 146.375 125.896 146.288C125.99 146.122 126.096 145.968 126.203 145.815C126.216 145.802 126.223 145.795 126.229 145.782C126.296 145.709 126.363 145.629 126.429 145.562C126.562 145.422 126.709 145.296 126.856 145.169C126.869 145.156 126.889 145.149 126.902 145.136C126.962 145.096 127.022 145.056 127.089 145.016C130.226 146.695 133.33 148.466 136.714 149.605C139.092 150.405 141.563 150.811 144.034 151.131C146.246 151.41 148.464 151.664 150.682 151.823C154.872 152.13 159.241 152.037 163.164 150.358C164.084 149.965 164.95 149.499 165.769 148.933C170.512 149.732 175.321 150.145 180.13 150.118C180.663 150.118 181.016 149.838 181.196 149.465C181.415 149.372 181.615 149.199 181.755 148.913C184.027 144.443 185.192 139.434 185.052 134.412C184.979 131.821 184.46 129.329 183.92 126.798C183.434 124.533 183.041 122.109 184.18 119.977C184.753 118.898 185.439 117.912 185.872 116.76C186.231 115.814 186.398 114.782 186.431 113.769C186.491 111.771 185.925 109.713 184.866 108.028C183.68 106.136 181.982 104.884 179.937 104.044C178.551 103.478 177.059 103.118 175.667 102.559C177.446 101.367 178.831 99.6481 179.724 97.6498C181.122 94.5058 181.289 90.9955 181.069 87.6051C180.896 84.9407 180.316 81.9632 178.045 80.278C175.434 78.3397 171.877 79.3987 169.739 81.5169C168.533 82.7159 167.654 84.2213 166.915 85.74C166.968 80.5578 166.575 75.3689 164.956 70.4531C163.711 66.683 161.706 63.2592 158.915 60.4216C157.396 58.883 155.711 57.5241 154.039 56.1586C152.161 54.6399 150.289 53.1146 148.417 51.5959C144.754 48.6184 141.097 45.6143 137.406 42.6569C135.675 41.278 133.923 39.9192 132.051 38.7335C130.472 37.7277 128.814 36.8951 127.095 36.169C127.095 36.0758 127.082 35.9825 127.055 35.8893C126.483 33.5513 125.523 31.2932 124.198 29.2816C123.672 28.4823 123.085 27.7163 122.486 26.9703C119.748 27.8961 116.871 28.3358 113.967 28.2026C113.28 28.1692 112.708 27.6497 112.708 26.9436C112.708 26.2842 113.287 25.6514 113.967 25.6847C116.238 25.7913 118.516 25.5315 120.701 24.912C120.348 24.5257 119.988 24.146 119.622 23.773C118.549 22.6673 117.43 21.6148 116.278 20.5957C114.166 21.3817 111.948 21.848 109.684 21.9612C108.997 21.9945 108.425 21.3551 108.425 20.7023C108.425 19.9962 109.004 19.4767 109.684 19.4434C111.149 19.3701 112.601 19.1237 114.007 18.7107C112.474 17.4984 110.883 16.3593 109.237 15.3136C107.212 14.0213 105.094 12.869 102.923 11.8366C102.516 11.4302 101.91 11.277 101.371 11.5901C101.151 11.7233 100.964 11.9431 100.858 12.1962C100.598 12.7158 100.725 13.4884 101.244 13.8082C104.568 18.8106 105.634 25.1052 104.055 30.9136C102.596 30.8603 101.138 30.8936 99.6654 31.0601C91.1594 32.0393 83.5259 36.3089 76.3987 40.8118C75.4928 41.3779 74.6002 41.9508 73.7076 42.5303C73.6277 42.5836 73.5545 42.6369 73.4878 42.6968C70.99 41.7376 68.4255 40.9516 65.8211 40.3522C63.8161 43.7226 61.1451 46.6601 57.9212 48.9914C57.3683 49.3911 56.5157 49.0847 56.196 48.5385C55.8296 47.9123 56.0961 47.213 56.6489 46.8133C59.2534 44.9282 61.4914 42.5303 63.23 39.8126C58.6006 38.96 53.8713 38.6736 49.182 38.9933C45.8648 39.2198 42.5676 39.7327 39.3371 40.5453C38.8042 40.3455 38.1114 40.6452 37.8317 41.1181C37.5786 41.5511 37.6319 41.9974 37.8583 42.3704C37.9982 42.7567 38.3046 43.0698 38.7176 43.1631C46.1312 48.6783 53.4916 54.7398 58.5739 62.5465C58.7938 62.8796 58.9869 63.2126 59.1934 63.5523C58.9936 63.7122 58.8404 63.932 58.7538 64.1851C57.2351 68.5347 53.5982 71.7053 49.202 72.9243C44.153 74.3297 38.8308 73.5371 33.7285 72.8777C30.4713 72.458 27.2008 72.085 23.9103 72.2782C23.2508 72.3181 22.8645 72.7644 22.7379 73.264C22.265 73.617 21.9986 74.3964 22.3849 74.9159C28.3065 82.8824 37.7051 86.4727 46.391 90.5425C46.4643 90.5758 46.5376 90.6158 46.6108 90.6425C42.8008 94.346 40.2496 99.2484 38.2513 104.111C35.4604 110.925 33.7019 118.152 32.3431 125.366C31.5504 129.576 30.9109 133.812 30.3581 138.062C27.7936 138.015 25.3157 138.728 23.5306 140.913C20.8595 144.183 20.1601 148.813 19.907 152.896C19.6805 156.493 19.9337 160.083 20.0602 163.68C20.2601 169.149 20.36 174.631 20.4799 180.106C20.5998 185.515 20.693 190.917 20.8995 196.325C20.9128 196.658 20.9262 196.991 20.9395 197.324H16.5432C9.35606 197.324 3.51439 191.483 3.51439 184.296V15.5534C3.51439 8.3662 9.36272 2.52453 16.5432 2.52453H185.279C192.466 2.52453 198.308 8.37286 198.308 15.5534V184.296L198.314 184.289Z" fill="white"/>
</svg>
