<svg width="201" height="200" viewBox="0 0 201 200" fill="none" xmlns="http://www.w3.org/2000/svg">
<path d="M182.766 2.62305H18.6552C10.1804 2.62305 3.3103 9.49318 3.3103 17.9679V182.078C3.3103 190.553 10.1804 197.423 18.6552 197.423H182.766C191.24 197.423 198.11 190.553 198.11 182.078V17.9679C198.11 9.49318 191.24 2.62305 182.766 2.62305Z" fill="#252525"/>
<path d="M25.2103 57.9643C24.895 57.8368 24.7944 57.8301 24.4723 57.8704C24.4723 57.8704 24.2576 57.924 24.2173 57.9375C24.0697 57.9844 24.0831 57.9711 23.9221 58.0717C23.7946 58.1522 23.5396 58.4206 23.392 58.6554C22.5667 60.0041 22.7479 61.9968 22.8553 63.5199C22.9626 65.0966 23.2578 66.66 23.7007 68.183C24.5931 71.2627 26.1162 74.1949 28.1223 76.6976C30.1688 79.2472 32.658 81.4211 35.523 83.018C36.9119 83.7963 38.3746 84.427 39.8977 84.8833C41.5214 85.3731 43.5813 85.4201 44.8427 86.6815C46.2584 88.1039 45.8625 90.0966 44.6481 91.4855C43.3598 92.9616 41.4811 93.6058 39.6293 94.0217C35.3888 94.9812 30.8733 94.8202 26.7267 93.4849C22.9358 92.2638 19.534 90.1436 15.8504 88.6608C14.9178 88.285 13.9717 87.9562 12.9988 87.6945C12.1937 87.4731 11.2409 87.1847 10.4022 87.3926C9.06031 87.7147 9.1341 89.533 9.29513 90.6535C10.2345 97.1417 14.3005 103.194 19.3931 107.179C21.9629 109.199 24.9218 110.749 28.0552 111.675C32.0877 112.869 36.355 112.929 40.421 113.996C42.2594 114.479 44.4401 115.123 45.3593 116.962C46.198 118.633 45.8692 120.739 44.7957 122.222C43.6081 123.853 41.7831 124.745 39.9111 125.362C37.8579 126.04 35.731 126.51 33.5974 126.825C31.4234 127.147 29.2361 127.322 27.0421 127.315C24.9755 127.301 22.9492 127.06 20.9028 126.845C19.534 126.704 17.8499 126.53 16.6288 127.228C15.3539 127.959 15.2868 129.395 15.7565 130.67C16.3604 132.307 17.6687 133.568 18.9838 134.648C20.4062 135.816 22.0166 136.762 23.6805 137.547C27.2098 139.224 31.1014 140.137 34.9393 140.761C43.5611 142.163 52.4849 141.667 60.9189 139.419C61.2745 139.325 61.5697 139.379 61.818 139.513C62.0058 139.567 62.1736 139.667 62.2944 139.822C62.8378 140.499 63.4283 141.137 64.0724 141.72C66.6422 144.082 69.9299 145.538 73.2243 146.558C76.9012 147.692 80.7189 148.39 84.5233 148.94C92.5279 150.107 100.693 150.268 108.745 149.544C116.77 148.819 124.714 147.142 132.349 144.599C136.174 143.324 139.931 141.828 143.568 140.103C147.057 138.453 150.526 136.628 153.585 134.259C156.578 131.951 159.114 129.093 160.677 125.631C162.14 122.397 162.59 118.686 161.529 115.271V115.258C160.657 115.828 159.758 116.358 158.846 116.834C154.384 119.183 149.499 120.827 144.688 122.303C134.262 125.49 123.439 127.322 112.569 128.133C101.458 128.965 90.005 129.113 79.0818 126.657C77.4983 126.302 78.176 123.866 79.7527 124.228C81.0611 124.524 82.3695 124.779 83.6913 124.993C89.0657 125.886 94.5407 126.127 99.9822 126.107C105.29 126.087 110.59 125.832 115.877 125.336C126.344 124.342 136.737 122.323 146.721 119.015C154.813 116.338 164.925 112.849 167.541 103.737C168.769 99.4901 168.407 94.9007 167.635 90.5999C167.005 87.0639 165.958 83.6084 164.294 80.4348C160.993 74.1345 155.511 69.5987 149.325 66.2305C148.64 66.727 147.889 67.1364 147.084 67.4584C144.762 68.3844 142.038 68.4246 139.663 67.6865C138.958 67.4651 138.301 67.1498 137.63 66.8411C137.174 66.6398 136.63 66.3513 136.181 66.6801C135.644 67.076 135.208 67.5658 134.604 67.8879C134.054 68.1764 133.456 68.391 132.853 68.5252C130.182 69.109 127.217 68.5722 124.64 67.8006C122.319 67.1028 120.104 66.0494 118.105 64.6874C117.548 65.7944 116.817 66.8143 115.871 67.7067C114.079 69.3841 111.825 70.4173 109.543 71.2694C107 72.2155 104.397 72.9872 101.747 73.5843C96.6207 74.7518 91.3402 75.2818 86.0799 75.1812C84.2616 79.0929 80.7122 82.3336 76.143 82.1122C72.8217 81.9579 70.2855 79.8645 68.7624 77.1136C65.5149 80.4482 59.8319 77.751 56.571 75.51C55.0614 74.47 53.753 73.1817 52.8405 71.5915C52.8271 71.5915 52.8137 71.6049 52.8003 71.6049C50.4854 72.1417 48.1438 72.2424 45.7887 71.9002C37.8714 70.7461 31.4838 64.7813 26.3845 58.9775C25.9283 58.897 25.5592 58.5347 25.3714 58.0717C25.358 58.0717 25.2171 57.9643 25.2171 57.9576L25.2103 57.9643ZM160.006 43.0757C159.805 43.6661 159.564 44.2432 159.309 44.8135C158.711 46.142 157.98 47.4034 157.195 48.6312C155.806 50.8119 154.223 52.8784 152.545 54.851C152.639 55.0456 152.726 55.2335 152.8 55.4348C153.666 57.7362 153.384 60.3596 152.384 62.5671C152.082 63.2448 151.686 63.8554 151.244 64.419C151.7 64.6739 152.149 64.9356 152.592 65.204C154.934 66.5996 157.128 68.1965 159.141 69.988C159.168 69.9142 159.208 69.8336 159.255 69.7665C161.221 66.8948 162.596 63.701 163.321 60.2992C163.945 57.3873 164.072 54.3344 163.656 51.3822C163.261 48.5574 162.408 45.5448 160.416 43.4246C160.328 43.3306 160.161 43.2099 160.02 43.0824L160.006 43.0757ZM142.36 57.1458C142.36 57.1458 142.521 57.025 142.535 57.0384C142.568 56.9981 142.588 56.9579 142.568 56.9915C142.602 56.9244 142.642 56.8572 142.675 56.7969C142.977 56.1796 143.85 56.0185 144.407 56.3473C145.024 56.7029 145.151 57.4544 144.856 58.0717C143.662 60.5341 139.992 60.0175 138.67 57.9777C137.013 55.4348 139.025 52.1068 141.381 50.8856C141.857 50.6374 142.347 50.4563 142.85 50.3221C142.87 50.1677 142.924 50.0067 143.024 49.8792C144.172 48.2286 144.165 46.0547 143.286 44.27C142.454 42.5859 141.038 41.2977 139.482 40.2912C137.965 39.3183 136.053 38.0502 134.235 38.9493C132.819 39.6471 131.128 41.2306 131.343 42.9818C131.41 43.532 131.759 43.9882 132.229 44.27C132.772 44.6055 133.148 44.6189 133.604 44.3036C134.168 43.9144 135.006 44.2029 135.328 44.7598C135.691 45.3771 135.436 46.095 134.879 46.4842C132.604 48.0609 129.343 46.1286 128.901 43.6057C128.411 40.8548 130.33 38.3119 132.598 36.9766C133.02 36.7284 133.463 36.5405 133.906 36.3929C133.248 34.1049 131.538 32.233 129.337 31.2936C127.357 30.4482 124.097 30.2268 122.721 32.2732C121.815 33.6084 119.635 32.347 120.547 30.9984C120.655 30.844 120.769 30.6898 120.889 30.5489C119.762 27.6369 118.541 24.7115 116.414 22.3765C112.871 18.5051 107.611 16.405 102.384 16.7069C97.3588 16.9955 92.6352 19.478 89.2804 23.175C90.307 23.6111 91.3268 24.0808 92.3265 24.5639C100.257 28.4689 107.182 34.3532 112.361 41.5056C115.092 45.2831 117.628 49.5706 118.829 54.1063C119.521 56.723 119.661 59.6015 119.004 62.2383C120.956 63.6272 123.11 64.7074 125.412 65.3985C127.612 66.0427 130.296 66.6398 132.564 65.9957C133.034 65.8615 133.483 65.667 133.872 65.365C134.342 65.0094 134.725 64.5598 135.261 64.2981C136.529 63.6876 137.811 64.1572 139.005 64.7141C140.783 65.5461 142.763 65.9085 144.715 65.5261C146.56 65.1637 148.338 64.2378 149.439 62.6678C150.485 61.1782 151.022 59.2727 150.747 57.4544C150.244 54.0593 146.694 51.8519 143.487 52.7509C142.098 53.1401 140.401 54.4888 140.642 56.1393C140.743 56.817 141.159 57.0451 141.729 57.1793C141.743 57.1793 141.944 57.2128 142.132 57.1994C142.145 57.1994 142.186 57.1994 142.212 57.186C142.266 57.1726 142.327 57.1525 142.38 57.1323L142.36 57.1458ZM200.626 15.5529V184.286C200.626 192.861 193.655 199.839 185.073 199.839H52.9546C52.9546 199.839 52.9076 199.839 52.9009 199.839C52.9009 199.839 52.9054 199.839 52.9143 199.839H16.3402C7.76534 199.839 0.787354 192.868 0.787354 184.286V15.5529C0.787354 6.97803 7.75863 0 16.3402 0H185.073C193.648 0 200.626 6.97132 200.626 15.5529ZM198.104 184.286V15.5529C198.104 8.36692 192.259 2.52282 185.073 2.52282H16.3402C9.15423 2.52282 3.31017 8.36692 3.31017 15.5529V184.286C3.31017 191.472 9.15423 197.316 16.3402 197.316H52.1427C52.5252 194.075 53.015 190.848 53.8 187.674C54.4978 184.863 55.3633 182.085 56.1416 179.294C57.195 175.49 58.1747 171.692 59.5166 167.975C62.0864 160.876 65.5888 154.14 70.3257 148.249C66.7227 146.9 63.3947 144.968 60.8719 142.029C58.953 142.519 57.0206 142.928 55.0681 143.237C46.2383 144.626 36.979 144.324 28.3437 141.928C24.479 140.855 20.7552 139.238 17.5815 136.755C14.8172 134.595 11.5764 130.69 13.4752 126.979C15.2935 123.437 19.8225 124.249 23.0364 124.584C27.4514 125.04 31.9401 124.779 36.2678 123.759C38.1397 123.316 40.2801 122.86 41.8434 121.679C42.8767 120.894 43.8832 119.183 42.9908 117.935C42.5144 117.264 41.5952 116.995 40.8504 116.761C39.7769 116.425 38.6765 116.17 37.5694 115.962C35.3888 115.546 33.1814 115.318 30.994 114.936C23.808 113.694 17.2997 109.883 12.764 104.153C10.5566 101.355 8.81206 98.2286 7.71839 94.8336C6.76563 91.9015 5.42371 86.7217 9.1878 85.1584C11.1067 84.3532 13.4417 85.1248 15.3002 85.7823C17.2729 86.4734 19.165 87.3792 21.0369 88.2984C24.848 90.157 28.6389 91.8612 32.9465 92.0827C35.1137 92.1967 37.2809 92.0021 39.3945 91.4855C40.723 91.1567 42.7694 90.5395 43.2055 89.0902C43.2592 88.8956 43.2994 88.8017 43.1183 88.5534C42.9774 88.3655 42.7627 88.2582 42.5413 88.1643C41.7361 87.8355 40.8236 87.7549 39.9849 87.5335C38.3008 87.0907 36.6569 86.4466 35.1003 85.6616C28.8671 82.5014 24.0093 76.7781 21.6878 70.2161C20.5203 66.9217 19.8963 63.1509 20.4264 59.6686C20.7015 57.8436 21.7079 56.0051 23.6 55.4818C24.8547 55.1329 26.1162 55.4213 26.9817 56.2399C27.2232 56.2802 27.4514 56.3942 27.6191 56.5821C29.0952 58.293 30.6317 59.9571 32.2689 61.5137C37.4957 66.5124 44.2992 70.82 51.8005 69.2298C51.6059 68.5924 51.4516 67.9348 51.351 67.2705C51.143 67.3242 50.9283 67.3309 50.7136 67.2907C47.8217 66.7338 45.1177 65.0832 43.2793 62.7818C41.6019 60.6817 40.6223 58.1455 40.5955 55.4415C40.5686 52.8247 41.4073 50.161 42.9841 48.0676C45.9028 44.2096 51.1296 42.6865 55.6317 44.1828C55.6317 43.6259 55.6183 43.0623 55.6317 42.5054C55.6586 38.1709 56.0075 33.689 57.7184 29.6498C59.4562 25.5637 62.6701 22.4705 66.8435 20.9407C70.9564 19.4377 75.5324 19.5384 79.7863 20.2966C82.1548 20.7193 84.4897 21.3835 86.7576 22.2088C88.8778 19.6055 91.622 17.4852 94.6883 16.1098C100.244 13.6004 106.477 13.54 112.026 16.1098C114.676 17.3376 117.092 19.1828 118.917 21.464C120.715 23.705 121.876 26.2882 122.922 28.9251C125.056 27.8918 127.767 27.9656 129.954 28.8379C133.101 30.0926 135.65 32.7563 136.415 36.0977C136.415 36.1179 136.415 36.1447 136.429 36.1648C136.556 36.1849 136.684 36.2051 136.811 36.2386C138.14 36.5472 139.421 37.2853 140.562 38.0032C142.783 39.3988 144.762 41.2641 145.769 43.74C146.58 45.7394 146.661 48.1146 145.769 50.094C147.761 50.3087 149.66 51.248 151.056 52.704C153.015 50.3758 154.82 47.8798 156.276 45.2093C156.631 44.5585 156.974 43.8943 157.262 43.2099C157.517 42.5993 157.658 41.9216 157.994 41.3513C158.524 40.4388 159.543 40.0362 160.543 40.3918C161.301 40.6669 161.919 41.3312 162.442 41.9283C164.743 44.5786 165.736 48.0341 166.166 51.456C166.991 57.9442 165.448 64.7142 161.932 70.2295C162.838 70.2563 163.75 70.1959 164.643 70.0215C169.125 69.1291 172.869 66.1567 175.539 62.5402C176.928 60.6615 178.102 58.6151 179.142 56.5217C180.068 54.6699 181.162 52.5497 183.134 51.6103C184.181 51.1138 185.315 51.0601 186.362 51.5969C187.348 52.1001 187.938 53.0596 188.361 54.0459C189.327 56.3138 189.958 58.7292 190.287 61.1715C190.964 66.0964 190.461 71.1957 188.67 75.8387C187.093 79.9182 184.631 83.6353 181.47 86.6546C179.9 88.1576 178.156 89.4994 176.297 90.6266C175.392 91.1768 174.452 91.6466 173.506 92.1095C173.01 92.3511 171.728 92.9348 171.748 93.5454C171.748 93.646 172.003 93.8943 172.198 94.015C172.614 94.2901 173.09 94.431 173.566 94.5719C174.727 94.9208 175.915 95.1087 177.123 95.1691C179.666 95.3033 182.202 95.0148 184.725 94.8068C186.966 94.6189 190.045 94.0419 191.474 96.2762C192.662 98.1213 192.085 100.725 191.132 102.543C189.032 106.549 184.402 108.85 180.35 110.333C175.734 112.03 170.701 112.674 165.803 112.198C165.669 112.185 165.542 112.151 165.421 112.104C164.784 112.742 164.113 113.339 163.408 113.896C163.643 114.037 163.844 114.265 163.945 114.6C164.24 115.539 164.421 116.499 164.535 117.472C164.978 121.363 163.851 125.362 161.912 128.717C159.886 132.233 156.873 135.064 153.572 137.373C151.733 138.654 149.794 139.781 147.808 140.815C149.164 142.988 150.485 145.182 151.74 147.423C153.941 151.355 155.92 155.415 157.517 159.635C158.966 163.48 163.656 179.724 162.442 180.958C162.831 183.555 163.12 186.165 163.247 188.788C163.381 191.626 163.388 194.478 163.401 197.316H185.073C192.259 197.316 198.104 191.472 198.104 184.286ZM187.643 103.107C188.791 101.872 189.784 100.154 189.589 98.4031C189.488 97.4839 188.958 97.1753 188.079 97.1552C186.892 97.1216 185.677 97.2558 184.49 97.3564C182.081 97.5577 179.659 97.8194 177.23 97.7053C175.137 97.598 172.56 97.3095 170.762 96.0682C170.956 100.034 170.507 104.019 168.702 107.615C168.326 108.38 167.877 109.105 167.394 109.789C168.051 109.823 168.702 109.843 169.353 109.83C173.976 109.769 178.605 108.662 182.732 106.569C184.53 105.663 186.261 104.589 187.637 103.107H187.643ZM187.046 72.7456C188.308 68.2904 188.408 63.5198 187.335 59.011C187.06 57.8569 186.711 56.723 186.288 55.6092C186.04 54.9517 185.724 53.9117 184.939 53.7439C184.443 53.6299 183.752 54.1599 183.289 54.6497C182.645 55.3207 182.155 56.1326 181.739 56.9646C179.739 61.0172 177.404 64.9758 173.976 67.9884C170.655 70.9004 166.374 72.8731 161.905 72.759C164.254 75.3691 166.213 78.328 167.622 81.6493C168.93 84.7424 169.755 87.9831 170.265 91.2843C170.554 90.9957 170.883 90.7408 171.211 90.5193C172.037 89.9625 172.976 89.6001 173.842 89.1304C174.754 88.6339 175.64 88.0905 176.485 87.5C178.156 86.346 179.672 84.9839 181.041 83.4877C183.832 80.4348 185.919 76.7378 187.039 72.7456H187.046ZM115.797 63.6205C117.91 59.5544 116.723 54.6968 114.891 50.7716C113.133 46.9941 110.838 43.438 108.168 40.2442C102.874 33.8969 96.084 28.8043 88.4618 25.577C84.7648 24.0137 80.7994 22.7859 76.7871 22.4168C72.909 22.0545 68.7758 22.39 65.3539 24.4163C58.074 28.7171 58.0203 38.2918 58.1747 45.7461C58.1747 45.8401 58.1746 45.9272 58.1545 46.0077C58.1881 46.8733 57.2688 47.7858 56.2758 47.2222C54.1757 46.0346 51.6596 45.8535 49.3649 46.5446C45.1379 47.8127 42.6755 52.1807 43.172 56.4815C43.6484 60.675 47.1642 63.9694 51.1833 64.835C51.2504 61.3124 52.552 57.6758 54.9339 55.0926C56.2825 53.6232 58.0673 52.5966 60.0601 52.402C61.8381 52.2276 63.7436 52.7778 65.0386 54.0325C67.5077 56.4144 66.6757 61.4936 63.0123 62.1713C62.3346 62.292 61.6569 61.9968 61.4623 61.2855C61.2946 60.6683 61.6771 59.8564 62.348 59.7357C63.3746 59.5478 63.965 58.6084 63.9852 57.5349C63.9852 56.9847 63.8845 56.5285 63.5021 56.0655C63.1062 55.5824 62.5426 55.2536 61.9522 55.0792C59.0805 54.227 56.6918 56.4613 55.3834 58.7829C54.0147 61.2117 53.4041 64.1841 53.8469 66.9552C54.0617 68.3441 54.538 69.6658 55.3096 70.84C56.1886 72.1886 57.4769 73.1884 58.8523 74.0003C60.3419 74.886 61.9723 75.7717 63.6899 76.1138C64.9245 76.3621 66.5147 76.1474 67.2729 75.0135C67.3937 74.8323 67.5413 74.6981 67.7023 74.6042C66.6489 71.0615 67.1253 66.5124 70.5539 64.4257C72.0233 63.5333 73.9087 63.1978 75.5794 63.6473C77.4916 64.1707 78.8 65.7408 79.2764 67.6396C79.7528 69.5585 79.7662 72.0344 78.4913 73.6514C77.2031 75.2818 74.6736 75.369 73.4457 73.6514C73.0499 73.0945 73.3518 72.2424 73.902 71.9203C74.526 71.558 75.2305 71.8264 75.6264 72.3765C75.6264 72.3765 75.7538 72.4302 75.9686 72.4034C76.0289 72.39 76.2839 72.3095 76.3711 72.2491C76.9079 71.8532 76.9884 70.9809 77.0152 70.3637C77.0689 68.9949 76.881 67.1967 75.6532 66.4117C73.7946 65.2241 71.1779 66.452 70.2519 68.4514C69.0979 70.9407 69.8359 74.1077 71.198 76.3554C72.6875 78.8044 75.2573 80.153 78.1089 79.4216C80.9739 78.697 83.0136 76.2749 84.0469 73.5977C84.2683 73.0207 84.7715 72.6114 85.3955 72.6852C85.4291 72.6852 85.4559 72.6718 85.4895 72.6718C86.7576 72.7121 88.0257 72.7188 89.2938 72.6718C94.4133 72.5175 99.4924 71.7257 104.411 70.3167C106.699 69.6592 109.033 68.9413 111.167 67.8811C113.12 66.9082 114.79 65.5998 115.81 63.6406L115.797 63.6205Z" fill="white"/>
<mask id="mask0_8378_53202" style="mask-type:luminance" maskUnits="userSpaceOnUse" x="0" y="0" width="201" height="200">
<path d="M25.2103 57.9643C24.895 57.8368 24.7944 57.8301 24.4723 57.8704C24.4723 57.8704 24.2576 57.924 24.2173 57.9375C24.0697 57.9844 24.0831 57.9711 23.9221 58.0717C23.7946 58.1522 23.5396 58.4206 23.392 58.6554C22.5667 60.0041 22.7479 61.9968 22.8553 63.5199C22.9626 65.0966 23.2578 66.66 23.7007 68.183C24.5931 71.2627 26.1162 74.1949 28.1223 76.6976C30.1688 79.2472 32.658 81.4211 35.523 83.018C36.9119 83.7963 38.3746 84.427 39.8977 84.8833C41.5214 85.3731 43.5813 85.4201 44.8427 86.6815C46.2584 88.1039 45.8625 90.0966 44.6481 91.4855C43.3598 92.9616 41.4811 93.6058 39.6293 94.0217C35.3888 94.9812 30.8733 94.8202 26.7267 93.4849C22.9358 92.2638 19.534 90.1436 15.8504 88.6608C14.9178 88.285 13.9717 87.9562 12.9988 87.6945C12.1937 87.4731 11.2409 87.1847 10.4022 87.3926C9.06031 87.7147 9.1341 89.533 9.29513 90.6535C10.2345 97.1417 14.3005 103.194 19.3931 107.179C21.9629 109.199 24.9218 110.749 28.0552 111.675C32.0877 112.869 36.355 112.929 40.421 113.996C42.2594 114.479 44.4401 115.123 45.3593 116.962C46.198 118.633 45.8692 120.739 44.7957 122.222C43.6081 123.853 41.7831 124.745 39.9111 125.362C37.8579 126.04 35.731 126.51 33.5974 126.825C31.4234 127.147 29.2361 127.322 27.0421 127.315C24.9755 127.301 22.9492 127.06 20.9028 126.845C19.534 126.704 17.8499 126.53 16.6288 127.228C15.3539 127.959 15.2868 129.395 15.7565 130.67C16.3604 132.307 17.6687 133.568 18.9838 134.648C20.4062 135.816 22.0166 136.762 23.6805 137.547C27.2098 139.224 31.1014 140.137 34.9393 140.761C43.5611 142.163 52.4849 141.667 60.9189 139.419C61.2745 139.325 61.5697 139.379 61.818 139.513C62.0058 139.567 62.1736 139.667 62.2944 139.822C62.8378 140.499 63.4283 141.137 64.0724 141.72C66.6422 144.082 69.9299 145.538 73.2243 146.558C76.9012 147.692 80.7189 148.39 84.5233 148.94C92.5279 150.107 100.693 150.268 108.745 149.544C116.77 148.819 124.714 147.142 132.349 144.599C136.174 143.324 139.931 141.828 143.568 140.103C147.057 138.453 150.526 136.628 153.585 134.259C156.578 131.951 159.114 129.093 160.677 125.631C162.14 122.397 162.59 118.686 161.529 115.271V115.258C160.657 115.828 159.758 116.358 158.846 116.834C154.384 119.183 149.499 120.827 144.688 122.303C134.262 125.49 123.439 127.322 112.569 128.133C101.458 128.965 90.005 129.113 79.0818 126.657C77.4983 126.302 78.176 123.866 79.7527 124.228C81.0611 124.524 82.3695 124.779 83.6913 124.993C89.0657 125.886 94.5407 126.127 99.9822 126.107C105.29 126.087 110.59 125.832 115.877 125.336C126.344 124.342 136.737 122.323 146.721 119.015C154.813 116.338 164.925 112.849 167.541 103.737C168.769 99.4901 168.407 94.9007 167.635 90.5999C167.005 87.0639 165.958 83.6084 164.294 80.4348C160.993 74.1345 155.511 69.5987 149.325 66.2305C148.64 66.727 147.889 67.1364 147.084 67.4584C144.762 68.3844 142.038 68.4246 139.663 67.6865C138.958 67.4651 138.301 67.1498 137.63 66.8411C137.174 66.6398 136.63 66.3513 136.181 66.6801C135.644 67.076 135.208 67.5658 134.604 67.8879C134.054 68.1764 133.456 68.391 132.853 68.5252C130.182 69.109 127.217 68.5722 124.64 67.8006C122.319 67.1028 120.104 66.0494 118.105 64.6874C117.548 65.7944 116.817 66.8143 115.871 67.7067C114.079 69.3841 111.825 70.4173 109.543 71.2694C107 72.2155 104.397 72.9872 101.747 73.5843C96.6207 74.7518 91.3402 75.2818 86.0799 75.1812C84.2616 79.0929 80.7122 82.3336 76.143 82.1122C72.8217 81.9579 70.2855 79.8645 68.7624 77.1136C65.5149 80.4482 59.8319 77.751 56.571 75.51C55.0614 74.47 53.753 73.1817 52.8405 71.5915C52.8271 71.5915 52.8137 71.6049 52.8003 71.6049C50.4854 72.1417 48.1438 72.2424 45.7887 71.9002C37.8714 70.7461 31.4838 64.7813 26.3845 58.9775C25.9283 58.897 25.5592 58.5347 25.3714 58.0717C25.358 58.0717 25.2171 57.9643 25.2171 57.9576L25.2103 57.9643ZM160.006 43.0757C159.805 43.6661 159.564 44.2432 159.309 44.8135C158.711 46.142 157.98 47.4034 157.195 48.6312C155.806 50.8119 154.223 52.8784 152.545 54.851C152.639 55.0456 152.726 55.2335 152.8 55.4348C153.666 57.7362 153.384 60.3596 152.384 62.5671C152.082 63.2448 151.686 63.8554 151.244 64.419C151.7 64.6739 152.149 64.9356 152.592 65.204C154.934 66.5996 157.128 68.1965 159.141 69.988C159.168 69.9142 159.208 69.8336 159.255 69.7665C161.221 66.8948 162.596 63.701 163.321 60.2992C163.945 57.3873 164.072 54.3344 163.656 51.3822C163.261 48.5574 162.408 45.5448 160.416 43.4246C160.328 43.3306 160.161 43.2099 160.02 43.0824L160.006 43.0757ZM142.36 57.1458C142.36 57.1458 142.521 57.025 142.535 57.0384C142.568 56.9981 142.588 56.9579 142.568 56.9915C142.602 56.9244 142.642 56.8572 142.675 56.7969C142.977 56.1796 143.85 56.0185 144.407 56.3473C145.024 56.7029 145.151 57.4544 144.856 58.0717C143.662 60.5341 139.992 60.0175 138.67 57.9777C137.013 55.4348 139.025 52.1068 141.381 50.8856C141.857 50.6374 142.347 50.4563 142.85 50.3221C142.87 50.1677 142.924 50.0067 143.024 49.8792C144.172 48.2286 144.165 46.0547 143.286 44.27C142.454 42.5859 141.038 41.2977 139.482 40.2912C137.965 39.3183 136.053 38.0502 134.235 38.9493C132.819 39.6471 131.128 41.2306 131.343 42.9818C131.41 43.532 131.759 43.9882 132.229 44.27C132.772 44.6055 133.148 44.6189 133.604 44.3036C134.168 43.9144 135.006 44.2029 135.328 44.7598C135.691 45.3771 135.436 46.095 134.879 46.4842C132.604 48.0609 129.343 46.1286 128.901 43.6057C128.411 40.8548 130.33 38.3119 132.598 36.9766C133.02 36.7284 133.463 36.5405 133.906 36.3929C133.248 34.1049 131.538 32.233 129.337 31.2936C127.357 30.4482 124.097 30.2268 122.721 32.2732C121.815 33.6084 119.635 32.347 120.547 30.9984C120.655 30.844 120.769 30.6898 120.889 30.5489C119.762 27.6369 118.541 24.7115 116.414 22.3765C112.871 18.5051 107.611 16.405 102.384 16.7069C97.3588 16.9955 92.6352 19.478 89.2804 23.175C90.307 23.6111 91.3268 24.0808 92.3265 24.5639C100.257 28.4689 107.182 34.3532 112.361 41.5056C115.092 45.2831 117.628 49.5706 118.829 54.1063C119.521 56.723 119.661 59.6015 119.004 62.2383C120.956 63.6272 123.11 64.7074 125.412 65.3985C127.612 66.0427 130.296 66.6398 132.564 65.9957C133.034 65.8615 133.483 65.667 133.872 65.365C134.342 65.0094 134.725 64.5598 135.261 64.2981C136.529 63.6876 137.811 64.1572 139.005 64.7141C140.783 65.5461 142.763 65.9085 144.715 65.5261C146.56 65.1637 148.338 64.2378 149.439 62.6678C150.485 61.1782 151.022 59.2727 150.747 57.4544C150.244 54.0593 146.694 51.8519 143.487 52.7509C142.098 53.1401 140.401 54.4888 140.642 56.1393C140.743 56.817 141.159 57.0451 141.729 57.1793C141.743 57.1793 141.944 57.2128 142.132 57.1994C142.145 57.1994 142.186 57.1994 142.212 57.186C142.266 57.1726 142.327 57.1525 142.38 57.1323L142.36 57.1458ZM200.626 15.5529V184.286C200.626 192.861 193.655 199.839 185.073 199.839H52.9546C52.9546 199.839 52.9076 199.839 52.9009 199.839C52.9009 199.839 52.9054 199.839 52.9143 199.839H16.3402C7.76534 199.839 0.787354 192.868 0.787354 184.286V15.5529C0.787354 6.97803 7.75863 0 16.3402 0H185.073C193.648 0 200.626 6.97132 200.626 15.5529ZM198.104 184.286V15.5529C198.104 8.36692 192.259 2.52282 185.073 2.52282H16.3402C9.15423 2.52282 3.31017 8.36692 3.31017 15.5529V184.286C3.31017 191.472 9.15423 197.316 16.3402 197.316H52.1427C52.5252 194.075 53.015 190.848 53.8 187.674C54.4978 184.863 55.3633 182.085 56.1416 179.294C57.195 175.49 58.1747 171.692 59.5166 167.975C62.0864 160.876 65.5888 154.14 70.3257 148.249C66.7227 146.9 63.3947 144.968 60.8719 142.029C58.953 142.519 57.0206 142.928 55.0681 143.237C46.2383 144.626 36.979 144.324 28.3437 141.928C24.479 140.855 20.7552 139.238 17.5815 136.755C14.8172 134.595 11.5764 130.69 13.4752 126.979C15.2935 123.437 19.8225 124.249 23.0364 124.584C27.4514 125.04 31.9401 124.779 36.2678 123.759C38.1397 123.316 40.2801 122.86 41.8434 121.679C42.8767 120.894 43.8832 119.183 42.9908 117.935C42.5144 117.264 41.5952 116.995 40.8504 116.761C39.7769 116.425 38.6765 116.17 37.5694 115.962C35.3888 115.546 33.1814 115.318 30.994 114.936C23.808 113.694 17.2997 109.883 12.764 104.153C10.5566 101.355 8.81206 98.2286 7.71839 94.8336C6.76563 91.9015 5.42371 86.7217 9.1878 85.1584C11.1067 84.3532 13.4417 85.1248 15.3002 85.7823C17.2729 86.4734 19.165 87.3792 21.0369 88.2984C24.848 90.157 28.6389 91.8612 32.9465 92.0827C35.1137 92.1967 37.2809 92.0021 39.3945 91.4855C40.723 91.1567 42.7694 90.5395 43.2055 89.0902C43.2592 88.8956 43.2994 88.8017 43.1183 88.5534C42.9774 88.3655 42.7627 88.2582 42.5413 88.1643C41.7361 87.8355 40.8236 87.7549 39.9849 87.5335C38.3008 87.0907 36.6569 86.4466 35.1003 85.6616C28.8671 82.5014 24.0093 76.7781 21.6878 70.2161C20.5203 66.9217 19.8963 63.1509 20.4264 59.6686C20.7015 57.8436 21.7079 56.0051 23.6 55.4818C24.8547 55.1329 26.1162 55.4213 26.9817 56.2399C27.2232 56.2802 27.4514 56.3942 27.6191 56.5821C29.0952 58.293 30.6317 59.9571 32.2689 61.5137C37.4957 66.5124 44.2992 70.82 51.8005 69.2298C51.6059 68.5924 51.4516 67.9348 51.351 67.2705C51.143 67.3242 50.9283 67.3309 50.7136 67.2907C47.8217 66.7338 45.1177 65.0832 43.2793 62.7818C41.6019 60.6817 40.6223 58.1455 40.5955 55.4415C40.5686 52.8247 41.4073 50.161 42.9841 48.0676C45.9028 44.2096 51.1296 42.6865 55.6317 44.1828C55.6317 43.6259 55.6183 43.0623 55.6317 42.5054C55.6586 38.1709 56.0075 33.689 57.7184 29.6498C59.4562 25.5637 62.6701 22.4705 66.8435 20.9407C70.9564 19.4377 75.5324 19.5384 79.7863 20.2966C82.1548 20.7193 84.4897 21.3835 86.7576 22.2088C88.8778 19.6055 91.622 17.4852 94.6883 16.1098C100.244 13.6004 106.477 13.54 112.026 16.1098C114.676 17.3376 117.092 19.1828 118.917 21.464C120.715 23.705 121.876 26.2882 122.922 28.9251C125.056 27.8918 127.767 27.9656 129.954 28.8379C133.101 30.0926 135.65 32.7563 136.415 36.0977C136.415 36.1179 136.415 36.1447 136.429 36.1648C136.556 36.1849 136.684 36.2051 136.811 36.2386C138.14 36.5472 139.421 37.2853 140.562 38.0032C142.783 39.3988 144.762 41.2641 145.769 43.74C146.58 45.7394 146.661 48.1146 145.769 50.094C147.761 50.3087 149.66 51.248 151.056 52.704C153.015 50.3758 154.82 47.8798 156.276 45.2093C156.631 44.5585 156.974 43.8943 157.262 43.2099C157.517 42.5993 157.658 41.9216 157.994 41.3513C158.524 40.4388 159.543 40.0362 160.543 40.3918C161.301 40.6669 161.919 41.3312 162.442 41.9283C164.743 44.5786 165.736 48.0341 166.166 51.456C166.991 57.9442 165.448 64.7142 161.932 70.2295C162.838 70.2563 163.75 70.1959 164.643 70.0215C169.125 69.1291 172.869 66.1567 175.539 62.5402C176.928 60.6615 178.102 58.6151 179.142 56.5217C180.068 54.6699 181.162 52.5497 183.134 51.6103C184.181 51.1138 185.315 51.0601 186.362 51.5969C187.348 52.1001 187.938 53.0596 188.361 54.0459C189.327 56.3138 189.958 58.7292 190.287 61.1715C190.964 66.0964 190.461 71.1957 188.67 75.8387C187.093 79.9182 184.631 83.6353 181.47 86.6546C179.9 88.1576 178.156 89.4994 176.297 90.6266C175.392 91.1768 174.452 91.6466 173.506 92.1095C173.01 92.3511 171.728 92.9348 171.748 93.5454C171.748 93.646 172.003 93.8943 172.198 94.015C172.614 94.2901 173.09 94.431 173.566 94.5719C174.727 94.9208 175.915 95.1087 177.123 95.1691C179.666 95.3033 182.202 95.0148 184.725 94.8068C186.966 94.6189 190.045 94.0419 191.474 96.2762C192.662 98.1213 192.085 100.725 191.132 102.543C189.032 106.549 184.402 108.85 180.35 110.333C175.734 112.03 170.701 112.674 165.803 112.198C165.669 112.185 165.542 112.151 165.421 112.104C164.784 112.742 164.113 113.339 163.408 113.896C163.643 114.037 163.844 114.265 163.945 114.6C164.24 115.539 164.421 116.499 164.535 117.472C164.978 121.363 163.851 125.362 161.912 128.717C159.886 132.233 156.873 135.064 153.572 137.373C151.733 138.654 149.794 139.781 147.808 140.815C149.164 142.988 150.485 145.182 151.74 147.423C153.941 151.355 155.92 155.415 157.517 159.635C158.966 163.48 163.656 179.724 162.442 180.958C162.831 183.555 163.12 186.165 163.247 188.788C163.381 191.626 163.388 194.478 163.401 197.316H185.073C192.259 197.316 198.104 191.472 198.104 184.286ZM187.643 103.107C188.791 101.872 189.784 100.154 189.589 98.4031C189.488 97.4839 188.958 97.1753 188.079 97.1552C186.892 97.1216 185.677 97.2558 184.49 97.3564C182.081 97.5577 179.659 97.8194 177.23 97.7053C175.137 97.598 172.56 97.3095 170.762 96.0682C170.956 100.034 170.507 104.019 168.702 107.615C168.326 108.38 167.877 109.105 167.394 109.789C168.051 109.823 168.702 109.843 169.353 109.83C173.976 109.769 178.605 108.662 182.732 106.569C184.53 105.663 186.261 104.589 187.637 103.107H187.643ZM187.046 72.7456C188.308 68.2904 188.408 63.5198 187.335 59.011C187.06 57.8569 186.711 56.723 186.288 55.6092C186.04 54.9517 185.724 53.9117 184.939 53.7439C184.443 53.6299 183.752 54.1599 183.289 54.6497C182.645 55.3207 182.155 56.1326 181.739 56.9646C179.739 61.0172 177.404 64.9758 173.976 67.9884C170.655 70.9004 166.374 72.8731 161.905 72.759C164.254 75.3691 166.213 78.328 167.622 81.6493C168.93 84.7424 169.755 87.9831 170.265 91.2843C170.554 90.9957 170.883 90.7408 171.211 90.5193C172.037 89.9625 172.976 89.6001 173.842 89.1304C174.754 88.6339 175.64 88.0905 176.485 87.5C178.156 86.346 179.672 84.9839 181.041 83.4877C183.832 80.4348 185.919 76.7378 187.039 72.7456H187.046ZM115.797 63.6205C117.91 59.5544 116.723 54.6968 114.891 50.7716C113.133 46.9941 110.838 43.438 108.168 40.2442C102.874 33.8969 96.084 28.8043 88.4618 25.577C84.7648 24.0137 80.7994 22.7859 76.7871 22.4168C72.909 22.0545 68.7758 22.39 65.3539 24.4163C58.074 28.7171 58.0203 38.2918 58.1747 45.7461C58.1747 45.8401 58.1746 45.9272 58.1545 46.0077C58.1881 46.8733 57.2688 47.7858 56.2758 47.2222C54.1757 46.0346 51.6596 45.8535 49.3649 46.5446C45.1379 47.8127 42.6755 52.1807 43.172 56.4815C43.6484 60.675 47.1642 63.9694 51.1833 64.835C51.2504 61.3124 52.552 57.6758 54.9339 55.0926C56.2825 53.6232 58.0673 52.5966 60.0601 52.402C61.8381 52.2276 63.7436 52.7778 65.0386 54.0325C67.5077 56.4144 66.6757 61.4936 63.0123 62.1713C62.3346 62.292 61.6569 61.9968 61.4623 61.2855C61.2946 60.6683 61.6771 59.8564 62.348 59.7357C63.3746 59.5478 63.965 58.6084 63.9852 57.5349C63.9852 56.9847 63.8845 56.5285 63.5021 56.0655C63.1062 55.5824 62.5426 55.2536 61.9522 55.0792C59.0805 54.227 56.6918 56.4613 55.3834 58.7829C54.0147 61.2117 53.4041 64.1841 53.8469 66.9552C54.0617 68.3441 54.538 69.6658 55.3096 70.84C56.1886 72.1886 57.4769 73.1884 58.8523 74.0003C60.3419 74.886 61.9723 75.7717 63.6899 76.1138C64.9245 76.3621 66.5147 76.1474 67.2729 75.0135C67.3937 74.8323 67.5413 74.6981 67.7023 74.6042C66.6489 71.0615 67.1253 66.5124 70.5539 64.4257C72.0233 63.5333 73.9087 63.1978 75.5794 63.6473C77.4916 64.1707 78.8 65.7408 79.2764 67.6396C79.7528 69.5585 79.7662 72.0344 78.4913 73.6514C77.2031 75.2818 74.6736 75.369 73.4457 73.6514C73.0499 73.0945 73.3518 72.2424 73.902 71.9203C74.526 71.558 75.2305 71.8264 75.6264 72.3765C75.6264 72.3765 75.7538 72.4302 75.9686 72.4034C76.0289 72.39 76.2839 72.3095 76.3711 72.2491C76.9079 71.8532 76.9884 70.9809 77.0152 70.3637C77.0689 68.9949 76.881 67.1967 75.6532 66.4117C73.7946 65.2241 71.1779 66.452 70.2519 68.4514C69.0979 70.9407 69.8359 74.1077 71.198 76.3554C72.6875 78.8044 75.2573 80.153 78.1089 79.4216C80.9739 78.697 83.0136 76.2749 84.0469 73.5977C84.2683 73.0207 84.7715 72.6114 85.3955 72.6852C85.4291 72.6852 85.4559 72.6718 85.4895 72.6718C86.7576 72.7121 88.0257 72.7188 89.2938 72.6718C94.4133 72.5175 99.4924 71.7257 104.411 70.3167C106.699 69.6592 109.033 68.9413 111.167 67.8811C113.12 66.9082 114.79 65.5998 115.81 63.6406L115.797 63.6205Z" fill="white"/>
</mask>
<g mask="url(#mask0_8378_53202)">
<path d="M50.8411 197.32H165.803L164.16 151.735L147.822 140.825C147.822 140.825 129.672 151.748 104.102 152.439C78.5316 153.131 70.3258 148.253 70.3258 148.253L59.5233 149.984L50.8411 197.32Z" fill="#252525"/>
</g>
<path d="M151.747 76.0002C153.129 76.1746 154.477 76.7181 155.618 77.6373C158.376 79.8582 159.51 84.0584 157.477 87.118C155.558 90.0098 152.075 91.9422 148.573 91.4591C145.144 90.9828 142.246 88.1378 142.179 84.6086C142.118 81.4416 144.151 78.0063 147.144 76.812C148.251 76.2551 149.465 75.96 150.687 75.9465C150.74 75.9331 150.78 75.9129 150.827 75.8928C151.15 75.7787 151.478 75.8391 151.753 76.0002H151.747ZM154.176 80.2809C154.176 80.2138 154.176 80.1467 154.162 80.0863C154.122 79.9387 154.088 79.8112 154.035 79.6703C154.021 79.6368 154.021 79.6099 154.015 79.5764C153.78 79.3818 153.525 79.2006 153.263 79.053C152.612 78.684 151.901 78.4827 151.183 78.4358C151.17 78.4492 151.15 78.4492 151.136 78.4559C151.089 78.4693 151.049 78.4894 151.002 78.5096H150.989C150.754 78.6236 150.526 78.7377 150.311 78.8786C150.264 78.9055 150.224 78.9323 150.177 78.9659C150.089 79.0464 150.002 79.1335 149.922 79.2207L149.908 79.2342L149.848 79.3281C149.821 79.3684 149.801 79.4154 149.774 79.4556C149.761 79.516 149.741 79.5764 149.72 79.6368C149.72 79.6234 149.72 79.6032 149.72 79.5898C149.707 79.6032 149.707 79.6502 149.7 79.7039C149.7 79.6905 149.7 79.6704 149.714 79.6368C149.714 79.6771 149.7 79.7039 149.7 79.7173C149.7 79.7844 149.7 79.8515 149.714 79.9119C149.741 79.9789 149.774 80.0863 149.787 80.1199C149.801 80.1534 149.801 80.1735 149.808 80.187C149.821 80.2205 149.841 80.2474 149.855 80.2742C149.902 80.3614 149.955 80.4419 150.009 80.5224C150.029 80.5426 150.163 80.7036 150.19 80.7371C150.237 80.7774 150.277 80.8177 150.324 80.8512L150.338 80.8646C150.458 80.9452 150.579 81.0189 150.707 81.0927C150.76 81.1196 150.821 81.1464 150.874 81.1733C150.888 81.1733 150.888 81.1733 150.908 81.1867C151.042 81.2337 151.183 81.2806 151.324 81.3209C151.465 81.3611 151.606 81.3947 151.753 81.4215C151.794 81.4349 152.028 81.4551 152.055 81.4685C152.33 81.4954 152.612 81.5155 152.887 81.5087C152.961 81.5087 153.035 81.5087 153.102 81.4953C153.115 81.4953 153.136 81.4954 153.156 81.482C153.25 81.4551 153.33 81.4282 153.417 81.4014C153.444 81.3812 153.625 81.294 153.659 81.2672C153.679 81.2538 153.692 81.2538 153.699 81.2403C153.733 81.2135 153.76 81.1867 153.793 81.1598C153.833 81.1196 153.961 80.9452 153.968 80.9452C154.001 80.8915 154.035 80.8311 154.061 80.7774C154.061 80.764 154.142 80.5291 154.155 80.4889C154.155 80.4687 154.155 80.4554 154.169 80.4487C154.169 80.395 154.169 80.3413 154.182 80.2943L154.176 80.2809ZM148.211 88.8021C148.124 88.7685 148.036 88.735 147.949 88.7014C147.915 88.688 147.889 88.6679 147.855 88.6478C147.781 88.6344 147.721 88.6143 147.654 88.6008C147.835 88.6747 148.023 88.7417 148.211 88.7954V88.8021Z" fill="white"/>
<path d="M150.733 57.4616C151.008 59.2799 150.472 61.1855 149.425 62.675C148.325 64.245 146.553 65.171 144.701 65.5333C142.749 65.9157 140.77 65.5534 138.992 64.7214C137.804 64.1645 136.522 63.6948 135.248 64.3054C134.711 64.5671 134.322 65.0167 133.859 65.3723C133.463 65.6742 133.013 65.8687 132.55 66.0029C130.289 66.6403 127.599 66.0499 125.398 65.4058C123.096 64.7214 120.943 63.6412 118.99 62.2456C119.648 59.6087 119.507 56.7303 118.816 54.1135C117.608 49.5778 115.078 45.2904 112.348 41.5129C107.161 34.3537 100.244 28.4694 92.3128 24.5711C91.3131 24.0813 90.2932 23.6117 89.2666 23.1822C92.6281 19.4785 97.345 17.0027 102.37 16.7142C107.597 16.4122 112.858 18.5123 116.4 22.3838C118.534 24.712 119.755 27.6374 120.876 30.5561C120.755 30.697 120.641 30.8513 120.533 31.0056C119.621 32.3542 121.802 33.6156 122.707 32.2804C124.083 30.2407 127.344 30.4554 129.323 31.3009C131.524 32.2402 133.235 34.1122 133.892 36.4001C133.443 36.5477 133.007 36.7356 132.584 36.9839C130.323 38.3191 128.397 40.862 128.887 43.613C129.336 46.1425 132.591 48.0682 134.865 46.4914C135.422 46.1023 135.677 45.3843 135.315 44.767C134.993 44.2101 134.154 43.9216 133.59 44.3108C133.134 44.6261 132.758 44.6194 132.215 44.2772C131.752 43.9887 131.396 43.5391 131.329 42.9889C131.114 41.2377 132.805 39.6543 134.221 38.9565C136.039 38.0507 137.945 39.3256 139.468 40.2985C141.025 41.3049 142.44 42.5931 143.272 44.2772C144.151 46.0553 144.158 48.2359 143.011 49.8864C142.917 50.0206 142.856 50.175 142.836 50.3293C142.34 50.4635 141.85 50.6446 141.367 50.8929C139.012 52.114 136.999 55.442 138.656 57.985C139.985 60.0247 143.648 60.5346 144.842 58.0789C145.138 57.4616 145.01 56.7101 144.393 56.3545C143.836 56.0257 142.964 56.1868 142.662 56.8041C142.628 56.8712 142.588 56.9382 142.554 56.9986C142.574 56.9651 142.554 56.9986 142.521 57.0456C142.507 57.0322 142.346 57.1329 142.346 57.153C142.293 57.1731 142.232 57.1865 142.179 57.2066C142.145 57.2066 142.112 57.2201 142.098 57.2201C141.91 57.2335 141.702 57.1999 141.695 57.1999C141.132 57.0657 140.709 56.8376 140.609 56.1599C140.367 54.5026 142.058 53.1608 143.453 52.7716C146.661 51.8658 150.21 54.08 150.713 57.475L150.733 57.4616Z" fill="#F9F8F4"/>
<path d="M114.905 50.7729C116.736 54.6981 117.917 59.5558 115.81 63.6218C114.79 65.581 113.12 66.8894 111.167 67.8623C109.034 68.9224 106.699 69.6404 104.411 70.2979C99.4858 71.7069 94.4134 72.4986 89.2939 72.653C88.0258 72.6932 86.7644 72.6865 85.4896 72.653C85.4561 72.653 85.4292 72.653 85.3957 72.6664C84.7784 72.5926 84.2684 73.0019 84.047 73.5789C83.0137 76.256 80.974 78.6782 78.109 79.4028C75.2575 80.1341 72.6809 78.7855 71.1981 76.3365C69.8293 74.0888 69.098 70.9219 70.2521 68.4326C71.178 66.4331 73.7947 65.2052 75.6533 66.3929C76.8812 67.1779 77.0623 68.9761 77.0154 70.3448C76.9885 70.9621 76.908 71.8344 76.3712 72.2303C76.284 72.2974 76.0291 72.3779 75.9687 72.3846C75.754 72.4114 75.6265 72.3577 75.6265 72.3577C75.2306 71.8075 74.5261 71.5392 73.9021 71.9015C73.3519 72.2236 73.05 73.0689 73.4458 73.6325C74.6737 75.3502 77.2032 75.2563 78.4914 73.6325C79.7663 72.0155 79.7529 69.5397 79.2765 67.6208C78.8001 65.7219 77.4917 64.1586 75.5795 63.6285C73.9088 63.1722 72.0234 63.5145 70.554 64.4068C67.1321 66.4868 66.649 71.036 67.7024 74.5853C67.5414 74.6793 67.3938 74.8135 67.273 74.9946C66.5148 76.1218 64.9246 76.3433 63.6901 76.095C61.9724 75.7528 60.3487 74.8671 58.8524 73.9815C57.4837 73.1696 56.1887 72.1699 55.3098 70.8213C54.5382 69.6404 54.0618 68.3186 53.8471 66.9364C53.4042 64.1653 54.0215 61.1929 55.3836 58.764C56.6919 56.4425 59.0873 54.2083 61.9523 55.0604C62.5494 55.2348 63.1063 55.5636 63.5022 56.0467C63.8847 56.5164 63.992 56.9726 63.9853 57.5161C63.9719 58.5896 63.3747 59.5357 62.3481 59.7168C61.6772 59.8443 61.3014 60.6562 61.4625 61.2668C61.657 61.9713 62.3415 62.2732 63.0124 62.1524C66.6759 61.4747 67.5078 56.3956 65.0387 54.0137C63.7437 52.759 61.8382 52.2087 60.0602 52.3832C58.0607 52.5778 56.2827 53.6111 54.934 55.0737C52.5454 57.6637 51.2505 61.2936 51.1834 64.8161C47.1643 63.9506 43.6552 60.6629 43.1721 56.4627C42.6756 52.1685 45.138 47.8005 49.3651 46.5257C51.6597 45.8346 54.1691 46.0225 56.2759 47.2034C57.269 47.767 58.1882 46.8545 58.1546 45.989C58.168 45.9085 58.1815 45.8145 58.1748 45.7273C58.0205 38.2796 58.0674 28.705 65.3541 24.3974C68.776 22.3778 72.9091 22.0357 76.7872 22.398C80.7996 22.7737 84.765 23.9948 88.462 25.5582C96.0841 28.7788 102.867 33.8714 108.168 40.2254C110.839 43.4259 113.133 46.9753 114.891 50.7528L114.905 50.7729Z" fill="#F9F8F4"/>
<path d="M82.0135 96.0873C82.0135 96.0873 82.0672 96.0873 82.1477 96.1007C82.396 96.1208 82.6442 96.1209 82.8925 96.1142H82.9797C83.0938 96.094 83.2078 96.0739 83.3219 96.0404C83.4427 96.0068 83.5634 95.9665 83.6909 95.933C83.7312 95.9196 83.758 95.9129 83.7782 95.9062C83.7983 95.8928 83.8184 95.8793 83.8587 95.8592C83.9727 95.7921 84.0734 95.7317 84.1875 95.6646C84.2277 95.6377 84.2546 95.6244 84.268 95.6176C84.2814 95.6042 84.3015 95.5774 84.3351 95.5439C84.4089 95.47 84.4827 95.3963 84.5498 95.3157C84.5632 95.2956 84.5833 95.2687 84.59 95.262C84.637 95.1815 84.684 95.1077 84.7242 95.0272C84.7242 95.0071 84.8048 94.8393 84.8182 94.8192C84.845 94.7252 84.8651 94.6246 84.8853 94.5307C84.8853 94.5307 84.8853 94.5262 84.8853 94.5173C84.8853 94.5173 84.8852 94.4837 84.8718 94.4636C84.8718 94.3965 84.8718 94.3361 84.8718 94.2757C84.8718 94.2623 84.8719 94.2422 84.8584 94.2221C84.8584 94.2087 84.7846 94.014 84.7846 93.9872C84.7108 93.8329 84.6236 93.692 84.523 93.5578C84.4961 93.5377 84.382 93.4034 84.382 93.3967L84.1875 93.2022C84.1204 93.1418 84.0533 93.0814 83.9795 93.021L83.9392 92.9807C83.9392 92.9807 83.9057 92.9674 83.8788 92.9472C83.6842 92.8332 83.5031 92.7124 83.3018 92.6118C83.275 92.5983 83.1072 92.538 83.1005 92.5312C83.0267 92.5044 82.9529 92.4776 82.8858 92.4574C82.7382 92.4105 82.5906 92.3836 82.4362 92.3501C82.3826 92.3367 82.2752 92.3232 82.2484 92.3165C82.1545 92.3165 82.0605 92.3165 81.9733 92.3165C81.7921 92.3165 81.6177 92.3434 81.4365 92.3769C81.3157 92.4105 81.1883 92.444 81.0742 92.4909C81.0205 92.5178 80.9199 92.5648 80.8998 92.5782C80.8058 92.6319 80.7253 92.6855 80.6381 92.7459C80.6045 92.7728 80.524 92.8399 80.5039 92.86C80.4435 92.9137 80.3831 92.9808 80.3295 93.0479C80.3295 93.0613 80.2154 93.2291 80.1684 93.3029C80.1684 93.3163 80.0745 93.5578 80.0745 93.5578C80.0409 93.6518 80.0208 93.7389 80.0074 93.8329C79.9939 93.8865 79.9872 93.9268 79.9805 93.947V94.0611C79.9805 94.316 79.9671 94.5576 79.9805 94.8058C79.9805 94.8528 79.9805 94.8595 79.9805 94.8662C79.9805 94.893 79.994 94.9064 79.994 94.94C80.0074 94.9936 80.0208 95.0339 80.0275 95.0876C80.1013 95.1614 80.1818 95.2352 80.2623 95.3023C80.2757 95.3023 80.2959 95.3224 80.316 95.3358C80.41 95.4029 80.5106 95.47 80.6112 95.5304C80.7119 95.5975 80.8259 95.6579 80.9266 95.7116C80.9266 95.7116 81.0272 95.7653 81.0943 95.7988C81.148 95.8189 81.3023 95.8793 81.3023 95.8793C81.4164 95.9196 81.5372 95.9598 81.6512 95.9933C81.7988 96.0336 81.9464 96.0672 82.1008 96.094C82.0672 96.094 82.027 96.094 82.027 96.094L82.0135 96.0873ZM86.9049 90.8337C90.0315 93.323 91.3332 98.06 89.0184 101.515C86.7975 104.837 82.7784 107.011 78.746 106.353C75.0087 105.742 71.9022 102.549 71.8351 98.7041C71.768 95.1614 74.0425 91.29 77.4107 89.9481C80.4099 88.4116 84.1673 88.6531 86.9049 90.8337ZM86.6164 100.63C86.556 100.683 86.4956 100.744 86.4285 100.804C86.415 100.838 86.4151 100.865 86.4016 100.898C86.4754 100.811 86.5493 100.724 86.6164 100.636V100.63Z" fill="white"/>
<path d="M81.0209 110.29C87.6131 110.29 92.9572 105.187 92.9572 98.8908C92.9572 92.595 87.6131 87.4912 81.0209 87.4912C74.4286 87.4912 69.0845 92.595 69.0845 98.8908C69.0845 105.187 74.4286 110.29 81.0209 110.29Z" fill="white"/>
<path d="M150.217 95.7035C156.194 95.7035 161.039 91.0743 161.039 85.3639C161.039 79.6536 156.194 75.0244 150.217 75.0244C144.24 75.0244 139.394 79.6536 139.394 85.3639C139.394 91.0743 144.24 95.7035 150.217 95.7035Z" fill="white"/>
<path d="M150.68 77.1184C150.734 77.105 150.774 77.0848 150.821 77.0647C151.143 76.9506 151.472 77.011 151.747 77.1721C153.129 77.3465 154.477 77.8899 155.618 78.8092C158.376 81.03 159.51 85.2303 157.477 88.2898C155.558 91.1817 152.075 93.1141 148.573 92.631C145.144 92.1546 142.246 89.3097 142.179 85.7805C142.118 82.6135 144.151 79.1782 147.151 77.9839C148.251 77.427 149.465 77.1318 150.687 77.1184H150.68ZM154.169 81.4528C154.169 81.3857 154.169 81.3186 154.155 81.2582C154.115 81.1106 154.082 80.9831 154.028 80.8422C154.015 80.8086 154.015 80.7818 154.008 80.7482C153.773 80.5537 153.518 80.3725 153.256 80.2249C152.606 79.8558 151.894 79.6546 151.176 79.6076C151.163 79.6211 151.143 79.6211 151.129 79.6278C151.082 79.6412 151.042 79.6613 150.995 79.6814H150.982C150.747 79.7955 150.519 79.9096 150.304 80.0505C150.257 80.0773 150.217 80.1042 150.17 80.1377C150.083 80.2182 149.995 80.3054 149.915 80.3926L149.902 80.4061L149.841 80.5C149.814 80.5403 149.794 80.5873 149.767 80.6275C149.754 80.6879 149.734 80.7483 149.714 80.8087C149.714 80.7953 149.714 80.7751 149.714 80.7617C149.7 80.7751 149.7 80.8221 149.694 80.8758C149.694 80.8624 149.694 80.8422 149.707 80.8087C149.707 80.8489 149.694 80.8758 149.694 80.8892C149.694 80.9563 149.694 81.0233 149.707 81.0837C149.734 81.1508 149.767 81.2582 149.781 81.2918C149.794 81.3253 149.794 81.3454 149.801 81.3588C149.814 81.3924 149.834 81.4192 149.848 81.4461C149.895 81.5333 149.949 81.6138 150.002 81.6943C150.022 81.7145 150.157 81.8754 150.183 81.909C150.23 81.9493 150.271 81.9895 150.318 82.0231L150.331 82.0365C150.452 82.117 150.572 82.1908 150.7 82.2646C150.754 82.2915 150.814 82.3183 150.868 82.3451C150.881 82.3451 150.881 82.3451 150.901 82.3586C151.035 82.4055 151.176 82.4525 151.317 82.4927C151.458 82.533 151.599 82.5666 151.747 82.5934C151.787 82.6068 152.022 82.627 152.049 82.6404C152.324 82.6672 152.606 82.694 152.881 82.6806C152.954 82.6806 153.028 82.6806 153.095 82.6672C153.109 82.6672 153.129 82.6673 153.149 82.6538C153.243 82.627 153.323 82.6001 153.411 82.5732C153.438 82.5531 153.619 82.4659 153.652 82.4391C153.672 82.4257 153.686 82.4256 153.692 82.4122C153.726 82.3854 153.753 82.3585 153.786 82.3317C153.827 82.2914 153.954 82.117 153.961 82.117C153.994 82.0634 154.028 82.003 154.055 81.9493C154.055 81.9359 154.135 81.701 154.149 81.6607C154.149 81.6406 154.149 81.6272 154.162 81.6205C154.162 81.5669 154.162 81.5132 154.176 81.4662L154.169 81.4528ZM148.204 89.974C148.11 89.9404 148.03 89.9068 147.942 89.8733C147.909 89.8599 147.882 89.8398 147.848 89.8197C147.775 89.8062 147.714 89.7861 147.647 89.7727C147.828 89.8465 148.016 89.9136 148.204 89.9672V89.974Z" fill="#202020"/>
<path d="M81.6447 97.1642C81.7924 97.2045 81.94 97.2381 82.0943 97.2649C82.0607 97.2649 82.0205 97.2649 82.0205 97.2649C82.0339 97.2649 82.0742 97.2649 82.1547 97.2783C82.4029 97.2985 82.6512 97.2985 82.8994 97.2918H82.9867C83.1007 97.2783 83.2148 97.2515 83.3289 97.218C83.4496 97.1844 83.5704 97.1441 83.6979 97.1106C83.7381 97.0972 83.765 97.0904 83.7851 97.0837C83.8052 97.0703 83.8254 97.0569 83.8656 97.0368C83.9797 96.9697 84.0803 96.9093 84.1944 96.8422C84.2347 96.8154 84.2615 96.802 84.2749 96.7953C84.2883 96.7818 84.3085 96.755 84.342 96.7215C84.4158 96.6477 84.4896 96.5738 84.5567 96.4933C84.5702 96.4732 84.5903 96.4463 84.597 96.4396C84.644 96.3591 84.6909 96.2853 84.7312 96.2048C84.7312 96.1847 84.8117 96.0169 84.8251 95.9968C84.8519 95.9028 84.8721 95.8022 84.8922 95.7083C84.8922 95.7083 84.8922 95.7038 84.8922 95.6949C84.8922 95.6949 84.8922 95.6614 84.8788 95.6412C84.8788 95.5741 84.8788 95.5137 84.8788 95.4533C84.8788 95.4399 84.8788 95.4198 84.8654 95.3997C84.8654 95.3863 84.7916 95.1916 84.7916 95.1648C84.7178 95.0172 84.6305 94.8696 84.5299 94.7354C84.503 94.7152 84.389 94.5811 84.389 94.5743L84.1944 94.3798C84.1273 94.3194 84.0602 94.259 83.9864 94.1986L83.9461 94.1584C83.9461 94.1584 83.9126 94.145 83.8858 94.1249C83.6912 94.0108 83.51 93.89 83.3088 93.7894C83.2819 93.776 83.1142 93.7156 83.1074 93.7089C83.0336 93.682 82.9598 93.6552 82.8927 93.6351C82.7451 93.5881 82.5975 93.5612 82.4432 93.5277C82.3895 93.5143 82.2822 93.5008 82.2553 93.4941C82.1614 93.4941 82.0675 93.4941 81.9802 93.4941C81.7991 93.4941 81.6246 93.521 81.4435 93.5546C81.3227 93.5881 81.1952 93.6216 81.0744 93.6686C81.0275 93.6954 80.9201 93.7424 80.9 93.7558C80.8061 93.8095 80.7255 93.8631 80.6383 93.9235C80.6048 93.9504 80.5242 94.0175 80.5041 94.0376C80.4437 94.0913 80.3834 94.1584 80.3297 94.2255C80.3297 94.2389 80.2156 94.4066 80.1686 94.4804C80.1686 94.4938 80.0747 94.7354 80.0747 94.7354C80.0412 94.8293 80.021 94.9165 80.0076 95.0105C79.9942 95.0642 79.9875 95.1044 79.9808 95.1246V95.2386C79.9808 95.4936 79.9674 95.7352 79.9808 95.9834C79.9808 96.0304 79.9808 96.0371 79.9808 96.0438C79.9808 96.0706 79.9942 96.084 79.9942 96.1176C80.0076 96.1713 80.021 96.2115 80.0278 96.2652C80.1016 96.339 80.1821 96.4128 80.2626 96.4799C80.276 96.4799 80.2961 96.5 80.3163 96.5134C80.4102 96.5805 80.5108 96.6476 80.6115 96.708C80.7121 96.7751 80.8262 96.8355 80.9268 96.8892C80.9268 96.8892 81.0275 96.9429 81.0946 96.9764C81.1482 96.9966 81.3026 97.0569 81.3026 97.0569C81.4166 97.0972 81.5374 97.1374 81.6515 97.171L81.6447 97.1642ZM86.9118 92.0046C90.0385 94.4939 91.3401 99.2309 89.0253 102.686C86.8044 106.008 82.7854 108.181 78.7529 107.524C75.0157 106.913 71.9091 103.72 71.842 99.8749C71.7749 96.3323 74.0495 92.4609 77.4177 91.119C80.4169 89.5825 84.1743 89.824 86.9118 92.0046ZM86.6233 101.801C86.5629 101.854 86.5025 101.915 86.4354 101.975C86.422 102.009 86.422 102.035 86.4086 102.069C86.4824 101.982 86.5562 101.895 86.6233 101.807V101.801Z" fill="#202020"/>
<path d="M162.864 173.49C162.965 174.328 162.911 175.18 162.677 176.019C162.274 177.468 161.402 178.495 160.335 179.515C159.731 180.092 159.167 180.696 158.698 181.387C158.181 182.152 157.799 182.997 157.369 183.816C156.692 185.09 155.819 186.191 154.719 187.123C153.699 187.996 152.478 188.673 151.203 189.103C150.539 189.324 149.848 189.505 149.157 189.586C148.533 189.66 147.909 189.68 147.285 189.72C147.231 189.539 147.144 189.358 146.983 189.19C144.567 186.58 141.79 183.534 141.675 179.837C141.629 178.22 139.106 178.213 139.153 179.837C139.28 184.037 141.944 187.405 144.661 190.384C143.729 190.867 142.91 191.552 142.038 192.209C140.783 193.149 139.361 193.833 137.844 194.229C136.395 194.611 134.899 194.719 133.403 194.578C131.839 194.43 130.39 193.86 128.947 193.263C128.424 193.048 127.894 192.854 127.364 192.692C128.343 189.378 128.706 185.882 128.404 182.44C128.343 181.763 127.867 181.179 127.142 181.179C126.505 181.179 125.821 181.756 125.881 182.44C126.17 185.761 125.827 189.063 124.861 192.243C124.499 192.23 124.13 192.23 123.754 192.27C122.057 192.444 120.446 192.994 118.782 193.33C117.36 193.618 115.951 193.612 114.589 193.061C113.368 192.565 112.254 191.679 111.536 190.566C110.798 189.425 110.509 188.036 109.684 186.962C112.603 184.715 115.018 181.87 116.682 178.569C116.991 177.958 116.843 177.2 116.233 176.844C115.669 176.516 114.817 176.683 114.508 177.294C113.683 178.924 112.67 180.468 111.549 181.769C110.952 182.46 110.315 183.125 109.637 183.742C108.933 184.386 108.315 184.889 107.591 185.399C107.564 185.419 107.544 185.439 107.517 185.46C106.658 185.164 105.725 185.064 104.813 185.05C103.478 185.023 101.874 185.265 100.686 184.5C100.156 184.158 99.9753 183.668 99.9551 183.024C99.9283 182.192 100.042 181.427 99.8612 180.602C99.5391 179.146 98.6467 177.864 97.8483 176.63C97.3451 175.845 96.7949 175.019 96.5198 174.16C102.766 173.711 109.174 173.208 115.105 171.168C116.595 170.658 118.064 170.027 119.42 169.202C119.923 170.188 120.627 171.081 121.453 171.792C124.834 174.704 129.471 174.805 133.476 173.194C135.637 172.329 137.965 171.108 139.488 169.289C140.998 170.859 143.246 172.06 144.903 172.785C148.573 174.395 152.619 175.133 156.624 174.811C158.751 174.637 160.845 174.201 162.851 173.463L162.864 173.49Z" fill="#F9F8F4"/>
<path d="M109.188 169.901C101.653 166.533 94.9167 161.561 89.4752 155.361C88.4553 154.194 87.4892 152.986 86.5699 151.738C93.038 152.517 99.5798 152.704 106.081 152.282C106.612 152.248 107.135 152.195 107.665 152.154C107.229 155.435 108.182 158.844 110.094 161.548C111.161 163.057 112.449 164.352 113.905 165.473C114.603 166.01 115.327 166.506 116.086 166.956C116.428 167.157 116.85 167.345 117.24 167.566C115.005 168.734 112.516 169.418 110.06 169.955C109.852 170.002 109.651 170.042 109.443 170.082C109.369 170.009 109.282 169.948 109.188 169.901Z" fill="#F9F8F4"/>
<path d="M139.22 144.739C139.28 144.793 139.347 144.846 139.428 144.9C142.28 146.678 142.548 150.456 142.119 153.462C141.743 156.078 140.871 158.588 139.589 160.882C139.207 160.064 138.677 159.312 138.039 158.668C136.456 157.078 134.329 156.28 132.128 156.072C127.867 155.662 122.949 157.38 120.346 160.862C119.326 162.224 118.729 163.855 118.648 165.525C117.843 164.995 116.964 164.559 116.166 164.009C114.817 163.083 113.562 161.956 112.563 160.654C110.651 158.185 109.644 154.985 110.261 151.905C117.293 151.174 124.264 149.771 131.014 147.678C133.792 146.812 136.529 145.826 139.227 144.732L139.22 144.739Z" fill="#F9F8F4"/>
<path d="M137.965 164.908C137.784 165.666 137.838 166.384 138.059 167.062C137.965 167.216 137.864 167.364 137.75 167.505C136.69 168.847 135.04 169.746 133.53 170.47C130.551 171.893 126.901 172.43 123.989 170.578C121.473 168.974 120.372 165.988 121.802 163.264C123.385 160.252 126.995 158.782 130.256 158.574C132.114 158.453 134.1 158.742 135.623 159.896C136.959 160.903 137.824 162.452 137.737 164.137C137.717 164.459 137.811 164.72 137.965 164.915V164.908Z" fill="#F9F8F4"/>
<path d="M152.23 154.657C151.11 160.225 147.983 165.352 143.414 168.767C143.32 168.841 143.232 168.921 143.159 169.008C142.488 168.579 141.414 167.868 140.81 167.022C141.186 165.909 141.253 164.714 140.877 163.607C142.951 160.467 144.246 156.877 144.688 153.14C145.084 149.732 144.44 145.981 141.891 143.626C142.206 143.492 142.521 143.364 142.83 143.223C143.742 142.814 144.655 142.398 145.561 141.962C148.05 145.947 150.405 150.013 152.431 154.234C152.337 154.355 152.264 154.495 152.237 154.657H152.23Z" fill="#F9F8F4"/>
<path d="M70.896 147.417C66.0517 152.067 63.0793 158.166 60.6772 164.339C59.389 167.647 58.2148 171.001 57.0474 174.349C55.7591 178.046 54.5514 181.77 53.6254 185.568C52.5653 189.896 51.8743 194.304 51.5186 198.739C51.465 199.416 52.1359 200 52.7801 200C53.5047 200 53.9877 199.423 54.0414 198.739C54.6587 191.063 56.524 183.669 59.0066 176.403C60.1405 173.075 61.3214 169.753 62.5559 166.459C63.6697 163.493 64.8842 160.568 66.3737 157.77C68.0578 154.616 70.0975 151.678 72.6807 149.195C73.8549 148.068 72.0702 146.29 70.896 147.41V147.417Z" fill="#F9F8F4"/>
<path d="M144.863 140.969C148.808 147.699 152.874 154.409 156.007 161.568C158.966 168.325 160.657 175.403 161.247 182.743C161.643 187.668 161.67 192.613 161.65 197.545C161.65 199.169 164.166 199.169 164.173 197.545C164.206 189.057 164.139 180.429 162.207 172.115C160.556 165.017 157.53 158.354 154.075 151.967C151.834 147.82 149.432 143.761 147.043 139.695C146.225 138.292 144.044 139.56 144.869 140.969H144.863Z" fill="#F9F8F4"/>
<path d="M73.6603 73.1352C74.1569 74.5174 75.6531 75.1615 77.0353 74.6717C78.4912 74.1618 79.1153 72.6522 79.3568 71.2431C79.8466 68.4318 79.6184 65.0501 76.8138 63.5069C74.4051 62.1784 71.3321 62.7286 69.3528 64.5603C67.1855 66.5531 66.4207 69.7133 66.6085 72.5582C66.736 74.4839 67.2191 76.3559 67.7492 78.2077C68.2792 80.0596 68.8831 82.059 69.4467 83.9914C69.9029 85.548 72.3385 84.8838 71.8756 83.3204C71.1107 80.7171 70.2653 78.1204 69.6212 75.4769C69.071 73.2291 68.8093 70.8808 69.6144 68.6599C70.2116 67.0093 71.52 65.5735 73.3047 65.3252C75.0895 65.077 76.6662 66.0565 76.995 67.9084C77.1829 68.9819 77.0487 70.1763 76.787 71.223C76.6864 71.6121 76.5656 72.0952 76.1831 72.3032C76.2368 72.2764 75.9818 72.3502 76.0624 72.3099C76.0288 72.3234 75.8477 72.216 75.9886 72.2965C76.0422 72.3301 76.0691 72.4039 76.0892 72.4575C75.8611 71.8201 75.2304 71.384 74.5393 71.5786C73.922 71.7464 73.4255 72.4844 73.6603 73.1285V73.1352Z" fill="#202020"/>
<path d="M62.9922 62.5077C65.8505 61.7227 67.1119 58.2337 65.8304 55.6639C64.4683 52.9465 60.919 51.967 58.1747 52.9667C55.0548 54.1073 53.0821 56.9589 51.8476 59.9111C50.613 62.8633 50.2104 66.0907 50.982 69.2173C51.9079 72.968 54.1892 76.2356 56.504 79.2549C56.92 79.7917 57.591 80.0802 58.2284 79.7045C58.7585 79.3958 59.1007 78.5235 58.678 77.98C55.4573 73.7798 52.1361 68.902 53.3773 63.3464C53.9074 60.9712 55.0279 58.4484 56.7993 56.7375C58.3425 55.248 60.6439 54.4898 62.5695 55.7176C63.4351 56.2678 63.9248 57.1803 63.8108 58.1599C63.7101 59.012 63.16 59.844 62.3213 60.0789C60.7579 60.5083 61.4222 62.9439 62.9922 62.5077Z" fill="#202020"/>
<path d="M142.783 56.8586C142.474 57.3216 141.883 57.8382 141.28 57.7577C140.676 57.6771 140.401 57.0397 140.367 56.5231C140.273 54.9933 141.669 53.6447 142.964 53.0744C144.534 52.3766 146.379 52.6315 147.835 53.4836C149.412 54.4096 150.559 56.0803 151.351 57.6973C152.27 59.5961 152.545 61.7163 151.794 63.7091C151.552 64.3465 152.062 65.0913 152.672 65.259C153.377 65.4536 153.981 65.0174 154.222 64.38C155.182 61.817 154.746 59.0459 153.612 56.6103C152.478 54.1747 150.733 51.9941 148.365 50.9206C145.996 49.8471 143.212 49.8672 140.998 51.2762C138.938 52.5846 137.16 55.2818 138.079 57.7912C138.582 59.1667 139.783 60.2402 141.293 60.2805C142.803 60.3207 144.145 59.3613 144.963 58.1334C145.862 56.7781 143.682 55.5167 142.789 56.8586H142.783Z" fill="#202020"/>
<path d="M133.396 44.3576C133.007 44.8474 132.49 44.6931 132.074 44.2838C131.551 43.7739 131.262 42.9754 131.202 42.2508C131.068 40.5197 132.316 39.5804 133.825 39.0973C135.63 38.527 137.63 38.2049 139.522 38.4532C141.575 38.7216 143.252 40.097 145.299 40.3789C145.97 40.4728 146.654 40.2178 146.849 39.4999C147.01 38.9094 146.647 38.0439 145.97 37.95C144.983 37.8158 144.118 37.4065 143.219 36.9972C142.239 36.5543 141.26 36.1854 140.193 36.0243C138.086 35.7023 135.945 35.9303 133.892 36.4604C132.094 36.9233 130.175 37.7621 129.269 39.4999C128.364 41.2376 128.525 43.4787 129.571 45.1427C130.142 46.0552 131.014 46.867 132.094 47.1018C133.174 47.3366 134.456 47.0415 135.174 46.1357C135.597 45.5989 135.697 44.8742 135.174 44.3509C134.738 43.9148 133.812 43.8141 133.389 44.3509L133.396 44.3576Z" fill="#202020"/>
</svg>
