<svg width="200" height="200" viewBox="0 0 200 200" fill="none" xmlns="http://www.w3.org/2000/svg">
<path d="M182.024 2.65332H17.7569C9.34112 2.65332 2.5188 9.47564 2.5188 17.8914V182.159C2.5188 190.575 9.34112 197.397 17.7569 197.397H182.024C190.44 197.397 197.262 190.575 197.262 182.159V17.8914C197.262 9.47564 190.44 2.65332 182.024 2.65332Z" fill="#252525"/>
<path d="M158.291 153.966C157.238 154.732 156.186 155.498 155.133 156.271C154.553 154.892 153.947 153.526 153.301 152.18C151.422 148.262 149.283 144.478 146.991 140.787C147.924 140.3 148.85 139.794 149.756 139.261C153.081 143.865 155.939 148.795 158.291 153.966Z" fill="white"/>
<path d="M165.893 184.049C166.186 188.453 166.139 192.871 165.76 197.268H162.561C162.481 189.352 161.988 181.417 160.476 173.635C159.476 168.484 157.984 163.474 156.078 158.603C156.178 158.57 156.278 158.537 156.358 158.477C157.344 157.764 158.324 157.044 159.31 156.331C159.836 157.57 160.336 158.823 160.789 160.089C163.594 167.785 165.34 175.88 165.886 184.055L165.893 184.049Z" fill="white"/>
<path d="M156.312 196.854C154.106 196.874 151.908 196.887 149.716 196.901C145.818 196.921 141.927 196.934 138.029 196.947C135.39 196.961 132.745 196.961 130.107 196.967C131.752 189.432 133.358 181.843 133.831 174.127C135.604 173.467 137.383 172.808 139.162 172.141C139.315 172.088 139.455 172.008 139.581 171.908C145.105 177.498 149.782 183.868 153.447 190.818C154.493 192.79 155.452 194.802 156.319 196.854H156.312Z" fill="white"/>
<path d="M138.955 161.609C138.775 164.288 138.729 166.966 138.822 169.651C138.709 169.651 138.595 169.665 138.482 169.705C136.777 170.337 135.077 170.977 133.378 171.61C133.338 171.59 133.298 171.57 133.258 171.557C133.238 171.543 133.225 171.523 133.199 171.503C132.079 170.777 130.98 170.024 129.894 169.251C129.354 168.865 128.821 168.465 128.288 168.059C128.168 167.966 128.048 167.879 127.928 167.779C127.928 167.779 127.682 167.586 127.655 167.566C127.395 167.366 127.142 167.159 126.882 166.953C127.055 161.496 127.568 156.052 128.428 150.655C131.826 154.406 135.337 158.058 138.962 161.596L138.955 161.609Z" fill="white"/>
<path d="M113.323 197.002C111.717 197.002 110.105 197.015 108.499 197.015C105.054 197.015 101.616 197.028 98.1714 197.035C93.5607 190.332 88.89 183.629 83.3864 177.613C82.2004 176.313 80.9744 175.054 79.7085 173.835C84.8589 172.076 89.9561 170.17 94.9999 168.111C95.3863 168.684 95.7794 169.251 96.1726 169.817C100.31 175.734 104.741 181.457 108.492 187.634C110.311 190.639 111.977 193.757 113.316 197.002H113.323Z" fill="white"/>
<path d="M95.1334 197.035C94.4005 197.035 93.6742 197.035 92.9413 197.035C88.0974 197.048 83.2467 197.055 78.4028 197.068C74.2918 197.082 70.1808 197.088 66.0698 197.108C63.0448 197.122 60.0265 197.142 57.0015 197.162C55.9621 197.175 54.9227 197.175 53.8833 197.195C54.2031 194.49 54.6162 191.791 55.2359 189.133C55.8489 186.501 56.6417 183.909 57.3813 181.311C58.4207 177.646 59.3202 173.948 60.5395 170.343C61.7589 166.739 63.2114 163.221 64.9637 159.843C66.9226 156.065 69.228 152.454 71.9531 149.182C71.9864 149.142 72.0197 149.095 72.0464 149.049C72.1264 149.069 72.213 149.095 72.2929 149.122C72.2929 149.175 72.2929 149.229 72.3062 149.275C73.6455 156.904 75.4845 164.434 77.8165 171.809C77.5433 171.903 77.2701 172.003 76.9969 172.089C76.1374 172.369 75.7043 173.522 76.4439 174.195C82.6537 179.865 87.7975 186.554 92.6281 193.41C93.4677 194.61 94.3005 195.809 95.1334 197.015V197.035Z" fill="white"/>
<path d="M90.3025 160.717C91.3353 162.51 92.4413 164.262 93.5807 165.988C89.1565 167.78 84.699 169.459 80.1949 171.011C78.0095 164.062 76.2571 156.993 74.9512 149.83C76.6702 150.237 78.3959 150.563 80.075 150.863C81.6607 151.143 83.2465 151.369 84.8456 151.576C87.111 154.314 88.5435 157.659 90.3025 160.717Z" fill="white"/>
<path d="M132.139 45.1758C132.585 44.9026 132.998 44.6028 133.378 44.2763C132.938 49.5534 129.947 54.3773 126.009 57.9153C120.719 62.6526 113.716 64.9713 106.973 66.737C99.3773 68.7359 91.715 70.4949 83.8727 71.0946C79.8417 71.4077 75.7306 71.5609 71.6929 71.2078C68.4281 70.9213 65.2632 70.0684 62.3848 68.4827C56.9412 65.4844 52.7902 60.3406 51.1245 54.364C52.2172 54.5839 53.2833 54.977 54.356 55.2635C55.7552 55.6299 57.2078 55.7965 58.6536 55.7033C61.6053 55.5034 64.3571 54.3906 66.6224 52.4984C67.0489 52.1452 67.0755 51.4923 66.829 51.0192C66.0761 46.7949 65.3099 42.564 64.5569 38.3397C63.824 34.262 62.758 30.0444 63.1511 25.8801C63.7641 19.3038 69.2876 14.7862 74.8445 12.0744C78.0893 10.4887 81.5873 9.38935 85.1054 8.63644C88.9565 7.81024 92.921 7.4904 96.8454 7.86352C100.503 8.21665 104.441 9.14282 107.473 11.3016C110.378 13.3671 112.017 16.8118 113.263 20.0433C116.161 27.5258 117.56 35.5412 117.361 43.5634C117.341 44.4029 117.294 45.2358 117.241 46.0753C117.207 46.1419 117.181 46.2086 117.161 46.2752C116.967 46.9682 117.4 47.5944 118.04 47.821C121.212 48.9537 124.69 48.4673 127.775 47.2947C129.274 46.7217 130.766 46.042 132.139 45.1892V45.1758Z" fill="white"/>
<path d="M160.036 72.5325C164.607 77.9428 168.012 84.3991 169.358 91.3352C169.671 91.0154 170.024 90.7356 170.384 90.4957C171.21 89.9427 172.15 89.5762 173.016 89.1098C173.929 88.6167 174.808 88.0704 175.654 87.4841C177.32 86.3314 178.839 84.9655 180.212 83.473C183.004 80.4147 185.089 76.7234 186.208 72.7324C187.468 68.2749 187.568 63.5042 186.495 59.0001C186.215 57.8474 185.869 56.7081 185.449 55.602C185.202 54.9424 184.882 53.9096 184.096 53.7364C183.597 53.6231 182.91 54.1495 182.45 54.6359C181.804 55.3088 181.318 56.1151 180.905 56.948C178.906 60.999 176.574 64.9567 173.142 67.9684C169.718 70.9733 165.26 72.9922 160.636 72.7257C160.396 72.7124 160.196 72.6391 160.03 72.5325H160.036ZM158.817 196.822C159.224 196.822 159.63 196.809 160.036 196.809C159.983 192.511 159.817 188.221 159.41 183.936C158.717 176.574 157.265 169.298 154.806 162.309C152.94 157.005 150.508 151.941 147.75 147.05C149.009 153.467 148.683 160.196 146.757 166.453C146.471 167.379 145.358 167.659 144.652 167.006C143.546 165.986 142.446 164.954 141.354 163.914C141.274 165.98 141.267 168.045 141.354 170.111C142.853 171.63 144.305 173.202 145.678 174.835C151.115 181.285 155.506 188.5 158.771 196.269C158.85 196.449 158.85 196.643 158.81 196.822H158.817ZM159.204 43.0425C159.17 43.1158 159.144 43.1757 159.13 43.209C159.05 43.4489 158.97 43.6887 158.884 43.9219C158.731 44.3684 158.571 44.8081 158.404 45.2479C158.024 46.2273 157.624 47.1934 157.171 48.1395C155.552 51.5776 153.347 54.7559 150.122 56.8547C148.19 58.1206 145.984 59.1001 143.699 59.6797C144.745 60.2461 145.785 60.8324 146.797 61.4254C151.008 63.904 154.906 66.9757 158.257 70.5336C158.211 70.2538 158.257 69.9739 158.411 69.7341C160.856 66.1694 162.442 62.0184 162.895 57.7075C163.281 54.0096 163.015 50.0118 161.556 46.5538C161.196 45.7076 160.743 44.888 160.196 44.1485C159.917 43.7753 159.603 43.4289 159.277 43.1024C159.257 43.0891 159.224 43.0624 159.19 43.0291L159.204 43.0425ZM159.23 71.5997C159.337 71.713 159.45 71.8328 159.55 71.9528C159.503 71.8462 159.47 71.7396 159.45 71.6263C159.377 71.6263 159.304 71.613 159.23 71.5997ZM159.344 42.6227C159.344 42.5761 159.17 42.2362 159.304 42.636C159.317 42.636 159.337 42.636 159.344 42.6227ZM97.1786 199.787H52.1639C52.1639 199.787 52.124 199.787 52.1106 199.787C52.1106 199.787 52.1151 199.787 52.124 199.787H15.5512C6.97607 199.787 0 192.818 0 184.236V15.5513C0 6.97613 6.9694 0 15.5512 0H184.236C192.811 0 199.787 6.96946 199.787 15.5513V184.236C199.787 192.811 192.818 199.787 184.236 199.787H98.5311C98.5311 199.787 98.4912 199.821 98.4712 199.834C98.0381 200.087 97.5517 200.034 97.1719 199.787H97.1786ZM24.4262 57.9474C24.1131 57.8208 24.0131 57.8141 23.6866 57.8541C23.6866 57.8541 23.4668 57.9074 23.4268 57.9207C23.2802 57.9674 23.2935 57.954 23.1336 58.0539C23.007 58.1339 22.7472 58.4004 22.6073 58.6403C21.7811 59.9929 21.961 61.9851 22.0676 63.4976C22.1742 65.0767 22.474 66.6358 22.9071 68.1616C23.7999 71.2399 25.3191 74.1716 27.3313 76.6702C29.3768 79.2287 31.8687 81.4008 34.7338 82.9933C36.1263 83.7728 37.5855 84.3992 39.1046 84.8589C40.7304 85.3453 42.7892 85.3919 44.0485 86.6579C45.4677 88.0771 45.0679 90.0692 43.8553 91.4551C42.5627 92.9343 40.6904 93.574 38.8381 93.9937C34.6005 94.9532 30.083 94.7933 25.9387 93.4607C22.1475 92.2414 18.7494 90.1159 15.0648 88.6434C14.132 88.2703 13.1859 87.9372 12.2131 87.6773C11.4069 87.4574 10.4541 87.1709 9.61458 87.3774C8.27534 87.6973 8.34196 89.5162 8.50854 90.6356C9.44801 97.1253 13.5124 103.169 18.6095 107.16C21.1747 109.179 24.1331 110.731 27.2646 111.657C31.2957 112.85 35.56 112.91 39.6243 113.976C41.4633 114.462 43.6421 115.102 44.5615 116.941C45.4011 118.606 45.0679 120.719 43.9952 122.198C42.8092 123.824 40.9836 124.716 39.118 125.336C37.0658 126.009 34.9403 126.482 32.8082 126.795C30.6361 127.115 28.444 127.295 26.2519 127.282C24.1864 127.268 22.1608 127.022 20.1087 126.815C18.7428 126.675 17.0571 126.495 15.8311 127.202C14.5585 127.935 14.4918 129.367 14.9582 130.64C15.5646 132.272 16.8705 133.538 18.1831 134.617C19.6023 135.79 21.2214 136.73 22.8738 137.516C26.4051 139.195 30.2896 140.108 34.1341 140.727C42.7559 142.127 51.6709 141.627 60.1061 139.388C60.4593 139.295 60.7591 139.348 61.0056 139.481C61.1922 139.535 61.3587 139.635 61.4853 139.788C62.0317 140.461 62.618 141.1 63.2643 141.693C65.8362 144.046 69.1144 145.505 72.4125 146.524C76.0904 147.657 79.9016 148.356 83.7062 148.903C84.2259 148.976 84.7456 149.036 85.2719 149.109C85.5318 149.063 85.7916 149.096 86.0248 149.203C93.2874 150.082 100.65 150.162 107.926 149.502C115.948 148.776 123.89 147.104 131.526 144.559C135.35 143.286 139.102 141.793 142.746 140.068C146.238 138.422 149.702 136.596 152.761 134.224C155.752 131.912 158.284 129.061 159.85 125.603C161.309 122.364 161.762 118.653 160.703 115.242C157.778 117.154 154.493 118.54 151.241 119.766C139.781 124.083 127.701 126.589 115.535 127.775C109.452 128.368 103.335 128.647 97.2252 128.588C90.8688 128.528 84.4924 128.015 78.2825 126.622C76.6968 126.262 77.3764 123.837 78.9555 124.19C80.4147 124.516 81.8872 124.803 83.373 125.036C89.3563 125.982 95.4462 126.149 101.489 126.042C107.406 125.942 113.309 125.556 119.179 124.85C130.686 123.464 142.22 120.812 152.96 116.388C157.251 114.615 161.736 112.237 164.487 108.359C167.499 104.101 167.905 98.6511 167.226 93.6206C165.966 84.3325 160.749 76.0039 153.92 69.7607C150.369 66.5159 146.391 63.9373 142.133 61.7319C140.228 60.7458 138.309 59.7664 136.297 59.0068C134.298 58.2539 132.232 57.7275 130.153 57.2744C128.907 58.6936 127.528 59.9863 126.056 61.119C120.052 65.7364 112.577 67.9284 105.334 69.7341C101.323 70.7335 97.3052 71.713 93.2341 72.4192C89.0165 73.1455 84.7522 73.6052 80.468 73.7785C76.2637 73.9517 71.9395 73.9983 67.8018 73.1255C64.6502 72.4592 61.6253 71.12 58.9868 69.281C58.8735 69.2011 58.7602 69.1144 58.6469 69.0278C57.8274 69.5076 56.9945 69.9473 56.0884 70.2471C54.9357 70.6402 53.7097 70.92 52.5104 71.1399C42.063 73.0255 32.3018 66.4026 25.6189 58.9402C25.1525 58.8602 24.786 58.4938 24.5928 58.0274C24.5795 58.0274 24.4396 57.9207 24.4396 57.9141L24.4262 57.9474ZM197.269 184.236V15.5513C197.269 8.36868 191.425 2.52527 184.243 2.52527H15.5512C8.36862 2.52527 2.52524 8.36868 2.52524 15.5513V184.236C2.52524 191.419 8.36862 197.262 15.5512 197.262H51.3444C51.7308 194.024 52.2172 190.793 52.9968 187.621C53.6964 184.809 54.5626 182.037 55.3355 179.239C56.3882 175.434 57.3677 171.637 58.7069 167.919C61.2721 160.823 64.7768 154.087 69.5142 148.203C65.9095 146.851 62.5847 144.918 60.0661 141.98C58.1472 142.466 56.215 142.879 54.2627 143.186C45.4344 144.579 36.1796 144.272 27.5445 141.88C23.68 140.807 19.9554 139.195 16.7839 136.71C14.0188 134.544 10.7806 130.646 12.6795 126.935C14.4918 123.39 19.0226 124.21 22.2408 124.543C26.6583 125.003 31.1424 124.743 35.4667 123.724C37.339 123.277 39.4777 122.824 41.0435 121.638C42.0763 120.859 43.0824 119.14 42.1962 117.9C41.7231 117.227 40.797 116.961 40.0574 116.728C38.9847 116.388 37.8853 116.135 36.7793 115.928C34.6005 115.515 32.3951 115.282 30.203 114.902C23.0204 113.663 16.5174 109.851 11.9799 104.121C9.77449 101.33 8.03547 98.198 6.93609 94.8066C5.98329 91.8749 4.64405 86.6978 8.40193 85.132C10.3208 84.3325 12.6529 85.0988 14.5118 85.7584C16.484 86.4513 18.3763 87.3574 20.2486 88.2769C24.0598 90.1359 27.851 91.8416 32.1552 92.0615C34.3207 92.1747 36.4928 91.9815 38.5982 91.4618C39.9308 91.1353 41.9697 90.5157 42.4094 89.0698C42.4627 88.8766 42.5027 88.7833 42.3228 88.5301C42.1829 88.3435 41.963 88.2303 41.7498 88.1437C40.9503 87.8172 40.0308 87.7373 39.1912 87.5107C37.5055 87.0643 35.8665 86.4246 34.3073 85.6384C28.0775 82.4802 23.2202 76.7635 20.9016 70.1938C19.7355 66.9024 19.1092 63.1311 19.6423 59.6531C19.9221 57.8274 20.9215 55.9884 22.8138 55.4687C24.0664 55.1223 25.3324 55.4088 26.1986 56.2283C26.4384 56.2683 26.665 56.3816 26.8315 56.5681C28.6905 58.7136 30.7227 60.7191 32.9414 62.5048C36.686 65.5231 41.0968 67.9417 45.8875 68.748C48.1329 69.1277 50.4782 69.0677 52.697 68.548C53.6831 68.3215 54.6892 68.1083 55.6353 67.7552C55.8885 67.6619 56.1817 67.5153 56.4882 67.3554C52.4638 63.7908 49.5054 59.0267 48.3661 53.7364C48.2728 53.2767 48.406 52.8968 48.6526 52.6303C48.7459 52.104 49.1456 51.6442 49.8452 51.6642C52.6703 51.7442 55.2022 53.23 58.0406 53.1767C60.2594 53.1368 62.4848 52.4038 64.2838 51.0912C64.1305 50.2117 63.9639 49.3256 63.8107 48.4461C63.0112 43.9819 62.2049 39.5111 61.4054 35.047C60.6525 30.8227 59.9462 26.3918 61.3454 22.2142C63.5708 15.558 69.7873 11.3403 75.9972 8.76841C83.5729 5.63018 92.2214 4.21102 100.33 5.81012C104.221 6.58302 108.192 8.03548 110.951 11.0071C113.649 13.9122 115.168 17.7167 116.454 21.4079C119.14 29.1636 120.266 37.4722 119.786 45.6609C122.091 46.1807 124.457 45.7742 126.695 44.9813C127.975 44.5216 129.207 43.9353 130.393 43.269C131.293 42.7626 132.352 42.1163 132.725 41.0902C132.912 40.5638 133.365 40.184 133.911 40.1707C134.131 40.0241 134.378 39.9309 134.624 39.9309C135.357 39.9309 135.81 40.5172 135.883 41.1902C135.977 42.023 136.01 42.8559 135.977 43.6888C135.817 47.8397 134.244 51.7309 131.872 55.0823C132.545 55.2356 133.212 55.4021 133.878 55.5887C135.89 56.1417 137.849 56.8813 139.775 57.7408C139.861 57.7208 139.954 57.7075 140.054 57.7009C142.02 57.6209 143.979 57.0678 145.785 56.3083C147.597 55.5487 149.376 54.5159 150.808 53.1434C153.733 50.3383 155.452 46.3006 156.712 42.5227C157.025 41.5833 157.425 40.5372 158.504 40.2773C159.737 39.9775 160.736 40.917 161.496 41.7565C162.875 43.2823 163.808 45.1279 164.434 47.0735C166.893 54.6759 165.373 63.5109 161.116 70.2071C162.022 70.2337 162.928 70.1738 163.828 70.0006C168.312 69.1077 172.05 66.1361 174.722 62.5248C176.114 60.6459 177.28 58.607 178.319 56.5082C179.239 54.6559 180.338 52.5371 182.311 51.5976C183.357 51.1046 184.496 51.0513 185.535 51.5843C186.522 52.0907 187.115 53.0435 187.534 54.0296C188.5 56.295 189.127 58.7136 189.46 61.1522C190.133 66.0761 189.633 71.1732 187.841 75.8106C186.268 79.8883 183.803 83.6062 180.638 86.6245C179.072 88.1237 177.327 89.4696 175.468 90.5957C174.568 91.142 173.622 91.6151 172.676 92.0748C172.183 92.3147 170.904 92.8944 170.924 93.514C170.924 93.614 171.184 93.8605 171.37 93.9804C171.783 94.2536 172.263 94.4001 172.736 94.5401C173.895 94.8865 175.088 95.0731 176.287 95.1397C178.826 95.273 181.364 94.9865 183.89 94.7799C186.128 94.5934 189.207 94.0137 190.639 96.2458C191.832 98.0914 191.252 100.69 190.299 102.509C188.201 106.513 183.57 108.812 179.519 110.298C174.901 111.997 169.878 112.637 164.98 112.164C164.847 112.15 164.72 112.117 164.601 112.077C164.561 112.124 164.521 112.17 164.474 112.21C163.874 112.803 163.241 113.356 162.588 113.869C162.828 114.009 163.021 114.236 163.121 114.569C163.415 115.508 163.594 116.468 163.714 117.44C164.161 121.332 163.028 125.323 161.096 128.681C159.07 132.192 156.059 135.024 152.754 137.329C152.474 137.529 152.181 137.716 151.894 137.902C154.473 141.48 156.792 145.245 158.797 149.183C162.622 156.678 165.393 164.714 166.979 172.976C168.518 180.965 168.978 189.147 168.278 197.249H184.236C191.419 197.249 197.262 191.405 197.262 184.223L197.269 184.236ZM186.815 103.075C187.967 101.843 188.96 100.124 188.76 98.3712C188.66 97.4518 188.127 97.1453 187.254 97.1253C186.062 97.092 184.856 97.2252 183.663 97.3252C181.251 97.5251 178.833 97.7916 176.407 97.6717C174.322 97.5651 171.743 97.2719 169.944 96.0459C169.964 96.419 169.998 96.7922 169.998 97.172C170.091 101.676 169.065 106.114 166.539 109.758C167.199 109.792 167.865 109.811 168.532 109.805C173.156 109.745 177.78 108.632 181.904 106.54C183.703 105.634 185.435 104.561 186.808 103.075H186.815ZM165.767 197.262C166.153 192.865 166.193 188.447 165.9 184.043C165.353 175.868 163.608 167.772 160.803 160.076C160.343 158.81 159.843 157.558 159.324 156.319C158.337 157.032 157.358 157.751 156.372 158.464C156.285 158.524 156.192 158.557 156.092 158.591C157.998 163.461 159.49 168.478 160.49 173.622C161.995 181.404 162.488 189.34 162.575 197.256H165.773L165.767 197.262ZM155.139 156.265C156.192 155.492 157.245 154.726 158.297 153.96C155.945 148.79 153.087 143.859 149.762 139.255C148.856 139.788 147.93 140.301 146.997 140.781C149.289 144.472 151.421 148.256 153.307 152.174C153.96 153.52 154.56 154.886 155.139 156.265ZM149.722 196.896C151.921 196.882 154.12 196.869 156.319 196.849C155.452 194.79 154.486 192.778 153.447 190.812C149.782 183.863 145.105 177.493 139.581 171.903C139.455 171.996 139.315 172.076 139.162 172.136C137.389 172.803 135.61 173.462 133.831 174.122C133.358 181.838 131.752 189.427 130.107 196.962C132.745 196.962 135.39 196.949 138.029 196.942C141.927 196.929 145.818 196.916 149.716 196.896H149.722ZM144.892 163.774C146.644 156.692 146.284 149.209 143.879 142.313C143.253 142.606 142.626 142.893 142.007 143.173C138.162 144.885 134.218 146.384 130.2 147.637C129.913 147.73 129.62 147.803 129.34 147.89C133.078 152.061 136.949 156.105 140.954 160.016C141.107 160.11 141.234 160.243 141.34 160.39C142.513 161.529 143.699 162.655 144.898 163.774H144.892ZM138.835 169.644C138.742 166.959 138.782 164.281 138.968 161.602C135.35 158.064 131.832 154.413 128.434 150.662C127.575 156.059 127.068 161.502 126.888 166.959C127.148 167.166 127.402 167.366 127.661 167.572C127.688 167.592 127.928 167.779 127.935 167.785C128.054 167.879 128.174 167.972 128.294 168.065C128.821 168.472 129.36 168.865 129.9 169.258C130.986 170.038 132.086 170.784 133.205 171.51C133.232 171.523 133.245 171.543 133.265 171.563C133.305 171.577 133.345 171.597 133.385 171.617C135.091 170.984 136.79 170.344 138.489 169.711C138.602 169.671 138.715 169.658 138.828 169.658L138.835 169.644ZM133.391 44.2684C133.005 44.5949 132.592 44.9014 132.152 45.1679C130.78 46.0141 129.287 46.7004 127.788 47.2734C124.703 48.4461 121.225 48.9324 118.053 47.7997C117.407 47.5732 116.981 46.9469 117.174 46.254C117.194 46.1807 117.227 46.1207 117.254 46.054C117.307 45.2145 117.354 44.3817 117.374 43.5422C117.574 35.52 116.175 27.5045 113.276 20.0221C112.024 16.7906 110.384 13.3458 107.486 11.2803C104.454 9.12156 100.517 8.19539 96.8587 7.84226C92.9343 7.46914 88.9698 7.78898 85.1187 8.61518C81.6007 9.36809 78.1026 10.4675 74.8578 12.0533C69.2943 14.7584 63.7774 19.2758 63.1644 25.8588C62.7713 30.0298 63.8373 34.2407 64.5703 38.3184C65.3232 42.5427 66.0894 46.7737 66.8423 50.9979C67.0889 51.471 67.0622 52.124 66.6358 52.4771C64.3704 54.3694 61.6186 55.4821 58.6669 55.682C57.2277 55.7753 55.7686 55.6087 54.3694 55.2422C53.2966 54.9557 52.2306 54.5626 51.1378 54.3427C52.8036 60.3194 56.9546 65.4631 62.3982 68.4614C65.2765 70.0472 68.4348 70.9001 71.7063 71.1866C75.744 71.5397 79.855 71.3865 83.8861 71.0733C91.7283 70.4736 99.3906 68.7213 106.986 66.7157C113.729 64.9434 120.732 62.6314 126.022 57.894C129.967 54.3627 132.952 49.5321 133.391 44.2551V44.2684ZM127.528 196.969C129.24 189.16 130.946 181.305 131.353 173.296C129.807 172.27 128.301 171.204 126.829 170.084C126.815 171.51 126.829 172.936 126.855 174.362C126.882 175.341 125.776 175.908 124.956 175.448C122.291 173.949 119.666 172.409 117.054 170.817C107.806 165.174 98.9442 158.917 90.4957 152.141C89.7494 152.088 89.0032 152.021 88.2569 151.948C90.0492 154.653 91.4218 157.645 93.0809 160.43C94.0803 162.109 95.133 163.754 96.2191 165.374C96.5256 165.547 96.7721 165.847 96.8587 166.153C96.8854 166.226 96.8921 166.306 96.8987 166.373C99.6971 170.491 102.682 174.488 105.547 178.559C109.625 184.356 113.423 190.373 116.041 196.976C118.66 196.976 121.272 196.962 123.884 196.962C125.103 196.962 126.315 196.962 127.535 196.949L127.528 196.969ZM124.31 172.176C124.25 164.341 124.896 156.512 126.202 148.783C119.359 150.615 112.337 151.768 105.267 152.234C101.796 152.461 98.3113 152.501 94.8332 152.387C96.3324 153.56 97.8382 154.713 99.3573 155.846C107.34 161.782 115.675 167.232 124.31 172.183V172.176ZM108.512 197.009C110.118 197.009 111.73 197.009 113.336 196.996C111.997 193.751 110.331 190.633 108.512 187.628C104.761 181.451 100.337 175.728 96.1925 169.811C95.7993 169.245 95.4062 168.678 95.0198 168.105C89.976 170.164 84.8788 172.07 79.7284 173.829C80.9943 175.041 82.2203 176.307 83.4063 177.607C88.9099 183.623 93.5806 190.319 98.1913 197.029C101.636 197.029 105.074 197.016 108.519 197.009H108.512ZM92.9476 197.042C93.6805 197.042 94.4068 197.042 95.1397 197.042C94.3069 195.836 93.474 194.637 92.6345 193.438C87.8039 186.575 82.6601 179.892 76.4502 174.222C75.7107 173.549 76.1504 172.396 77.0033 172.116C77.2764 172.023 77.5496 171.93 77.8228 171.837C75.4908 164.454 73.6452 156.932 72.3126 149.303C72.2992 149.249 72.2992 149.196 72.2992 149.149C72.2193 149.123 72.1327 149.096 72.0527 149.076C72.0194 149.123 71.9928 149.169 71.9594 149.209C69.2343 152.481 66.9223 156.085 64.97 159.87C63.2177 163.248 61.7719 166.766 60.5459 170.371C59.3266 173.982 58.4271 177.673 57.3877 181.338C56.6547 183.936 55.8552 186.528 55.2422 189.16C54.6225 191.819 54.2161 194.517 53.8896 197.222C54.929 197.202 55.9685 197.202 57.0079 197.189C60.0328 197.162 63.0511 197.149 66.0761 197.136C70.1871 197.116 74.2915 197.102 78.4091 197.096C83.2531 197.082 88.1037 197.069 92.9476 197.062V197.042ZM93.5939 165.986C92.4546 164.261 91.3485 162.515 90.3158 160.716C88.5501 157.658 87.1176 154.313 84.8588 151.575C83.2597 151.368 81.674 151.142 80.0882 150.862C78.4091 150.562 76.6834 150.235 74.9644 149.829C76.2703 156.985 78.0227 164.061 80.2081 171.01C84.7122 169.451 89.1697 167.772 93.5939 165.986Z" fill="white"/>
<path d="M80.2083 109.084C86.7989 109.084 92.1416 103.98 92.1416 97.6835C92.1416 91.3873 86.7989 86.2832 80.2083 86.2832C73.6177 86.2832 68.275 91.3873 68.275 97.6835C68.275 103.98 73.6177 109.084 80.2083 109.084Z" fill="white"/>
<path d="M149.382 94.4936C155.358 94.4936 160.203 89.8668 160.203 84.1594C160.203 78.452 155.358 73.8252 149.382 73.8252C143.406 73.8252 138.562 78.452 138.562 84.1594C138.562 89.8668 143.406 94.4936 149.382 94.4936Z" fill="white"/>
<path d="M149.849 75.9233C149.903 75.91 149.943 75.8899 149.989 75.8699C150.309 75.7567 150.642 75.8167 150.909 75.9766C152.288 76.1498 153.634 76.6895 154.78 77.609C157.538 79.8278 158.671 84.0254 156.632 87.0903C154.713 89.982 151.235 91.9143 147.73 91.4279C144.299 90.9548 141.407 88.1031 141.341 84.5784C141.281 81.4135 143.313 77.9821 146.311 76.7827C147.411 76.2231 148.623 75.93 149.843 75.9233H149.849ZM153.341 80.2608C153.341 80.1942 153.341 80.1276 153.327 80.0609C153.287 79.9143 153.254 79.7811 153.201 79.6478C153.187 79.6145 153.187 79.5879 153.181 79.5545C152.941 79.3547 152.694 79.1815 152.428 79.0282C151.775 78.6618 151.069 78.4552 150.342 78.4085C150.329 78.4219 150.309 78.4219 150.296 78.4285C150.249 78.4419 150.209 78.4618 150.162 78.4818H150.149C149.916 78.5951 149.683 78.7084 149.47 78.8483C149.423 78.875 149.383 78.9016 149.336 78.9349C149.25 79.0149 149.163 79.1015 149.076 79.1881L149.063 79.2014L149.003 79.2947C148.976 79.3347 148.956 79.3813 148.93 79.4213C148.916 79.4813 148.897 79.5413 148.877 79.6012C148.877 79.5879 148.877 79.5679 148.877 79.5545C148.863 79.5679 148.863 79.6145 148.857 79.6678C148.857 79.6545 148.857 79.6345 148.87 79.6012C148.87 79.6412 148.857 79.6679 148.857 79.6812C148.857 79.7478 148.857 79.8144 148.87 79.8743C148.897 79.941 148.93 80.0476 148.943 80.0809C148.956 80.1143 148.956 80.1342 148.963 80.1476C148.976 80.1809 148.996 80.2075 149.01 80.2342C149.056 80.3208 149.11 80.4007 149.163 80.4807C149.183 80.5007 149.316 80.6606 149.343 80.694C149.39 80.7339 149.43 80.7739 149.476 80.8072L149.49 80.8205C149.609 80.9005 149.729 80.9737 149.856 81.047C149.909 81.0737 149.969 81.1003 150.023 81.127C150.036 81.127 150.036 81.127 150.056 81.1403C150.189 81.187 150.329 81.2336 150.469 81.2736C150.609 81.3136 150.749 81.3469 150.895 81.3735C150.935 81.3868 151.175 81.4069 151.195 81.4202C151.475 81.4468 151.748 81.4735 152.028 81.4601C152.101 81.4601 152.175 81.4601 152.248 81.4468C152.261 81.4468 152.281 81.4469 152.301 81.4335C152.395 81.4069 152.474 81.3802 152.561 81.3536C152.588 81.3336 152.768 81.2469 152.801 81.2203C152.821 81.2069 152.834 81.207 152.841 81.1937C152.874 81.167 152.901 81.1403 152.934 81.1136C152.974 81.0737 153.101 80.9005 153.107 80.9005C153.141 80.8472 153.174 80.7872 153.201 80.7339C153.201 80.7206 153.281 80.4873 153.294 80.4473C153.294 80.4274 153.294 80.4141 153.307 80.4074C153.307 80.3541 153.307 80.3008 153.321 80.2542L153.341 80.2608ZM147.377 88.7827C147.284 88.7493 147.204 88.7161 147.118 88.6828C147.084 88.6695 147.058 88.6494 147.024 88.6294C146.951 88.6161 146.891 88.5961 146.824 88.5828C147.004 88.6561 147.191 88.7227 147.377 88.7827Z" fill="#202020"/>
<path d="M80.8344 95.9584C80.981 95.9984 81.1343 96.0317 81.2808 96.0584C81.2475 96.0584 81.2076 96.0584 81.2076 96.0584C81.2209 96.0584 81.2609 96.0584 81.3408 96.0717C81.5873 96.0917 81.8339 96.0917 82.0871 96.0851H82.1737C82.2869 96.0717 82.4002 96.0451 82.5135 96.0118C82.6334 95.9785 82.7533 95.9385 82.8799 95.9051C82.9199 95.8918 82.9466 95.8851 82.9666 95.8785C82.9865 95.8651 83.0065 95.8519 83.0465 95.8319C83.1598 95.7652 83.2664 95.7052 83.373 95.6386C83.413 95.612 83.4396 95.5987 83.453 95.592C83.4663 95.5787 83.4863 95.552 83.5196 95.5187C83.5929 95.4454 83.6662 95.3721 83.7395 95.2921C83.7528 95.2721 83.7728 95.2455 83.7794 95.2389C83.8261 95.1589 83.8727 95.0856 83.9127 94.999C83.9127 94.979 83.9927 94.8124 84.006 94.7924C84.0326 94.6991 84.0526 94.5992 84.0726 94.506C84.0726 94.506 84.0726 94.5015 84.0726 94.4926C84.0726 94.4926 84.0726 94.4592 84.0593 94.4393C84.0593 94.3726 84.0593 94.3127 84.0593 94.2528C84.0593 94.2394 84.0593 94.2194 84.046 94.1994C84.046 94.1861 83.9727 93.9929 83.9727 93.9662C83.8994 93.8196 83.8128 93.6664 83.7128 93.5398C83.6862 93.5198 83.5729 93.3865 83.5729 93.3799L83.373 93.18C83.3064 93.1201 83.2397 93.0601 83.1664 93.0001L83.1265 92.9601C83.1265 92.9601 83.0932 92.9468 83.0665 92.9268C82.8733 92.8136 82.6934 92.687 82.4935 92.587C82.4668 92.5737 82.2936 92.5137 82.2936 92.5071C82.2203 92.4804 82.147 92.4538 82.0737 92.4338C81.9271 92.3872 81.7739 92.3605 81.6273 92.3272C81.574 92.3138 81.4674 92.3005 81.4408 92.2938C81.3475 92.2938 81.2542 92.2938 81.1609 92.2938C80.981 92.2938 80.8011 92.3205 80.6212 92.3538C80.5013 92.3872 80.3747 92.4204 80.2548 92.4671C80.2081 92.4937 80.1015 92.5404 80.0815 92.5537C79.9882 92.607 79.9083 92.6603 79.8217 92.7203C79.7883 92.7469 79.7084 92.8136 79.6884 92.8336C79.6284 92.8869 79.5685 92.9535 79.5152 93.0201C79.5152 93.0335 79.4019 93.2 79.3553 93.2799C79.3553 93.2932 79.262 93.5398 79.262 93.5398C79.2287 93.6331 79.2087 93.7197 79.1954 93.8197C79.182 93.873 79.1754 93.913 79.1687 93.933V94.0462C79.1687 94.2994 79.1554 94.5459 79.1687 94.7924C79.1687 94.8391 79.1687 94.8458 79.1687 94.8524C79.1687 94.8791 79.182 94.8924 79.182 94.9257C79.1954 94.979 79.2087 95.019 79.2153 95.0723C79.2886 95.1456 79.3686 95.2188 79.4485 95.2921C79.4619 95.2921 79.4819 95.3122 79.5018 95.3255C79.5951 95.3921 79.6951 95.4588 79.795 95.5187C79.895 95.5854 80.0082 95.6453 80.1148 95.6986C80.1148 95.6986 80.2148 95.7519 80.2814 95.7852C80.3347 95.8052 80.488 95.8651 80.488 95.8651C80.6012 95.9051 80.7212 95.9451 80.8344 95.9784V95.9584ZM86.0981 90.8013C89.223 93.2933 90.5223 98.024 88.2103 101.482C85.9849 104.8 81.9671 106.972 77.9427 106.319C74.2048 105.706 71.0999 102.515 71.0333 98.6703C70.9667 95.1256 73.2387 91.2611 76.6035 89.9152C79.6018 88.3761 83.3597 88.6226 86.0981 90.8013ZM85.8116 100.596C85.7517 100.649 85.6917 100.709 85.6251 100.769C85.6117 100.802 85.6117 100.829 85.5984 100.862C85.6717 100.776 85.745 100.689 85.8116 100.602V100.596Z" fill="#202020"/>
<path d="M74.8779 152.974C75.6774 159.144 77.1499 165.194 79.3287 171.017C79.5686 171.657 80.1815 172.09 80.8811 171.897C81.4941 171.73 82.0005 170.984 81.7606 170.344C79.6618 164.741 78.1693 158.904 77.3964 152.967C77.3098 152.294 76.8767 151.708 76.1372 151.708C75.5242 151.708 74.7912 152.288 74.8779 152.967V152.974Z" fill="#202020"/>
<path d="M91.9346 165.915C88.8097 166.754 85.7381 167.767 82.7264 168.96C81.2339 169.553 79.7548 170.185 78.2956 170.858C76.923 171.491 75.144 172.151 75.1107 173.95C75.0841 175.376 76.1501 176.775 76.8964 177.914C77.6426 179.054 78.5155 180.213 79.4083 181.299C81.194 183.485 83.1728 185.504 85.1517 187.516C87.3771 189.781 89.6092 192.047 91.5881 194.532C92.0145 195.065 92.9273 194.978 93.3738 194.532C93.9001 194.005 93.8002 193.286 93.3738 192.746C90.1422 188.688 86.2511 185.244 82.7997 181.386C81.0874 179.48 79.5016 177.461 78.2156 175.243C78.0624 174.976 77.8892 174.703 77.7626 174.416C77.7159 174.31 77.6226 174.13 77.6293 174.017C77.636 173.923 77.6826 173.943 77.6293 174.023C77.7026 173.897 77.9291 173.823 78.0491 173.757C78.4089 173.57 78.7753 173.404 79.1418 173.23C80.4344 172.624 81.747 172.051 83.0729 171.518C86.1845 170.265 89.3694 169.206 92.6075 168.34C94.1733 167.92 93.507 165.488 91.9346 165.908V165.915Z" fill="#202020"/>
<path d="M131.452 174.994C134.924 172.882 138.715 171.037 142.839 170.777C143.519 170.737 144.099 170.23 144.099 169.517C144.099 168.871 143.519 168.212 142.839 168.258C138.255 168.545 134.051 170.47 130.18 172.822C128.794 173.662 130.06 175.847 131.452 175.001V174.994Z" fill="#202020"/>
<path d="M160.15 161.567C162.395 160.175 164.641 158.789 166.893 157.397C167.453 157.05 167.719 156.257 167.346 155.671C166.973 155.084 166.22 154.845 165.62 155.218C163.375 156.61 161.129 157.996 158.877 159.389C158.318 159.735 158.051 160.528 158.424 161.114C158.797 161.701 159.55 161.941 160.15 161.567Z" fill="#202020"/>
</svg>
