<svg width="200" height="200" viewBox="0 0 200 200" fill="none" xmlns="http://www.w3.org/2000/svg">
<path d="M182.173 2.51953H17.7236C9.30465 2.51953 2.47974 9.34444 2.47974 17.7634V182.213C2.47974 190.632 9.30465 197.457 17.7236 197.457H182.173C190.592 197.457 197.417 190.632 197.417 182.213V17.7634C197.417 9.34444 190.592 2.51953 182.173 2.51953Z" fill="#252525"/>
<path d="M146.98 122.864C146.867 122.951 146.833 122.978 146.973 122.884C147.033 122.844 147.093 122.811 147.16 122.771C147.207 122.744 147.253 122.724 147.307 122.698C147.44 122.658 147.573 122.611 147.707 122.578C147.747 122.571 147.8 122.564 147.853 122.551C147.787 122.558 147.713 122.551 147.84 122.551C147.853 122.551 147.86 122.551 147.873 122.551C147.887 122.551 147.907 122.551 147.92 122.538C147.913 122.538 147.9 122.544 147.887 122.551C148.013 122.544 148.147 122.538 148.273 122.538C148.34 122.538 148.406 122.544 148.466 122.551C148.593 122.578 148.713 122.604 148.833 122.638C148.9 122.658 148.96 122.678 149.02 122.698C149.133 122.758 149.246 122.818 149.353 122.884C149.366 122.891 149.393 122.911 149.426 122.931C149.466 122.964 149.52 123.004 149.52 123.011C149.626 123.111 149.726 123.218 149.826 123.324C149.88 123.384 149.933 123.451 149.986 123.511C149.986 123.518 149.993 123.518 150 123.524C150.413 124.098 150.826 124.697 151.359 125.171C151.853 125.611 152.666 125.691 153.146 125.171C153.586 124.691 153.672 123.858 153.146 123.384C152.999 123.251 152.859 123.118 152.732 122.971C152.679 122.911 152.626 122.844 152.572 122.784C152.572 122.784 152.572 122.784 152.566 122.771C152.306 122.418 152.052 122.065 151.779 121.731C151.233 121.065 150.559 120.592 149.76 120.285C149.046 120.012 148.253 119.965 147.507 120.065C146.633 120.185 145.894 120.538 145.2 121.078C144.681 121.485 144.741 122.438 145.2 122.864C145.754 123.371 146.427 123.298 146.987 122.864H146.98Z" fill="white"/>
<path d="M127.377 99.6124C125.07 99.6391 123.144 98.0327 121.324 96.7996C119.298 95.4265 117.172 94.2068 114.972 93.147C110.5 90.994 105.734 89.461 100.835 88.6478C98.0553 88.1879 95.2491 87.9412 92.4363 87.9346C90.81 87.9346 90.81 90.4541 92.4363 90.4608C94.376 90.4675 96.3089 90.5941 98.2353 90.8341C99.4684 94.56 101.175 98.346 104.274 100.892C105.734 102.092 107.42 103.052 109.273 103.465C111.273 103.912 113.352 103.738 115.299 103.118C117.532 102.412 119.571 101.232 121.531 99.979C123.304 101.145 125.177 102.165 127.377 102.139C128.996 102.119 129.003 99.5991 127.377 99.6124ZM108.04 101.072C101.435 97.8594 100.928 91.4939 100.928 91.4939C100.928 91.4939 108.033 92.8937 110.866 94.1201L110.88 94.1068C112.206 94.64 113.512 95.2399 114.786 95.8864C114.899 95.9398 114.966 95.9731 114.966 95.9731L119.798 98.5793C119.798 98.5793 114.652 104.285 108.047 101.072H108.04Z" fill="white"/>
<path d="M110.886 93.8613L114.966 95.9743C114.966 95.9743 113.826 98.3739 111.62 97.5073C109.413 96.6408 110.893 93.8613 110.893 93.8613H110.886Z" fill="#F9F8F4"/>
<path d="M184.419 0H15.5638C6.98539 0 0 6.98537 0 15.5705V184.419C0 193.005 6.98539 199.99 15.5638 199.99H28.6414C28.7547 200.003 28.8614 200.003 28.968 199.99H184.413C192.998 199.99 199.977 193.005 199.977 184.419V15.5705C199.977 6.98537 192.998 0 184.413 0H184.419ZM118.645 169.602C119.185 175.994 119.205 182.433 119.405 188.852C119.485 191.505 119.538 194.184 119.718 196.837C119.171 196.851 118.625 196.864 118.085 196.871C115.779 196.904 113.479 196.917 111.18 196.931C107.887 196.951 104.587 196.964 101.301 196.977C97.3288 196.991 93.3629 197.004 89.3969 197.011C85.0711 197.024 80.7519 197.031 76.426 197.044C72.0734 197.057 67.7076 197.064 63.3484 197.077C59.2758 197.09 55.1965 197.097 51.124 197.111C47.6446 197.124 44.1719 197.131 40.6992 197.15C38.1463 197.164 35.5935 197.184 33.0406 197.204C31.9808 197.217 30.9077 197.217 29.8545 197.25C29.8545 197.217 29.8412 197.19 29.8412 197.164C29.7879 196.697 29.7279 196.224 29.6746 195.751C29.5479 194.558 29.4546 193.351 29.3746 192.151C29.1746 189.105 29.088 186.053 29.0547 183C28.9614 175.148 29.2413 167.283 29.7745 159.451C30.3678 150.646 31.2876 141.907 32.694 133.282C34.0204 125.124 35.7334 116.979 38.3996 109.147C39.5461 105.767 40.6592 102.968 42.3056 99.8284C43.0254 98.4686 43.8053 97.1422 44.6785 95.8758C44.8651 95.5958 45.0651 95.3225 45.265 95.0559C45.3517 94.9426 45.4383 94.8293 45.525 94.716C45.525 94.716 45.7449 94.4427 45.7849 94.3893C46.1982 93.8828 46.6314 93.3829 47.0847 92.903C47.418 92.5497 47.7712 92.2164 48.1312 91.8965C51.6372 93.6095 55.1099 95.5358 58.0094 98.1153C59.8157 99.7217 61.4687 101.661 62.1819 104.014C62.8485 106.227 62.5619 108.593 61.4354 110.606C60.1756 112.846 58.056 114.412 55.5032 114.792C52.9903 115.179 50.2908 114.399 48.4178 112.679C48.2245 112.506 48.0179 112.406 47.8046 112.366C46.8781 111.799 45.405 112.893 46.0649 114.106C49.7909 120.971 55.2165 126.817 61.6287 131.256C67.9875 135.655 75.3862 138.661 83.0381 139.814C87.264 140.448 91.4499 140.468 95.7024 140.094C100.615 139.668 105.467 139.161 110.386 139.774C114.946 140.341 119.411 141.714 123.531 143.734C124.47 144.2 125.39 144.68 126.317 145.18C123.317 147.086 121.151 150.112 119.858 153.465C117.892 158.578 118.218 164.257 118.665 169.609L118.645 169.602ZM84.0579 48.811C83.9913 48.7377 83.9113 48.6644 83.818 48.5978C82.9981 48.0379 82.1583 47.5113 81.3051 46.998C78.9255 51.6639 75.3462 55.6631 71.007 58.6159C69.6606 59.5291 68.4008 57.3428 69.7339 56.4363C73.7198 53.7301 76.9259 50.0242 79.1188 45.7516C77.8924 45.0851 76.6393 44.4585 75.3662 43.8853C81.785 39.7727 88.4771 35.7001 96.0024 34.0671C100.162 33.1606 104.348 33.3072 108.513 34.0804C112.806 34.8736 117.145 35.8334 121.318 37.1132C123.331 37.7264 125.31 38.4596 127.19 39.4061C129.11 40.3726 130.896 41.5591 132.622 42.8388C136.228 45.5183 139.648 48.4578 143.134 51.2906C146.68 54.1701 150.279 56.9829 153.752 59.9423C155.298 61.2621 156.818 62.6752 158.064 64.2882C159.171 65.7146 160.077 67.3077 160.81 68.954C163.71 75.4728 163.71 82.9714 163.403 89.9902C162.81 89.2103 162.217 88.4304 161.624 87.6506C161.21 87.1107 160.531 86.8241 159.897 87.1973C159.364 87.5106 159.031 88.3771 159.444 88.9237C161.124 91.1233 162.803 93.3295 164.483 95.5291C166.07 97.6021 167.583 99.7817 169.296 101.755C170.922 103.614 172.902 104.674 175.215 105.447C177.114 106.081 179.194 106.56 180.687 107.98C181.94 109.16 182.733 110.78 182.986 112.479C183.266 114.406 182.726 116.092 181.747 117.732C181.107 118.798 180.507 119.898 180.26 121.131C180.007 122.364 180.007 123.617 180.16 124.864C180.46 127.29 181.22 129.636 181.5 132.069C182.107 137.415 181.173 142.88 178.741 147.68C164.816 147.666 151.032 143.947 138.741 137.448C135.635 135.795 132.609 133.982 129.703 131.996C126.877 130.076 124.144 128.023 121.298 126.137C118.418 124.237 115.425 122.511 112.186 121.304C109.053 120.131 105.767 119.638 102.428 119.465C95.7024 119.125 88.0772 120.158 82.2782 115.972C81.725 115.572 80.8718 115.879 80.5519 116.419C80.1786 117.052 80.4519 117.745 81.0051 118.145C86.3775 122.031 93.2962 121.771 99.6151 121.898C102.774 121.958 105.954 122.104 109.02 122.931C112.313 123.811 115.345 125.37 118.232 127.163C121.131 128.963 123.884 130.996 126.677 132.962C129.596 135.015 132.602 136.942 135.722 138.675C141.967 142.147 148.619 144.94 155.498 146.9C157.298 147.406 159.104 147.86 160.93 148.259C158.238 149.326 155.292 149.579 152.365 149.519C150.306 149.466 148.253 149.273 146.206 149.053C143.86 148.793 141.507 148.539 139.201 148.02C136.082 147.32 133.236 145.987 130.436 144.52C130.196 144.047 129.636 143.714 129.11 143.814C128.356 143.414 127.61 143.014 126.857 142.614C122.777 140.448 118.512 138.741 113.979 137.815C109.293 136.862 104.581 136.768 99.8283 137.175C95.4158 137.555 91.0433 138.035 86.6174 137.688C79.1521 137.095 71.8735 134.622 65.4813 130.749C59.6224 127.203 54.4833 122.438 50.6241 116.772C54.2567 117.965 58.4293 117.305 61.3754 114.639C63.3151 112.886 64.5748 110.4 64.9214 107.814C65.2947 105.081 64.5482 102.375 63.0618 100.075C60.1356 95.5691 55.1166 92.643 50.4441 90.2434C45.8982 87.9039 41.1458 85.9909 36.5866 83.6713C32.1074 81.3984 27.7282 78.6656 24.4755 74.793C29.9412 74.7596 35.3202 76.0727 40.7859 76.2393C46.0782 76.3993 51.5305 75.3995 55.6231 71.8202C57.3961 70.2671 58.7692 68.3208 59.7157 66.1745C60.3089 67.301 60.8422 68.4541 61.3021 69.6339C61.5554 70.2671 62.1486 70.707 62.8551 70.5137C62.9884 70.4738 63.1218 70.4004 63.2417 70.3138C65.408 70.687 67.6676 70.3004 69.7339 69.6272C71.7402 68.974 73.6532 68.0142 75.3728 66.7944C78.8855 64.2882 81.6184 60.8689 83.2714 56.8896C84.1912 54.6767 84.7045 52.3304 84.8178 49.9375C84.8511 49.3176 84.4978 48.931 84.0446 48.7844L84.0579 48.811ZM197.457 184.413C197.457 191.605 191.612 197.457 184.419 197.457H122.284C122.104 195.111 122.058 192.751 121.978 190.398C121.864 186.859 121.771 183.326 121.658 179.794C121.564 176.988 121.504 174.181 121.318 171.382C120.991 166.529 120.365 161.61 121.464 156.805C122.418 152.625 124.89 148.366 128.936 146.58C131.169 147.766 133.422 148.899 135.822 149.706C138.201 150.506 140.674 150.912 143.147 151.232C145.36 151.512 147.58 151.759 149.799 151.925C153.992 152.232 158.364 152.139 162.29 150.459C163.21 150.066 164.077 149.599 164.896 149.033C169.642 149.833 174.455 150.246 179.267 150.226C179.8 150.226 180.154 149.946 180.334 149.573C180.554 149.479 180.753 149.299 180.893 149.019C183.166 144.54 184.333 139.528 184.193 134.509C184.12 131.916 183.6 129.416 183.06 126.89C182.573 124.63 182.18 122.198 183.32 120.065C183.893 118.991 184.579 117.998 185.013 116.845C185.373 115.899 185.539 114.866 185.573 113.852C185.633 111.853 185.066 109.793 184.006 108.107C182.82 106.221 181.12 104.961 179.074 104.128C177.014 103.281 174.735 102.914 172.862 101.655C171.802 100.935 170.962 99.9017 170.189 98.9018C169.256 97.7021 168.342 96.4823 167.416 95.2758C166.863 94.556 166.316 93.8294 165.763 93.1096C166.19 85.5976 166.476 77.7458 164.077 70.5137C162.83 66.7411 160.824 63.315 158.031 60.4822C156.511 58.9425 154.825 57.5828 153.152 56.2164C151.272 54.69 149.399 53.1702 147.526 51.6505C143.86 48.6711 140.201 45.6583 136.508 42.7055C134.775 41.3258 133.022 39.9593 131.149 38.7729C129.57 37.7664 127.91 36.9332 126.19 36.2067C126.19 36.1134 126.177 36.0267 126.15 35.9268C125.577 33.5872 124.617 31.3276 123.291 29.3146C123.177 29.1413 123.044 28.9747 122.931 28.8014C120.058 29.4413 117.125 29.8012 114.186 29.8678C112.559 29.9078 112.566 27.3817 114.186 27.3417C116.559 27.2883 118.918 27.0217 121.231 26.5684C120.425 25.6086 119.578 24.6821 118.712 23.789C117.638 22.6825 116.512 21.616 115.345 20.5962C113.319 21.2961 111.24 21.8427 109.113 22.2026C108.44 22.3159 107.76 22.0359 107.56 21.3227C107.394 20.7162 107.767 19.883 108.44 19.7697C110 19.5031 111.54 19.1498 113.053 18.6966C111.526 17.4968 109.946 16.3637 108.313 15.3238C106.287 14.0241 104.168 12.871 101.995 11.8445C101.588 11.4379 100.981 11.2779 100.442 11.5979C100.222 11.7312 100.035 11.9511 99.9283 12.1978C99.6684 12.7177 99.795 13.4909 100.315 13.8108C103.641 18.8166 104.707 25.1154 103.128 30.9343C101.668 30.8744 100.208 30.9077 98.7352 31.0743C90.2234 32.0541 82.5849 36.3267 75.4528 40.8325C74.5463 41.4057 73.6532 41.979 72.76 42.5522C72.68 42.6055 72.6067 42.6655 72.54 42.7255C69.9138 41.7124 67.2143 40.8992 64.4682 40.2859C62.9751 43.8053 60.7355 46.998 57.9027 49.5776C56.7029 50.6707 54.9166 48.891 56.1164 47.7912C58.5959 45.5317 60.5689 42.7988 61.9353 39.7727C57.4095 38.9662 52.7903 38.6996 48.2112 39.0129C44.8918 39.2395 41.5924 39.7594 38.3596 40.5725C37.8264 40.3726 37.1332 40.6659 36.8532 41.1458C36.5999 41.579 36.6533 42.0256 36.8799 42.4055C37.0199 42.7855 37.3265 43.0988 37.7397 43.1987C45.1584 48.7177 52.5237 54.7833 57.6094 62.5952C57.8294 62.9218 58.0227 63.2617 58.2293 63.595C58.0294 63.755 57.8761 63.9816 57.7894 64.2282C56.2697 68.5874 52.6303 71.7535 48.2312 72.9799C43.1787 74.3797 37.8531 73.5932 32.7473 72.9266C29.4879 72.5067 26.2152 72.1401 22.9225 72.3267C22.2626 72.3667 21.876 72.8133 21.7493 73.3132C21.2761 73.6731 21.0095 74.4464 21.3961 74.9663C27.3217 82.9381 36.7266 86.5308 45.4183 90.6034C45.4917 90.6367 45.565 90.6767 45.6383 90.71C41.4924 94.7626 38.9195 100.395 36.9066 105.721C34.0138 113.353 32.1941 121.378 30.7677 129.396C29.1946 138.248 28.1482 147.193 27.455 156.158C26.8217 164.263 26.4751 172.395 26.4885 180.52C26.4885 186.159 26.5885 191.858 27.335 197.464H15.5505C8.35847 197.464 2.51287 191.611 2.51287 184.419V15.5705C2.51287 8.37179 8.36513 2.52623 15.5505 2.52623H184.4C191.592 2.52623 197.437 8.37845 197.437 15.5705V184.419L197.457 184.413Z" fill="white"/>
</svg>
