<svg width="201" height="200" viewBox="0 0 201 200" fill="none" xmlns="http://www.w3.org/2000/svg">
<path d="M183.105 2.52539H18.476C10.1018 2.52539 3.31323 9.31399 3.31323 17.6882V182.317C3.31323 190.691 10.1018 197.48 18.476 197.48H183.105C191.479 197.48 198.268 190.691 198.268 182.317V17.6882C198.268 9.31399 191.479 2.52539 183.105 2.52539Z" fill="#252525"/>
<path d="M185.22 0H16.3545C7.76871 0 0.787354 6.98144 0.787354 15.5673V184.433C0.787354 193.019 7.76871 200 16.3545 200H52.952C52.952 200 52.952 200 52.9984 200H185.22C193.806 200 200.787 193.019 200.787 184.433V15.5673C200.787 6.98144 193.806 0 185.22 0ZM62.3335 139.932C62.2075 139.773 62.0351 139.68 61.8561 139.621C61.6108 139.488 61.3124 139.435 60.961 139.528C52.5144 141.776 43.5905 142.273 34.9583 140.874C31.1129 140.251 27.2211 139.336 23.6873 137.658C22.0232 136.869 20.4121 135.921 18.9866 134.754C17.6739 133.674 16.3612 132.407 15.7578 130.776C15.2871 129.503 15.3534 128.065 16.6264 127.335C17.8529 126.633 19.5369 126.812 20.9093 126.951C22.9646 127.163 24.9868 127.408 27.0553 127.422C29.2499 127.435 31.4444 127.256 33.6124 126.931C35.7472 126.613 37.8755 126.142 39.9307 125.466C41.8004 124.849 43.6369 123.954 44.8171 122.33C45.8977 120.845 46.2226 118.736 45.3872 117.066C44.4657 115.229 42.2844 114.579 40.4479 114.102C36.3771 113.035 32.114 112.975 28.0697 111.775C24.9404 110.847 21.9768 109.289 19.4043 107.273C14.3059 103.275 10.2351 97.2287 9.29361 90.7313C9.13449 89.6109 9.06157 87.7942 10.4008 87.4694C11.2428 87.2638 12.1909 87.5555 12.9998 87.7677C13.9677 88.0263 14.9225 88.3578 15.8507 88.7357C19.5369 90.2142 22.9381 92.3424 26.7371 93.5623C30.8875 94.8949 35.4025 95.0541 39.6457 94.0993C41.4954 93.6817 43.3783 93.0386 44.6646 91.5601C45.8778 90.1678 46.2757 88.1788 44.8568 86.7534C43.5971 85.487 41.5352 85.4406 39.9109 84.9499C38.386 84.4858 36.9274 83.8627 35.5351 83.087C32.6709 81.4891 30.1714 79.3145 28.1227 76.7553C26.1139 74.2492 24.5956 71.3121 23.7006 68.2358C23.2564 66.7109 22.958 65.1462 22.8519 63.5683C22.7525 62.05 22.5668 60.061 23.3956 58.7019C23.5415 58.4632 23.7934 58.198 23.926 58.1184C24.0851 58.0123 24.0718 58.0323 24.2177 57.9859C24.2641 57.9726 24.5691 57.9063 24.4498 57.9196C24.8011 57.8732 24.9006 57.8797 25.2188 58.0123C25.1857 57.9991 25.3647 58.1317 25.3647 58.1251C25.5569 58.5958 25.9282 58.9604 26.399 59.04C31.9217 65.2191 39.2677 70.6292 47.7011 71.4911C51.984 71.9287 56.1411 70.8547 59.9135 68.8524C63.7125 66.8369 67.0407 64.0721 70.6541 61.7516C78.3581 56.8123 87.4213 55.0686 96.4314 54.5515C105.694 54.0211 115.148 54.2863 124.297 55.9107C129.422 56.819 134.507 58.198 139.327 60.1737C139.447 60.2599 139.586 60.3129 139.745 60.3461C143.007 61.7119 146.143 63.3628 149.093 65.3451C155.564 69.6944 161.087 75.5951 164.621 82.5698C166.364 86.0108 167.571 89.7369 168.128 93.5557C168.738 97.7724 168.619 102.44 166.703 106.332C164.926 109.945 161.777 112.511 158.309 114.42C154.431 116.562 150.181 118.034 145.984 119.393C136.636 122.409 126.943 124.325 117.17 125.327C107.225 126.341 97.0016 126.732 87.0567 125.572C84.6168 125.287 82.1902 124.869 79.7968 124.332C78.2122 123.974 77.5426 126.407 79.1272 126.765C89.165 129.019 99.6138 129.033 109.831 128.436C119.908 127.846 129.959 126.401 139.732 123.848C144.486 122.602 149.186 121.11 153.748 119.293C156.479 118.206 159.171 116.966 161.631 115.355C161.631 115.362 161.631 115.368 161.631 115.382C162.691 118.796 162.241 122.515 160.782 125.751C159.217 129.212 156.678 132.069 153.688 134.383C150.625 136.757 147.151 138.58 143.657 140.231C140.01 141.955 136.258 143.453 132.426 144.726C124.775 147.272 116.832 148.943 108.796 149.672C100.734 150.401 92.5662 150.235 84.5572 149.069C80.7515 148.518 76.9327 147.815 73.253 146.682C69.9513 145.661 66.6628 144.209 64.0904 141.848C63.4473 141.258 62.8572 140.622 62.3136 139.946L62.3335 139.932ZM160.02 43.4596C160.039 43.3999 160.106 43.2474 160.165 43.0883C160.338 43.2541 160.504 43.4197 160.663 43.5988C161.266 44.2684 161.75 45.0375 162.154 45.8397C163.911 49.3005 164.236 53.5504 163.891 57.356C163.494 61.8179 161.896 66.1274 159.37 69.8071C159.211 70.0458 159.171 70.3243 159.211 70.6027C158.534 69.8867 157.832 69.1905 157.116 68.5143C153.303 64.9341 148.981 62.0169 144.346 59.6897C146.355 59.1593 148.304 58.3571 150.088 57.3958C151.507 56.6267 152.912 55.6853 154.013 54.4985C155.425 52.9736 156.585 51.1901 157.547 49.3536C158.534 47.4641 159.33 45.4751 160.006 43.4596H160.02ZM170.72 101.498C170.959 99.7282 171.012 97.9381 170.919 96.1546C172.723 97.3812 175.288 97.6796 177.377 97.779C179.803 97.8984 182.223 97.6331 184.643 97.4342C185.83 97.3348 187.043 97.2022 188.237 97.2353C189.112 97.2552 189.642 97.5668 189.748 98.4818C189.941 100.232 188.946 101.956 187.799 103.189C186.42 104.674 184.69 105.748 182.886 106.663C178.756 108.752 174.122 109.865 169.494 109.925C168.831 109.932 168.161 109.919 167.498 109.879C169.215 107.412 170.296 104.561 170.714 101.505L170.72 101.498ZM170.336 91.4274C170.163 90.5258 169.958 89.6307 169.719 88.7555C168.102 82.8018 165.005 77.3321 161.027 72.6315C161.193 72.7243 161.385 72.7906 161.611 72.8038C166.238 73.0691 170.7 71.0535 174.122 68.0435C177.556 65.0268 179.89 61.0622 181.892 57.0113C182.303 56.1759 182.794 55.367 183.443 54.6908C183.907 54.2068 184.59 53.6763 185.094 53.789C185.883 53.9614 186.201 54.9957 186.453 55.6587C186.878 56.7659 187.222 57.9063 187.501 59.0599C188.575 63.5683 188.475 68.3485 187.216 72.8105C186.089 76.8017 184.007 80.5012 181.209 83.5577C179.837 85.056 178.318 86.4152 176.648 87.5755C175.799 88.1655 174.911 88.7092 174.002 89.2064C173.134 89.6771 172.192 90.0418 171.37 90.5921C171.012 90.8374 170.654 91.1158 170.349 91.4341L170.336 91.4274ZM160.411 71.7033C160.431 71.816 160.464 71.922 160.51 72.0281C160.411 71.9088 160.305 71.7961 160.205 71.6768C160.278 71.69 160.344 71.7033 160.417 71.7033H160.411ZM72.9083 149.214C75.5735 150.01 78.3183 150.56 80.9504 151.024C89.2644 152.483 97.7442 152.947 106.164 152.397C114.617 151.847 123.018 150.315 131.113 147.802C135.137 146.549 139.089 145.051 142.934 143.334C143.849 142.929 144.757 142.505 145.666 142.074C149.683 148.531 153.237 155.301 155.763 162.488C158.223 169.482 159.675 176.769 160.371 184.135C160.775 188.417 160.941 192.72 160.994 197.017C160.272 197.03 159.549 197.043 158.826 197.05C156.101 197.083 153.376 197.096 150.651 197.109C146.753 197.129 142.855 197.142 138.956 197.156C134.236 197.169 129.508 197.182 124.788 197.189C119.656 197.202 114.531 197.209 109.4 197.222C104.208 197.229 99.0105 197.242 93.8192 197.249C88.9661 197.255 84.1129 197.268 79.2598 197.282C75.1426 197.295 71.032 197.308 66.9148 197.321C63.8915 197.335 60.8616 197.348 57.8383 197.381C56.7974 197.388 55.7565 197.388 54.7156 197.408C55.0405 194.696 55.4449 191.998 56.0681 189.339C56.6847 186.7 57.4737 184.115 58.2162 181.509C59.2571 177.843 60.1588 174.143 61.3787 170.53C62.5986 166.923 64.0506 163.403 65.8009 160.015C67.7568 156.229 70.0706 152.622 72.8022 149.347C72.8353 149.307 72.8685 149.261 72.895 149.214H72.9083ZM198.268 184.433C198.268 191.626 192.414 197.481 185.22 197.481H163.527C163.447 189.558 162.95 181.608 161.438 173.818C159.993 166.366 157.533 159.179 154.252 152.344C152.369 148.425 150.227 144.633 147.933 140.94C149.922 139.906 151.865 138.779 153.701 137.493C157.003 135.179 160.02 132.354 162.048 128.834C163.984 125.472 165.118 121.475 164.674 117.583C164.561 116.608 164.376 115.647 164.084 114.705C163.978 114.367 163.779 114.142 163.54 114.003C163.931 113.698 164.316 113.379 164.687 113.048C164.992 112.776 165.277 112.498 165.556 112.212C165.675 112.252 165.801 112.285 165.934 112.299C170.833 112.776 175.865 112.133 180.486 110.436C184.544 108.944 189.178 106.643 191.28 102.639C192.228 100.822 192.818 98.2232 191.625 96.3735C190.186 94.1392 187.11 94.7225 184.862 94.9082C182.336 95.1137 179.797 95.4055 177.251 95.2729C176.044 95.2066 174.851 95.0209 173.691 94.6695C173.22 94.5303 172.743 94.3844 172.325 94.1126C172.133 93.9933 171.881 93.7414 171.881 93.6419C171.861 93.0253 173.14 92.4419 173.631 92.2032C174.579 91.7325 175.52 91.2617 176.429 90.7181C178.292 89.591 180.036 88.2451 181.607 86.7467C184.776 83.7234 187.236 80.004 188.814 75.9199C190.604 71.2723 191.108 66.1672 190.431 61.2411C190.093 58.7947 189.47 56.3814 188.502 54.1073C188.084 53.1261 187.481 52.1647 186.5 51.6608C185.452 51.1238 184.318 51.1769 183.271 51.6741C181.302 52.6089 180.201 54.7372 179.28 56.5869C178.239 58.682 177.065 60.724 175.673 62.6069C173.001 66.2203 169.255 69.1972 164.767 70.0922C163.872 70.2712 162.963 70.3242 162.048 70.3043C164.19 66.9429 165.622 63.1109 166.192 59.166C166.802 54.9427 166.623 50.3945 165.105 46.3701C164.369 44.4209 163.301 42.5048 161.717 41.1125C160.756 40.2705 159.43 39.9125 158.448 40.9534C157.746 41.696 157.553 42.896 157.215 43.8309C156.479 45.8663 155.591 47.8486 154.464 49.6984C153.516 51.2498 152.415 52.7747 150.95 53.8885C149.365 55.0952 147.509 55.9836 145.639 56.6532C143.895 57.2764 142.079 57.7538 140.262 57.8532C138.379 57.0775 136.463 56.3814 134.514 55.778C125.424 52.9669 115.837 51.9658 106.35 51.8465C97.048 51.7272 87.4147 52.1449 78.5438 55.188C74.1746 56.6864 70.2629 58.9008 66.4971 61.5462C63.0031 63.9993 59.4958 66.7176 55.4118 68.1165C46.9983 70.9873 38.4523 66.8103 32.1869 61.2677C30.5692 59.8356 29.0642 58.2908 27.652 56.6599C27.4399 56.4146 27.1946 56.2952 26.9559 56.2621C26.094 55.4864 24.8608 55.2145 23.6343 55.5526C21.7447 56.0698 20.7436 57.9196 20.4585 59.7428C19.9281 63.2236 20.5579 66.996 21.7182 70.2911C24.0387 76.8614 28.8985 82.5897 35.1373 85.7522C36.6953 86.5412 38.3396 87.1843 40.0236 87.6285C40.8589 87.8473 41.7805 87.9268 42.5827 88.2583C42.7949 88.3445 43.0137 88.4573 43.1529 88.6495C43.3386 88.9015 43.2988 89.0009 43.2391 89.1865C42.8015 90.6318 40.7595 91.2551 39.4269 91.5799C37.3185 92.1037 35.1439 92.2894 32.9759 92.1833C28.6664 91.9645 24.8674 90.2606 21.0552 88.3909C19.1789 87.476 17.2894 86.561 15.3136 85.8715C13.4506 85.2218 11.1169 84.4461 9.19416 85.2483C5.42833 86.8196 6.77422 92.0043 7.72231 94.9347C8.82288 98.3359 10.5666 101.465 12.781 104.256C17.3225 109.991 23.8332 113.81 31.0201 115.05C33.208 115.428 35.4224 115.66 37.6036 116.071C38.7108 116.277 39.8048 116.535 40.8788 116.873C41.6214 117.105 42.543 117.377 43.0203 118.047C43.9087 119.293 42.901 121.01 41.8667 121.793C40.302 122.98 38.1539 123.437 36.2843 123.875C31.9549 124.896 27.4664 125.161 23.0376 124.697C19.822 124.359 15.2871 123.543 13.4705 127.097C11.5677 130.81 14.8164 134.715 17.5811 136.883C20.7568 139.369 24.4829 140.987 28.3482 142.061C36.987 144.461 46.2558 144.759 55.0869 143.367C57.0427 143.062 58.9787 142.651 60.8948 142.16C63.4208 145.104 66.7424 147.033 70.3557 148.386C65.6153 154.28 62.1147 161.029 59.5422 168.13C58.1964 171.849 57.2217 175.655 56.1609 179.46C55.3852 182.258 54.5233 185.03 53.8206 187.854C53.0382 191.03 52.5476 194.258 52.1631 197.5H16.328C9.1345 197.5 3.28685 191.646 3.28685 184.453V15.5871C3.28685 8.39356 9.14113 2.53933 16.328 2.53933H185.194C192.387 2.53933 198.241 8.39356 198.241 15.5871V184.453L198.268 184.433Z" fill="white"/>
<path d="M149.829 80.601C149.829 80.601 149.829 80.5679 149.842 80.5347C149.842 80.5215 149.842 80.5015 149.842 80.4883C149.829 80.5015 149.829 80.548 149.822 80.601H149.829Z" fill="white"/>
<path d="M150.333 74.7461C144.353 74.7461 139.5 79.3804 139.5 85.0955C139.5 90.8105 144.353 95.4449 150.333 95.4449C156.313 95.4449 161.167 90.8105 161.167 85.0955C161.167 79.3804 156.313 74.7461 150.333 74.7461ZM157.6 88.0259C155.677 90.9166 152.196 92.8592 148.689 92.3686C145.255 91.8912 142.357 89.0403 142.291 85.5065C142.231 82.3374 144.267 78.9031 147.27 77.703C148.371 77.1461 149.584 76.8477 150.811 76.8411C150.864 76.8278 150.903 76.808 150.95 76.7881C151.275 76.6754 151.599 76.7351 151.871 76.8942C153.257 77.0732 154.603 77.6102 155.75 78.5318C158.508 80.7528 159.648 84.9562 157.606 88.0192L157.6 88.0259Z" fill="white"/>
<path d="M154.285 80.9839C154.245 80.8446 154.212 80.712 154.159 80.5728C154.146 80.5397 154.146 80.5131 154.139 80.48C153.9 80.2811 153.648 80.1088 153.39 79.9563C152.74 79.585 152.024 79.386 151.308 79.333C151.295 79.3463 151.275 79.3463 151.262 79.3529C151.215 79.3662 151.175 79.386 151.129 79.4059H151.116C150.884 79.5253 150.652 79.6314 150.433 79.7772C150.386 79.8038 150.347 79.8303 150.3 79.8634C150.214 79.943 150.128 80.0292 150.042 80.1154L150.028 80.1287C150.009 80.1618 149.989 80.1883 149.969 80.2214C149.942 80.2612 149.922 80.3076 149.896 80.3474C149.883 80.4071 149.863 80.4668 149.843 80.5264C149.843 80.5662 149.83 80.5927 149.83 80.606C149.83 80.6723 149.83 80.7452 149.843 80.7982C149.869 80.8645 149.902 80.9706 149.916 81.0038C149.929 81.0369 149.929 81.0568 149.936 81.0701C149.949 81.1032 149.969 81.1297 149.982 81.1563C150.028 81.2424 150.082 81.322 150.141 81.4016C150.161 81.4214 150.294 81.5806 150.32 81.6138C150.367 81.6535 150.406 81.6933 150.453 81.7331L150.466 81.7463C150.585 81.8259 150.711 81.9054 150.837 81.9717C150.89 81.9982 150.95 82.0248 151.003 82.0513C151.016 82.0513 151.016 82.0513 151.036 82.0646C151.175 82.111 151.308 82.1574 151.447 82.1972C151.587 82.237 151.732 82.2701 151.878 82.2966C151.918 82.3098 152.157 82.3298 152.183 82.343C152.462 82.3696 152.74 82.396 153.019 82.3828C153.092 82.3828 153.164 82.3829 153.237 82.3696C153.251 82.3696 153.271 82.3696 153.29 82.3563C153.383 82.3298 153.469 82.3033 153.556 82.2768C153.582 82.2569 153.761 82.1706 153.801 82.1441C153.821 82.1309 153.834 82.1309 153.841 82.1176C153.874 82.0911 153.9 82.0646 153.934 82.0381C153.973 81.9983 154.099 81.8259 154.113 81.8259C154.146 81.7728 154.179 81.7132 154.205 81.6601C154.205 81.6469 154.285 81.4149 154.298 81.3751C154.298 81.3552 154.298 81.3419 154.311 81.3353C154.311 81.2822 154.311 81.2292 154.325 81.1762C154.325 81.1099 154.325 81.0435 154.311 80.9772L154.285 80.9839Z" fill="white"/>
<path d="M84.9358 95.203C84.9358 95.203 84.9358 95.1698 84.9225 95.1499C84.9225 95.1366 84.8496 94.9444 84.8496 94.9178C84.7766 94.772 84.6904 94.6195 84.5844 94.4869C84.5578 94.467 84.4451 94.3278 84.4451 94.3278C84.3788 94.2615 84.3126 94.1952 84.2463 94.1289C84.18 94.0692 84.107 94.0096 84.0407 93.9499L84.0009 93.9101C84.0009 93.9101 83.9678 93.8969 83.9413 93.877C83.749 93.7576 83.57 93.6383 83.3645 93.5388C83.3379 93.5256 83.1656 93.4659 83.1656 93.4593C83.0926 93.4328 83.0197 93.4062 82.9468 93.3864C82.8009 93.3399 82.6484 93.3134 82.4959 93.2803C82.4429 93.267 82.3368 93.2537 82.3103 93.2471C82.2175 93.2471 82.1246 93.2471 82.0318 93.2471C81.8528 93.2471 81.6738 93.2736 81.4948 93.3068C81.3755 93.3399 81.2495 93.373 81.1235 93.4195C81.0771 93.446 80.971 93.4924 80.9512 93.5056C80.8583 93.5587 80.7721 93.6117 80.6859 93.6714C80.6528 93.6979 80.5732 93.7642 80.5533 93.7841C80.4937 93.8372 80.434 93.9035 80.3743 93.9698C80.3743 93.9831 80.2616 94.1487 80.2152 94.2283C80.2152 94.2416 80.1224 94.4869 80.1224 94.4869C80.0893 94.5797 80.0694 94.6659 80.0561 94.7654C80.0428 94.8184 80.0362 94.8582 80.0296 94.8781V94.9974C80.0296 95.2493 80.0163 95.4946 80.0296 95.7466C80.0296 95.793 80.0296 95.7996 80.0296 95.8062C80.0296 95.8328 80.0428 95.846 80.0428 95.8792C80.0561 95.9322 80.0694 95.972 80.076 96.0251C80.1489 96.098 80.2285 96.1709 80.308 96.2438C80.3147 96.2438 80.3412 96.2638 80.3611 96.277C80.4539 96.3433 80.5533 96.4096 80.6528 96.4692C80.7522 96.5355 80.865 96.5952 80.971 96.6483C80.971 96.6483 81.0705 96.7013 81.1368 96.7344C81.1898 96.7543 81.3423 96.814 81.3423 96.814C81.4617 96.8538 81.5744 96.8936 81.6937 96.9267C81.8396 96.9665 81.9921 96.9997 82.1445 97.0262C82.1114 97.0262 82.0716 97.0262 82.0716 97.0262C82.0849 97.0262 82.1247 97.0261 82.2108 97.0394C82.4562 97.0593 82.7081 97.0593 82.96 97.0527H83.0462C83.1655 97.0394 83.2716 97.0129 83.391 96.9798C83.5103 96.9466 83.6363 96.9068 83.7623 96.8737C83.802 96.8604 83.8286 96.8538 83.8484 96.8472C83.8683 96.8339 83.8882 96.8206 83.928 96.8007C84.0407 96.7344 84.1468 96.6748 84.2529 96.6085C84.2926 96.582 84.3192 96.5687 84.3324 96.5621C84.3457 96.5488 84.3656 96.5223 84.3987 96.4891C84.4717 96.4162 84.5446 96.3433 84.6175 96.2637C84.6308 96.2439 84.6507 96.2173 84.6573 96.2107C84.7037 96.1311 84.7501 96.0515 84.7899 95.972C84.7899 95.9521 84.8695 95.7864 84.8827 95.7665C84.9092 95.6737 84.9291 95.5742 84.949 95.4814C84.949 95.4814 84.949 95.4769 84.949 95.4681C84.949 95.4681 84.949 95.435 84.9358 95.4151C84.9358 95.3488 84.9358 95.2891 84.9358 95.2294V95.203Z" fill="white"/>
<path d="M81.0836 87.2148C74.4867 87.2148 69.1364 92.3265 69.1364 98.625C69.1364 104.923 74.4867 110.035 81.0836 110.035C87.6804 110.035 93.0308 104.923 93.0308 98.625C93.0308 92.3265 87.6804 87.2148 81.0836 87.2148ZM89.0926 102.431C86.8649 105.752 82.8471 107.927 78.8095 107.271C75.0702 106.661 71.9607 103.465 71.8944 99.6129C71.8281 96.0658 74.1022 92.1939 77.4702 90.8481C80.4736 89.3099 84.2328 89.5486 86.971 91.7365C90.1003 94.2293 91.3998 98.9698 89.086 102.424L89.0926 102.431Z" fill="white"/>
<path d="M86.4738 101.807C86.5467 101.721 86.6196 101.635 86.6859 101.542C86.6262 101.595 86.5666 101.661 86.5003 101.714C86.487 101.748 86.487 101.774 86.4738 101.807Z" fill="white"/>
</svg>
