<svg width="67" height="66" viewBox="0 0 67 66" fill="none" xmlns="http://www.w3.org/2000/svg">
<path d="M7.97273 7.19691V58.6034L0.770508 65.8003V0L7.97273 7.19691Z" fill="#52D9EB"/>
<path d="M66.6194 0L59.4172 7.19691H7.97273L0.770508 0H66.6194Z" fill="#56EBFF"/>
<path d="M66.6192 0V65.8003L59.417 58.6034V7.19691L66.6192 0Z" fill="#44A3B0"/>
<path d="M66.6194 65.7999H0.770508L7.97273 58.603H59.4172L66.6194 65.7999Z" fill="#3B7F88"/>
<path d="M59.4171 7.19678H7.97266V58.6033H59.4171V7.19678Z" fill="#4DC7D7"/>
<path opacity="0.3" d="M32.0898 7.19678L7.97266 31.2962V7.48465L8.26074 7.19678H32.0898Z" fill="white"/>
<path opacity="0.2" d="M45.3728 7.19678L7.97266 44.5693V32.6636L33.4583 7.19678H45.3728Z" fill="white"/>
<path opacity="0.1" d="M52.0709 7.19678L7.97266 51.2624V46.3891L47.1939 7.19678H52.0709Z" fill="white"/>
<path opacity="0.3" d="M59.4166 46.6562V58.562L59.3755 58.6031H47.4609L59.4166 46.6562Z" fill="white"/>
<path opacity="0.1" d="M59.4167 39.0176V43.8909L44.6933 58.6035H39.8164L59.4167 39.0176Z" fill="white"/>
</svg>
