<svg width="24" height="23" viewBox="0 0 24 23" fill="none" xmlns="http://www.w3.org/2000/svg">
<mask id="mask0_4614_8282" style="mask-type:alpha" maskUnits="userSpaceOnUse" x="0" y="0" width="24" height="23">
<path d="M17.8969 18.4584L17.8983 18.4572C20.3814 16.3822 23.372 13.0082 23.4945 8.52092C23.5509 7.0083 23.1695 5.51158 22.3998 4.24271C21.6293 2.97267 20.5065 1.992 19.1849 1.44859C17.8624 0.904821 16.414 0.829321 15.0484 1.2342C13.8812 1.58026 12.8307 2.26041 12.0011 3.19231C11.1915 2.28256 10.1711 1.61225 9.03618 1.25866C7.7037 0.843511 6.28537 0.887606 4.97763 1.38414C3.67069 1.88038 2.54385 2.80177 1.74575 4.01417C0.9486 5.22511 0.515945 6.67023 0.501889 8.15248L0.500145 8.22477L0.5 8.22476V8.23682C0.5 12.82 3.51367 16.2718 6.02494 18.3916L6.02656 18.393C7.49937 19.6255 9.08592 20.689 10.761 21.5658C10.8996 21.6398 11.0396 21.7105 11.181 21.7779L11.2763 21.8558H11.3569C11.5626 21.9357 11.781 21.977 12.0022 21.9766C12.223 21.9762 12.4409 21.9342 12.6461 21.8538H12.6749L12.7805 21.7962L12.7891 21.7922C12.7901 21.7917 12.7914 21.7911 12.7928 21.7905C12.81 21.7829 12.8558 21.7625 12.9034 21.7371C14.6724 20.8437 16.3466 19.7443 17.8969 18.4584Z" fill="#212121" stroke="#F9F8F4"/>
</mask>
<g mask="url(#mask0_4614_8282)">
<path d="M29.484 -0.0313282C29.484 2.01429 22.4238 2.01429 22.4238 -0.0313282C22.4238 -2.07694 24.0173 -3.76019 25.9538 -3.76019C27.8903 -3.76019 29.484 -2.07694 29.484 -0.0313282Z" fill="#252525" stroke="#F9F8F4" stroke-width="0.3" stroke-miterlimit="10"/>
<path d="M24.9911 -0.0313282C24.9911 2.01429 17.2891 2.01429 17.2891 -0.0313282C17.2891 -2.07694 19.0274 -3.76019 21.14 -3.76019C23.2525 -3.76019 24.9909 -2.07694 24.9909 -0.0313282H24.9911Z" fill="#252525" stroke="#F9F8F4" stroke-width="0.3" stroke-miterlimit="10"/>
<path d="M26.9169 3.25828C26.9169 5.3039 19.2148 5.3039 19.2148 3.25828C19.2148 1.21267 20.9532 -0.470581 23.0657 -0.470581C25.1783 -0.470581 26.9166 1.21267 26.9166 3.25828H26.9169Z" fill="#56EBFF" stroke="#F9F8F4" stroke-width="0.3" stroke-miterlimit="10"/>
<path d="M21.1396 -0.0313773C21.1396 2.01414 13.4375 2.01414 13.4375 -0.0313773C13.4375 -2.07689 15.1761 -3.76031 17.2887 -3.76031C19.4012 -3.76031 21.1396 -2.07689 21.1396 -0.0313773Z" fill="#252525" stroke="#F9F8F4" stroke-width="0.3" stroke-miterlimit="10"/>
<path d="M23.0653 3.25836C23.0653 5.30387 15.3633 5.30387 15.3633 3.25836C15.3633 1.21284 17.1019 -0.470581 19.2144 -0.470581C21.327 -0.470581 23.0653 1.21284 23.0653 3.25836Z" fill="#252525" stroke="#F9F8F4" stroke-width="0.3" stroke-miterlimit="10"/>
<path d="M17.2887 -0.0313284C17.2887 2.01428 10.2285 2.01428 10.2285 -0.0313284C10.2285 -2.07694 11.822 -3.76019 13.7585 -3.76019C15.695 -3.76019 17.2887 -2.07694 17.2887 -0.0313284Z" fill="#252525" stroke="#F9F8F4" stroke-width="0.3" stroke-miterlimit="10"/>
<path d="M19.2145 3.25828C19.2145 5.3039 12.1543 5.3039 12.1543 3.25828C12.1543 1.21267 13.7478 -0.470581 15.6843 -0.470581C17.6208 -0.470581 19.2145 1.21267 19.2145 3.25828Z" fill="#252525" stroke="#F9F8F4" stroke-width="0.3" stroke-miterlimit="10"/>
<path d="M12.7965 -0.0313282C12.7965 2.01429 5.73633 2.01429 5.73633 -0.0313282C5.73633 -2.07694 7.32981 -3.76019 9.26632 -3.76019C11.2028 -3.76019 12.7965 -2.07694 12.7965 -0.0313282Z" fill="#252525" stroke="#F9F8F4" stroke-width="0.3" stroke-miterlimit="10"/>
<path d="M14.7223 3.25828C14.7223 5.3039 7.66211 5.3039 7.66211 3.25828C7.66211 1.21267 9.25559 -0.470581 11.1921 -0.470581C13.1286 -0.470581 14.7223 1.21267 14.7223 3.25828Z" fill="#252525" stroke="#F9F8F4" stroke-width="0.3" stroke-miterlimit="10"/>
<path d="M8.30362 -0.0313282C8.30362 2.01429 0.601562 2.01429 0.601562 -0.0313282C0.601562 -2.07694 2.3399 -3.76019 4.45246 -3.76019C6.56502 -3.76019 8.30336 -2.07694 8.30336 -0.0313282H8.30362Z" fill="#252525" stroke="#F9F8F4" stroke-width="0.3" stroke-miterlimit="10"/>
<path d="M10.2294 3.25834C10.2294 5.30396 2.52734 5.30396 2.52734 3.25834C2.52734 1.21273 4.26568 -0.47052 6.37824 -0.47052C8.4908 -0.47052 10.2291 1.21273 10.2291 3.25834H10.2294Z" fill="#252525" stroke="#F9F8F4" stroke-width="0.3" stroke-miterlimit="10"/>
<path d="M4.45206 -0.0312552C4.45206 2.01426 -3.25 2.01426 -3.25 -0.0312552C-3.25 -2.07677 -1.5114 -3.76019 0.601159 -3.76019C2.71372 -3.76019 4.45206 -2.07677 4.45206 -0.0312552Z" fill="#252525" stroke="#F9F8F4" stroke-width="0.3" stroke-miterlimit="10"/>
<path d="M6.37784 3.25842C6.37784 5.30393 -1.32422 5.30393 -1.32422 3.25842C-1.32422 1.2129 0.414379 -0.47052 2.52694 -0.47052C4.6395 -0.47052 6.37784 1.2129 6.37784 3.25842Z" fill="#252525" stroke="#F9F8F4" stroke-width="0.3" stroke-miterlimit="10"/>
<path d="M-0.0413408 -0.0313771C-0.0413408 2.01414 -7.10156 2.01414 -7.10156 -0.0313771C-7.10156 -2.07689 -5.50808 -3.76031 -3.57133 -3.76031C-1.63458 -3.76031 -0.0413408 -2.07689 -0.0413408 -0.0313771Z" fill="#56EBFF" stroke="#F9F8F4" stroke-width="0.3" stroke-miterlimit="10"/>
<path d="M1.88444 3.25836C1.88444 5.30387 -5.17578 5.30387 -5.17578 3.25836C-5.17578 1.21284 -3.5823 -0.470581 -1.64555 -0.470581C0.291199 -0.470581 1.88444 1.21284 1.88444 3.25836Z" fill="#252525" stroke="#F9F8F4" stroke-width="0.3" stroke-miterlimit="10"/>
<path d="M28.8415 6.54722C28.8415 8.59284 21.7812 8.59284 21.7812 6.54722C21.7812 4.50161 23.3747 2.81836 25.3112 2.81836C27.2478 2.81836 28.8415 4.50161 28.8415 6.54722Z" fill="#252525" stroke="#F9F8F4" stroke-width="0.3" stroke-miterlimit="10"/>
<path d="M30.7673 9.83671C30.7673 11.8823 23.707 11.8823 23.707 9.83671C23.707 7.7911 25.3005 6.10785 27.237 6.10785C29.1735 6.10785 30.7673 7.7911 30.7673 9.83671Z" fill="#252525" stroke="#F9F8F4" stroke-width="0.3" stroke-miterlimit="10"/>
<path d="M24.3485 6.54722C24.3485 8.59284 16.6465 8.59284 16.6465 6.54722C16.6465 4.50161 18.3848 2.81836 20.4974 2.81836C22.6099 2.81836 24.3483 4.50161 24.3483 6.54722H24.3485Z" fill="#252525" stroke="#F9F8F4" stroke-width="0.3" stroke-miterlimit="10"/>
<path d="M26.2743 9.83684C26.2743 11.8824 18.5723 11.8824 18.5723 9.83684C18.5723 7.79122 20.3106 6.10797 22.4232 6.10797C24.5357 6.10797 26.2741 7.79122 26.2741 9.83684H26.2743Z" fill="#252525" stroke="#F9F8F4" stroke-width="0.3" stroke-miterlimit="10"/>
<path d="M20.4989 6.54724C20.4989 8.59275 12.7969 8.59275 12.7969 6.54724C12.7969 4.50172 14.5355 2.8183 16.648 2.8183C18.7606 2.8183 20.4989 4.50172 20.4989 6.54724Z" fill="#56EBFF" stroke="#F9F8F4" stroke-width="0.3" stroke-miterlimit="10"/>
<path d="M22.4228 9.83691C22.4228 11.8824 14.7207 11.8824 14.7207 9.83691C14.7207 7.79139 16.4593 6.10797 18.5719 6.10797C20.6844 6.10797 22.4228 7.79139 22.4228 9.83691Z" fill="#252525" stroke="#F9F8F4" stroke-width="0.3" stroke-miterlimit="10"/>
<path d="M16.6462 6.54722C16.6462 8.59284 9.58594 8.59284 9.58594 6.54722C9.58594 4.50161 11.1794 2.81836 13.1159 2.81836C15.0524 2.81836 16.6462 4.50161 16.6462 6.54722Z" fill="#252525" stroke="#F9F8F4" stroke-width="0.3" stroke-miterlimit="10"/>
<path d="M18.5719 9.83684C18.5719 11.8824 11.5117 11.8824 11.5117 9.83684C11.5117 7.79122 13.1052 6.10797 15.0417 6.10797C16.9782 6.10797 18.5719 7.79122 18.5719 9.83684Z" fill="#252525" stroke="#F9F8F4" stroke-width="0.3" stroke-miterlimit="10"/>
<path d="M12.154 6.54722C12.154 8.59284 5.09375 8.59284 5.09375 6.54722C5.09375 4.50161 6.68723 2.81836 8.62374 2.81836C10.5603 2.81836 12.154 4.50161 12.154 6.54722Z" fill="#252525" stroke="#F9F8F4" stroke-width="0.3" stroke-miterlimit="10"/>
<path d="M14.0798 9.83684C14.0798 11.8824 7.01953 11.8824 7.01953 9.83684C7.01953 7.79122 8.61301 6.10797 10.5495 6.10797C12.486 6.10797 14.0798 7.79122 14.0798 9.83684Z" fill="#252525" stroke="#F9F8F4" stroke-width="0.3" stroke-miterlimit="10"/>
<path d="M7.66104 6.54722C7.66104 8.59284 -0.0410156 8.59284 -0.0410156 6.54722C-0.0410156 4.50161 1.69732 2.81836 3.80988 2.81836C5.92244 2.81836 7.66078 4.50161 7.66078 6.54722H7.66104Z" fill="#252525" stroke="#F9F8F4" stroke-width="0.3" stroke-miterlimit="10"/>
<path d="M9.58487 9.83671C9.58487 11.8823 1.88281 11.8823 1.88281 9.83671C1.88281 7.7911 3.62115 6.10785 5.73371 6.10785C7.84627 6.10785 9.58461 7.7911 9.58461 9.83671H9.58487Z" fill="#252525" stroke="#F9F8F4" stroke-width="0.3" stroke-miterlimit="10"/>
<path d="M3.80948 6.5473C3.80948 8.59281 -3.89258 8.59281 -3.89258 6.5473C-3.89258 4.50178 -2.15398 2.81836 -0.0414193 2.81836C2.07114 2.81836 3.80948 4.50178 3.80948 6.5473Z" fill="#252525" stroke="#F9F8F4" stroke-width="0.3" stroke-miterlimit="10"/>
<path d="M5.73722 9.83679C5.73722 11.8823 -1.96484 11.8823 -1.96484 9.83679C-1.96484 7.79127 -0.226246 6.10785 1.88632 6.10785C3.99888 6.10785 5.73722 7.79127 5.73722 9.83679Z" fill="#56EBFF" stroke="#F9F8F4" stroke-width="0.3" stroke-miterlimit="10"/>
<path d="M1.24186 9.83691C1.24186 11.8824 -5.81836 11.8824 -5.81836 9.83691C-5.81836 7.79139 -4.22488 6.10797 -2.28813 6.10797C-0.351379 6.10797 1.24186 7.79139 1.24186 9.83691Z" fill="#252525" stroke="#F9F8F4" stroke-width="0.3" stroke-miterlimit="10"/>
<path d="M29.484 12.4684C29.484 14.514 22.4238 14.514 22.4238 12.4684C22.4238 10.4228 24.0173 8.73956 25.9538 8.73956C27.8903 8.73956 29.484 10.4228 29.484 12.4684Z" fill="#56EBFF" stroke="#F9F8F4" stroke-width="0.3" stroke-miterlimit="10"/>
<path d="M24.9911 12.4684C24.9911 14.514 17.2891 14.514 17.2891 12.4684C17.2891 10.4228 19.0274 8.73956 21.14 8.73956C23.2525 8.73956 24.9909 10.4228 24.9909 12.4684H24.9911Z" fill="#252525" stroke="#F9F8F4" stroke-width="0.3" stroke-miterlimit="10"/>
<path d="M26.9169 15.7578C26.9169 17.8034 19.2148 17.8034 19.2148 15.7578C19.2148 13.7122 20.9532 12.0289 23.0657 12.0289C25.1783 12.0289 26.9166 13.7122 26.9166 15.7578H26.9169Z" fill="#252525" stroke="#F9F8F4" stroke-width="0.3" stroke-miterlimit="10"/>
<path d="M21.1396 12.4686C21.1396 14.5141 13.4375 14.5141 13.4375 12.4686C13.4375 10.4231 15.1761 8.73969 17.2887 8.73969C19.4012 8.73969 21.1396 10.4231 21.1396 12.4686Z" fill="#252525" stroke="#F9F8F4" stroke-width="0.3" stroke-miterlimit="10"/>
<path d="M23.0653 15.7579C23.0653 17.8034 15.3633 17.8034 15.3633 15.7579C15.3633 13.7124 17.1019 12.0289 19.2144 12.0289C21.327 12.0289 23.0653 13.7124 23.0653 15.7579Z" fill="#252525" stroke="#F9F8F4" stroke-width="0.3" stroke-miterlimit="10"/>
<path d="M17.2887 12.4684C17.2887 14.514 10.2285 14.514 10.2285 12.4684C10.2285 10.4228 11.822 8.73956 13.7585 8.73956C15.695 8.73956 17.2887 10.4228 17.2887 12.4684Z" fill="#252525" stroke="#F9F8F4" stroke-width="0.3" stroke-miterlimit="10"/>
<path d="M19.2145 15.7578C19.2145 17.8034 12.1543 17.8034 12.1543 15.7578C12.1543 13.7122 13.7478 12.0289 15.6843 12.0289C17.6208 12.0289 19.2145 13.7122 19.2145 15.7578Z" fill="#252525" stroke="#F9F8F4" stroke-width="0.3" stroke-miterlimit="10"/>
<path d="M12.7965 12.4684C12.7965 14.514 5.73633 14.514 5.73633 12.4684C5.73633 10.4228 7.32981 8.73956 9.26632 8.73956C11.2028 8.73956 12.7965 10.4228 12.7965 12.4684Z" fill="#252525" stroke="#F9F8F4" stroke-width="0.3" stroke-miterlimit="10"/>
<path d="M14.7223 15.7578C14.7223 17.8034 7.66211 17.8034 7.66211 15.7578C7.66211 13.7122 9.25559 12.0289 11.1921 12.0289C13.1286 12.0289 14.7223 13.7122 14.7223 15.7578Z" fill="#56EBFF" stroke="#F9F8F4" stroke-width="0.3" stroke-miterlimit="10"/>
<path d="M8.30362 12.4684C8.30362 14.514 0.601562 14.514 0.601562 12.4684C0.601562 10.4228 2.3399 8.73956 4.45246 8.73956C6.56502 8.73956 8.30336 10.4228 8.30336 12.4684H8.30362Z" fill="#252525" stroke="#F9F8F4" stroke-width="0.3" stroke-miterlimit="10"/>
<path d="M10.2294 15.7579C10.2294 17.8035 2.52734 17.8035 2.52734 15.7579C2.52734 13.7122 4.26568 12.029 6.37824 12.029C8.4908 12.029 10.2291 13.7122 10.2291 15.7579H10.2294Z" fill="#252525" stroke="#F9F8F4" stroke-width="0.3" stroke-miterlimit="10"/>
<path d="M4.45206 12.4685C4.45206 14.514 -3.25 14.514 -3.25 12.4685C-3.25 10.423 -1.5114 8.73956 0.601159 8.73956C2.71372 8.73956 4.45206 10.423 4.45206 12.4685Z" fill="#252525" stroke="#F9F8F4" stroke-width="0.3" stroke-miterlimit="10"/>
<path d="M6.37784 15.7579C6.37784 17.8034 -1.32422 17.8034 -1.32422 15.7579C-1.32422 13.7124 0.414379 12.029 2.52694 12.029C4.6395 12.029 6.37784 13.7124 6.37784 15.7579Z" fill="#252525" stroke="#F9F8F4" stroke-width="0.3" stroke-miterlimit="10"/>
<path d="M-0.0413408 12.4686C-0.0413408 14.5141 -7.10156 14.5141 -7.10156 12.4686C-7.10156 10.4231 -5.50808 8.73969 -3.57133 8.73969C-1.63458 8.73969 -0.0413408 10.4231 -0.0413408 12.4686Z" fill="#252525" stroke="#F9F8F4" stroke-width="0.3" stroke-miterlimit="10"/>
<path d="M1.88444 15.7579C1.88444 17.8034 -5.17578 17.8034 -5.17578 15.7579C-5.17578 13.7124 -3.5823 12.0289 -1.64555 12.0289C0.291199 12.0289 1.88444 13.7124 1.88444 15.7579Z" fill="#252525" stroke="#F9F8F4" stroke-width="0.3" stroke-miterlimit="10"/>
<path d="M28.7204 19.2054C28.7204 21.251 21.6602 21.251 21.6602 19.2054C21.6602 17.1598 23.2536 15.4765 25.1901 15.4765C27.1267 15.4765 28.7204 17.1598 28.7204 19.2054Z" fill="#56EBFF" stroke="#F9F8F4" stroke-width="0.3" stroke-miterlimit="10"/>
<path d="M30.6442 22.4947C30.6442 24.5403 23.584 24.5403 23.584 22.4947C23.584 20.4491 25.1775 18.7659 27.114 18.7659C29.0505 18.7659 30.6442 20.4491 30.6442 22.4947Z" fill="#252525" stroke="#F9F8F4" stroke-width="0.3" stroke-miterlimit="10"/>
<path d="M24.2255 19.2054C24.2255 21.251 16.5234 21.251 16.5234 19.2054C16.5234 17.1598 18.2618 15.4765 20.3743 15.4765C22.4869 15.4765 24.2252 17.1598 24.2252 19.2054H24.2255Z" fill="#252525" stroke="#F9F8F4" stroke-width="0.3" stroke-miterlimit="10"/>
<path d="M26.1513 22.4947C26.1513 24.5403 18.4492 24.5403 18.4492 22.4947C18.4492 20.4491 20.1876 18.7658 22.3001 18.7658C24.4127 18.7658 26.151 20.4491 26.151 22.4947H26.1513Z" fill="#252525" stroke="#F9F8F4" stroke-width="0.3" stroke-miterlimit="10"/>
<path d="M20.3759 19.2054C20.3759 21.2509 12.6738 21.2509 12.6738 19.2054C12.6738 17.1599 14.4124 15.4764 16.525 15.4764C18.6375 15.4764 20.3759 17.1599 20.3759 19.2054Z" fill="#252525" stroke="#F9F8F4" stroke-width="0.3" stroke-miterlimit="10"/>
<path d="M22.2997 22.4947C22.2997 24.5403 14.5977 24.5403 14.5977 22.4947C14.5977 20.4492 16.3363 18.7658 18.4488 18.7658C20.5614 18.7658 22.2997 20.4492 22.2997 22.4947Z" fill="#252525" stroke="#F9F8F4" stroke-width="0.3" stroke-miterlimit="10"/>
<path d="M16.5251 19.2054C16.5251 21.251 9.46484 21.251 9.46484 19.2054C9.46484 17.1598 11.0583 15.4765 12.9948 15.4765C14.9313 15.4765 16.5251 17.1598 16.5251 19.2054Z" fill="#252525" stroke="#F9F8F4" stroke-width="0.3" stroke-miterlimit="10"/>
<path d="M18.4508 22.4947C18.4508 24.5403 11.3906 24.5403 11.3906 22.4947C11.3906 20.4491 12.9841 18.7658 14.9206 18.7658C16.8571 18.7658 18.4508 20.4491 18.4508 22.4947Z" fill="#252525" stroke="#F9F8F4" stroke-width="0.3" stroke-miterlimit="10"/>
<path d="M12.0329 19.2054C12.0329 21.251 4.97266 21.251 4.97266 19.2054C4.97266 17.1598 6.56614 15.4765 8.50265 15.4765C10.4392 15.4765 12.0329 17.1598 12.0329 19.2054Z" fill="#252525" stroke="#F9F8F4" stroke-width="0.3" stroke-miterlimit="10"/>
<path d="M13.9587 22.4947C13.9587 24.5403 6.89844 24.5403 6.89844 22.4947C6.89844 20.4491 8.49192 18.7658 10.4284 18.7658C12.3649 18.7658 13.9587 20.4491 13.9587 22.4947Z" fill="#252525" stroke="#F9F8F4" stroke-width="0.3" stroke-miterlimit="10"/>
<path d="M7.538 19.2054C7.538 21.251 -0.164062 21.251 -0.164062 19.2054C-0.164062 17.1598 1.57428 15.4765 3.68684 15.4765C5.7994 15.4765 7.53774 17.1598 7.53774 19.2054H7.538Z" fill="#252525" stroke="#F9F8F4" stroke-width="0.3" stroke-miterlimit="10"/>
<path d="M9.46378 22.4947C9.46378 24.5403 1.76172 24.5403 1.76172 22.4947C1.76172 20.4491 3.50006 18.7659 5.61262 18.7659C7.72518 18.7659 9.46352 20.4491 9.46352 22.4947H9.46378Z" fill="#252525" stroke="#F9F8F4" stroke-width="0.3" stroke-miterlimit="10"/>
<path d="M3.68644 19.2054C3.68644 21.251 -4.01562 21.251 -4.01562 19.2054C-4.01562 17.1599 -2.27703 15.4765 -0.164466 15.4765C1.94809 15.4765 3.68644 17.1599 3.68644 19.2054Z" fill="#252525" stroke="#F9F8F4" stroke-width="0.3" stroke-miterlimit="10"/>
<path d="M5.61417 22.4948C5.61417 24.5403 -2.08789 24.5403 -2.08789 22.4948C-2.08789 20.4493 -0.349293 18.7659 1.76327 18.7659C3.87583 18.7659 5.61417 20.4493 5.61417 22.4948Z" fill="#252525" stroke="#F9F8F4" stroke-width="0.3" stroke-miterlimit="10"/>
<path d="M1.11882 22.4947C1.11882 24.5403 -5.94141 24.5403 -5.94141 22.4947C-5.94141 20.4492 -4.34793 18.7658 -2.41118 18.7658C-0.474426 18.7658 1.11882 20.4492 1.11882 22.4947Z" fill="#252525" stroke="#F9F8F4" stroke-width="0.3" stroke-miterlimit="10"/>
<path d="M29.361 25.784C29.361 27.8296 22.3008 27.8296 22.3008 25.784C22.3008 23.7384 23.8943 22.0551 25.8308 22.0551C27.7673 22.0551 29.361 23.7384 29.361 25.784Z" fill="#252525" stroke="#F9F8F4" stroke-width="0.3" stroke-miterlimit="10"/>
<path d="M24.87 25.784C24.87 27.8296 17.168 27.8296 17.168 25.784C17.168 23.7384 18.9063 22.0551 21.0189 22.0551C23.1314 22.0551 24.8698 23.7384 24.8698 25.784H24.87Z" fill="#252525" stroke="#F9F8F4" stroke-width="0.3" stroke-miterlimit="10"/>
<path d="M21.0185 25.7839C21.0185 27.8294 13.3164 27.8294 13.3164 25.7839C13.3164 23.7384 15.055 22.055 17.1676 22.055C19.2801 22.055 21.0185 23.7384 21.0185 25.7839Z" fill="#252525" stroke="#F9F8F4" stroke-width="0.3" stroke-miterlimit="10"/>
<path d="M17.1657 25.784C17.1657 27.8296 10.1055 27.8296 10.1055 25.784C10.1055 23.7384 11.6989 22.0551 13.6355 22.0551C15.572 22.0551 17.1657 23.7384 17.1657 25.784Z" fill="#252525" stroke="#F9F8F4" stroke-width="0.3" stroke-miterlimit="10"/>
<path d="M12.6735 25.784C12.6735 27.8296 5.61328 27.8296 5.61328 25.784C5.61328 23.7384 7.20676 22.0551 9.14327 22.0551C11.0798 22.0551 12.6735 23.7384 12.6735 25.784Z" fill="#252525" stroke="#F9F8F4" stroke-width="0.3" stroke-miterlimit="10"/>
<path d="M8.18253 25.784C8.18253 27.8296 0.480469 27.8296 0.480469 25.784C0.480469 23.7384 2.21881 22.0551 4.33137 22.0551C6.44393 22.0551 8.18227 23.7384 8.18227 25.784H8.18253Z" fill="#56EBFF" stroke="#F9F8F4" stroke-width="0.3" stroke-miterlimit="10"/>
<path d="M4.33097 25.7841C4.33097 27.8296 -3.37109 27.8296 -3.37109 25.7841C-3.37109 23.7385 -1.6325 22.0551 0.480065 22.0551C2.59263 22.0551 4.33097 23.7385 4.33097 25.7841Z" fill="#252525" stroke="#F9F8F4" stroke-width="0.3" stroke-miterlimit="10"/>
</g>
<path d="M17.8969 18.4584L17.8983 18.4572C20.3814 16.3822 23.372 13.0082 23.4945 8.52092C23.5509 7.0083 23.1695 5.51158 22.3998 4.24271C21.6293 2.97267 20.5065 1.992 19.1849 1.44859C17.8624 0.904821 16.414 0.829321 15.0484 1.2342C13.8812 1.58026 12.8307 2.26041 12.0011 3.19231C11.1915 2.28256 10.1711 1.61225 9.03618 1.25866C7.7037 0.843511 6.28537 0.887606 4.97763 1.38414C3.67069 1.88038 2.54385 2.80177 1.74575 4.01417C0.9486 5.22511 0.515945 6.67023 0.501889 8.15248L0.500145 8.22477L0.5 8.22476V8.23682C0.5 12.82 3.51367 16.2718 6.02494 18.3916L6.02656 18.393C7.49937 19.6255 9.08592 20.689 10.761 21.5658C10.8996 21.6398 11.0396 21.7105 11.181 21.7779L11.2763 21.8558H11.3569C11.5626 21.9357 11.781 21.977 12.0022 21.9766C12.223 21.9762 12.4409 21.9342 12.6461 21.8538H12.6749L12.7805 21.7962L12.7891 21.7922C12.7901 21.7917 12.7914 21.7911 12.7928 21.7905C12.81 21.7829 12.8558 21.7625 12.9034 21.7371C14.6724 20.8437 16.3466 19.7443 17.8969 18.4584Z" stroke="#F9F8F4"/>
</svg>
